%TF.GenerationSoftware,KiCad,Pcbnew,(6.0.4)*%
%TF.CreationDate,2022-05-24T20:51:57+02:00*%
%TF.ProjectId,plate,706c6174-652e-46b6-9963-61645f706362,rev?*%
%TF.SameCoordinates,Original*%
%TF.FileFunction,Copper,L2,Bot*%
%TF.FilePolarity,Positive*%
%FSLAX46Y46*%
G04 Gerber Fmt 4.6, Leading zero omitted, Abs format (unit mm)*
G04 Created by KiCad (PCBNEW (6.0.4)) date 2022-05-24 20:51:57*
%MOMM*%
%LPD*%
G01*
G04 APERTURE LIST*
%TA.AperFunction,NonConductor*%
%ADD10C,2.000000*%
%TD*%
G04 APERTURE END LIST*
D10*
X277248005Y-138431997D02*
X281718006Y-138431997D01*
X283517994Y-162231996D02*
X283517994Y-163056993D01*
X360075001Y-201581994D02*
X360075001Y-196881990D01*
X289547993Y-131681997D02*
X289547993Y-131681997D01*
X17462000Y-187581994D02*
X17462000Y-201581994D01*
X355599995Y-182531991D02*
X355599995Y-182531991D01*
X398400013Y-176531991D02*
X398400013Y-178056993D01*
X141287007Y-163481996D02*
X141287007Y-163481996D01*
X291017994Y-153956994D02*
X291017994Y-153956994D01*
X122237004Y-163481996D02*
X136237004Y-163481996D01*
X398400013Y-176531991D02*
X398400013Y-176531991D01*
X92911999Y-189051996D02*
X92911999Y-189051996D01*
X160336994Y-149481996D02*
X160336994Y-163481996D01*
X388650013Y-182531991D02*
X388650013Y-168531991D01*
X290425007Y-126131997D02*
X290425007Y-125151998D01*
X136524998Y-130431997D02*
X136524998Y-144431993D01*
X350550007Y-111381997D02*
X336550007Y-111381997D01*
X337800007Y-189051996D02*
X337800007Y-192281991D01*
X283874989Y-125381997D02*
X283874989Y-125381997D01*
X398400013Y-178056993D02*
X393700001Y-178056993D01*
X87761997Y-201351991D02*
X87761997Y-201351991D01*
X46036999Y-163481996D02*
X60036999Y-163481996D01*
X290425007Y-125151998D02*
X292150013Y-125151998D01*
X267206013Y-182531991D02*
X267206013Y-182531991D01*
X136237004Y-163481996D02*
X136237004Y-163481996D01*
X393700001Y-192056993D02*
X398400013Y-192056993D01*
X98136997Y-163481996D02*
X98136997Y-149481996D01*
X174336994Y-149481996D02*
X174336994Y-149481996D01*
X200817997Y-187581994D02*
X200817997Y-187581994D01*
X93661999Y-168531991D02*
X93661999Y-182531991D01*
X402999989Y-162231996D02*
X402999989Y-162231996D01*
X122237004Y-149481996D02*
X122237004Y-163481996D01*
X112712002Y-168531991D02*
X112712002Y-182531991D01*
X65086998Y-163481996D02*
X79087002Y-163481996D01*
X193675007Y-130431997D02*
X193675007Y-144431993D01*
X192793003Y-202331994D02*
X192793003Y-201351991D01*
X12700000Y-125381997D02*
X12700000Y-125381997D01*
X219868000Y-201581994D02*
X236250004Y-201581994D01*
X321974995Y-87541602D02*
X321974995Y-87541602D01*
X406230000Y-198606996D02*
X407150013Y-198606996D01*
X117187000Y-149481996D02*
X103187000Y-149481996D01*
X342825001Y-201351991D02*
X342825001Y-201351991D01*
X393700001Y-87541602D02*
X393700001Y-101541602D01*
X290425007Y-112851995D02*
X290425007Y-112851995D01*
X86937000Y-192281991D02*
X86937000Y-192281991D01*
X221961994Y-182531991D02*
X221961994Y-182531991D01*
X261599995Y-116081994D02*
X261599995Y-116081994D01*
X402999989Y-155481996D02*
X402999989Y-153956994D01*
X307974995Y-163481996D02*
X321974995Y-163481996D01*
X236250004Y-87570000D02*
X236250004Y-87570000D01*
X263323994Y-111931999D02*
X263323994Y-111931999D01*
X227011997Y-168531991D02*
X227011997Y-182531991D01*
X360075001Y-192281991D02*
X360075001Y-187581994D01*
X279111988Y-192344995D02*
X279111988Y-192344995D01*
X107949002Y-101569997D02*
X107949002Y-101569997D01*
X112712002Y-182531991D02*
X112712002Y-182531991D01*
X94636997Y-196881990D02*
X134142002Y-196881990D01*
X393930012Y-160506990D02*
X393930012Y-162231996D01*
X400200001Y-162231996D02*
X400200001Y-163056993D01*
X227011997Y-182531991D02*
X227011997Y-182531991D01*
X286318012Y-139956994D02*
X286318012Y-139956994D01*
X179386997Y-163481996D02*
X193386997Y-163481996D01*
X400200001Y-201156991D02*
X402999989Y-201156991D01*
X406230000Y-131681997D02*
X406230000Y-131681997D01*
X283874989Y-111381997D02*
X283874989Y-111381997D01*
X374650013Y-144431993D02*
X374650013Y-144431993D01*
X145761997Y-182531991D02*
X145761997Y-182531991D01*
X150812000Y-182531991D02*
X164812000Y-182531991D01*
X202912007Y-168531991D02*
X188912007Y-168531991D01*
X392950001Y-157206994D02*
X392950001Y-160506990D01*
X393930012Y-138431997D02*
X393930012Y-138431997D01*
X83850003Y-101569997D02*
X83850003Y-87570000D01*
X146050007Y-111381997D02*
X146050007Y-125381997D01*
X355599995Y-125381997D02*
X355599995Y-125381997D01*
X194517994Y-196881990D02*
X194517994Y-196881990D01*
X279111988Y-206344995D02*
X279111988Y-192344995D01*
X165099995Y-125381997D02*
X179099995Y-125381997D01*
X393700001Y-153956994D02*
X398400013Y-153956994D01*
X290425007Y-111931999D02*
X290425007Y-111931999D01*
X198149998Y-125381997D02*
X198149998Y-125381997D01*
X336550007Y-111381997D02*
X336550007Y-125381997D01*
X15081000Y-182531991D02*
X29081000Y-182531991D01*
X342825001Y-201351991D02*
X344550007Y-201351991D01*
X289547993Y-162231996D02*
X289547993Y-162231996D01*
X182886997Y-192281991D02*
X155287007Y-192281991D01*
X402999989Y-138431997D02*
X406230000Y-138431997D01*
X284162007Y-192344995D02*
X284162007Y-206344995D01*
X355599995Y-163481996D02*
X355599995Y-163481996D01*
X164812000Y-168531991D02*
X164812000Y-168531991D01*
X202912007Y-182531991D02*
X202912007Y-168531991D01*
X134142002Y-201581994D02*
X134142002Y-201581994D01*
X344550007Y-189051996D02*
X342825001Y-189051996D01*
X60325001Y-130431997D02*
X60325001Y-144431993D01*
X150524998Y-144431993D02*
X150524998Y-144431993D01*
X369599995Y-163481996D02*
X369599995Y-163481996D01*
X400200001Y-168956994D02*
X400200001Y-169781991D01*
X388650013Y-163481996D02*
X388650013Y-149481996D01*
X269874989Y-120681997D02*
X269874989Y-125381997D01*
X193386997Y-163481996D02*
X193386997Y-149481996D01*
X155287007Y-196881990D02*
X155287007Y-196881990D01*
X255300007Y-101569997D02*
X255300007Y-101569997D01*
X402999989Y-130856996D02*
X402999989Y-130856996D01*
X219868000Y-187581994D02*
X219868000Y-201581994D01*
X174336994Y-163481996D02*
X174336994Y-149481996D01*
X192793003Y-188131990D02*
X192793003Y-188131990D01*
X261599995Y-125151998D02*
X263323994Y-125151998D01*
X141000004Y-111381997D02*
X126998997Y-111381997D01*
X298162007Y-173294992D02*
X284162007Y-173294992D01*
X26699999Y-125381997D02*
X26699999Y-125381997D01*
X283874989Y-120681997D02*
X285400013Y-120681997D01*
X277248005Y-131681997D02*
X277248005Y-133406995D01*
X117475003Y-130431997D02*
X117475003Y-144431993D01*
X160050007Y-125381997D02*
X160050007Y-125381997D01*
X260774998Y-116081994D02*
X260774998Y-116081994D01*
X393930012Y-155481996D02*
X393930012Y-155481996D01*
X87761997Y-192281991D02*
X86937000Y-192281991D01*
X207675007Y-144431993D02*
X207675007Y-130431997D01*
X203787007Y-202331994D02*
X203787007Y-202331994D01*
X98424999Y-144431993D02*
X98424999Y-144431993D01*
X222250004Y-125381997D02*
X236250004Y-125381997D01*
X276267994Y-133406995D02*
X276267994Y-133406995D01*
X284162007Y-173294992D02*
X284162007Y-187294992D01*
X277248005Y-131681997D02*
X277248005Y-131681997D01*
X203200001Y-125381997D02*
X217200001Y-125381997D01*
X126712002Y-168531991D02*
X112712002Y-168531991D01*
X285400013Y-125151998D02*
X287124989Y-125151998D01*
X134142002Y-192281991D02*
X94636997Y-192281991D01*
X41275002Y-144431993D02*
X41275002Y-144431993D01*
X393930012Y-174806993D02*
X393930012Y-174806993D01*
X289547993Y-131681997D02*
X286318012Y-131681997D01*
X103187000Y-163481996D02*
X103187000Y-163481996D01*
X286318012Y-153956994D02*
X286318012Y-153956994D01*
X169862004Y-182531991D02*
X169862004Y-182531991D01*
X402999989Y-131681997D02*
X402999989Y-130856996D01*
X276267994Y-157206994D02*
X276267994Y-157206994D01*
X406230000Y-160506990D02*
X407150013Y-160506990D01*
X374650013Y-125381997D02*
X374650013Y-125381997D01*
X277248005Y-162231996D02*
X277248005Y-162231996D01*
X392950001Y-157206994D02*
X392950001Y-157206994D01*
X388649006Y-201581994D02*
X388649006Y-187581994D01*
X369599995Y-125381997D02*
X369599995Y-125381997D01*
X402999989Y-162231996D02*
X406230000Y-162231996D01*
X31462000Y-130431997D02*
X31462000Y-130431997D01*
X87761997Y-189051996D02*
X87761997Y-189051996D01*
X41275002Y-201581994D02*
X55275002Y-201581994D01*
X187912007Y-201351991D02*
X189493000Y-201351991D01*
X406230000Y-136706994D02*
X406230000Y-136706994D01*
X392950001Y-174806993D02*
X392950001Y-174806993D01*
X342825001Y-188131990D02*
X339524006Y-188131990D01*
X402999989Y-155481996D02*
X402999989Y-155481996D01*
X277017994Y-153956994D02*
X277017994Y-153956994D01*
X155287007Y-196881990D02*
X182886997Y-196881990D01*
X93661999Y-182531991D02*
X93661999Y-182531991D01*
X112712002Y-182531991D02*
X126712002Y-182531991D01*
X407150013Y-174806993D02*
X407150013Y-171506990D01*
X263323994Y-126131997D02*
X266624989Y-126131997D01*
X366624989Y-189051996D02*
X366624989Y-189051996D01*
X212437000Y-163481996D02*
X212437000Y-149481996D01*
X121949002Y-111381997D02*
X107949002Y-111381997D01*
X112424999Y-144431993D02*
X112424999Y-144431993D01*
X321974995Y-130431997D02*
X307974995Y-130431997D01*
X155287007Y-192281991D02*
X155287007Y-187581994D01*
X392950001Y-171506990D02*
X392950001Y-171506990D01*
X29081000Y-182531991D02*
X29081000Y-182531991D01*
X160050007Y-125381997D02*
X160050007Y-111381997D01*
X285400013Y-112851995D02*
X285400013Y-116081994D01*
X292150013Y-125151998D02*
X292150013Y-125151998D01*
X337800007Y-195081994D02*
X337800007Y-195081994D01*
X283874989Y-120681997D02*
X283874989Y-120681997D01*
X31462000Y-201581994D02*
X31462000Y-187581994D01*
X321974995Y-149481996D02*
X307974995Y-149481996D01*
X92911999Y-202331994D02*
X92911999Y-202331994D01*
X182886997Y-189051996D02*
X182886997Y-189051996D01*
X283517994Y-131681997D02*
X283517994Y-131681997D01*
X55275002Y-187581994D02*
X55275002Y-187581994D01*
X285400013Y-116081994D02*
X283874989Y-116081994D01*
X366624989Y-188131990D02*
X363325001Y-188131990D01*
X212437000Y-163481996D02*
X212437000Y-163481996D01*
X406230000Y-193581994D02*
X402999989Y-193581994D01*
X187912007Y-189051996D02*
X187912007Y-188131990D01*
X392950001Y-133406995D02*
X392950001Y-136706994D01*
X260774998Y-118881997D02*
X261599995Y-118881997D01*
X286318012Y-138431997D02*
X286318012Y-138431997D01*
X369175007Y-195081994D02*
X369175007Y-192281991D01*
X407150013Y-160506990D02*
X407150013Y-157206994D01*
X102899998Y-125381997D02*
X102899998Y-111381997D01*
X307974995Y-182531991D02*
X307974995Y-182531991D01*
X189493000Y-189051996D02*
X187912007Y-189051996D01*
X55562000Y-182531991D02*
X69562000Y-182531991D01*
X126998997Y-125381997D02*
X126998997Y-125381997D01*
X398400013Y-178056993D02*
X398400013Y-178056993D01*
X155287007Y-163481996D02*
X155287007Y-163481996D01*
X36511999Y-168531991D02*
X36511999Y-182531991D01*
X189493000Y-189051996D02*
X189493000Y-189051996D01*
X183862004Y-182531991D02*
X183862004Y-168531991D01*
X336973988Y-192281991D02*
X336973988Y-192281991D01*
X286318012Y-130856996D02*
X283517994Y-130856996D01*
X55275002Y-144431993D02*
X55275002Y-130431997D01*
X198149998Y-125381997D02*
X198149998Y-111381997D01*
X79374996Y-144431993D02*
X79374996Y-144431993D01*
X293400013Y-87570000D02*
X279400013Y-87570000D01*
X187912007Y-202331994D02*
X187912007Y-202331994D01*
X368348988Y-201351991D02*
X368348988Y-201351991D01*
X406230000Y-155481996D02*
X402999989Y-155481996D01*
X266624989Y-125151998D02*
X266624989Y-125151998D01*
X393930012Y-169781991D02*
X393930012Y-171506990D01*
X121949002Y-125381997D02*
X121949002Y-111381997D01*
X33843001Y-149481996D02*
X33843001Y-149481996D01*
X407150013Y-157206994D02*
X406230000Y-157206994D01*
X93374996Y-130431997D02*
X79374996Y-130431997D01*
X50799999Y-101569997D02*
X64799999Y-101569997D01*
X400200001Y-200331994D02*
X400200001Y-200331994D01*
X164812000Y-168531991D02*
X150812000Y-168531991D01*
X62706001Y-187581994D02*
X62706001Y-201581994D01*
X203200001Y-125381997D02*
X203200001Y-125381997D01*
X393930012Y-162231996D02*
X393930012Y-162231996D01*
X368348988Y-192281991D02*
X368348988Y-189051996D01*
X182886997Y-196881990D02*
X182886997Y-201351991D01*
X255300007Y-101569997D02*
X255300007Y-87570000D01*
X250825001Y-144431993D02*
X264823994Y-144431993D01*
X398400013Y-193581994D02*
X393930012Y-193581994D01*
X112424999Y-130431997D02*
X112424999Y-130431997D01*
X155287007Y-192281991D02*
X155287007Y-192281991D01*
X121949002Y-87570000D02*
X121949002Y-87570000D01*
X183862004Y-182531991D02*
X183862004Y-182531991D01*
X150524998Y-101569997D02*
X150524998Y-87570000D01*
X83850003Y-125381997D02*
X83850003Y-125381997D01*
X398400013Y-138431997D02*
X398400013Y-138431997D01*
X255586994Y-163481996D02*
X255586994Y-163481996D01*
X92911999Y-188131990D02*
X89487004Y-188131990D01*
X286318012Y-155481996D02*
X286318012Y-153956994D01*
X141000004Y-111381997D02*
X141000004Y-111381997D01*
X369599995Y-168531991D02*
X355599995Y-168531991D01*
X374650013Y-182531991D02*
X388650013Y-182531991D01*
X87761997Y-195081994D02*
X87761997Y-195081994D01*
X200817997Y-201581994D02*
X203787007Y-201581994D01*
X269586994Y-163481996D02*
X269586994Y-163481996D01*
X269874989Y-116081994D02*
X268349995Y-116081994D01*
X15081000Y-168531991D02*
X15081000Y-182531991D01*
X393930012Y-176531991D02*
X393930012Y-176531991D01*
X107661999Y-168531991D02*
X93661999Y-168531991D01*
X277248005Y-162231996D02*
X283517994Y-162231996D01*
X339524006Y-202331994D02*
X339524006Y-202331994D01*
X317211994Y-192344995D02*
X303211994Y-192344995D01*
X393930012Y-136706994D02*
X393930012Y-136706994D01*
X266624989Y-111931999D02*
X263323994Y-111931999D01*
X92911999Y-188131990D02*
X92911999Y-188131990D01*
X93374996Y-144431993D02*
X93374996Y-130431997D01*
X207961994Y-182531991D02*
X207961994Y-182531991D01*
X392950001Y-174806993D02*
X393930012Y-174806993D01*
X255300007Y-125381997D02*
X255300007Y-125381997D01*
X207086994Y-202331994D02*
X207086994Y-201581994D01*
X164812000Y-182531991D02*
X164812000Y-182531991D01*
X392950001Y-171506990D02*
X392950001Y-174806993D01*
X86937000Y-195081994D02*
X86937000Y-195081994D01*
X222250004Y-111381997D02*
X222250004Y-125381997D01*
X402999989Y-168956994D02*
X402999989Y-168956994D01*
X317211994Y-192344995D02*
X317211994Y-192344995D01*
X46036999Y-149481996D02*
X46036999Y-163481996D01*
X236250004Y-101569997D02*
X236250004Y-101569997D01*
X398400013Y-153956994D02*
X398400013Y-153956994D01*
X245774998Y-144431993D02*
X245774998Y-144431993D01*
X261599995Y-118881997D02*
X261599995Y-118881997D01*
X392950001Y-160506990D02*
X392950001Y-160506990D01*
X202912007Y-168531991D02*
X202912007Y-168531991D01*
X346075001Y-192281991D02*
X344550007Y-192281991D01*
X60036999Y-149481996D02*
X60036999Y-149481996D01*
X268349995Y-116081994D02*
X268349995Y-112851995D01*
X203787007Y-202331994D02*
X207086994Y-202331994D01*
X261599995Y-116081994D02*
X260774998Y-116081994D01*
X292150013Y-116081994D02*
X292150013Y-112851995D01*
X321974995Y-163481996D02*
X321974995Y-163481996D01*
X393930012Y-195306993D02*
X392950001Y-195306993D01*
X355599995Y-182531991D02*
X369599995Y-182531991D01*
X402999989Y-176531991D02*
X406230000Y-176531991D01*
X150812000Y-182531991D02*
X150812000Y-182531991D01*
X94636997Y-189051996D02*
X92911999Y-189051996D01*
X74612004Y-168531991D02*
X74612004Y-182531991D01*
X406230000Y-174806993D02*
X407150013Y-174806993D01*
X188912007Y-182531991D02*
X202912007Y-182531991D01*
X141000004Y-125381997D02*
X141000004Y-125381997D01*
X87761997Y-189051996D02*
X87761997Y-192281991D01*
X286318012Y-162231996D02*
X289547993Y-162231996D01*
X88899998Y-125381997D02*
X102899998Y-125381997D01*
X45750000Y-125381997D02*
X45750000Y-111381997D01*
X336550007Y-163481996D02*
X350550007Y-163481996D01*
X287124989Y-125151998D02*
X287124989Y-126131997D01*
X60036999Y-163481996D02*
X60036999Y-149481996D01*
X255300007Y-111381997D02*
X241300007Y-111381997D01*
X102899998Y-87570000D02*
X88899998Y-87570000D01*
X65086998Y-163481996D02*
X65086998Y-163481996D01*
X281718006Y-155481996D02*
X277248005Y-155481996D01*
X374650013Y-168531991D02*
X374650013Y-182531991D01*
X269874989Y-116081994D02*
X269874989Y-116081994D01*
X266624989Y-126131997D02*
X266624989Y-126131997D01*
X406230000Y-157206994D02*
X406230000Y-157206994D01*
X393930012Y-160506990D02*
X393930012Y-160506990D01*
X368348988Y-189051996D02*
X368348988Y-189051996D01*
X279400013Y-87570000D02*
X279400013Y-101569997D01*
X344550007Y-192281991D02*
X344550007Y-189051996D01*
X217200001Y-187581994D02*
X200817997Y-187581994D01*
X344550007Y-192281991D02*
X344550007Y-192281991D01*
X231487004Y-163481996D02*
X231487004Y-163481996D01*
X290468006Y-133406995D02*
X290468006Y-133406995D01*
X169575001Y-101569997D02*
X169575001Y-101569997D01*
X188625004Y-101569997D02*
X188625004Y-101569997D01*
X287124989Y-112851995D02*
X285400013Y-112851995D01*
X393930012Y-193581994D02*
X393930012Y-193581994D01*
X86937000Y-195081994D02*
X87761997Y-195081994D01*
X290425007Y-125151998D02*
X290425007Y-125151998D01*
X94636997Y-196881990D02*
X94636997Y-196881990D01*
X89487004Y-188131990D02*
X89487004Y-189051996D01*
X393700001Y-87541602D02*
X393700001Y-87541602D01*
X207675007Y-130431997D02*
X207675007Y-130431997D01*
X236537007Y-149481996D02*
X236537007Y-163481996D01*
X398400013Y-192056993D02*
X398400013Y-192056993D01*
X98136997Y-149481996D02*
X98136997Y-149481996D01*
X336973988Y-192281991D02*
X336973988Y-195081994D01*
X200817997Y-196881990D02*
X200817997Y-196881990D01*
X284162007Y-187294992D02*
X298162007Y-187294992D01*
X29081000Y-168531991D02*
X29081000Y-168531991D01*
X289547993Y-133406995D02*
X289547993Y-131681997D01*
X388650013Y-149481996D02*
X374650013Y-149481996D01*
X360075001Y-187581994D02*
X360075001Y-187581994D01*
X134142002Y-187581994D02*
X134142002Y-192281991D01*
X406230000Y-198606996D02*
X406230000Y-198606996D01*
X286318012Y-155481996D02*
X286318012Y-155481996D01*
X355599995Y-168531991D02*
X355599995Y-182531991D01*
X406230000Y-136706994D02*
X407150013Y-136706994D01*
X307974995Y-125381997D02*
X307974995Y-125381997D01*
X36511999Y-182531991D02*
X36511999Y-182531991D01*
X265111988Y-192344995D02*
X265111988Y-206344995D01*
X155287007Y-201581994D02*
X155287007Y-196881990D01*
X74612004Y-182531991D02*
X88612004Y-182531991D01*
X179099995Y-125381997D02*
X179099995Y-125381997D01*
X121949002Y-101569997D02*
X121949002Y-101569997D01*
X407700001Y-101541602D02*
X407700001Y-87541602D01*
X317211994Y-206344995D02*
X317211994Y-192344995D01*
X285400013Y-125151998D02*
X285400013Y-125151998D01*
X131475003Y-144431993D02*
X131475003Y-144431993D01*
X393930012Y-131681997D02*
X393930012Y-133406995D01*
X355599995Y-163481996D02*
X369599995Y-163481996D01*
X89487004Y-202331994D02*
X89487004Y-202331994D01*
X355599995Y-130431997D02*
X355599995Y-144431993D01*
X31462000Y-201581994D02*
X31462000Y-201581994D01*
X194517994Y-192281991D02*
X194517994Y-192281991D01*
X307974995Y-125381997D02*
X321974995Y-125381997D01*
X150812000Y-168531991D02*
X150812000Y-182531991D01*
X192793003Y-201351991D02*
X192793003Y-201351991D01*
X388650013Y-163481996D02*
X388650013Y-163481996D01*
X276267994Y-160506990D02*
X277248005Y-160506990D01*
X241300007Y-111381997D02*
X241300007Y-125381997D01*
X74612004Y-182531991D02*
X74612004Y-182531991D01*
X79374996Y-144431993D02*
X93374996Y-144431993D01*
X145761997Y-168531991D02*
X131761997Y-168531991D01*
X155575001Y-87570000D02*
X155575001Y-101569997D01*
X339524006Y-188131990D02*
X339524006Y-189051996D01*
X241300007Y-101569997D02*
X241300007Y-101569997D01*
X307974995Y-182531991D02*
X321974995Y-182531991D01*
X388650013Y-168531991D02*
X388650013Y-168531991D01*
X406230000Y-131681997D02*
X402999989Y-131681997D01*
X203787007Y-201581994D02*
X203787007Y-201581994D01*
X369599995Y-144431993D02*
X369599995Y-144431993D01*
X284162007Y-206344995D02*
X298162007Y-206344995D01*
X336550007Y-168531991D02*
X336550007Y-182531991D01*
X336550007Y-182531991D02*
X336550007Y-182531991D01*
X281718006Y-153956994D02*
X281718006Y-153956994D01*
X29081000Y-168531991D02*
X15081000Y-168531991D01*
X291017994Y-153956994D02*
X291017994Y-139956994D01*
X102899998Y-125381997D02*
X102899998Y-125381997D01*
X263323994Y-126131997D02*
X263323994Y-126131997D01*
X292150013Y-118881997D02*
X292150013Y-118881997D01*
X236250004Y-101569997D02*
X236250004Y-87570000D01*
X321974995Y-111381997D02*
X321974995Y-111381997D01*
X26699999Y-101569997D02*
X26699999Y-87570000D01*
X369599995Y-149481996D02*
X369599995Y-149481996D01*
X88899998Y-87570000D02*
X88899998Y-101569997D01*
X393700001Y-101541602D02*
X407700001Y-101541602D01*
X307974995Y-101541602D02*
X321974995Y-101541602D01*
X250537007Y-149481996D02*
X236537007Y-149481996D01*
X346075001Y-187581994D02*
X346075001Y-192281991D01*
X393700001Y-111381997D02*
X393700001Y-125381997D01*
X350550007Y-111381997D02*
X350550007Y-111381997D01*
X217200001Y-201581994D02*
X217200001Y-187581994D01*
X17462000Y-201581994D02*
X17462000Y-201581994D01*
X285400013Y-120681997D02*
X285400013Y-125151998D01*
X183862004Y-168531991D02*
X169862004Y-168531991D01*
X290468006Y-157206994D02*
X290468006Y-157206994D01*
X402999989Y-163056993D02*
X402999989Y-162231996D01*
X141287007Y-149481996D02*
X141287007Y-163481996D01*
X193386997Y-149481996D02*
X179386997Y-149481996D01*
X285400013Y-112851995D02*
X285400013Y-112851995D01*
X393930012Y-195306993D02*
X393930012Y-195306993D01*
X69562000Y-182531991D02*
X69562000Y-168531991D01*
X307974995Y-111381997D02*
X307974995Y-125381997D01*
X203200001Y-111381997D02*
X203200001Y-125381997D01*
X402999989Y-176531991D02*
X402999989Y-176531991D01*
X174625004Y-130431997D02*
X174625004Y-144431993D01*
X281718006Y-138431997D02*
X281718006Y-138431997D01*
X363325001Y-201351991D02*
X363325001Y-201351991D01*
X388650013Y-111381997D02*
X388650013Y-111381997D01*
X45750000Y-111381997D02*
X45750000Y-111381997D01*
X339524006Y-189051996D02*
X339524006Y-189051996D01*
X393700001Y-139956994D02*
X393700001Y-139956994D01*
X269586994Y-149481996D02*
X255586994Y-149481996D01*
X182886997Y-201351991D02*
X182886997Y-201351991D01*
X179386997Y-163481996D02*
X179386997Y-163481996D01*
X342825001Y-189051996D02*
X342825001Y-189051996D01*
X276267994Y-136706994D02*
X276267994Y-136706994D01*
X69850003Y-101569997D02*
X83850003Y-101569997D01*
X374649006Y-201581994D02*
X374649006Y-201581994D01*
X221961994Y-168531991D02*
X221961994Y-168531991D01*
X88899998Y-111381997D02*
X88899998Y-125381997D01*
X174625004Y-101569997D02*
X188625004Y-101569997D01*
X226724995Y-130431997D02*
X226724995Y-130431997D01*
X393700001Y-125381997D02*
X407700001Y-125381997D01*
X236250004Y-125381997D02*
X236250004Y-125381997D01*
X402999989Y-200331994D02*
X402999989Y-200331994D01*
X107949002Y-101569997D02*
X121949002Y-101569997D01*
X307974995Y-101541602D02*
X307974995Y-101541602D01*
X260774998Y-118881997D02*
X260774998Y-118881997D01*
X402999989Y-192056993D02*
X402999989Y-192056993D01*
X366624989Y-201351991D02*
X366624989Y-201351991D01*
X136524998Y-144431993D02*
X136524998Y-144431993D01*
X268349995Y-125151998D02*
X268349995Y-125151998D01*
X194517994Y-189051996D02*
X192793003Y-189051996D01*
X93661999Y-182531991D02*
X107661999Y-182531991D01*
X241011997Y-182531991D02*
X241011997Y-182531991D01*
X117187000Y-163481996D02*
X117187000Y-149481996D01*
X255300007Y-87570000D02*
X255300007Y-87570000D01*
X102899998Y-111381997D02*
X88899998Y-111381997D01*
X236250004Y-87570000D02*
X222250004Y-87570000D01*
X169575001Y-130431997D02*
X155575001Y-130431997D01*
X46036999Y-163481996D02*
X46036999Y-163481996D01*
X60325001Y-144431993D02*
X74325001Y-144431993D01*
X250537007Y-163481996D02*
X250537007Y-149481996D01*
X360075001Y-201581994D02*
X360075001Y-201581994D01*
X337800007Y-192281991D02*
X337800007Y-192281991D01*
X307974995Y-130431997D02*
X307974995Y-144431993D01*
X398400013Y-153956994D02*
X398400013Y-155481996D01*
X64799999Y-101569997D02*
X64799999Y-101569997D01*
X88612004Y-168531991D02*
X74612004Y-168531991D01*
X207675007Y-144431993D02*
X207675007Y-144431993D01*
X406230000Y-174806993D02*
X406230000Y-174806993D01*
X268349995Y-112851995D02*
X268349995Y-112851995D01*
X84136997Y-163481996D02*
X98136997Y-163481996D01*
X344550007Y-189051996D02*
X344550007Y-189051996D01*
X393930012Y-198606996D02*
X393930012Y-198606996D01*
X406230000Y-162231996D02*
X406230000Y-162231996D01*
X253205998Y-168531991D02*
X253205998Y-182531991D01*
X83850003Y-87570000D02*
X83850003Y-87570000D01*
X339524006Y-201351991D02*
X339524006Y-201351991D01*
X289547993Y-160506990D02*
X289547993Y-160506990D01*
X94636997Y-192281991D02*
X94636997Y-192281991D01*
X69562000Y-168531991D02*
X55562000Y-168531991D01*
X350550007Y-168531991D02*
X350550007Y-168531991D01*
X184612004Y-201351991D02*
X184612004Y-201351991D01*
X184149998Y-125381997D02*
X184149998Y-125381997D01*
X174625004Y-144431993D02*
X188625004Y-144431993D01*
X136524998Y-87570000D02*
X136524998Y-101569997D01*
X92911999Y-201351991D02*
X92911999Y-201351991D01*
X339524006Y-202331994D02*
X342825001Y-202331994D01*
X350550007Y-125381997D02*
X350550007Y-125381997D01*
X31462000Y-144431993D02*
X31462000Y-144431993D01*
X290468006Y-133406995D02*
X289547993Y-133406995D01*
X188625004Y-87570000D02*
X188625004Y-87570000D01*
X26699999Y-111381997D02*
X12700000Y-111381997D01*
X55275002Y-130431997D02*
X41275002Y-130431997D01*
X388650013Y-182531991D02*
X388650013Y-182531991D01*
X31462000Y-144431993D02*
X31462000Y-130431997D01*
X369599995Y-168531991D02*
X369599995Y-168531991D01*
X41275002Y-144431993D02*
X55275002Y-144431993D01*
X169575001Y-130431997D02*
X169575001Y-130431997D01*
X407700001Y-125381997D02*
X407700001Y-125381997D01*
X179099995Y-111381997D02*
X165099995Y-111381997D01*
X117187000Y-163481996D02*
X117187000Y-163481996D01*
X192793003Y-202331994D02*
X192793003Y-202331994D01*
X289547993Y-155481996D02*
X289547993Y-155481996D01*
X184612004Y-189051996D02*
X182886997Y-189051996D01*
X222250004Y-101569997D02*
X236250004Y-101569997D01*
X393930012Y-198606996D02*
X393930012Y-200331994D01*
X241300007Y-125381997D02*
X255300007Y-125381997D01*
X407150013Y-133406995D02*
X406230000Y-133406995D01*
X374650013Y-130431997D02*
X374650013Y-144431993D01*
X17462000Y-144431993D02*
X17462000Y-144431993D01*
X131761997Y-168531991D02*
X131761997Y-182531991D01*
X194517994Y-201351991D02*
X194517994Y-201351991D01*
X264823994Y-130431997D02*
X250825001Y-130431997D01*
X321974995Y-130431997D02*
X321974995Y-130431997D01*
X286318012Y-153956994D02*
X291017994Y-153956994D01*
X406230000Y-133406995D02*
X406230000Y-133406995D01*
X131475003Y-130431997D02*
X117475003Y-130431997D01*
X94636997Y-201351991D02*
X94636997Y-201351991D01*
X187912007Y-201351991D02*
X187912007Y-201351991D01*
X287124989Y-126131997D02*
X287124989Y-126131997D01*
X155287007Y-163481996D02*
X155287007Y-149481996D01*
X298162007Y-187294992D02*
X298162007Y-173294992D01*
X50512001Y-182531991D02*
X50512001Y-168531991D01*
X15081000Y-182531991D02*
X15081000Y-182531991D01*
X402999989Y-138431997D02*
X402999989Y-138431997D01*
X219868000Y-201581994D02*
X219868000Y-201581994D01*
X241011997Y-168531991D02*
X241011997Y-168531991D01*
X292150013Y-112851995D02*
X292150013Y-112851995D01*
X87761997Y-201351991D02*
X89487004Y-201351991D01*
X393930012Y-193581994D02*
X393930012Y-195306993D01*
X369175007Y-192281991D02*
X369175007Y-192281991D01*
X350550007Y-182531991D02*
X350550007Y-182531991D01*
X279111988Y-206344995D02*
X279111988Y-206344995D01*
X174625004Y-87570000D02*
X174625004Y-101569997D01*
X292974995Y-118881997D02*
X292974995Y-118881997D01*
X298162007Y-206344995D02*
X298162007Y-206344995D01*
X169575001Y-101569997D02*
X169575001Y-87570000D01*
X121949002Y-125381997D02*
X121949002Y-125381997D01*
X402999989Y-153956994D02*
X407700001Y-153956994D01*
X64799999Y-111381997D02*
X50799999Y-111381997D01*
X406230000Y-157206994D02*
X406230000Y-155481996D01*
X369175007Y-192281991D02*
X368348988Y-192281991D01*
X250825001Y-144431993D02*
X250825001Y-144431993D01*
X337800007Y-201351991D02*
X339524006Y-201351991D01*
X289547993Y-133406995D02*
X289547993Y-133406995D01*
X266624989Y-126131997D02*
X266624989Y-125151998D01*
X321974995Y-125381997D02*
X321974995Y-111381997D01*
X406230000Y-176531991D02*
X406230000Y-174806993D01*
X307974995Y-87541602D02*
X307974995Y-101541602D01*
X89487004Y-202331994D02*
X92911999Y-202331994D01*
X307974995Y-168531991D02*
X307974995Y-182531991D01*
X350550007Y-125381997D02*
X350550007Y-111381997D01*
X321974995Y-163481996D02*
X321974995Y-149481996D01*
X126998997Y-111381997D02*
X126998997Y-125381997D01*
X290425007Y-126131997D02*
X290425007Y-126131997D01*
X277248005Y-136706994D02*
X277248005Y-136706994D01*
X188912007Y-182531991D02*
X188912007Y-182531991D01*
X350550007Y-149481996D02*
X350550007Y-149481996D01*
X407700001Y-111381997D02*
X393700001Y-111381997D01*
X155575001Y-144431993D02*
X169575001Y-144431993D01*
X193675007Y-144431993D02*
X207675007Y-144431993D01*
X102899998Y-87570000D02*
X102899998Y-87570000D01*
X402999989Y-169781991D02*
X402999989Y-168956994D01*
X64799999Y-111381997D02*
X64799999Y-111381997D01*
X169575001Y-144431993D02*
X169575001Y-144431993D01*
X289547993Y-157206994D02*
X289547993Y-155481996D01*
X374650013Y-144431993D02*
X388650013Y-144431993D01*
X292974995Y-118881997D02*
X292974995Y-116081994D01*
X134142002Y-196881990D02*
X134142002Y-196881990D01*
X102899998Y-111381997D02*
X102899998Y-111381997D01*
X64799999Y-125381997D02*
X64799999Y-111381997D01*
X150524998Y-87570000D02*
X150524998Y-87570000D01*
X392950001Y-136706994D02*
X392950001Y-136706994D01*
X94636997Y-192281991D02*
X94636997Y-189051996D01*
X60036999Y-149481996D02*
X46036999Y-149481996D01*
X33843001Y-149481996D02*
X19843000Y-149481996D01*
X286318012Y-131681997D02*
X286318012Y-131681997D01*
X366624989Y-202331994D02*
X366624989Y-201351991D01*
X344550007Y-196881990D02*
X344550007Y-196881990D01*
X289547993Y-155481996D02*
X286318012Y-155481996D01*
X267206013Y-168531991D02*
X267206013Y-168531991D01*
X281718006Y-139956994D02*
X277017994Y-139956994D01*
X342825001Y-189051996D02*
X342825001Y-188131990D01*
X339524006Y-188131990D02*
X339524006Y-188131990D01*
X393700001Y-178056993D02*
X393700001Y-192056993D01*
X12700000Y-111381997D02*
X12700000Y-125381997D01*
X360075001Y-187581994D02*
X346075001Y-187581994D01*
X227011997Y-182531991D02*
X241011997Y-182531991D01*
X102899998Y-101569997D02*
X102899998Y-101569997D01*
X355599995Y-125381997D02*
X369599995Y-125381997D01*
X160050007Y-111381997D02*
X160050007Y-111381997D01*
X406230000Y-195306993D02*
X406230000Y-195306993D01*
X261599995Y-112851995D02*
X261599995Y-112851995D01*
X87761997Y-195081994D02*
X87761997Y-201351991D01*
X363325001Y-188131990D02*
X363325001Y-188131990D01*
X402999989Y-201156991D02*
X402999989Y-201156991D01*
X50799999Y-125381997D02*
X64799999Y-125381997D01*
X255300007Y-125381997D02*
X255300007Y-111381997D01*
X245774998Y-144431993D02*
X245774998Y-130431997D01*
X268349995Y-120681997D02*
X268349995Y-120681997D01*
X363325001Y-202331994D02*
X363325001Y-202331994D01*
X342825001Y-202331994D02*
X342825001Y-202331994D01*
X31462000Y-187581994D02*
X31462000Y-187581994D01*
X165099995Y-125381997D02*
X165099995Y-125381997D01*
X350550007Y-163481996D02*
X350550007Y-163481996D01*
X290468006Y-136706994D02*
X290468006Y-136706994D01*
X407700001Y-139956994D02*
X407700001Y-139956994D01*
X277248005Y-133406995D02*
X276267994Y-133406995D01*
X321974995Y-125381997D02*
X321974995Y-125381997D01*
X406230000Y-171506990D02*
X406230000Y-171506990D01*
X402999989Y-193581994D02*
X402999989Y-193581994D01*
X398400013Y-192056993D02*
X398400013Y-193581994D01*
X192793003Y-189051996D02*
X192793003Y-189051996D01*
X207675007Y-87570000D02*
X193675007Y-87570000D01*
X236250004Y-201581994D02*
X236250004Y-187581994D01*
X189493000Y-188131990D02*
X189493000Y-188131990D01*
X393930012Y-174806993D02*
X393930012Y-176531991D01*
X406230000Y-171506990D02*
X406230000Y-169781991D01*
X250537007Y-149481996D02*
X250537007Y-149481996D01*
X126712002Y-182531991D02*
X126712002Y-168531991D01*
X98424999Y-144431993D02*
X112424999Y-144431993D01*
X76705998Y-201581994D02*
X76705998Y-201581994D01*
X276267994Y-157206994D02*
X276267994Y-160506990D01*
X212724995Y-144431993D02*
X212724995Y-144431993D01*
X307974995Y-144431993D02*
X307974995Y-144431993D01*
X263323994Y-112851995D02*
X263323994Y-112851995D01*
X263323994Y-112851995D02*
X261599995Y-112851995D01*
X107661999Y-182531991D02*
X107661999Y-182531991D01*
X64799999Y-87570000D02*
X50799999Y-87570000D01*
X393700001Y-192056993D02*
X393700001Y-192056993D01*
X62706001Y-201581994D02*
X76705998Y-201581994D01*
X89487004Y-189051996D02*
X89487004Y-189051996D01*
X267206013Y-182531991D02*
X267206013Y-168531991D01*
X126998997Y-125381997D02*
X141000004Y-125381997D01*
X26699999Y-101569997D02*
X26699999Y-101569997D01*
X69850003Y-101569997D02*
X69850003Y-101569997D01*
X321974995Y-182531991D02*
X321974995Y-168531991D01*
X374650013Y-182531991D02*
X374650013Y-182531991D01*
X107949002Y-87570000D02*
X107949002Y-101569997D01*
X107949002Y-125381997D02*
X121949002Y-125381997D01*
X126712002Y-168531991D02*
X126712002Y-168531991D01*
X283874989Y-111381997D02*
X269874989Y-111381997D01*
X393700001Y-125381997D02*
X393700001Y-125381997D01*
X292150013Y-112851995D02*
X290425007Y-112851995D01*
X268349995Y-125151998D02*
X268349995Y-120681997D01*
X289547993Y-136706994D02*
X289547993Y-136706994D01*
X41275002Y-187581994D02*
X41275002Y-201581994D01*
X286318012Y-138431997D02*
X289547993Y-138431997D01*
X360075001Y-196881990D02*
X360075001Y-196881990D01*
X393700001Y-178056993D02*
X393700001Y-178056993D01*
X400200001Y-169781991D02*
X393930012Y-169781991D01*
X281718006Y-153956994D02*
X281718006Y-155481996D01*
X363325001Y-189051996D02*
X363325001Y-189051996D01*
X388650013Y-130431997D02*
X374650013Y-130431997D01*
X84136997Y-163481996D02*
X84136997Y-163481996D01*
X187912007Y-189051996D02*
X187912007Y-189051996D01*
X388649006Y-187581994D02*
X388649006Y-187581994D01*
X407700001Y-192056993D02*
X407700001Y-192056993D01*
X207961994Y-168531991D02*
X207961994Y-182531991D01*
X88612004Y-168531991D02*
X88612004Y-168531991D01*
X60325001Y-144431993D02*
X60325001Y-144431993D01*
X93374996Y-130431997D02*
X93374996Y-130431997D01*
X393930012Y-138431997D02*
X398400013Y-138431997D01*
X369599995Y-125381997D02*
X369599995Y-111381997D01*
X268349995Y-112851995D02*
X266624989Y-112851995D01*
X336550007Y-163481996D02*
X336550007Y-163481996D01*
X406230000Y-133406995D02*
X406230000Y-131681997D01*
X286318012Y-163056993D02*
X286318012Y-162231996D01*
X136524998Y-101569997D02*
X136524998Y-101569997D01*
X107661999Y-182531991D02*
X107661999Y-168531991D01*
X74325001Y-130431997D02*
X74325001Y-130431997D01*
X193675007Y-101569997D02*
X207675007Y-101569997D01*
X289547993Y-138431997D02*
X289547993Y-136706994D01*
X184612004Y-189051996D02*
X184612004Y-189051996D01*
X339524006Y-201351991D02*
X339524006Y-202331994D01*
X253205998Y-182531991D02*
X267206013Y-182531991D01*
X103187000Y-163481996D02*
X117187000Y-163481996D01*
X369175007Y-195081994D02*
X369175007Y-195081994D01*
X92911999Y-201351991D02*
X94636997Y-201351991D01*
X293400013Y-101569997D02*
X293400013Y-101569997D01*
X268349995Y-116081994D02*
X268349995Y-116081994D01*
X117187000Y-149481996D02*
X117187000Y-149481996D01*
X88899998Y-101569997D02*
X88899998Y-101569997D01*
X303211994Y-192344995D02*
X303211994Y-206344995D01*
X350550007Y-163481996D02*
X350550007Y-149481996D01*
X17462000Y-144431993D02*
X31462000Y-144431993D01*
X400200001Y-200331994D02*
X400200001Y-201156991D01*
X266624989Y-125151998D02*
X268349995Y-125151998D01*
X400200001Y-201156991D02*
X400200001Y-201156991D01*
X160336994Y-163481996D02*
X174336994Y-163481996D01*
X360075001Y-192281991D02*
X360075001Y-192281991D01*
X189493000Y-202331994D02*
X189493000Y-202331994D01*
X361598988Y-201351991D02*
X363325001Y-201351991D01*
X317211994Y-206344995D02*
X317211994Y-206344995D01*
X355599995Y-111381997D02*
X355599995Y-125381997D01*
X398400013Y-193581994D02*
X398400013Y-193581994D01*
X350550007Y-149481996D02*
X336550007Y-149481996D01*
X402999989Y-139956994D02*
X402999989Y-139956994D01*
X182886997Y-189051996D02*
X182886997Y-192281991D01*
X64799999Y-87570000D02*
X64799999Y-87570000D01*
X121949002Y-101569997D02*
X121949002Y-87570000D01*
X285400013Y-116081994D02*
X285400013Y-116081994D01*
X289547993Y-136706994D02*
X290468006Y-136706994D01*
X189493000Y-201351991D02*
X189493000Y-201351991D01*
X145761997Y-168531991D02*
X145761997Y-168531991D01*
X69562000Y-168531991D02*
X69562000Y-168531991D01*
X188625004Y-144431993D02*
X188625004Y-130431997D01*
X363325001Y-188131990D02*
X363325001Y-189051996D01*
X307974995Y-163481996D02*
X307974995Y-163481996D01*
X55275002Y-201581994D02*
X55275002Y-187581994D01*
X33843001Y-163481996D02*
X33843001Y-163481996D01*
X92911999Y-189051996D02*
X92911999Y-188131990D01*
X169862004Y-168531991D02*
X169862004Y-182531991D01*
X407150013Y-136706994D02*
X407150013Y-136706994D01*
X89487004Y-201351991D02*
X89487004Y-201351991D01*
X406230000Y-193581994D02*
X406230000Y-193581994D01*
X407150013Y-198606996D02*
X407150013Y-195306993D01*
X31750000Y-125381997D02*
X45750000Y-125381997D01*
X286318012Y-163056993D02*
X286318012Y-163056993D01*
X407700001Y-125381997D02*
X407700001Y-111381997D01*
X346075001Y-192281991D02*
X346075001Y-192281991D01*
X287124989Y-111931999D02*
X287124989Y-111931999D01*
X64799999Y-101569997D02*
X64799999Y-87570000D01*
X289547993Y-160506990D02*
X290468006Y-160506990D01*
X407700001Y-192056993D02*
X407700001Y-178056993D01*
X407150013Y-174806993D02*
X407150013Y-174806993D01*
X407150013Y-195306993D02*
X407150013Y-195306993D01*
X361598988Y-192281991D02*
X360075001Y-192281991D01*
X187912007Y-188131990D02*
X187912007Y-188131990D01*
X337800007Y-192281991D02*
X336973988Y-192281991D01*
X388650013Y-125381997D02*
X388650013Y-111381997D01*
X150524998Y-130431997D02*
X136524998Y-130431997D01*
X274349995Y-87570000D02*
X274349995Y-87570000D01*
X402999989Y-168956994D02*
X400200001Y-168956994D01*
X217487004Y-149481996D02*
X217487004Y-163481996D01*
X388650013Y-168531991D02*
X374650013Y-168531991D01*
X350550007Y-130431997D02*
X350550007Y-130431997D01*
X93374996Y-144431993D02*
X93374996Y-144431993D01*
X103187000Y-149481996D02*
X103187000Y-163481996D01*
X194517994Y-189051996D02*
X194517994Y-189051996D01*
X285400013Y-120681997D02*
X285400013Y-120681997D01*
X407150013Y-195306993D02*
X406230000Y-195306993D01*
X402999989Y-169781991D02*
X402999989Y-169781991D01*
X264823994Y-130431997D02*
X264823994Y-130431997D01*
X217487004Y-163481996D02*
X231487004Y-163481996D01*
X155287007Y-201581994D02*
X155287007Y-201581994D01*
X283874989Y-116081994D02*
X283874989Y-111381997D01*
X360075001Y-196881990D02*
X361598988Y-196881990D01*
X269586994Y-149481996D02*
X269586994Y-149481996D01*
X212724995Y-130431997D02*
X212724995Y-144431993D01*
X346075001Y-201581994D02*
X360075001Y-201581994D01*
X182886997Y-192281991D02*
X182886997Y-192281991D01*
X76705998Y-187581994D02*
X76705998Y-187581994D01*
X407700001Y-101541602D02*
X407700001Y-101541602D01*
X339524006Y-189051996D02*
X337800007Y-189051996D01*
X207961994Y-182531991D02*
X221961994Y-182531991D01*
X155287007Y-187581994D02*
X155287007Y-187581994D01*
X236250004Y-111381997D02*
X222250004Y-111381997D01*
X290468006Y-157206994D02*
X289547993Y-157206994D01*
X344550007Y-196881990D02*
X346075001Y-196881990D01*
X393930012Y-200331994D02*
X393930012Y-200331994D01*
X346075001Y-201581994D02*
X346075001Y-201581994D01*
X79087002Y-163481996D02*
X79087002Y-163481996D01*
X112424999Y-144431993D02*
X112424999Y-130431997D01*
X274349995Y-87570000D02*
X260349995Y-87570000D01*
X393930012Y-171506990D02*
X393930012Y-171506990D01*
X398400013Y-155481996D02*
X393930012Y-155481996D01*
X263323994Y-125151998D02*
X263323994Y-126131997D01*
X393930012Y-133406995D02*
X392950001Y-133406995D01*
X292974995Y-116081994D02*
X292150013Y-116081994D01*
X407150013Y-136706994D02*
X407150013Y-133406995D01*
X392950001Y-136706994D02*
X393930012Y-136706994D01*
X290468006Y-136706994D02*
X290468006Y-133406995D01*
X188625004Y-130431997D02*
X174625004Y-130431997D01*
X407150013Y-160506990D02*
X407150013Y-160506990D01*
X26699999Y-87570000D02*
X12700000Y-87570000D01*
X194517994Y-201351991D02*
X194517994Y-196881990D01*
X366624989Y-202331994D02*
X366624989Y-202331994D01*
X266624989Y-112851995D02*
X266624989Y-111931999D01*
X200817997Y-201581994D02*
X200817997Y-201581994D01*
X241300007Y-201581994D02*
X241300007Y-201581994D01*
X241011997Y-168531991D02*
X227011997Y-168531991D01*
X255300007Y-87570000D02*
X241300007Y-87570000D01*
X283517994Y-130856996D02*
X283517994Y-131681997D01*
X290468006Y-160506990D02*
X290468006Y-160506990D01*
X107949002Y-111381997D02*
X107949002Y-125381997D01*
X193675007Y-144431993D02*
X193675007Y-144431993D01*
X355599995Y-149481996D02*
X355599995Y-163481996D01*
X88612004Y-182531991D02*
X88612004Y-182531991D01*
X188625004Y-144431993D02*
X188625004Y-144431993D01*
X400200001Y-131681997D02*
X393930012Y-131681997D01*
X283517994Y-163056993D02*
X286318012Y-163056993D01*
X231487004Y-163481996D02*
X231487004Y-149481996D01*
X289547993Y-138431997D02*
X289547993Y-138431997D01*
X83850003Y-101569997D02*
X83850003Y-101569997D01*
X117475003Y-144431993D02*
X117475003Y-144431993D01*
X398400013Y-138431997D02*
X398400013Y-139956994D01*
X217487004Y-163481996D02*
X217487004Y-163481996D01*
X350550007Y-144431993D02*
X350550007Y-144431993D01*
X221961994Y-168531991D02*
X207961994Y-168531991D01*
X406230000Y-169781991D02*
X402999989Y-169781991D01*
X187912007Y-188131990D02*
X184612004Y-188131990D01*
X402999989Y-153956994D02*
X402999989Y-153956994D01*
X69850003Y-125381997D02*
X83850003Y-125381997D01*
X83850003Y-111381997D02*
X83850003Y-111381997D01*
X407700001Y-178056993D02*
X402999989Y-178056993D01*
X368348988Y-195081994D02*
X369175007Y-195081994D01*
X374650013Y-163481996D02*
X374650013Y-163481996D01*
X277017994Y-153956994D02*
X281718006Y-153956994D01*
X50799999Y-101569997D02*
X50799999Y-101569997D01*
X184612004Y-202331994D02*
X187912007Y-202331994D01*
X281718006Y-155481996D02*
X281718006Y-155481996D01*
X283517994Y-131681997D02*
X277248005Y-131681997D01*
X12700000Y-101569997D02*
X12700000Y-101569997D01*
X279111988Y-192344995D02*
X265111988Y-192344995D01*
X369599995Y-111381997D02*
X369599995Y-111381997D01*
X134142002Y-192281991D02*
X134142002Y-192281991D01*
X393930012Y-157206994D02*
X393930012Y-157206994D01*
X74325001Y-130431997D02*
X60325001Y-130431997D01*
X19843000Y-163481996D02*
X33843001Y-163481996D01*
X363325001Y-189051996D02*
X361598988Y-189051996D01*
X388650013Y-144431993D02*
X388650013Y-130431997D01*
X290425007Y-112851995D02*
X290425007Y-111931999D01*
X388650013Y-130431997D02*
X388650013Y-130431997D01*
X374650013Y-111381997D02*
X374650013Y-125381997D01*
X179099995Y-111381997D02*
X179099995Y-111381997D01*
X298162007Y-206344995D02*
X298162007Y-192344995D01*
X217200001Y-125381997D02*
X217200001Y-111381997D01*
X274349995Y-101569997D02*
X274349995Y-87570000D01*
X355599995Y-144431993D02*
X369599995Y-144431993D01*
X160050007Y-111381997D02*
X146050007Y-111381997D01*
X200817997Y-192281991D02*
X194517994Y-192281991D01*
X184149998Y-125381997D02*
X198149998Y-125381997D01*
X402999989Y-201156991D02*
X402999989Y-200331994D01*
X393930012Y-200331994D02*
X400200001Y-200331994D01*
X126712002Y-182531991D02*
X126712002Y-182531991D01*
X169575001Y-87570000D02*
X155575001Y-87570000D01*
X307974995Y-144431993D02*
X321974995Y-144431993D01*
X255300007Y-201581994D02*
X255300007Y-201581994D01*
X188625004Y-130431997D02*
X188625004Y-130431997D01*
X398400013Y-139956994D02*
X393700001Y-139956994D01*
X41275002Y-201581994D02*
X41275002Y-201581994D01*
X255300007Y-187581994D02*
X255300007Y-187581994D01*
X200817997Y-196881990D02*
X200817997Y-201581994D01*
X50799999Y-125381997D02*
X50799999Y-125381997D01*
X217200001Y-201581994D02*
X217200001Y-201581994D01*
X392950001Y-160506990D02*
X393930012Y-160506990D01*
X79087002Y-149481996D02*
X65086998Y-149481996D01*
X164812000Y-182531991D02*
X164812000Y-168531991D01*
X33843001Y-163481996D02*
X33843001Y-149481996D01*
X83850003Y-87570000D02*
X69850003Y-87570000D01*
X188625004Y-101569997D02*
X188625004Y-87570000D01*
X393930012Y-136706994D02*
X393930012Y-138431997D01*
X361598988Y-201351991D02*
X361598988Y-201351991D01*
X263323994Y-111931999D02*
X263323994Y-112851995D01*
X393930012Y-176531991D02*
X398400013Y-176531991D01*
X350550007Y-182531991D02*
X350550007Y-168531991D01*
X212437000Y-149481996D02*
X212437000Y-149481996D01*
X406230000Y-138431997D02*
X406230000Y-136706994D01*
X193675007Y-87570000D02*
X193675007Y-101569997D01*
X236537007Y-163481996D02*
X250537007Y-163481996D01*
X321974995Y-111381997D02*
X307974995Y-111381997D01*
X400200001Y-130856996D02*
X400200001Y-131681997D01*
X169862004Y-182531991D02*
X183862004Y-182531991D01*
X361598988Y-196881990D02*
X361598988Y-201351991D01*
X264823994Y-144431993D02*
X264823994Y-130431997D01*
X293400013Y-101569997D02*
X293400013Y-87570000D01*
X174625004Y-101569997D02*
X174625004Y-101569997D01*
X402999989Y-178056993D02*
X402999989Y-176531991D01*
X269586994Y-163481996D02*
X269586994Y-149481996D01*
X89487004Y-188131990D02*
X89487004Y-188131990D01*
X88612004Y-182531991D02*
X88612004Y-168531991D01*
X198149998Y-111381997D02*
X198149998Y-111381997D01*
X222250004Y-87570000D02*
X222250004Y-101569997D01*
X292150013Y-125151998D02*
X292150013Y-118881997D01*
X121949002Y-87570000D02*
X107949002Y-87570000D01*
X277248005Y-155481996D02*
X277248005Y-157206994D01*
X193675007Y-101569997D02*
X193675007Y-101569997D01*
X155575001Y-144431993D02*
X155575001Y-144431993D01*
X69850003Y-87570000D02*
X69850003Y-101569997D01*
X277248005Y-160506990D02*
X277248005Y-160506990D01*
X393700001Y-153956994D02*
X393700001Y-153956994D01*
X350550007Y-144431993D02*
X350550007Y-130431997D01*
X289547993Y-162231996D02*
X289547993Y-160506990D01*
X260349995Y-101569997D02*
X274349995Y-101569997D01*
X69850003Y-125381997D02*
X69850003Y-125381997D01*
X55562000Y-182531991D02*
X55562000Y-182531991D01*
X83850003Y-125381997D02*
X83850003Y-111381997D01*
X260774998Y-116081994D02*
X260774998Y-118881997D01*
X231487004Y-149481996D02*
X231487004Y-149481996D01*
X400200001Y-131681997D02*
X400200001Y-131681997D01*
X406230000Y-138431997D02*
X406230000Y-138431997D01*
X155287007Y-149481996D02*
X141287007Y-149481996D01*
X184612004Y-201351991D02*
X184612004Y-202331994D01*
X194517994Y-192281991D02*
X194517994Y-189051996D01*
X146050007Y-125381997D02*
X160050007Y-125381997D01*
X264823994Y-144431993D02*
X264823994Y-144431993D01*
X55562000Y-168531991D02*
X55562000Y-182531991D01*
X231774998Y-144431993D02*
X231774998Y-144431993D01*
X200817997Y-192281991D02*
X200817997Y-192281991D01*
X286318012Y-130856996D02*
X286318012Y-130856996D01*
X107949002Y-125381997D02*
X107949002Y-125381997D01*
X155575001Y-101569997D02*
X169575001Y-101569997D01*
X84136997Y-149481996D02*
X84136997Y-163481996D01*
X337800007Y-201351991D02*
X337800007Y-201351991D01*
X145761997Y-182531991D02*
X145761997Y-168531991D01*
X321974995Y-168531991D02*
X321974995Y-168531991D01*
X226724995Y-144431993D02*
X226724995Y-144431993D01*
X268349995Y-120681997D02*
X269874989Y-120681997D01*
X150524998Y-130431997D02*
X150524998Y-130431997D01*
X393930012Y-169781991D02*
X393930012Y-169781991D01*
X287124989Y-111931999D02*
X287124989Y-112851995D01*
X363325001Y-201351991D02*
X363325001Y-202331994D01*
X369599995Y-130431997D02*
X369599995Y-130431997D01*
X277248005Y-133406995D02*
X277248005Y-133406995D01*
X184612004Y-202331994D02*
X184612004Y-202331994D01*
X182886997Y-201351991D02*
X184612004Y-201351991D01*
X76705998Y-187581994D02*
X62706001Y-187581994D01*
X55275002Y-130431997D02*
X55275002Y-130431997D01*
X217200001Y-187581994D02*
X217200001Y-187581994D01*
X255300007Y-201581994D02*
X255300007Y-187581994D01*
X131475003Y-144431993D02*
X131475003Y-130431997D01*
X193386997Y-149481996D02*
X193386997Y-149481996D01*
X12700000Y-125381997D02*
X26699999Y-125381997D01*
X368348988Y-189051996D02*
X366624989Y-189051996D01*
X276267994Y-136706994D02*
X277248005Y-136706994D01*
X136237004Y-149481996D02*
X122237004Y-149481996D01*
X117475003Y-144431993D02*
X131475003Y-144431993D01*
X236250004Y-187581994D02*
X219868000Y-187581994D01*
X336550007Y-149481996D02*
X336550007Y-163481996D01*
X50512001Y-168531991D02*
X50512001Y-168531991D01*
X400200001Y-163056993D02*
X402999989Y-163056993D01*
X198437000Y-163481996D02*
X212437000Y-163481996D01*
X366624989Y-189051996D02*
X366624989Y-188131990D01*
X226724995Y-130431997D02*
X212724995Y-130431997D01*
X200817997Y-187581994D02*
X200817997Y-192281991D01*
X361598988Y-196881990D02*
X361598988Y-196881990D01*
X31750000Y-125381997D02*
X31750000Y-125381997D01*
X212437000Y-149481996D02*
X198437000Y-149481996D01*
X374649006Y-201581994D02*
X388649006Y-201581994D01*
X226724995Y-144431993D02*
X226724995Y-130431997D01*
X400200001Y-163056993D02*
X400200001Y-163056993D01*
X134142002Y-196881990D02*
X134142002Y-201581994D01*
X255300007Y-111381997D02*
X255300007Y-111381997D01*
X287124989Y-112851995D02*
X287124989Y-112851995D01*
X321974995Y-87541602D02*
X307974995Y-87541602D01*
X50799999Y-87570000D02*
X50799999Y-101569997D01*
X174336994Y-163481996D02*
X174336994Y-163481996D01*
X121949002Y-111381997D02*
X121949002Y-111381997D01*
X31462000Y-187581994D02*
X17462000Y-187581994D01*
X388650013Y-144431993D02*
X388650013Y-144431993D01*
X368348988Y-195081994D02*
X368348988Y-195081994D01*
X407150013Y-157206994D02*
X407150013Y-157206994D01*
X236250004Y-201581994D02*
X236250004Y-201581994D01*
X392950001Y-133406995D02*
X392950001Y-133406995D01*
X45750000Y-111381997D02*
X31750000Y-111381997D01*
X369599995Y-182531991D02*
X369599995Y-168531991D01*
X393930012Y-162231996D02*
X400200001Y-162231996D01*
X112424999Y-130431997D02*
X98424999Y-130431997D01*
X150524998Y-87570000D02*
X136524998Y-87570000D01*
X41275002Y-130431997D02*
X41275002Y-144431993D01*
X277248005Y-155481996D02*
X277248005Y-155481996D01*
X393700001Y-139956994D02*
X393700001Y-153956994D01*
X231487004Y-149481996D02*
X217487004Y-149481996D01*
X336550007Y-144431993D02*
X336550007Y-144431993D01*
X207675007Y-130431997D02*
X193675007Y-130431997D01*
X406230000Y-169781991D02*
X406230000Y-169781991D01*
X19843000Y-149481996D02*
X19843000Y-163481996D01*
X76705998Y-201581994D02*
X76705998Y-187581994D01*
X393930012Y-155481996D02*
X393930012Y-157206994D01*
X207675007Y-101569997D02*
X207675007Y-87570000D01*
X212724995Y-144431993D02*
X226724995Y-144431993D01*
X336550007Y-125381997D02*
X336550007Y-125381997D01*
X236250004Y-187581994D02*
X236250004Y-187581994D01*
X62706001Y-201581994D02*
X62706001Y-201581994D01*
X64799999Y-125381997D02*
X64799999Y-125381997D01*
X283517994Y-163056993D02*
X283517994Y-163056993D01*
X102899998Y-101569997D02*
X102899998Y-87570000D01*
X269874989Y-111381997D02*
X269874989Y-116081994D01*
X255586994Y-163481996D02*
X269586994Y-163481996D01*
X261599995Y-125151998D02*
X261599995Y-125151998D01*
X336550007Y-182531991D02*
X350550007Y-182531991D01*
X277248005Y-157206994D02*
X277248005Y-157206994D01*
X321974995Y-182531991D02*
X321974995Y-182531991D01*
X393930012Y-157206994D02*
X392950001Y-157206994D01*
X136524998Y-101569997D02*
X150524998Y-101569997D01*
X366624989Y-201351991D02*
X368348988Y-201351991D01*
X207086994Y-201581994D02*
X217200001Y-201581994D01*
X269874989Y-125381997D02*
X269874989Y-125381997D01*
X188912007Y-168531991D02*
X188912007Y-182531991D01*
X160336994Y-163481996D02*
X160336994Y-163481996D01*
X65086998Y-149481996D02*
X65086998Y-163481996D01*
X26699999Y-87570000D02*
X26699999Y-87570000D01*
X368348988Y-201351991D02*
X368348988Y-195081994D01*
X321974995Y-168531991D02*
X307974995Y-168531991D01*
X336973988Y-195081994D02*
X336973988Y-195081994D01*
X136524998Y-144431993D02*
X150524998Y-144431993D01*
X265111988Y-206344995D02*
X279111988Y-206344995D01*
X398400013Y-155481996D02*
X398400013Y-155481996D01*
X292150013Y-116081994D02*
X292150013Y-116081994D01*
X184612004Y-188131990D02*
X184612004Y-188131990D01*
X402999989Y-178056993D02*
X402999989Y-178056993D01*
X250537007Y-163481996D02*
X250537007Y-163481996D01*
X267206013Y-168531991D02*
X253205998Y-168531991D01*
X293400013Y-87570000D02*
X293400013Y-87570000D01*
X198437000Y-163481996D02*
X198437000Y-163481996D01*
X182886997Y-196881990D02*
X182886997Y-196881990D01*
X141287007Y-163481996D02*
X155287007Y-163481996D01*
X155287007Y-149481996D02*
X155287007Y-149481996D01*
X217200001Y-111381997D02*
X217200001Y-111381997D01*
X179386997Y-149481996D02*
X179386997Y-163481996D01*
X236537007Y-163481996D02*
X236537007Y-163481996D01*
X255300007Y-187581994D02*
X241300007Y-187581994D01*
X290425007Y-111931999D02*
X287124989Y-111931999D01*
X222250004Y-125381997D02*
X222250004Y-125381997D01*
X184149998Y-111381997D02*
X184149998Y-125381997D01*
X369599995Y-149481996D02*
X355599995Y-149481996D01*
X241300007Y-201581994D02*
X255300007Y-201581994D01*
X298162007Y-192344995D02*
X298162007Y-192344995D01*
X363325001Y-202331994D02*
X366624989Y-202331994D01*
X69850003Y-111381997D02*
X69850003Y-125381997D01*
X336550007Y-125381997D02*
X350550007Y-125381997D01*
X283874989Y-116081994D02*
X283874989Y-116081994D01*
X198437000Y-149481996D02*
X198437000Y-163481996D01*
X88899998Y-125381997D02*
X88899998Y-125381997D01*
X136237004Y-149481996D02*
X136237004Y-149481996D01*
X69562000Y-182531991D02*
X69562000Y-182531991D01*
X79374996Y-130431997D02*
X79374996Y-144431993D01*
X269874989Y-120681997D02*
X269874989Y-120681997D01*
X388649006Y-201581994D02*
X388649006Y-201581994D01*
X131475003Y-130431997D02*
X131475003Y-130431997D01*
X298162007Y-173294992D02*
X298162007Y-173294992D01*
X19843000Y-163481996D02*
X19843000Y-163481996D01*
X202912007Y-182531991D02*
X202912007Y-182531991D01*
X122237004Y-163481996D02*
X122237004Y-163481996D01*
X222250004Y-101569997D02*
X222250004Y-101569997D01*
X388649006Y-187581994D02*
X374649006Y-187581994D01*
X402999989Y-130856996D02*
X400200001Y-130856996D01*
X207086994Y-201581994D02*
X207086994Y-201581994D01*
X286318012Y-131681997D02*
X286318012Y-130856996D01*
X184612004Y-188131990D02*
X184612004Y-189051996D01*
X88899998Y-101569997D02*
X102899998Y-101569997D01*
X291017994Y-139956994D02*
X291017994Y-139956994D01*
X236250004Y-125381997D02*
X236250004Y-111381997D01*
X279400013Y-101569997D02*
X293400013Y-101569997D01*
X155575001Y-101569997D02*
X155575001Y-101569997D01*
X366624989Y-188131990D02*
X366624989Y-188131990D01*
X169575001Y-144431993D02*
X169575001Y-130431997D01*
X402999989Y-192056993D02*
X407700001Y-192056993D01*
X45750000Y-125381997D02*
X45750000Y-125381997D01*
X277248005Y-157206994D02*
X276267994Y-157206994D01*
X50799999Y-111381997D02*
X50799999Y-125381997D01*
X361598988Y-189051996D02*
X361598988Y-192281991D01*
X179099995Y-125381997D02*
X179099995Y-111381997D01*
X86937000Y-192281991D02*
X86937000Y-195081994D01*
X192793003Y-188131990D02*
X189493000Y-188131990D01*
X287124989Y-126131997D02*
X290425007Y-126131997D01*
X269874989Y-125381997D02*
X283874989Y-125381997D01*
X194517994Y-196881990D02*
X200817997Y-196881990D01*
X26699999Y-111381997D02*
X26699999Y-111381997D01*
X169575001Y-87570000D02*
X169575001Y-87570000D01*
X12700000Y-101569997D02*
X26699999Y-101569997D01*
X266624989Y-112851995D02*
X266624989Y-112851995D01*
X342825001Y-188131990D02*
X342825001Y-188131990D01*
X279400013Y-101569997D02*
X279400013Y-101569997D01*
X344550007Y-201351991D02*
X344550007Y-201351991D01*
X277248005Y-138431997D02*
X277248005Y-138431997D01*
X303211994Y-206344995D02*
X303211994Y-206344995D01*
X74325001Y-144431993D02*
X74325001Y-130431997D01*
X241300007Y-87570000D02*
X241300007Y-101569997D01*
X150524998Y-144431993D02*
X150524998Y-130431997D01*
X286318012Y-162231996D02*
X286318012Y-162231996D01*
X393930012Y-171506990D02*
X392950001Y-171506990D01*
X26699999Y-125381997D02*
X26699999Y-111381997D01*
X369599995Y-144431993D02*
X369599995Y-130431997D01*
X388650013Y-149481996D02*
X388650013Y-149481996D01*
X231774998Y-130431997D02*
X231774998Y-144431993D01*
X94636997Y-189051996D02*
X94636997Y-189051996D01*
X236250004Y-111381997D02*
X236250004Y-111381997D01*
X369599995Y-111381997D02*
X355599995Y-111381997D01*
X17462000Y-130431997D02*
X17462000Y-144431993D01*
X189493000Y-201351991D02*
X189493000Y-202331994D01*
X361598988Y-189051996D02*
X361598988Y-189051996D01*
X17462000Y-201581994D02*
X31462000Y-201581994D01*
X150524998Y-101569997D02*
X150524998Y-101569997D01*
X291017994Y-139956994D02*
X286318012Y-139956994D01*
X406230000Y-200331994D02*
X406230000Y-198606996D01*
X55275002Y-187581994D02*
X41275002Y-187581994D01*
X406230000Y-195306993D02*
X406230000Y-193581994D01*
X369599995Y-182531991D02*
X369599995Y-182531991D01*
X286318012Y-139956994D02*
X286318012Y-138431997D01*
X187912007Y-202331994D02*
X187912007Y-201351991D01*
X276267994Y-133406995D02*
X276267994Y-136706994D01*
X217200001Y-125381997D02*
X217200001Y-125381997D01*
X255586994Y-149481996D02*
X255586994Y-163481996D01*
X29081000Y-182531991D02*
X29081000Y-168531991D01*
X398400013Y-139956994D02*
X398400013Y-139956994D01*
X321974995Y-101541602D02*
X321974995Y-87541602D01*
X193386997Y-163481996D02*
X193386997Y-163481996D01*
X188625004Y-87570000D02*
X174625004Y-87570000D01*
X261599995Y-112851995D02*
X261599995Y-116081994D01*
X131761997Y-182531991D02*
X145761997Y-182531991D01*
X307974995Y-149481996D02*
X307974995Y-163481996D01*
X402999989Y-200331994D02*
X406230000Y-200331994D01*
X89487004Y-189051996D02*
X87761997Y-189051996D01*
X298162007Y-187294992D02*
X298162007Y-187294992D01*
X134142002Y-201581994D02*
X155287007Y-201581994D01*
X98424999Y-130431997D02*
X98424999Y-144431993D01*
X407150013Y-171506990D02*
X407150013Y-171506990D01*
X321974995Y-144431993D02*
X321974995Y-130431997D01*
X337800007Y-189051996D02*
X337800007Y-189051996D01*
X407700001Y-153956994D02*
X407700001Y-139956994D01*
X406230000Y-162231996D02*
X406230000Y-160506990D01*
X407150013Y-198606996D02*
X407150013Y-198606996D01*
X406230000Y-160506990D02*
X406230000Y-160506990D01*
X155287007Y-187581994D02*
X134142002Y-187581994D01*
X287124989Y-125151998D02*
X287124989Y-125151998D01*
X344550007Y-201351991D02*
X344550007Y-196881990D01*
X361598988Y-192281991D02*
X361598988Y-192281991D01*
X98136997Y-149481996D02*
X84136997Y-149481996D01*
X374650013Y-149481996D02*
X374650013Y-163481996D01*
X407700001Y-178056993D02*
X407700001Y-178056993D01*
X274349995Y-101569997D02*
X274349995Y-101569997D01*
X203787007Y-201581994D02*
X203787007Y-202331994D01*
X146050007Y-125381997D02*
X146050007Y-125381997D01*
X392950001Y-198606996D02*
X392950001Y-198606996D01*
X321974995Y-144431993D02*
X321974995Y-144431993D01*
X277248005Y-160506990D02*
X277248005Y-162231996D01*
X276267994Y-160506990D02*
X276267994Y-160506990D01*
X89487004Y-201351991D02*
X89487004Y-202331994D01*
X402999989Y-131681997D02*
X402999989Y-131681997D01*
X368348988Y-192281991D02*
X368348988Y-192281991D01*
X192793003Y-201351991D02*
X194517994Y-201351991D01*
X192793003Y-189051996D02*
X192793003Y-188131990D01*
X92911999Y-202331994D02*
X92911999Y-201351991D01*
X50512001Y-182531991D02*
X50512001Y-182531991D01*
X350550007Y-168531991D02*
X336550007Y-168531991D01*
X189493000Y-188131990D02*
X189493000Y-189051996D01*
X198149998Y-111381997D02*
X184149998Y-111381997D01*
X336550007Y-144431993D02*
X350550007Y-144431993D01*
X307974995Y-87541602D02*
X307974995Y-87541602D01*
X221961994Y-182531991D02*
X221961994Y-168531991D01*
X241011997Y-182531991D02*
X241011997Y-168531991D01*
X136237004Y-163481996D02*
X136237004Y-149481996D01*
X55275002Y-144431993D02*
X55275002Y-144431993D01*
X342825001Y-202331994D02*
X342825001Y-201351991D01*
X407150013Y-133406995D02*
X407150013Y-133406995D01*
X284162007Y-206344995D02*
X284162007Y-206344995D01*
X207086994Y-202331994D02*
X207086994Y-202331994D01*
X407700001Y-139956994D02*
X402999989Y-139956994D01*
X374649006Y-187581994D02*
X374649006Y-201581994D01*
X400200001Y-169781991D02*
X400200001Y-169781991D01*
X392950001Y-195306993D02*
X392950001Y-198606996D01*
X241300007Y-125381997D02*
X241300007Y-125381997D01*
X260349995Y-101569997D02*
X260349995Y-101569997D01*
X277248005Y-136706994D02*
X277248005Y-138431997D01*
X290468006Y-160506990D02*
X290468006Y-157206994D01*
X189493000Y-202331994D02*
X192793003Y-202331994D01*
X87761997Y-192281991D02*
X87761997Y-192281991D01*
X263323994Y-125151998D02*
X263323994Y-125151998D01*
X207675007Y-101569997D02*
X207675007Y-101569997D01*
X292150013Y-118881997D02*
X292974995Y-118881997D01*
X402999989Y-139956994D02*
X402999989Y-138431997D01*
X207675007Y-87570000D02*
X207675007Y-87570000D01*
X36511999Y-182531991D02*
X50512001Y-182531991D01*
X277017994Y-139956994D02*
X277017994Y-153956994D01*
X94636997Y-201351991D02*
X94636997Y-196881990D01*
X131761997Y-182531991D02*
X131761997Y-182531991D01*
X83850003Y-111381997D02*
X69850003Y-111381997D01*
X393930012Y-131681997D02*
X393930012Y-131681997D01*
X241300007Y-187581994D02*
X241300007Y-201581994D01*
X79087002Y-149481996D02*
X79087002Y-149481996D01*
X183862004Y-168531991D02*
X183862004Y-168531991D01*
X388650013Y-111381997D02*
X374650013Y-111381997D01*
X174336994Y-149481996D02*
X160336994Y-149481996D01*
X98136997Y-163481996D02*
X98136997Y-163481996D01*
X217200001Y-111381997D02*
X203200001Y-111381997D01*
X336973988Y-195081994D02*
X337800007Y-195081994D01*
X281718006Y-139956994D02*
X281718006Y-139956994D01*
X388650013Y-125381997D02*
X388650013Y-125381997D01*
X260349995Y-87570000D02*
X260349995Y-101569997D01*
X165099995Y-111381997D02*
X165099995Y-125381997D01*
X289547993Y-157206994D02*
X289547993Y-157206994D01*
X55275002Y-201581994D02*
X55275002Y-201581994D01*
X369599995Y-163481996D02*
X369599995Y-149481996D01*
X374650013Y-125381997D02*
X388650013Y-125381997D01*
X283517994Y-162231996D02*
X283517994Y-162231996D01*
X265111988Y-206344995D02*
X265111988Y-206344995D01*
X298162007Y-192344995D02*
X284162007Y-192344995D01*
X261599995Y-118881997D02*
X261599995Y-125151998D01*
X284162007Y-187294992D02*
X284162007Y-187294992D01*
X277017994Y-139956994D02*
X277017994Y-139956994D01*
X241300007Y-101569997D02*
X255300007Y-101569997D01*
X245774998Y-130431997D02*
X245774998Y-130431997D01*
X407150013Y-171506990D02*
X406230000Y-171506990D01*
X400200001Y-162231996D02*
X400200001Y-162231996D01*
X392950001Y-198606996D02*
X393930012Y-198606996D01*
X407700001Y-87541602D02*
X393700001Y-87541602D01*
X303211994Y-206344995D02*
X317211994Y-206344995D01*
X392950001Y-195306993D02*
X392950001Y-195306993D01*
X79087002Y-163481996D02*
X79087002Y-149481996D01*
X155575001Y-130431997D02*
X155575001Y-144431993D01*
X253205998Y-182531991D02*
X253205998Y-182531991D01*
X292974995Y-116081994D02*
X292974995Y-116081994D01*
X50512001Y-168531991D02*
X36511999Y-168531991D01*
X31750000Y-111381997D02*
X31750000Y-125381997D01*
X245774998Y-130431997D02*
X231774998Y-130431997D01*
X374650013Y-163481996D02*
X388650013Y-163481996D01*
X355599995Y-144431993D02*
X355599995Y-144431993D01*
X60036999Y-163481996D02*
X60036999Y-163481996D01*
X231774998Y-144431993D02*
X245774998Y-144431993D01*
X406230000Y-176531991D02*
X406230000Y-176531991D01*
X281718006Y-138431997D02*
X281718006Y-139956994D01*
X31462000Y-130431997D02*
X17462000Y-130431997D01*
X402999989Y-193581994D02*
X402999989Y-192056993D01*
X141000004Y-125381997D02*
X141000004Y-111381997D01*
X346075001Y-196881990D02*
X346075001Y-201581994D01*
X407700001Y-153956994D02*
X407700001Y-153956994D01*
X283874989Y-125381997D02*
X283874989Y-120681997D01*
X336550007Y-130431997D02*
X336550007Y-144431993D01*
X337800007Y-195081994D02*
X337800007Y-201351991D01*
X346075001Y-196881990D02*
X346075001Y-196881990D01*
X266624989Y-111931999D02*
X266624989Y-111931999D01*
X250825001Y-130431997D02*
X250825001Y-144431993D01*
X174625004Y-144431993D02*
X174625004Y-144431993D01*
X393700001Y-101541602D02*
X393700001Y-101541602D01*
X406230000Y-155481996D02*
X406230000Y-155481996D01*
X402999989Y-163056993D02*
X402999989Y-163056993D01*
X107661999Y-168531991D02*
X107661999Y-168531991D01*
X74325001Y-144431993D02*
X74325001Y-144431993D01*
X406230000Y-200331994D02*
X406230000Y-200331994D01*
X407700001Y-111381997D02*
X407700001Y-111381997D01*
X393930012Y-133406995D02*
X393930012Y-133406995D01*
X369599995Y-130431997D02*
X355599995Y-130431997D01*
X321974995Y-149481996D02*
X321974995Y-149481996D01*
X350550007Y-130431997D02*
X336550007Y-130431997D01*
X12700000Y-87570000D02*
X12700000Y-101569997D01*
M02*
