%TF.GenerationSoftware,KiCad,Pcbnew,(6.0.4)*%
%TF.CreationDate,2022-05-15T20:24:28+02:00*%
%TF.ProjectId,plate,706c6174-652e-46b6-9963-61645f706362,rev?*%
%TF.SameCoordinates,Original*%
%TF.FileFunction,Legend,Top*%
%TF.FilePolarity,Positive*%
%FSLAX46Y46*%
G04 Gerber Fmt 4.6, Leading zero omitted, Abs format (unit mm)*
G04 Created by KiCad (PCBNEW (6.0.4)) date 2022-05-15 20:24:28*
%MOMM*%
%LPD*%
G01*
G04 APERTURE LIST*
%ADD10C,0.150000*%
G04 APERTURE END LIST*
D10*
%TO.C,REF\u002A\u002A*%
X415266666Y-144158380D02*
X414933333Y-143682190D01*
X414695238Y-144158380D02*
X414695238Y-143158380D01*
X415076190Y-143158380D01*
X415171428Y-143206000D01*
X415219047Y-143253619D01*
X415266666Y-143348857D01*
X415266666Y-143491714D01*
X415219047Y-143586952D01*
X415171428Y-143634571D01*
X415076190Y-143682190D01*
X414695238Y-143682190D01*
X415695238Y-143634571D02*
X416028571Y-143634571D01*
X416171428Y-144158380D02*
X415695238Y-144158380D01*
X415695238Y-143158380D01*
X416171428Y-143158380D01*
X416933333Y-143634571D02*
X416600000Y-143634571D01*
X416600000Y-144158380D02*
X416600000Y-143158380D01*
X417076190Y-143158380D01*
X417600000Y-143158380D02*
X417600000Y-143396476D01*
X417361904Y-143301238D02*
X417600000Y-143396476D01*
X417838095Y-143301238D01*
X417457142Y-143586952D02*
X417600000Y-143396476D01*
X417742857Y-143586952D01*
X418361904Y-143158380D02*
X418361904Y-143396476D01*
X418123809Y-143301238D02*
X418361904Y-143396476D01*
X418600000Y-143301238D01*
X418219047Y-143586952D02*
X418361904Y-143396476D01*
X418504761Y-143586952D01*
X415266666Y-134252380D02*
X414933333Y-133776190D01*
X414695238Y-134252380D02*
X414695238Y-133252380D01*
X415076190Y-133252380D01*
X415171428Y-133300000D01*
X415219047Y-133347619D01*
X415266666Y-133442857D01*
X415266666Y-133585714D01*
X415219047Y-133680952D01*
X415171428Y-133728571D01*
X415076190Y-133776190D01*
X414695238Y-133776190D01*
X415695238Y-133728571D02*
X416028571Y-133728571D01*
X416171428Y-134252380D02*
X415695238Y-134252380D01*
X415695238Y-133252380D01*
X416171428Y-133252380D01*
X416933333Y-133728571D02*
X416600000Y-133728571D01*
X416600000Y-134252380D02*
X416600000Y-133252380D01*
X417076190Y-133252380D01*
X417600000Y-133252380D02*
X417600000Y-133490476D01*
X417361904Y-133395238D02*
X417600000Y-133490476D01*
X417838095Y-133395238D01*
X417457142Y-133680952D02*
X417600000Y-133490476D01*
X417742857Y-133680952D01*
X418361904Y-133252380D02*
X418361904Y-133490476D01*
X418123809Y-133395238D02*
X418361904Y-133490476D01*
X418600000Y-133395238D01*
X418219047Y-133680952D02*
X418361904Y-133490476D01*
X418504761Y-133680952D01*
X415266666Y-154064380D02*
X414933333Y-153588190D01*
X414695238Y-154064380D02*
X414695238Y-153064380D01*
X415076190Y-153064380D01*
X415171428Y-153112000D01*
X415219047Y-153159619D01*
X415266666Y-153254857D01*
X415266666Y-153397714D01*
X415219047Y-153492952D01*
X415171428Y-153540571D01*
X415076190Y-153588190D01*
X414695238Y-153588190D01*
X415695238Y-153540571D02*
X416028571Y-153540571D01*
X416171428Y-154064380D02*
X415695238Y-154064380D01*
X415695238Y-153064380D01*
X416171428Y-153064380D01*
X416933333Y-153540571D02*
X416600000Y-153540571D01*
X416600000Y-154064380D02*
X416600000Y-153064380D01*
X417076190Y-153064380D01*
X417600000Y-153064380D02*
X417600000Y-153302476D01*
X417361904Y-153207238D02*
X417600000Y-153302476D01*
X417838095Y-153207238D01*
X417457142Y-153492952D02*
X417600000Y-153302476D01*
X417742857Y-153492952D01*
X418361904Y-153064380D02*
X418361904Y-153302476D01*
X418123809Y-153207238D02*
X418361904Y-153302476D01*
X418600000Y-153207238D01*
X418219047Y-153492952D02*
X418361904Y-153302476D01*
X418504761Y-153492952D01*
X58866666Y-212552380D02*
X58533333Y-212076190D01*
X58295238Y-212552380D02*
X58295238Y-211552380D01*
X58676190Y-211552380D01*
X58771428Y-211600000D01*
X58819047Y-211647619D01*
X58866666Y-211742857D01*
X58866666Y-211885714D01*
X58819047Y-211980952D01*
X58771428Y-212028571D01*
X58676190Y-212076190D01*
X58295238Y-212076190D01*
X59295238Y-212028571D02*
X59628571Y-212028571D01*
X59771428Y-212552380D02*
X59295238Y-212552380D01*
X59295238Y-211552380D01*
X59771428Y-211552380D01*
X60533333Y-212028571D02*
X60200000Y-212028571D01*
X60200000Y-212552380D02*
X60200000Y-211552380D01*
X60676190Y-211552380D01*
X61200000Y-211552380D02*
X61200000Y-211790476D01*
X60961904Y-211695238D02*
X61200000Y-211790476D01*
X61438095Y-211695238D01*
X61057142Y-211980952D02*
X61200000Y-211790476D01*
X61342857Y-211980952D01*
X61961904Y-211552380D02*
X61961904Y-211790476D01*
X61723809Y-211695238D02*
X61961904Y-211790476D01*
X62200000Y-211695238D01*
X61819047Y-211980952D02*
X61961904Y-211790476D01*
X62104761Y-211980952D01*
X48960666Y-212552380D02*
X48627333Y-212076190D01*
X48389238Y-212552380D02*
X48389238Y-211552380D01*
X48770190Y-211552380D01*
X48865428Y-211600000D01*
X48913047Y-211647619D01*
X48960666Y-211742857D01*
X48960666Y-211885714D01*
X48913047Y-211980952D01*
X48865428Y-212028571D01*
X48770190Y-212076190D01*
X48389238Y-212076190D01*
X49389238Y-212028571D02*
X49722571Y-212028571D01*
X49865428Y-212552380D02*
X49389238Y-212552380D01*
X49389238Y-211552380D01*
X49865428Y-211552380D01*
X50627333Y-212028571D02*
X50294000Y-212028571D01*
X50294000Y-212552380D02*
X50294000Y-211552380D01*
X50770190Y-211552380D01*
X51294000Y-211552380D02*
X51294000Y-211790476D01*
X51055904Y-211695238D02*
X51294000Y-211790476D01*
X51532095Y-211695238D01*
X51151142Y-211980952D02*
X51294000Y-211790476D01*
X51436857Y-211980952D01*
X52055904Y-211552380D02*
X52055904Y-211790476D01*
X51817809Y-211695238D02*
X52055904Y-211790476D01*
X52294000Y-211695238D01*
X51913047Y-211980952D02*
X52055904Y-211790476D01*
X52198761Y-211980952D01*
X68772666Y-212552380D02*
X68439333Y-212076190D01*
X68201238Y-212552380D02*
X68201238Y-211552380D01*
X68582190Y-211552380D01*
X68677428Y-211600000D01*
X68725047Y-211647619D01*
X68772666Y-211742857D01*
X68772666Y-211885714D01*
X68725047Y-211980952D01*
X68677428Y-212028571D01*
X68582190Y-212076190D01*
X68201238Y-212076190D01*
X69201238Y-212028571D02*
X69534571Y-212028571D01*
X69677428Y-212552380D02*
X69201238Y-212552380D01*
X69201238Y-211552380D01*
X69677428Y-211552380D01*
X70439333Y-212028571D02*
X70106000Y-212028571D01*
X70106000Y-212552380D02*
X70106000Y-211552380D01*
X70582190Y-211552380D01*
X71106000Y-211552380D02*
X71106000Y-211790476D01*
X70867904Y-211695238D02*
X71106000Y-211790476D01*
X71344095Y-211695238D01*
X70963142Y-211980952D02*
X71106000Y-211790476D01*
X71248857Y-211980952D01*
X71867904Y-211552380D02*
X71867904Y-211790476D01*
X71629809Y-211695238D02*
X71867904Y-211790476D01*
X72106000Y-211695238D01*
X71725047Y-211980952D02*
X71867904Y-211790476D01*
X72010761Y-211980952D01*
X158866666Y-212552380D02*
X158533333Y-212076190D01*
X158295238Y-212552380D02*
X158295238Y-211552380D01*
X158676190Y-211552380D01*
X158771428Y-211600000D01*
X158819047Y-211647619D01*
X158866666Y-211742857D01*
X158866666Y-211885714D01*
X158819047Y-211980952D01*
X158771428Y-212028571D01*
X158676190Y-212076190D01*
X158295238Y-212076190D01*
X159295238Y-212028571D02*
X159628571Y-212028571D01*
X159771428Y-212552380D02*
X159295238Y-212552380D01*
X159295238Y-211552380D01*
X159771428Y-211552380D01*
X160533333Y-212028571D02*
X160200000Y-212028571D01*
X160200000Y-212552380D02*
X160200000Y-211552380D01*
X160676190Y-211552380D01*
X161200000Y-211552380D02*
X161200000Y-211790476D01*
X160961904Y-211695238D02*
X161200000Y-211790476D01*
X161438095Y-211695238D01*
X161057142Y-211980952D02*
X161200000Y-211790476D01*
X161342857Y-211980952D01*
X161961904Y-211552380D02*
X161961904Y-211790476D01*
X161723809Y-211695238D02*
X161961904Y-211790476D01*
X162200000Y-211695238D01*
X161819047Y-211980952D02*
X161961904Y-211790476D01*
X162104761Y-211980952D01*
X148960666Y-212552380D02*
X148627333Y-212076190D01*
X148389238Y-212552380D02*
X148389238Y-211552380D01*
X148770190Y-211552380D01*
X148865428Y-211600000D01*
X148913047Y-211647619D01*
X148960666Y-211742857D01*
X148960666Y-211885714D01*
X148913047Y-211980952D01*
X148865428Y-212028571D01*
X148770190Y-212076190D01*
X148389238Y-212076190D01*
X149389238Y-212028571D02*
X149722571Y-212028571D01*
X149865428Y-212552380D02*
X149389238Y-212552380D01*
X149389238Y-211552380D01*
X149865428Y-211552380D01*
X150627333Y-212028571D02*
X150294000Y-212028571D01*
X150294000Y-212552380D02*
X150294000Y-211552380D01*
X150770190Y-211552380D01*
X151294000Y-211552380D02*
X151294000Y-211790476D01*
X151055904Y-211695238D02*
X151294000Y-211790476D01*
X151532095Y-211695238D01*
X151151142Y-211980952D02*
X151294000Y-211790476D01*
X151436857Y-211980952D01*
X152055904Y-211552380D02*
X152055904Y-211790476D01*
X151817809Y-211695238D02*
X152055904Y-211790476D01*
X152294000Y-211695238D01*
X151913047Y-211980952D02*
X152055904Y-211790476D01*
X152198761Y-211980952D01*
X168772666Y-212552380D02*
X168439333Y-212076190D01*
X168201238Y-212552380D02*
X168201238Y-211552380D01*
X168582190Y-211552380D01*
X168677428Y-211600000D01*
X168725047Y-211647619D01*
X168772666Y-211742857D01*
X168772666Y-211885714D01*
X168725047Y-211980952D01*
X168677428Y-212028571D01*
X168582190Y-212076190D01*
X168201238Y-212076190D01*
X169201238Y-212028571D02*
X169534571Y-212028571D01*
X169677428Y-212552380D02*
X169201238Y-212552380D01*
X169201238Y-211552380D01*
X169677428Y-211552380D01*
X170439333Y-212028571D02*
X170106000Y-212028571D01*
X170106000Y-212552380D02*
X170106000Y-211552380D01*
X170582190Y-211552380D01*
X171106000Y-211552380D02*
X171106000Y-211790476D01*
X170867904Y-211695238D02*
X171106000Y-211790476D01*
X171344095Y-211695238D01*
X170963142Y-211980952D02*
X171106000Y-211790476D01*
X171248857Y-211980952D01*
X171867904Y-211552380D02*
X171867904Y-211790476D01*
X171629809Y-211695238D02*
X171867904Y-211790476D01*
X172106000Y-211695238D01*
X171725047Y-211980952D02*
X171867904Y-211790476D01*
X172010761Y-211980952D01*
X258866666Y-212552380D02*
X258533333Y-212076190D01*
X258295238Y-212552380D02*
X258295238Y-211552380D01*
X258676190Y-211552380D01*
X258771428Y-211600000D01*
X258819047Y-211647619D01*
X258866666Y-211742857D01*
X258866666Y-211885714D01*
X258819047Y-211980952D01*
X258771428Y-212028571D01*
X258676190Y-212076190D01*
X258295238Y-212076190D01*
X259295238Y-212028571D02*
X259628571Y-212028571D01*
X259771428Y-212552380D02*
X259295238Y-212552380D01*
X259295238Y-211552380D01*
X259771428Y-211552380D01*
X260533333Y-212028571D02*
X260200000Y-212028571D01*
X260200000Y-212552380D02*
X260200000Y-211552380D01*
X260676190Y-211552380D01*
X261200000Y-211552380D02*
X261200000Y-211790476D01*
X260961904Y-211695238D02*
X261200000Y-211790476D01*
X261438095Y-211695238D01*
X261057142Y-211980952D02*
X261200000Y-211790476D01*
X261342857Y-211980952D01*
X261961904Y-211552380D02*
X261961904Y-211790476D01*
X261723809Y-211695238D02*
X261961904Y-211790476D01*
X262200000Y-211695238D01*
X261819047Y-211980952D02*
X261961904Y-211790476D01*
X262104761Y-211980952D01*
X248960666Y-212552380D02*
X248627333Y-212076190D01*
X248389238Y-212552380D02*
X248389238Y-211552380D01*
X248770190Y-211552380D01*
X248865428Y-211600000D01*
X248913047Y-211647619D01*
X248960666Y-211742857D01*
X248960666Y-211885714D01*
X248913047Y-211980952D01*
X248865428Y-212028571D01*
X248770190Y-212076190D01*
X248389238Y-212076190D01*
X249389238Y-212028571D02*
X249722571Y-212028571D01*
X249865428Y-212552380D02*
X249389238Y-212552380D01*
X249389238Y-211552380D01*
X249865428Y-211552380D01*
X250627333Y-212028571D02*
X250294000Y-212028571D01*
X250294000Y-212552380D02*
X250294000Y-211552380D01*
X250770190Y-211552380D01*
X251294000Y-211552380D02*
X251294000Y-211790476D01*
X251055904Y-211695238D02*
X251294000Y-211790476D01*
X251532095Y-211695238D01*
X251151142Y-211980952D02*
X251294000Y-211790476D01*
X251436857Y-211980952D01*
X252055904Y-211552380D02*
X252055904Y-211790476D01*
X251817809Y-211695238D02*
X252055904Y-211790476D01*
X252294000Y-211695238D01*
X251913047Y-211980952D02*
X252055904Y-211790476D01*
X252198761Y-211980952D01*
X268772666Y-212552380D02*
X268439333Y-212076190D01*
X268201238Y-212552380D02*
X268201238Y-211552380D01*
X268582190Y-211552380D01*
X268677428Y-211600000D01*
X268725047Y-211647619D01*
X268772666Y-211742857D01*
X268772666Y-211885714D01*
X268725047Y-211980952D01*
X268677428Y-212028571D01*
X268582190Y-212076190D01*
X268201238Y-212076190D01*
X269201238Y-212028571D02*
X269534571Y-212028571D01*
X269677428Y-212552380D02*
X269201238Y-212552380D01*
X269201238Y-211552380D01*
X269677428Y-211552380D01*
X270439333Y-212028571D02*
X270106000Y-212028571D01*
X270106000Y-212552380D02*
X270106000Y-211552380D01*
X270582190Y-211552380D01*
X271106000Y-211552380D02*
X271106000Y-211790476D01*
X270867904Y-211695238D02*
X271106000Y-211790476D01*
X271344095Y-211695238D01*
X270963142Y-211980952D02*
X271106000Y-211790476D01*
X271248857Y-211980952D01*
X271867904Y-211552380D02*
X271867904Y-211790476D01*
X271629809Y-211695238D02*
X271867904Y-211790476D01*
X272106000Y-211695238D01*
X271725047Y-211980952D02*
X271867904Y-211790476D01*
X272010761Y-211980952D01*
X358866666Y-212552380D02*
X358533333Y-212076190D01*
X358295238Y-212552380D02*
X358295238Y-211552380D01*
X358676190Y-211552380D01*
X358771428Y-211600000D01*
X358819047Y-211647619D01*
X358866666Y-211742857D01*
X358866666Y-211885714D01*
X358819047Y-211980952D01*
X358771428Y-212028571D01*
X358676190Y-212076190D01*
X358295238Y-212076190D01*
X359295238Y-212028571D02*
X359628571Y-212028571D01*
X359771428Y-212552380D02*
X359295238Y-212552380D01*
X359295238Y-211552380D01*
X359771428Y-211552380D01*
X360533333Y-212028571D02*
X360200000Y-212028571D01*
X360200000Y-212552380D02*
X360200000Y-211552380D01*
X360676190Y-211552380D01*
X361200000Y-211552380D02*
X361200000Y-211790476D01*
X360961904Y-211695238D02*
X361200000Y-211790476D01*
X361438095Y-211695238D01*
X361057142Y-211980952D02*
X361200000Y-211790476D01*
X361342857Y-211980952D01*
X361961904Y-211552380D02*
X361961904Y-211790476D01*
X361723809Y-211695238D02*
X361961904Y-211790476D01*
X362200000Y-211695238D01*
X361819047Y-211980952D02*
X361961904Y-211790476D01*
X362104761Y-211980952D01*
X348960666Y-212552380D02*
X348627333Y-212076190D01*
X348389238Y-212552380D02*
X348389238Y-211552380D01*
X348770190Y-211552380D01*
X348865428Y-211600000D01*
X348913047Y-211647619D01*
X348960666Y-211742857D01*
X348960666Y-211885714D01*
X348913047Y-211980952D01*
X348865428Y-212028571D01*
X348770190Y-212076190D01*
X348389238Y-212076190D01*
X349389238Y-212028571D02*
X349722571Y-212028571D01*
X349865428Y-212552380D02*
X349389238Y-212552380D01*
X349389238Y-211552380D01*
X349865428Y-211552380D01*
X350627333Y-212028571D02*
X350294000Y-212028571D01*
X350294000Y-212552380D02*
X350294000Y-211552380D01*
X350770190Y-211552380D01*
X351294000Y-211552380D02*
X351294000Y-211790476D01*
X351055904Y-211695238D02*
X351294000Y-211790476D01*
X351532095Y-211695238D01*
X351151142Y-211980952D02*
X351294000Y-211790476D01*
X351436857Y-211980952D01*
X352055904Y-211552380D02*
X352055904Y-211790476D01*
X351817809Y-211695238D02*
X352055904Y-211790476D01*
X352294000Y-211695238D01*
X351913047Y-211980952D02*
X352055904Y-211790476D01*
X352198761Y-211980952D01*
X368772666Y-212552380D02*
X368439333Y-212076190D01*
X368201238Y-212552380D02*
X368201238Y-211552380D01*
X368582190Y-211552380D01*
X368677428Y-211600000D01*
X368725047Y-211647619D01*
X368772666Y-211742857D01*
X368772666Y-211885714D01*
X368725047Y-211980952D01*
X368677428Y-212028571D01*
X368582190Y-212076190D01*
X368201238Y-212076190D01*
X369201238Y-212028571D02*
X369534571Y-212028571D01*
X369677428Y-212552380D02*
X369201238Y-212552380D01*
X369201238Y-211552380D01*
X369677428Y-211552380D01*
X370439333Y-212028571D02*
X370106000Y-212028571D01*
X370106000Y-212552380D02*
X370106000Y-211552380D01*
X370582190Y-211552380D01*
X371106000Y-211552380D02*
X371106000Y-211790476D01*
X370867904Y-211695238D02*
X371106000Y-211790476D01*
X371344095Y-211695238D01*
X370963142Y-211980952D02*
X371106000Y-211790476D01*
X371248857Y-211980952D01*
X371867904Y-211552380D02*
X371867904Y-211790476D01*
X371629809Y-211695238D02*
X371867904Y-211790476D01*
X372106000Y-211695238D01*
X371725047Y-211980952D02*
X371867904Y-211790476D01*
X372010761Y-211980952D01*
X358866666Y-75752380D02*
X358533333Y-75276190D01*
X358295238Y-75752380D02*
X358295238Y-74752380D01*
X358676190Y-74752380D01*
X358771428Y-74800000D01*
X358819047Y-74847619D01*
X358866666Y-74942857D01*
X358866666Y-75085714D01*
X358819047Y-75180952D01*
X358771428Y-75228571D01*
X358676190Y-75276190D01*
X358295238Y-75276190D01*
X359295238Y-75228571D02*
X359628571Y-75228571D01*
X359771428Y-75752380D02*
X359295238Y-75752380D01*
X359295238Y-74752380D01*
X359771428Y-74752380D01*
X360533333Y-75228571D02*
X360200000Y-75228571D01*
X360200000Y-75752380D02*
X360200000Y-74752380D01*
X360676190Y-74752380D01*
X361200000Y-74752380D02*
X361200000Y-74990476D01*
X360961904Y-74895238D02*
X361200000Y-74990476D01*
X361438095Y-74895238D01*
X361057142Y-75180952D02*
X361200000Y-74990476D01*
X361342857Y-75180952D01*
X361961904Y-74752380D02*
X361961904Y-74990476D01*
X361723809Y-74895238D02*
X361961904Y-74990476D01*
X362200000Y-74895238D01*
X361819047Y-75180952D02*
X361961904Y-74990476D01*
X362104761Y-75180952D01*
X348960666Y-75752380D02*
X348627333Y-75276190D01*
X348389238Y-75752380D02*
X348389238Y-74752380D01*
X348770190Y-74752380D01*
X348865428Y-74800000D01*
X348913047Y-74847619D01*
X348960666Y-74942857D01*
X348960666Y-75085714D01*
X348913047Y-75180952D01*
X348865428Y-75228571D01*
X348770190Y-75276190D01*
X348389238Y-75276190D01*
X349389238Y-75228571D02*
X349722571Y-75228571D01*
X349865428Y-75752380D02*
X349389238Y-75752380D01*
X349389238Y-74752380D01*
X349865428Y-74752380D01*
X350627333Y-75228571D02*
X350294000Y-75228571D01*
X350294000Y-75752380D02*
X350294000Y-74752380D01*
X350770190Y-74752380D01*
X351294000Y-74752380D02*
X351294000Y-74990476D01*
X351055904Y-74895238D02*
X351294000Y-74990476D01*
X351532095Y-74895238D01*
X351151142Y-75180952D02*
X351294000Y-74990476D01*
X351436857Y-75180952D01*
X352055904Y-74752380D02*
X352055904Y-74990476D01*
X351817809Y-74895238D02*
X352055904Y-74990476D01*
X352294000Y-74895238D01*
X351913047Y-75180952D02*
X352055904Y-74990476D01*
X352198761Y-75180952D01*
X368772666Y-75752380D02*
X368439333Y-75276190D01*
X368201238Y-75752380D02*
X368201238Y-74752380D01*
X368582190Y-74752380D01*
X368677428Y-74800000D01*
X368725047Y-74847619D01*
X368772666Y-74942857D01*
X368772666Y-75085714D01*
X368725047Y-75180952D01*
X368677428Y-75228571D01*
X368582190Y-75276190D01*
X368201238Y-75276190D01*
X369201238Y-75228571D02*
X369534571Y-75228571D01*
X369677428Y-75752380D02*
X369201238Y-75752380D01*
X369201238Y-74752380D01*
X369677428Y-74752380D01*
X370439333Y-75228571D02*
X370106000Y-75228571D01*
X370106000Y-75752380D02*
X370106000Y-74752380D01*
X370582190Y-74752380D01*
X371106000Y-74752380D02*
X371106000Y-74990476D01*
X370867904Y-74895238D02*
X371106000Y-74990476D01*
X371344095Y-74895238D01*
X370963142Y-75180952D02*
X371106000Y-74990476D01*
X371248857Y-75180952D01*
X371867904Y-74752380D02*
X371867904Y-74990476D01*
X371629809Y-74895238D02*
X371867904Y-74990476D01*
X372106000Y-74895238D01*
X371725047Y-75180952D02*
X371867904Y-74990476D01*
X372010761Y-75180952D01*
X258866666Y-75752380D02*
X258533333Y-75276190D01*
X258295238Y-75752380D02*
X258295238Y-74752380D01*
X258676190Y-74752380D01*
X258771428Y-74800000D01*
X258819047Y-74847619D01*
X258866666Y-74942857D01*
X258866666Y-75085714D01*
X258819047Y-75180952D01*
X258771428Y-75228571D01*
X258676190Y-75276190D01*
X258295238Y-75276190D01*
X259295238Y-75228571D02*
X259628571Y-75228571D01*
X259771428Y-75752380D02*
X259295238Y-75752380D01*
X259295238Y-74752380D01*
X259771428Y-74752380D01*
X260533333Y-75228571D02*
X260200000Y-75228571D01*
X260200000Y-75752380D02*
X260200000Y-74752380D01*
X260676190Y-74752380D01*
X261200000Y-74752380D02*
X261200000Y-74990476D01*
X260961904Y-74895238D02*
X261200000Y-74990476D01*
X261438095Y-74895238D01*
X261057142Y-75180952D02*
X261200000Y-74990476D01*
X261342857Y-75180952D01*
X261961904Y-74752380D02*
X261961904Y-74990476D01*
X261723809Y-74895238D02*
X261961904Y-74990476D01*
X262200000Y-74895238D01*
X261819047Y-75180952D02*
X261961904Y-74990476D01*
X262104761Y-75180952D01*
X248960666Y-75752380D02*
X248627333Y-75276190D01*
X248389238Y-75752380D02*
X248389238Y-74752380D01*
X248770190Y-74752380D01*
X248865428Y-74800000D01*
X248913047Y-74847619D01*
X248960666Y-74942857D01*
X248960666Y-75085714D01*
X248913047Y-75180952D01*
X248865428Y-75228571D01*
X248770190Y-75276190D01*
X248389238Y-75276190D01*
X249389238Y-75228571D02*
X249722571Y-75228571D01*
X249865428Y-75752380D02*
X249389238Y-75752380D01*
X249389238Y-74752380D01*
X249865428Y-74752380D01*
X250627333Y-75228571D02*
X250294000Y-75228571D01*
X250294000Y-75752380D02*
X250294000Y-74752380D01*
X250770190Y-74752380D01*
X251294000Y-74752380D02*
X251294000Y-74990476D01*
X251055904Y-74895238D02*
X251294000Y-74990476D01*
X251532095Y-74895238D01*
X251151142Y-75180952D02*
X251294000Y-74990476D01*
X251436857Y-75180952D01*
X252055904Y-74752380D02*
X252055904Y-74990476D01*
X251817809Y-74895238D02*
X252055904Y-74990476D01*
X252294000Y-74895238D01*
X251913047Y-75180952D02*
X252055904Y-74990476D01*
X252198761Y-75180952D01*
X268772666Y-75752380D02*
X268439333Y-75276190D01*
X268201238Y-75752380D02*
X268201238Y-74752380D01*
X268582190Y-74752380D01*
X268677428Y-74800000D01*
X268725047Y-74847619D01*
X268772666Y-74942857D01*
X268772666Y-75085714D01*
X268725047Y-75180952D01*
X268677428Y-75228571D01*
X268582190Y-75276190D01*
X268201238Y-75276190D01*
X269201238Y-75228571D02*
X269534571Y-75228571D01*
X269677428Y-75752380D02*
X269201238Y-75752380D01*
X269201238Y-74752380D01*
X269677428Y-74752380D01*
X270439333Y-75228571D02*
X270106000Y-75228571D01*
X270106000Y-75752380D02*
X270106000Y-74752380D01*
X270582190Y-74752380D01*
X271106000Y-74752380D02*
X271106000Y-74990476D01*
X270867904Y-74895238D02*
X271106000Y-74990476D01*
X271344095Y-74895238D01*
X270963142Y-75180952D02*
X271106000Y-74990476D01*
X271248857Y-75180952D01*
X271867904Y-74752380D02*
X271867904Y-74990476D01*
X271629809Y-74895238D02*
X271867904Y-74990476D01*
X272106000Y-74895238D01*
X271725047Y-75180952D02*
X271867904Y-74990476D01*
X272010761Y-75180952D01*
X158866666Y-75752380D02*
X158533333Y-75276190D01*
X158295238Y-75752380D02*
X158295238Y-74752380D01*
X158676190Y-74752380D01*
X158771428Y-74800000D01*
X158819047Y-74847619D01*
X158866666Y-74942857D01*
X158866666Y-75085714D01*
X158819047Y-75180952D01*
X158771428Y-75228571D01*
X158676190Y-75276190D01*
X158295238Y-75276190D01*
X159295238Y-75228571D02*
X159628571Y-75228571D01*
X159771428Y-75752380D02*
X159295238Y-75752380D01*
X159295238Y-74752380D01*
X159771428Y-74752380D01*
X160533333Y-75228571D02*
X160200000Y-75228571D01*
X160200000Y-75752380D02*
X160200000Y-74752380D01*
X160676190Y-74752380D01*
X161200000Y-74752380D02*
X161200000Y-74990476D01*
X160961904Y-74895238D02*
X161200000Y-74990476D01*
X161438095Y-74895238D01*
X161057142Y-75180952D02*
X161200000Y-74990476D01*
X161342857Y-75180952D01*
X161961904Y-74752380D02*
X161961904Y-74990476D01*
X161723809Y-74895238D02*
X161961904Y-74990476D01*
X162200000Y-74895238D01*
X161819047Y-75180952D02*
X161961904Y-74990476D01*
X162104761Y-75180952D01*
X148960666Y-75752380D02*
X148627333Y-75276190D01*
X148389238Y-75752380D02*
X148389238Y-74752380D01*
X148770190Y-74752380D01*
X148865428Y-74800000D01*
X148913047Y-74847619D01*
X148960666Y-74942857D01*
X148960666Y-75085714D01*
X148913047Y-75180952D01*
X148865428Y-75228571D01*
X148770190Y-75276190D01*
X148389238Y-75276190D01*
X149389238Y-75228571D02*
X149722571Y-75228571D01*
X149865428Y-75752380D02*
X149389238Y-75752380D01*
X149389238Y-74752380D01*
X149865428Y-74752380D01*
X150627333Y-75228571D02*
X150294000Y-75228571D01*
X150294000Y-75752380D02*
X150294000Y-74752380D01*
X150770190Y-74752380D01*
X151294000Y-74752380D02*
X151294000Y-74990476D01*
X151055904Y-74895238D02*
X151294000Y-74990476D01*
X151532095Y-74895238D01*
X151151142Y-75180952D02*
X151294000Y-74990476D01*
X151436857Y-75180952D01*
X152055904Y-74752380D02*
X152055904Y-74990476D01*
X151817809Y-74895238D02*
X152055904Y-74990476D01*
X152294000Y-74895238D01*
X151913047Y-75180952D02*
X152055904Y-74990476D01*
X152198761Y-75180952D01*
X168772666Y-75752380D02*
X168439333Y-75276190D01*
X168201238Y-75752380D02*
X168201238Y-74752380D01*
X168582190Y-74752380D01*
X168677428Y-74800000D01*
X168725047Y-74847619D01*
X168772666Y-74942857D01*
X168772666Y-75085714D01*
X168725047Y-75180952D01*
X168677428Y-75228571D01*
X168582190Y-75276190D01*
X168201238Y-75276190D01*
X169201238Y-75228571D02*
X169534571Y-75228571D01*
X169677428Y-75752380D02*
X169201238Y-75752380D01*
X169201238Y-74752380D01*
X169677428Y-74752380D01*
X170439333Y-75228571D02*
X170106000Y-75228571D01*
X170106000Y-75752380D02*
X170106000Y-74752380D01*
X170582190Y-74752380D01*
X171106000Y-74752380D02*
X171106000Y-74990476D01*
X170867904Y-74895238D02*
X171106000Y-74990476D01*
X171344095Y-74895238D01*
X170963142Y-75180952D02*
X171106000Y-74990476D01*
X171248857Y-75180952D01*
X171867904Y-74752380D02*
X171867904Y-74990476D01*
X171629809Y-74895238D02*
X171867904Y-74990476D01*
X172106000Y-74895238D01*
X171725047Y-75180952D02*
X171867904Y-74990476D01*
X172010761Y-75180952D01*
X68770666Y-75738380D02*
X68437333Y-75262190D01*
X68199238Y-75738380D02*
X68199238Y-74738380D01*
X68580190Y-74738380D01*
X68675428Y-74786000D01*
X68723047Y-74833619D01*
X68770666Y-74928857D01*
X68770666Y-75071714D01*
X68723047Y-75166952D01*
X68675428Y-75214571D01*
X68580190Y-75262190D01*
X68199238Y-75262190D01*
X69199238Y-75214571D02*
X69532571Y-75214571D01*
X69675428Y-75738380D02*
X69199238Y-75738380D01*
X69199238Y-74738380D01*
X69675428Y-74738380D01*
X70437333Y-75214571D02*
X70104000Y-75214571D01*
X70104000Y-75738380D02*
X70104000Y-74738380D01*
X70580190Y-74738380D01*
X71104000Y-74738380D02*
X71104000Y-74976476D01*
X70865904Y-74881238D02*
X71104000Y-74976476D01*
X71342095Y-74881238D01*
X70961142Y-75166952D02*
X71104000Y-74976476D01*
X71246857Y-75166952D01*
X71865904Y-74738380D02*
X71865904Y-74976476D01*
X71627809Y-74881238D02*
X71865904Y-74976476D01*
X72104000Y-74881238D01*
X71723047Y-75166952D02*
X71865904Y-74976476D01*
X72008761Y-75166952D01*
X58864666Y-75738380D02*
X58531333Y-75262190D01*
X58293238Y-75738380D02*
X58293238Y-74738380D01*
X58674190Y-74738380D01*
X58769428Y-74786000D01*
X58817047Y-74833619D01*
X58864666Y-74928857D01*
X58864666Y-75071714D01*
X58817047Y-75166952D01*
X58769428Y-75214571D01*
X58674190Y-75262190D01*
X58293238Y-75262190D01*
X59293238Y-75214571D02*
X59626571Y-75214571D01*
X59769428Y-75738380D02*
X59293238Y-75738380D01*
X59293238Y-74738380D01*
X59769428Y-74738380D01*
X60531333Y-75214571D02*
X60198000Y-75214571D01*
X60198000Y-75738380D02*
X60198000Y-74738380D01*
X60674190Y-74738380D01*
X61198000Y-74738380D02*
X61198000Y-74976476D01*
X60959904Y-74881238D02*
X61198000Y-74976476D01*
X61436095Y-74881238D01*
X61055142Y-75166952D02*
X61198000Y-74976476D01*
X61340857Y-75166952D01*
X61959904Y-74738380D02*
X61959904Y-74976476D01*
X61721809Y-74881238D02*
X61959904Y-74976476D01*
X62198000Y-74881238D01*
X61817047Y-75166952D02*
X61959904Y-74976476D01*
X62102761Y-75166952D01*
X48958666Y-75738380D02*
X48625333Y-75262190D01*
X48387238Y-75738380D02*
X48387238Y-74738380D01*
X48768190Y-74738380D01*
X48863428Y-74786000D01*
X48911047Y-74833619D01*
X48958666Y-74928857D01*
X48958666Y-75071714D01*
X48911047Y-75166952D01*
X48863428Y-75214571D01*
X48768190Y-75262190D01*
X48387238Y-75262190D01*
X49387238Y-75214571D02*
X49720571Y-75214571D01*
X49863428Y-75738380D02*
X49387238Y-75738380D01*
X49387238Y-74738380D01*
X49863428Y-74738380D01*
X50625333Y-75214571D02*
X50292000Y-75214571D01*
X50292000Y-75738380D02*
X50292000Y-74738380D01*
X50768190Y-74738380D01*
X51292000Y-74738380D02*
X51292000Y-74976476D01*
X51053904Y-74881238D02*
X51292000Y-74976476D01*
X51530095Y-74881238D01*
X51149142Y-75166952D02*
X51292000Y-74976476D01*
X51434857Y-75166952D01*
X52053904Y-74738380D02*
X52053904Y-74976476D01*
X51815809Y-74881238D02*
X52053904Y-74976476D01*
X52292000Y-74881238D01*
X51911047Y-75166952D02*
X52053904Y-74976476D01*
X52196761Y-75166952D01*
X2476666Y-134285380D02*
X2143333Y-133809190D01*
X1905238Y-134285380D02*
X1905238Y-133285380D01*
X2286190Y-133285380D01*
X2381428Y-133333000D01*
X2429047Y-133380619D01*
X2476666Y-133475857D01*
X2476666Y-133618714D01*
X2429047Y-133713952D01*
X2381428Y-133761571D01*
X2286190Y-133809190D01*
X1905238Y-133809190D01*
X2905238Y-133761571D02*
X3238571Y-133761571D01*
X3381428Y-134285380D02*
X2905238Y-134285380D01*
X2905238Y-133285380D01*
X3381428Y-133285380D01*
X4143333Y-133761571D02*
X3809999Y-133761571D01*
X3809999Y-134285380D02*
X3809999Y-133285380D01*
X4286190Y-133285380D01*
X4810000Y-133285380D02*
X4810000Y-133523476D01*
X4571904Y-133428238D02*
X4810000Y-133523476D01*
X5048095Y-133428238D01*
X4667142Y-133713952D02*
X4810000Y-133523476D01*
X4952857Y-133713952D01*
X5571904Y-133285380D02*
X5571904Y-133523476D01*
X5333809Y-133428238D02*
X5571904Y-133523476D01*
X5810000Y-133428238D01*
X5429047Y-133713952D02*
X5571904Y-133523476D01*
X5714761Y-133713952D01*
X2476666Y-144191380D02*
X2143333Y-143715190D01*
X1905238Y-144191380D02*
X1905238Y-143191380D01*
X2286190Y-143191380D01*
X2381428Y-143239000D01*
X2429047Y-143286619D01*
X2476666Y-143381857D01*
X2476666Y-143524714D01*
X2429047Y-143619952D01*
X2381428Y-143667571D01*
X2286190Y-143715190D01*
X1905238Y-143715190D01*
X2905238Y-143667571D02*
X3238571Y-143667571D01*
X3381428Y-144191380D02*
X2905238Y-144191380D01*
X2905238Y-143191380D01*
X3381428Y-143191380D01*
X4143333Y-143667571D02*
X3809999Y-143667571D01*
X3809999Y-144191380D02*
X3809999Y-143191380D01*
X4286190Y-143191380D01*
X4810000Y-143191380D02*
X4810000Y-143429476D01*
X4571904Y-143334238D02*
X4810000Y-143429476D01*
X5048095Y-143334238D01*
X4667142Y-143619952D02*
X4810000Y-143429476D01*
X4952857Y-143619952D01*
X5571904Y-143191380D02*
X5571904Y-143429476D01*
X5333809Y-143334238D02*
X5571904Y-143429476D01*
X5810000Y-143334238D01*
X5429047Y-143619952D02*
X5571904Y-143429476D01*
X5714761Y-143619952D01*
X2476666Y-154097380D02*
X2143333Y-153621190D01*
X1905238Y-154097380D02*
X1905238Y-153097380D01*
X2286190Y-153097380D01*
X2381428Y-153145000D01*
X2429047Y-153192619D01*
X2476666Y-153287857D01*
X2476666Y-153430714D01*
X2429047Y-153525952D01*
X2381428Y-153573571D01*
X2286190Y-153621190D01*
X1905238Y-153621190D01*
X2905238Y-153573571D02*
X3238571Y-153573571D01*
X3381428Y-154097380D02*
X2905238Y-154097380D01*
X2905238Y-153097380D01*
X3381428Y-153097380D01*
X4143333Y-153573571D02*
X3809999Y-153573571D01*
X3809999Y-154097380D02*
X3809999Y-153097380D01*
X4286190Y-153097380D01*
X4810000Y-153097380D02*
X4810000Y-153335476D01*
X4571904Y-153240238D02*
X4810000Y-153335476D01*
X5048095Y-153240238D01*
X4667142Y-153525952D02*
X4810000Y-153335476D01*
X4952857Y-153525952D01*
X5571904Y-153097380D02*
X5571904Y-153335476D01*
X5333809Y-153240238D02*
X5571904Y-153335476D01*
X5810000Y-153240238D01*
X5429047Y-153525952D02*
X5571904Y-153335476D01*
X5714761Y-153525952D01*
%TD*%
M02*
