%TF.GenerationSoftware,KiCad,Pcbnew,(6.0.4)*%
%TF.CreationDate,2022-05-19T14:15:05+02:00*%
%TF.ProjectId,plate,706c6174-652e-46b6-9963-61645f706362,rev?*%
%TF.SameCoordinates,Original*%
%TF.FileFunction,Profile,NP*%
%FSLAX46Y46*%
G04 Gerber Fmt 4.6, Leading zero omitted, Abs format (unit mm)*
G04 Created by KiCad (PCBNEW (6.0.4)) date 2022-05-19 14:15:05*
%MOMM*%
%LPD*%
G01*
G04 APERTURE LIST*
%TA.AperFunction,Profile*%
%ADD10C,0.100000*%
%TD*%
%TA.AperFunction,Profile*%
%ADD11C,0.188976*%
%TD*%
%TA.AperFunction,Profile*%
%ADD12C,0.264582*%
%TD*%
G04 APERTURE END LIST*
D10*
X192793997Y-202329000D02*
X192800000Y-201579000D01*
D11*
X200818991Y-201579000D02*
X203788001Y-201579000D01*
D10*
X184612998Y-202329000D02*
X184600000Y-201579000D01*
D11*
X189493994Y-202329000D02*
X192793997Y-202329000D01*
D10*
X192800000Y-201579000D02*
X200818991Y-201579000D01*
X155288001Y-201579000D02*
X184600000Y-201579000D01*
X92912993Y-202329000D02*
X92940000Y-201590000D01*
X134142996Y-201579000D02*
X92940000Y-201590000D01*
D11*
X360075995Y-196878996D02*
X361599982Y-196878996D01*
X145762991Y-168528997D02*
X145762991Y-168528997D01*
D12*
X1788183Y-169771009D02*
X1385711Y-169376573D01*
D11*
X321975989Y-111379003D02*
X321975989Y-111379003D01*
D12*
X234149176Y-82029863D02*
X236097588Y-78273606D01*
D11*
X194518988Y-189049002D02*
X192793997Y-189049002D01*
D12*
X82644949Y-76120628D02*
X82432745Y-75926052D01*
X386249182Y-82029864D02*
X413103278Y-82029864D01*
D11*
X286319006Y-131679003D02*
X286319006Y-131679003D01*
X277248999Y-136704000D02*
X277248999Y-136704000D01*
X227012991Y-182528997D02*
X241012991Y-182528997D01*
X179100989Y-125379003D02*
X179100989Y-125379003D01*
X285401007Y-116079000D02*
X283875983Y-116079000D01*
D12*
X37358956Y-217338474D02*
X37753392Y-217740948D01*
D11*
X255301001Y-187579000D02*
X255301001Y-187579000D01*
X217200995Y-125379003D02*
X217200995Y-111379003D01*
X344551001Y-196878996D02*
X346075995Y-196878996D01*
X188625998Y-130429003D02*
X174625998Y-130429003D01*
X336551001Y-125379003D02*
X336551001Y-125379003D01*
X277248999Y-160503996D02*
X277248999Y-162229002D01*
X182887991Y-192278997D02*
X155288001Y-192278997D01*
X207676001Y-144428999D02*
X207676001Y-144428999D01*
X263324988Y-125149004D02*
X263324988Y-126129003D01*
X164812994Y-168528997D02*
X164812994Y-168528997D01*
X361599982Y-189049002D02*
X361599982Y-189049002D01*
X222250998Y-101567003D02*
X236250998Y-101567003D01*
X337801001Y-201348997D02*
X339525000Y-201348997D01*
X398401007Y-176528997D02*
X398401007Y-176528997D01*
X290426001Y-126129003D02*
X290426001Y-125149004D01*
D12*
X237358950Y-76523101D02*
X237753386Y-76120628D01*
D11*
X393931006Y-176528997D02*
X398401007Y-176528997D01*
D12*
X81975530Y-218310096D02*
X81729382Y-218489587D01*
D11*
X368349982Y-201348997D02*
X368349982Y-201348997D01*
X360075995Y-192278997D02*
X360075995Y-192278997D01*
X263324988Y-112849001D02*
X261600989Y-112849001D01*
X194518988Y-189049002D02*
X194518988Y-189049002D01*
X255587988Y-163479002D02*
X255587988Y-163479002D01*
X374651007Y-149479002D02*
X374651007Y-163479002D01*
X393931006Y-138429003D02*
X393931006Y-138429003D01*
X406230994Y-169778997D02*
X403000983Y-169778997D01*
X187913001Y-188128996D02*
X187913001Y-188128996D01*
X98137991Y-163479002D02*
X98137991Y-163479002D01*
D12*
X138422817Y-218310096D02*
X138668966Y-218489587D01*
D11*
X174625998Y-144428999D02*
X188625998Y-144428999D01*
X261600989Y-112849001D02*
X261600989Y-116079000D01*
X155575995Y-101567003D02*
X169575995Y-101567003D01*
X321975989Y-130429003D02*
X321975989Y-130429003D01*
D12*
X336674077Y-216487307D02*
X337000695Y-216919921D01*
D11*
X321975989Y-87538608D02*
X321975989Y-87538608D01*
X336974982Y-195079000D02*
X336974982Y-195079000D01*
X374651007Y-163479002D02*
X374651007Y-163479002D01*
D12*
X381975523Y-75551482D02*
X381729375Y-75371992D01*
D11*
X342825995Y-189049002D02*
X342825995Y-188128996D01*
X69850997Y-87567006D02*
X69850997Y-101567003D01*
D12*
X381470778Y-218663544D02*
X381199164Y-218831716D01*
D11*
X267207007Y-168528997D02*
X253206992Y-168528997D01*
X69562994Y-182528997D02*
X69562994Y-182528997D01*
X241301001Y-125379003D02*
X241301001Y-125379003D01*
X321975989Y-168528997D02*
X321975989Y-168528997D01*
X393931006Y-174803999D02*
X393931006Y-174803999D01*
X393931006Y-157204000D02*
X393931006Y-157204000D01*
D12*
X137753395Y-217740948D02*
X137965600Y-217935524D01*
D11*
X317212988Y-206342001D02*
X317212988Y-206342001D01*
D12*
X186249182Y-82029863D02*
X184300757Y-78273606D01*
X7294944Y-82029863D02*
X34149170Y-82029863D01*
D11*
X200818991Y-187579000D02*
X200818991Y-192278997D01*
D12*
X7294943Y-120880793D02*
X7294944Y-82029863D01*
X36097593Y-215587967D02*
X36374556Y-216042650D01*
X334149176Y-82029863D02*
X336097594Y-78273606D01*
D11*
X281719000Y-153954000D02*
X281719000Y-153954000D01*
X283875983Y-125379003D02*
X283875983Y-120679003D01*
X107662993Y-168528997D02*
X93662993Y-168528997D01*
X261600989Y-125149004D02*
X263324988Y-125149004D01*
X255301001Y-111379003D02*
X255301001Y-111379003D01*
X344551001Y-201348997D02*
X344551001Y-196878996D01*
X236250998Y-87567006D02*
X222250998Y-87567006D01*
X393700995Y-111379003D02*
X393700995Y-125379003D01*
X355600989Y-182528997D02*
X355600989Y-182528997D01*
X45750994Y-111379003D02*
X45750994Y-111379003D01*
X93375990Y-144428999D02*
X93375990Y-130429003D01*
X117475997Y-130429003D02*
X117475997Y-144428999D01*
X184150992Y-125379003D02*
X184150992Y-125379003D01*
X283875983Y-116079000D02*
X283875983Y-116079000D01*
X388651007Y-125379003D02*
X388651007Y-111379003D01*
X83850997Y-87567006D02*
X69850997Y-87567006D01*
X406230994Y-155479002D02*
X406230994Y-155479002D01*
D12*
X83397642Y-216919921D02*
X83039385Y-217338474D01*
X337753387Y-76120628D02*
X337965591Y-75926052D01*
D11*
X350551001Y-182528997D02*
X350551001Y-182528997D01*
D12*
X816564Y-168707152D02*
X637074Y-168461004D01*
D11*
X200818991Y-192278997D02*
X194518988Y-192278997D01*
X393931006Y-136704000D02*
X393931006Y-138429003D01*
X60037993Y-163479002D02*
X60037993Y-149479002D01*
X361599982Y-192278997D02*
X360075995Y-192278997D01*
X346075995Y-201579000D02*
X360075995Y-201579000D01*
X266625983Y-111929005D02*
X263324988Y-111929005D01*
X236250998Y-125379003D02*
X236250998Y-125379003D01*
X93662993Y-182528997D02*
X107662993Y-182528997D01*
X260350989Y-87567006D02*
X260350989Y-101567003D01*
X276268988Y-157204000D02*
X276268988Y-157204000D01*
D12*
X283039380Y-217338574D02*
X282644943Y-217741046D01*
D11*
X289548987Y-133404001D02*
X289548987Y-131679003D01*
X289548987Y-157204000D02*
X289548987Y-155479002D01*
X241301001Y-87567006D02*
X241301001Y-101567003D01*
D12*
X83039385Y-217338474D02*
X82644949Y-217740948D01*
X36674078Y-216487307D02*
X37000698Y-216919921D01*
X413103278Y-172980787D02*
X416859534Y-171032371D01*
D11*
X155575995Y-101567003D02*
X155575995Y-101567003D01*
X403000983Y-131679003D02*
X403000983Y-131679003D01*
X188625998Y-101567003D02*
X188625998Y-101567003D01*
X15081994Y-182528997D02*
X29081994Y-182528997D01*
X131475997Y-144428999D02*
X131475997Y-144428999D01*
X369600989Y-149479002D02*
X355600989Y-149479002D01*
X289548987Y-138429003D02*
X289548987Y-138429003D01*
X193676001Y-101567003D02*
X193676001Y-101567003D01*
X219868994Y-187579000D02*
X219868994Y-201579000D01*
X87762991Y-195079000D02*
X87762991Y-201348997D01*
X360075995Y-187579000D02*
X346075995Y-187579000D01*
X84137991Y-149479002D02*
X84137991Y-163479002D01*
D12*
X7294943Y-211831716D02*
X7294943Y-211831716D01*
D11*
X368349982Y-192278997D02*
X368349982Y-189049002D01*
X192793997Y-189049002D02*
X192793997Y-189049002D01*
D12*
X1788182Y-124090577D02*
X1385709Y-124485013D01*
D11*
X279401007Y-87567006D02*
X279401007Y-101567003D01*
X366625983Y-201348997D02*
X366625983Y-201348997D01*
X290469000Y-157204000D02*
X289548987Y-157204000D01*
X174337988Y-163479002D02*
X174337988Y-149479002D01*
X261600989Y-118879003D02*
X261600989Y-125149004D01*
X290469000Y-136704000D02*
X290469000Y-133404001D01*
X131475997Y-130429003D02*
X131475997Y-130429003D01*
X284163001Y-206342001D02*
X284163001Y-206342001D01*
X350551001Y-149479002D02*
X336551001Y-149479002D01*
X236250998Y-201579000D02*
X236250998Y-187579000D01*
X263324988Y-125149004D02*
X263324988Y-125149004D01*
X292975989Y-118879003D02*
X292975989Y-116079000D01*
X361599982Y-196878996D02*
X361599982Y-201348997D01*
X286319006Y-138429003D02*
X286319006Y-138429003D01*
D12*
X183039393Y-217338474D02*
X182644957Y-217740948D01*
X383724259Y-216487307D02*
X383397639Y-216919921D01*
D11*
X107662993Y-168528997D02*
X107662993Y-168528997D01*
X134142996Y-192278997D02*
X94637991Y-192278997D01*
D12*
X338188541Y-218125324D02*
X338422806Y-218310096D01*
D11*
X279112982Y-192342001D02*
X279112982Y-192342001D01*
X289548987Y-162229002D02*
X289548987Y-160503996D01*
X55275996Y-144428999D02*
X55275996Y-144428999D01*
X283518988Y-162229002D02*
X283518988Y-163053999D01*
X19843994Y-149479002D02*
X19843994Y-163479002D01*
X250538001Y-163479002D02*
X250538001Y-163479002D01*
X393931006Y-160503996D02*
X393931006Y-162229002D01*
X222250998Y-125379003D02*
X236250998Y-125379003D01*
X261600989Y-116079000D02*
X261600989Y-116079000D01*
X283875983Y-120679003D02*
X283875983Y-120679003D01*
X286319006Y-139954000D02*
X286319006Y-138429003D01*
X284163001Y-173291998D02*
X284163001Y-187291998D01*
D12*
X334149176Y-211831716D02*
X336097594Y-215587967D01*
X236674073Y-216487410D02*
X237000692Y-216920023D01*
D11*
X277018988Y-153954000D02*
X277018988Y-153954000D01*
X31462994Y-201579000D02*
X31462994Y-187579000D01*
D12*
X384023782Y-216042650D02*
X383724259Y-216487307D01*
D11*
X183862998Y-182528997D02*
X183862998Y-182528997D01*
X277248999Y-160503996D02*
X277248999Y-160503996D01*
X83850997Y-101567003D02*
X83850997Y-87567006D01*
X307975989Y-125379003D02*
X307975989Y-125379003D01*
X88612998Y-168528997D02*
X88612998Y-168528997D01*
X182887991Y-189049002D02*
X182887991Y-192278997D01*
X88900992Y-111379003D02*
X88900992Y-125379003D01*
D12*
X38668960Y-218489587D02*
X38927557Y-218663544D01*
D11*
X266625983Y-126129003D02*
X266625983Y-125149004D01*
X303212988Y-192342001D02*
X303212988Y-206342001D01*
X277248999Y-157204000D02*
X277248999Y-157204000D01*
D12*
X336097594Y-78273606D02*
X336374556Y-77818923D01*
D11*
X403000983Y-168954000D02*
X403000983Y-168954000D01*
X87762991Y-189049002D02*
X87762991Y-189049002D01*
X169862998Y-168528997D02*
X169862998Y-182528997D01*
X69850997Y-125379003D02*
X69850997Y-125379003D01*
D12*
X419581658Y-168707152D02*
X419761148Y-168461004D01*
D11*
X366625983Y-202329000D02*
X366625983Y-202329000D01*
X187913001Y-188128996D02*
X184612998Y-188128996D01*
X155575995Y-144428999D02*
X169575995Y-144428999D01*
X368349982Y-189049002D02*
X366625983Y-189049002D01*
X403000983Y-163053999D02*
X403000983Y-162229002D01*
X92912993Y-188128996D02*
X89487998Y-188128996D01*
X155288001Y-163479002D02*
X155288001Y-149479002D01*
X86937994Y-192278997D02*
X86937994Y-195079000D01*
D12*
X420103278Y-167930792D02*
X420103278Y-125930796D01*
D11*
X392950995Y-195303999D02*
X392950995Y-195303999D01*
X79087996Y-163479002D02*
X79087996Y-149479002D01*
X74612998Y-168528997D02*
X74612998Y-182528997D01*
X277248999Y-138429003D02*
X277248999Y-138429003D01*
D12*
X418191486Y-170129267D02*
X418610037Y-169771009D01*
D11*
X212437994Y-163479002D02*
X212437994Y-149479002D01*
X277248999Y-138429003D02*
X281719000Y-138429003D01*
D12*
X419581658Y-125154433D02*
X419761148Y-125400580D01*
D11*
X393700995Y-87538608D02*
X393700995Y-101538608D01*
X217200995Y-201579000D02*
X217200995Y-187579000D01*
X298163001Y-187291998D02*
X298163001Y-173291998D01*
X117187994Y-149479002D02*
X103187994Y-149479002D01*
X307975989Y-144428999D02*
X307975989Y-144428999D01*
X141000998Y-111379003D02*
X141000998Y-111379003D01*
X89487998Y-202329000D02*
X92912993Y-202329000D01*
X363325995Y-189049002D02*
X363325995Y-189049002D01*
X74612998Y-182528997D02*
X74612998Y-182528997D01*
X392950995Y-157204000D02*
X392950995Y-157204000D01*
X388651007Y-168528997D02*
X374651007Y-168528997D01*
D12*
X382209788Y-75736252D02*
X381975523Y-75551482D01*
X83039385Y-76523101D02*
X82644949Y-76120628D01*
D11*
X17462994Y-187579000D02*
X17462994Y-201579000D01*
X400200995Y-201153997D02*
X400200995Y-201153997D01*
D12*
X238188540Y-75736252D02*
X238422806Y-75551482D01*
D11*
X321975989Y-149479002D02*
X321975989Y-149479002D01*
X289548987Y-162229002D02*
X289548987Y-162229002D01*
D12*
X281729375Y-218489681D02*
X281470778Y-218663637D01*
X39199172Y-218831716D02*
X81199172Y-218831716D01*
D11*
X336974982Y-195079000D02*
X337801001Y-195079000D01*
X187913001Y-201348997D02*
X189493994Y-201348997D01*
X400200995Y-131679003D02*
X393931006Y-131679003D01*
D12*
X383397639Y-76941653D02*
X383039380Y-76523101D01*
D11*
X336551001Y-125379003D02*
X350551001Y-125379003D01*
X117475997Y-144428999D02*
X117475997Y-144428999D01*
X407700995Y-101538608D02*
X407700995Y-87538608D01*
X286319006Y-163053999D02*
X286319006Y-163053999D01*
X277248999Y-155479002D02*
X277248999Y-155479002D01*
X407151007Y-160503996D02*
X407151007Y-157204000D01*
X89487998Y-189049002D02*
X89487998Y-189049002D01*
X290426001Y-112849001D02*
X290426001Y-111929005D01*
D12*
X182432754Y-75926052D02*
X182209803Y-75736252D01*
D11*
X268350989Y-120679003D02*
X269875983Y-120679003D01*
X184150992Y-111379003D02*
X184150992Y-125379003D01*
X160051001Y-125379003D02*
X160051001Y-111379003D01*
D12*
X136674080Y-216487307D02*
X137000700Y-216919921D01*
D11*
X241301001Y-101567003D02*
X241301001Y-101567003D01*
D12*
X7294944Y-82029863D02*
X7294944Y-82029863D01*
D11*
X374650000Y-187579000D02*
X374650000Y-201579000D01*
X393931006Y-133404001D02*
X393931006Y-133404001D01*
X193387991Y-149479002D02*
X193387991Y-149479002D01*
X192793997Y-202329000D02*
X192793997Y-202329000D01*
X403000983Y-131679003D02*
X403000983Y-130854002D01*
X398401007Y-153954000D02*
X398401007Y-155479002D01*
X231487998Y-149479002D02*
X217487998Y-149479002D01*
X369600989Y-130429003D02*
X369600989Y-130429003D01*
X403000983Y-200329000D02*
X406230994Y-200329000D01*
D12*
X2639347Y-123405699D02*
X2206734Y-123732319D01*
D11*
X84137991Y-163479002D02*
X84137991Y-163479002D01*
X363325995Y-188128996D02*
X363325995Y-189049002D01*
X292975989Y-116079000D02*
X292151007Y-116079000D01*
X374651007Y-182528997D02*
X374651007Y-182528997D01*
X98137991Y-149479002D02*
X98137991Y-149479002D01*
X406230994Y-176528997D02*
X406230994Y-174803999D01*
X79087996Y-149479002D02*
X65087992Y-149479002D01*
D12*
X86249167Y-82029863D02*
X84300745Y-78273606D01*
D11*
X374651007Y-111379003D02*
X374651007Y-125379003D01*
D12*
X419207086Y-124697216D02*
X419396886Y-124920167D01*
X386249152Y-82029863D02*
X384300745Y-78273606D01*
D11*
X164812994Y-182528997D02*
X164812994Y-182528997D01*
D12*
X284023782Y-77818923D02*
X283724259Y-77374266D01*
X84300745Y-215587967D02*
X84023782Y-216042650D01*
D11*
X388651007Y-144428999D02*
X388651007Y-144428999D01*
X366625983Y-189049002D02*
X366625983Y-188128996D01*
X241012991Y-182528997D02*
X241012991Y-182528997D01*
X403000983Y-193579000D02*
X403000983Y-192053999D01*
D12*
X283724259Y-216487410D02*
X283397639Y-216920023D01*
D11*
X369600989Y-182528997D02*
X369600989Y-182528997D01*
X45750994Y-125379003D02*
X45750994Y-111379003D01*
X174625998Y-144428999D02*
X174625998Y-144428999D01*
X198150992Y-111379003D02*
X198150992Y-111379003D01*
X406230994Y-198604002D02*
X406230994Y-198604002D01*
X339525000Y-189049002D02*
X337801001Y-189049002D01*
X29081994Y-168528997D02*
X15081994Y-168528997D01*
X260775992Y-118879003D02*
X260775992Y-118879003D01*
X344551001Y-189049002D02*
X342825995Y-189049002D01*
X179100989Y-125379003D02*
X179100989Y-111379003D01*
X392950995Y-160503996D02*
X393931006Y-160503996D01*
X284163001Y-206342001D02*
X298163001Y-206342001D01*
D12*
X1385709Y-124485013D02*
X1191133Y-124697216D01*
D11*
X83850997Y-111379003D02*
X83850997Y-111379003D01*
X290469000Y-133404001D02*
X289548987Y-133404001D01*
X261600989Y-118879003D02*
X261600989Y-118879003D01*
X102900992Y-101567003D02*
X102900992Y-101567003D01*
X290426001Y-126129003D02*
X290426001Y-126129003D01*
X131762991Y-182528997D02*
X131762991Y-182528997D01*
X307975989Y-101538608D02*
X307975989Y-101538608D01*
X406230994Y-131679003D02*
X403000983Y-131679003D01*
X388651007Y-111379003D02*
X374651007Y-111379003D01*
X292975989Y-116079000D02*
X292975989Y-116079000D01*
D12*
X3538687Y-122829214D02*
X3084004Y-123106178D01*
D11*
X126999991Y-125379003D02*
X126999991Y-125379003D01*
X169575995Y-130429003D02*
X169575995Y-130429003D01*
X277018988Y-153954000D02*
X281719000Y-153954000D01*
X36512993Y-182528997D02*
X50512995Y-182528997D01*
X88900992Y-101567003D02*
X88900992Y-101567003D01*
X131475997Y-144428999D02*
X131475997Y-130429003D01*
X407700995Y-153954000D02*
X407700995Y-139954000D01*
X317212988Y-206342001D02*
X317212988Y-192342001D01*
X342825995Y-202329000D02*
X342825995Y-201348997D01*
X103187994Y-163479002D02*
X103187994Y-163479002D01*
X236250998Y-187579000D02*
X236250998Y-187579000D01*
X388651007Y-111379003D02*
X388651007Y-111379003D01*
D12*
X138668966Y-218489587D02*
X138927564Y-218663544D01*
X1191133Y-124697216D02*
X1001333Y-124920167D01*
X338422806Y-75551482D02*
X338668953Y-75371992D01*
D11*
X350551001Y-149479002D02*
X350551001Y-149479002D01*
X290469000Y-160503996D02*
X290469000Y-157204000D01*
X393700995Y-192053999D02*
X398401007Y-192053999D01*
X369600989Y-111379003D02*
X355600989Y-111379003D01*
X285401007Y-116079000D02*
X285401007Y-116079000D01*
D12*
X3084004Y-123106178D02*
X2639347Y-123405699D01*
D11*
X255301001Y-87567006D02*
X241301001Y-87567006D01*
X406230994Y-131679003D02*
X406230994Y-131679003D01*
D12*
X338668953Y-75371992D02*
X338927550Y-75198035D01*
D11*
X236250998Y-87567006D02*
X236250998Y-87567006D01*
X393931006Y-171503996D02*
X392950995Y-171503996D01*
X290426001Y-111929005D02*
X287125983Y-111929005D01*
X107949996Y-111379003D02*
X107949996Y-125379003D01*
X126712996Y-168528997D02*
X126712996Y-168528997D01*
X236250998Y-101567003D02*
X236250998Y-101567003D01*
D12*
X237000692Y-216920023D02*
X237358950Y-217338574D01*
D11*
X284163001Y-192342001D02*
X284163001Y-206342001D01*
X241012991Y-168528997D02*
X227012991Y-168528997D01*
X121949996Y-111379003D02*
X107949996Y-111379003D01*
X198150992Y-125379003D02*
X198150992Y-125379003D01*
X407700995Y-192053999D02*
X407700995Y-192053999D01*
X117475997Y-144428999D02*
X131475997Y-144428999D01*
X179387991Y-163479002D02*
X193387991Y-163479002D01*
X292151007Y-116079000D02*
X292151007Y-112849001D01*
X263324988Y-111929005D02*
X263324988Y-112849001D01*
X406230994Y-160503996D02*
X406230994Y-160503996D01*
X245775992Y-130429003D02*
X245775992Y-130429003D01*
X363325995Y-188128996D02*
X363325995Y-188128996D01*
X136237998Y-149479002D02*
X136237998Y-149479002D01*
X366625983Y-202329000D02*
X366625983Y-201348997D01*
X33843995Y-149479002D02*
X19843994Y-149479002D01*
X64800993Y-111379003D02*
X64800993Y-111379003D01*
X286319006Y-162229002D02*
X289548987Y-162229002D01*
X355600989Y-144428999D02*
X355600989Y-144428999D01*
D12*
X337358952Y-76523101D02*
X337753387Y-76120628D01*
D11*
X403000983Y-138429003D02*
X406230994Y-138429003D01*
D12*
X238668953Y-218489681D02*
X238927550Y-218663637D01*
D11*
X31462994Y-144428999D02*
X31462994Y-144428999D01*
X289548987Y-131679003D02*
X289548987Y-131679003D01*
X107949996Y-125379003D02*
X121949996Y-125379003D01*
X393700995Y-125379003D02*
X407700995Y-125379003D01*
X407151007Y-171503996D02*
X406230994Y-171503996D01*
D12*
X237965590Y-217935622D02*
X238188540Y-218125421D01*
X36097593Y-78273606D02*
X36374556Y-77818923D01*
X416859534Y-171032371D02*
X417314216Y-170755408D01*
D11*
X212725989Y-144428999D02*
X212725989Y-144428999D01*
X361599982Y-201348997D02*
X361599982Y-201348997D01*
X286319006Y-138429003D02*
X289548987Y-138429003D01*
X369600989Y-168528997D02*
X355600989Y-168528997D01*
X169575995Y-130429003D02*
X155575995Y-130429003D01*
X350551001Y-168528997D02*
X336551001Y-168528997D01*
D12*
X281470778Y-218663637D02*
X281199164Y-218831808D01*
X84023782Y-77818923D02*
X83724261Y-77374266D01*
D11*
X407700995Y-125379003D02*
X407700995Y-111379003D01*
X361599982Y-196878996D02*
X361599982Y-196878996D01*
X174625998Y-101567003D02*
X174625998Y-101567003D01*
X393931006Y-200329000D02*
X400200995Y-200329000D01*
X267207007Y-182528997D02*
X267207007Y-182528997D01*
X202913001Y-168528997D02*
X202913001Y-168528997D01*
X155288001Y-192278997D02*
X155288001Y-192278997D01*
X253206992Y-182528997D02*
X267207007Y-182528997D01*
X93375990Y-130429003D02*
X93375990Y-130429003D01*
X400200995Y-200329000D02*
X400200995Y-200329000D01*
X202913001Y-182528997D02*
X202913001Y-182528997D01*
X283875983Y-111379003D02*
X269875983Y-111379003D01*
X160337988Y-163479002D02*
X160337988Y-163479002D01*
D12*
X182644957Y-217740948D02*
X182432754Y-217935524D01*
D11*
X289548987Y-131679003D02*
X286319006Y-131679003D01*
X374651007Y-125379003D02*
X388651007Y-125379003D01*
X406230994Y-195303999D02*
X406230994Y-195303999D01*
X102900992Y-125379003D02*
X102900992Y-111379003D01*
X355600989Y-149479002D02*
X355600989Y-163479002D01*
X307975989Y-182528997D02*
X321975989Y-182528997D01*
X93375990Y-144428999D02*
X93375990Y-144428999D01*
X122237998Y-149479002D02*
X122237998Y-163479002D01*
X321975989Y-130429003D02*
X307975989Y-130429003D01*
X287125983Y-125149004D02*
X287125983Y-125149004D01*
X33843995Y-163479002D02*
X33843995Y-163479002D01*
X227012991Y-168528997D02*
X227012991Y-182528997D01*
D12*
X338668953Y-218489587D02*
X338927550Y-218663544D01*
D11*
X281719000Y-138429003D02*
X281719000Y-138429003D01*
X355600989Y-182528997D02*
X369600989Y-182528997D01*
X292151007Y-112849001D02*
X290426001Y-112849001D01*
X117187994Y-163479002D02*
X117187994Y-163479002D01*
X274350989Y-87567006D02*
X260350989Y-87567006D01*
X293401007Y-87567006D02*
X279401007Y-87567006D01*
X339525000Y-188128996D02*
X339525000Y-188128996D01*
X285401007Y-112849001D02*
X285401007Y-112849001D01*
X400200995Y-201153997D02*
X403000983Y-201153997D01*
D12*
X139199179Y-75029864D02*
X181199179Y-75029864D01*
D11*
X76706992Y-187579000D02*
X62706995Y-187579000D01*
D12*
X419935106Y-125659177D02*
X420103278Y-125930792D01*
X36374556Y-216042650D02*
X36674078Y-216487307D01*
X137965600Y-75926052D02*
X138188551Y-75736252D01*
D11*
X398401007Y-138429003D02*
X398401007Y-138429003D01*
X255301001Y-111379003D02*
X241301001Y-111379003D01*
X321975989Y-111379003D02*
X307975989Y-111379003D01*
X400200995Y-168954000D02*
X400200995Y-169778997D01*
X46037993Y-163479002D02*
X46037993Y-163479002D01*
X184612998Y-189049002D02*
X184612998Y-189049002D01*
X98425993Y-144428999D02*
X112425993Y-144428999D01*
X290426001Y-125149004D02*
X292151007Y-125149004D01*
X406230994Y-200329000D02*
X406230994Y-198604002D01*
X344551001Y-196878996D02*
X344551001Y-196878996D01*
X107949996Y-87567006D02*
X107949996Y-101567003D01*
X393700995Y-139954000D02*
X393700995Y-153954000D01*
X36512993Y-182528997D02*
X36512993Y-182528997D01*
X388651007Y-182528997D02*
X388651007Y-168528997D01*
X339525000Y-202329000D02*
X342825995Y-202329000D01*
X392950995Y-195303999D02*
X392950995Y-198604002D01*
X279401007Y-101567003D02*
X293401007Y-101567003D01*
D12*
X283397639Y-76941653D02*
X283039380Y-76523101D01*
D11*
X236250998Y-125379003D02*
X236250998Y-111379003D01*
X226725989Y-144428999D02*
X226725989Y-144428999D01*
X291018988Y-139954000D02*
X291018988Y-139954000D01*
X281719000Y-155479002D02*
X277248999Y-155479002D01*
X134142996Y-192278997D02*
X134142996Y-192278997D01*
X336551001Y-163479002D02*
X350551001Y-163479002D01*
X169575995Y-101567003D02*
X169575995Y-87567006D01*
X276268988Y-160503996D02*
X277248999Y-160503996D01*
X400200995Y-162229002D02*
X400200995Y-163053999D01*
X360075995Y-192278997D02*
X360075995Y-187579000D01*
X76706992Y-187579000D02*
X76706992Y-187579000D01*
X165100989Y-111379003D02*
X165100989Y-125379003D01*
X400200995Y-162229002D02*
X400200995Y-162229002D01*
D12*
X238422806Y-75551482D02*
X238668953Y-75371992D01*
D11*
X407151007Y-136704000D02*
X407151007Y-133404001D01*
X236538001Y-163479002D02*
X250538001Y-163479002D01*
X360075995Y-201579000D02*
X360075995Y-196878996D01*
D12*
X382432739Y-217935524D02*
X382209788Y-218125324D01*
D11*
X217200995Y-187579000D02*
X200818991Y-187579000D01*
X141000998Y-125379003D02*
X141000998Y-125379003D01*
X398401007Y-155479002D02*
X398401007Y-155479002D01*
X266625983Y-126129003D02*
X266625983Y-126129003D01*
D12*
X186249182Y-211831716D02*
X184300757Y-215587967D01*
D11*
X284163001Y-187291998D02*
X298163001Y-187291998D01*
X393931006Y-162229002D02*
X400200995Y-162229002D01*
X207676001Y-130429003D02*
X207676001Y-130429003D01*
X403000983Y-176528997D02*
X406230994Y-176528997D01*
X388651007Y-163479002D02*
X388651007Y-149479002D01*
X174625998Y-130429003D02*
X174625998Y-144428999D01*
X269587988Y-149479002D02*
X269587988Y-149479002D01*
X187913001Y-201348997D02*
X187913001Y-201348997D01*
X285401007Y-125149004D02*
X285401007Y-125149004D01*
D12*
X281975523Y-218310191D02*
X281729375Y-218489681D01*
D11*
X289548987Y-133404001D02*
X289548987Y-133404001D01*
X192793997Y-188128996D02*
X189493994Y-188128996D01*
X112425993Y-130429003D02*
X112425993Y-130429003D01*
X112712996Y-182528997D02*
X112712996Y-182528997D01*
X283875983Y-120679003D02*
X285401007Y-120679003D01*
D12*
X418191486Y-123732319D02*
X418610037Y-124090577D01*
D11*
X286319006Y-139954000D02*
X286319006Y-139954000D01*
X279112982Y-206342001D02*
X279112982Y-206342001D01*
X92912993Y-188128996D02*
X92912993Y-188128996D01*
X64800993Y-125379003D02*
X64800993Y-125379003D01*
X217200995Y-187579000D02*
X217200995Y-187579000D01*
D12*
X238668953Y-75371992D02*
X238927550Y-75198035D01*
D11*
X236250998Y-187579000D02*
X219868994Y-187579000D01*
X321975989Y-101538608D02*
X321975989Y-87538608D01*
X369600989Y-111379003D02*
X369600989Y-111379003D01*
X79375990Y-144428999D02*
X93375990Y-144428999D01*
X289548987Y-155479002D02*
X289548987Y-155479002D01*
X62706995Y-187579000D02*
X62706995Y-201579000D01*
D12*
X3538689Y-171032371D02*
X3084006Y-170755408D01*
X463116Y-125659177D02*
X294944Y-125930792D01*
X816562Y-125154433D02*
X637072Y-125400580D01*
D11*
X287125983Y-112849001D02*
X285401007Y-112849001D01*
X321975989Y-182528997D02*
X321975989Y-168528997D01*
X141288001Y-163479002D02*
X141288001Y-163479002D01*
X337801001Y-201348997D02*
X337801001Y-201348997D01*
X150525992Y-87567006D02*
X150525992Y-87567006D01*
X368349982Y-189049002D02*
X368349982Y-189049002D01*
X188913001Y-182528997D02*
X202913001Y-182528997D01*
X406230994Y-157204000D02*
X406230994Y-157204000D01*
X222250998Y-101567003D02*
X222250998Y-101567003D01*
X407700995Y-192053999D02*
X407700995Y-178053999D01*
X398401007Y-153954000D02*
X398401007Y-153954000D01*
X398401007Y-178053999D02*
X398401007Y-178053999D01*
X250538001Y-149479002D02*
X236538001Y-149479002D01*
X403000983Y-201153997D02*
X403000983Y-201153997D01*
X55275996Y-187579000D02*
X41275996Y-187579000D01*
X131762991Y-168528997D02*
X131762991Y-182528997D01*
D12*
X384300745Y-78273606D02*
X384023782Y-77818923D01*
D11*
X286319006Y-153954000D02*
X291018988Y-153954000D01*
X126999991Y-125379003D02*
X141000998Y-125379003D01*
D12*
X281729375Y-75371992D02*
X281470778Y-75198035D01*
X184023793Y-77818923D02*
X183724271Y-77374266D01*
D11*
X198437994Y-163479002D02*
X198437994Y-163479002D01*
X290469000Y-136704000D02*
X290469000Y-136704000D01*
X393700995Y-178053999D02*
X393700995Y-192053999D01*
X393700995Y-125379003D02*
X393700995Y-125379003D01*
X393931006Y-198604002D02*
X393931006Y-200329000D01*
X293401007Y-101567003D02*
X293401007Y-87567006D01*
X83850997Y-125379003D02*
X83850997Y-125379003D01*
X321975989Y-163479002D02*
X321975989Y-163479002D01*
X12700994Y-101567003D02*
X12700994Y-101567003D01*
X226725989Y-130429003D02*
X226725989Y-130429003D01*
D12*
X183039393Y-76523101D02*
X182644957Y-76120628D01*
D11*
X350551001Y-125379003D02*
X350551001Y-111379003D01*
X268350989Y-112849001D02*
X268350989Y-112849001D01*
X289548987Y-138429003D02*
X289548987Y-136704000D01*
X388651007Y-182528997D02*
X388651007Y-182528997D01*
D12*
X337965591Y-75926052D02*
X338188541Y-75736252D01*
D11*
X260775992Y-116079000D02*
X260775992Y-116079000D01*
D12*
X336374556Y-77818923D02*
X336674077Y-77374266D01*
D11*
X260775992Y-116079000D02*
X260775992Y-118879003D01*
X398401007Y-192053999D02*
X398401007Y-193579000D01*
X388651007Y-163479002D02*
X388651007Y-163479002D01*
X89487998Y-202329000D02*
X89487998Y-202329000D01*
X141000998Y-111379003D02*
X126999991Y-111379003D01*
D12*
X238927550Y-218663637D02*
X239199164Y-218831808D01*
D11*
X263324988Y-126129003D02*
X263324988Y-126129003D01*
X269587988Y-163479002D02*
X269587988Y-163479002D01*
X336551001Y-168528997D02*
X336551001Y-182528997D01*
X26700993Y-87567006D02*
X12700994Y-87567006D01*
X12700994Y-87567006D02*
X12700994Y-101567003D01*
D12*
X236374551Y-77818923D02*
X236674073Y-77374266D01*
D11*
X290426001Y-125149004D02*
X290426001Y-125149004D01*
X31462994Y-187579000D02*
X31462994Y-187579000D01*
X26700993Y-87567006D02*
X26700993Y-87567006D01*
X86937994Y-195079000D02*
X86937994Y-195079000D01*
X286319006Y-162229002D02*
X286319006Y-162229002D01*
X291018988Y-153954000D02*
X291018988Y-139954000D01*
D12*
X281470778Y-75198035D02*
X281199164Y-75029864D01*
D11*
X89487998Y-189049002D02*
X87762991Y-189049002D01*
X277018988Y-139954000D02*
X277018988Y-153954000D01*
X188625998Y-144428999D02*
X188625998Y-144428999D01*
X374651007Y-163479002D02*
X388651007Y-163479002D01*
X255587988Y-163479002D02*
X269587988Y-163479002D01*
X200818991Y-187579000D02*
X200818991Y-187579000D01*
X269587988Y-149479002D02*
X255587988Y-149479002D01*
D12*
X286249152Y-211831808D02*
X284300745Y-215588070D01*
D11*
X266625983Y-111929005D02*
X266625983Y-111929005D01*
X290469000Y-157204000D02*
X290469000Y-157204000D01*
X317212988Y-192342001D02*
X303212988Y-192342001D01*
D12*
X237965590Y-75926052D02*
X238188540Y-75736252D01*
D11*
X212725989Y-130429003D02*
X212725989Y-144428999D01*
X250538001Y-149479002D02*
X250538001Y-149479002D01*
X146051001Y-111379003D02*
X146051001Y-125379003D01*
X264824988Y-144428999D02*
X264824988Y-130429003D01*
X406230994Y-169778997D02*
X406230994Y-169778997D01*
X350551001Y-168528997D02*
X350551001Y-168528997D01*
X136525992Y-101567003D02*
X150525992Y-101567003D01*
X276268988Y-136704000D02*
X276268988Y-136704000D01*
X98137991Y-149479002D02*
X84137991Y-149479002D01*
X188625998Y-87567006D02*
X188625998Y-87567006D01*
X406230994Y-136704000D02*
X407151007Y-136704000D01*
X93662993Y-182528997D02*
X93662993Y-182528997D01*
X321975989Y-163479002D02*
X321975989Y-149479002D01*
X84137991Y-163479002D02*
X98137991Y-163479002D01*
X212437994Y-149479002D02*
X212437994Y-149479002D01*
X274350989Y-101567003D02*
X274350989Y-101567003D01*
X126712996Y-182528997D02*
X126712996Y-182528997D01*
D12*
X138188551Y-218125324D02*
X138422817Y-218310096D01*
D11*
X350551001Y-144428999D02*
X350551001Y-144428999D01*
X285401007Y-112849001D02*
X285401007Y-116079000D01*
X26700993Y-111379003D02*
X12700994Y-111379003D01*
X392950995Y-198604002D02*
X392950995Y-198604002D01*
X277248999Y-131679003D02*
X277248999Y-131679003D01*
D12*
X34149170Y-211831716D02*
X7294943Y-211831716D01*
D11*
X393931006Y-133404001D02*
X392950995Y-133404001D01*
X337801001Y-195079000D02*
X337801001Y-201348997D01*
X403000983Y-139954000D02*
X403000983Y-138429003D01*
X406230994Y-198604002D02*
X407151007Y-198604002D01*
X393931006Y-171503996D02*
X393931006Y-171503996D01*
X86937994Y-195079000D02*
X87762991Y-195079000D01*
X41275996Y-201579000D02*
X55275996Y-201579000D01*
X368349982Y-192278997D02*
X368349982Y-192278997D01*
X267207007Y-182528997D02*
X267207007Y-168528997D01*
D12*
X238188540Y-218125421D02*
X238422806Y-218310191D01*
D11*
X17462994Y-130429003D02*
X17462994Y-144428999D01*
D12*
X419012510Y-124485013D02*
X419207086Y-124697216D01*
D11*
X361599982Y-201348997D02*
X363325995Y-201348997D01*
D12*
X136374559Y-77818923D02*
X136674080Y-77374266D01*
D11*
X88612998Y-168528997D02*
X74612998Y-168528997D01*
D12*
X381729375Y-218489587D02*
X381470778Y-218663544D01*
X282432739Y-75926052D02*
X282209788Y-75736252D01*
D11*
X268350989Y-116079000D02*
X268350989Y-112849001D01*
X15081994Y-168528997D02*
X15081994Y-182528997D01*
X55562994Y-182528997D02*
X69562994Y-182528997D01*
X400200995Y-200329000D02*
X400200995Y-201153997D01*
X366625983Y-201348997D02*
X368349982Y-201348997D01*
X403000983Y-193579000D02*
X403000983Y-193579000D01*
X393931006Y-176528997D02*
X393931006Y-176528997D01*
X407700995Y-101538608D02*
X407700995Y-101538608D01*
X141288001Y-163479002D02*
X155288001Y-163479002D01*
X169575995Y-144428999D02*
X169575995Y-144428999D01*
D12*
X184023793Y-216042650D02*
X183724271Y-216487307D01*
D11*
X155288001Y-192278997D02*
X155288001Y-187579000D01*
X269875983Y-111379003D02*
X269875983Y-116079000D01*
X339525000Y-201348997D02*
X339525000Y-202329000D01*
X26700993Y-111379003D02*
X26700993Y-111379003D01*
X203788001Y-201579000D02*
X203788001Y-202329000D01*
X184612998Y-189049002D02*
X182887991Y-189049002D01*
X350551001Y-163479002D02*
X350551001Y-149479002D01*
X89487998Y-201348997D02*
X89487998Y-201348997D01*
X398401007Y-178053999D02*
X393700995Y-178053999D01*
X55275996Y-201579000D02*
X55275996Y-187579000D01*
X269875983Y-120679003D02*
X269875983Y-120679003D01*
X93662993Y-168528997D02*
X93662993Y-182528997D01*
D12*
X381470778Y-75198035D02*
X381199164Y-75029864D01*
D11*
X406230994Y-162229002D02*
X406230994Y-160503996D01*
X276268988Y-133404001D02*
X276268988Y-133404001D01*
X388650000Y-187579000D02*
X388650000Y-187579000D01*
X31462994Y-144428999D02*
X31462994Y-130429003D01*
X268350989Y-125149004D02*
X268350989Y-120679003D01*
X290469000Y-160503996D02*
X290469000Y-160503996D01*
X89487998Y-188128996D02*
X89487998Y-188128996D01*
D12*
X2639349Y-170455887D02*
X2206735Y-170129267D01*
D11*
X277248999Y-162229002D02*
X283518988Y-162229002D01*
D12*
X384023782Y-77818923D02*
X383724259Y-77374266D01*
D11*
X289548987Y-155479002D02*
X286319006Y-155479002D01*
X260350989Y-101567003D02*
X260350989Y-101567003D01*
X388651007Y-130429003D02*
X374651007Y-130429003D01*
X321975989Y-149479002D02*
X307975989Y-149479002D01*
X69850997Y-125379003D02*
X83850997Y-125379003D01*
X17462994Y-144428999D02*
X31462994Y-144428999D01*
X393700995Y-178053999D02*
X393700995Y-178053999D01*
X74325995Y-130429003D02*
X60325995Y-130429003D01*
X374650000Y-201579000D02*
X374650000Y-201579000D01*
X355600989Y-125379003D02*
X369600989Y-125379003D01*
D12*
X134149176Y-211831716D02*
X136097596Y-215587967D01*
X1385711Y-169376573D02*
X1191135Y-169164369D01*
D11*
X150525992Y-144428999D02*
X150525992Y-130429003D01*
X392950995Y-171503996D02*
X392950995Y-174803999D01*
X403000983Y-192053999D02*
X407700995Y-192053999D01*
X289548987Y-160503996D02*
X289548987Y-160503996D01*
X406230994Y-171503996D02*
X406230994Y-169778997D01*
X350551001Y-163479002D02*
X350551001Y-163479002D01*
X260775992Y-118879003D02*
X261600989Y-118879003D01*
X292151007Y-118879003D02*
X292975989Y-118879003D01*
D12*
X136374559Y-216042650D02*
X136674080Y-216487307D01*
D11*
X398401007Y-138429003D02*
X398401007Y-139954000D01*
D12*
X184300757Y-215587967D02*
X184023793Y-216042650D01*
D11*
X160051001Y-111379003D02*
X146051001Y-111379003D01*
X87762991Y-195079000D02*
X87762991Y-195079000D01*
D12*
X284300745Y-215588070D02*
X284023782Y-216042753D01*
D11*
X255301001Y-125379003D02*
X255301001Y-111379003D01*
X221962988Y-168528997D02*
X221962988Y-168528997D01*
X321975989Y-144428999D02*
X321975989Y-130429003D01*
X74325995Y-144428999D02*
X74325995Y-130429003D01*
X355600989Y-125379003D02*
X355600989Y-125379003D01*
X287125983Y-111929005D02*
X287125983Y-111929005D01*
X406230994Y-136704000D02*
X406230994Y-136704000D01*
X94637991Y-192278997D02*
X94637991Y-189049002D01*
D12*
X413103278Y-82029864D02*
X413103278Y-120880796D01*
X282432739Y-217935622D02*
X282209788Y-218125421D01*
D11*
X236250998Y-111379003D02*
X222250998Y-111379003D01*
X226725989Y-130429003D02*
X212725989Y-130429003D01*
X203788001Y-202329000D02*
X207087988Y-202329000D01*
D12*
X7294944Y-120880793D02*
X3538687Y-122829214D01*
D11*
X145762991Y-182528997D02*
X145762991Y-168528997D01*
X207087988Y-202329000D02*
X207087988Y-201579000D01*
X393931006Y-198604002D02*
X393931006Y-198604002D01*
X188913001Y-168528997D02*
X188913001Y-182528997D01*
X155288001Y-149479002D02*
X155288001Y-149479002D01*
X393700995Y-101538608D02*
X393700995Y-101538608D01*
X393931006Y-162229002D02*
X393931006Y-162229002D01*
X369600989Y-144428999D02*
X369600989Y-130429003D01*
D12*
X86249167Y-82029864D02*
X134149176Y-82029864D01*
D11*
X103187994Y-149479002D02*
X103187994Y-163479002D01*
X269875983Y-116079000D02*
X269875983Y-116079000D01*
D12*
X283039380Y-76523101D02*
X282644943Y-76120628D01*
D11*
X50800993Y-87567006D02*
X50800993Y-101567003D01*
X392950995Y-160503996D02*
X392950995Y-160503996D01*
X202913001Y-168528997D02*
X188913001Y-168528997D01*
X255301001Y-87567006D02*
X255301001Y-87567006D01*
X134142996Y-201579000D02*
X134142996Y-201579000D01*
X269875983Y-125379003D02*
X269875983Y-125379003D01*
D12*
X82432745Y-75926052D02*
X82209795Y-75736252D01*
D11*
X283518988Y-131679003D02*
X283518988Y-131679003D01*
X346075995Y-192278997D02*
X346075995Y-192278997D01*
X285401007Y-120679003D02*
X285401007Y-120679003D01*
X65087992Y-149479002D02*
X65087992Y-163479002D01*
X217487998Y-163479002D02*
X231487998Y-163479002D01*
X231487998Y-163479002D02*
X231487998Y-149479002D01*
D12*
X383039380Y-217338474D02*
X382644943Y-217740948D01*
X81729382Y-218489587D02*
X81470786Y-218663544D01*
D11*
X392950995Y-133404001D02*
X392950995Y-133404001D01*
D12*
X38927557Y-218663544D02*
X39199172Y-218831716D01*
D11*
X393931006Y-193579000D02*
X393931006Y-193579000D01*
X279401007Y-101567003D02*
X279401007Y-101567003D01*
X336551001Y-144428999D02*
X336551001Y-144428999D01*
X307975989Y-163479002D02*
X321975989Y-163479002D01*
X336551001Y-149479002D02*
X336551001Y-163479002D01*
X203788001Y-201579000D02*
X203788001Y-201579000D01*
X255301001Y-187579000D02*
X241301001Y-187579000D01*
X41275996Y-144428999D02*
X41275996Y-144428999D01*
X393931006Y-138429003D02*
X398401007Y-138429003D01*
X79087996Y-149479002D02*
X79087996Y-149479002D01*
X102900992Y-125379003D02*
X102900992Y-125379003D01*
X98425993Y-144428999D02*
X98425993Y-144428999D01*
X207962988Y-168528997D02*
X207962988Y-182528997D01*
X207676001Y-101567003D02*
X207676001Y-87567006D01*
X150525992Y-87567006D02*
X136525992Y-87567006D01*
X286319006Y-155479002D02*
X286319006Y-153954000D01*
D12*
X382432739Y-75926052D02*
X382209788Y-75736252D01*
D11*
X361599982Y-192278997D02*
X361599982Y-192278997D01*
X112425993Y-130429003D02*
X98425993Y-130429003D01*
X388650000Y-201579000D02*
X388650000Y-201579000D01*
X292151007Y-116079000D02*
X292151007Y-116079000D01*
D12*
X382209788Y-218125324D02*
X381975523Y-218310096D01*
D11*
X283518988Y-163053999D02*
X283518988Y-163053999D01*
X277248999Y-133404001D02*
X276268988Y-133404001D01*
D12*
X284300745Y-78273606D02*
X284023782Y-77818923D01*
D11*
X276268988Y-157204000D02*
X276268988Y-160503996D01*
X321975989Y-144428999D02*
X321975989Y-144428999D01*
X406230994Y-133404001D02*
X406230994Y-133404001D01*
D12*
X282644943Y-76120628D02*
X282432739Y-75926052D01*
D11*
X76706992Y-201579000D02*
X76706992Y-201579000D01*
D12*
X337358952Y-217338474D02*
X337753387Y-217740948D01*
D11*
X268350989Y-120679003D02*
X268350989Y-120679003D01*
D12*
X237753386Y-217741046D02*
X237965590Y-217935622D01*
D11*
X79087996Y-163479002D02*
X79087996Y-163479002D01*
X255301001Y-125379003D02*
X255301001Y-125379003D01*
X112712996Y-168528997D02*
X112712996Y-182528997D01*
X253206992Y-168528997D02*
X253206992Y-182528997D01*
X207676001Y-87567006D02*
X193676001Y-87567006D01*
D12*
X286249152Y-82029864D02*
X334149176Y-82029864D01*
D11*
X155575995Y-144428999D02*
X155575995Y-144428999D01*
X342825995Y-202329000D02*
X342825995Y-202329000D01*
D12*
X416859534Y-122829214D02*
X417314216Y-123106178D01*
D11*
X183862998Y-168528997D02*
X183862998Y-168528997D01*
X136237998Y-163479002D02*
X136237998Y-149479002D01*
X398401007Y-176528997D02*
X398401007Y-178053999D01*
X281719000Y-138429003D02*
X281719000Y-139954000D01*
X363325995Y-201348997D02*
X363325995Y-202329000D01*
X198150992Y-111379003D02*
X184150992Y-111379003D01*
D12*
X37753392Y-217740948D02*
X37965596Y-217935524D01*
D11*
X65087992Y-163479002D02*
X79087996Y-163479002D01*
X174625998Y-101567003D02*
X188625998Y-101567003D01*
X350551001Y-111379003D02*
X336551001Y-111379003D01*
X342825995Y-201348997D02*
X342825995Y-201348997D01*
X92912993Y-189049002D02*
X92912993Y-188128996D01*
D12*
X419761148Y-125400580D02*
X419935106Y-125659177D01*
D11*
X269875983Y-116079000D02*
X268350989Y-116079000D01*
X406230994Y-195303999D02*
X406230994Y-193579000D01*
X160051001Y-111379003D02*
X160051001Y-111379003D01*
X74325995Y-144428999D02*
X74325995Y-144428999D01*
X400200995Y-169778997D02*
X393931006Y-169778997D01*
X388650000Y-187579000D02*
X374650000Y-187579000D01*
X393700995Y-153954000D02*
X393700995Y-153954000D01*
X207676001Y-101567003D02*
X207676001Y-101567003D01*
X64800993Y-101567003D02*
X64800993Y-87567006D01*
D12*
X237000692Y-76941653D02*
X237358950Y-76523101D01*
D11*
X360075995Y-187579000D02*
X360075995Y-187579000D01*
X31750994Y-125379003D02*
X45750994Y-125379003D01*
X45750994Y-125379003D02*
X45750994Y-125379003D01*
X374651007Y-144428999D02*
X374651007Y-144428999D01*
X392950995Y-136704000D02*
X392950995Y-136704000D01*
X403000983Y-155479002D02*
X403000983Y-153954000D01*
X263324988Y-112849001D02*
X263324988Y-112849001D01*
X221962988Y-168528997D02*
X207962988Y-168528997D01*
X281719000Y-139954000D02*
X281719000Y-139954000D01*
D12*
X181470793Y-218663544D02*
X181199179Y-218831716D01*
D11*
X369600989Y-144428999D02*
X369600989Y-144428999D01*
X202913001Y-182528997D02*
X202913001Y-168528997D01*
X212437994Y-149479002D02*
X198437994Y-149479002D01*
X388651007Y-149479002D02*
X374651007Y-149479002D01*
X368349982Y-195079000D02*
X368349982Y-195079000D01*
X245775992Y-130429003D02*
X231775992Y-130429003D01*
X283518988Y-131679003D02*
X277248999Y-131679003D01*
X255301001Y-201579000D02*
X255301001Y-201579000D01*
X207087988Y-201579000D02*
X207087988Y-201579000D01*
D12*
X238927550Y-75198035D02*
X239199164Y-75029864D01*
D11*
X219868994Y-201579000D02*
X236250998Y-201579000D01*
D12*
X84023782Y-216042650D02*
X83724261Y-216487307D01*
D11*
X261600989Y-112849001D02*
X261600989Y-112849001D01*
X64800993Y-87567006D02*
X50800993Y-87567006D01*
X88612998Y-182528997D02*
X88612998Y-182528997D01*
X87762991Y-189049002D02*
X87762991Y-192278997D01*
X279112982Y-192342001D02*
X265112982Y-192342001D01*
X183862998Y-168528997D02*
X169862998Y-168528997D01*
X136237998Y-163479002D02*
X136237998Y-163479002D01*
X277248999Y-133404001D02*
X277248999Y-133404001D01*
X107662993Y-182528997D02*
X107662993Y-182528997D01*
X179100989Y-111379003D02*
X165100989Y-111379003D01*
X407700995Y-87538608D02*
X393700995Y-87538608D01*
X406230994Y-138429003D02*
X406230994Y-136704000D01*
X93375990Y-130429003D02*
X79375990Y-130429003D01*
X150812994Y-182528997D02*
X164812994Y-182528997D01*
X17462994Y-144428999D02*
X17462994Y-144428999D01*
D12*
X83397642Y-76941653D02*
X83039385Y-76523101D01*
D11*
X31750994Y-125379003D02*
X31750994Y-125379003D01*
X169575995Y-101567003D02*
X169575995Y-101567003D01*
D12*
X637072Y-125400580D02*
X463116Y-125659177D01*
D11*
X407151007Y-136704000D02*
X407151007Y-136704000D01*
X276268988Y-160503996D02*
X276268988Y-160503996D01*
X12700994Y-125379003D02*
X12700994Y-125379003D01*
X266625983Y-112849001D02*
X266625983Y-112849001D01*
X403000983Y-153954000D02*
X407700995Y-153954000D01*
X150812994Y-182528997D02*
X150812994Y-182528997D01*
X41275996Y-144428999D02*
X55275996Y-144428999D01*
X192793997Y-188128996D02*
X192793997Y-188128996D01*
X33843995Y-163479002D02*
X33843995Y-149479002D01*
X360075995Y-196878996D02*
X360075995Y-196878996D01*
X88900992Y-87567006D02*
X88900992Y-101567003D01*
X406230994Y-193579000D02*
X403000983Y-193579000D01*
X150812994Y-168528997D02*
X150812994Y-182528997D01*
X407151007Y-195303999D02*
X407151007Y-195303999D01*
X41275996Y-201579000D02*
X41275996Y-201579000D01*
X12700994Y-111379003D02*
X12700994Y-125379003D01*
X289548987Y-136704000D02*
X289548987Y-136704000D01*
X50800993Y-125379003D02*
X50800993Y-125379003D01*
X55562994Y-182528997D02*
X55562994Y-182528997D01*
X241012991Y-182528997D02*
X241012991Y-168528997D01*
X69562994Y-168528997D02*
X69562994Y-168528997D01*
X165100989Y-125379003D02*
X179100989Y-125379003D01*
X303212988Y-206342001D02*
X317212988Y-206342001D01*
D12*
X386249152Y-211831716D02*
X384300745Y-215587967D01*
D11*
X174337988Y-149479002D02*
X160337988Y-149479002D01*
D12*
X381975523Y-218310096D02*
X381729375Y-218489587D01*
D11*
X253206992Y-182528997D02*
X253206992Y-182528997D01*
X346075995Y-201579000D02*
X346075995Y-201579000D01*
X264824988Y-130429003D02*
X264824988Y-130429003D01*
X336551001Y-182528997D02*
X336551001Y-182528997D01*
X207676001Y-144428999D02*
X207676001Y-130429003D01*
X31462994Y-130429003D02*
X31462994Y-130429003D01*
X406230994Y-176528997D02*
X406230994Y-176528997D01*
X193676001Y-101567003D02*
X207676001Y-101567003D01*
X12700994Y-101567003D02*
X26700993Y-101567003D01*
X117187994Y-149479002D02*
X117187994Y-149479002D01*
D12*
X86249167Y-211831716D02*
X84300745Y-215587967D01*
D11*
X79375990Y-144428999D02*
X79375990Y-144428999D01*
D12*
X419761148Y-168461004D02*
X419935106Y-168202406D01*
X337965591Y-217935524D02*
X338188541Y-218125324D01*
D11*
X342825995Y-188128996D02*
X342825995Y-188128996D01*
X241012991Y-168528997D02*
X241012991Y-168528997D01*
X267207007Y-168528997D02*
X267207007Y-168528997D01*
D12*
X238422806Y-218310191D02*
X238668953Y-218489681D01*
X381729375Y-75371992D02*
X381470778Y-75198035D01*
D11*
X236250998Y-101567003D02*
X236250998Y-87567006D01*
D12*
X237358950Y-217338574D02*
X237753386Y-217741046D01*
X339199164Y-218831716D02*
X381199164Y-218831716D01*
X39199172Y-75029864D02*
X81199172Y-75029864D01*
D11*
X369600989Y-182528997D02*
X369600989Y-168528997D01*
X393700995Y-139954000D02*
X393700995Y-139954000D01*
D12*
X139199179Y-218831716D02*
X181199179Y-218831716D01*
X186249167Y-82029864D02*
X234149176Y-82029864D01*
D11*
X187913001Y-202329000D02*
X187913001Y-202329000D01*
X121949996Y-101567003D02*
X121949996Y-101567003D01*
X369600989Y-163479002D02*
X369600989Y-149479002D01*
X164812994Y-168528997D02*
X150812994Y-168528997D01*
X283875983Y-116079000D02*
X283875983Y-111379003D01*
X403000983Y-153954000D02*
X403000983Y-153954000D01*
X265112982Y-192342001D02*
X265112982Y-206342001D01*
X400200995Y-169778997D02*
X400200995Y-169778997D01*
X339525000Y-189049002D02*
X339525000Y-189049002D01*
X250538001Y-163479002D02*
X250538001Y-149479002D01*
X293401007Y-87567006D02*
X293401007Y-87567006D01*
X407151007Y-157204000D02*
X407151007Y-157204000D01*
X277248999Y-162229002D02*
X277248999Y-162229002D01*
X281719000Y-139954000D02*
X277018988Y-139954000D01*
X307975989Y-144428999D02*
X321975989Y-144428999D01*
D12*
X7294943Y-211831716D02*
X7294943Y-172980795D01*
D11*
X336551001Y-182528997D02*
X350551001Y-182528997D01*
D12*
X136097596Y-215587967D02*
X136374559Y-216042650D01*
D11*
X19843994Y-163479002D02*
X33843995Y-163479002D01*
X107949996Y-101567003D02*
X107949996Y-101567003D01*
X392950995Y-136704000D02*
X393931006Y-136704000D01*
D12*
X338188541Y-75736252D02*
X338422806Y-75551482D01*
X382644943Y-76120628D02*
X382432739Y-75926052D01*
X336674077Y-77374266D02*
X337000695Y-76941653D01*
D11*
X292975989Y-118879003D02*
X292975989Y-118879003D01*
D12*
X337753387Y-217740948D02*
X337965591Y-217935524D01*
D11*
X241301001Y-125379003D02*
X255301001Y-125379003D01*
X342825995Y-188128996D02*
X339525000Y-188128996D01*
D12*
X382644943Y-217740948D02*
X382432739Y-217935524D01*
D11*
X193387991Y-149479002D02*
X179387991Y-149479002D01*
X286319006Y-130854002D02*
X283518988Y-130854002D01*
X407700995Y-111379003D02*
X393700995Y-111379003D01*
X289548987Y-157204000D02*
X289548987Y-157204000D01*
X339525000Y-201348997D02*
X339525000Y-201348997D01*
D12*
X236374551Y-216042753D02*
X236674073Y-216487410D01*
D11*
X307975989Y-182528997D02*
X307975989Y-182528997D01*
D12*
X337000695Y-76941653D02*
X337358952Y-76523101D01*
D11*
X277248999Y-136704000D02*
X277248999Y-138429003D01*
X245775992Y-144428999D02*
X245775992Y-144428999D01*
D12*
X182209803Y-218125324D02*
X181975538Y-218310096D01*
X283724259Y-77374266D02*
X283397639Y-76941653D01*
D11*
X355600989Y-163479002D02*
X355600989Y-163479002D01*
D12*
X7294947Y-172980787D02*
X3538689Y-171032371D01*
D11*
X169862998Y-182528997D02*
X183862998Y-182528997D01*
X62706995Y-201579000D02*
X76706992Y-201579000D01*
X15081994Y-182528997D02*
X15081994Y-182528997D01*
X62706995Y-201579000D02*
X62706995Y-201579000D01*
X250825995Y-144428999D02*
X264824988Y-144428999D01*
X350551001Y-130429003D02*
X336551001Y-130429003D01*
X374651007Y-144428999D02*
X388651007Y-144428999D01*
X102900992Y-101567003D02*
X102900992Y-87567006D01*
X60037993Y-149479002D02*
X46037993Y-149479002D01*
X286319006Y-155479002D02*
X286319006Y-155479002D01*
X60037993Y-149479002D02*
X60037993Y-149479002D01*
X298163001Y-206342001D02*
X298163001Y-206342001D01*
X189493994Y-188128996D02*
X189493994Y-188128996D01*
X92912993Y-202329000D02*
X92912993Y-202329000D01*
X403000983Y-130854002D02*
X403000983Y-130854002D01*
X369176001Y-192278997D02*
X368349982Y-192278997D01*
X406230994Y-162229002D02*
X406230994Y-162229002D01*
X268350989Y-125149004D02*
X268350989Y-125149004D01*
X88900992Y-125379003D02*
X102900992Y-125379003D01*
D12*
X413103278Y-211831716D02*
X413103278Y-211831716D01*
X81975530Y-75551482D02*
X81729382Y-75371992D01*
D11*
X33843995Y-149479002D02*
X33843995Y-149479002D01*
X174625998Y-87567006D02*
X174625998Y-101567003D01*
X277018988Y-139954000D02*
X277018988Y-139954000D01*
X393931006Y-169778997D02*
X393931006Y-171503996D01*
X231775992Y-130429003D02*
X231775992Y-144428999D01*
X74325995Y-130429003D02*
X74325995Y-130429003D01*
X76706992Y-201579000D02*
X76706992Y-187579000D01*
X274350989Y-87567006D02*
X274350989Y-87567006D01*
X169575995Y-87567006D02*
X169575995Y-87567006D01*
X281719000Y-153954000D02*
X281719000Y-155479002D01*
X369176001Y-192278997D02*
X369176001Y-192278997D01*
X31462994Y-130429003D02*
X17462994Y-130429003D01*
X241301001Y-187579000D02*
X241301001Y-201579000D01*
X403000983Y-163053999D02*
X403000983Y-163053999D01*
D12*
X136097596Y-78273606D02*
X136374559Y-77818923D01*
D11*
X264824988Y-144428999D02*
X264824988Y-144428999D01*
X222250998Y-125379003D02*
X222250998Y-125379003D01*
X94637991Y-189049002D02*
X92912993Y-189049002D01*
D12*
X383724259Y-77374266D02*
X383397639Y-76941653D01*
D11*
X277248999Y-157204000D02*
X276268988Y-157204000D01*
D12*
X137000700Y-216919921D02*
X137358958Y-217338474D01*
D11*
X403000983Y-155479002D02*
X403000983Y-155479002D01*
X406230994Y-171503996D02*
X406230994Y-171503996D01*
X217487998Y-149479002D02*
X217487998Y-163479002D01*
X17462994Y-201579000D02*
X31462994Y-201579000D01*
D12*
X419012510Y-169376573D02*
X419207086Y-169164369D01*
D11*
X121949996Y-111379003D02*
X121949996Y-111379003D01*
X164812994Y-182528997D02*
X164812994Y-168528997D01*
X392950995Y-157204000D02*
X392950995Y-160503996D01*
X366625983Y-188128996D02*
X366625983Y-188128996D01*
X212725989Y-144428999D02*
X226725989Y-144428999D01*
X406230994Y-155479002D02*
X403000983Y-155479002D01*
X285401007Y-125149004D02*
X287125983Y-125149004D01*
X219868994Y-201579000D02*
X219868994Y-201579000D01*
X269587988Y-163479002D02*
X269587988Y-149479002D01*
X187913001Y-189049002D02*
X187913001Y-188128996D01*
X179387991Y-149479002D02*
X179387991Y-163479002D01*
X269875983Y-125379003D02*
X283875983Y-125379003D01*
X131475997Y-130429003D02*
X117475997Y-130429003D01*
X207087988Y-201579000D02*
X217200995Y-201579000D01*
D12*
X181975538Y-218310096D02*
X181729390Y-218489587D01*
X38188547Y-218125324D02*
X38422812Y-218310096D01*
X183397651Y-76941653D02*
X183039393Y-76523101D01*
D11*
X26700993Y-125379003D02*
X26700993Y-125379003D01*
X374651007Y-182528997D02*
X388651007Y-182528997D01*
X69850997Y-111379003D02*
X69850997Y-125379003D01*
X212437994Y-163479002D02*
X212437994Y-163479002D01*
X276268988Y-133404001D02*
X276268988Y-136704000D01*
D12*
X137965600Y-217935524D02*
X138188551Y-218125324D01*
D11*
X102900992Y-111379003D02*
X88900992Y-111379003D01*
X150525992Y-144428999D02*
X150525992Y-144428999D01*
X41275996Y-187579000D02*
X41275996Y-201579000D01*
X160337988Y-149479002D02*
X160337988Y-163479002D01*
X336974982Y-192278997D02*
X336974982Y-192278997D01*
X298163001Y-173291998D02*
X284163001Y-173291998D01*
X217200995Y-201579000D02*
X217200995Y-201579000D01*
X183862998Y-182528997D02*
X183862998Y-168528997D01*
D12*
X37965596Y-217935524D02*
X38188547Y-218125324D01*
X419935106Y-168202406D02*
X420103278Y-167930792D01*
D11*
X50512995Y-168528997D02*
X50512995Y-168528997D01*
X55275996Y-130429003D02*
X41275996Y-130429003D01*
X83850997Y-101567003D02*
X83850997Y-101567003D01*
X406230994Y-138429003D02*
X406230994Y-138429003D01*
X336551001Y-144428999D02*
X350551001Y-144428999D01*
D12*
X336097594Y-215587967D02*
X336374556Y-216042650D01*
D11*
X222250998Y-111379003D02*
X222250998Y-125379003D01*
X298163001Y-206342001D02*
X298163001Y-192342001D01*
X250825995Y-144428999D02*
X250825995Y-144428999D01*
X290469000Y-133404001D02*
X290469000Y-133404001D01*
X407151007Y-133404001D02*
X407151007Y-133404001D01*
X321975989Y-168528997D02*
X307975989Y-168528997D01*
X291018988Y-139954000D02*
X286319006Y-139954000D01*
X355600989Y-130429003D02*
X355600989Y-144428999D01*
X350551001Y-130429003D02*
X350551001Y-130429003D01*
D12*
X338927550Y-218663544D02*
X339199164Y-218831716D01*
D11*
X236250998Y-201579000D02*
X236250998Y-201579000D01*
X363325995Y-201348997D02*
X363325995Y-201348997D01*
X260350989Y-101567003D02*
X274350989Y-101567003D01*
X94637991Y-192278997D02*
X94637991Y-192278997D01*
X400200995Y-163053999D02*
X400200995Y-163053999D01*
X126712996Y-168528997D02*
X112712996Y-168528997D01*
D12*
X183724271Y-77374266D02*
X183397651Y-76941653D01*
D11*
X263324988Y-111929005D02*
X263324988Y-111929005D01*
D12*
X82644949Y-217740948D02*
X82432745Y-217935524D01*
D11*
X407700995Y-139954000D02*
X407700995Y-139954000D01*
X179100989Y-111379003D02*
X179100989Y-111379003D01*
X355600989Y-144428999D02*
X369600989Y-144428999D01*
D12*
X37000698Y-216919921D02*
X37358956Y-217338474D01*
D11*
X344551001Y-201348997D02*
X344551001Y-201348997D01*
X198437994Y-149479002D02*
X198437994Y-163479002D01*
X46037993Y-149479002D02*
X46037993Y-163479002D01*
X64800993Y-111379003D02*
X50800993Y-111379003D01*
X255301001Y-201579000D02*
X255301001Y-187579000D01*
X83850997Y-111379003D02*
X69850997Y-111379003D01*
X342825995Y-189049002D02*
X342825995Y-189049002D01*
X245775992Y-144428999D02*
X245775992Y-130429003D01*
X87762991Y-201348997D02*
X89487998Y-201348997D01*
X182887991Y-192278997D02*
X182887991Y-192278997D01*
X337801001Y-189049002D02*
X337801001Y-192278997D01*
X392950995Y-171503996D02*
X392950995Y-171503996D01*
X200818991Y-201579000D02*
X200818991Y-201579000D01*
X407151007Y-198604002D02*
X407151007Y-195303999D01*
X98425993Y-130429003D02*
X98425993Y-144428999D01*
X403000983Y-178053999D02*
X403000983Y-178053999D01*
X307975989Y-168528997D02*
X307975989Y-182528997D01*
D12*
X34149172Y-211831716D02*
X36097593Y-215587967D01*
D11*
X291018988Y-153954000D02*
X291018988Y-153954000D01*
X265112982Y-206342001D02*
X279112982Y-206342001D01*
X145762991Y-168528997D02*
X131762991Y-168528997D01*
X321975989Y-125379003D02*
X321975989Y-111379003D01*
X392950995Y-198604002D02*
X393931006Y-198604002D01*
X317212988Y-192342001D02*
X317212988Y-192342001D01*
X337801001Y-195079000D02*
X337801001Y-195079000D01*
D12*
X181729390Y-75371992D02*
X181470793Y-75198035D01*
D11*
X136237998Y-149479002D02*
X122237998Y-149479002D01*
X88612998Y-182528997D02*
X88612998Y-168528997D01*
X203200995Y-125379003D02*
X203200995Y-125379003D01*
X287125983Y-126129003D02*
X290426001Y-126129003D01*
X203200995Y-125379003D02*
X217200995Y-125379003D01*
X344551001Y-192278997D02*
X344551001Y-189049002D01*
D12*
X1001335Y-168941418D02*
X816564Y-168707152D01*
D11*
X369600989Y-125379003D02*
X369600989Y-125379003D01*
X29081994Y-182528997D02*
X29081994Y-182528997D01*
X169862998Y-182528997D02*
X169862998Y-182528997D01*
X189493994Y-188128996D02*
X189493994Y-189049002D01*
X182887991Y-189049002D02*
X182887991Y-189049002D01*
X355600989Y-111379003D02*
X355600989Y-125379003D01*
D12*
X239199164Y-75029864D02*
X281199164Y-75029864D01*
D11*
X393931006Y-131679003D02*
X393931006Y-131679003D01*
X50800993Y-101567003D02*
X64800993Y-101567003D01*
X388651007Y-125379003D02*
X388651007Y-125379003D01*
X346075995Y-196878996D02*
X346075995Y-196878996D01*
D12*
X81729382Y-75371992D02*
X81470786Y-75198035D01*
X3084006Y-170755408D02*
X2639349Y-170455887D01*
D11*
X283875983Y-111379003D02*
X283875983Y-111379003D01*
X155288001Y-149479002D02*
X141288001Y-149479002D01*
D12*
X637074Y-168461004D02*
X463118Y-168202406D01*
D11*
X392950995Y-174803999D02*
X392950995Y-174803999D01*
X193387991Y-163479002D02*
X193387991Y-149479002D01*
D12*
X383039380Y-76523101D02*
X382644943Y-76120628D01*
D11*
X368349982Y-195079000D02*
X369176001Y-195079000D01*
X69562994Y-168528997D02*
X55562994Y-168528997D01*
D12*
X284023782Y-216042753D02*
X283724259Y-216487410D01*
D11*
X393931006Y-200329000D02*
X393931006Y-200329000D01*
X336551001Y-130429003D02*
X336551001Y-144428999D01*
X336551001Y-111379003D02*
X336551001Y-125379003D01*
X321975989Y-125379003D02*
X321975989Y-125379003D01*
X217200995Y-125379003D02*
X217200995Y-125379003D01*
X393700995Y-87538608D02*
X393700995Y-87538608D01*
X122237998Y-163479002D02*
X136237998Y-163479002D01*
X346075995Y-196878996D02*
X346075995Y-201579000D01*
X19843994Y-163479002D02*
X19843994Y-163479002D01*
X407700995Y-125379003D02*
X407700995Y-125379003D01*
X346075995Y-187579000D02*
X346075995Y-192278997D01*
X388651007Y-130429003D02*
X388651007Y-130429003D01*
D12*
X182432754Y-217935524D02*
X182209803Y-218125324D01*
X182209803Y-75736252D02*
X181975538Y-75551482D01*
D11*
X122237998Y-163479002D02*
X122237998Y-163479002D01*
X187913001Y-202329000D02*
X187913001Y-201348997D01*
D12*
X419207086Y-169164369D02*
X419396886Y-168941418D01*
D11*
X112425993Y-144428999D02*
X112425993Y-130429003D01*
X189493994Y-189049002D02*
X189493994Y-189049002D01*
X117187994Y-163479002D02*
X117187994Y-149479002D01*
X107662993Y-182528997D02*
X107662993Y-168528997D01*
X268350989Y-112849001D02*
X266625983Y-112849001D01*
D12*
X413103278Y-82029864D02*
X413103278Y-82029864D01*
D11*
X69850997Y-101567003D02*
X83850997Y-101567003D01*
X136525992Y-144428999D02*
X136525992Y-144428999D01*
X403000983Y-176528997D02*
X403000983Y-176528997D01*
X50800993Y-111379003D02*
X50800993Y-125379003D01*
X339525000Y-202329000D02*
X339525000Y-202329000D01*
D12*
X281975523Y-75551482D02*
X281729375Y-75371992D01*
D11*
X369600989Y-149479002D02*
X369600989Y-149479002D01*
X407151007Y-157204000D02*
X406230994Y-157204000D01*
D12*
X286249152Y-82029863D02*
X284300745Y-78273606D01*
D11*
X400200995Y-163053999D02*
X403000983Y-163053999D01*
X407151007Y-174803999D02*
X407151007Y-171503996D01*
X87762991Y-192278997D02*
X86937994Y-192278997D01*
D12*
X37753392Y-76120628D02*
X37965596Y-75926052D01*
D11*
X292151007Y-125149004D02*
X292151007Y-125149004D01*
D12*
X36674078Y-77374266D02*
X37000698Y-76941653D01*
D11*
X55275996Y-130429003D02*
X55275996Y-130429003D01*
X146051001Y-125379003D02*
X160051001Y-125379003D01*
X285401007Y-120679003D02*
X285401007Y-125149004D01*
X388651007Y-149479002D02*
X388651007Y-149479002D01*
X50512995Y-182528997D02*
X50512995Y-182528997D01*
X403000983Y-168954000D02*
X400200995Y-168954000D01*
D12*
X182644957Y-76120628D02*
X182432754Y-75926052D01*
D11*
X366625983Y-189049002D02*
X366625983Y-189049002D01*
X112712996Y-182528997D02*
X126712996Y-182528997D01*
X321975989Y-87538608D02*
X307975989Y-87538608D01*
D12*
X37000698Y-76941653D02*
X37358956Y-76523101D01*
D11*
X29081994Y-168528997D02*
X29081994Y-168528997D01*
X403000983Y-138429003D02*
X403000983Y-138429003D01*
D12*
X134149176Y-82029863D02*
X136097596Y-78273606D01*
D11*
X407151007Y-133404001D02*
X406230994Y-133404001D01*
X136525992Y-101567003D02*
X136525992Y-101567003D01*
X407151007Y-174803999D02*
X407151007Y-174803999D01*
D12*
X38927557Y-75198035D02*
X39199172Y-75029864D01*
X1001333Y-124920167D02*
X816562Y-125154433D01*
D11*
X336551001Y-163479002D02*
X336551001Y-163479002D01*
X69562994Y-182528997D02*
X69562994Y-168528997D01*
X266625983Y-112849001D02*
X266625983Y-111929005D01*
X255587988Y-149479002D02*
X255587988Y-163479002D01*
X336974982Y-192278997D02*
X336974982Y-195079000D01*
D12*
X236674073Y-77374266D02*
X237000692Y-76941653D01*
D11*
X264824988Y-130429003D02*
X250825995Y-130429003D01*
X269875983Y-120679003D02*
X269875983Y-125379003D01*
X374651007Y-168528997D02*
X374651007Y-182528997D01*
X407700995Y-178053999D02*
X407700995Y-178053999D01*
X231487998Y-163479002D02*
X231487998Y-163479002D01*
X203200995Y-111379003D02*
X203200995Y-125379003D01*
X268350989Y-116079000D02*
X268350989Y-116079000D01*
X344551001Y-192278997D02*
X344551001Y-192278997D01*
X374650000Y-201579000D02*
X388650000Y-201579000D01*
D12*
X181975538Y-75551482D02*
X181729390Y-75371992D01*
D11*
X406230994Y-133404001D02*
X406230994Y-131679003D01*
X155288001Y-187579000D02*
X155288001Y-187579000D01*
X241301001Y-101567003D02*
X255301001Y-101567003D01*
X350551001Y-111379003D02*
X350551001Y-111379003D01*
X393931006Y-160503996D02*
X393931006Y-160503996D01*
D12*
X38188547Y-75736252D02*
X38422812Y-75551482D01*
D11*
X407700995Y-178053999D02*
X403000983Y-178053999D01*
X194518988Y-192278997D02*
X194518988Y-189049002D01*
X289548987Y-160503996D02*
X290469000Y-160503996D01*
X207676001Y-130429003D02*
X193676001Y-130429003D01*
X407700995Y-139954000D02*
X403000983Y-139954000D01*
X217200995Y-111379003D02*
X217200995Y-111379003D01*
D12*
X418610037Y-169771009D02*
X419012510Y-169376573D01*
D11*
X388651007Y-168528997D02*
X388651007Y-168528997D01*
X350551001Y-144428999D02*
X350551001Y-130429003D01*
X406230994Y-160503996D02*
X407151007Y-160503996D01*
X83850997Y-87567006D02*
X83850997Y-87567006D01*
X150525992Y-130429003D02*
X150525992Y-130429003D01*
X145762991Y-182528997D02*
X145762991Y-182528997D01*
D12*
X413103278Y-211831716D02*
X386249182Y-211831716D01*
D11*
X41275996Y-130429003D02*
X41275996Y-144428999D01*
D12*
X413103278Y-172980795D02*
X413103278Y-211831716D01*
D11*
X350551001Y-125379003D02*
X350551001Y-125379003D01*
D12*
X282209788Y-218125421D02*
X281975523Y-218310191D01*
D11*
X298163001Y-173291998D02*
X298163001Y-173291998D01*
X50800993Y-101567003D02*
X50800993Y-101567003D01*
X393931006Y-157204000D02*
X392950995Y-157204000D01*
D12*
X338422806Y-218310096D02*
X338668953Y-218489587D01*
D11*
X292151007Y-118879003D02*
X292151007Y-118879003D01*
X136525992Y-87567006D02*
X136525992Y-101567003D01*
X136525992Y-144428999D02*
X150525992Y-144428999D01*
D12*
X38422812Y-218310096D02*
X38668960Y-218489587D01*
D11*
X17462994Y-201579000D02*
X17462994Y-201579000D01*
X265112982Y-206342001D02*
X265112982Y-206342001D01*
D12*
X36374556Y-77818923D02*
X36674078Y-77374266D01*
D11*
X31462994Y-201579000D02*
X31462994Y-201579000D01*
D12*
X463118Y-168202406D02*
X294946Y-167930792D01*
D11*
X221962988Y-182528997D02*
X221962988Y-182528997D01*
X286319006Y-153954000D02*
X286319006Y-153954000D01*
D12*
X338927550Y-75198035D02*
X339199164Y-75029864D01*
D11*
X150525992Y-130429003D02*
X136525992Y-130429003D01*
X403000983Y-130854002D02*
X400200995Y-130854002D01*
X155575995Y-87567006D02*
X155575995Y-101567003D01*
D12*
X138927564Y-218663544D02*
X139199179Y-218831716D01*
D11*
X307975989Y-125379003D02*
X321975989Y-125379003D01*
D12*
X417314216Y-123106178D02*
X417758873Y-123405699D01*
D11*
X292151007Y-112849001D02*
X292151007Y-112849001D01*
X184150992Y-125379003D02*
X198150992Y-125379003D01*
X406230994Y-174803999D02*
X407151007Y-174803999D01*
D12*
X137358958Y-217338474D02*
X137753395Y-217740948D01*
D11*
X283518988Y-163053999D02*
X286319006Y-163053999D01*
X298163001Y-192342001D02*
X284163001Y-192342001D01*
X274350989Y-101567003D02*
X274350989Y-87567006D01*
X200818991Y-192278997D02*
X200818991Y-192278997D01*
X150525992Y-101567003D02*
X150525992Y-101567003D01*
D12*
X81470786Y-218663544D02*
X81199172Y-218831716D01*
D11*
X263324988Y-126129003D02*
X266625983Y-126129003D01*
X55275996Y-201579000D02*
X55275996Y-201579000D01*
X103187994Y-163479002D02*
X117187994Y-163479002D01*
X121949996Y-125379003D02*
X121949996Y-125379003D01*
X374651007Y-130429003D02*
X374651007Y-144428999D01*
X231487998Y-149479002D02*
X231487998Y-149479002D01*
X198150992Y-125379003D02*
X198150992Y-111379003D01*
X188625998Y-144428999D02*
X188625998Y-130429003D01*
D12*
X234149176Y-211831808D02*
X186249167Y-211831701D01*
D11*
X207962988Y-182528997D02*
X207962988Y-182528997D01*
X165100989Y-125379003D02*
X165100989Y-125379003D01*
X289548987Y-136704000D02*
X290469000Y-136704000D01*
D12*
X138188551Y-75736252D02*
X138422817Y-75551482D01*
D11*
X321975989Y-182528997D02*
X321975989Y-182528997D01*
X293401007Y-101567003D02*
X293401007Y-101567003D01*
X134142996Y-201579000D02*
X155288001Y-201579000D01*
D12*
X83724261Y-77374266D02*
X83397642Y-76941653D01*
D11*
X366625983Y-188128996D02*
X363325995Y-188128996D01*
X400200995Y-131679003D02*
X400200995Y-131679003D01*
X198437994Y-163479002D02*
X212437994Y-163479002D01*
D12*
X38422812Y-75551482D02*
X38668960Y-75371992D01*
D11*
X388651007Y-144428999D02*
X388651007Y-130429003D01*
X403000983Y-201153997D02*
X403000983Y-200329000D01*
X86937994Y-192278997D02*
X86937994Y-192278997D01*
X136525992Y-130429003D02*
X136525992Y-144428999D01*
X307975989Y-163479002D02*
X307975989Y-163479002D01*
X26700993Y-101567003D02*
X26700993Y-87567006D01*
X107949996Y-125379003D02*
X107949996Y-125379003D01*
X392950995Y-174803999D02*
X393931006Y-174803999D01*
X283518988Y-162229002D02*
X283518988Y-162229002D01*
X407151007Y-171503996D02*
X407151007Y-171503996D01*
X298163001Y-192342001D02*
X298163001Y-192342001D01*
X406230994Y-174803999D02*
X406230994Y-174803999D01*
X46037993Y-163479002D02*
X60037993Y-163479002D01*
X250825995Y-130429003D02*
X250825995Y-144428999D01*
X241301001Y-111379003D02*
X241301001Y-125379003D01*
X74612998Y-182528997D02*
X88612998Y-182528997D01*
D12*
X336374556Y-216042650D02*
X336674077Y-216487307D01*
D11*
X188625998Y-130429003D02*
X188625998Y-130429003D01*
X187913001Y-189049002D02*
X187913001Y-189049002D01*
X107949996Y-101567003D02*
X121949996Y-101567003D01*
X369600989Y-163479002D02*
X369600989Y-163479002D01*
X189493994Y-201348997D02*
X189493994Y-201348997D01*
X227012991Y-182528997D02*
X227012991Y-182528997D01*
X403000983Y-162229002D02*
X403000983Y-162229002D01*
D12*
X138422817Y-75551482D02*
X138668966Y-75371992D01*
D11*
X126999991Y-111379003D02*
X126999991Y-125379003D01*
D12*
X84300745Y-78273606D02*
X84023782Y-77818923D01*
D11*
X203788001Y-202329000D02*
X203788001Y-202329000D01*
X407151007Y-160503996D02*
X407151007Y-160503996D01*
X50512995Y-182528997D02*
X50512995Y-168528997D01*
X60325995Y-144428999D02*
X74325995Y-144428999D01*
X403000983Y-162229002D02*
X406230994Y-162229002D01*
X64800993Y-125379003D02*
X64800993Y-111379003D01*
X292151007Y-125149004D02*
X292151007Y-118879003D01*
X36512993Y-168528997D02*
X36512993Y-182528997D01*
X344551001Y-189049002D02*
X344551001Y-189049002D01*
D12*
X337000695Y-216919921D02*
X337358952Y-217338474D01*
D11*
X369600989Y-168528997D02*
X369600989Y-168528997D01*
X174337988Y-163479002D02*
X174337988Y-163479002D01*
X160051001Y-125379003D02*
X160051001Y-125379003D01*
X60325995Y-144428999D02*
X60325995Y-144428999D01*
X188913001Y-182528997D02*
X188913001Y-182528997D01*
D12*
X417758873Y-170455887D02*
X418191486Y-170129267D01*
X282644943Y-217741046D02*
X282432739Y-217935622D01*
D11*
X126712996Y-182528997D02*
X126712996Y-168528997D01*
X283518988Y-130854002D02*
X283518988Y-131679003D01*
X393931006Y-174803999D02*
X393931006Y-176528997D01*
X350551001Y-182528997D02*
X350551001Y-168528997D01*
X266625983Y-125149004D02*
X268350989Y-125149004D01*
X393931006Y-136704000D02*
X393931006Y-136704000D01*
X363325995Y-189049002D02*
X361599982Y-189049002D01*
X255301001Y-101567003D02*
X255301001Y-101567003D01*
D12*
X138668966Y-75371992D02*
X138927564Y-75198035D01*
D11*
X50800993Y-125379003D02*
X64800993Y-125379003D01*
X355600989Y-163479002D02*
X369600989Y-163479002D01*
X398401007Y-192053999D02*
X398401007Y-192053999D01*
X403000983Y-169778997D02*
X403000983Y-169778997D01*
D12*
X137753395Y-76120628D02*
X137965600Y-75926052D01*
D11*
X64800993Y-87567006D02*
X64800993Y-87567006D01*
X193676001Y-130429003D02*
X193676001Y-144428999D01*
X286319006Y-131679003D02*
X286319006Y-130854002D01*
X207962988Y-182528997D02*
X221962988Y-182528997D01*
X60037993Y-163479002D02*
X60037993Y-163479002D01*
X155288001Y-163479002D02*
X155288001Y-163479002D01*
X374651007Y-125379003D02*
X374651007Y-125379003D01*
X346075995Y-192278997D02*
X344551001Y-192278997D01*
D12*
X2206734Y-123732319D02*
X1788182Y-124090577D01*
D11*
X287125983Y-126129003D02*
X287125983Y-126129003D01*
X307975989Y-149479002D02*
X307975989Y-163479002D01*
X393931006Y-193579000D02*
X393931006Y-195303999D01*
D12*
X413103278Y-120880793D02*
X416859534Y-122829214D01*
D11*
X407151007Y-195303999D02*
X406230994Y-195303999D01*
X150525992Y-101567003D02*
X150525992Y-87567006D01*
X287125983Y-111929005D02*
X287125983Y-112849001D01*
X369176001Y-195079000D02*
X369176001Y-192278997D01*
X307975989Y-130429003D02*
X307975989Y-144428999D01*
X369600989Y-130429003D02*
X355600989Y-130429003D01*
X406230994Y-193579000D02*
X406230994Y-193579000D01*
D12*
X83724261Y-216487307D02*
X83397642Y-216919921D01*
D11*
X192793997Y-189049002D02*
X192793997Y-188128996D01*
X398401007Y-139954000D02*
X393700995Y-139954000D01*
X26700993Y-125379003D02*
X26700993Y-111379003D01*
X207676001Y-87567006D02*
X207676001Y-87567006D01*
X398401007Y-155479002D02*
X393931006Y-155479002D01*
X261600989Y-125149004D02*
X261600989Y-125149004D01*
X266625983Y-125149004D02*
X266625983Y-125149004D01*
D12*
X339199164Y-75029864D02*
X381199164Y-75029864D01*
X82432745Y-217935524D02*
X82209795Y-218125324D01*
D11*
X50512995Y-168528997D02*
X36512993Y-168528997D01*
D12*
X38668960Y-75371992D02*
X38927557Y-75198035D01*
D11*
X277248999Y-155479002D02*
X277248999Y-157204000D01*
X131762991Y-182528997D02*
X145762991Y-182528997D01*
X393931006Y-155479002D02*
X393931006Y-155479002D01*
D12*
X282209788Y-75736252D02*
X281975523Y-75551482D01*
D11*
X121949996Y-101567003D02*
X121949996Y-87567006D01*
D12*
X236097588Y-78273606D02*
X236374551Y-77818923D01*
D11*
X337801001Y-189049002D02*
X337801001Y-189049002D01*
X403000983Y-200329000D02*
X403000983Y-200329000D01*
X241301001Y-201579000D02*
X241301001Y-201579000D01*
X189493994Y-202329000D02*
X189493994Y-202329000D01*
D12*
X138927564Y-75198035D02*
X139199179Y-75029864D01*
D11*
X193676001Y-87567006D02*
X193676001Y-101567003D01*
D12*
X383397639Y-216919921D02*
X383039380Y-217338474D01*
D11*
X26700993Y-101567003D02*
X26700993Y-101567003D01*
X94637991Y-189049002D02*
X94637991Y-189049002D01*
D12*
X1191135Y-169164369D02*
X1001335Y-168941418D01*
X384300745Y-215587967D02*
X384023782Y-216042650D01*
X294946Y-167930792D02*
X294944Y-125930796D01*
D11*
X184612998Y-202329000D02*
X187913001Y-202329000D01*
X179387991Y-163479002D02*
X179387991Y-163479002D01*
X169575995Y-144428999D02*
X169575995Y-130429003D01*
X98137991Y-163479002D02*
X98137991Y-149479002D01*
D12*
X137000700Y-76941653D02*
X137358958Y-76523101D01*
D11*
X369176001Y-195079000D02*
X369176001Y-195079000D01*
D12*
X136674080Y-77374266D02*
X137000700Y-76941653D01*
X82209795Y-75736252D02*
X81975530Y-75551482D01*
D11*
X102900992Y-111379003D02*
X102900992Y-111379003D01*
D12*
X184300757Y-78273606D02*
X184023793Y-77818923D01*
D11*
X89487998Y-188128996D02*
X89487998Y-189049002D01*
X55562994Y-168528997D02*
X55562994Y-182528997D01*
D12*
X37358956Y-76523101D02*
X37753392Y-76120628D01*
X237753386Y-76120628D02*
X237965590Y-75926052D01*
X239199164Y-218831808D02*
X281199164Y-218831808D01*
D11*
X87762991Y-192278997D02*
X87762991Y-192278997D01*
X141288001Y-149479002D02*
X141288001Y-163479002D01*
X222250998Y-87567006D02*
X222250998Y-101567003D01*
X339525000Y-188128996D02*
X339525000Y-189049002D01*
D12*
X137358958Y-76523101D02*
X137753395Y-76120628D01*
D11*
X141000998Y-125379003D02*
X141000998Y-111379003D01*
X79375990Y-130429003D02*
X79375990Y-144428999D01*
X337801001Y-192278997D02*
X336974982Y-192278997D01*
X121949996Y-87567006D02*
X107949996Y-87567006D01*
X31462994Y-187579000D02*
X17462994Y-187579000D01*
X121949996Y-125379003D02*
X121949996Y-111379003D01*
D12*
X81470786Y-75198035D02*
X81199172Y-75029864D01*
X183724271Y-216487307D02*
X183397651Y-216919921D01*
D11*
X281719000Y-155479002D02*
X281719000Y-155479002D01*
X134142996Y-187579000D02*
X134142996Y-192278997D01*
X31750994Y-111379003D02*
X31750994Y-125379003D01*
X65087992Y-163479002D02*
X65087992Y-163479002D01*
X403000983Y-139954000D02*
X403000983Y-139954000D01*
X221962988Y-182528997D02*
X221962988Y-168528997D01*
X112425993Y-144428999D02*
X112425993Y-144428999D01*
X92912993Y-189049002D02*
X92912993Y-189049002D01*
X193387991Y-163479002D02*
X193387991Y-163479002D01*
X361599982Y-189049002D02*
X361599982Y-192278997D01*
X284163001Y-187291998D02*
X284163001Y-187291998D01*
X193676001Y-144428999D02*
X207676001Y-144428999D01*
X286319006Y-130854002D02*
X286319006Y-130854002D01*
D12*
X236097588Y-215588070D02*
X236374551Y-216042753D01*
D11*
X403000983Y-178053999D02*
X403000983Y-176528997D01*
X174337988Y-149479002D02*
X174337988Y-149479002D01*
D12*
X82209795Y-218125324D02*
X81975530Y-218310096D01*
D11*
X393700995Y-101538608D02*
X407700995Y-101538608D01*
D12*
X234149176Y-211831808D02*
X236097588Y-215588070D01*
D11*
X184612998Y-188128996D02*
X184612998Y-188128996D01*
X87762991Y-201348997D02*
X87762991Y-201348997D01*
D12*
X419396886Y-124920167D02*
X419581658Y-125154433D01*
X181470793Y-75198035D02*
X181199179Y-75029864D01*
D11*
X217487998Y-163479002D02*
X217487998Y-163479002D01*
X102900992Y-87567006D02*
X88900992Y-87567006D01*
X355600989Y-168528997D02*
X355600989Y-182528997D01*
X406230994Y-157204000D02*
X406230994Y-155479002D01*
X189493994Y-189049002D02*
X187913001Y-189049002D01*
X60325995Y-130429003D02*
X60325995Y-144428999D01*
X217200995Y-111379003D02*
X203200995Y-111379003D01*
X403000983Y-169778997D02*
X403000983Y-168954000D01*
X236538001Y-163479002D02*
X236538001Y-163479002D01*
D12*
X334149176Y-211831716D02*
X286249152Y-211831823D01*
X2206735Y-170129267D02*
X1788183Y-169771009D01*
D11*
X193676001Y-144428999D02*
X193676001Y-144428999D01*
D12*
X181729390Y-218489587D02*
X181470793Y-218663544D01*
D11*
X121949996Y-87567006D02*
X121949996Y-87567006D01*
X83850997Y-125379003D02*
X83850997Y-111379003D01*
X388650000Y-201579000D02*
X388650000Y-187579000D01*
X194518988Y-192278997D02*
X194518988Y-192278997D01*
D12*
X183397651Y-216919921D02*
X183039393Y-217338474D01*
D11*
X64800993Y-101567003D02*
X64800993Y-101567003D01*
X363325995Y-202329000D02*
X366625983Y-202329000D01*
X290426001Y-112849001D02*
X290426001Y-112849001D01*
X88900992Y-125379003D02*
X88900992Y-125379003D01*
D12*
X283397639Y-216920023D02*
X283039380Y-217338574D01*
D11*
X393931006Y-195303999D02*
X392950995Y-195303999D01*
X407700995Y-111379003D02*
X407700995Y-111379003D01*
X261600989Y-116079000D02*
X260775992Y-116079000D01*
X226725989Y-144428999D02*
X226725989Y-130429003D01*
X188625998Y-101567003D02*
X188625998Y-87567006D01*
X231775992Y-144428999D02*
X231775992Y-144428999D01*
X337801001Y-192278997D02*
X337801001Y-192278997D01*
X393931006Y-155479002D02*
X393931006Y-157204000D01*
X279112982Y-206342001D02*
X279112982Y-192342001D01*
X236538001Y-149479002D02*
X236538001Y-163479002D01*
X360075995Y-201579000D02*
X360075995Y-201579000D01*
X407151007Y-198604002D02*
X407151007Y-198604002D01*
X102900992Y-87567006D02*
X102900992Y-87567006D01*
X241301001Y-201579000D02*
X255301001Y-201579000D01*
X393700995Y-192053999D02*
X393700995Y-192053999D01*
X342825995Y-201348997D02*
X344551001Y-201348997D01*
X392950995Y-133404001D02*
X392950995Y-136704000D01*
X184612998Y-188128996D02*
X184612998Y-189049002D01*
X286319006Y-163053999D02*
X286319006Y-162229002D01*
D12*
X418610037Y-124090577D02*
X419012510Y-124485013D01*
D11*
X368349982Y-201348997D02*
X368349982Y-195079000D01*
X307975989Y-111379003D02*
X307975989Y-125379003D01*
X29081994Y-182528997D02*
X29081994Y-168528997D01*
X55275996Y-144428999D02*
X55275996Y-130429003D01*
X303212988Y-206342001D02*
X303212988Y-206342001D01*
X169575995Y-87567006D02*
X155575995Y-87567006D01*
D12*
X417314216Y-170755408D02*
X417758873Y-170455887D01*
D11*
X407700995Y-153954000D02*
X407700995Y-153954000D01*
X160337988Y-163479002D02*
X174337988Y-163479002D01*
X369600989Y-125379003D02*
X369600989Y-111379003D01*
X45750994Y-111379003D02*
X31750994Y-111379003D01*
X255301001Y-101567003D02*
X255301001Y-87567006D01*
X188625998Y-87567006D02*
X174625998Y-87567006D01*
X400200995Y-130854002D02*
X400200995Y-131679003D01*
X406230994Y-200329000D02*
X406230994Y-200329000D01*
X231775992Y-144428999D02*
X245775992Y-144428999D01*
D12*
X37965596Y-75926052D02*
X38188547Y-75736252D01*
D11*
X403000983Y-192053999D02*
X403000983Y-192053999D01*
X12700994Y-125379003D02*
X26700993Y-125379003D01*
D12*
X134149176Y-211831716D02*
X86249167Y-211831716D01*
D11*
X287125983Y-125149004D02*
X287125983Y-126129003D01*
X298163001Y-187291998D02*
X298163001Y-187291998D01*
X283875983Y-125379003D02*
X283875983Y-125379003D01*
X89487998Y-201348997D02*
X89487998Y-202329000D01*
X69850997Y-101567003D02*
X69850997Y-101567003D01*
D12*
X419396886Y-168941418D02*
X419581658Y-168707152D01*
D11*
X307975989Y-87538608D02*
X307975989Y-101538608D01*
X393931006Y-169778997D02*
X393931006Y-169778997D01*
X146051001Y-125379003D02*
X146051001Y-125379003D01*
X236250998Y-111379003D02*
X236250998Y-111379003D01*
X398401007Y-139954000D02*
X398401007Y-139954000D01*
X155288001Y-187579000D02*
X134142996Y-187579000D01*
X393931006Y-195303999D02*
X393931006Y-195303999D01*
X55275996Y-187579000D02*
X55275996Y-187579000D01*
X307975989Y-101538608D02*
X321975989Y-101538608D01*
X287125983Y-112849001D02*
X287125983Y-112849001D01*
X207087988Y-202329000D02*
X207087988Y-202329000D01*
D12*
X34149172Y-82029863D02*
X36097593Y-78273606D01*
X417758873Y-123405699D02*
X418191486Y-123732319D01*
D11*
X88900992Y-101567003D02*
X102900992Y-101567003D01*
X398401007Y-193579000D02*
X393931006Y-193579000D01*
X290426001Y-111929005D02*
X290426001Y-111929005D01*
X276268988Y-136704000D02*
X277248999Y-136704000D01*
X393931006Y-131679003D02*
X393931006Y-133404001D01*
X393700995Y-153954000D02*
X398401007Y-153954000D01*
X277248999Y-131679003D02*
X277248999Y-133404001D01*
X363325995Y-202329000D02*
X363325995Y-202329000D01*
X155575995Y-130429003D02*
X155575995Y-144428999D01*
X189493994Y-201348997D02*
X189493994Y-202329000D01*
X307975989Y-87538608D02*
X307975989Y-87538608D01*
X155288001Y-201579000D02*
X155288001Y-201579000D01*
X398401007Y-193579000D02*
X398401007Y-193579000D01*
M02*
