M48
; DRILL file {KiCad (6.0.4)} date Sun May 15 20:25:48 2022
; FORMAT={-:-/ absolute / inch / decimal}
; #@! TF.CreationDate,2022-05-15T20:25:48+02:00
; #@! TF.GenerationSoftware,Kicad,Pcbnew,(6.0.4)
; #@! TF.FileFunction,NonPlated,1,2,NPTH
FMAT,2
INCH
; #@! TA.AperFunction,NonPlated,NPTH,ComponentDrill
T1C0.0866
%
G90
G05
T1
X0.15Y-5.395
X0.15Y-5.785
X0.15Y-6.175
X1.98Y-3.09
X1.9801Y-8.4764
X2.37Y-3.09
X2.3701Y-8.4764
X2.76Y-3.09
X2.7601Y-8.4764
X5.9171Y-3.0906
X5.9171Y-8.4764
X6.3071Y-3.0906
X6.3071Y-8.4764
X6.6971Y-3.0906
X6.6971Y-8.4764
X9.8541Y-3.0906
X9.8541Y-8.4764
X10.2441Y-3.0906
X10.2441Y-8.4764
X10.6341Y-3.0906
X10.6341Y-8.4764
X13.7911Y-3.0906
X13.7911Y-8.4764
X14.1811Y-3.0906
X14.1811Y-8.4764
X14.5711Y-3.0906
X14.5711Y-8.4764
X16.4016Y-5.3937
X16.4016Y-5.7837
X16.4016Y-6.1737
T0
M30
