<?xml version="1.0" encoding="UTF-8" standalone="no"?>
<!-- Created with Inkscape (http://www.inkscape.org/) -->

<svg
   width="210mm"
   height="297mm"
   viewBox="0 0 210 297"
   version="1.1"
   id="svg5"
   inkscape:version="1.1.2 (b8e25be833, 2022-02-05)"
   sodipodi:docname="BerserkSacred.svg"
   xmlns:inkscape="http://www.inkscape.org/namespaces/inkscape"
   xmlns:sodipodi="http://sodipodi.sourceforge.net/DTD/sodipodi-0.dtd"
   xmlns="http://www.w3.org/2000/svg"
   xmlns:svg="http://www.w3.org/2000/svg">
  <sodipodi:namedview
     id="namedview7"
     pagecolor="#ffffff"
     bordercolor="#999999"
     borderopacity="1"
     inkscape:pageshadow="0"
     inkscape:pageopacity="0"
     inkscape:pagecheckerboard="0"
     inkscape:document-units="mm"
     showgrid="false"
     inkscape:zoom="0.64052329"
     inkscape:cx="123.33666"
     inkscape:cy="558.91801"
     inkscape:window-width="1920"
     inkscape:window-height="1017"
     inkscape:window-x="-8"
     inkscape:window-y="-8"
     inkscape:window-maximized="1"
     inkscape:current-layer="layer1" />
  <defs
     id="defs2" />
  <g
     inkscape:label="Ebene 1"
     inkscape:groupmode="layer"
     id="layer1">
    <path
       style="fill:#000000;stroke-width:0.442052"
       d="m 80.126953,217.58854 c -2.806279,-3.15482 -24.538052,-46.7605 -25.36522,-50.89634 -0.323074,-1.61537 0.81403,-2.92642 5.702546,-6.57489 5.63452,-4.20524 10.861392,-7.67718 22.20301,-14.74832 12.031892,-7.50151 12.822573,-8.04289 13.698,-9.37895 0.671702,-1.02515 0.631117,-1.214 -0.835916,-3.88943 -2.192742,-3.99891 -3.902387,-8.13228 -7.76777,-18.77995 -2.539315,-6.99486 -3.972726,-10.24618 -5.713947,-12.96059 -2.770406,-4.318817 -3.999015,-6.909927 -4.012206,-8.461657 -0.0244,-2.87246 10.541222,-10.550201 22.65338,-16.461529 5.60647,-2.73624 12.7059,-5.746756 12.95786,-5.494791 0.092,0.09198 -1.86767,1.637905 -4.35479,3.435395 -8.06732,5.830436 -19.883865,14.690355 -20.756613,15.563105 -1.045935,1.04594 -0.847312,2.64774 1.083925,8.74134 3.478132,10.974487 14.316098,35.806207 15.627838,35.806207 0.70664,0 2.33075,-4.92633 4.59066,-13.92464 1.98733,-7.91298 3.60904,-13.35776 5.92487,-19.892334 1.86663,-5.267063 4.11169,-13.540323 6.04846,-22.28908 1.23922,-5.597798 1.38728,-6.958695 1.21417,-11.160165 -0.18536,-4.498894 -0.15181,-4.743929 0.56118,-4.098678 0.41708,0.377453 1.22728,1.57025 1.80043,2.650661 0.57316,1.080411 1.20083,1.964382 1.39482,1.964382 0.194,0 0.93695,-1.243271 1.65101,-2.762825 l 1.29829,-2.762826 -0.26508,2.983852 c -0.14579,1.641118 -0.13544,2.983851 0.023,2.983851 0.15844,0 0.72865,-0.277671 1.26713,-0.617047 0.53849,-0.339381 1.45349,-0.759154 2.03335,-0.932832 l 1.05428,-0.31578 -1.11431,1.485397 c -3.14621,4.194004 -6.38715,14.009655 -9.17489,27.787487 -2.60031,12.851487 -8.46693,32.962087 -10.28723,35.264337 -0.94882,1.20002 0.27153,1.1003 2.99997,-0.24516 6.44351,-3.17743 28.18676,-16.71812 30.60818,-19.06135 0.59701,-0.57773 0.99462,-1.49322 0.99462,-2.29007 0,-2.39109 -1.35642,-7.98421 -4.2795,-17.646227 -1.58142,-5.22726 -3.34198,-11.083471 -3.91234,-13.013792 l -1.03704,-3.509681 1.05479,1.29942 c 4.36984,5.383301 15.64043,31.77122 15.78809,36.96481 0.0498,1.74997 -0.0186,1.79851 -11.0815,7.8751 -20.30636,11.15375 -27.04319,15.16997 -30.14158,17.96918 -1.50796,1.36235 -1.7643,1.82829 -1.52701,2.77561 0.53315,2.12842 3.62098,7.7453 11.44,20.80973 12.45296,20.80711 14.94057,26.40124 12.81401,28.81607 -3.48699,3.95967 -31.70655,18.57786 -49.872865,25.83496 -5.408091,2.16043 -6.007996,2.25984 -6.988069,1.15804 z m 12.486507,-8.51823 c 8.28598,-4.15005 36.4505,-21.27334 36.89475,-22.43104 0.41513,-1.08181 -7.40075,-15.04373 -18.98944,-33.92186 -4.39461,-7.15887 -4.0101,-6.7373 -4.78058,-5.24138 -1.91701,3.72201 -19.130559,62.05826 -18.667718,63.26442 0.295822,0.77089 1.233078,0.48849 5.542988,-1.67014 z m -8.466799,-6.84308 c 2.280586,-8.48588 15.479594,-56.75292 15.823694,-57.86517 0.379835,-1.22776 -0.0805,-0.99224 -11.775903,6.02549 -18.712315,11.22814 -25.198479,15.82418 -25.198479,17.85543 0,2.32015 7.075406,19.15233 13.109394,31.18688 3.618665,7.21727 5.462137,10.26864 5.915178,9.79095 0.189247,-0.19954 1.146002,-3.34665 2.126116,-6.99358 z"
       id="path33"
       sodipodi:nodetypes="sssssssscsssssssssssssscsssscsssssssscsccssssssssssssssssssss" />
  </g>
</svg>
