<?xml version="1.0" encoding="UTF-8" standalone="no"?>
<!-- Created with Inkscape (http://www.inkscape.org/) -->

<svg
   width="210mm"
   height="297mm"
   viewBox="0 0 210 297"
   version="1.1"
   id="svg5"
   inkscape:version="1.1.2 (b8e25be833, 2022-02-05)"
   sodipodi:docname="DIOMSP.svg"
   xmlns:inkscape="http://www.inkscape.org/namespaces/inkscape"
   xmlns:sodipodi="http://sodipodi.sourceforge.net/DTD/sodipodi-0.dtd"
   xmlns="http://www.w3.org/2000/svg"
   xmlns:svg="http://www.w3.org/2000/svg">
  <sodipodi:namedview
     id="namedview7"
     pagecolor="#ffffff"
     bordercolor="#999999"
     borderopacity="1"
     inkscape:pageshadow="0"
     inkscape:pageopacity="0"
     inkscape:pagecheckerboard="0"
     inkscape:document-units="mm"
     showgrid="false"
     inkscape:zoom="0.64052329"
     inkscape:cx="242.77025"
     inkscape:cy="660.39753"
     inkscape:window-width="1920"
     inkscape:window-height="1017"
     inkscape:window-x="-1928"
     inkscape:window-y="-2"
     inkscape:window-maximized="1"
     inkscape:current-layer="layer1" />
  <defs
     id="defs2" />
  <g
     inkscape:label="Ebene 1"
     inkscape:groupmode="layer"
     id="layer1">
    <g
       id="g30782"
       transform="rotate(-0.78049916,-261.30918,516.94641)">
      <g
         aria-label="DIOM SP"
         id="text15100"
         style="font-size:10.5833px;line-height:1.25;-inkscape-font-specification:'sans-serif, Normal';stroke-width:0.264583">
        <path
           d="m 85.37564,156.66238 q 0,1.04902 -0.459919,1.90168 -0.454751,0.85266 -1.214392,1.32292 -0.527098,0.32556 -1.178219,0.47025 -0.645954,0.14469 -1.705317,0.14469 h -1.943028 v -7.69459 h 1.922357 q 1.126543,0 1.787999,0.16536 0.666624,0.1602 1.126543,0.44442 0.785479,0.49092 1.224727,1.30741 0.439249,0.81648 0.439249,1.93786 z m -1.069699,-0.0155 q 0,-0.90433 -0.315225,-1.52445 -0.315225,-0.62011 -0.940508,-0.97668 -0.454751,-0.25838 -0.966346,-0.35656 -0.511596,-0.10336 -1.224728,-0.10336 h -0.961179 v 5.93761 h 0.961179 q 0.738971,0 1.286739,-0.10852 0.552936,-0.10852 1.012855,-0.40308 0.573606,-0.3669 0.857826,-0.96635 0.289387,-0.59944 0.289387,-1.49861 z"
           id="path31105" />
        <path
           d="m 87.711407,159.71644 c 11.006807,-115.664907 5.503403,-57.83245 0,0 z"
           id="path31107"
           sodipodi:nodetypes="cc" />
        <path
           d="m 97.219841,153.69099 q 0.470254,0.51676 0.7183,1.26607 0.253214,0.7493 0.253214,1.70015 0,0.95084 -0.258382,1.70532 -0.253213,0.7493 -0.713132,1.25056 -0.475422,0.52193 -1.126543,0.78548 -0.645953,0.26355 -1.477941,0.26355 -0.811318,0 -1.477941,-0.26872 -0.661457,-0.26871 -1.126543,-0.78031 -0.465086,-0.51159 -0.7183,-1.25573 -0.248046,-0.74414 -0.248046,-1.70015 0,-0.94051 0.248046,-1.68465 0.248046,-0.7493 0.723468,-1.28157 0.454751,-0.50643 1.126542,-0.77514 0.676959,-0.26872 1.472774,-0.26872 0.82682,0 1.483109,0.27388 0.661456,0.26872 1.121375,0.76998 z m -0.09302,2.96622 q 0,-1.49861 -0.671791,-2.30993 -0.671791,-0.81649 -1.834508,-0.81649 -1.173051,0 -1.844842,0.81649 -0.666624,0.81132 -0.666624,2.30993 0,1.51411 0.682127,2.32026 0.682126,0.80098 1.829339,0.80098 1.147214,0 1.824173,-0.80098 0.682126,-0.80615 0.682126,-2.32026 z"
           id="path31109" />
        <path
           d="m 106.66626,160.50192 h -1.02319 v -6.63006 l -2.13939,4.51134 h -0.60978 l -2.1239,-4.51134 v 6.63006 h -0.95601 v -7.69459 h 1.39526 l 2.05155,4.28396 1.98437,-4.28396 h 1.42109 z"
           id="path31111" />
        <path
           d="m 118.04538,158.30568 q 0,0.44958 -0.21188,0.88883 -0.2067,0.43925 -0.58394,0.74414 -0.41341,0.33073 -0.96634,0.51676 -0.54777,0.18604 -1.32292,0.18604 -0.83198,0 -1.49861,-0.15503 -0.66145,-0.15503 -1.34875,-0.45992 v -1.28157 h 0.0724 q 0.58394,0.48576 1.34875,0.74931 0.76481,0.26354 1.4366,0.26354 0.95084,0 1.47794,-0.35656 0.53227,-0.35657 0.53227,-0.95085 0,-0.51159 -0.25322,-0.75447 -0.24804,-0.24288 -0.75964,-0.37724 -0.38757,-0.10335 -0.84232,-0.17053 -0.44959,-0.0672 -0.95601,-0.17053 -1.02319,-0.21704 -1.51929,-0.73897 -0.49092,-0.5271 -0.49092,-1.36942 0,-0.96635 0.81648,-1.58129 0.81649,-0.62012 2.07222,-0.62012 0.81132,0 1.48828,0.15503 0.67696,0.15503 1.19889,0.3824 v 1.20923 h -0.0724 q -0.43925,-0.37207 -1.15755,-0.61495 -0.71313,-0.24805 -1.46243,-0.24805 -0.82166,0 -1.32292,0.34107 -0.49609,0.34106 -0.49609,0.87849 0,0.48059 0.24805,0.75448 0.24804,0.27388 0.87333,0.41858 0.33072,0.0723 0.9405,0.1757 0.60978,0.10335 1.03353,0.21187 0.85783,0.22737 1.29191,0.68729 0.43408,0.45992 0.43408,1.28674 z"
           id="path31113" />
        <path
           d="m 124.72195,155.13276 q 0,0.51159 -0.18087,0.95084 -0.1757,0.43408 -0.49609,0.75448 -0.39791,0.3979 -0.94051,0.59944 -0.5426,0.19637 -1.36942,0.19637 h -1.02319 v 2.86803 h -1.02319 v -7.69459 h 2.08772 q 0.69246,0 1.17305,0.11885 0.48059,0.11369 0.85266,0.36174 0.43925,0.29455 0.67696,0.7338 0.24288,0.43925 0.24288,1.11104 z m -1.06453,0.0258 q 0,-0.39791 -0.13953,-0.69247 -0.13952,-0.29455 -0.42374,-0.48058 -0.24805,-0.1602 -0.56844,-0.22738 -0.31523,-0.0724 -0.80098,-0.0724 h -1.01286 v 3.07474 h 0.86299 q 0.62012,0 1.00769,-0.10852 0.38757,-0.11369 0.63045,-0.35657 0.24288,-0.24804 0.34107,-0.52193 0.10335,-0.27388 0.10335,-0.61494 z"
           id="path31115" />
      </g>
      <g
         aria-label="34 "
         id="text18948"
         style="font-size:5.71866px;line-height:1.25;stroke-width:0.142967">
        <path
           d="m 128.27602,152.37271 q 0.13404,0.12007 0.2206,0.30157 0.0866,0.1815 0.0866,0.46911 0,0.28482 -0.10332,0.52216 -0.10331,0.23735 -0.2904,0.41327 -0.20942,0.19546 -0.49424,0.2904 -0.28202,0.0921 -0.61989,0.0921 -0.34625,0 -0.68133,-0.0838 -0.33507,-0.081 -0.55008,-0.1787 v -0.5836 h 0.0419 q 0.23735,0.15637 0.55847,0.25969 0.32111,0.10331 0.61989,0.10331 0.17592,0 0.37417,-0.0586 0.19825,-0.0586 0.32112,-0.17312 0.12844,-0.12286 0.18987,-0.27085 0.0642,-0.148 0.0642,-0.37417 0,-0.22339 -0.0726,-0.36859 -0.0698,-0.14799 -0.19547,-0.23176 -0.12565,-0.0866 -0.30436,-0.11728 -0.17871,-0.0335 -0.38534,-0.0335 h -0.25131 v -0.46352 h 0.19547 q 0.42443,0 0.67574,-0.17592 0.2541,-0.1787 0.2541,-0.51937 0,-0.15078 -0.0642,-0.26247 -0.0642,-0.11449 -0.1787,-0.18709 -0.12007,-0.0726 -0.2569,-0.10052 -0.13682,-0.0279 -0.30994,-0.0279 -0.26527,0 -0.56405,0.0949 -0.29878,0.0949 -0.56405,0.26807 h -0.0279 v -0.5836 q 0.19825,-0.0977 0.52775,-0.17871 0.33228,-0.0838 0.64223,-0.0838 0.30436,0 0.53612,0.0558 0.23176,0.0558 0.41885,0.17871 0.20105,0.13403 0.30436,0.32391 0.10332,0.18987 0.10332,0.44397 0,0.34625 -0.24573,0.60594 -0.24293,0.25689 -0.57521,0.32391 v 0.0391 q 0.13403,0.0223 0.30715,0.0949 0.17312,0.0698 0.29319,0.17591 z"
           id="path31118" />
        <path
           d="m 132.37235,153.20482 h -0.6171 v 1.16998 h -0.53613 v -1.16998 h -1.99092 v -0.64223 l 2.01326,-2.34554 h 0.51379 v 2.541 h 0.6171 z m -1.15323,-0.44677 v -1.87643 l -1.61116,1.87643 z"
           id="path31120" />
      </g>
    </g>
    <path
       style="fill:#000000;stroke-width:0.238056"
       d="m 64.279693,112.36729 c 0.07388,-0.67654 0.303941,-1.42832 0.511275,-1.67064 0.260849,-0.30487 0.418633,-1.16183 0.512236,-2.78233 0.07439,-1.28798 0.19103,-2.49236 0.259178,-2.67641 0.234842,-0.63423 0.491272,-0.11096 0.67326,1.37386 0.291875,2.38128 0.607764,3.2598 1.257283,3.49661 0.317218,0.1157 2.594024,0.29604 5.059532,0.40083 2.465501,0.10479 4.912531,0.2417 5.437848,0.30423 0.525327,0.0625 1.489754,-0.0302 2.143161,-0.20595 1.011683,-0.27218 1.25126,-0.45295 1.614072,-1.21787 0.603566,-1.2725 0.965288,-5.9897 1.069684,-13.950037 0.04822,-3.677602 0.167315,-6.687569 0.264617,-6.68881 0.09729,-0.0012 0.270814,2.430319 0.385573,5.403459 0.233613,6.052478 0.882957,13.492898 1.295229,14.841288 0.46603,1.52423 1.108304,1.6841 5.730221,1.42641 5.764933,-0.32142 8.791803,-0.63571 9.163656,-0.9515 0.298709,-0.25368 0.736412,-2.39117 0.856342,-4.18188 0.0263,-0.39259 0.15325,-0.71514 0.28215,-0.71679 0.3076,-0.004 0.58854,1.51753 0.62983,3.41101 0.0224,1.04733 0.17532,1.74437 0.49261,2.25217 0.28571,0.45721 0.57088,1.60357 0.75391,3.03059 0.35842,2.79456 0.3587,2.80769 0.0625,2.81145 -0.1311,0.002 -0.24027,-0.14554 -0.24259,-0.32716 -0.002,-0.18159 -0.2219,-0.57998 -0.48796,-0.88527 -0.46735,-0.53624 -0.49526,-0.53985 -0.82308,-0.10667 -0.3261,0.43103 -0.36117,0.42372 -0.90264,-0.18802 l -0.56334,-0.63643 -3.804645,0.3181 c -5.216284,0.43612 -8.045098,0.8073 -8.324751,1.09232 -0.129449,0.13194 -0.232014,1.17055 -0.227909,2.30804 0.0061,1.70274 -0.118629,2.416 -0.706105,4.0368 -1.269104,3.50136 -0.992048,4.69993 1.045881,4.52457 0.929997,-0.08 0.9837,-0.0486 1.0663,0.62436 0.04787,0.38975 0.1873,0.80897 0.309905,0.93162 0.122701,0.12256 0.224064,0.31237 0.22545,0.42161 0.0036,0.27885 -1.936162,1.10531 -3.956628,1.68581 l -1.706876,0.49039 -1.989385,-0.54934 c -3.412768,-0.9424 -4.129001,-1.32472 -3.574778,-1.90818 0.119405,-0.12577 0.248137,-0.54995 0.286002,-0.94268 0.06571,-0.68167 0.114019,-0.71111 1.06429,-0.64872 0.759598,0.0499 1.111326,-0.0532 1.484584,-0.43495 0.619046,-0.6332 0.608278,-1.34771 -0.04425,-2.92146 -1.042516,-2.51521 -1.296793,-3.60809 -1.29334,-5.55884 0.0027,-1.50933 -0.07512,-1.97007 -0.349506,-2.07109 -0.521955,-0.19212 -4.008763,-0.51088 -8.326689,-0.76123 l -3.811094,-0.22096 -0.542108,0.68188 c -0.492479,0.61946 -0.564774,0.64409 -0.78972,0.269 -0.370486,-0.61773 -0.640258,-0.50276 -1.149853,0.49012 l -0.460568,0.89737 0.0033,-1.54529 c 0.0019,-0.84992 0.06375,-2.09884 0.137648,-2.77538 z m 18.778139,116.38014 c 0.05755,-0.0595 0.05098,-5.93411 -0.01543,-13.0552 -0.06639,-7.12108 -0.131022,-20.32885 -0.143552,-29.35058 -0.01252,-9.02173 -0.04985,-24.10528 -0.08294,-33.51901 -0.03313,-9.41372 0.02548,-17.2065 0.130143,-17.31729 0.104664,-0.11079 0.245307,-0.11259 0.312526,-0.004 0.182134,0.29426 0.554679,13.35965 0.971283,34.06329 0.203871,10.13068 0.579571,26.8146 0.834962,37.07538 0.529767,21.28624 0.785887,38.52542 0.580584,39.07987 -0.195563,0.52817 -2.123839,0.55275 -2.332805,0.0298 -0.170272,-0.42616 -0.416193,-16.83713 -0.254787,-17.00224 z"
       id="path21"
       sodipodi:nodetypes="cssssssssssssssssscssssssscsscsscssscssssscscscsssccccssssssssssss" />
  </g>
</svg>
