<?xml version="1.0" encoding="UTF-8" standalone="no"?>
<!-- Created with Inkscape (http://www.inkscape.org/) -->

<svg
   width="210mm"
   height="297mm"
   viewBox="0 0 210 297"
   version="1.1"
   id="svg5"
   inkscape:version="1.1.2 (b8e25be833, 2022-02-05)"
   sodipodi:docname="DIOMTK.svg"
   xmlns:inkscape="http://www.inkscape.org/namespaces/inkscape"
   xmlns:sodipodi="http://sodipodi.sourceforge.net/DTD/sodipodi-0.dtd"
   xmlns="http://www.w3.org/2000/svg"
   xmlns:svg="http://www.w3.org/2000/svg">
  <sodipodi:namedview
     id="namedview7"
     pagecolor="#ffffff"
     bordercolor="#999999"
     borderopacity="1"
     inkscape:pageshadow="0"
     inkscape:pageopacity="0"
     inkscape:pagecheckerboard="0"
     inkscape:document-units="mm"
     showgrid="false"
     inkscape:zoom="2.8284271"
     inkscape:cx="257.38687"
     inkscape:cy="370.52395"
     inkscape:window-width="1920"
     inkscape:window-height="1017"
     inkscape:window-x="-1928"
     inkscape:window-y="-2"
     inkscape:window-maximized="1"
     inkscape:current-layer="layer1" />
  <defs
     id="defs2">
    <inkscape:perspective
       sodipodi:type="inkscape:persp3d"
       inkscape:vp_x="0 : 148.5 : 1"
       inkscape:vp_y="0 : 1000 : 0"
       inkscape:vp_z="210 : 148.5 : 1"
       inkscape:persp3d-origin="105 : 99 : 1"
       id="perspective23704" />
    <clipPath
       clipPathUnits="userSpaceOnUse"
       id="clipPath55856">
      <g
         inkscape:label="Clip"
         id="use55858">
        <g
           aria-label="DIOM K"
           id="g328"
           style="font-size:10.5833px;line-height:1.25;stroke-width:0.264583">
          <path
             d="m 48.945037,85.281105 q 0,1.049028 -0.459919,1.901686 -0.454751,0.852659 -1.214392,1.322913 -0.527098,0.32556 -1.178219,0.470254 -0.645954,0.144693 -1.705317,0.144693 h -1.943028 v -7.694596 h 1.922357 q 1.126543,0 1.787999,0.165364 0.666624,0.160196 1.126543,0.444416 0.785479,0.490924 1.224727,1.30741 0.439249,0.816485 0.439249,1.93786 z m -1.069699,-0.0155 q 0,-0.904335 -0.315225,-1.52445 -0.315225,-0.620115 -0.940508,-0.976682 -0.454751,-0.258381 -0.966347,-0.356566 -0.511595,-0.103352 -1.224727,-0.103352 h -0.961179 v 5.937603 h 0.961179 q 0.738971,0 1.286739,-0.10852 0.552936,-0.108521 1.012855,-0.403075 0.573606,-0.366902 0.857826,-0.966347 0.289387,-0.599444 0.289387,-1.498611 z"
             id="path318" />
          <path
             d="m 53.311682,89.120651 h -3.038565 v -0.785479 h 1.007687 v -6.123638 h -1.007687 v -0.785479 h 3.038565 v 0.785479 h -1.007688 v 6.123638 h 1.007688 z"
             id="path320" />
          <path
             d="m 60.789238,82.309719 q 0.470254,0.516763 0.7183,1.266069 0.253214,0.749306 0.253214,1.700149 0,0.950843 -0.258382,1.705317 -0.253213,0.749306 -0.713132,1.250565 -0.475422,0.521931 -1.126543,0.78548 -0.645953,0.263549 -1.477941,0.263549 -0.811318,0 -1.477941,-0.268717 -0.661457,-0.268717 -1.126543,-0.780312 -0.465086,-0.511595 -0.7183,-1.255733 -0.248046,-0.744138 -0.248046,-1.700149 0,-0.940508 0.248046,-1.684646 0.248046,-0.749306 0.723468,-1.281572 0.454751,-0.506427 1.126542,-0.775144 0.676959,-0.268716 1.472774,-0.268716 0.82682,0 1.483109,0.273884 0.661456,0.268716 1.121375,0.769976 z m -0.09302,2.966218 q 0,-1.498612 -0.671791,-2.309929 -0.671792,-0.816485 -1.834508,-0.816485 -1.173051,0 -1.844842,0.816485 -0.666624,0.811317 -0.666624,2.309929 0,1.514115 0.682127,2.320264 0.682126,0.800982 1.829339,0.800982 1.147214,0 1.824173,-0.800982 0.682126,-0.806149 0.682126,-2.320264 z"
             id="path322" />
          <path
             d="m 70.23566,89.120651 h -1.02319 v -6.630065 l -2.139398,4.511338 h -0.60978 l -2.123895,-4.511338 v 6.630065 h -0.95601 v -7.694596 h 1.395259 l 2.051548,4.283963 1.984368,-4.283963 h 1.421098 z"
             id="path324" />
          <path
             d="M 82.20905,89.120651 H 80.88097 L 77.837238,85.694515 77.072429,86.511 v 2.609651 h -1.02319 v -7.694596 h 1.02319 v 4.015246 l 3.736195,-4.015246 h 1.24023 l -3.436472,3.617339 z"
             id="path326" />
        </g>
      </g>
    </clipPath>
  </defs>
  <g
     inkscape:label="Ebene 1"
     inkscape:groupmode="layer"
     id="layer1">
    <text
       xml:space="preserve"
       style="font-style:normal;font-weight:normal;font-size:10.5833px;line-height:1.25;font-family:sans-serif;fill:#000000;fill-opacity:1;stroke:none;stroke-width:0.264583"
       x="71.461754"
       y="90.256599"
       id="text7833"><tspan
         id="tspan7831"
         style="stroke-width:0.264583"
         sodipodi:role="line" /></text>
    <g
       aria-label="DIOM K"
       id="text1569"
       style="font-size:10.5833px;line-height:1.25;stroke-width:0.264583">
      <path
         d="m 45.916357,85.281105 q 0,1.049028 -0.459919,1.901686 -0.454751,0.852659 -1.214392,1.322913 -0.527098,0.32556 -1.178219,0.470254 -0.645954,0.144693 -1.705317,0.144693 h -1.943028 v -7.694596 h 1.922357 q 1.126543,0 1.787999,0.165364 0.666624,0.160196 1.126543,0.444416 0.785479,0.490924 1.224727,1.30741 0.439249,0.816485 0.439249,1.93786 z m -1.069699,-0.0155 q 0,-0.904335 -0.315225,-1.52445 -0.315225,-0.620115 -0.940508,-0.976682 -0.454751,-0.258381 -0.966347,-0.356566 -0.511595,-0.103352 -1.224727,-0.103352 h -0.961179 v 5.937603 h 0.961179 q 0.738971,0 1.286739,-0.10852 0.552936,-0.108521 1.012855,-0.403075 0.573606,-0.366902 0.857826,-0.966347 0.289387,-0.599444 0.289387,-1.498611 z"
         id="path55860" />
      <path
         d="m 50.283002,89.120651 h -3.038565 v -0.785479 h 1.007687 v -6.123638 h -1.007687 v -0.785479 h 3.038565 v 0.785479 h -1.007688 v 6.123638 h 1.007688 z"
         id="path55862" />
      <path
         d="m 57.760558,82.309719 q 0.470254,0.516763 0.7183,1.266069 0.253214,0.749306 0.253214,1.700149 0,0.950843 -0.258382,1.705317 -0.253213,0.749306 -0.713132,1.250565 -0.475422,0.521931 -1.126543,0.78548 -0.645953,0.263549 -1.477941,0.263549 -0.811318,0 -1.477941,-0.268717 -0.661457,-0.268717 -1.126543,-0.780312 -0.465086,-0.511595 -0.7183,-1.255733 -0.248046,-0.744138 -0.248046,-1.700149 0,-0.940508 0.248046,-1.684646 0.248046,-0.749306 0.723468,-1.281572 0.454751,-0.506427 1.126542,-0.775144 0.676959,-0.268716 1.472774,-0.268716 0.82682,0 1.483109,0.273884 0.661456,0.268716 1.121375,0.769976 z m -0.09302,2.966218 q 0,-1.498612 -0.671791,-2.309929 -0.671792,-0.816485 -1.834508,-0.816485 -1.173051,0 -1.844842,0.816485 -0.666624,0.811317 -0.666624,2.309929 0,1.514115 0.682127,2.320264 0.682126,0.800982 1.829339,0.800982 1.147214,0 1.824173,-0.800982 0.682126,-0.806149 0.682126,-2.320264 z"
         id="path55864" />
      <path
         d="m 67.20698,89.120651 h -1.02319 v -6.630065 l -2.139398,4.511338 h -0.60978 l -2.123895,-4.511338 v 6.630065 h -0.95601 v -7.694596 h 1.395259 l 2.051548,4.283963 1.984368,-4.283963 h 1.421098 z"
         id="path55866" />
      <path
         d="M 82.20905,89.120651 H 80.88097 L 77.837238,85.694515 77.072429,86.511 v 2.609651 h -1.02319 v -7.694596 h 1.02319 v 4.015246 l 3.736195,-4.015246 h 1.24023 l -3.436472,3.617339 z"
         id="path55868" />
    </g>
    <path
       id="rect23573"
       style="stroke-width:0.342061"
       d="m 39.410168,79.887093 h 42.652977 v 1.091343 H 39.410168 Z" />
    <path
       id="rect27507"
       style="stroke-width:0.108833"
       d="M 72.563202,80.977928 H 73.5907 v 8.163794 h -1.027498 z" />
    <g
       aria-label="75"
       id="text37729"
       style="font-size:4.58611px;line-height:1.25;stroke-width:0.264583">
      <path
         d="m 84.033672,79.355423 -1.509296,2.834969 h -0.479213 l 1.605587,-2.942456 h -1.898936 v -0.391879 h 2.281858 z"
         id="path55910" />
      <path
         d="m 86.913427,81.131197 q 0,0.232889 -0.08509,0.445623 -0.08509,0.212735 -0.232889,0.35829 -0.16123,0.156752 -0.385161,0.241846 -0.221692,0.08285 -0.515042,0.08285 -0.273196,0 -0.526238,-0.05822 -0.253042,-0.05598 -0.427709,-0.136598 v -0.472495 h 0.03135 q 0.183623,0.116445 0.429948,0.199299 0.246324,0.08062 0.483691,0.08062 0.158991,0 0.306786,-0.04479 0.150033,-0.04479 0.266478,-0.156752 0.09853,-0.09629 0.147794,-0.230649 0.0515,-0.134359 0.0515,-0.311264 0,-0.172427 -0.06046,-0.291111 -0.05822,-0.118683 -0.16347,-0.190341 -0.116444,-0.08509 -0.284392,-0.118684 -0.165709,-0.03583 -0.371726,-0.03583 -0.197059,0 -0.380683,0.02687 -0.181384,0.02687 -0.313504,0.05374 v -1.717552 h 2.006424 v 0.391879 h -1.574237 v 0.886768 q 0.09629,-0.009 0.19706,-0.01344 0.100769,-0.0045 0.174666,-0.0045 0.270957,0 0.474734,0.04703 0.203778,0.04479 0.373965,0.16123 0.179145,0.123162 0.277675,0.317982 0.09853,0.19482 0.09853,0.48817 z"
         id="path55912" />
    </g>
  </g>
</svg>
