<?xml version="1.0" encoding="UTF-8" standalone="no"?>
<!-- Created with Inkscape (http://www.inkscape.org/) -->

<svg
   width="210mm"
   height="297mm"
   viewBox="0 0 210 297"
   version="1.1"
   id="svg5"
   inkscape:version="1.1.2 (b8e25be833, 2022-02-05)"
   sodipodi:docname="FireForceSkull.svg"
   xmlns:inkscape="http://www.inkscape.org/namespaces/inkscape"
   xmlns:sodipodi="http://sodipodi.sourceforge.net/DTD/sodipodi-0.dtd"
   xmlns="http://www.w3.org/2000/svg"
   xmlns:svg="http://www.w3.org/2000/svg">
  <sodipodi:namedview
     id="namedview7"
     pagecolor="#ffffff"
     bordercolor="#999999"
     borderopacity="1"
     inkscape:pageshadow="0"
     inkscape:pageopacity="0"
     inkscape:pagecheckerboard="0"
     inkscape:document-units="mm"
     showgrid="false"
     inkscape:zoom="0.90583672"
     inkscape:cx="407.35818"
     inkscape:cy="542.04029"
     inkscape:window-width="1920"
     inkscape:window-height="1017"
     inkscape:window-x="-8"
     inkscape:window-y="-8"
     inkscape:window-maximized="1"
     inkscape:current-layer="layer1" />
  <defs
     id="defs2" />
  <g
     inkscape:label="Ebene 1"
     inkscape:groupmode="layer"
     id="layer1">
    <path
       style="fill:#000000;stroke-width:0.264583"
       d="m 110.29068,82.412215 c -73.52712,-54.941477 -36.76356,-27.470738 0,0 z m -6.51499,128.909875 c -2.48685,-0.063 -3.01302,-0.15173 -3.39399,-0.57271 -0.401096,-0.4432 -0.458572,-1.40757 -0.520529,-8.73373 -0.04438,-5.24731 -0.169336,-8.33519 -0.34439,-8.51025 -0.151106,-0.1511 -1.97386,-0.56229 -4.050562,-0.91374 -2.076704,-0.35146 -4.204433,-0.75807 -4.728286,-0.90359 -1.796389,-0.499 -2.011829,-0.39898 -2.767463,1.2848 -0.822007,1.83167 -3.370503,8.88071 -3.86538,10.69147 -0.189933,0.69498 -0.448064,1.32708 -0.573622,1.40468 -0.12556,0.0776 -0.232177,0.40196 -0.236929,0.72079 -0.0048,0.31883 -0.233844,1.23454 -0.509095,2.0349 -0.364646,1.06031 -0.649094,1.4781 -1.048168,1.53956 -0.301241,0.0464 -2.185509,-0.41753 -4.187259,-1.03094 -2.00175,-0.61341 -4.592047,-1.40722 -5.756214,-1.76403 -1.164167,-0.35681 -2.652448,-0.80554 -3.307292,-0.99717 -1.545341,-0.45223 -6.652754,-2.70537 -7.066777,-3.11751 -0.356293,-0.35467 0.210362,-2.58207 1.763779,-6.93303 2.4204,-6.7793 5.302998,-15.65348 5.302998,-16.32548 0,-0.49613 -0.311922,-1.10636 -0.891386,-1.74386 -4.360286,-4.79698 -5.629773,-6.46323 -7.5506,-9.91045 -3.775873,-6.77639 -7.369186,-16.90567 -8.342045,-23.51562 -1.010007,-6.86234 -0.178596,-13.99526 2.554071,-21.91212 1.943459,-5.63043 4.71992,-10.86815 7.347428,-13.86071 0.633217,-0.7212 0.921168,-0.86045 1.579504,-0.76382 0.539356,0.0792 0.805112,0.006 0.805112,-0.22055 0,-0.18629 0.0893,-0.24941 0.198437,-0.14027 0.109141,0.10914 0.198438,0.33571 0.198438,0.50349 0,0.42913 0.952889,0.56468 1.196668,0.17024 0.236,-0.38186 1.581457,-0.13087 1.581457,0.29501 0,0.15134 -0.119063,0.20158 -0.264584,0.11164 -0.145521,-0.0899 -0.264583,0.0184 -0.264583,0.24067 0,0.24549 0.151535,0.34603 0.385964,0.25607 0.21228,-0.0815 0.817411,-0.006 1.344736,0.16832 0.869485,0.28695 0.995096,0.26456 1.34883,-0.24046 0.214532,-0.30629 0.621433,-0.55689 0.904222,-0.55689 0.622181,0 0.696828,-0.84195 0.11729,-1.32292 -0.218282,-0.18116 -0.396875,-0.49455 -0.396875,-0.69644 0,-0.20189 -0.238125,-0.57096 -0.529167,-0.82016 -0.856864,-0.73367 -0.683154,-1.21701 0.366609,-1.02008 0.816253,0.15314 0.912093,0.10303 1.079603,-0.56438 0.299797,-1.19449 0.606574,-1.39549 1.866321,-1.22282 0.62988,0.0863 1.570987,0.0771 2.091351,-0.0205 1.231556,-0.23104 1.2328,-0.79574 0.0053,-2.40386 -0.995497,-1.304166 -1.440426,-2.238563 -1.440426,-3.025045 0,-1.424242 12.724691,-8.015234 16.702323,-8.651283 0.938906,-0.150137 1.149469,-0.08637 1.64601,0.498504 0.775263,0.913177 2.081503,1.131603 2.697395,0.45105 0.257146,-0.284141 0.630653,-0.516621 0.830019,-0.516621 0.199364,0 0.431732,-0.34625 0.516372,-0.769444 0.128783,-0.643926 0.341042,-0.81657 1.301173,-1.058333 1.817971,-0.457771 2.745282,-0.311824 5.745042,0.904191 0.36008,0.145965 0.53023,0.0061 0.74609,-0.613075 0.1538,-0.44119 0.47517,-0.877195 0.71415,-0.9689 0.95077,-0.364846 6.42638,-0.718305 8.92122,-0.57588 2.92429,0.166943 14.23293,2.418437 17.06562,3.397679 4.54342,1.57063 14.10407,7.16743 20.6375,12.081187 6.10881,4.59439 12.02434,12.82512 14.71233,20.47038 2.67501,7.60835 3.14928,10.41741 3.13928,18.59365 -0.007,5.5756 -0.0806,6.6888 -0.605,9.12813 -0.61704,2.87028 -1.62648,6.22387 -2.42902,8.06979 -0.25306,0.58208 -0.94669,2.30849 -1.54137,3.83646 -1.18432,3.04293 -2.47855,5.65226 -3.97324,8.01051 -1.7079,2.69467 -6.11672,8.35814 -7.07626,9.09001 -1.57067,1.19801 -1.58644,1.44469 -0.21243,3.32239 1.1896,1.62571 5.86301,9.5308 7.91413,13.38678 l 1.02047,1.91844 -1.17496,1.20199 c -0.64623,0.66109 -1.59169,1.45769 -2.10101,1.77022 -0.50932,0.31253 -1.0451,0.70226 -1.19062,0.86607 -0.29316,0.32999 -6.25437,4.04349 -8.71164,5.42687 -1.4654,0.82497 -1.58647,0.85149 -1.85209,0.40562 -0.6509,-1.09263 -1.27422,-1.74265 -1.67106,-1.74265 -0.23234,0 -1.05879,-0.35914 -1.83657,-0.7981 -1.26428,-0.71351 -1.60303,-0.7875 -3.1964,-0.69817 -0.98023,0.055 -1.62276,0.0434 -1.42783,-0.0256 0.239,-0.0847 0.15284,-0.22585 -0.26459,-0.43363 -0.53644,-0.26704 -4.4447,-6.27743 -5.95434,-9.15702 -0.27069,-0.51634 -0.7196,-0.95631 -1.01465,-0.99445 -0.29104,-0.0376 -2.07515,0.43863 -3.96469,1.05834 -2.8312,0.92853 -3.49082,1.24309 -3.74988,1.78819 -0.29648,0.62387 -0.51309,2.624 -1.25212,11.56193 -0.17085,2.06619 -0.36636,3.81075 -0.43447,3.87679 -0.15549,0.15079 -14.71806,0.32971 -18.67737,0.22949 z m 1.02083,-17.65258 c 0.2885,-0.39268 0.24316,-1.45521 -0.0621,-1.45521 -0.14552,0 -0.48339,0.20836 -0.75082,0.46302 -0.26743,0.25466 -0.7054,0.58968 -0.97325,0.74449 -0.30164,0.17434 -0.42439,0.44469 -0.32247,0.71027 0.14084,0.36703 0.29055,0.38365 1.03939,0.1154 0.48117,-0.17236 0.96233,-0.43245 1.06924,-0.57797 z m -1.78844,0.14289 c 0.0935,-0.15135 0.32891,-0.27519 0.52303,-0.27519 0.19413,0 0.42148,-0.17859 0.50525,-0.39687 0.15499,-0.40389 0.7014,-0.56013 0.69402,-0.19844 -0.009,0.43359 -0.42889,0.78725 -1.1426,0.96206 -0.4927,0.12067 -0.69146,0.0893 -0.5797,-0.0916 z m 13.87311,-19.56187 c 2.99132,-0.931 5.42338,-2.92486 6.74219,-5.52739 2.35253,-4.6425 1.81926,-9.92428 -1.34447,-13.31622 -1.57757,-1.69138 -2.78303,-2.46869 -4.6146,-2.97565 -6.34114,-1.75514 -12.22339,0.55966 -14.8247,5.83384 -1.47262,2.98574 -1.30578,7.22149 0.41846,10.62412 2.14839,4.23965 8.8072,6.86019 13.62312,5.3613 z m 26.74783,-22.21549 c 1.82265,-0.52142 4.71882,-1.8837 5.81999,-2.73756 1.6104,-1.24871 4.13804,-3.90889 5.05423,-5.31925 2.60033,-4.00287 2.99191,-9.63893 1.03008,-14.82606 -0.85755,-2.26742 -3.47784,-6.03395 -5.09605,-7.32531 -3.22578,-2.57425 -7.11722,-3.80163 -11.57992,-3.65236 -2.69777,0.0902 -2.86884,0.13303 -5.37506,1.34469 -4.49691,2.17407 -7.34845,5.31413 -8.95092,9.85657 -0.78893,2.23632 -0.84033,2.60669 -0.84458,6.08541 -0.004,3.1638 0.0817,3.94883 0.58643,5.38126 0.87053,2.47049 2.42979,4.75459 4.77595,6.9961 2.18656,2.08903 4.709,3.52714 7.50987,4.28157 1.98321,0.53419 5.03366,0.49749 7.06998,-0.0851 z m -51.100969,-0.8712 c 3.125657,-0.75667 8.154669,-3.74866 10.087159,-6.00131 2.60748,-3.03946 3.78532,-6.4427 3.81546,-11.02427 0.0317,-4.82251 -1.00158,-8.27329 -3.68685,-12.3125 -3.271859,-4.92158 -10.229308,-7.81094 -17.205609,-7.14531 -5.139602,0.49038 -8.265355,2.02745 -11.831082,5.81783 -3.612448,3.84006 -4.82959,7.15486 -4.619775,12.58164 0.199601,5.1626 1.763731,8.80721 5.315542,12.38586 2.518916,2.53794 3.034954,2.92021 5.725282,4.24123 3.899892,1.91495 8.348475,2.43761 12.399873,1.45683 z m -19.934169,-46.0174 c 0.209306,-0.65947 0.02872,-0.89464 -0.524084,-0.68251 -0.514625,0.19748 -0.539176,1.23162 -0.02924,1.23162 0.208476,0 0.457473,-0.2471 0.553326,-0.54911 z"
       id="path405"
       sodipodi:nodetypes="ccssssssssscssssssssssssscssssscsccsssssssccssssssssssssssscssssssscsssssssscssssssssssssssssscsscsccssssssscssssssscsssccsssssssssssssss" />
  </g>
</svg>
