<?xml version="1.0" encoding="UTF-8" standalone="no"?>
<!-- Created with Inkscape (http://www.inkscape.org/) -->

<svg
   width="210mm"
   height="297mm"
   viewBox="0 0 210 297"
   version="1.1"
   id="svg5"
   inkscape:version="1.1.2 (b8e25be833, 2022-02-05)"
   sodipodi:docname="FireForceSkull.svg"
   xmlns:inkscape="http://www.inkscape.org/namespaces/inkscape"
   xmlns:sodipodi="http://sodipodi.sourceforge.net/DTD/sodipodi-0.dtd"
   xmlns="http://www.w3.org/2000/svg"
   xmlns:svg="http://www.w3.org/2000/svg">
  <sodipodi:namedview
     id="namedview7"
     pagecolor="#ffffff"
     bordercolor="#999999"
     borderopacity="1"
     inkscape:pageshadow="0"
     inkscape:pageopacity="0"
     inkscape:pagecheckerboard="0"
     inkscape:document-units="mm"
     showgrid="false"
     inkscape:zoom="0.45291836"
     inkscape:cx="-33.118551"
     inkscape:cy="695.48958"
     inkscape:window-width="1920"
     inkscape:window-height="1017"
     inkscape:window-x="-1928"
     inkscape:window-y="-2"
     inkscape:window-maximized="1"
     inkscape:current-layer="layer1" />
  <defs
     id="defs2" />
  <g
     inkscape:label="Ebene 1"
     inkscape:groupmode="layer"
     id="layer1">
    <path
       style="fill:#000000;stroke-width:0.264583"
       d="m 78.682809,83.174732 c -88.6763663,-23.69189 -44.338176,-11.84594 0,0 z M 120.52721,205.27817 c -2.33225,0.86543 -2.85373,0.97853 -3.36383,0.72923 -0.53705,-0.26246 -0.9487,-1.13645 -3.72806,-7.91522 -1.99071,-4.85523 -3.25394,-7.67567 -3.4815,-7.77316 -0.19643,-0.0841 -2.04149,0.21129 -4.10012,0.65654 -2.05864,0.44524 -4.18514,0.85824 -4.72556,0.91776 -1.853196,0.20411 -2.016056,0.37702 -2.092046,2.22101 -0.0827,2.00596 0.17014,9.49728 0.38343,11.36229 0.0819,0.7158 0.077,1.39856 -0.0107,1.51726 -0.0877,0.11869 -0.0662,0.45944 0.0478,0.75722 0.11399,0.29779 0.24155,1.23305 0.28335,2.07839 0.0554,1.11989 -0.0535,1.61346 -0.40116,1.81878 -0.26244,0.155 -2.1842,0.42433 -4.27056,0.59852 -2.086367,0.17419 -4.786177,0.39956 -5.999587,0.5008 -1.2134,0.10125 -2.76187,0.23757 -3.441037,0.30294 -1.602745,0.15427 -7.181682,-0.0401 -7.719191,-0.26889 -0.462559,-0.19691 -0.763995,-2.47541 -0.938251,-7.09208 -0.271514,-7.19329 -0.89221,-16.50324 -1.141874,-17.12714 -0.184324,-0.46062 -0.700635,-0.91129 -1.475469,-1.28787 -5.830383,-2.83368 -7.628056,-3.90902 -10.692121,-6.39587 -6.023198,-4.88853 -13.122582,-12.9578 -16.481561,-18.73319 -3.48723,-5.99591 -5.36538,-12.92717 -5.76961,-21.29262 -0.28748,-5.94947 0.34431,-11.84381 1.67194,-15.59835 0.31995,-0.90484 0.53556,-1.1411 1.18267,-1.29598 0.53018,-0.12685 0.74972,-0.29354 0.66555,-0.50388 -0.0692,-0.17295 -0.01,-0.26473 0.13212,-0.20395 0.14188,0.0608 0.30896,0.23795 0.37129,0.39373 0.15943,0.39841 1.09448,0.17024 1.17427,-0.28654 0.0772,-0.44221 1.41964,-0.70905 1.57786,-0.31365 0.0562,0.1405 -0.0357,0.23138 -0.20417,0.20194 -0.1685,-0.0294 -0.23881,0.11539 -0.15623,0.32175 0.0912,0.22792 0.26925,0.26496 0.45348,0.0943 0.166801,-0.15453 0.756669,-0.30926 1.311014,-0.34333 0.913859,-0.0566 1.022161,-0.12407 1.162949,-0.72437 0.08538,-0.36407 0.370055,-0.7479 0.632603,-0.85297 0.577648,-0.23115 0.334147,-1.04057 -0.382601,-1.2718 -0.269963,-0.0871 -0.552205,-0.31171 -0.627212,-0.49915 -0.07501,-0.18743 -0.433206,-0.44162 -0.796,-0.56485 -1.068108,-0.36281 -1.086404,-0.8761 -0.03862,-1.08327 0.814724,-0.16108 0.885087,-0.24321 0.792649,-0.92508 -0.165443,-1.22038 0.0447,-1.52097 1.278429,-1.82868 0.616858,-0.15389 1.487186,-0.51208 1.934044,-0.79602 1.057568,-0.67206 0.848924,-1.1968 -0.888171,-2.23377 -1.408771,-0.84097 -2.169004,-1.54318 -2.461201,-2.27337 -0.529139,-1.3223 8.836053,-12.169058 12.292673,-14.237368 0.815923,-0.48821 1.035105,-0.50724 1.7134,-0.14871 1.059039,0.55979 2.352934,0.27728 2.671901,-0.58338 0.133175,-0.35934 0.393576,-0.71394 0.578672,-0.78801 0.185094,-0.0741 0.27219,-0.48187 0.193545,-0.90622 -0.119668,-0.64568 0.01326,-0.88482 0.814844,-1.46599 1.517774,-1.10043 2.432934,-1.30945 5.66976,-1.29495 0.388537,0.002 0.494545,-0.19133 0.464916,-0.84638 -0.02112,-0.46675 0.11526,-0.99095 0.303064,-1.16488 0.747169,-0.69196 5.699535,-3.05444 8.068717,-3.8491 2.777003,-0.93145 14.112696,-3.04254 17.106442,-3.1858 4.80174,-0.22978 15.75743,1.41442 23.64879,3.54914 7.37849,1.99597 15.92852,7.43982 21.26451,13.53921 5.31022,6.069938 6.79418,8.501728 9.82256,16.096458 2.06497,5.17912 2.41021,6.23998 2.82962,8.69954 0.4935,2.89408 0.80225,6.38267 0.74296,8.39462 -0.0187,0.63444 -0.0213,2.49498 -0.006,4.13452 0.031,3.26513 -0.2012,6.16853 -0.71276,8.9133 -0.58452,3.13632 -2.57366,10.0324 -3.19261,11.06837 -1.01316,1.69581 -0.93615,1.93069 1.03712,3.16351 1.70844,1.06738 8.98428,6.67037 12.32117,9.48832 l 1.66018,1.40199 -0.6443,1.55248 c -0.35436,0.85386 -0.93619,1.94471 -1.29294,2.42409 -0.35676,0.47939 -0.70939,1.04028 -0.78364,1.24643 -0.14958,0.41528 -4.30445,6.07771 -6.07188,8.27501 -1.05402,1.31035 -1.15657,1.37995 -1.56883,1.06468 -1.01024,-0.7726 -1.83045,-1.14451 -2.19888,-0.99708 -0.21571,0.0863 -1.11644,0.0599 -2.00163,-0.0586 -1.43887,-0.19273 -1.78087,-0.13557 -3.227,0.53934 -0.88964,0.41524 -1.49048,0.64319 -1.33514,0.5067 0.19042,-0.16743 0.058,-0.26647 -0.40676,-0.30429 -0.59725,-0.0486 -6.45878,-4.1768 -8.9302,-6.28941 -0.44314,-0.37882 -1.02338,-0.62051 -1.31148,-0.54631 -0.28418,0.0732 -1.76366,1.17821 -3.28772,2.45557 -2.28358,1.91392 -2.77912,2.45103 -2.81712,3.05336 -0.0435,0.68937 0.49852,2.62681 3.13304,11.19956 0.60901,1.98178 1.07564,3.67411 1.03694,3.76072 -0.0883,0.19777 -13.5421,5.77422 -17.25525,7.15215 z m -1.60551,-39.28711 c 2.43133,-1.97571 3.94854,-4.73043 4.20606,-7.63665 0.45934,-5.18422 -1.99807,-9.88983 -6.19553,-11.86359 -2.09304,-0.98421 -3.50101,-1.25802 -5.38983,-1.04823 -6.53935,0.72637 -11.14057,5.06088 -11.596196,10.92401 -0.25794,3.31914 1.470636,7.18972 4.335616,9.70821 3.56975,3.13801 10.72554,3.09708 14.63988,-0.0838 z m 16.57974,-30.56284 c 1.49847,-1.16125 3.68122,-3.50202 4.38634,-4.70388 1.03121,-1.75763 2.38961,-5.16648 2.71624,-6.81628 0.92705,-4.68244 -0.80333,-10.06057 -4.55188,-14.14756 -1.63857,-1.78653 -5.47066,-4.30996 -7.45282,-4.90769 -3.95128,-1.19154 -8.02019,-0.88531 -12.10801,0.91128 -2.47116,1.08603 -2.61407,1.18935 -4.49074,3.2454 -3.36732,3.68917 -4.84815,7.66389 -4.6483,12.47655 0.0984,2.36936 0.18827,2.73232 1.47675,5.96362 1.17171,2.93883 1.54293,3.63583 2.54372,4.77822 1.72606,1.97024 4.02232,3.51155 7.03332,4.72096 2.80618,1.12715 5.68236,1.52518 8.56304,1.18502 2.03973,-0.24086 4.8582,-1.40824 6.53232,-2.70568 z M 87.734427,153.6046 c 2.62081,-1.86377 6.178267,-6.51 7.135517,-9.31938 1.29162,-3.79064 1.12077,-7.38789 -0.55341,-11.65272 -1.762247,-4.48911 -4.003617,-7.30901 -7.997342,-10.06146 -4.866154,-3.35374 -12.399079,-3.45143 -18.628743,-0.24159 -4.58954,2.36477 -6.920504,4.95311 -8.822793,9.79694 -1.927209,4.90731 -1.825705,8.43705 0.385269,13.39745 2.103342,4.71892 4.909576,7.52155 9.536714,9.52447 3.281526,1.42045 3.90265,1.58363 6.891204,1.81058 4.3322,0.32898 8.65655,-0.83852 12.053584,-3.25429 z M 52.130519,118.28698 c -0.05068,-0.69003 -0.305715,-0.84128 -0.74014,-0.43895 -0.404422,0.37454 -0.04301,1.34378 0.430429,1.15433 0.193554,-0.0775 0.332925,-0.39938 0.309713,-0.71538 z"
       id="path405"
       sodipodi:nodetypes="ccssssssssscssssssssssssscssssscsccsssssssccssssssssssssssscssssssscsssssssscssssssssscsssssscssssssscsssccssssssssssssssss" />
  </g>
</svg>
