<?xml version="1.0" encoding="UTF-8" standalone="no"?>
<!-- Created with Inkscape (http://www.inkscape.org/) -->

<svg
   width="210mm"
   height="297mm"
   viewBox="0 0 210 297"
   version="1.1"
   id="svg240"
   inkscape:version="1.1.2 (b8e25be833, 2022-02-05)"
   sodipodi:docname="Friend.svg"
   xmlns:inkscape="http://www.inkscape.org/namespaces/inkscape"
   xmlns:sodipodi="http://sodipodi.sourceforge.net/DTD/sodipodi-0.dtd"
   xmlns="http://www.w3.org/2000/svg"
   xmlns:svg="http://www.w3.org/2000/svg">
  <sodipodi:namedview
     id="namedview242"
     pagecolor="#ffffff"
     bordercolor="#999999"
     borderopacity="1"
     inkscape:pageshadow="0"
     inkscape:pageopacity="0"
     inkscape:pagecheckerboard="0"
     inkscape:document-units="mm"
     showgrid="false"
     inkscape:zoom="0.45291836"
     inkscape:cx="-29.806696"
     inkscape:cy="534.31263"
     inkscape:window-width="1920"
     inkscape:window-height="1017"
     inkscape:window-x="-1928"
     inkscape:window-y="-2"
     inkscape:window-maximized="1"
     inkscape:current-layer="layer1" />
  <defs
     id="defs237" />
  <g
     inkscape:label="Ebene 1"
     inkscape:groupmode="layer"
     id="layer1">
    <path
       style="fill:#000000;stroke-width:0.352778"
       d="m 107.14859,191.02077 c -2.41321,-3.69879 -2.03348,-3.53116 -6.376,-2.81471 l -2.387146,0.39383 -0.290921,1.19641 c -0.159996,0.65803 -0.106855,2.68922 0.118102,4.51376 0.224944,1.82452 0.338469,3.4955 0.25226,3.71326 -0.4965,1.25434 -3.277778,-2.7609 -3.905821,-5.63877 -0.232836,-1.06686 -0.572422,-2.16841 -0.754647,-2.44789 -0.19603,-0.30065 -1.591774,-0.5289 -3.418352,-0.55899 -1.697865,-0.028 -4.107472,-0.16759 -5.354668,-0.31026 -1.247195,-0.14268 -2.421787,-0.15884 -2.610205,-0.0359 -0.632115,0.41241 -1.616058,4.28946 -1.648246,6.49452 -0.03567,2.44369 -0.511647,3.05894 -1.565563,2.0236 -1.048018,-1.02955 -1.689048,-3.65516 -1.592583,-6.52315 0.04682,-1.39241 -0.02122,-2.69467 -0.151231,-2.89394 -0.129996,-0.19926 -2.463658,-1.0161 -5.185908,-1.81521 -2.722238,-0.79909 -5.021489,-1.56319 -5.109422,-1.69798 -0.08794,-0.13479 -0.510494,-0.21461 -0.93899,-0.17737 -0.832286,0.0723 -1.408597,1.63569 -2.701669,7.32891 -0.479384,2.11061 -0.676315,2.48744 -1.264548,2.41971 -0.383211,-0.0441 -0.94835,-0.46586 -1.255867,-0.93721 -0.498436,-0.76397 -1.026032,-5.53164 -0.959217,-8.66804 0.01356,-0.63656 -0.08736,-1.32892 -0.224258,-1.53857 -0.463588,-0.7099 -7.90174,-1.68422 -14.431008,-1.89029 -5.768707,-0.18208 -6.594677,-0.30394 -7.371614,-1.0876 -1.696697,-1.71139 -1.476548,-2.48387 1.556958,-5.46346 3.314933,-3.25603 5.024421,-5.13821 5.015018,-5.52179 -0.0039,-0.16041 -0.75323,-0.72288 -1.665098,-1.24992 -1.91586,-1.10732 -3.608378,-3.33396 -2.890322,-3.80244 0.240436,-0.15689 1.057541,0.0708 1.815762,0.50587 1.560819,0.89567 4.631758,1.18465 5.634787,0.53024 1.005485,-0.656 5.283727,-13.9659 4.776051,-14.85856 -0.132355,-0.23273 -1.22188,-1.005 -2.421161,-1.71615 -2.239227,-1.32782 -4.846457,-4.12444 -4.22384,-4.53065 0.172846,-0.1128 2.091879,0.4359 4.264498,1.2193 2.172615,0.78339 4.070954,1.34558 4.218532,1.24929 0.147521,-0.0963 0.562858,-0.80733 0.922853,-1.58008 0.36039,-0.77258 1.677066,-3.28533 2.926827,-5.58349 1.249759,-2.29817 2.228297,-4.38322 2.174523,-4.63345 -0.05378,-0.25023 -0.843255,-1.00388 -1.754398,-1.67477 -2.916299,-2.14733 -5.170097,-5.52764 -4.135554,-6.20261 0.208042,-0.13573 2.105605,0.71129 4.216814,1.88226 2.861089,1.58688 3.969468,2.02841 4.352684,1.7339 0.54867,-0.42179 0.859066,-0.81298 4.350481,-5.49054 l 2.247714,-3.01104 -2.142735,-3.63458 c -1.992726,-3.38011 -2.646606,-5.20134 -2.015344,-5.61319 0.311451,-0.2032 2.117818,1.14046 4.606196,3.4263 2.759245,2.53468 2.772095,2.53536 5.021877,0.26882 1.036284,-1.04407 3.250147,-3.00047 4.919584,-4.34766 1.669436,-1.34717 3.437985,-2.84914 3.930084,-3.33768 l 0.894754,-0.88828 -2.852522,-5.07314 c -3.076259,-5.471066 -3.680838,-7.368285 -3.08863,-9.692378 0.68803,-2.700116 4.528727,-4.186091 7.381109,-2.855767 1.308629,0.610703 1.613366,0.984313 5.526762,6.784179 2.897143,4.293746 4.288343,6.135036 4.629801,6.127776 1.436139,-0.0306 6.347797,-1.24091 6.632437,-1.63434 0.1823,-0.25207 0.15917,-1.438055 -0.0515,-2.635582 -0.21068,-1.197528 -0.38159,-2.4626 -0.37977,-2.811282 0.002,-0.348704 -0.0625,-1.017528 -0.143,-1.4863 -0.17953,-1.045952 0.21951,-1.353806 1.11717,-0.861876 0.88223,0.48348 2.08454,2.346548 3.21923,4.988378 0.73961,1.722042 1.03157,2.139572 1.57266,2.249012 1.26276,0.25544 11.38665,-0.0738 11.86493,-0.38585 0.26396,-0.17217 0.58243,-1.706846 0.70779,-3.410339 0.12534,-1.703487 0.41168,-3.217145 0.63629,-3.363708 0.81676,-0.532873 1.81292,0.976465 2.61939,3.968684 0.43224,1.60383 0.91226,3.109733 1.06671,3.346443 0.15444,0.23674 2.75309,0.94676 5.77476,1.57784 6.72958,1.40551 6.86049,1.35686 7.8504,-2.917303 1.07207,-4.628994 2.10106,-4.53519 3.17014,0.288948 0.75598,3.411285 1.46192,4.388305 3.25542,4.505465 2.7825,0.18175 6.02674,-0.20959 6.49607,-0.78361 0.98468,-1.20435 1.14282,-2.76096 0.57348,-5.644937 -1.01809,-5.157114 0.56106,-4.177214 3.04566,1.889908 1.05556,2.577559 1.28975,2.957279 1.81927,2.949839 0.83294,-0.0117 2.29554,-1.00006 3.18447,-2.15192 1.09134,-1.414102 2.04073,-1.109224 3.49717,1.12309 1.46367,2.24342 1.33419,3.00353 -1.39044,8.16236 -2.60152,4.92572 -4.05691,8.34461 -3.75149,8.81274 0.12895,0.19756 1.14433,0.71273 2.25645,1.14477 1.11211,0.43205 2.75247,1.20299 3.64517,1.71331 1.67956,0.96011 3.23455,2.85303 2.65454,3.23145 -0.18187,0.11871 -2.25374,-0.13918 -4.60407,-0.57303 -2.35033,-0.43384 -4.65064,-0.65866 -5.11179,-0.49957 -0.71334,0.24607 -1.03852,1.10104 -2.17916,5.72965 -0.73738,2.99222 -1.31392,5.74852 -1.28119,6.12512 0.0448,0.51529 0.70068,0.97477 2.6507,1.85709 3.1542,1.42707 4.22467,2.15976 5.22797,3.57808 1.38371,1.95613 0.82096,2.3711 -2.13749,1.57612 -2.57152,-0.69099 -6.09797,-0.95544 -6.78778,-0.509 -0.18841,0.12207 -0.93232,2.03289 -1.65197,4.24696 -1.97912,6.08455 -1.9775,6.07724 -1.45698,6.52959 4.89267,4.25199 6.15638,5.73426 5.81888,6.82533 -0.33821,1.09339 -1.24484,0.96065 -3.54387,-0.51885 -2.0662,-1.32966 -4.50274,-2.23003 -5.0567,-1.86862 -0.13537,0.0884 -1.03797,1.44911 -2.0057,3.02393 l -1.7595,2.86328 1.9789,2.71216 c 1.94616,2.66727 1.96998,2.72443 1.4391,3.45347 -0.29686,0.40773 -1.11135,1.11424 -1.80996,1.57 l -1.27016,0.82869 -1.0822,-1.24823 c -0.59525,-0.68649 -1.41126,-1.75251 -1.8134,-2.36888 -0.53226,-0.81581 -0.89721,-1.06785 -1.34159,-0.92646 -1.24157,0.39502 -29.41177,19.02557 -29.4015,19.44488 0.006,0.22791 0.53622,1.36224 1.17916,2.52076 1.1167,2.01215 1.13819,2.14637 0.48,2.99919 -0.37895,0.49105 -1.06807,1.14004 -1.53133,1.44228 l -0.84227,0.54953 z m 26.87327,-27.12553 -0.5339,-1.02063 -1.86513,1.21727 c -1.02583,0.6695 -6.72203,4.36824 -12.65821,8.21947 -7.81501,5.07013 -10.76354,7.11491 -10.68598,7.41079 0.0589,0.22471 0.40353,0.68298 0.76583,1.01834 l 0.65874,0.60976 12.42629,-8.21717 12.42628,-8.21717 z m 7.6224,-6.59004 c 2.12025,-3.61808 4.7031,-9.56929 6.01202,-13.85245 0.54284,-1.77634 1.60666,-6.87513 2.36405,-11.33068 1.6606,-9.76904 3.16023,-15.05233 6.16038,-21.70355 0.54456,-1.20714 0.88139,-2.36135 0.74862,-2.56486 -0.13275,-0.20353 -1.86326,-0.0303 -3.84554,0.38494 -5.37855,1.12661 -8.90455,0.88272 -22.09518,-1.52826 -7.21656,-1.31903 -13.25055,-1.91748 -17.76684,-1.76208 -3.04197,0.10468 -12.77616,1.55829 -13.471008,2.01162 -0.364204,0.23757 -0.302219,0.59543 0.249438,1.44098 1.11533,1.7095 7.92695,9.71863 10.87308,12.78461 5.02338,5.22768 16.94197,24.34171 18.91324,30.33136 0.26343,0.80047 0.74879,2.76417 1.07855,4.36376 0.67345,3.26676 0.91863,3.45439 2.86756,2.1945 0.88994,-0.57586 1.19103,-0.59364 1.7201,-0.1039 0.35267,0.32646 0.81282,1.02138 1.02257,1.54426 0.20973,0.52289 0.76234,1.22776 1.22811,1.56631 1.06515,0.77437 1.54137,0.318 3.94085,-3.77659 z m -38.7031,23.39305 -1.10524,-2.01684 1.04813,-0.81457 c 0.57648,-0.44799 0.99731,-0.89247 0.93511,-0.98777 -0.0621,-0.0953 -1.049,-0.57636 -2.19302,-1.06913 -2.573342,-1.10845 -5.900759,-3.15256 -7.84409,-4.81881 -1.098078,-0.94151 -3.062061,-3.57677 -7.766235,-10.42067 -5.888117,-8.56638 -6.499929,-9.35551 -9.433959,-12.1681 -3.947283,-3.7839 -5.982621,-6.70589 -5.873328,-8.43187 0.116662,-1.84219 0.710735,-3.15149 1.893957,-4.17412 2.075443,-1.79377 2.220807,-2.04206 2.065418,-3.52743 -0.08471,-0.80978 -0.0151,-2.03685 0.154692,-2.72681 0.277166,-1.1262 0.555577,-1.41553 2.722991,-2.82963 1.327838,-0.86632 2.858943,-1.71569 3.402449,-1.88749 0.874214,-0.27633 1.026434,-0.54566 1.319776,-2.33533 l 0.331562,-2.02299 2.141946,-1.39746 c 1.914021,-1.24878 2.322415,-1.38393 3.838245,-1.27016 1.405865,0.1055 1.698408,0.0228 1.708564,-0.4829 0.01196,-0.59513 -2.643086,-4.29541 -3.305214,-4.60643 -1.343917,-0.63126 -10.248256,7.66454 -15.759162,14.68213 -7.902223,10.0627 -11.845731,17.35187 -15.708902,29.03621 -2.789506,8.43697 -5.48939,14.31708 -8.147095,17.74373 -0.462408,0.59618 -0.754857,1.29644 -0.649875,1.55614 0.106466,0.26342 2.228721,0.66198 4.800394,0.90152 5.934775,0.55279 11.943807,1.97198 20.050521,4.73547 11.184746,3.81275 20.985558,4.77071 29.024885,2.837 3.51911,-0.84646 3.67565,-1.08011 2.34751,-3.50369 z m 24.32851,-22.08576 c -0.24273,-1.86876 -0.83456,-4.56282 -1.3152,-5.98676 -0.84974,-2.51735 -3.71316,-8.10795 -4.04269,-7.89296 -0.26346,0.17183 -1.3414,3.86282 -1.30757,4.47708 0.0175,0.31763 0.65432,1.03564 1.4707,1.65805 0.83569,0.63718 1.50367,1.39491 1.59199,1.80586 0.13415,0.6242 -0.10647,0.63417 -2.03284,0.0841 l -2.18499,-0.62389 -1.38724,2.37174 c -0.76297,1.30446 -1.93062,3.0491 -2.59476,3.87695 -1.16759,1.45539 -1.18591,1.55248 -0.55366,2.93389 0.35966,0.78578 0.57061,1.69798 0.4688,2.02712 -0.19542,0.63179 -0.21646,0.62272 -2.80468,-1.20953 -0.98152,-0.69483 -1.31087,-0.72003 -2.5211,-0.19301 -0.76565,0.33343 -2.45354,0.75171 -3.75086,0.9295 -1.29732,0.1778 -2.50002,0.41528 -2.67268,0.52774 -0.17264,0.11246 -0.3486,0.79572 -0.39093,1.51839 -0.0424,0.72265 -0.29108,1.45357 -0.55269,1.62426 -0.4014,0.26185 -0.61866,0.0325 -1.39102,-1.4685 -1.03116,-2.00391 -0.3444,-1.75149 -6.728413,-2.47305 -1.836016,-0.20752 -3.468256,-0.29247 -3.627185,-0.18877 -0.180893,0.11804 0.379481,1.05206 1.498389,2.49747 1.560741,2.01618 2.259118,2.59387 5.507755,4.55599 3.541994,2.13931 6.430764,3.37481 9.808994,4.19522 l 1.52909,0.37135 9.21205,-6.01025 9.21204,-6.01025 z m -13.22421,-3.05747 c 2.5909,-2.84945 3.42618,-4.78382 4.52404,-10.47685 0.56948,-2.95309 0.91492,-5.72762 0.76762,-6.16561 -0.34216,-1.01743 -1.133,-1.21476 -8.31553,-2.07471 -3.11136,-0.37253 -6.63387,-0.5565 -7.82778,-0.40882 -5.219462,0.64561 -9.011046,4.63449 -12.907599,13.5792 -1.707416,3.91936 -2.57132,7.35237 -2.050975,8.14991 0.441566,0.6768 9.705546,2.58068 12.944224,2.66022 2.11104,0.0519 4.95205,-0.33754 6.53055,-0.89509 1.77961,-0.62858 4.87691,-2.76415 6.33545,-4.36825 z m -8.16103,2.53857 c -3.72044,0.14159 -6.738952,-1.28148 -8.985228,-4.23607 -1.104978,-1.4534 -1.469197,-2.2252 -1.690417,-3.58211 -1.156694,-7.09483 4.899845,-13.18237 11.406895,-11.46527 2.54233,0.67087 4.45837,1.99585 5.82635,4.029 2.29522,3.41124 2.50066,6.9197 0.59587,10.17588 -1.049,1.79325 -1.55576,2.31316 -3.47162,3.56177 -1.75122,1.14137 -2.55884,1.47405 -3.68185,1.5168 z m 5.97555,-5.85451 c 0.97101,-1.79204 1.27468,-3.82667 0.88589,-5.93562 -0.68818,-3.73293 -4.77972,-6.49243 -8.87081,-5.98281 -4.275798,0.53261 -6.870246,2.65093 -7.535615,6.1527 -0.54282,2.85683 0.266095,5.07402 2.647607,7.25694 1.815908,1.66449 4.457818,2.93805 6.101438,2.94126 2.74462,0.005 5.25849,-1.64016 6.77148,-4.4325 z m -7.58731,0.69641 c -3.40431,-0.59586 -4.898316,-4.45339 -2.76115,-7.12927 1.12396,-1.40724 2.55914,-1.81264 4.38921,-1.23984 1.82116,0.57002 2.99034,2.00828 3.18336,3.91596 0.25529,2.52317 -2.30412,4.89201 -4.81142,4.45315 z m 3.05368,-3.01763 c 1.25436,-3.56945 -3.21344,-5.88308 -5.4339,-2.81393 -0.56631,0.78278 -0.22323,2.72939 0.62851,3.56612 1.41822,1.39322 4.20476,0.95704 4.80539,-0.75219 z m 5.49803,-21.0544 c -3.32017,-4.82318 -4.02234,-5.67278 -6.10403,-7.38562 -3.28207,-2.70054 -5.71205,-5.74334 -14.024005,-17.56075 -6.262849,-8.9041 -7.378472,-10.35383 -8.266968,-10.742824 -0.807559,-0.353616 -1.209471,-0.302902 -1.880407,0.237108 -1.211573,0.975139 -1.176762,2.454204 0.134209,5.702788 1.000268,2.478618 1.74505,3.656688 6.779139,10.722798 3.110486,4.36602 6.81859,9.23609 8.240236,10.82234 2.337316,2.60795 2.569516,2.95673 2.425286,3.64263 -0.264557,1.25778 -1.798881,0.96444 -6.166885,-1.17901 -4.561283,-2.2383 -6.515033,-2.51204 -7.972398,-1.11706 -2.22863,2.13259 -0.780825,4.76257 3.616727,6.57059 2.235245,0.91899 2.58199,1.64123 1.215868,2.53254 -0.947622,0.61826 -1.268305,0.56096 -4.800453,-0.85791 -2.081746,-0.83623 -4.326782,-1.50292 -4.988993,-1.48152 -1.807838,0.0584 -3.393384,1.23545 -3.713348,2.75669 -0.372777,1.77228 0.716787,2.89356 4.548159,4.68051 3.139493,1.46425 3.811962,1.9875 3.475352,2.70412 -0.422879,0.90101 -1.850124,0.83631 -4.313113,-0.19519 -3.349073,-1.40257 -4.915562,-1.59112 -6.208891,-0.74731 -2.376881,1.55077 -1.386673,3.95938 3.195552,7.77293 1.884798,1.56862 3.42874,3.20157 4.956619,5.24237 2.566308,3.42785 2.892872,3.47731 3.547876,0.5374 0.46508,-2.08748 0.383474,-2.30083 -1.069879,-2.79687 -1.174762,-0.40096 -2.135235,-1.55547 -1.589992,-1.9112 0.192624,-0.12572 0.795919,-0.14923 1.340602,-0.0523 0.544668,0.0969 1.579808,0.0669 2.300315,-0.0667 1.283338,-0.23805 1.335257,-0.29621 2.552013,-2.85862 l 1.242005,-2.61565 -1.475209,-2.03604 c -1.666467,-2.30001 -1.536638,-2.93197 0.340246,-1.65635 2.158545,1.46705 2.482601,1.4323 5.092611,-0.54583 1.795148,-1.36052 2.783247,-1.89097 4.331025,-2.32488 2.359081,-0.6614 2.550941,-0.98261 2.028271,-3.39596 -0.41084,-1.89705 -0.0303,-2.67461 1.02574,-2.09589 0.70766,0.38784 1.85045,2.36162 2.13562,3.68862 0.15776,0.73412 3.80003,1.49174 5.09763,1.06035 0.68941,-0.2292 0.88299,-0.63423 1.10116,-2.30422 0.21669,-1.65871 0.37969,-2.00273 0.89889,-1.89704 0.52141,0.10614 0.72534,0.52014 1.14606,2.32669 0.2815,1.20866 0.69426,2.32958 0.91725,2.49092 0.38674,0.27981 1.81013,0.23716 2.37536,-0.0711 0.14654,-0.08 -1.42181,-2.59793 -3.48528,-5.5955 z"
       id="path256" />
  </g>
</svg>
