<?xml version="1.0" encoding="UTF-8" standalone="no"?>
<!-- Created with Inkscape (http://www.inkscape.org/) -->

<svg
   width="210mm"
   height="297mm"
   viewBox="0 0 210 297"
   version="1.1"
   id="svg5"
   inkscape:version="1.1.2 (b8e25be833, 2022-02-05)"
   sodipodi:docname="FutureGadgetLab.svg"
   xmlns:inkscape="http://www.inkscape.org/namespaces/inkscape"
   xmlns:sodipodi="http://sodipodi.sourceforge.net/DTD/sodipodi-0.dtd"
   xmlns="http://www.w3.org/2000/svg"
   xmlns:svg="http://www.w3.org/2000/svg">
  <sodipodi:namedview
     id="namedview7"
     pagecolor="#ffffff"
     bordercolor="#999999"
     borderopacity="1"
     inkscape:pageshadow="0"
     inkscape:pageopacity="0"
     inkscape:pagecheckerboard="0"
     inkscape:document-units="mm"
     showgrid="false"
     inkscape:zoom="0.64052329"
     inkscape:cx="396.55076"
     inkscape:cy="560.47923"
     inkscape:window-width="1920"
     inkscape:window-height="1017"
     inkscape:window-x="-8"
     inkscape:window-y="-8"
     inkscape:window-maximized="1"
     inkscape:current-layer="layer1" />
  <defs
     id="defs2" />
  <g
     inkscape:label="Ebene 1"
     inkscape:groupmode="layer"
     id="layer1">
    <path
       style="fill:#000000;stroke-width:0.223692"
       d="m 104.75773,229.69115 c -0.49212,-0.0479 -2.15304,-0.19968 -3.69092,-0.33729 -15.75134,-1.40938 -30.798056,-7.66642 -44.385603,-18.45733 l -2.443304,-1.94042 -1.023926,0.3449 c -0.563159,0.18969 -2.533847,0.91817 -4.379308,1.61883 -5.875663,2.23081 -13.151789,4.11536 -17.716817,4.58873 -3.681123,0.38171 -6.243891,-0.3245 -7.291844,-2.00939 -0.399589,-0.64246 -0.488613,-1.10727 -0.472903,-2.46914 0.03064,-2.65633 1.206164,-5.51284 4.537728,-11.02664 2.532252,-4.19093 3.812018,-5.9864 9.45674,-13.26751 0.117503,-0.15157 -0.362412,-1.40666 -1.240241,-3.24354 -3.260017,-6.82164 -5.436061,-14.71242 -6.532414,-23.68784 -0.477934,-3.91265 -0.65357,-12.57029 -0.338111,-16.66652 0.791427,-10.27667 3.083958,-18.85099 7.415924,-27.73639 6.560682,-13.45677 18.112699,-25.835296 31.817416,-34.093876 16.808848,-10.12916 35.715523,-13.38013 55.972503,-9.62438 14.47439,2.68362 27.35819,9.10476 38.0112,18.94435 1.09892,1.015 2.07873,1.84546 2.17736,1.84546 0.33388,0 11.66006,-9.86172 17.18642,-14.96423 1.78509,-1.64819 6.98482,-6.75267 11.55497,-11.34329 8.23542,-8.27233 8.31045,-8.34021 8.43319,-7.62869 0.0681,0.39485 0.18932,2.73114 0.26933,5.19175 0.64582,19.85952 -4.15203,40.521916 -14.54141,62.623956 l -1.25716,2.67444 0.55374,2.35864 c 2.57772,10.97975 2.92667,22.54412 1.00264,33.22817 -3.71662,20.63828 -16.50122,39.66672 -34.86952,51.89939 -5.63356,3.75176 -10.68324,6.32483 -16.67494,8.49674 -5.55455,2.01345 -12.08624,3.55536 -17.99736,4.24857 -2.87679,0.33737 -11.63545,0.61731 -13.53338,0.43255 z m 13.75707,-3.55888 c 10.77421,-1.32799 20.44914,-4.67479 30.06616,-10.40063 12.236,-7.28513 21.87135,-17.79174 28.56855,-31.15181 9.43877,-18.82917 11.0262,-40.19545 4.43332,-59.67131 -0.52059,-1.53788 -1.16143,-3.29018 -1.42408,-3.894 l -0.47754,-1.09785 -2.23021,2.42104 c -1.22662,1.33157 -3.76119,4.0626 -5.63239,6.06895 -1.8712,2.00634 -3.55492,3.88101 -3.74161,4.16593 -0.31138,0.47523 -0.27625,0.76883 0.42507,3.55318 1.05347,4.18238 1.48807,7.43458 1.62482,12.15859 0.47992,16.57989 -6.49387,34.18349 -18.14337,45.79839 -9.44444,9.4164 -20.85341,15.22755 -33.76749,17.19945 -4.24953,0.64888 -12.1487,0.80558 -16.62044,0.3297 -14.260157,-1.51755 -26.680312,-7.26892 -36.738515,-17.01241 -8.020912,-7.76994 -14.155368,-18.36211 -16.783173,-28.97898 -3.782393,-15.28164 -2.212812,-30.22032 4.584669,-43.63514 7.272581,-14.35242 20.102533,-25.607596 35.098549,-30.790486 3.15809,-1.09149 6.869708,-1.99878 10.513536,-2.56998 2.710814,-0.42495 4.033564,-0.49091 9.842454,-0.49086 7.23848,6e-5 9.22631,0.18382 14.32393,1.32411 11.36487,2.54224 20.50503,7.94302 31.35076,18.524716 1.99682,1.9482 3.73221,3.47938 3.85642,3.40261 0.22778,-0.14078 5.09456,-6.73508 7.46071,-10.10898 l 1.2778,-1.822016 -3.00433,-2.90132 c -14.3816,-13.88848 -27.53473,-20.65377 -44.30436,-22.78787 -4.24747,-0.54054 -13.20753,-0.54071 -17.85739,-3.5e-4 -17.974264,2.08879 -32.902546,8.90596 -45.027745,20.56244 -12.57705,12.090846 -20.680581,28.293446 -23.244293,46.475766 -0.495,3.51062 -0.68385,12.76673 -0.338224,16.57735 1.157462,12.76136 5.147458,24.13198 12.193049,34.74755 12.893066,19.42593 33.896979,32.05245 56.714753,34.09412 1.53789,0.1376 3.1988,0.2895 3.69093,0.33756 1.87792,0.18337 10.63599,-0.0979 13.30968,-0.42746 z M 35.760214,211.83918 c 4.823904,-1.24199 15.535069,-5.15616 15.535069,-5.67697 0,-0.31726 -3.630395,-4.30355 -3.919336,-4.30355 -0.10899,0 -1.231108,0.624 -2.493598,1.38668 -2.978972,1.7996 -4.47179,2.40412 -5.953247,2.41078 -4.991127,0.0224 -4.755439,-4.91652 0.555105,-11.63245 1.381092,-1.74659 1.408526,-1.8071 1.089321,-2.4029 -0.180099,-0.33615 -0.584086,-0.91317 -0.897748,-1.28226 -0.487377,-0.57351 -0.601296,-0.61996 -0.783505,-0.31949 -0.117265,0.19338 -1.491399,2.15628 -3.053633,4.362 -7.540674,10.64671 -9.738397,14.71787 -9.169253,16.98552 0.416482,1.6594 3.798456,1.83523 9.090825,0.47264 z m 80.741356,-3.70806 c 20.08108,-2.78525 36.90992,-15.43388 45.17814,-33.95607 4.82795,-10.81541 6.29828,-23.28317 4.23631,-35.92203 -0.24349,-1.49249 -0.51882,-2.78972 -0.61183,-2.88274 -0.093,-0.093 -0.64608,0.31512 -1.22903,0.90697 l -1.05991,1.07609 0.76818,1.99828 c 0.4225,1.09906 0.92384,2.52757 1.1141,3.17448 l 0.34592,1.17619 -0.72799,0.30418 c -0.40039,0.16729 -1.87996,0.67359 -3.28794,1.12511 -1.40798,0.45152 -2.97342,0.97632 -3.47877,1.16623 l -0.91881,0.34529 -0.13299,4.39971 c -0.0731,2.41984 -0.30074,5.40632 -0.50576,6.63663 -0.20503,1.23031 -0.38602,2.43459 -0.40221,2.67619 -0.0235,0.35126 0.73032,0.83316 3.76295,2.40547 2.08581,1.08142 3.88303,2.05687 3.99383,2.16767 0.11948,0.11948 -0.13854,0.77909 -0.63408,1.62099 -0.45955,0.78074 -2.19574,4.08705 -3.85822,7.34737 -1.66247,3.26031 -3.7674,7.26002 -4.67762,8.88823 l -1.65495,2.96039 -4.0565,-2.03063 -4.05651,-2.03062 -1.10749,1.26259 c -0.60913,0.69443 -2.78076,2.59949 -4.82585,4.23349 -2.0451,1.63399 -3.86373,3.14751 -4.04142,3.36337 -0.28711,0.34881 -0.19605,0.76997 0.8182,3.78445 0.6277,1.86557 1.20134,3.74754 1.27477,4.18214 l 0.13349,0.79019 -3.97154,1.25689 c -2.18435,0.69129 -5.71308,1.8228 -7.84161,2.51444 -2.12854,0.69166 -5.24905,1.65994 -6.93446,2.15174 -1.68542,0.49181 -3.22971,0.9458 -3.43176,1.00888 -0.28499,0.089 -0.4251,-0.12527 -0.6248,-0.95529 -0.14158,-0.58848 -0.73232,-2.55052 -1.31276,-4.36009 l -1.05534,-3.29013 -4.24771,-0.0975 c -3.02531,-0.0695 -4.95583,-0.23211 -6.70833,-0.56516 -1.353337,-0.2572 -2.617874,-0.46916 -2.810082,-0.47103 -0.224336,-0.002 -1.06533,1.33246 -2.348768,3.72745 -1.099616,2.05197 -2.155022,3.92511 -2.345347,4.16255 -0.335639,0.41873 -0.443275,0.38301 -3.579076,-1.18775 -1.778167,-0.8907 -4.837089,-2.52374 -6.797607,-3.62899 l -3.564576,-2.00953 -1.188103,0.64082 c -0.653455,0.35245 -1.188454,0.70155 -1.188883,0.77577 -0.0016,0.25394 3.240834,2.29088 5.70337,3.58308 5.166945,2.71131 11.478328,4.69153 17.783532,5.57964 4.3104,0.60713 11.70765,0.60467 16.10584,-0.005 z m -75.277238,-6.16948 c 1.286056,-0.68381 3.685571,-2.50055 3.842377,-2.90918 0.10169,-0.265 -2.107183,-3.81873 -2.264447,-3.64314 -0.489936,0.54702 -3.647609,4.70945 -3.954848,5.21326 -1.088174,1.78439 0.187617,2.50312 2.376918,1.33906 z m 44.855096,-11.46157 c 24.108842,-13.41175 46.237652,-29.30751 66.924822,-48.07404 7.26389,-6.58949 20.69359,-20.16319 26.35043,-26.63297 0.67232,-0.76894 1.2897,-1.39807 1.37196,-1.39807 0.20639,0 2.32972,5.19736 3.28993,8.05292 l 0.7898,2.34877 0.54333,-1.23031 c 0.29883,-0.67667 1.3289,-3.19404 2.28905,-5.59416 7.15333,-17.88135 10.60229,-32.872446 11.10473,-48.267246 l 0.14395,-4.41042 -1.52248,1.67769 c -4.81798,5.30916 -11.19326,11.1368 -25.68455,23.4782 -2.66644,2.27086 -4.84807,4.21752 -4.84807,4.32593 0,0.10841 0.66194,0.91797 1.47099,1.79902 0.80904,0.88106 1.62346,1.89138 1.80982,2.24518 0.32998,0.62646 0.31055,0.68481 -0.74399,2.234226 -4.60342,6.76374 -11.72087,15.76945 -18.32187,23.18266 -3.92806,4.41137 -13.19668,13.78461 -18.13091,18.33557 -16.9457,15.62942 -36.367458,29.99717 -60.929555,45.07422 -2.768191,1.6992 -5.07517,3.12585 -5.126617,3.17032 -0.472431,0.40834 2.661359,3.63735 5.055421,5.20903 l 1.720748,1.12966 3.704993,-1.92814 c 2.037745,-1.06048 5.969877,-3.18809 8.738068,-4.72804 z m -17.447996,-4.67114 c 1.537884,-0.91185 3.042897,-1.84618 3.344472,-2.0763 l 0.548316,-0.41841 -0.796131,-0.88122 c -1.138985,-1.26072 -2.457629,-3.26115 -3.42806,-5.20049 -0.461727,-0.92273 -0.860725,-1.70232 -0.886662,-1.73243 -0.02594,-0.0301 -0.945256,0.24964 -2.042932,0.62166 -2.693431,0.91285 -6.145428,1.84506 -6.291474,1.69901 -0.06532,-0.0653 -1.315096,-3.68788 -2.777284,-8.05015 -2.489845,-7.42815 -4.225672,-13.18225 -4.221775,-13.99475 0.0011,-0.24772 0.519389,-0.50394 1.733615,-0.85717 0.952555,-0.27712 2.889527,-0.84565 4.304379,-1.26341 l 2.572461,-0.75957 0.144639,-4.3289 c 0.138363,-4.14109 0.360785,-6.34264 0.870651,-8.61776 0.147048,-0.65616 0.154508,-1.09034 0.02015,-1.17268 -0.117344,-0.0719 -1.93341,-1.03263 -4.035701,-2.13492 -2.102299,-1.10228 -3.822356,-2.1113 -3.822356,-2.24225 0,-0.72276 9.811085,-19.62001 10.591507,-20.40043 0.155064,-0.15507 3.473424,1.44034 5.805329,2.7911 l 1.968688,1.14036 3.501261,-2.84016 c 1.925693,-1.56208 4.337199,-3.64544 5.3589,-4.62969 l 1.857636,-1.78954 -1.129232,-3.46723 c -0.621077,-1.90697 -1.150299,-3.81217 -1.176048,-4.23377 l -0.04682,-0.76655 6.978503,-2.305226 c 6.397654,-2.11335 12.759526,-4.05099 14.543606,-4.42954 0.65728,-0.13947 0.7302,-0.0985 0.85279,0.4786 0.0737,0.34711 0.65966,2.29203 1.30207,4.32203 l 1.16801,3.690926 4.57812,0.13968 c 3.91545,0.11946 7.14099,0.46993 9.05197,0.98353 0.38314,0.10297 0.65062,-0.27917 1.86275,-2.66121 0.77845,-1.529786 1.76358,-3.338136 2.18918,-4.018536 0.76263,-1.21923 0.78395,-1.23356 1.47626,-0.99222 0.38635,0.13468 3.72966,1.76804 7.42959,3.62971 7.01049,3.527396 12.43129,6.520696 12.43129,6.864386 0,0.26252 -2.22464,4.69428 -3.11116,6.19783 -0.38039,0.64513 -0.69161,1.3007 -0.69161,1.45682 0,0.15611 0.3146,0.57949 0.69911,0.94084 1.41934,1.33386 4.98372,5.38593 5.74107,6.52657 0.42972,0.64721 0.865,1.17675 0.96729,1.17675 0.10228,0 1.07107,-0.8851 2.15285,-1.96689 1.88109,-1.88108 4.53526,-5.42175 4.53324,-6.04735 -0.002,-0.51818 -9.18783,-9.49635 -11.5211,-11.26024 -8.34209,-6.306386 -15.87266,-9.536026 -25.83646,-11.080506 -3.67392,-0.56949 -13.78562,-0.56845 -17.447989,0.002 -13.524105,2.10574 -24.623518,7.56957 -33.588137,16.534176 -2.863091,2.8631 -4.804351,5.2515 -7.231984,8.89779 -5.262022,7.90352 -8.2858,16.27395 -9.423803,26.087 -0.513474,4.42772 -0.335545,12.73449 0.356389,16.63822 1.595903,9.00372 4.817372,15.98169 12.263616,26.56403 l 1.456359,2.06973 1.027244,-0.58757 c 0.564987,-0.32317 2.285516,-1.33363 3.8234,-2.24547 z m 49.851218,-8.93425 c 6.97186,-2.29962 12.51623,-6.89107 15.48591,-12.8243 0.50554,-1.01004 0.87985,-1.87574 0.83181,-1.92378 -0.048,-0.048 -0.93859,0.62049 -1.979,1.48563 -2.58897,2.15283 -6.04141,4.72617 -10.95118,8.16267 -5.39702,3.77753 -8.71032,6.20464 -8.71791,6.38616 -0.01,0.22789 2.78173,-0.44573 5.33037,-1.28638 z m -22.505855,-8.96431 c 16.264435,-11.66193 28.172815,-21.38672 36.572195,-29.86612 l 2.06664,-2.08633 -1.07165,-1.61148 c -4.71431,-7.08901 -11.64654,-11.79203 -19.36553,-13.13811 -2.55464,-0.44549 -7.74975,-0.4519 -10.2685,-0.0127 -8.874023,1.54751 -16.338488,7.20018 -20.598427,15.59874 -2.262063,4.45971 -3.318982,8.79228 -3.343761,13.70689 -0.01767,3.50685 0.278493,5.57909 1.203583,8.42111 1.115001,3.42545 3.090123,6.81833 5.434436,9.3353 0.676546,0.72638 3.874871,3.38251 4.072977,3.38251 0.0529,0 2.437013,-1.67843 5.298037,-3.72984 z"
       id="path21" />
  </g>
</svg>
