<?xml version="1.0" encoding="UTF-8" standalone="no"?>
<!-- Created with Inkscape (http://www.inkscape.org/) -->

<svg
   width="210mm"
   height="297mm"
   viewBox="0 0 210 297"
   version="1.1"
   id="svg5"
   inkscape:version="1.1.2 (b8e25be833, 2022-02-05)"
   sodipodi:docname="Koro.svg"
   xmlns:inkscape="http://www.inkscape.org/namespaces/inkscape"
   xmlns:sodipodi="http://sodipodi.sourceforge.net/DTD/sodipodi-0.dtd"
   xmlns="http://www.w3.org/2000/svg"
   xmlns:svg="http://www.w3.org/2000/svg">
  <sodipodi:namedview
     id="namedview7"
     pagecolor="#ffffff"
     bordercolor="#999999"
     borderopacity="1"
     inkscape:pageshadow="0"
     inkscape:pageopacity="0"
     inkscape:pagecheckerboard="0"
     inkscape:document-units="mm"
     showgrid="false"
     inkscape:zoom="0.64052329"
     inkscape:cx="-18.734682"
     inkscape:cy="560.47923"
     inkscape:window-width="1920"
     inkscape:window-height="1017"
     inkscape:window-x="-8"
     inkscape:window-y="-8"
     inkscape:window-maximized="1"
     inkscape:current-layer="layer1" />
  <defs
     id="defs2" />
  <g
     inkscape:label="Ebene 1"
     inkscape:groupmode="layer"
     id="layer1">
    <path
       style="fill:#000000;stroke-width:0.264583"
       d="M 101.77813,182.15409 C 90.307391,181.05485 81.961139,178.2263 73.090829,172.43195 61.184941,164.65468 51.321605,152.48342 45.45298,138.32714 c -1.17906,-2.84412 -2.788237,-7.83485 -2.590101,-8.03299 0.06875,-0.0687 0.273158,0.32946 0.454234,0.88491 0.297058,0.91122 0.973404,2.50371 2.002112,4.71409 0.203177,0.43656 1.402147,2.0439 2.664373,3.57187 6.29384,7.6189 13.679557,13.42864 22.705981,17.86093 8.245817,4.04899 15.122854,6.13712 24.582451,7.46416 4.020797,0.56406 15.35428,0.6378 19.47068,0.12669 20.53566,-2.5498 38.5195,-12.43463 49.67493,-27.30386 0.76426,-1.01869 1.76272,-2.87653 2.44921,-4.55723 0.63743,-1.5606 1.20793,-2.78849 1.26776,-2.72865 0.0598,0.0598 -0.33874,1.45575 -0.88574,3.10202 -6.49586,19.5506 -20.39384,35.63982 -37.62944,43.56233 -8.3197,3.82424 -19.72968,5.94001 -27.8413,5.16268 z m 3.43958,-8.26949 v -7.64916 l -2.3151,-0.15437 c -2.913098,-0.19424 -10.277802,-0.93459 -11.244801,-1.1304 l -0.727604,-0.14734 v 7.42674 7.42674 l 0.992187,0.27749 c 2.873317,0.80359 7.948256,1.50996 11.244798,1.56514 l 2.05052,0.0343 z m 6.21771,7.3791 c 2.35524,-0.26283 5.68508,-0.8525 7.60677,-1.34706 l 0.99219,-0.25535 v -7.39814 c 0,-8.28737 0.17908,-7.64311 -1.98438,-7.13881 -0.93178,0.2172 -3.44024,0.45061 -10.38489,0.9663 l -1.91823,0.14244 v 7.65035 7.65034 l 1.65364,-0.002 c 0.90951,-0.001 2.72521,-0.12175 4.0349,-0.2679 z m -21.034382,-9.22549 v -7.37888 l -0.992188,-0.17689 c -1.817124,-0.32396 -7.052304,-1.70211 -8.995833,-2.36813 l -1.918229,-0.65735 v 6.69119 6.6912 l 2.711979,1.2773 c 2.593972,1.22172 8.16873,3.29682 8.863542,3.29928 0.256706,7.9e-4 0.330729,-1.65037 0.330729,-7.37772 z m 33.113372,6.54918 c 2.68353,-0.90032 7.28843,-2.85276 8.31545,-3.52569 l 0.63993,-0.4193 v -6.59423 -6.59423 l -1.52135,0.5265 c -2.0859,0.72189 -5.59607,1.68702 -8.13594,2.237 -1.16416,0.25209 -2.20414,0.59022 -2.31105,0.7514 -0.10691,0.16118 -0.19621,3.47798 -0.19844,7.37066 -0.003,5.89898 0.0578,7.0776 0.36713,7.0776 0.20415,0 1.48407,-0.37337 2.84427,-0.82971 z M 77.965621,167.84023 v -6.54978 l -1.653646,-0.63424 c -0.909505,-0.34883 -3.010601,-1.27096 -4.669102,-2.04917 -1.658501,-0.77822 -3.090333,-1.41494 -3.181853,-1.41494 -0.219432,0 -0.185221,10.63481 0.03535,10.98999 0.411496,0.66261 8.617519,6.14444 9.27081,6.19314 0.10914,0.008 0.198437,-2.93261 0.198437,-6.535 z m 57.352949,5.31971 c 2.03886,-1.22577 3.56265,-2.25823 5.94862,-4.03054 l 1.25677,-0.93353 v -5.50189 c 0,-3.02603 -0.0629,-5.50188 -0.13984,-5.50188 -0.0769,0 -0.88058,0.37803 -1.78593,0.84007 -0.90536,0.46203 -3.01532,1.3992 -4.68881,2.08259 l -3.04271,1.24253 -0.0708,6.51636 c -0.0473,4.35831 0.0199,6.51637 0.20294,6.51637 0.15054,0 1.19442,-0.55354 2.31973,-1.23008 z M 67.911454,162.07859 c 0,-4.92993 -0.04281,-5.44859 -0.463021,-5.60882 -0.611253,-0.23307 -5.153152,-3.05992 -6.746875,-4.19921 l -1.256771,-0.89841 v 4.11185 4.11185 l 1.653646,1.77469 c 1.895041,2.03375 6.318758,6.14028 6.614584,6.1403 0.10914,1e-5 0.198437,-2.44451 0.198437,-5.43225 z m 79.642446,1.52966 3.97424,-3.90261 -0.004,-4.15602 -0.004,-4.15601 -2.44739,1.65899 c -1.34607,0.91244 -3.25107,2.10829 -4.23334,2.65743 l -1.78593,0.99845 v 5.40119 c 0,3.40633 0.0972,5.40118 0.26326,5.40118 0.14479,0 2.05167,-1.75617 4.23751,-3.9026 z m 6.43832,-7.02449 c 0.92788,-1.19338 2.23946,-2.98098 2.91461,-3.97244 l 1.22755,-1.80267 v -2.53709 -2.53709 l -1.52136,1.44336 c -0.83674,0.79385 -2.19332,1.94782 -3.01461,2.56439 -0.8213,0.61657 -1.56381,1.38417 -1.65004,1.70577 -0.27343,1.01988 -0.18793,7.64222 0.0964,7.46649 0.14322,-0.0885 1.01957,-1.13733 1.94745,-2.33072 z m -94.95651,-1.63961 c -0.0067,-2.10948 -0.125775,-3.93212 -0.264584,-4.05033 -0.138808,-0.1182 -1.026287,-0.85498 -1.972172,-1.63729 -0.945885,-0.7823 -2.225807,-1.90147 -2.844271,-2.48703 l -1.124479,-1.06466 v 2.58058 2.58058 l 1.307227,1.93723 c 1.504402,2.22943 4.472146,5.97638 4.73352,5.97635 0.09733,-1e-5 0.171471,-1.72595 0.164759,-3.83543 z M 50.256102,143.0762 c -1.136476,-1.18579 -2.408047,-2.6057 -2.825713,-3.15536 -0.417666,-0.54966 -0.809612,-0.94917 -0.87099,-0.88779 -0.156181,0.15618 2.602053,5.64974 4.243591,8.45193 l 1.365756,2.33142 0.07684,-2.29212 0.07684,-2.29212 z M 162.9351,142.26954 c 0.85688,-1.73174 1.51853,-3.18804 1.47034,-3.23623 -0.0482,-0.0482 -0.75739,0.71383 -1.57599,1.69339 -0.81861,0.97957 -2.09082,2.37186 -2.82714,3.094 l -1.33877,1.31297 5.3e-4,2.3912 5.3e-4,2.39119 1.3563,-2.24896 c 0.74596,-1.23692 2.05738,-3.66583 2.91425,-5.39756 z M 77.556721,122.41142 c -1.354876,-1.35487 -0.465376,-3.5839 1.430168,-3.5839 1.125924,0 2.153732,1.01012 2.153732,2.11667 0,1.08773 -1.028938,2.11666 -2.116667,2.11666 -0.515506,0 -1.057862,-0.24005 -1.467233,-0.64943 z m 52.916669,0 c -1.91289,-1.91289 0.75179,-4.7149 2.88676,-3.03553 1.45548,1.14488 0.47698,3.68496 -1.41952,3.68496 -0.51551,0 -1.05787,-0.24005 -1.46724,-0.64943 z"
       id="path21" />
  </g>
</svg>
