<?xml version="1.0" encoding="UTF-8" standalone="no"?>
<!-- Created with Inkscape (http://www.inkscape.org/) -->

<svg
   width="210mm"
   height="297mm"
   viewBox="0 0 210 297"
   version="1.1"
   id="svg5"
   inkscape:version="1.1.2 (b8e25be833, 2022-02-05)"
   sodipodi:docname="Meliodas.svg"
   xmlns:inkscape="http://www.inkscape.org/namespaces/inkscape"
   xmlns:sodipodi="http://sodipodi.sourceforge.net/DTD/sodipodi-0.dtd"
   xmlns="http://www.w3.org/2000/svg"
   xmlns:svg="http://www.w3.org/2000/svg">
  <sodipodi:namedview
     id="namedview7"
     pagecolor="#ffffff"
     bordercolor="#999999"
     borderopacity="1"
     inkscape:pageshadow="0"
     inkscape:pageopacity="0"
     inkscape:pagecheckerboard="0"
     inkscape:document-units="mm"
     showgrid="false"
     inkscape:zoom="0.64052329"
     inkscape:cx="396.55076"
     inkscape:cy="560.47923"
     inkscape:window-width="1920"
     inkscape:window-height="1017"
     inkscape:window-x="-8"
     inkscape:window-y="-8"
     inkscape:window-maximized="1"
     inkscape:current-layer="layer1" />
  <defs
     id="defs2" />
  <g
     inkscape:label="Ebene 1"
     inkscape:groupmode="layer"
     id="layer1">
    <path
       style="fill:#000000;stroke-width:0.264583"
       d="m 108.77818,207.5822 c -0.0759,-0.13835 -0.47574,-1.41629 -0.88857,-2.83986 l -0.75059,-2.58831 -1.60727,-0.76871 c -2.61336,-1.24989 -4.59295,-3.62526 -5.08925,-6.10676 -0.19655,-0.98278 -0.46028,-1.17693 -2.074265,-1.52704 -3.367307,-0.73043 -3.457223,-0.72198 -4.788993,0.4503 -1.922351,1.69212 -3.686622,2.23515 -6.702774,2.06306 l -2.495934,-0.14241 -1.819597,1.76763 c -1.000779,0.9722 -1.912769,1.80109 -2.026643,1.842 -0.113876,0.0409 0.09424,-1.239 0.462479,-2.84422 l 0.669525,-2.91858 -0.681902,-0.72766 c -1.556078,-1.66049 -1.929673,-2.85067 -1.943524,-6.19153 l -0.01278,-3.08263 -0.986491,-1.20388 c -0.542571,-0.66214 -1.344451,-1.45877 -1.781956,-1.7703 -0.731768,-0.52107 -0.90293,-0.54064 -2.137666,-0.24443 -2.620263,0.62859 -5.55222,-0.14209 -7.608704,-2 l -1.098519,-0.99245 -2.837844,0.67407 c -1.560815,0.37074 -2.891029,0.62176 -2.956032,0.55782 -0.065,-0.0639 0.814909,-1.05486 1.955359,-2.20204 l 2.073547,-2.08578 -0.171965,-1.29633 c -0.347902,-2.62261 0.638355,-5.55259 2.522604,-7.49418 1.222735,-1.25995 1.226395,-1.49037 0.07184,-4.52238 -0.654927,-1.71992 -0.695979,-1.76428 -1.913741,-2.06796 -2.661005,-0.66358 -5.149223,-2.8458 -6.026463,-5.28532 l -0.460936,-1.28182 -2.763606,-0.84856 c -1.519982,-0.46671 -2.662039,-0.93551 -2.537904,-1.04178 0.124136,-0.10627 1.386561,-0.52808 2.805389,-0.93737 1.878518,-0.54188 2.581267,-0.85994 2.585498,-1.17019 0.0094,-0.68645 0.98397,-2.64458 1.878281,-3.77374 1.006459,-1.27076 3.066135,-2.4894 4.904333,-2.90172 l 1.364465,-0.30606 0.401042,-1.48476 c 0.8714,-3.22614 0.882195,-3.11728 -0.438173,-4.41899 -1.959316,-1.93164 -2.425136,-3.17697 -2.438958,-6.52033 l -0.01174,-2.83999 -1.924444,-2.12095 c -1.058445,-1.16653 -1.827068,-2.1208 -1.708051,-2.12061 0.119016,1.9e-4 1.436793,0.29601 2.928392,0.65738 l 2.711998,0.65704 1.360957,-1.03007 c 1.409105,-1.06651 3.681955,-1.87219 5.281504,-1.87219 0.505583,0 1.614388,0.18106 2.464016,0.40236 1.530556,0.39866 1.552821,0.39622 2.419024,-0.26446 0.480838,-0.36676 1.293342,-1.17827 1.805562,-1.80337 0.919633,-1.12229 0.92664,-1.14967 0.558594,-2.18294 -0.904349,-2.53892 -0.266557,-6.21835 1.447638,-8.35144 0.441238,-0.54906 0.802021,-1.1541 0.801741,-1.34454 -2.83e-4,-0.19043 -0.281398,-1.5071 -0.624703,-2.92593 -0.343305,-1.41883 -0.541467,-2.57968 -0.440359,-2.57968 0.101105,0 1.139603,0.88793 2.307773,1.97318 l 2.123945,1.97319 1.028906,-0.28414 c 2.957185,-0.81663 7.46374,0.96839 9.090626,3.60075 0.515022,0.83332 0.658855,0.89878 2.157865,0.98211 0.883332,0.0491 1.655297,0.009 1.715476,-0.0887 0.06018,-0.0979 -0.230134,-1.10992 -0.645144,-2.24896 -0.830554,-2.27954 -0.766464,-2.24263 -3.144787,-1.81156 l -1.115285,0.20214 0.222382,-0.77541 c 0.122312,-0.42647 0.415833,-1.14949 0.652267,-1.6067 0.236434,-0.45722 0.429882,-0.89675 0.429882,-0.97673 0,-0.34694 -0.779119,-0.089 -1.923664,0.63684 l -1.233517,0.78227 0.164291,-0.84842 c 0.09036,-0.46663 0.324474,-1.30987 0.520255,-1.87387 0.195781,-0.564 0.355968,-1.06163 0.355968,-1.10585 0,-0.0442 -0.506016,0.19472 -1.124479,0.53099 -0.618464,0.33626 -1.461402,0.68972 -1.873195,0.78546 -0.684953,0.15925 -0.733565,0.12249 -0.570822,-0.43158 0.09784,-0.33311 0.418629,-1.11788 0.712859,-1.74394 0.29423,-0.62606 0.486547,-1.1867 0.427373,-1.24588 -0.157369,-0.15737 -2.914719,1.15797 -3.457855,1.6495 -0.430006,0.38915 -0.463032,0.37334 -0.452268,-0.21651 0.0064,-0.34998 0.183189,-1.11257 0.392893,-1.69465 0.2097,-0.58209 0.383069,-1.21392 0.385259,-1.40407 0.0065,-0.56266 -1.088577,0.33775 -1.756296,1.44412 l -0.582223,0.9647 -0.184833,-0.98524 c -0.325062,-1.73273 0.0042,-6.53667 0.515017,-7.51484 0.511384,-0.97919 1.766033,-1.6328 3.13428,-1.6328 0.731438,0 0.957665,-0.15466 1.383898,-0.94613 0.493027,-0.9155 3.39525,-3.81637 3.818144,-3.81637 0.114633,0 0.0011,1.22039 -0.252428,2.71198 -0.253469,1.49159 -0.415473,2.7597 -0.360006,2.81801 0.05547,0.0583 0.936181,-0.20236 1.957139,-0.5793 2.060988,-0.76092 2.113764,-0.71988 1.459418,1.13473 -0.553765,1.56954 -0.527082,1.94038 0.114898,1.59681 0.74899,-0.40085 0.773226,-0.37706 0.862076,0.84632 l 0.08136,1.12021 3.704171,2.16236 3.70416,2.16235 3.02485,-0.25997 3.02485,-0.25996 4.24858,-3.40005 c 2.33671,-1.87002 4.28818,-3.36044 4.33659,-3.31202 0.0484,0.0484 -0.51596,1.98811 -1.25415,4.31045 -0.7382,2.32234 -1.34218,4.2989 -1.34218,4.39236 0,0.0935 1.56514,-0.61437 3.47809,-1.57295 3.72468,-1.86644 4.81852,-2.34456 4.64518,-2.03042 -0.06,0.1087 -0.9672,1.60902 -2.01603,3.33405 -1.04883,1.72503 -1.86043,3.18296 -1.80355,3.23984 0.0569,0.0569 1.79716,-0.20706 3.86727,-0.58655 2.07011,-0.37949 3.82674,-0.62707 3.90363,-0.55019 0.0769,0.0769 -0.76298,1.18783 -1.86636,2.46877 -1.10338,1.28094 -2.00614,2.41785 -2.00614,2.52647 0,0.10861 0.56554,-0.0582 1.25677,-0.37068 0.99571,-0.45014 1.79123,-0.57184 3.82971,-0.58591 l 2.57295,-0.0177 1.99111,-1.97775 c 2.23403,-2.21903 2.30569,-2.16748 1.46196,1.05171 -0.69506,2.6519 -0.6781,2.81373 0.42258,4.03205 1.66137,1.83894 2.43057,4.59212 1.96655,7.03888 -0.26098,1.37613 -0.25054,1.41256 1.0819,3.77622 1.04877,1.86044 1.44156,2.34867 1.78146,2.21429 1.81722,-0.71841 3.80248,-0.98303 5.2277,-0.69681 1.76102,0.35366 3.57058,1.20865 4.37871,2.06887 0.70606,0.75157 1.16344,0.76249 3.82686,0.0914 1.14622,-0.2888 2.24865,-0.52693 2.44986,-0.52916 0.20121,-0.002 -0.53292,0.93665 -1.6314,2.08642 l -1.99724,2.09049 0.26597,1.15066 c 0.57725,2.49738 -0.2561,5.63434 -2.01358,7.57966 l -0.94641,1.04756 0.59717,2.86626 c 0.58178,2.79246 0.61759,2.87061 1.39091,3.0352 2.5086,0.53392 4.82587,2.42022 5.9928,4.87823 0.41451,0.87312 0.75375,1.73128 0.75386,1.90702 1.2e-4,0.17574 0.86342,0.57 1.91844,0.87614 3.79264,1.10051 3.82095,1.11227 3.23732,1.34457 -0.28894,0.11501 -1.58241,0.54301 -2.87438,0.9511 l -2.34904,0.742 -0.4751,1.2711 c -0.93601,2.50426 -2.1659,3.56785 -6.33619,5.47951 -0.42786,0.19613 -1.81393,3.95873 -1.83765,4.98842 -0.008,0.34459 0.36048,1.05353 0.81871,1.57543 0.45822,0.52189 1.14283,1.60917 1.52135,2.41618 0.59164,1.26139 0.68821,1.82394 0.68821,4.009 v 2.54172 l 1.82243,2.03654 c 1.44702,1.61702 1.69229,2.00469 1.19063,1.8819 -0.3475,-0.0851 -1.57756,-0.37821 -2.73348,-0.65146 l -2.10167,-0.49681 -1.09441,0.89678 c -2.70985,2.22052 -5.57095,2.70029 -9.30314,1.56 -0.46459,-0.14194 -0.89956,0.13615 -2.21739,1.41771 -1.44477,1.40499 -1.61977,1.68299 -1.47394,2.34142 0.62693,2.83059 0.68909,3.49701 0.44585,4.77964 -0.34977,1.8443 -0.8134,2.87515 -1.97529,4.39186 l -0.98103,1.28061 0.54562,2.32402 c 0.30009,1.27821 0.54561,2.46774 0.54561,2.6434 0,0.17567 -0.9085,-0.50954 -2.01889,-1.52267 l -2.01888,-1.84206 -2.17382,0.13562 c -2.58687,0.16139 -4.2583,-0.29509 -6.02783,-1.64622 l -1.16302,-0.88804 -1.71136,0.35873 c -0.94125,0.19731 -2.29031,0.57403 -2.9979,0.83716 -1.13182,0.42089 -1.3372,0.61931 -1.70773,1.64994 -0.79394,2.2083 -4.38696,5.31078 -6.15048,5.31078 -0.35098,0 -0.60325,0.47348 -1.02199,1.91823 -0.95231,3.28565 -1.21704,4.01721 -1.35961,3.75728 z m 2.83017,-9.08325 c 3.36884,-1.53026 4.34341,-5.9394 1.95327,-8.83692 -1.18879,-1.44114 -2.52887,-2.04373 -4.53336,-2.03849 -6.01394,0.0157 -7.93905,8.04199 -2.58498,10.77742 1.45784,0.74482 3.64953,0.7864 5.16507,0.098 z m -4.0589,-3.47875 c -2.00427,-1.86726 0.0931,-4.8025 2.71318,-3.79707 0.51111,0.19613 1.20248,1.45152 1.20248,2.18345 0,0.28711 -0.30824,0.88833 -0.68498,1.33606 -0.8427,1.00149 -2.31761,1.1282 -3.23068,0.27756 z m -16.887033,-2.47295 c 2.237791,-1.31143 3.377941,-4.39297 2.551684,-6.89656 -0.748527,-2.26805 -2.999478,-3.83617 -5.521505,-3.84652 -1.680802,-0.007 -2.823535,0.48468 -4.104571,1.76572 -2.952583,2.95258 -1.747559,8.00028 2.275705,9.53266 1.262404,0.48082 3.465746,0.22585 4.798687,-0.5553 z m -4.604104,-3.2155 c -1.395878,-1.48585 -0.384628,-3.82923 1.652444,-3.82923 1.367888,0 2.323103,0.92473 2.323103,2.24896 0,2.04842 -2.574388,3.07173 -3.975547,1.58027 z m 46.786667,3.34073 c 2.17628,-1.11025 3.36714,-3.25314 3.14841,-5.66537 -0.26689,-2.94325 -2.36157,-4.97086 -5.33061,-5.15991 -5.4989,-0.35015 -8.33524,6.13754 -4.3421,9.93188 1.77289,1.68462 4.29612,2.03014 6.5243,0.8934 z m -3.85149,-3.20955 c -0.32756,-0.13166 -0.79203,-0.65136 -1.03214,-1.15488 -0.37213,-0.78038 -0.38612,-1.0373 -0.0948,-1.7407 0.36026,-0.86975 1.4467,-1.59399 2.39115,-1.59399 0.87283,0 2.10945,1.39595 2.10945,2.38125 0,0.56951 -0.24555,1.08001 -0.77339,1.60785 -0.78934,0.78933 -1.52794,0.93149 -2.60031,0.50047 z m -27.19898,-1.18836 c 1.08024,-1.41626 1.99802,-2.20935 3.45289,-2.98376 1.14724,-0.61067 1.63913,-0.70485 3.70417,-0.70925 2.02862,-0.004 2.59675,0.0976 3.83646,0.68797 0.80036,0.38118 2.02507,1.27063 2.72157,1.97656 l 1.26636,1.28351 2.15119,-0.44482 c 1.18315,-0.24465 2.23608,-0.58218 2.33984,-0.75007 0.10377,-0.1679 0.26029,-0.8278 0.34782,-1.46645 0.49249,-3.59312 3.89361,-6.66713 7.89719,-7.13767 1.13413,-0.1333 1.91617,-0.0422 3.33399,0.38848 1.01877,0.30944 1.9757,0.56262 2.1265,0.56262 0.1508,0 0.83242,-0.72547 1.51471,-1.61215 l 1.24052,-1.61214 -0.46807,-1.54592 c -1.52269,-5.0291 1.4312,-10.253 6.45308,-11.41219 1.58071,-0.36488 1.65057,-0.4686 2.32828,-3.45653 l 0.40363,-1.77956 -1.19174,-1.19175 c -2.07717,-2.07716 -3.02279,-4.88378 -2.57418,-7.64018 0.30492,-1.87346 1.08445,-3.37625 2.5816,-4.97683 l 1.20236,-1.28542 -0.31787,-2.05044 c -0.46562,-3.00349 -0.39974,-2.89486 -1.83947,-3.0332 -2.6114,-0.25092 -5.21295,-2.14367 -6.54644,-4.76283 -0.92418,-1.81523 -1.15443,-4.61566 -0.53014,-6.44786 0.23656,-0.69425 0.4301,-1.29031 0.4301,-1.32459 0,-0.0343 -1.12668,-0.6697 -2.50372,-1.41204 -2.44258,-1.31676 -2.56373,-1.35139 -4.96094,-1.41817 -2.22343,-0.0619 -2.61644,-0.15417 -4.1307,-0.96951 -0.92042,-0.49559 -2.01605,-1.31666 -2.43474,-1.8246 l -0.76126,-0.92354 -1.53401,0.33265 c -0.8437,0.18297 -2.18885,0.62992 -2.98921,0.99325 -1.01711,0.46171 -2.26615,0.73738 -4.14884,0.91568 -2.59068,0.24534 -2.73413,0.29252 -3.75327,1.2345 -0.5828,0.53868 -1.54365,1.38026 -2.13522,1.87018 -1.32972,1.10124 -3.10128,3.73646 -4.92564,7.32698 -1.66077,3.26856 -1.89687,4.34482 -1.30655,5.95578 0.69913,1.90787 0.73671,2.09835 0.41404,2.09835 -0.16873,0 -0.86722,-0.51774 -1.55221,-1.15052 -1.315079,-1.21484 -5.936943,-4.40573 -6.381517,-4.40573 -0.143872,0 -0.356798,0.16121 -0.47317,0.35825 -0.198665,0.33637 -1.186765,0.96466 -1.517108,0.96466 -0.282487,0 -0.149582,-0.94074 0.206616,-1.46248 1.364792,-1.99908 1.345377,-1.90447 0.482396,-2.35073 -0.665927,-0.34437 -1.89703,-1.86832 -1.89703,-2.3483 0,-0.0802 0.47753,0.0417 1.061177,0.27092 0.58365,0.22927 1.129927,0.3481 1.213951,0.26407 0.08403,-0.084 -0.143706,-0.66813 -0.506071,-1.29802 -0.710573,-1.23517 -1.159555,-2.86504 -0.789234,-2.86504 0.125466,0 1.027893,0.42468 2.005396,0.94374 0.977506,0.51906 1.777281,0.82011 1.777281,0.669 0,-0.1511 -0.299199,-0.95128 -0.664885,-1.77816 -0.365686,-0.82688 -0.61668,-1.55163 -0.557766,-1.61054 0.05892,-0.0589 0.55499,0.08 1.102384,0.30873 0.547397,0.22871 1.039657,0.37145 1.093912,0.31719 0.157898,-0.15789 1.143021,-3.04229 1.143021,-3.34671 0,-0.15215 0.49234,-1.28886 1.094087,-2.52602 1.02833,-2.11419 1.0857,-2.35387 0.95455,-3.98772 -0.0767,-0.95608 -0.24166,-1.83663 -0.366482,-1.95678 -0.12482,-0.12015 -0.877567,0.0453 -1.672767,0.36767 l -1.445824,0.58613 -0.337219,1.66613 c -0.885875,4.37692 -3.968546,7.12258 -8.280511,7.37526 -1.575951,0.0923 -2.282069,0.002 -3.430747,-0.43655 l -1.446371,-0.55283 -0.843798,0.81784 c -0.46409,0.44981 -1.200648,1.31474 -1.636795,1.92206 -0.770774,1.07329 -0.781624,1.12997 -0.387271,2.02279 0.245687,0.55624 0.414155,1.75347 0.427099,3.03523 0.02315,2.29315 -0.455126,3.75608 -1.807798,5.52952 -0.947425,1.24214 -3.184985,2.71667 -4.678732,3.08324 -1.358335,0.33334 -1.366424,0.34967 -2.07105,4.17965 -0.255337,1.38788 -0.242755,1.43593 0.648813,2.47753 1.654173,1.93252 2.118781,3.22289 2.123181,5.89672 0.0047,2.85307 -0.508852,4.19564 -2.363152,6.17804 l -1.216548,1.30059 0.301705,1.94453 c 0.442802,2.85393 0.551467,3.04543 1.825058,3.21625 1.512905,0.20292 3.680308,1.3137 4.885623,2.50385 0.554966,0.54798 1.350486,1.7107 1.767821,2.58383 0.642324,1.34383 0.757934,1.91239 0.753192,3.70416 -0.004,1.53297 -0.149651,2.43412 -0.52797,3.26784 -0.515014,1.13496 -0.515245,1.16103 -0.01635,1.85208 0.278313,0.3855 0.970495,1.15033 1.538182,1.69961 l 1.032163,0.99869 1.305103,-0.59066 c 2.00202,-0.90606 5.045141,-0.85238 7.036945,0.12414 2.902691,1.42308 4.79533,4.048 5.144667,7.13517 l 0.17226,1.52228 1.619364,0.51338 c 2.286909,0.725 2.638609,0.68544 3.458139,-0.38902 z M 75.531248,176.89763 c 1.335159,-0.92558 2.597135,-3.16542 2.594886,-4.60557 -0.0052,-3.3406 -2.571309,-5.93636 -5.840888,-5.90843 -4.920778,0.042 -7.569592,5.62887 -4.457475,9.40162 1.309541,1.58754 2.428733,2.06214 4.660769,1.97646 1.613244,-0.0619 2.074574,-0.19294 3.042708,-0.86408 z m -4.805241,-3.03004 c -0.722977,-0.72298 -0.921309,-1.7221 -0.529581,-2.66782 0.396812,-0.95799 0.982677,-1.31053 2.159103,-1.29925 0.976286,0.009 1.564558,0.36702 2.024697,1.23096 0.473766,0.88953 0.371041,1.55528 -0.377176,2.44449 -0.549881,0.6535 -0.889076,0.81405 -1.719793,0.81405 -0.677593,0 -1.215161,-0.18035 -1.55725,-0.52243 z m 77.460583,3.45708 c 3.62829,-1.86631 4.35692,-6.72578 1.42224,-9.48544 -2.27054,-2.13512 -6.54952,-1.82323 -8.40759,0.61282 -3.01008,3.94642 -0.43438,9.37756 4.44727,9.37756 1.01223,0 1.89966,-0.17656 2.53808,-0.50494 z m -4.32205,-3.58408 c -1.4694,-1.4694 -0.41812,-3.84848 1.70059,-3.84848 1.28816,0 2.1479,0.91928 2.1479,2.29666 0,1.97328 -2.44225,2.95806 -3.84849,1.55182 z M 69.336139,155.70155 c 1.69868,-0.98482 2.539018,-2.43401 2.660761,-4.58857 0.07885,-1.39552 -0.01297,-1.99194 -0.432226,-2.80736 -2.836247,-5.51631 -10.899564,-3.67844 -10.899564,2.48433 0,1.95845 0.809774,3.59172 2.301882,4.64278 1.962319,1.38227 4.279871,1.48009 6.369147,0.26882 z m -3.814073,-2.73485 c -1.465086,-0.60596 -1.8891,-2.73525 -0.767941,-3.85641 1.415309,-1.41531 3.848485,-0.42096 3.848485,1.57274 0,1.62981 -1.669352,2.86733 -3.080544,2.28367 z m 87.424284,3.38544 c 0.88099,-0.22184 1.58988,-0.66637 2.47643,-1.55292 1.91373,-1.91373 2.30691,-4.08071 1.17968,-6.50162 -1.054,-2.2636 -3.09381,-3.41466 -5.71519,-3.22504 -2.11651,0.15309 -3.56598,1.13987 -4.56331,3.10665 -1.24569,2.45656 -0.87805,4.65431 1.11135,6.64372 0.91433,0.91432 1.58782,1.33767 2.42542,1.52458 1.59594,0.35613 1.6891,0.35627 3.08562,0.005 z m -2.46161,-3.49813 c -0.82128,-0.35783 -1.4488,-1.35805 -1.4488,-2.30929 0,-0.29539 0.34803,-0.8851 0.7734,-1.31047 1.03982,-1.03981 2.17589,-1.03981 3.21571,0 1.26876,1.26876 0.95001,2.92746 -0.69461,3.61463 -1.05087,0.43908 -0.85099,0.43853 -1.8457,0.005 z M 73.497046,135.20418 c 0.638007,-0.16066 1.659404,-0.71956 2.269769,-1.24201 4.127087,-3.53263 1.749131,-10.11601 -3.649978,-10.10498 -3.769612,0.008 -6.581342,3.58388 -5.629449,7.15998 0.534273,2.00717 1.820763,3.35926 3.903562,4.10262 1.231537,0.43954 1.650466,0.45092 3.106096,0.0844 z M 70.939151,131.652 c -0.878244,-0.47695 -1.396894,-1.89453 -1.038266,-2.83779 0.555183,-1.46024 2.687834,-2.03183 3.722078,-0.99759 1.157038,1.15704 1.001318,2.90571 -0.331099,3.71812 -1.005401,0.61302 -1.403321,0.63285 -2.352713,0.11726 z m 77.258489,2.89088 c 2.28076,-1.13655 3.35717,-3.05048 3.1701,-5.63665 -0.4207,-5.81607 -8.27423,-7.26807 -10.86577,-2.00892 -1.0849,2.20165 -0.73516,4.5205 0.96179,6.37686 1.84753,2.0211 4.29768,2.48272 6.73388,1.26871 z m -3.6977,-3.15199 c -1.49337,-0.81128 -1.46127,-3.18906 0.0536,-3.97245 0.90059,-0.46571 1.33681,-0.48463 2.19179,-0.0951 1.38281,0.63006 1.61933,2.53487 0.45885,3.69535 -0.84748,0.84748 -1.63088,0.9553 -2.70427,0.37218 z M 133.005,118.99377 c 2.12014,-1.15388 3.32406,-3.61096 2.95973,-6.0405 -0.23058,-1.53761 -1.02497,-2.73669 -2.49976,-3.77321 -1.03758,-0.72924 -1.33497,-0.80358 -3.21444,-0.80358 -1.8803,0 -2.17677,0.0742 -3.21836,0.8055 -2.79528,1.96257 -3.37738,5.83359 -1.26228,8.39429 1.83635,2.22321 4.71753,2.7877 7.23511,1.4175 z m -3.68295,-2.81759 c -0.91475,-0.34146 -1.55861,-1.28782 -1.55861,-2.2909 0,-1.95021 2.55381,-2.95259 3.95432,-1.55207 0.78202,0.78202 0.86929,2.20003 0.18641,3.02906 -0.55657,0.67571 -1.8555,1.08514 -2.58212,0.81391 z m -39.079211,2.94016 c 2.042038,-1.05038 3.235134,-2.98952 3.224794,-5.24126 -0.02024,-4.40527 -4.76836,-7.06079 -8.647245,-4.83619 -4.008326,2.29884 -3.830471,7.95996 0.31868,10.14348 1.145236,0.60269 3.872299,0.5674 5.103771,-0.066 z m -3.251687,-2.8847 c -1.691585,-0.32855 -2.326775,-2.64202 -1.070359,-3.89843 1.406239,-1.40625 3.848484,-0.42146 3.848484,1.55181 0,1.57242 -1.264587,2.64059 -2.778125,2.34662 z m 24.658708,-2.78679 c 5.2354,-2.70734 3.67305,-10.48187 -2.20436,-10.96927 -2.75905,-0.2288 -5.56693,1.90895 -6.07673,4.62646 -0.52553,2.80128 1.29654,5.83014 4.03458,6.70676 1.01382,0.3246 3.2927,0.12928 4.24651,-0.36395 z m -3.52988,-3.07176 c -1.54715,-0.65167 -1.85165,-2.52908 -0.61135,-3.76938 0.69643,-0.69643 0.93927,-0.78482 1.78594,-0.65004 1.18822,0.18915 2.17054,1.22576 2.17054,2.29052 0,1.528 -1.90038,2.73745 -3.34513,2.1289 z"
       id="path21" />
  </g>
</svg>
