<?xml version="1.0" encoding="UTF-8" standalone="no"?>
<!-- Created with Inkscape (http://www.inkscape.org/) -->

<svg
   width="210mm"
   height="297mm"
   viewBox="0 0 210 297"
   version="1.1"
   id="svg5"
   inkscape:version="1.1.2 (b8e25be833, 2022-02-05)"
   sodipodi:docname="Meliodas.svg"
   xmlns:inkscape="http://www.inkscape.org/namespaces/inkscape"
   xmlns:sodipodi="http://sodipodi.sourceforge.net/DTD/sodipodi-0.dtd"
   xmlns="http://www.w3.org/2000/svg"
   xmlns:svg="http://www.w3.org/2000/svg">
  <sodipodi:namedview
     id="namedview7"
     pagecolor="#ffffff"
     bordercolor="#999999"
     borderopacity="1"
     inkscape:pageshadow="0"
     inkscape:pageopacity="0"
     inkscape:pagecheckerboard="0"
     inkscape:document-units="mm"
     showgrid="false"
     inkscape:zoom="0.64052329"
     inkscape:cx="396.55076"
     inkscape:cy="560.47923"
     inkscape:window-width="1920"
     inkscape:window-height="1017"
     inkscape:window-x="-8"
     inkscape:window-y="-8"
     inkscape:window-maximized="1"
     inkscape:current-layer="layer1" />
  <defs
     id="defs2" />
  <g
     inkscape:label="Ebene 1"
     inkscape:groupmode="layer"
     id="layer1">
    <path
       style="fill:#000000;stroke-width:0.264583"
       d="m 88.467176,204.08307 c -0.0262,-0.15562 0.0163,-1.49397 0.09441,-2.97413 l 0.142026,-2.69121 -1.265225,-1.25436 c -2.057208,-2.03955 -3.145875,-4.93368 -2.798806,-7.44041 0.137459,-0.99277 -0.04779,-1.26283 -1.456966,-2.12407 -2.94002,-1.79682 -3.027716,-1.8184 -4.670847,-1.14909 -2.371781,0.9661 -4.21651,0.89895 -7.008445,-0.25512 l -2.310389,-0.95503 -2.299563,1.0712 c -1.264761,0.58916 -2.398555,1.07217 -2.519549,1.07337 -0.120992,0.001 0.496319,-1.13916 1.3718,-2.5341 l 1.591784,-2.53625 -0.404785,-0.91139 c -0.923709,-2.07975 -0.885272,-3.3266 0.199942,-6.48632 l 1.001333,-2.9155 -0.535889,-1.46127 c -0.294738,-0.8037 -0.790159,-1.81967 -1.100933,-2.25771 -0.519795,-0.73268 -0.67501,-0.80743 -1.938495,-0.9336 -2.681271,-0.26775 -5.196907,-1.95946 -6.528307,-4.39017 l -0.711198,-1.29842 -2.901709,-0.29632 c -1.595942,-0.16298 -2.934742,-0.36322 -2.975112,-0.44497 -0.04038,-0.0817 1.116396,-0.72833 2.570589,-1.43683 l 2.643988,-1.28818 0.263756,-1.28081 c 0.533608,-2.59121 2.428267,-5.03411 4.846077,-6.24835 1.568977,-0.78795 1.648183,-1.00436 1.554562,-4.2474 -0.05311,-1.83963 -0.07729,-1.89502 -1.127538,-2.58215 -2.294953,-1.50149 -3.927475,-4.38041 -3.953973,-6.97273 l -0.01392,-1.36211 -2.33104,-1.70992 c -1.282069,-0.94045 -2.206533,-1.75865 -2.054361,-1.8182 0.152172,-0.0596 1.483098,-0.0429 2.957617,0.037 1.952248,0.1058 2.720498,0.0364 2.826487,-0.25517 0.234546,-0.64521 1.798675,-2.17412 3.014486,-2.94652 1.368276,-0.86926 3.714095,-1.34305 5.585671,-1.12815 l 1.389242,0.15951 0.866861,-1.27039 c 1.883547,-2.76036 1.857955,-2.654 1.038907,-4.31742 -1.215395,-2.4684 -1.245926,-3.79765 -0.159863,-6.95972 l 0.922548,-2.686 -1.120225,-2.63572 c -0.616123,-1.44965 -1.028312,-2.60356 -0.915973,-2.56426 0.112339,0.0393 1.259622,0.7519 2.549516,1.58354 l 2.345261,1.51208 1.623945,-0.5254 c 1.681395,-0.544 4.092781,-0.55771 5.603424,-0.0319 0.477482,0.16621 1.465135,0.70172 2.194788,1.19003 1.314427,0.87967 1.336256,0.88468 2.37151,0.54549 0.574684,-0.18831 1.608808,-0.6876 2.298057,-1.10957 1.237467,-0.75758 1.253086,-0.78114 1.24518,-1.87797 -0.01942,-2.69511 1.792517,-5.96035 4.11268,-7.41135 0.597214,-0.37349 1.136849,-0.82629 1.199191,-1.00624 0.06234,-0.17994 0.229696,-1.515839 0.371907,-2.968668 0.142212,-1.452829 0.336689,-2.614302 0.432177,-2.581064 0.09549,0.03324 0.784358,1.213218 1.530828,2.622179 l 1.357214,2.561756 1.065123,0.0699 c 3.06129,0.200925 6.73054,3.368245 7.40163,6.389125 0.21244,0.95631 0.32676,1.06542 1.71506,1.63691 0.81809,0.33676 1.56033,0.55267 1.64928,0.48019 0.089,-0.0727 0.14754,-1.12389 0.13006,-2.33605 -0.035,-2.42588 0.0134,-2.36995 -2.37446,-2.74471 l -1.11974,-0.17574 0.46493,-0.6592 c 0.25571,-0.36256 0.77061,-0.9489 1.14421,-1.30297 0.3736,-0.35408 0.70079,-0.70559 0.72708,-0.78112 0.11406,-0.32766 -0.70655,-0.34019 -2.0261,-0.0309 l -1.42212,0.33327 0.43407,-0.74725 c 0.23874,-0.410989 0.73706,-1.130396 1.10737,-1.598686 0.37031,-0.46829 0.68519,-0.8856 0.69973,-0.927362 0.0145,-0.04174 -0.54191,0.01755 -1.23654,0.131809 -0.69464,0.114252 -1.60692,0.170953 -2.0273,0.125997 -0.69924,-0.07478 -0.73306,-0.125475 -0.39722,-0.595248 0.20192,-0.282431 0.76286,-0.918124 1.24656,-1.412659 0.48369,-0.494536 0.84962,-0.960791 0.81319,-1.036135 -0.0969,-0.200357 -3.13339,0.135405 -3.80793,0.421062 -0.53403,0.226157 -0.56003,0.200369 -0.35595,-0.353158 0.1211,-0.328423 0.53876,-0.990509 0.92817,-1.471296 0.3894,-0.480799 0.76084,-1.020516 0.82542,-1.199377 0.19112,-0.52925 -1.1391,-0.03889 -2.13342,0.786478 l -0.86701,0.719676 0.14934,-0.991242 c 0.26263,-1.743284 2.15287,-6.17197 2.95686,-6.927842 0.80487,-0.75665 2.20465,-0.96147 3.49685,-0.511664 0.69079,0.240458 0.95528,0.168765 1.61802,-0.438591 0.76659,-0.702534 4.46115,-2.488074 4.86054,-2.34905 0.10826,0.03769 -0.40016,1.152921 -1.12995,2.478259 -0.72974,1.325358 -1.29962,2.469726 -1.26641,2.54303 0.0332,0.0733 0.95067,0.116653 2.0388,0.0963 2.19659,-0.04108 2.23294,0.01502 1.00527,1.551438 -1.03897,1.300254 -1.13568,1.659254 -0.41644,1.545829 0.83914,-0.132342 0.85421,-0.101907 0.53594,1.082684 l -0.29143,1.084694 2.78742,3.259904 2.78741,3.259892 2.94219,0.748888 2.94219,0.7489 5.13019,-1.814369 c 2.82159,-0.997896 5.15456,-1.763938 5.18437,-1.702295 0.0298,0.06162 -1.14087,1.707988 -2.60149,3.658574 -1.46063,1.95058 -2.68083,3.61872 -2.71155,3.70699 -0.0307,0.0883 1.68012,-0.0657 3.80187,-0.34212 4.13124,-0.53822 5.32146,-0.63017 5.05449,-0.39048 -0.0924,0.0829 -1.4424,1.20163 -3.00003,2.48598 -1.55764,1.28435 -2.80341,2.39443 -2.7684,2.46685 0.035,0.0724 1.76535,0.39526 3.84515,0.7174 2.07981,0.32215 3.82019,0.66581 3.86753,0.7637 0.0473,0.0979 -1.11106,0.87098 -2.57422,1.71799 -1.46316,0.84701 -2.68949,1.62395 -2.7252,1.72653 -0.0357,0.10258 0.55324,0.13096 1.30877,0.0631 1.08835,-0.0978 1.87966,0.0488 3.80947,0.70566 l 2.43576,0.82913 2.53062,-1.21325 c 2.83935,-1.36126 2.89008,-1.28902 1.03495,1.47387 -1.52823,2.276 -1.56541,2.43441 -0.92643,3.94686 0.96449,2.2829 0.78584,5.13592 -0.45676,7.29415 -0.69887,1.21384 -0.70098,1.25168 -0.21965,3.922 0.37887,2.10181 0.58932,2.69203 0.95451,2.67686 1.95239,-0.0811 3.9143,0.32166 5.16621,1.06051 1.54687,0.91293 2.97478,2.31528 3.4552,3.39336 0.41974,0.94191 0.84811,1.10259 3.58411,1.34439 1.17745,0.10406 2.29689,0.24159 2.48765,0.30563 0.19068,0.0643 -0.81122,0.70939 -2.22663,1.43414 l -2.57347,1.31771 -0.12709,1.17414 c -0.27584,2.54834 -2.09413,5.23698 -4.39344,6.49641 l -1.23819,0.67821 -0.3783,2.90326 c -0.36856,2.82851 -0.36043,2.91409 0.3158,3.32376 2.19364,1.32894 3.762,3.87219 4.05601,6.5772 0.10443,0.96086 0.1427,1.88284 0.085,2.04885 -0.0577,0.16601 0.62804,0.82217 1.52378,1.45812 3.22005,2.28616 3.24292,2.30658 2.61536,2.3341 -0.31069,0.0136 -1.67297,-0.007 -3.02728,-0.0467 l -2.46241,-0.0715 -0.86656,1.04427 c -1.70725,2.05735 -3.21844,2.65751 -7.78538,3.09195 -0.46856,0.0446 -3.01453,3.14237 -3.37544,4.10703 -0.12084,0.32281 -0.006,1.11348 0.25529,1.75701 0.26118,0.64353 0.5503,1.89544 0.64248,2.78203 0.14408,1.38578 0.0503,1.94881 -0.66799,4.01242 l -0.83558,2.40044 1.05164,2.52247 c 0.835,2.00284 0.93919,2.4496 0.50578,2.16871 -0.30021,-0.19461 -1.36554,-0.8758 -2.36738,-1.51387 l -1.82153,-1.16011 -1.3284,0.48715 c -3.28922,1.20625 -6.14901,0.71877 -9.2989,-1.58508 -0.3921,-0.28678 -0.89432,-0.16714 -2.56021,0.60995 -1.82635,0.85194 -2.08302,1.05696 -2.16175,1.72673 -0.33846,2.87936 -0.49884,3.52918 -1.15022,4.66055 -0.93663,1.62681 -1.71338,2.44794 -3.3093,3.49839 l -1.3475,0.88692 -0.24872,2.37422 c -0.1368,1.30581 -0.29598,2.50994 -0.35372,2.67584 -0.0578,0.1659 -0.6905,-0.77989 -1.40611,-2.10174 l -1.3011,-2.40338 -2.09758,-0.58655 c -2.49614,-0.698 -3.9246,-1.67859 -5.1516,-3.53635 l -0.80644,-1.22102 -1.73417,-0.22381 c -0.9538,-0.12309 -2.35172,-0.2108 -3.10648,-0.19492 -1.20728,0.0254 -1.46648,0.14529 -2.15523,0.99683 -1.475779,1.82455 -5.889021,3.5734 -7.554522,2.99365 -0.331472,-0.11538 -0.725375,0.24885 -1.595797,1.47564 -1.979524,2.78995 -2.470037,3.39382 -2.519232,3.10147 z m 5.658948,-7.64798 c 3.684661,-0.33772 6.054546,-4.1814 4.749808,-7.70362 -0.648946,-1.75185 -1.716443,-2.7615 -3.611243,-3.41552 -5.684836,-1.96223 -10.141558,4.98507 -5.984338,9.32859 1.131954,1.18269 3.188157,1.94246 4.84577,1.79055 z m -2.689674,-4.61975 c -1.279015,-2.42237 1.666729,-4.50496 3.810649,-2.69407 0.418225,0.35325 0.658463,1.76615 0.417844,2.4574 -0.09439,0.27115 -0.583143,0.73762 -1.086133,1.03661 -1.125097,0.66879 -2.559684,0.30359 -3.14236,-0.79994 z M 76.301,183.9283 c 2.544538,-0.50288 4.634361,-3.03832 4.677075,-5.67439 0.03869,-2.38806 -1.571636,-4.60901 -3.950082,-5.44789 -1.585079,-0.55917 -2.825935,-0.47049 -4.456906,0.31821 -3.759123,1.81782 -4.280488,6.98111 -0.984608,9.75095 1.03417,0.86911 3.198867,1.35265 4.714521,1.05312 z m -3.291117,-4.55036 c -0.829825,-1.86216 0.895595,-3.74284 2.819443,-3.07316 1.291859,0.44968 1.88998,1.63704 1.454644,2.88767 -0.67341,1.93456 -3.441118,2.05467 -4.274087,0.18549 z m 43.087937,18.53598 c 2.42031,-0.3331 4.24944,-1.96539 4.83588,-4.31545 0.71553,-2.8674 -0.59616,-5.47093 -3.33802,-6.62553 -5.07816,-2.13843 -9.88965,3.05623 -7.36583,7.9524 1.12054,2.17382 3.38993,3.32963 5.86797,2.98858 z m -2.58229,-4.29732 c -0.26608,-0.23203 -0.53388,-0.87553 -0.59511,-1.43 -0.0949,-0.85934 -0.0236,-1.10658 0.48271,-1.67511 0.62617,-0.70298 1.89031,-1.0298 2.78227,-0.71932 0.82431,0.28694 1.53329,2.01184 1.20937,2.94237 -0.18722,0.53786 -0.58695,0.93926 -1.25897,1.26424 -1.00496,0.48596 -1.74924,0.37741 -2.62031,-0.38219 z M 88.21898,183.55273 c 1.485788,-0.98242 2.613282,-1.42971 4.241872,-1.68279 1.28423,-0.19958 1.779741,-0.12682 3.731449,0.5479 1.917181,0.66312 2.420333,0.94585 3.397056,1.91095 0.630563,0.62311 1.494803,1.86574 1.920513,2.76141 l 0.77403,1.62848 2.17785,0.2871 c 1.19782,0.1579 2.30319,0.18528 2.45637,0.0608 0.1532,-0.12445 0.51796,-0.69622 0.81058,-1.27059 1.64634,-3.23151 5.86899,-5.01655 9.80473,-4.14478 1.11492,0.24695 1.82354,0.59008 3.02097,1.46292 0.86042,0.62716 1.68093,1.18086 1.82335,1.23043 0.14242,0.0496 1.02465,-0.41149 1.96051,-1.02459 l 1.70155,-1.11471 0.0662,-1.61388 c 0.21524,-5.25015 4.72229,-9.21262 9.84612,-8.65645 1.61281,0.17505 1.71288,0.10006 3.33519,-2.499 l 0.96622,-1.54796 -0.73371,-1.51729 c -1.27886,-2.64457 -1.24926,-5.60606 0.0806,-8.06177 0.90387,-1.66909 2.13411,-2.83209 4.07423,-3.85152 l 1.5581,-0.81871 0.37388,-2.04097 c 0.54764,-2.98962 0.57415,-2.86537 -0.74008,-3.46933 -2.38376,-1.09546 -4.21848,-3.73825 -4.61682,-6.65022 -0.27606,-2.01815 0.42712,-4.73863 1.61904,-6.26376 0.45164,-0.57789 0.83038,-1.07719 0.84165,-1.10957 0.0113,-0.0324 -0.8439,-1.00287 -1.90036,-2.15664 -1.87394,-2.04656 -1.97697,-2.1191 -4.21898,-2.97024 -2.0795,-0.7894 -2.42033,-1.00574 -3.58239,-2.27357 -0.70634,-0.77063 -1.47115,-1.90625 -1.69958,-2.5236 l -0.41534,-1.12247 -1.5581,-0.19014 c -0.85696,-0.10456 -2.27428,-0.12467 -3.1496,-0.0447 -1.11236,0.10168 -2.3826,-0.0486 -4.21926,-0.49913 -2.52734,-0.61997 -2.67833,-0.62257 -3.9505,-0.068 -0.72749,0.31715 -1.9116,0.79608 -2.63135,1.06429 -1.61784,0.60289 -4.15725,2.50925 -7.06058,5.30045 -2.64299,2.54091 -3.21978,3.47974 -3.19187,5.19522 0.0331,2.03167 0.006,2.22391 -0.2988,2.11784 -0.15935,-0.0555 -0.64881,-0.77406 -1.08771,-1.59686 -0.84261,-1.57964 -4.158587,-6.1126 -4.578451,-6.25875 -0.135875,-0.0473 -0.389964,0.035 -0.564644,0.18279 -0.298203,0.25236 -1.437931,0.52089 -1.749913,0.41229 -0.266786,-0.0929 0.167997,-0.93762 0.675917,-1.31326 1.946124,-1.4393 1.896686,-1.35633 1.228377,-2.06149 -0.515703,-0.54415 -1.177387,-2.38812 -1.019595,-2.84142 0.02637,-0.0757 0.437279,0.19637 0.913131,0.60472 0.475838,0.4084 0.952687,0.70021 1.059666,0.64847 0.106974,-0.0517 0.08393,-0.67823 -0.05122,-1.39224 -0.265021,-1.40011 -0.153234,-3.08699 0.196504,-2.96525 0.118492,0.0412 0.831152,0.73899 1.583682,1.55055 0.75254,0.81156 1.40889,1.3588 1.45857,1.21609 0.0497,-0.1427 0.0302,-0.99677 -0.0434,-1.89791 -0.0735,-0.90113 -0.0723,-1.66811 0.003,-1.70438 0.075,-0.0363 0.49785,0.258 0.93962,0.65397 0.44179,0.39595 0.85976,0.69259 0.92884,0.65918 0.20102,-0.0972 2.07963,-2.49743 2.1797,-2.78493 0.05,-0.14369 0.88869,-1.05537 1.8637,-2.02594 1.66621,-1.65862 1.79918,-1.86612 2.21244,-3.45227 0.24187,-0.92816 0.37556,-1.81399 0.29717,-1.9685 -0.0784,-0.15451 -0.84368,-0.24572 -1.70066,-0.20268 l -1.55815,0.0782 -0.86621,1.46266 c -2.27553,3.84242 -6.08949,5.42206 -10.244853,4.24315 -1.5187,-0.43092 -2.155885,-0.74833 -3.096546,-1.54013 l -1.184239,-0.99759 -1.06576,0.49498 c -0.586168,0.27224 -1.566129,0.84696 -2.177689,1.27714 -1.080773,0.76025 -1.109653,0.81021 -1.03073,1.78305 0.04917,0.60609 -0.185311,1.79216 -0.59446,3.00693 -0.732001,2.17331 -1.664627,3.39769 -3.525126,4.62788 -1.303115,0.86163 -3.901053,1.51862 -5.432284,1.37375 -1.392421,-0.13174 -1.405429,-0.11897 -3.329982,3.26649 -0.697405,1.2268 -0.701318,1.27631 -0.201727,2.55312 0.926923,2.36891 0.941503,3.74029 0.06665,6.26695 -0.933497,2.69604 -1.85987,3.79516 -4.262811,5.05778 l -1.576495,0.82837 -0.354321,1.93563 c -0.520028,2.84087 -0.480358,3.05745 0.666289,3.63747 1.362106,0.689 3.043876,2.45057 3.79094,3.97081 0.343974,0.69996 0.713038,2.05958 0.820139,3.02138 0.164843,1.4803 0.08711,2.05526 -0.506401,3.74589 -0.507735,1.44645 -0.94154,2.24963 -1.572914,2.91264 -0.859503,0.90256 -0.868291,0.92711 -0.624306,1.74376 0.136113,0.45557 0.538387,1.40544 0.893947,2.11081 l 0.646478,1.2825 1.426741,-0.12878 c 2.188608,-0.19754 5.04494,0.85357 6.605009,2.43061 2.273522,2.29823 3.198033,5.39945 2.513058,8.42987 l -0.337758,1.4943 1.360585,1.01721 c 1.921458,1.43651 2.266615,1.51477 3.393819,0.76945 z M 67.1556,164.17419 c 1.565229,-0.4352 3.493401,-2.13568 3.964721,-3.49652 1.093299,-3.15664 -0.476836,-6.45172 -3.573868,-7.5002 -4.66108,-1.57802 -8.999331,2.82753 -7.300467,7.41368 0.714856,1.92981 1.615819,2.74596 3.751961,3.39882 1.543927,0.47189 2.022694,0.49979 3.157653,0.18422 z m -3.542044,-4.44133 c -0.445116,-0.92047 -0.303967,-1.92926 0.37689,-2.69363 0.689692,-0.77429 1.35889,-0.91464 2.46622,-0.51724 0.919063,0.32945 1.35694,0.86096 1.507487,1.82815 0.155004,0.99584 -0.160874,1.59082 -1.159829,2.18463 -0.734153,0.4364 -1.107275,0.47652 -1.891819,0.20343 -0.639932,-0.22276 -1.088331,-0.56981 -1.298949,-1.00534 z m 72.018694,28.7298 c 4.04016,-0.56979 6.32583,-4.91962 4.46149,-8.49066 -1.44243,-2.76288 -5.58611,-3.87502 -8.14175,-2.18521 -4.14014,2.73752 -3.49307,8.71354 1.11725,10.31836 0.95597,0.33277 1.85212,0.45776 2.56301,0.35751 z m -2.90357,-4.80572 c -0.90467,-1.87079 0.87029,-3.77203 2.87124,-3.07552 1.21656,0.42348 1.7263,1.5743 1.2735,2.87513 -0.64871,1.8636 -3.27896,1.99076 -4.14474,0.20039 z M 68.272956,142.11961 c 1.92802,-0.37165 3.198066,-1.46403 4.021346,-3.45882 0.533239,-1.29203 0.642593,-1.88548 0.514707,-2.79341 -0.865138,-6.14211 -9.084475,-7.05718 -11.110462,-1.23694 -0.643833,1.84959 -0.415999,3.65829 0.647643,5.14146 1.398834,1.95054 3.555415,2.80481 5.926766,2.34771 z m -2.703009,-3.83671 c -1.184447,-1.05392 -0.884898,-3.20425 0.542522,-3.89452 1.801922,-0.87136 3.772969,0.86762 3.117548,2.7505 -0.535794,1.53922 -2.519191,2.15917 -3.66007,1.14402 z m 81.452143,31.93768 c 0.90495,0.0801 1.72058,-0.10667 2.8493,-0.65249 2.4365,-1.17823 3.52021,-3.09551 3.2515,-5.75244 -0.25127,-2.48428 -1.7993,-4.24194 -4.33731,-4.92463 -2.0492,-0.55121 -3.74251,-0.0958 -5.33098,1.43381 -1.98403,1.9105 -2.35933,4.10696 -1.13451,6.6398 0.56293,1.16408 1.05981,1.78531 1.78941,2.23719 1.39016,0.86099 1.47809,0.89175 2.91247,1.01911 z m -1.17479,-4.11295 c -0.658,-0.60793 -0.92182,-1.75885 -0.6091,-2.65722 0.0971,-0.27897 0.61965,-0.72149 1.16122,-0.98338 1.32386,-0.64018 2.39678,-0.2667 3.03698,1.05715 0.78114,1.61534 -0.0652,3.07706 -1.8443,3.18537 -1.13681,0.0692 -0.94786,0.1344 -1.74476,-0.60204 z M 78.941025,124.1294 c 0.655361,0.058 1.803724,-0.13404 2.551917,-0.4268 5.059035,-1.97952 4.977511,-8.97872 -0.125132,-10.74324 -3.562721,-1.23169 -7.393727,1.22109 -7.670371,4.91135 -0.155273,2.07125 0.615218,3.77112 2.337874,5.15787 1.018589,0.81998 1.410493,0.96844 2.905708,1.10083 z m -1.247958,-4.19564 c -0.672634,-0.73916 -0.696433,-2.24845 -0.04765,-3.02139 1.004374,-1.19656 3.206396,-1.03528 3.843153,0.28148 0.712355,1.4731 -0.0096,3.07338 -1.535014,3.40261 -1.151047,0.24843 -1.533369,0.13634 -2.260494,-0.6627 z m 72.013963,28.12863 c 2.52763,-0.32359 4.17341,-1.77727 4.84693,-4.2812 1.51469,-5.6311 -5.42498,-9.58422 -9.60141,-5.46934 -1.74838,1.72262 -2.18039,4.02756 -1.18803,6.33861 1.08041,2.51613 3.24262,3.75757 5.94251,3.41193 z m -2.45597,-4.1924 c -1.14366,-1.25713 -0.33166,-3.49219 1.35655,-3.73403 1.00363,-0.14376 1.42183,-0.0182 2.10123,0.63072 1.09882,1.04964 0.696,2.92633 -0.78148,3.64081 -1.07899,0.52177 -1.85429,0.36605 -2.67632,-0.53753 z M 140.47054,128.383 c 2.38163,-0.39275 4.32639,-2.31748 4.78101,-4.73175 0.28772,-1.52795 -0.0683,-2.92154 -1.12039,-4.38528 -0.74017,-1.02981 -0.9966,-1.19778 -2.7716,-1.81565 -1.77579,-0.61814 -2.08018,-0.64553 -3.30429,-0.29729 -3.2851,0.93454 -5.10743,4.39904 -3.95171,7.51275 1.00341,2.70333 3.53888,4.18362 6.36698,3.71722 z m -2.55198,-3.87173 c -0.75165,-0.62321 -1.04861,-1.72863 -0.71885,-2.67596 0.64112,-1.84181 3.38252,-1.94892 4.24477,-0.16584 0.48146,0.99564 0.0977,2.36353 -0.81975,2.92199 -0.74777,0.45518 -2.1091,0.41483 -2.70617,-0.0802 z m -37.87369,-10.07041 c 2.27385,-0.32068 4.03812,-1.75981 4.7686,-3.8898 1.4291,-4.16707 -2.18212,-8.23592 -6.576735,-7.41013 -4.541271,0.85334 -6.234373,6.25828 -3.033663,9.68445 0.88345,0.94568 3.47054,1.80887 4.841788,1.61551 z m -2.122615,-3.79334 c -1.489554,-0.86639 -1.328894,-3.26009 0.270728,-4.03362 1.790377,-0.8658 3.773127,0.86714 3.124427,2.73073 -0.51693,1.48502 -2.062383,2.07809 -3.395155,1.30289 z m 24.204285,5.47456 c 5.83443,-0.83574 6.91477,-8.69177 1.52427,-11.08425 -2.53049,-1.12311 -5.88508,-0.0273 -7.25991,2.37161 -1.41723,2.47281 -0.69216,5.93232 1.60551,7.66034 0.85076,0.63985 3.06718,1.20456 4.13013,1.0523 z m -2.32386,-4.06146 c -1.24692,-1.12407 -0.9173,-2.99723 0.6618,-3.76085 0.88667,-0.42877 1.14507,-0.43242 1.90038,-0.0268 1.05999,0.56926 1.64693,1.87119 1.29689,2.87677 -0.50232,1.44307 -2.69468,1.96055 -3.85907,0.91087 z"
       id="path21" />
  </g>
</svg>
