<?xml version="1.0" encoding="UTF-8" standalone="no"?>
<!-- Created with Inkscape (http://www.inkscape.org/) -->

<svg
   width="210mm"
   height="297mm"
   viewBox="0 0 210 297"
   version="1.1"
   id="svg6818"
   inkscape:version="1.1.2 (b8e25be833, 2022-02-05)"
   sodipodi:docname="SoulEater.svg"
   xmlns:inkscape="http://www.inkscape.org/namespaces/inkscape"
   xmlns:sodipodi="http://sodipodi.sourceforge.net/DTD/sodipodi-0.dtd"
   xmlns="http://www.w3.org/2000/svg"
   xmlns:svg="http://www.w3.org/2000/svg">
  <sodipodi:namedview
     id="namedview6820"
     pagecolor="#ffffff"
     bordercolor="#999999"
     borderopacity="1"
     inkscape:pageshadow="0"
     inkscape:pageopacity="0"
     inkscape:pagecheckerboard="0"
     inkscape:document-units="mm"
     showgrid="false"
     inkscape:zoom="0.64052329"
     inkscape:cx="-18.734682"
     inkscape:cy="560.47923"
     inkscape:window-width="1920"
     inkscape:window-height="1017"
     inkscape:window-x="-1928"
     inkscape:window-y="-2"
     inkscape:window-maximized="1"
     inkscape:current-layer="layer1" />
  <defs
     id="defs6815" />
  <g
     inkscape:label="Ebene 1"
     inkscape:groupmode="layer"
     id="layer1">
    <path
       style="fill:#000000;stroke-width:0.184712"
       d="m 84.073053,236.83416 c -9.506245,-3.47642 -16.966791,-7.61741 -24.383087,-13.5339 -12.783882,-10.19858 -22.068152,-23.96049 -26.817812,-39.75161 -0.688879,-2.29035 -1.925603,-7.92774 -2.353924,-10.73006 -0.765008,-5.00501 -1.010776,-12.11279 -0.602518,-17.42555 0.610236,-7.94138 3.257466,-18.34762 6.557612,-25.77744 2.762915,-6.22056 7.034382,-13.1078 11.102328,-17.90116 0.383746,-0.45218 0.719007,-0.90579 0.745029,-1.00803 0.04435,-0.17425 -0.809775,-3.33693 -7.653726,-28.340655 -7.728162,-28.233995 -7.080111,-25.66846 -6.816815,-26.986726 0.202173,-1.012475 0.343866,-1.30323 0.989718,-2.030974 1.475947,-1.663233 2.618301,-1.570269 8.872311,0.722046 1.85123,0.67855 3.838845,1.397395 4.416914,1.597437 0.578065,0.20006 2.661724,0.943608 4.630357,1.652379 1.968624,0.708769 5.741759,2.059702 8.38474,3.002069 2.642988,0.942379 6.376996,2.278544 8.297807,2.969252 1.920808,0.690718 5.654817,2.026884 8.297795,2.96926 2.642991,0.94237 6.416291,2.292653 8.385119,3.000618 1.968826,0.707974 4.012841,1.438831 4.542244,1.624123 0.529411,0.185305 2.573419,0.916149 4.542257,1.624117 1.968825,0.707974 5.742128,2.058248 8.385108,3.000625 2.64299,0.942378 6.37719,2.277778 8.29823,2.967565 1.92105,0.689788 5.65505,2.025973 8.29779,2.9693 2.64274,0.943326 6.37618,2.281762 8.29651,2.974299 1.92035,0.69254 4.47657,1.601391 5.68048,2.01968 1.20392,0.418291 2.85455,1.009773 3.66808,1.314411 0.81351,0.304665 2.42443,0.883689 3.5798,1.286776 1.16644,0.406954 2.51858,1.007278 3.04035,1.349858 0.51683,0.33934 1.09181,0.655692 1.27773,0.703011 0.18592,0.04732 1.28641,0.584368 2.44554,1.193434 18.09697,9.509205 31.94256,25.244475 38.65967,43.936035 1.43011,3.97954 2.0058,5.99545 2.94149,10.30029 2.05521,9.45544 2.35665,19.0575 0.88351,28.14339 -0.49841,3.07416 -2.70348,11.72725 -3.76356,14.77107 -4.29987,12.33992 -12.50662,24.16395 -22.93568,33.04503 -6.76742,5.76293 -15.64081,10.93645 -23.97685,13.97942 -12.32327,4.49844 -24.65342,5.96007 -37.94492,4.49801 -3.039905,-0.33438 -4.067916,-0.53908 -9.938741,-1.97908 -3.601469,-0.8834 -7.215095,-1.85007 -8.030285,-2.14816 z m 12.55369,0.90587 c 14.512857,2.83316 29.628417,1.48073 43.675027,-3.90776 7.91593,-3.03667 16.49268,-8.18564 22.79026,-13.68192 8.27815,-7.22486 15.00121,-16.28248 19.62462,-26.43919 3.16138,-6.9449 5.7789,-17.34608 6.31103,-25.0778 0.28415,-4.1289 0.29646,-6.46097 0.0542,-10.27862 -0.63264,-9.97143 -3.15701,-19.63701 -7.43867,-28.48199 -3.26688,-6.74866 -7.22232,-12.60927 -12.26026,-18.16553 -2.90525,-3.20414 -4.11258,-4.38802 -7.19122,-7.05156 -5.34937,-4.62809 -11.51772,-8.678885 -17.44113,-11.453694 -0.74426,-0.348644 -1.53252,-0.789964 -1.75169,-0.980706 -0.21919,-0.190745 -0.99096,-0.546505 -1.71507,-0.790576 -0.72411,-0.244044 -2.53367,-0.885117 -4.02124,-1.424552 -1.48758,-0.539428 -4.86718,-1.751579 -7.51024,-2.693665 -2.64306,-0.942088 -6.37682,-2.279223 -8.29725,-2.971414 -1.92043,-0.692188 -5.65457,-2.027881 -8.29807,-2.968203 -2.64354,-0.940333 -6.41698,-2.290064 -8.38547,-2.999406 -1.96848,-0.709332 -4.05218,-1.452736 -4.63045,-1.651992 C 99.562909,76.522167 97.518724,75.792 95.59855,75.098791 93.678373,74.405592 89.944845,73.067537 87.301822,72.125335 84.65879,71.18313 80.92488,69.846577 79.004239,69.1552 77.083608,68.463826 73.349699,67.127231 70.706688,66.184981 65.547584,64.345742 59.048492,62.021842 53.14921,59.90691 46.956358,57.686728 40.462069,55.366578 39.121678,54.895424 c -1.518389,-0.533721 -2.262585,-0.48526 -2.759701,0.179763 -0.467102,0.624854 -0.441052,1.096109 0.183558,3.321112 0.293289,1.044768 1.487242,5.401644 2.653216,9.681954 1.165985,4.280303 3.50972,12.853436 5.208296,19.051413 1.698579,6.197963 3.883792,14.187454 4.856039,17.754414 l 1.767712,6.48538 -1.191987,1.38046 c -6.548646,7.58415 -11.486278,16.67663 -14.555195,26.80287 -4.707445,15.53275 -4.30242,31.76306 1.181255,47.33606 6.291968,17.86844 19.334211,33.05157 36.460775,42.44585 7.122688,3.90694 15.038727,6.71428 23.701097,8.40533 z m -7.545696,-3.35832 c -9.925251,-3.23209 -16.417,-6.43987 -23.957026,-11.83797 -2.598761,-1.86053 -8.034496,-6.61538 -10.444851,-9.13653 -19.201499,-20.08419 -25.912865,-48.82543 -17.475406,-74.83809 2.961709,-9.13097 7.909309,-17.97463 13.96929,-24.96966 l 1.611786,-1.86048 -1.012085,-3.68151 C 49.320943,99.1389 37.812106,57.008543 37.710763,56.58074 c -0.06173,-0.260556 -0.07886,-0.493322 -0.03807,-0.517262 0.04077,-0.02398 0.740721,0.202041 1.555388,0.502192 0.814667,0.30011 5.294646,1.906808 9.955513,3.570348 4.660867,1.66354 12.168876,4.347277 16.684446,5.963859 8.112629,2.904332 18.874663,6.753967 31.445264,11.248118 3.555219,1.271035 9.332929,3.339288 12.839349,4.596118 9.30797,3.3363 26.48505,9.470282 28.91623,10.326054 1.15453,0.406391 2.39374,0.929381 2.75381,1.162205 0.36007,0.232815 1.4564,0.811709 2.43629,1.286437 13.73291,6.653151 25.0071,17.015751 32.83054,30.175971 10.76374,18.10628 13.41577,39.22498 7.44942,59.32131 -6.69563,22.55272 -24.23685,40.85694 -46.85031,48.88815 -12.10695,4.2998 -25.41851,5.55989 -38.015089,3.59855 -2.951149,-0.45951 -8.835388,-1.7489 -10.592494,-2.32108 z m 31.936903,-5.29149 c 0.39931,-0.26506 0.52252,-0.85115 3.5483,-16.87963 1.72404,-9.13277 3.22429,-16.84666 3.33387,-17.14197 l 0.1992,-0.53695 11.5764,8.06057 c 6.36702,4.43331 11.79115,8.11946 12.05362,8.19144 0.26248,0.072 0.63602,0.0365 0.83012,-0.0788 0.74377,-0.44198 0.80965,0.22216 -1.38563,-13.96696 -0.44742,-2.89189 -0.862,-5.59095 -0.9213,-5.99794 l -0.1078,-0.73998 -0.95376,0.14836 c -0.52458,0.0816 -1.03235,0.19414 -1.12841,0.25009 -0.0961,0.0559 0.0654,1.65689 0.3589,3.55768 1.61679,10.47258 1.97824,12.95376 1.90275,13.06179 -0.0458,0.0656 -5.1102,-3.38254 -11.25418,-7.66248 -8.14382,-5.67305 -11.34348,-7.81235 -11.80785,-7.89475 -1.06709,-0.18935 -1.14051,0.003 -2.2352,5.86531 -3.09958,16.59815 -4.88025,25.8975 -5.03839,26.31235 -0.15404,0.40416 -1.22802,-1.86114 -7.53059,-15.88427 -4.04299,-8.99562 -7.44882,-16.4878 -7.56852,-16.6493 -0.1197,-0.1615 -0.44212,-0.35078 -0.7165,-0.42061 -0.43094,-0.10968 -2.41776,1.12292 -14.594706,9.05451 -7.752723,5.04981 -14.119811,9.14116 -14.149089,9.0919 -0.04758,-0.08 1.894005,-7.08363 6.075303,-21.91455 1.355394,-4.80754 1.527497,-5.7289 1.145829,-6.13433 -0.441745,-0.46927 0.250104,-0.54099 -21.648734,2.24449 -3.726514,0.474 -6.795119,0.82879 -6.819109,0.7884 -0.02399,-0.0404 2.419949,-3.1902 5.430976,-6.9996 3.01103,-3.80942 5.493255,-6.9995 5.516053,-7.08908 0.0582,-0.22868 -1.582202,-1.42895 -1.77595,-1.29944 -0.08742,0.0584 -3.036624,3.76235 -6.553802,8.23096 -4.469065,5.67797 -6.415841,8.28023 -6.464464,8.64111 -0.04402,0.32701 0.07795,0.65624 0.332675,0.89772 0.469595,0.44518 -0.822476,0.56556 13.642728,-1.27107 14.314105,-1.81744 15.514391,-1.9627 15.741459,-1.90491 0.15538,0.0395 -0.0097,0.79249 -0.643098,2.93359 -0.468665,1.5842 -2.297609,8.0291 -4.064315,14.32201 -3.050886,10.86708 -3.200899,11.46299 -2.987324,11.86696 0.328569,0.62146 1.154079,0.76292 1.876823,0.32161 0.333229,-0.20347 7.021101,-4.55096 14.861934,-9.66107 7.84084,-5.11013 14.310081,-9.25311 14.376081,-9.20662 0.066,0.0465 3.58336,7.78471 7.81633,17.19606 4.23297,9.41134 7.84656,17.38564 8.03019,17.72067 0.39828,0.72657 1.10964,0.96802 1.69913,0.57673 z m -46.153431,-70.6539 c 3.541149,0.56555 6.315251,0.61172 8.256146,0.13743 3.388906,-0.82816 5.647472,-2.01875 8.716636,-4.59496 1.261406,-1.05879 2.927952,-2.78877 2.822406,-2.92982 -0.03853,-0.0515 -1.421468,-0.84975 -3.073201,-1.7739 -1.651734,-0.92415 -3.561022,-2.01585 -4.242863,-2.42598 -0.681841,-0.41014 -1.90987,-1.14558 -2.728953,-1.6343 -10.495218,-6.26226 -19.674793,-13.09757 -24.147358,-17.98067 -1.038929,-1.13427 -1.56255,-1.58769 -1.690655,-1.46397 -0.102069,0.0986 -0.498268,0.79738 -0.88042,1.55288 -0.527091,1.04203 -0.879647,2.10882 -1.460387,4.41901 -0.678968,2.70014 -0.768476,3.29305 -0.790994,5.23079 -0.03792,3.25939 0.419141,5.43684 1.85975,8.85974 3.001104,7.13069 8.616064,11.2073 17.359893,12.60375 z m 74.599921,18.80102 c 6.07943,0.83949 11.68484,-0.99004 16.57983,-5.41142 1.99873,-1.80535 3.06909,-3.1132 4.29434,-5.24715 0.87802,-1.52921 0.97491,-1.80936 1.94937,-5.6367 0.8714,-3.4223 1.01776,-4.20848 0.9744,-5.23176 -0.0281,-0.66234 -0.0736,-1.20999 -0.10119,-1.21701 -0.0276,-0.007 -0.9626,0.30681 -2.07778,0.69741 -7.7388,2.71054 -21.47338,4.27998 -39.65183,4.53097 -0.84161,0.0116 -1.61203,0.0627 -1.71207,0.11341 -0.2577,0.13077 0.0904,1.53731 0.94846,3.83264 1.38986,3.71776 3.01035,6.09438 5.80908,8.51961 2.46524,2.13624 8.29086,4.40147 12.98739,5.05 z m -37.4818,-12.78597 c 1.70686,-0.36067 4.96335,-2.20162 4.73706,-2.67794 -0.50447,-1.0619 -3.69195,-2.40972 -6.3925,-2.70303 -1.66205,-0.18053 -4.30654,-0.19046 -4.61778,-0.0173 -0.59477,0.33082 1.16743,3.7546 2.49068,4.83914 0.89689,0.73509 2.10488,0.91367 3.78254,0.55917 z"
       id="path7026" />
  </g>
</svg>
