<?xml version="1.0" encoding="UTF-8" standalone="no"?>
<!-- Created with Inkscape (http://www.inkscape.org/) -->

<svg
   width="210mm"
   height="297mm"
   viewBox="0 0 210 297"
   version="1.1"
   id="svg6818"
   inkscape:version="1.1.2 (b8e25be833, 2022-02-05)"
   sodipodi:docname="SoulEater.svg"
   xmlns:inkscape="http://www.inkscape.org/namespaces/inkscape"
   xmlns:sodipodi="http://sodipodi.sourceforge.net/DTD/sodipodi-0.dtd"
   xmlns="http://www.w3.org/2000/svg"
   xmlns:svg="http://www.w3.org/2000/svg">
  <sodipodi:namedview
     id="namedview6820"
     pagecolor="#ffffff"
     bordercolor="#999999"
     borderopacity="1"
     inkscape:pageshadow="0"
     inkscape:pageopacity="0"
     inkscape:pagecheckerboard="0"
     inkscape:document-units="mm"
     showgrid="false"
     inkscape:zoom="0.64052329"
     inkscape:cx="-18.734682"
     inkscape:cy="560.47923"
     inkscape:window-width="1920"
     inkscape:window-height="1017"
     inkscape:window-x="-8"
     inkscape:window-y="-8"
     inkscape:window-maximized="1"
     inkscape:current-layer="layer1" />
  <defs
     id="defs6815" />
  <g
     inkscape:label="Ebene 1"
     inkscape:groupmode="layer"
     id="layer1">
    <path
       style="fill:#000000;stroke-width:0.184712"
       d="m 104.79988,238.76978 c -10.070007,-1.0243 -18.321433,-3.19721 -26.967901,-7.10167 -14.9044,-6.73034 -27.29621,-17.77711 -35.79401,-31.90885 -1.23251,-2.04967 -3.82149,-7.20786 -4.92777,-9.81795 -1.97586,-4.66169 -3.96717,-11.48925 -4.88192,-16.73857 -1.36736,-7.84654 -1.36862,-18.58422 -0.003,-26.59847 1.14325,-6.70985 3.58401,-14.43786 6.34399,-20.08649 0.26036,-0.53286 0.47338,-1.05515 0.47338,-1.16065 0,-0.1798 -1.60781,-3.0341 -14.40749,-25.577263 -14.45332,-25.45554 -13.1925,-23.12911 -13.26249,-24.47159 -0.0538,-1.03106 0.0118,-1.34778 0.4582,-2.21234 1.02011,-1.97589 2.1501,-2.16756 8.77629,-1.48862 1.9614,0.20098 4.06491,0.40737 4.67446,0.45865 0.60955,0.0513 2.81223,0.25794 4.89486,0.45925 2.08262,0.20131 6.07239,0.57986 8.86615,0.84122 2.79377,0.26137 6.74198,0.63526 8.77381,0.83086 2.03183,0.19561 5.98004,0.5695 8.7738,0.83087 2.79377,0.26136 6.78354,0.63924 8.86616,0.83972 2.08262,0.20049 4.24375,0.40461 4.8025,0.4536 0.55876,0.049 2.71988,0.25311 4.80251,0.45359 2.08262,0.20049 6.072392,0.57836 8.866155,0.83973 2.793764,0.26137 6.741976,0.63447 8.773804,0.82912 2.031828,0.19465 5.980042,0.56856 8.773802,0.83091 2.79376,0.26235 6.74198,0.63858 8.7738,0.83607 2.03183,0.19749 4.73324,0.44777 6.00313,0.55619 1.2699,0.10842 3.01542,0.2745 3.87895,0.36907 0.86352,0.0946 2.56749,0.2584 3.78659,0.36406 1.23077,0.10668 2.68921,0.35495 3.27936,0.55825 0.58456,0.20138 1.2198,0.36614 1.41165,0.36614 0.19185,0 1.3908,0.24902 2.66434,0.55337 19.88331,4.75179 37.18224,16.58589 48.3021,33.043193 2.36748,3.50385 3.42261,5.31549 5.39118,9.25654 4.3239,8.65639 6.98438,17.88744 7.79779,27.05597 0.27523,3.10211 0.27257,12.03174 -0.004,15.24299 -1.12337,13.01924 -6.16017,26.50216 -14.0765,37.68118 -5.13691,7.25407 -12.4601,14.45638 -19.78805,19.46142 -10.83299,7.399 -22.42169,11.8567 -35.66316,13.71817 -3.02846,0.42574 -4.0752,0.48092 -10.11982,0.53345 -3.70809,0.0322 -7.4485,-0.0133 -8.31203,-0.10112 z m 12.38927,-2.21849 c 14.76328,-0.83397 29.07826,-5.87288 41.36182,-14.55949 6.92237,-4.89531 13.96414,-12.00066 18.71149,-18.88043 6.24038,-9.04345 10.52167,-19.47948 12.49708,-30.46276 1.35074,-7.51009 1.32194,-18.23553 -0.0694,-25.85963 -0.74302,-4.07142 -1.3063,-6.33447 -2.48265,-9.97443 -3.07255,-9.50732 -7.90295,-18.25164 -14.23394,-25.76728 -4.83051,-5.73438 -10.10926,-10.43831 -16.36201,-14.580303 -3.60579,-2.38856 -5.06782,-3.23808 -8.70831,-5.05998 -6.32562,-3.16568 -13.30252,-5.5699 -19.72733,-6.79797 -0.80726,-0.1543 -1.68002,-0.38756 -1.93947,-0.51835 -0.25946,-0.13079 -1.09514,-0.2852 -1.85707,-0.34313 -0.76194,-0.0579 -2.67371,-0.23284 -4.24837,-0.3887 -1.57467,-0.15585 -5.14884,-0.49697 -7.9426,-0.75804 -2.79377,-0.26107 -6.74198,-0.63596 -8.77381,-0.83309 -2.03182,-0.19713 -5.98004,-0.57053 -8.7738,-0.82978 -2.793804,-0.25925 -6.783575,-0.63656 -8.866199,-0.83846 -2.082624,-0.20189 -4.285311,-0.40838 -4.894859,-0.45885 -0.609548,-0.0505 -2.770673,-0.25391 -4.802503,-0.45209 -2.03183,-0.19817 -5.98004,-0.57401 -8.7738,-0.8352 -2.79377,-0.26119 -6.74198,-0.63548 -8.77381,-0.83177 -2.03182,-0.19629 -5.98004,-0.57062 -8.7738,-0.83186 -5.45336,-0.50992 -12.32485,-1.15902 -18.56352,-1.75355 -6.54913,-0.62412 -13.41504,-1.27077 -14.83023,-1.39676 -1.60312,-0.14272 -2.31237,0.0878 -2.6301,0.85489 -0.29855,0.72076 -0.15707,1.17103 0.99704,3.17323 0.54192,0.94015 2.77361,4.86793 4.9593,8.72841 2.1857,3.86047 6.57159,11.59065 9.74642,17.178183 3.17483,5.58752 7.26314,12.79119 9.08514,16.00814 l 3.31272,5.84901 -0.81467,1.63181 c -4.47569,8.96506 -7.01811,18.99449 -7.49457,29.56483 -0.73085,16.21395 3.66487,31.84291 12.82021,45.58223 10.50483,15.76447 26.88905,27.26164 45.803584,32.14141 7.866277,2.02942 16.230177,2.79753 25.042017,2.29976 z m -8.1409,-1.39342 c -10.4158,-0.68416 -17.498185,-2.19165 -26.1367,-5.56322 -2.977371,-1.16206 -9.417951,-4.42928 -12.375681,-6.27803 -23.56203,-14.72762 -37.15508,-40.92553 -35.39433,-68.21562 0.61805,-9.57937 3.2315,-19.37013 7.37893,-27.64374 l 1.1031,-2.20055 -1.88886,-3.31813 c -4.57583,-8.03829 -26.12056,-46.028353 -26.32429,-46.417943 -0.12409,-0.23728 -0.1981,-0.45863 -0.16448,-0.49189 0.0336,-0.0333 0.76767,0.0131 1.6312,0.10304 0.86352,0.0899 5.60138,0.54197 10.52856,1.00451 4.92718,0.46254 12.86517,1.21151 17.63996,1.66438 8.57834,0.81362 19.95739,1.88986 33.2481,3.14462 3.758882,0.35487 9.86822,0.93415 13.576306,1.28729 9.843295,0.93741 28.002625,2.64515 30.569775,2.87483 1.2191,0.10907 2.54902,0.31025 2.95539,0.44707 0.40637,0.13681 1.61161,0.42741 2.67832,0.64578 14.94962,3.06037 28.43143,10.32204 39.25913,21.146013 14.89711,14.892 22.67614,34.7041 21.85089,55.65115 -0.92613,23.50742 -13.41067,45.57267 -33.34458,58.93337 -10.67235,7.15314 -23.26184,11.65759 -35.95301,12.8638 -2.97331,0.28259 -8.99378,0.48439 -10.83773,0.36327 z m 29.64505,-13.00525 c 0.3216,-0.35536 0.29644,-0.95373 -0.72469,-17.23331 -0.58182,-9.27585 -1.03056,-17.12145 -0.9972,-17.43467 l 0.0606,-0.56949 13.20689,4.95621 c 7.26378,2.72592 13.42952,4.96032 13.70164,4.96534 0.27212,0.005 0.62538,-0.12148 0.78503,-0.28113 0.61178,-0.61177 0.83943,0.0156 -4.78777,-13.19368 -1.14688,-2.69218 -2.21438,-5.2056 -2.37223,-5.58539 l -0.28699,-0.69053 -0.8877,0.37903 c -0.48824,0.20846 -0.95257,0.44277 -1.03186,0.52068 -0.0793,0.0779 0.4721,1.58956 1.22531,3.35924 4.14991,9.75024 5.11217,12.06562 5.06566,12.18893 -0.0282,0.0749 -5.78662,-2.0176 -12.79643,-4.6499 -9.29147,-3.4891 -12.91993,-4.77311 -13.39028,-4.73843 -1.08083,0.0797 -1.10446,0.28452 -0.71946,6.23541 1.09012,16.84986 1.65815,26.3011 1.60722,26.74214 -0.0496,0.42967 -1.64913,-1.50075 -11.21579,-13.5361 -6.13685,-7.72049 -11.28541,-14.14114 -11.44124,-14.26813 -0.15584,-0.12699 -0.51498,-0.23089 -0.79811,-0.23089 -0.44468,0 -2.06609,1.68457 -11.9105,12.37455 -6.267661,6.80601 -11.428902,12.3414 -11.469426,12.30088 -0.06585,-0.0658 0.08831,-7.33193 0.482375,-22.73596 0.127737,-4.99332 0.06727,-5.92866 -0.402607,-6.22743 -0.543841,-0.34581 0.108943,-0.58596 -20.426283,7.51481 -3.49447,1.3785 -6.38076,2.4792 -6.41397,2.44598 -0.0332,-0.0332 1.55832,-3.68852 3.53673,-8.1229 1.97841,-4.43439 3.59711,-8.13816 3.59711,-8.23059 0,-0.23597 -1.88577,-0.99455 -2.04159,-0.82126 -0.0703,0.0782 -2.01482,4.3951 -4.32115,9.59316 -2.93052,6.60484 -4.1753,9.60688 -4.13341,9.9686 0.038,0.32777 0.2374,0.61674 0.54382,0.78793 0.56489,0.3156 -0.65757,0.75095 12.90772,-4.59678 13.423592,-5.29187 14.550967,-5.72869 14.785274,-5.72869 0.160333,0 0.186085,0.77039 0.10034,3.00157 -0.06344,1.65086 -0.246242,8.34775 -0.406219,14.88199 -0.276259,11.28384 -0.274655,11.89834 0.03196,12.23715 0.471702,0.52122 1.306599,0.4547 1.898164,-0.15124 0.272747,-0.27938 5.681686,-6.14211 12.019862,-13.02829 6.33818,-6.88619 11.58568,-12.49681 11.66111,-12.46804 0.0754,0.0288 5.39275,6.66036 11.81625,14.73688 6.4235,8.07651 11.89231,14.91315 12.15291,15.19253 0.56518,0.60589 1.31412,0.66442 1.78888,0.13982 z M 76.538999,165.06536 c 3.571236,-0.32535 6.271019,-0.96484 8.034965,-1.9032 3.07994,-1.63844 4.975065,-3.34933 7.313985,-6.60295 0.961282,-1.33721 2.149641,-3.42479 2.012566,-3.53545 -0.05004,-0.0404 -1.587142,-0.47289 -3.415787,-0.96109 -1.828645,-0.4882 -3.948212,-1.07524 -4.710147,-1.30453 -0.761936,-0.22929 -2.13342,-0.63911 -3.047742,-0.91071 -11.71555,-3.48013 -22.29745,-7.84012 -27.83625,-11.46919 -1.2866,-0.84298 -1.90588,-1.15324 -1.99951,-1.00174 -0.0746,0.12071 -0.2862,0.89564 -0.4702,1.72206 -0.25379,1.13984 -0.33233,2.26063 -0.32532,4.64268 0.008,2.78419 0.0675,3.38086 0.52362,5.26428 0.76718,3.16805 1.74719,5.16549 3.98755,8.12731 4.66717,6.17016 11.11415,8.73589 19.93227,7.93253 z m 76.932401,-0.17994 c 6.09866,-0.68593 11.07964,-3.84152 14.73286,-9.33365 1.49169,-2.24256 2.2064,-3.77401 2.86745,-6.14423 0.47372,-1.69853 0.49851,-1.99392 0.49885,-5.94337 3.7e-4,-3.5315 -0.0517,-4.32949 -0.34612,-5.31046 -0.19056,-0.63495 -0.36976,-1.15445 -0.39824,-1.15445 -0.0285,0 -0.85718,0.53476 -1.84157,1.18835 -6.83115,4.53557 -19.75429,9.44416 -37.3092,14.17112 -0.81274,0.21884 -1.54677,0.45833 -1.6312,0.53219 -0.21749,0.19029 0.46676,1.46752 1.86448,3.48029 2.2639,3.26009 4.42052,5.16359 7.73097,6.82358 2.91598,1.46219 9.12033,2.22054 13.83172,1.69063 z m -39.47745,-3.14604 c 1.56517,-0.77053 4.26698,-3.35781 3.9302,-3.7636 -0.75081,-0.90467 -4.17225,-1.42465 -6.86171,-1.04281 -1.65523,0.23499 -4.22046,0.87763 -4.47939,1.12217 -0.4948,0.4673 2.05744,3.35066 3.60731,4.07531 1.05049,0.49116 2.2652,0.36627 3.80359,-0.39107 z"
       id="path7026" />
  </g>
</svg>
