<?xml version="1.0" encoding="UTF-8" standalone="no"?>
<!-- Created with Inkscape (http://www.inkscape.org/) -->

<svg
   width="210mm"
   height="297mm"
   viewBox="0 0 210 297"
   version="1.1"
   id="svg5"
   inkscape:version="1.1.2 (b8e25be833, 2022-02-05)"
   sodipodi:docname="SpaceCowboy.svg"
   xmlns:inkscape="http://www.inkscape.org/namespaces/inkscape"
   xmlns:sodipodi="http://sodipodi.sourceforge.net/DTD/sodipodi-0.dtd"
   xmlns="http://www.w3.org/2000/svg"
   xmlns:svg="http://www.w3.org/2000/svg">
  <sodipodi:namedview
     id="namedview7"
     pagecolor="#ffffff"
     bordercolor="#999999"
     borderopacity="1"
     inkscape:pageshadow="0"
     inkscape:pageopacity="0"
     inkscape:pagecheckerboard="0"
     inkscape:document-units="mm"
     showgrid="false"
     inkscape:zoom="0.90509668"
     inkscape:cx="467.90582"
     inkscape:cy="461.82912"
     inkscape:window-width="1920"
     inkscape:window-height="1017"
     inkscape:window-x="-8"
     inkscape:window-y="-8"
     inkscape:window-maximized="1"
     inkscape:current-layer="layer1" />
  <defs
     id="defs2" />
  <g
     inkscape:label="Ebene 1"
     inkscape:groupmode="layer"
     id="layer1">
    <path
       style="fill:#000000;stroke-width:0.238056"
       d="m 70.292318,102.87788 c -0.286417,-0.61736 -0.478015,-1.37985 -0.425759,-1.69445 0.06574,-0.39581 -0.242096,-1.210986 -0.999504,-2.646643 -0.601997,-1.141068 -1.124615,-2.232406 -1.161397,-2.425186 -0.126752,-0.664328 0.363221,-0.348901 1.286432,0.82817 1.48061,1.887726 2.20509,2.476542 2.883523,2.34357 0.331364,-0.06495 2.373703,-1.087259 4.538542,-2.271821 2.164831,-1.184554 4.330448,-2.332073 4.812483,-2.550048 0.482035,-0.217986 1.259767,-0.795776 1.72828,-1.283974 0.725408,-0.755894 0.837074,-1.03447 0.752331,-1.876829 -0.140976,-1.40131 -2.269346,-5.626562 -6.294193,-12.495229 -1.859453,-3.17325 -3.313166,-5.811579 -3.230509,-5.862931 0.08265,-0.05135 1.487925,1.940582 3.122804,4.426529 3.328154,5.060679 7.729547,11.09468 8.779391,12.035935 1.18674,1.063998 1.819207,0.868915 5.642766,-1.740481 4.769133,-3.254707 7.197942,-5.088174 7.353066,-5.550707 0.124611,-0.371556 -0.605417,-2.42764 -1.42826,-4.022622 -0.180394,-0.349682 -0.238417,-0.691433 -0.128927,-0.759455 0.261309,-0.16234 1.288162,0.994945 2.302139,2.594577 0.560444,0.885048 1.051644,1.402719 1.585724,1.673435 0.4809,0.243752 1.31751,1.077741 2.21174,2.204798 1.75117,2.207121 1.7582,2.218212 1.50661,2.374509 -0.11137,0.06919 -0.28092,-4.17e-4 -0.37677,-0.154702 -0.0958,-0.154277 -0.48972,-0.381824 -0.87528,-0.505662 -0.67724,-0.21752 -0.703,-0.206193 -0.75975,0.334085 -0.0564,0.537533 -0.0902,0.549395 -0.86991,0.305552 l -0.8112,-0.253679 -3.092683,2.238712 c -4.240162,3.06934 -6.470022,4.849145 -6.562116,5.237677 -0.04263,0.17985 0.406363,1.122003 0.997776,2.093664 0.885272,1.454529 1.14713,2.129612 1.481897,3.820781 0.723181,3.653365 1.579831,4.536245 3.233836,3.332845 0.754793,-0.54917 0.817023,-0.55 1.235536,-0.0166 0.242417,0.30891 0.578452,0.59574 0.746802,0.63737 0.168383,0.0415 0.353262,0.15161 0.410907,0.24441 0.147165,0.23688 -1.086247,1.94692 -2.515908,3.48813 l -1.20777,1.302 -1.987,0.55791 c -3.408681,0.95708 -4.219433,0.99996 -4.046526,0.21403 0.03722,-0.16938 -0.07181,-0.59905 -0.242374,-0.95483 -0.296056,-0.61753 -0.269921,-0.6677 0.575839,-1.10542 0.676052,-0.3499 0.923903,-0.6199 1.046123,-1.13965 0.202691,-0.86202 -0.175812,-1.46813 -1.547807,-2.47814 -2.192437,-1.61441 -2.974967,-2.41859 -3.980231,-4.090368 -0.777808,-1.293485 -1.082524,-1.647718 -1.369631,-1.592386 -0.546129,0.105302 -3.695875,1.634524 -7.521762,3.651884 l -3.376814,1.78056 -0.111665,0.86393 c -0.101442,0.78484 -0.150603,0.84329 -0.537033,0.63845 -0.636436,-0.33735 -0.807964,-0.0995 -0.731056,1.01387 l 0.06951,1.00626 -0.795846,-1.3246 c -0.437671,-0.72856 -1.030185,-1.82972 -1.316585,-2.44709 z m 76.225502,89.92568 c 0.0185,-0.0807 -3.02334,-5.10644 -6.76066,-11.16835 -3.73729,-6.06192 -10.61892,-17.33545 -15.29243,-25.05231 -4.67351,-7.71687 -12.50124,-20.61034 -17.39496,-28.65217 -4.89374,-8.04179 -8.871187,-14.74334 -8.838845,-14.89228 0.03234,-0.14894 0.151812,-0.22317 0.265487,-0.16494 0.308009,0.15778 7.379648,11.15028 18.436758,28.65898 5.41047,8.56733 14.35501,22.65596 19.87682,31.30803 11.4551,17.94897 20.58425,32.57475 20.69506,33.15552 0.10556,0.55323 -1.5325,1.57088 -1.9817,1.23115 -0.36602,-0.27682 -9.05839,-14.19886 -9.00555,-14.42363 z"
       id="path21"
       sodipodi:nodetypes="cssssssssssssssssscssssssscsscsscssscssssscscscsssccccssssssssssss" />
  </g>
</svg>
