<?xml version="1.0" encoding="UTF-8" standalone="no"?>
<!-- Created with Inkscape (http://www.inkscape.org/) -->

<svg
   width="210mm"
   height="297mm"
   viewBox="0 0 210 297"
   version="1.1"
   id="svg129"
   inkscape:version="1.1.2 (b8e25be833, 2022-02-05)"
   sodipodi:docname="StrawHat.svg"
   xmlns:inkscape="http://www.inkscape.org/namespaces/inkscape"
   xmlns:sodipodi="http://sodipodi.sourceforge.net/DTD/sodipodi-0.dtd"
   xmlns="http://www.w3.org/2000/svg"
   xmlns:svg="http://www.w3.org/2000/svg">
  <sodipodi:namedview
     id="namedview131"
     pagecolor="#ffffff"
     bordercolor="#999999"
     borderopacity="1"
     inkscape:pageshadow="0"
     inkscape:pageopacity="0"
     inkscape:pagecheckerboard="0"
     inkscape:document-units="mm"
     showgrid="false"
     inkscape:zoom="1.2810466"
     inkscape:cx="405.13749"
     inkscape:cy="466.80582"
     inkscape:window-width="1920"
     inkscape:window-height="1017"
     inkscape:window-x="-8"
     inkscape:window-y="-8"
     inkscape:window-maximized="1"
     inkscape:current-layer="layer1" />
  <defs
     id="defs126" />
  <g
     inkscape:label="Ebene 1"
     inkscape:groupmode="layer"
     id="layer1">
    <path
       style="fill:#000000;stroke-width:0.0713853"
       d="m 50.354837,141.73289 c -11.321584,-0.0221 -10.30054,0.0235 -11.403804,-0.50907 -0.605921,-0.29248 -1.520674,-1.18643 -1.882186,-1.83936 -1.149426,-2.07602 -0.959497,-4.67953 0.458689,-6.28762 0.454997,-0.51592 1.272827,-1.06546 1.892538,-1.27169 0.98954,-0.32929 1.400676,-0.35044 6.134101,-0.31551 6.59491,0.0487 14.590179,0.0638 14.624252,0.0277 0.01647,-0.0175 0.04559,-0.23246 0.0647,-0.47779 1.202583,-9.2044 3.823823,-15.27567 7.547572,-21.02501 0.663163,-1.02881 2.176846,-3.08371 3.044834,-4.13351 7.092323,-8.577868 16.515591,-14.273418 27.258232,-16.475228 1.976605,-0.40513 2.401575,-0.47531 4.318815,-0.71323 2.52622,-0.3135 3.78288,-0.38348 6.88868,-0.38365 3.47629,-2.2e-4 5.45705,0.14814 8.10224,0.60675 0.45151,0.0783 1.00819,0.1731 1.23707,0.21071 0.68731,0.11292 3.16275,0.69178 4.11682,0.96268 10.08333,2.86308 19.0296,8.8703 25.87636,17.375378 4.10553,5.79783 7.57763,13.9298 9.86043,23.37804 0.0257,0.35372 0.061,0.65919 0.0786,0.67882 0.0176,0.0196 4.74336,0.0531 10.50178,0.0744 l 10.46985,0.0388 0.4997,0.16329 c 1.52949,0.49983 2.61064,1.72555 2.93587,3.32848 0.17264,0.85089 0.10842,2.10028 -0.14677,2.85541 -0.54844,1.62285 -1.68609,2.75769 -3.14564,3.13785 -3.0361,-0.008 -129.332733,0.59336 -129.332733,0.59336 z m 128.462153,-2.47816 c 0.49934,-0.13981 1.0598,-0.68282 1.38586,-1.34272 0.26439,-0.53511 0.26951,-0.56097 0.26409,-1.33448 -0.005,-0.72915 -0.0226,-0.82562 -0.23123,-1.2756 -0.25179,-0.54304 -0.87622,-1.22324 -1.30881,-1.4257 -0.24527,-0.11479 -4.31337,-0.12199 -68.97961,-0.12199 -63.49919,0 -68.736324,0.009 -68.947428,0.11686 -0.661014,0.33812 -1.121235,0.92108 -1.442405,1.82709 -0.171313,0.48327 -0.191797,0.62981 -0.164651,1.17786 0.02554,0.51568 0.07054,0.70828 0.255493,1.09353 0.24739,0.51531 0.686125,0.99598 1.079454,1.18263 0.140265,0.0666 0.432332,0.14009 0.649037,0.1634 0.216705,0.0233 31.156574,0.0395 68.75528,0.0361 55.01402,-0.005 68.42445,-0.024 68.68492,-0.0969 z m -27.93373,-22.37907 c 0,-0.10988 -1.39905,-2.77876 -1.77961,-3.39485 -0.83091,-1.34516 -1.102,-1.76823 -1.55524,-2.4271 -0.2836,-0.41225 -0.66342,-0.96404 -0.84405,-1.2262 -0.31343,-0.45491 -1.89609,-2.46249 -2.35111,-2.98237 -3.13594,-3.58292 -6.21442,-6.31709 -9.60307,-8.529018 -1.54016,-1.00534 -1.63119,-1.06158 -2.74834,-1.69799 -0.90662,-0.51648 -2.78117,-1.45498 -3.67634,-1.84059 -0.29447,-0.12684 -0.66389,-0.2875 -0.82093,-0.35702 -1.34326,-0.59462 -3.64494,-1.38103 -5.53236,-1.89023 -0.25521,-0.0688 -0.60856,-0.16551 -0.78524,-0.2148 -0.17668,-0.0493 -0.57822,-0.14341 -0.89232,-0.20914 -0.31409,-0.0657 -0.77988,-0.16396 -1.03509,-0.21827 -1.14839,-0.2444 -2.94607,-0.53596 -3.96188,-0.64257 -0.0393,-0.004 -0.29625,-0.0319 -0.57108,-0.0617 -3.01124,-0.32636 -6.63324,-0.3863 -9.52994,-0.15772 -0.8251,0.0651 -2.08969,0.18557 -2.24864,0.2142 -0.0785,0.0141 -0.31945,0.0461 -0.53539,0.0711 -1.43192,0.16535 -3.642545,0.58625 -5.318214,1.01258 -1.06332,0.27054 -1.347091,0.34991 -2.320023,0.64891 -4.50836,1.38551 -8.800409,3.5299 -12.599507,6.29496 -0.579442,0.42173 -2.236702,1.712058 -2.435617,1.896358 -0.04395,0.0407 -0.251505,0.21858 -0.461235,0.39526 -1.591864,1.34099 -3.931746,3.72599 -5.466509,5.57191 -1.332364,1.60249 -3.079291,4.0692 -4.166203,5.88282 -0.881117,1.47023 -2.056733,3.8123 -1.947499,3.87981 0.08506,0.0526 83.185437,0.0342 83.185437,-0.0183 z m -11.11939,-0.97582 c -0.48595,-0.24054 -0.56859,-0.38283 -0.96964,-1.66948 -0.73154,-2.347 -2.20068,-4.76721 -4.09957,-6.75348 -0.70714,-0.73968 -0.80111,-0.90344 -0.80111,-1.39615 0,-0.45135 0.18313,-0.7927 0.55016,-1.02546 0.76532,-0.48535 1.21817,-0.34956 2.21595,0.66447 2.10605,2.14035 3.66329,4.692 4.67114,7.654 0.37902,1.1139 0.41729,1.48056 0.20119,1.92698 -0.31732,0.65548 -1.11096,0.92441 -1.76812,0.59912 z m -53.665747,-0.48303 c -0.331992,-0.15081 -0.656438,-0.50449 -0.71688,-0.78149 -0.0229,-0.10494 -0.05473,-0.23284 -0.07073,-0.28422 -0.150601,-0.48353 1.257874,-3.25544 2.727041,-5.36687 0.867952,-1.24738 1.727331,-2.27573 2.031476,-2.43089 0.392983,-0.20048 0.922812,-0.18598 1.272614,0.0348 0.763316,0.48186 0.88036,1.32959 0.285648,2.06894 -1.44371,1.79483 -2.268368,3.06369 -3.22708,4.96541 -0.38568,0.76503 -0.755585,1.45219 -0.822023,1.52702 -0.174351,0.19639 -0.651741,0.3983 -0.941722,0.3983 -0.137417,0 -0.37967,-0.059 -0.538345,-0.13104 z m 43.275587,-0.0406 c -0.54809,-0.19547 -0.78446,-0.53164 -0.96929,-1.37846 -0.25752,-1.17992 -0.56809,-2.00901 -1.27662,-3.40801 -0.3437,-0.67864 -0.39755,-0.83983 -0.39668,-1.18736 10e-4,-0.48993 0.16397,-0.79887 0.57184,-1.08554 0.23935,-0.16821 0.36735,-0.20541 0.7183,-0.20871 0.35614,-0.003 0.47909,0.0305 0.74042,0.2037 0.2731,0.18104 0.37813,0.33624 0.81747,1.20797 0.83899,1.66471 1.53045,3.7613 1.53002,4.6392 0,0.54626 -0.25046,0.9061 -0.82058,1.18021 -0.33548,0.1613 -0.54285,0.16968 -0.91488,0.037 z m -35.081382,-1.34799 c -0.127715,-0.0463 -0.329621,-0.17618 -0.448685,-0.28855 -0.714845,-0.6747 -0.560239,-1.42355 0.679795,-3.2927 0.600394,-0.905 1.037736,-1.42362 1.326361,-1.57287 0.259336,-0.13411 0.872264,-0.13479 1.130486,-0.001 0.303259,0.15682 0.63388,0.57278 0.725389,0.91262 0.106179,0.3943 -0.04631,0.91039 -0.386537,1.30822 -0.313439,0.36651 -0.806775,1.1363 -1.186745,1.85177 -0.36812,0.69315 -0.636693,0.98887 -0.995811,1.09646 -0.332427,0.0996 -0.54125,0.0962 -0.844253,-0.0137 z m -15.784727,-0.15746 c -0.864362,-0.26174 -1.186731,-1.17986 -0.710362,-2.02312 0.190913,-0.33795 1.044681,-1.65594 1.415156,-2.18461 0.221352,-0.31587 0.674906,-0.93069 0.711905,-0.96503 0.02115,-0.0196 0.181211,-0.22844 0.355698,-0.46401 1.203799,-1.62523 4.062967,-4.65999 4.701401,-4.99014 0.288683,-0.14928 0.915867,-0.1393 1.185318,0.0189 0.114623,0.0673 0.305351,0.2421 0.423836,0.38849 0.269008,0.33238 0.345526,0.96244 0.160367,1.3205 -0.06337,0.12254 -0.591185,0.69788 -1.172925,1.27854 -1.899742,1.89621 -3.320938,3.6342 -4.752327,5.81165 -0.371068,0.56447 -0.765822,1.1548 -0.877247,1.31185 -0.331349,0.46703 -0.8963,0.66191 -1.44082,0.49702 z"
       id="path145"
       sodipodi:nodetypes="cssssccccssscsssccsccssscccscssscssscssccssssssssscsssccsccssssssssssssssssssscsssscssssccssscscsscssccsscsssscccssssssssssscc" />
  </g>
</svg>
