<?xml version="1.0" encoding="UTF-8" standalone="no"?>
<!-- Created with Inkscape (http://www.inkscape.org/) -->

<svg
   width="210mm"
   height="297mm"
   viewBox="0 0 210 297"
   version="1.1"
   id="svg129"
   inkscape:version="1.1.2 (b8e25be833, 2022-02-05)"
   sodipodi:docname="StrawHat.svg"
   xmlns:inkscape="http://www.inkscape.org/namespaces/inkscape"
   xmlns:sodipodi="http://sodipodi.sourceforge.net/DTD/sodipodi-0.dtd"
   xmlns="http://www.w3.org/2000/svg"
   xmlns:svg="http://www.w3.org/2000/svg">
  <sodipodi:namedview
     id="namedview131"
     pagecolor="#ffffff"
     bordercolor="#999999"
     borderopacity="1"
     inkscape:pageshadow="0"
     inkscape:pageopacity="0"
     inkscape:pagecheckerboard="0"
     inkscape:document-units="mm"
     showgrid="false"
     inkscape:zoom="1.2810466"
     inkscape:cx="405.13749"
     inkscape:cy="466.80581"
     inkscape:window-width="1920"
     inkscape:window-height="1017"
     inkscape:window-x="-1928"
     inkscape:window-y="-2"
     inkscape:window-maximized="1"
     inkscape:current-layer="layer1" />
  <defs
     id="defs126" />
  <g
     inkscape:label="Ebene 1"
     inkscape:groupmode="layer"
     id="layer1">
    <path
       style="fill:#000000;stroke-width:0.0713853"
       d="m 59.828129,156.83533 c -10.902717,3.05115 -9.907615,2.81795 -11.114004,2.60476 -0.662555,-0.11707 -1.785578,-0.72923 -2.310714,-1.25955 -1.669676,-1.68618 -2.193408,-4.24353 -1.264841,-6.17614 0.297913,-0.62004 0.93592,-1.37089 1.476409,-1.73756 0.863044,-0.58547 1.253011,-0.7174 5.818285,-1.96833 6.360639,-1.74283 14.059968,-3.89803 14.082965,-3.94202 0.0111,-0.0213 -0.0192,-0.23611 -0.06739,-0.47742 -1.340411,-9.18534 -0.465143,-15.74012 1.558625,-22.28425 0.359081,-1.17017 1.258307,-3.55873 1.80883,-4.80469 4.498332,-10.18066 12.02233,-18.219734 21.764312,-23.254225 1.792486,-0.926333 2.182463,-1.109206 3.963188,-1.858493 2.346342,-0.987294 3.536853,-1.395677 6.526055,-2.238684 3.34578,-0.943598 5.29247,-1.338339 7.96285,-1.614783 0.45581,-0.04717 1.01733,-0.106996 1.24782,-0.13291 0.69217,-0.07784 3.2318,-0.192479 4.22358,-0.190658 10.48191,0.01925 20.72268,3.373224 29.62058,9.701077 5.52487,4.466106 11.0735,11.350666 15.83467,19.824836 0.12073,0.33347 0.2376,0.6179 0.25987,0.63202 0.0223,0.0141 4.57976,-1.23614 10.12787,-2.77834 l 10.08748,-2.80393 0.52526,0.0215 c 1.60773,0.066 2.98094,0.95233 3.72897,2.40684 0.39707,0.77211 0.67432,1.99204 0.63363,2.78809 -0.0875,1.71078 -0.87444,3.11177 -2.17605,3.87375 -2.92434,0.81623 -124.318251,35.66906 -124.318251,35.66906 z M 182.79697,119.58846 c 0.44266,-0.27008 0.83473,-0.9448 0.96947,-1.66843 0.10925,-0.58677 0.10716,-0.61305 -0.10797,-1.35606 -0.20268,-0.70043 -0.2458,-0.78851 -0.56872,-1.16498 -0.38971,-0.45434 -1.17529,-0.93955 -1.64659,-1.01702 -0.26722,-0.0439 -4.18461,1.05314 -66.42412,18.60208 -61.116264,17.23224 -66.154422,18.66214 -66.328333,18.82324 -0.54445,0.50482 -0.829199,1.1908 -0.892446,2.14996 -0.03374,0.51163 -0.01368,0.65823 0.161173,1.17835 0.164525,0.48939 0.260104,0.66255 0.542664,0.98315 0.37795,0.42884 0.930663,0.77241 1.359884,0.84531 0.153075,0.026 0.454125,0.0175 0.669024,-0.0189 0.214896,-0.0364 29.998082,-8.41717 66.184904,-18.62388 52.94815,-14.93436 65.85017,-18.59194 66.08109,-18.73279 z m -32.95863,-13.95868 c -0.0298,-0.10575 -2.10064,-2.29481 -2.63411,-2.7845 -1.16478,-1.06919 -1.5405,-1.40282 -2.15554,-1.91396 -0.38483,-0.31982 -0.90014,-0.74783 -1.14514,-0.951131 -0.42512,-0.352781 -2.49319,-1.855525 -3.07222,-2.232413 -3.99058,-2.597441 -7.69553,-4.393577 -11.55728,-5.602895 -1.75519,-0.549649 -1.85807,-0.579075 -3.106,-0.888433 -1.01276,-0.251062 -3.07165,-0.645633 -4.03787,-0.773843 -0.31784,-0.04217 -0.717,-0.09655 -0.88701,-0.120841 -1.45422,-0.207775 -3.88294,-0.34005 -5.83772,-0.317938 -0.2643,0.003 -0.63063,0.0059 -0.81406,0.0064 -0.18343,4.97e-4 -0.59544,0.01889 -0.91559,0.04086 -0.32013,0.022 -0.79511,0.05383 -1.05548,0.07082 -1.17162,0.07642 -2.98096,0.28365 -3.98758,0.456708 -0.0389,0.0068 -0.29379,0.04969 -0.56639,0.09559 -2.98681,0.503069 -6.48915,1.428307 -9.215116,2.434407 -0.77647,0.286571 -1.960911,0.745701 -2.106126,0.816392 -0.07173,0.03487 -0.294952,0.131061 -0.496004,0.213724 -1.333312,0.547736 -3.346756,1.552754 -4.843846,2.417824 -0.949999,0.548948 -1.201581,0.702348 -2.05686,1.25416 -3.96318,2.556984 -7.512222,5.785664 -10.418377,9.477944 -0.44325,0.56316 -1.688152,2.2548 -1.829588,2.48617 -0.03126,0.0511 -0.182749,0.27863 -0.336661,0.50559 -1.168212,1.72267 -2.773051,4.65316 -3.749278,6.8463 -0.847486,1.90393 -1.859447,4.75215 -2.413395,6.79267 -0.449064,1.65417 -0.944979,4.22739 -0.821523,4.26272 0.09614,0.0275 80.073024,-22.54172 80.058774,-22.59225 z m -10.96693,2.07835 c -0.53299,-0.0996 -0.65114,-0.21416 -1.38631,-1.34369 -1.34101,-2.0604 -3.41181,-3.99109 -5.77847,-5.38751 -0.88133,-0.52002 -1.01622,-0.65213 -1.14993,-1.126354 -0.12248,-0.434412 -0.0389,-0.812649 0.25123,-1.136278 0.60489,-0.674827 1.07759,-0.667026 2.31312,0.03818 2.60785,1.488496 4.79912,3.521786 6.57296,6.099126 0.66709,0.96924 0.80342,1.31176 0.71658,1.80007 -0.12753,0.71699 -0.8184,1.19121 -1.53918,1.05646 z m -51.782917,14.09876 c -0.36046,-0.055 -0.768711,-0.30741 -0.902056,-0.55761 -0.05052,-0.0948 -0.115864,-0.20925 -0.145207,-0.25436 -0.276168,-0.42452 0.327218,-3.47464 1.168257,-5.90553 0.49687,-1.43611 1.044928,-2.65909 1.295553,-2.89096 0.32383,-0.2996 0.837711,-0.42943 1.234301,-0.31187 0.865436,0.25664 1.208143,1.04079 0.836391,1.91379 -0.902456,2.11926 -1.351827,3.5643 -1.758478,5.65482 -0.163595,0.84099 -0.333139,1.60275 -0.376776,1.6928 -0.114513,0.23633 -0.519194,0.56022 -0.798293,0.63891 -0.13226,0.0373 -0.381433,0.0463 -0.553704,0.02 z m 41.640567,-11.78308 c -0.58057,-0.0394 -0.89929,-0.29881 -1.307,-1.06369 -0.56806,-1.06576 -1.09197,-1.77945 -2.15357,-2.93367 -0.51496,-0.5599 -0.61054,-0.70043 -0.70401,-1.03515 -0.132,-0.47182 -0.059,-0.81339 0.25579,-1.19999 0.18472,-0.22685 0.29782,-0.29739 0.6347,-0.39581 0.34196,-0.0995 0.46939,-0.10066 0.76792,-0.005 0.31198,0.10014 0.45519,0.22101 1.11461,0.9408 1.25927,1.37455 2.49374,3.20482 2.73157,4.04989 0.14824,0.52576 0.005,0.94007 -0.4695,1.35861 -0.27912,0.24629 -0.47643,0.31063 -0.87051,0.28389 z m -34.130697,8.22288 c -0.135487,-0.01 -0.365063,-0.0801 -0.510153,-0.15596 -0.871118,-0.45538 -0.925534,-1.21809 -0.23928,-3.35361 0.332267,-1.03397 0.612455,-1.65182 0.849746,-1.87379 0.213209,-0.19946 0.802951,-0.36645 1.087791,-0.30775 0.334436,0.0686 0.765532,0.37926 0.945831,0.68152 0.209199,0.35068 0.202487,0.88879 -0.01701,1.36402 -0.202214,0.43782 -0.468133,1.3126 -0.639682,2.10433 -0.1662,0.76704 -0.344443,1.12455 -0.660887,1.32556 -0.292922,0.18607 -0.494832,0.23947 -0.816288,0.21592 z m -15.235106,4.13207 c -0.902955,-0.0173 -1.462383,-0.81353 -1.232733,-1.75442 0.09204,-0.37708 0.556093,-1.87731 0.769196,-2.48667 0.127326,-0.36409 0.397011,-1.07892 0.423303,-1.12201 0.01504,-0.0246 0.112417,-0.26905 0.216428,-0.54313 0.717573,-1.89092 2.645881,-5.58771 3.170761,-6.07873 0.237338,-0.22202 0.843694,-0.38262 1.145965,-0.30348 0.128586,0.0337 0.359593,0.15015 0.513359,0.2589 0.349113,0.2469 0.593743,0.83255 0.512702,1.22742 -0.02774,0.13514 -0.379611,0.83213 -0.781942,1.54887 -1.313862,2.34059 -2.210074,4.39904 -2.996837,6.88323 -0.203959,0.64398 -0.423696,1.31929 -0.48832,1.50068 -0.192173,0.53943 -0.683038,0.88031 -1.251871,0.86938 z"
       id="path145"
       sodipodi:nodetypes="cssssccccssscsssccsccssscccscssscssscssccssssssssscsssccsccssssssssssssssssssscsssscssssccssscscsscssccsscsssscccssssssssssscc" />
  </g>
</svg>
