<?xml version="1.0" encoding="UTF-8" standalone="no"?>
<!-- Created with Inkscape (http://www.inkscape.org/) -->

<svg
   width="210mm"
   height="297mm"
   viewBox="0 0 210 297"
   version="1.1"
   id="svg5"
   inkscape:version="1.1.2 (b8e25be833, 2022-02-05)"
   sodipodi:docname="TurtleSchoolSign.svg"
   xmlns:inkscape="http://www.inkscape.org/namespaces/inkscape"
   xmlns:sodipodi="http://sodipodi.sourceforge.net/DTD/sodipodi-0.dtd"
   xmlns="http://www.w3.org/2000/svg"
   xmlns:svg="http://www.w3.org/2000/svg">
  <sodipodi:namedview
     id="namedview7"
     pagecolor="#ffffff"
     bordercolor="#999999"
     borderopacity="1"
     inkscape:pageshadow="0"
     inkscape:pageopacity="0"
     inkscape:pagecheckerboard="0"
     inkscape:document-units="mm"
     showgrid="false"
     inkscape:zoom="0.64052329"
     inkscape:cx="397.33138"
     inkscape:cy="560.47923"
     inkscape:window-width="1920"
     inkscape:window-height="1017"
     inkscape:window-x="-1928"
     inkscape:window-y="-2"
     inkscape:window-maximized="1"
     inkscape:current-layer="layer1" />
  <defs
     id="defs2" />
  <g
     inkscape:label="Ebene 1"
     inkscape:groupmode="layer"
     id="layer1">
    <path
       style="fill:#000000;stroke-width:0.264583"
       d="m 84.426326,211.63695 c 0.03768,-0.10787 -0.950417,-0.713 -2.195756,-1.34473 -1.245336,-0.63174 -3.626508,-2.04653 -5.291486,-3.14398 -19.051048,-12.55726 -29.806225,-34.81314 -27.844095,-57.6183 0.169223,-1.96683 0.544418,-4.72299 0.833767,-6.12482 0.28935,-1.40182 0.437833,-2.5796 0.329963,-2.61728 -0.107871,-0.0377 0.824671,-2.99098 2.072312,-6.5629 1.247641,-3.57191 2.356698,-6.46355 2.464565,-6.42588 0.10787,0.0377 0.725581,-0.97619 1.372691,-2.25305 4.597451,-9.07158 12.737741,-17.84112 22.073987,-23.78033 12.936565,-8.229544 30.136396,-11.471406 44.837306,-8.451039 1.37315,0.282121 2.52745,0.424692 2.56513,0.316814 0.0377,-0.107869 2.99097,0.824675 6.56289,2.072317 3.57191,1.247641 6.46306,2.358126 6.4248,2.467685 -0.0383,0.109578 0.92936,0.696268 2.15032,1.303754 1.22096,0.607479 3.59842,2.015139 5.28326,3.128149 15.38219,10.16148 25.46053,26.46464 27.6543,44.7348 0.78742,6.55773 0.5711,13.40252 -0.60436,19.1238 -0.28103,1.36783 -0.42271,2.51781 -0.31484,2.55549 0.10787,0.0377 -0.82466,2.99097 -2.07231,6.56289 -1.24764,3.57191 -2.35671,6.46356 -2.46457,6.42588 -0.10786,-0.0377 -0.72498,0.97641 -1.37136,2.25353 -4.60302,9.09459 -12.96556,18.05866 -22.21132,23.80902 -3.05907,1.90257 -8.94778,4.75423 -12.16057,5.88885 -10.2879,3.63326 -22.56168,4.59517 -32.48858,2.54617 -1.401813,-0.28935 -2.579587,-0.43784 -2.617265,-0.32997 -0.03768,0.10788 -2.990987,-0.82467 -6.562901,-2.07231 -3.571914,-1.24764 -6.463553,-2.3567 -6.425878,-2.46456 z m 17.500314,-0.75691 c 6.46025,0.95511 10.68955,1.04613 16.41191,0.35322 6.96683,-0.8436 11.96916,-2.27855 18.06238,-5.18129 10.69614,-5.09554 19.43731,-13.31808 25.31316,-23.81132 1.8897,-3.37466 4.58308,-10.30265 5.4992,-14.1452 2.4335,-10.20693 2.09089,-20.53854 -1.01355,-30.56413 -1.94014,-6.26557 -6.50643,-14.65623 -10.64294,-19.55662 -14.36191,-17.01411 -37.5493,-24.292324 -58.739641,-18.437606 -5.078652,1.403186 -11.779114,4.379676 -15.96919,7.093866 -8.641263,5.5975 -15.612691,13.40712 -20.215697,22.64629 -2.301739,4.62005 -4.537195,11.68356 -5.293316,16.72561 -2.974969,19.83799 4.602163,39.73131 20.041391,52.61749 2.396349,2.00008 6.912034,5.00231 9.666272,6.42656 0.979199,0.50634 2.044778,1.06632 2.367939,1.24437 1.459994,0.80438 12.476362,4.28777 14.512082,4.58876 z m -8.67738,-16.07777 c -1.384005,-1.71572 -1.397453,-1.57454 0.787934,-8.27351 l 1.981917,-6.07527 -7.907605,-2.83611 -7.907601,-2.8361 -0.637654,1.82556 -0.637654,1.82556 -1.49811,0.47776 c -3.15813,1.00716 -4.024633,1.13724 -4.455218,0.66884 -0.934336,-1.0164 -0.857095,-1.29321 5.333715,-19.11437 3.324231,-9.56927 5.933784,-16.77481 6.059293,-16.73097 0.121248,0.0424 1.202882,1.41733 2.403634,3.0555 l 2.183186,2.9785 7.851685,2.77537 7.851678,2.77536 0.9182,-2.62874 0.9182,-2.62875 -5.49525,-1.91944 -5.495255,-1.91945 -0.339324,0.97146 c -0.386668,1.10701 -0.900218,1.46499 -3.084679,2.15028 -1.786304,0.56038 -2.991711,0.28548 -3.444243,-0.78545 -0.273621,-0.64755 -0.08825,-1.30146 2.903273,-10.24156 l 3.19556,-9.54985 -5.293446,1.91578 c -8.161973,2.95396 -7.908508,2.88414 -9.26518,2.55178 -1.644745,-0.40293 -1.879552,-0.97634 -0.934053,-2.28094 0.524612,-0.72385 1.80593,-1.4936 5.828573,-3.5015 5.087074,-2.53919 9.6071,-5.34987 13.969024,-8.68633 5.21723,-3.99067 11.8978,-10.42471 16.09646,-15.50246 1.01367,-1.22589 1.94814,-2.19218 2.07661,-2.14731 0.33023,0.11535 4.33038,5.65448 5.1016,7.06436 1.03628,1.89442 0.36263,2.79676 -2.22723,2.98332 -1.23696,0.0891 -2.06894,0.42601 -2.96554,1.20091 -0.38052,0.32885 -0.0235,0.48224 6.10417,2.62259 l 6.50833,2.27331 1.2119,-0.87847 c 2.6268,-1.90406 2.20653,-2.08343 4.06597,1.73531 1.67622,3.44246 1.97877,4.82585 1.21,5.53256 -0.64886,0.59648 -1.65965,0.93054 -2.7987,0.92493 -0.94507,-0.005 -1.41248,0.27739 -4.10715,2.47822 -1.67239,1.36591 -3.05813,2.53332 -3.07941,2.59424 -0.0213,0.0609 1.86581,0.77601 4.19354,1.58906 l 4.23222,1.47829 1.08766,-0.67106 c 0.59821,-0.36909 1.37277,-0.85115 1.72124,-1.07126 l 0.63357,-0.40019 1.95442,3.83241 c 1.79467,3.51917 1.92846,3.90672 1.63684,4.74162 -0.24752,0.70863 -0.53695,0.99266 -1.31198,1.28744 -0.54691,0.20803 -1.09816,0.34198 -1.22501,0.29768 -0.13707,-0.0479 -1.62558,3.91315 -3.66948,9.76469 l -3.43887,9.84525 -1.55438,0.63887 c -2.05622,0.84514 -3.2269,0.92268 -3.91957,0.25962 -0.61992,-0.59345 -0.83557,-2.09146 -0.45708,-3.17506 l 0.27037,-0.77405 -6.74418,-2.35569 -6.74417,-2.35568 -0.82885,2.37295 -0.82886,2.37294 7.17154,2.53632 c 3.94433,1.39499 7.54589,2.71675 8.00345,2.93723 0.75554,0.3641 1.01572,0.30658 2.83323,-0.62617 l 2.00129,-1.0271 1.69691,3.5034 c 1.96802,4.06312 1.96955,4.56327 0.0169,5.50497 l -1.17961,0.56887 -3.46314,9.90263 c -1.90454,5.44651 -3.58862,9.9965 -3.74197,10.11123 -0.81962,0.61335 -4.52437,1.89719 -4.99765,1.73188 -0.85227,-0.29769 -1.41803,-1.8581 -1.10535,-3.04856 l 0.26969,-1.02684 -8.15742,-2.92325 -8.15741,-2.92326 -1.30991,3.75018 -1.309905,3.75017 13.303645,4.63839 c 10.63604,3.70767 13.41417,4.60221 13.85423,4.45964 0.30273,-0.0981 0.93743,-0.59756 1.41042,-1.10993 0.85678,-0.92809 1.36071,-1.80252 4.00965,-6.95752 0.76736,-1.49333 1.68174,-3.03416 2.03196,-3.42409 0.83774,-0.93266 1.55073,-0.68162 1.84492,0.64972 0.19438,0.8794 0.0272,1.69076 -1.25278,6.07845 -1.99784,6.84874 -2.0225,6.99406 -1.47242,8.67605 0.2585,0.79043 0.42137,1.78571 0.36192,2.21171 -0.14187,1.01672 -1.13357,1.93668 -2.60599,2.41747 l -1.16183,0.37938 -18.15134,-6.26809 c -17.337022,-5.98683 -18.177674,-6.3007 -18.738084,-6.99538 z m 5.524532,-22.00457 0.735196,-2.33559 -7.782709,-2.79248 -7.782708,-2.79248 -0.830096,2.37651 -0.830095,2.37651 7.877579,2.75157 7.877578,2.75158 z m 22.805238,7.89567 0.82885,-2.37294 -8.24288,-2.87918 -8.24288,-2.87917 -0.82885,2.37295 -0.82885,2.37295 8.24288,2.87917 8.24288,2.87917 z m -19.40299,-18.26798 0.82886,-2.37295 -7.743313,-2.70467 -7.743314,-2.70468 -0.828852,2.37295 -0.828852,2.37295 7.743313,2.70467 7.743308,2.70468 z m 22.98016,8.02679 0.82885,-2.37295 -8.24288,-2.87917 -8.24288,-2.87918 -0.82885,2.37295 -0.82886,2.37295 8.24289,2.87917 8.24288,2.87918 z m -16.17484,-27.50996 0.82885,-2.37295 -5.49525,-1.91945 -5.495252,-1.91945 -0.828852,2.37295 -0.828852,2.37295 5.495256,1.91945 5.49525,1.91945 z m 19.98275,6.97981 0.82885,-2.37295 -6.74418,-2.35568 -6.74417,-2.35569 -0.82885,2.37295 -0.82886,2.37295 6.74418,2.35568 6.74417,2.35569 z m -16.58009,-16.7214 0.82885,-2.37295 -5.49525,-1.91944 -5.49525,-1.91945 -0.82885,2.37295 -0.82886,2.37294 5.49526,1.91945 5.49525,1.91945 z m 19.98275,6.97982 0.82885,-2.37295 -6.74418,-2.35569 -6.74417,-2.35569 -0.82886,2.37295 -0.82885,2.37295 6.74418,2.35569 6.74417,2.35568 z m -8.35319,-15.56326 c 1.38125,-1.6164 2.48765,-2.98807 2.45866,-3.04816 -0.0423,-0.0878 -12.67156,-4.62652 -13.82064,-4.96696 -0.26871,-0.0796 -7.08747,4.83129 -7.21494,5.19621 -0.0252,0.0723 3.57916,1.39741 8.00983,2.94465 l 8.0557,2.81323 2.51137,-2.9389 z"
       id="path21" />
  </g>
</svg>
