<?xml version="1.0"?>
<!-- Generated by SVGo -->
<svg width="410.052mm" height="133.827mm"
     viewBox="0.000 0.000 410.052 133.827"
     xmlns="http://www.w3.org/2000/svg" 
     xmlns:xlink="http://www.w3.org/1999/xlink">
<polygon points="405.052,128.827 5.001,128.827 5.001,5.001 405.052,5.001" style="fill:none;stroke-width:0.050000mm;stroke:black"/>
<polygon points="298.038,112.301 298.038,126.301 312.038,126.301 312.038,112.301" style="fill:none;stroke-width:0.050000mm;stroke:black"/>
<polygon points="278.988,112.301 278.988,126.301 292.988,126.301 292.988,112.301" style="fill:none;stroke-width:0.050000mm;stroke:black"/>
<polygon points="259.938,112.301 259.938,126.301 273.938,126.301 273.938,112.301" style="fill:none;stroke-width:0.050000mm;stroke:black"/>
<polygon points="340.901,107.538 340.901,112.238 339.376,112.238 339.376,109.008 337.651,109.008 337.651,108.088 334.350,108.088 334.350,109.008 332.626,109.008 332.626,112.238 331.800,112.238 331.800,115.038 332.626,115.038 332.626,121.308 334.350,121.308 334.350,122.288 337.651,122.288 337.651,121.308 339.376,121.308 339.376,116.838 340.901,116.838 340.901,121.538 354.901,121.538 354.901,116.838 356.425,116.838 356.425,121.308 358.151,121.308 358.151,122.288 361.451,122.288 361.451,121.308 363.175,121.308 363.175,115.038 364.001,115.038 364.001,112.238 363.175,112.238 363.175,109.008 361.451,109.008 361.451,108.088 358.151,108.088 358.151,109.008 356.425,109.008 356.425,112.238 354.901,112.238 354.901,107.538" style="fill:none;stroke-width:0.050000mm;stroke:black"/>
<polygon points="128.968,107.538 128.968,112.238 89.463,112.238 89.463,109.008 87.738,109.008 87.738,108.088 84.313,108.088 84.313,109.008 82.588,109.008 82.588,112.238 81.763,112.238 81.763,115.038 82.588,115.038 82.588,121.308 84.313,121.308 84.313,122.288 87.738,122.288 87.738,121.308 89.463,121.308 89.463,116.838 128.968,116.838 128.968,121.538 150.113,121.538 150.113,116.838 177.713,116.838 177.713,121.308 179.438,121.308 179.438,122.288 182.738,122.288 182.738,121.308 184.319,121.308 184.319,122.288 187.619,122.288 187.619,121.308 189.344,121.308 189.344,116.838 195.644,116.838 195.644,121.538 198.613,121.538 198.613,122.288 201.913,122.288 201.913,121.538 212.026,121.538 212.026,107.538 195.644,107.538 195.644,112.238 189.344,112.238 189.344,109.008 187.619,109.008 187.619,108.088 184.319,108.088 184.319,109.008 182.738,109.008 182.738,108.088 179.438,108.088 179.438,109.008 177.713,109.008 177.713,112.238 150.113,112.238 150.113,107.538" style="fill:none;stroke-width:0.050000mm;stroke:black"/>
<polygon points="369.475,107.538 369.475,121.538 383.475,121.538 383.475,107.538" style="fill:none;stroke-width:0.050000mm;stroke:black"/>
<polygon points="236.126,107.538 236.126,121.538 250.126,121.538 250.126,107.538" style="fill:none;stroke-width:0.050000mm;stroke:black"/>
<polygon points="214.694,107.538 214.694,121.538 231.076,121.538 231.076,107.538" style="fill:none;stroke-width:0.050000mm;stroke:black"/>
<polygon points="57.532,107.538 57.532,121.538 71.532,121.538 71.532,107.538" style="fill:none;stroke-width:0.050000mm;stroke:black"/>
<polygon points="36.101,107.538 36.101,121.538 50.101,121.538 50.101,107.538" style="fill:none;stroke-width:0.050000mm;stroke:black"/>
<polygon points="12.288,107.538 12.288,121.538 26.288,121.538 26.288,107.538" style="fill:none;stroke-width:0.050000mm;stroke:black"/>
<polygon points="395.026,88.913 395.026,89.738 388.756,89.738 388.756,91.463 387.776,91.463 387.776,94.763 388.756,94.763 388.756,96.488 393.226,96.488 393.226,98.013 388.526,98.013 388.526,112.013 393.226,112.013 393.226,113.538 388.756,113.538 388.756,115.263 387.776,115.263 387.776,118.563 388.756,118.563 388.756,120.288 395.026,120.288 395.026,121.113 397.826,121.113 397.826,120.288 401.056,120.288 401.056,118.563 401.976,118.563 401.976,115.263 401.056,115.263 401.056,113.538 397.826,113.538 397.826,112.013 402.526,112.013 402.526,98.013 397.826,98.013 397.826,96.488 401.056,96.488 401.056,94.763 401.976,94.763 401.976,91.463 401.056,91.463 401.056,89.738 397.826,89.738 397.826,88.913" style="fill:none;stroke-width:0.050000mm;stroke:black"/>
<polygon points="278.988,93.251 278.988,107.251 292.988,107.251 292.988,93.251" style="fill:none;stroke-width:0.050000mm;stroke:black"/>
<polygon points="369.476,88.488 369.476,102.488 383.476,102.488 383.476,88.488" style="fill:none;stroke-width:0.050000mm;stroke:black"/>
<polygon points="350.426,88.488 350.426,102.488 364.426,102.488 364.426,88.488" style="fill:none;stroke-width:0.050000mm;stroke:black"/>
<polygon points="331.376,88.488 331.376,102.488 345.376,102.488 345.376,88.488" style="fill:none;stroke-width:0.050000mm;stroke:black"/>
<polygon points="302.801,88.488 302.801,102.488 316.801,102.488 316.801,88.488" style="fill:none;stroke-width:0.050000mm;stroke:black"/>
<polygon points="248.032,88.488 248.032,102.488 262.032,102.488 262.032,88.488" style="fill:none;stroke-width:0.050000mm;stroke:black"/>
<polygon points="221.838,88.488 221.838,102.488 235.838,102.488 235.838,88.488" style="fill:none;stroke-width:0.050000mm;stroke:black"/>
<polygon points="202.788,88.488 202.788,102.488 216.788,102.488 216.788,88.488" style="fill:none;stroke-width:0.050000mm;stroke:black"/>
<polygon points="183.738,88.488 183.738,102.488 197.738,102.488 197.738,88.488" style="fill:none;stroke-width:0.050000mm;stroke:black"/>
<polygon points="164.688,88.488 164.688,102.488 178.688,102.488 178.688,88.488" style="fill:none;stroke-width:0.050000mm;stroke:black"/>
<polygon points="145.638,88.488 145.638,102.488 159.638,102.488 159.638,88.488" style="fill:none;stroke-width:0.050000mm;stroke:black"/>
<polygon points="126.588,88.488 126.588,102.488 140.588,102.488 140.588,88.488" style="fill:none;stroke-width:0.050000mm;stroke:black"/>
<polygon points="107.538,88.488 107.538,102.488 121.538,102.488 121.538,88.488" style="fill:none;stroke-width:0.050000mm;stroke:black"/>
<polygon points="88.488,88.488 88.488,102.488 102.488,102.488 102.488,88.488" style="fill:none;stroke-width:0.050000mm;stroke:black"/>
<polygon points="69.438,88.488 69.438,102.488 83.438,102.488 83.438,88.488" style="fill:none;stroke-width:0.050000mm;stroke:black"/>
<polygon points="50.388,88.488 50.388,102.488 64.388,102.488 64.388,88.488" style="fill:none;stroke-width:0.050000mm;stroke:black"/>
<polygon points="31.338,88.488 31.338,102.488 45.338,102.488 45.338,88.488" style="fill:none;stroke-width:0.050000mm;stroke:black"/>
<polygon points="9.907,88.488 9.907,102.488 23.907,102.488 23.907,88.488" style="fill:none;stroke-width:0.050000mm;stroke:black"/>
<polygon points="369.476,69.438 369.476,83.438 383.476,83.438 383.476,69.438" style="fill:none;stroke-width:0.050000mm;stroke:black"/>
<polygon points="350.426,69.438 350.426,83.438 364.426,83.438 364.426,69.438" style="fill:none;stroke-width:0.050000mm;stroke:black"/>
<polygon points="331.376,69.438 331.376,83.438 345.376,83.438 345.376,69.438" style="fill:none;stroke-width:0.050000mm;stroke:black"/>
<polygon points="302.801,69.438 302.801,83.438 316.801,83.438 316.801,69.438" style="fill:none;stroke-width:0.050000mm;stroke:black"/>
<polygon points="250.413,69.438 250.413,83.438 264.413,83.438 264.413,69.438" style="fill:none;stroke-width:0.050000mm;stroke:black"/>
<polygon points="231.363,69.438 231.363,83.438 245.363,83.438 245.363,69.438" style="fill:none;stroke-width:0.050000mm;stroke:black"/>
<polygon points="212.313,69.438 212.313,83.438 226.313,83.438 226.313,69.438" style="fill:none;stroke-width:0.050000mm;stroke:black"/>
<polygon points="193.263,69.438 193.263,83.438 207.263,83.438 207.263,69.438" style="fill:none;stroke-width:0.050000mm;stroke:black"/>
<polygon points="174.213,69.438 174.213,83.438 188.213,83.438 188.213,69.438" style="fill:none;stroke-width:0.050000mm;stroke:black"/>
<polygon points="155.163,69.438 155.163,83.438 169.163,83.438 169.163,69.438" style="fill:none;stroke-width:0.050000mm;stroke:black"/>
<polygon points="136.113,69.438 136.113,83.438 150.113,83.438 150.113,69.438" style="fill:none;stroke-width:0.050000mm;stroke:black"/>
<polygon points="117.063,69.438 117.063,83.438 131.063,83.438 131.063,69.438" style="fill:none;stroke-width:0.050000mm;stroke:black"/>
<polygon points="98.013,69.438 98.013,83.438 112.013,83.438 112.013,69.438" style="fill:none;stroke-width:0.050000mm;stroke:black"/>
<polygon points="78.963,69.438 78.963,83.438 92.963,83.438 92.963,69.438" style="fill:none;stroke-width:0.050000mm;stroke:black"/>
<polygon points="59.913,69.438 59.913,83.438 73.913,83.438 73.913,69.438" style="fill:none;stroke-width:0.050000mm;stroke:black"/>
<polygon points="40.863,69.438 40.863,83.438 54.863,83.438 54.863,69.438" style="fill:none;stroke-width:0.050000mm;stroke:black"/>
<polygon points="14.669,69.438 14.669,83.438 28.669,83.438 28.669,69.438" style="fill:none;stroke-width:0.050000mm;stroke:black"/>
<polygon points="395.026,50.813 395.026,51.638 388.756,51.638 388.756,53.363 387.776,53.363 387.776,56.663 388.756,56.663 388.756,58.388 393.226,58.388 393.226,59.913 388.526,59.913 388.526,73.913 393.226,73.913 393.226,75.438 388.756,75.438 388.756,77.163 387.776,77.163 387.776,80.463 388.756,80.463 388.756,82.188 395.026,82.188 395.026,83.013 397.826,83.013 397.826,82.188 401.056,82.188 401.056,80.463 401.976,80.463 401.976,77.163 401.056,77.163 401.056,75.438 397.826,75.438 397.826,73.913 402.526,73.913 402.526,59.913 397.826,59.913 397.826,58.388 401.056,58.388 401.056,56.663 401.976,56.663 401.976,53.363 401.056,53.363 401.056,51.638 397.826,51.638 397.826,50.813" style="fill:none;stroke-width:0.050000mm;stroke:black"/>
<polygon points="278.344,50.813 278.344,51.638 272.074,51.638 272.074,53.363 271.094,53.363 271.094,56.663 272.074,56.663 272.074,58.388 276.544,58.388 276.544,59.913 271.844,59.913 271.844,73.913 276.544,73.913 276.544,75.438 272.074,75.438 272.074,77.163 271.094,77.163 271.094,80.463 272.074,80.463 272.074,82.188 278.344,82.188 278.344,83.013 281.144,83.013 281.144,82.188 284.374,82.188 284.374,80.463 285.294,80.463 285.294,77.163 284.374,77.163 284.374,75.438 281.144,75.438 281.144,73.913 285.844,73.913 285.844,59.913 281.144,59.913 281.144,58.388 284.374,58.388 284.374,56.663 285.294,56.663 285.294,53.363 284.374,53.363 284.374,51.638 281.144,51.638 281.144,50.813" style="fill:none;stroke-width:0.050000mm;stroke:black"/>
<polygon points="369.476,50.388 369.476,64.388 383.476,64.388 383.476,50.388" style="fill:none;stroke-width:0.050000mm;stroke:black"/>
<polygon points="350.426,50.388 350.426,64.388 364.426,64.388 364.426,50.388" style="fill:none;stroke-width:0.050000mm;stroke:black"/>
<polygon points="331.376,50.388 331.376,64.388 345.376,64.388 345.376,50.388" style="fill:none;stroke-width:0.050000mm;stroke:black"/>
<polygon points="302.801,50.388 302.801,64.388 316.801,64.388 316.801,50.388" style="fill:none;stroke-width:0.050000mm;stroke:black"/>
<polygon points="245.651,50.388 245.651,64.388 259.650,64.388 259.650,50.388" style="fill:none;stroke-width:0.050000mm;stroke:black"/>
<polygon points="226.601,50.388 226.601,64.388 240.601,64.388 240.601,50.388" style="fill:none;stroke-width:0.050000mm;stroke:black"/>
<polygon points="207.551,50.388 207.551,64.388 221.551,64.388 221.551,50.388" style="fill:none;stroke-width:0.050000mm;stroke:black"/>
<polygon points="188.501,50.388 188.501,64.388 202.501,64.388 202.501,50.388" style="fill:none;stroke-width:0.050000mm;stroke:black"/>
<polygon points="169.451,50.388 169.451,64.388 183.451,64.388 183.451,50.388" style="fill:none;stroke-width:0.050000mm;stroke:black"/>
<polygon points="150.401,50.388 150.401,64.388 164.401,64.388 164.401,50.388" style="fill:none;stroke-width:0.050000mm;stroke:black"/>
<polygon points="131.351,50.388 131.351,64.388 145.351,64.388 145.351,50.388" style="fill:none;stroke-width:0.050000mm;stroke:black"/>
<polygon points="112.301,50.388 112.301,64.388 126.301,64.388 126.301,50.388" style="fill:none;stroke-width:0.050000mm;stroke:black"/>
<polygon points="93.251,50.388 93.251,64.388 107.251,64.388 107.251,50.388" style="fill:none;stroke-width:0.050000mm;stroke:black"/>
<polygon points="74.201,50.388 74.201,64.388 88.201,64.388 88.201,50.388" style="fill:none;stroke-width:0.050000mm;stroke:black"/>
<polygon points="55.151,50.388 55.151,64.388 69.151,64.388 69.151,50.388" style="fill:none;stroke-width:0.050000mm;stroke:black"/>
<polygon points="36.101,50.388 36.101,64.388 50.101,64.388 50.101,50.388" style="fill:none;stroke-width:0.050000mm;stroke:black"/>
<polygon points="12.288,50.388 12.288,64.388 26.288,64.388 26.288,50.388" style="fill:none;stroke-width:0.050000mm;stroke:black"/>
<polygon points="264.701,31.338 264.701,36.038 263.176,36.038 263.176,32.808 261.451,32.808 261.451,31.888 258.150,31.888 258.150,32.808 256.426,32.808 256.426,36.038 255.601,36.038 255.601,38.838 256.426,38.838 256.426,45.108 258.150,45.108 258.150,46.088 261.451,46.088 261.451,45.108 263.176,45.108 263.176,40.638 264.701,40.638 264.701,45.338 278.701,45.338 278.701,40.638 280.226,40.638 280.226,45.108 281.951,45.108 281.951,46.088 285.251,46.088 285.251,45.108 286.976,45.108 286.976,38.838 287.801,38.838 287.801,36.038 286.976,36.038 286.976,32.808 285.251,32.808 285.251,31.888 281.951,31.888 281.951,32.808 280.226,32.808 280.226,36.038 278.701,36.038 278.701,31.338" style="fill:none;stroke-width:0.050000mm;stroke:black"/>
<polygon points="388.526,31.338 388.526,45.338 402.526,45.338 402.526,31.338" style="fill:none;stroke-width:0.050000mm;stroke:black"/>
<polygon points="369.476,31.338 369.476,45.338 383.476,45.338 383.476,31.338" style="fill:none;stroke-width:0.050000mm;stroke:black"/>
<polygon points="350.426,31.338 350.426,45.338 364.426,45.338 364.426,31.338" style="fill:none;stroke-width:0.050000mm;stroke:black"/>
<polygon points="331.376,31.338 331.376,45.338 345.376,45.338 345.376,31.338" style="fill:none;stroke-width:0.050000mm;stroke:black"/>
<polygon points="302.801,31.338 302.801,45.338 316.801,45.338 316.801,31.338" style="fill:none;stroke-width:0.050000mm;stroke:black"/>
<polygon points="236.126,31.338 236.126,45.338 250.126,45.338 250.126,31.338" style="fill:none;stroke-width:0.050000mm;stroke:black"/>
<polygon points="217.076,31.338 217.076,45.338 231.076,45.338 231.076,31.338" style="fill:none;stroke-width:0.050000mm;stroke:black"/>
<polygon points="198.026,31.338 198.026,45.338 212.026,45.338 212.026,31.338" style="fill:none;stroke-width:0.050000mm;stroke:black"/>
<polygon points="178.976,31.338 178.976,45.338 192.976,45.338 192.976,31.338" style="fill:none;stroke-width:0.050000mm;stroke:black"/>
<polygon points="159.926,31.338 159.926,45.338 173.926,45.338 173.926,31.338" style="fill:none;stroke-width:0.050000mm;stroke:black"/>
<polygon points="140.876,31.338 140.876,45.338 154.876,45.338 154.876,31.338" style="fill:none;stroke-width:0.050000mm;stroke:black"/>
<polygon points="121.825,31.338 121.825,45.338 135.826,45.338 135.826,31.338" style="fill:none;stroke-width:0.050000mm;stroke:black"/>
<polygon points="102.775,31.338 102.775,45.338 116.775,45.338 116.775,31.338" style="fill:none;stroke-width:0.050000mm;stroke:black"/>
<polygon points="83.726,31.338 83.726,45.338 97.726,45.338 97.726,31.338" style="fill:none;stroke-width:0.050000mm;stroke:black"/>
<polygon points="64.676,31.338 64.676,45.338 78.676,45.338 78.676,31.338" style="fill:none;stroke-width:0.050000mm;stroke:black"/>
<polygon points="45.626,31.338 45.626,45.338 59.626,45.338 59.626,31.338" style="fill:none;stroke-width:0.050000mm;stroke:black"/>
<polygon points="26.576,31.338 26.576,45.338 40.576,45.338 40.576,31.338" style="fill:none;stroke-width:0.050000mm;stroke:black"/>
<polygon points="7.526,31.338 7.526,45.338 21.526,45.338 21.526,31.338" style="fill:none;stroke-width:0.050000mm;stroke:black"/>
<polygon points="302.801,7.526 302.801,21.526 316.801,21.526 316.801,7.526" style="fill:none;stroke-width:0.050000mm;stroke:black"/>
<polygon points="274.226,7.526 274.226,21.526 288.226,21.526 288.226,7.526" style="fill:none;stroke-width:0.050000mm;stroke:black"/>
<polygon points="255.176,7.526 255.176,21.526 269.176,21.526 269.176,7.526" style="fill:none;stroke-width:0.050000mm;stroke:black"/>
<polygon points="236.126,7.526 236.126,21.526 250.126,21.526 250.126,7.526" style="fill:none;stroke-width:0.050000mm;stroke:black"/>
<polygon points="217.076,7.526 217.076,21.526 231.076,21.526 231.076,7.526" style="fill:none;stroke-width:0.050000mm;stroke:black"/>
<polygon points="188.501,7.526 188.501,21.526 202.501,21.526 202.501,7.526" style="fill:none;stroke-width:0.050000mm;stroke:black"/>
<polygon points="169.451,7.526 169.451,21.526 183.451,21.526 183.451,7.526" style="fill:none;stroke-width:0.050000mm;stroke:black"/>
<polygon points="150.401,7.526 150.401,21.526 164.401,21.526 164.401,7.526" style="fill:none;stroke-width:0.050000mm;stroke:black"/>
<polygon points="131.351,7.526 131.351,21.526 145.351,21.526 145.351,7.526" style="fill:none;stroke-width:0.050000mm;stroke:black"/>
<polygon points="102.775,7.526 102.775,21.526 116.775,21.526 116.775,7.526" style="fill:none;stroke-width:0.050000mm;stroke:black"/>
<polygon points="83.726,7.526 83.726,21.526 97.726,21.526 97.726,7.526" style="fill:none;stroke-width:0.050000mm;stroke:black"/>
<polygon points="64.676,7.526 64.676,21.526 78.676,21.526 78.676,7.526" style="fill:none;stroke-width:0.050000mm;stroke:black"/>
<polygon points="45.626,7.526 45.626,21.526 59.626,21.526 59.626,7.526" style="fill:none;stroke-width:0.050000mm;stroke:black"/>
<polygon points="7.526,7.526 7.526,21.526 21.526,21.526 21.526,7.526" style="fill:none;stroke-width:0.050000mm;stroke:black"/>
</svg>
