  0
SECTION
  2
HEADER
  9
$ACADVER
  1
AC1009
  9
$EXTMIN
 10
0.0
 20
0.0
 30
0.0
  9
$EXTMAX
 10
1000.0
 20
1000.0
 30
0.0
  9
$FILLMODE
 70
 0
  9
$SPLFRAME
 70
 1
  0
ENDSEC
  0
SECTION
  2
TABLES
  0
TABLE
  2
LAYER
 70
1
  0
LAYER
  2
0
 70
     0
 62
     7
  6
CONTINUOUS
  0
ENDTAB
  0
ENDSEC
  0
SECTION
  2
ENTITIES
  0
LINE
  8
0
 62
     0
 10
0.0950846
 20
124.083
 30
0.0
 11
400.145
 21
124.083
 31
0.0
  0
LINE
  8
0
 62
     0
 10
400.145
 20
124.083
 30
0.0
 11
400.145
 21
0.257693
 31
0.0
  0
LINE
  8
0
 62
     0
 10
400.145
 20
0.257693
 30
0.0
 11
0.0950846
 21
0.257693
 31
0.0
  0
LINE
  8
0
 62
     0
 10
0.0950846
 20
0.257693
 30
0.0
 11
0.0950846
 21
124.083
 31
0.0
  0
LINE
  8
0
 62
     0
 10
293.132
 20
16.7831
 30
0.0
 11
307.132
 21
16.7831
 31
0.0
  0
LINE
  8
0
 62
     0
 10
307.132
 20
16.7831
 30
0.0
 11
307.132
 21
2.78364
 31
0.0
  0
LINE
  8
0
 62
     0
 10
307.132
 20
2.78364
 30
0.0
 11
293.132
 21
2.78364
 31
0.0
  0
LINE
  8
0
 62
     0
 10
293.132
 20
2.78364
 30
0.0
 11
293.132
 21
16.7831
 31
0.0
  0
LINE
  8
0
 62
     0
 10
274.082
 20
16.7831
 30
0.0
 11
288.082
 21
16.7831
 31
0.0
  0
LINE
  8
0
 62
     0
 10
288.082
 20
16.7831
 30
0.0
 11
288.082
 21
2.78364
 31
0.0
  0
LINE
  8
0
 62
     0
 10
288.082
 20
2.78364
 30
0.0
 11
274.082
 21
2.78364
 31
0.0
  0
LINE
  8
0
 62
     0
 10
274.082
 20
2.78364
 30
0.0
 11
274.082
 21
16.7831
 31
0.0
  0
LINE
  8
0
 62
     0
 10
255.032
 20
16.7831
 30
0.0
 11
269.032
 21
16.7831
 31
0.0
  0
LINE
  8
0
 62
     0
 10
269.032
 20
16.7831
 30
0.0
 11
269.032
 21
2.78364
 31
0.0
  0
LINE
  8
0
 62
     0
 10
269.032
 20
2.78364
 30
0.0
 11
255.032
 21
2.78364
 31
0.0
  0
LINE
  8
0
 62
     0
 10
255.032
 20
2.78364
 30
0.0
 11
255.032
 21
16.7831
 31
0.0
  0
LINE
  8
0
 62
     0
 10
335.995
 20
21.5456
 30
0.0
 11
335.995
 21
16.8465
 31
0.0
  0
LINE
  8
0
 62
     0
 10
335.995
 20
16.8465
 30
0.0
 11
334.469
 21
16.8465
 31
0.0
  0
LINE
  8
0
 62
     0
 10
334.469
 20
16.8465
 30
0.0
 11
334.469
 21
20.0767
 31
0.0
  0
LINE
  8
0
 62
     0
 10
334.469
 20
20.0767
 30
0.0
 11
332.744
 21
20.0767
 31
0.0
  0
LINE
  8
0
 62
     0
 10
332.744
 20
20.0767
 30
0.0
 11
332.744
 21
20.9958
 31
0.0
  0
LINE
  8
0
 62
     0
 10
332.744
 20
20.9958
 30
0.0
 11
329.443
 21
20.9958
 31
0.0
  0
LINE
  8
0
 62
     0
 10
329.443
 20
20.9958
 30
0.0
 11
329.443
 21
20.0767
 31
0.0
  0
LINE
  8
0
 62
     0
 10
329.443
 20
20.0767
 30
0.0
 11
327.72
 21
20.0767
 31
0.0
  0
LINE
  8
0
 62
     0
 10
327.72
 20
20.0767
 30
0.0
 11
327.72
 21
16.8465
 31
0.0
  0
LINE
  8
0
 62
     0
 10
327.72
 20
16.8465
 30
0.0
 11
326.894
 21
16.8465
 31
0.0
  0
LINE
  8
0
 62
     0
 10
326.894
 20
16.8465
 30
0.0
 11
326.894
 21
14.0463
 31
0.0
  0
LINE
  8
0
 62
     0
 10
326.894
 20
14.0463
 30
0.0
 11
327.72
 21
14.0463
 31
0.0
  0
LINE
  8
0
 62
     0
 10
327.72
 20
14.0463
 30
0.0
 11
327.72
 21
7.77628
 31
0.0
  0
LINE
  8
0
 62
     0
 10
327.72
 20
7.77628
 30
0.0
 11
329.443
 21
7.77628
 31
0.0
  0
LINE
  8
0
 62
     0
 10
329.443
 20
7.77628
 30
0.0
 11
329.443
 21
6.79648
 31
0.0
  0
LINE
  8
0
 62
     0
 10
329.443
 20
6.79648
 30
0.0
 11
332.744
 21
6.79648
 31
0.0
  0
LINE
  8
0
 62
     0
 10
332.744
 20
6.79648
 30
0.0
 11
332.744
 21
7.77628
 31
0.0
  0
LINE
  8
0
 62
     0
 10
332.744
 20
7.77628
 30
0.0
 11
334.469
 21
7.77628
 31
0.0
  0
LINE
  8
0
 62
     0
 10
334.469
 20
7.77628
 30
0.0
 11
334.469
 21
12.2466
 31
0.0
  0
LINE
  8
0
 62
     0
 10
334.469
 20
12.2466
 30
0.0
 11
335.995
 21
12.2466
 31
0.0
  0
LINE
  8
0
 62
     0
 10
335.995
 20
12.2466
 30
0.0
 11
335.995
 21
7.54613
 31
0.0
  0
LINE
  8
0
 62
     0
 10
335.995
 20
7.54613
 30
0.0
 11
349.994
 21
7.54613
 31
0.0
  0
LINE
  8
0
 62
     0
 10
349.994
 20
7.54613
 30
0.0
 11
349.994
 21
12.2466
 31
0.0
  0
LINE
  8
0
 62
     0
 10
349.994
 20
12.2466
 30
0.0
 11
351.518
 21
12.2466
 31
0.0
  0
LINE
  8
0
 62
     0
 10
351.518
 20
12.2466
 30
0.0
 11
351.518
 21
7.77628
 31
0.0
  0
LINE
  8
0
 62
     0
 10
351.518
 20
7.77628
 30
0.0
 11
353.243
 21
7.77628
 31
0.0
  0
LINE
  8
0
 62
     0
 10
353.243
 20
7.77628
 30
0.0
 11
353.243
 21
6.79648
 31
0.0
  0
LINE
  8
0
 62
     0
 10
353.243
 20
6.79648
 30
0.0
 11
356.545
 21
6.79648
 31
0.0
  0
LINE
  8
0
 62
     0
 10
356.545
 20
6.79648
 30
0.0
 11
356.545
 21
7.77628
 31
0.0
  0
LINE
  8
0
 62
     0
 10
356.545
 20
7.77628
 30
0.0
 11
358.267
 21
7.77628
 31
0.0
  0
LINE
  8
0
 62
     0
 10
358.267
 20
7.77628
 30
0.0
 11
358.267
 21
14.0463
 31
0.0
  0
LINE
  8
0
 62
     0
 10
358.267
 20
14.0463
 30
0.0
 11
359.096
 21
14.0463
 31
0.0
  0
LINE
  8
0
 62
     0
 10
359.096
 20
14.0463
 30
0.0
 11
359.096
 21
16.8465
 31
0.0
  0
LINE
  8
0
 62
     0
 10
359.096
 20
16.8465
 30
0.0
 11
358.267
 21
16.8465
 31
0.0
  0
LINE
  8
0
 62
     0
 10
358.267
 20
16.8465
 30
0.0
 11
358.267
 21
20.0767
 31
0.0
  0
LINE
  8
0
 62
     0
 10
358.267
 20
20.0767
 30
0.0
 11
356.545
 21
20.0767
 31
0.0
  0
LINE
  8
0
 62
     0
 10
356.545
 20
20.0767
 30
0.0
 11
356.545
 21
20.9958
 31
0.0
  0
LINE
  8
0
 62
     0
 10
356.545
 20
20.9958
 30
0.0
 11
353.243
 21
20.9958
 31
0.0
  0
LINE
  8
0
 62
     0
 10
353.243
 20
20.9958
 30
0.0
 11
353.243
 21
20.0767
 31
0.0
  0
LINE
  8
0
 62
     0
 10
353.243
 20
20.0767
 30
0.0
 11
351.518
 21
20.0767
 31
0.0
  0
LINE
  8
0
 62
     0
 10
351.518
 20
20.0767
 30
0.0
 11
351.518
 21
16.8465
 31
0.0
  0
LINE
  8
0
 62
     0
 10
351.518
 20
16.8465
 30
0.0
 11
349.994
 21
16.8465
 31
0.0
  0
LINE
  8
0
 62
     0
 10
349.994
 20
16.8465
 30
0.0
 11
349.994
 21
21.5456
 31
0.0
  0
LINE
  8
0
 62
     0
 10
349.994
 20
21.5456
 30
0.0
 11
335.995
 21
21.5456
 31
0.0
  0
LINE
  8
0
 62
     0
 10
124.062
 20
21.5456
 30
0.0
 11
124.062
 21
16.8465
 31
0.0
  0
LINE
  8
0
 62
     0
 10
124.062
 20
16.8465
 30
0.0
 11
84.5566
 21
16.8465
 31
0.0
  0
LINE
  8
0
 62
     0
 10
84.5566
 20
16.8465
 30
0.0
 11
84.5566
 21
20.0767
 31
0.0
  0
LINE
  8
0
 62
     0
 10
84.5566
 20
20.0767
 30
0.0
 11
82.8312
 21
20.0767
 31
0.0
  0
LINE
  8
0
 62
     0
 10
82.8312
 20
20.0767
 30
0.0
 11
82.8312
 21
20.9958
 31
0.0
  0
LINE
  8
0
 62
     0
 10
82.8312
 20
20.9958
 30
0.0
 11
79.4067
 21
20.9958
 31
0.0
  0
LINE
  8
0
 62
     0
 10
79.4067
 20
20.9958
 30
0.0
 11
79.4067
 21
20.0767
 31
0.0
  0
LINE
  8
0
 62
     0
 10
79.4067
 20
20.0767
 30
0.0
 11
77.6813
 21
20.0767
 31
0.0
  0
LINE
  8
0
 62
     0
 10
77.6813
 20
20.0767
 30
0.0
 11
77.6813
 21
16.8465
 31
0.0
  0
LINE
  8
0
 62
     0
 10
77.6813
 20
16.8465
 30
0.0
 11
76.8558
 21
16.8465
 31
0.0
  0
LINE
  8
0
 62
     0
 10
76.8558
 20
16.8465
 30
0.0
 11
76.8558
 21
14.0463
 31
0.0
  0
LINE
  8
0
 62
     0
 10
76.8558
 20
14.0463
 30
0.0
 11
77.6813
 21
14.0463
 31
0.0
  0
LINE
  8
0
 62
     0
 10
77.6813
 20
14.0463
 30
0.0
 11
77.6813
 21
7.77628
 31
0.0
  0
LINE
  8
0
 62
     0
 10
77.6813
 20
7.77628
 30
0.0
 11
79.4067
 21
7.77628
 31
0.0
  0
LINE
  8
0
 62
     0
 10
79.4067
 20
7.77628
 30
0.0
 11
79.4067
 21
6.79648
 31
0.0
  0
LINE
  8
0
 62
     0
 10
79.4067
 20
6.79648
 30
0.0
 11
82.8312
 21
6.79648
 31
0.0
  0
LINE
  8
0
 62
     0
 10
82.8312
 20
6.79648
 30
0.0
 11
82.8312
 21
7.77628
 31
0.0
  0
LINE
  8
0
 62
     0
 10
82.8312
 20
7.77628
 30
0.0
 11
84.5566
 21
7.77628
 31
0.0
  0
LINE
  8
0
 62
     0
 10
84.5566
 20
7.77628
 30
0.0
 11
84.5566
 21
12.2466
 31
0.0
  0
LINE
  8
0
 62
     0
 10
84.5566
 20
12.2466
 30
0.0
 11
124.062
 21
12.2466
 31
0.0
  0
LINE
  8
0
 62
     0
 10
124.062
 20
12.2466
 30
0.0
 11
124.062
 21
7.54613
 31
0.0
  0
LINE
  8
0
 62
     0
 10
124.062
 20
7.54613
 30
0.0
 11
145.207
 21
7.54613
 31
0.0
  0
LINE
  8
0
 62
     0
 10
145.207
 20
7.54613
 30
0.0
 11
145.207
 21
12.2466
 31
0.0
  0
LINE
  8
0
 62
     0
 10
145.207
 20
12.2466
 30
0.0
 11
172.806
 21
12.2466
 31
0.0
  0
LINE
  8
0
 62
     0
 10
172.806
 20
12.2466
 30
0.0
 11
172.806
 21
7.77628
 31
0.0
  0
LINE
  8
0
 62
     0
 10
172.806
 20
7.77628
 30
0.0
 11
174.531
 21
7.77628
 31
0.0
  0
LINE
  8
0
 62
     0
 10
174.531
 20
7.77628
 30
0.0
 11
174.531
 21
6.79648
 31
0.0
  0
LINE
  8
0
 62
     0
 10
174.531
 20
6.79648
 30
0.0
 11
177.832
 21
6.79648
 31
0.0
  0
LINE
  8
0
 62
     0
 10
177.832
 20
6.79648
 30
0.0
 11
177.832
 21
7.77628
 31
0.0
  0
LINE
  8
0
 62
     0
 10
177.832
 20
7.77628
 30
0.0
 11
179.412
 21
7.77628
 31
0.0
  0
LINE
  8
0
 62
     0
 10
179.412
 20
7.77628
 30
0.0
 11
179.412
 21
6.79648
 31
0.0
  0
LINE
  8
0
 62
     0
 10
179.412
 20
6.79648
 30
0.0
 11
182.713
 21
6.79648
 31
0.0
  0
LINE
  8
0
 62
     0
 10
182.713
 20
6.79648
 30
0.0
 11
182.713
 21
7.77628
 31
0.0
  0
LINE
  8
0
 62
     0
 10
182.713
 20
7.77628
 30
0.0
 11
184.438
 21
7.77628
 31
0.0
  0
LINE
  8
0
 62
     0
 10
184.438
 20
7.77628
 30
0.0
 11
184.438
 21
12.2466
 31
0.0
  0
LINE
  8
0
 62
     0
 10
184.438
 20
12.2466
 30
0.0
 11
190.737
 21
12.2466
 31
0.0
  0
LINE
  8
0
 62
     0
 10
190.737
 20
12.2466
 30
0.0
 11
190.737
 21
7.54613
 31
0.0
  0
LINE
  8
0
 62
     0
 10
190.737
 20
7.54613
 30
0.0
 11
193.707
 21
7.54613
 31
0.0
  0
LINE
  8
0
 62
     0
 10
193.707
 20
7.54613
 30
0.0
 11
193.707
 21
6.79648
 31
0.0
  0
LINE
  8
0
 62
     0
 10
193.707
 20
6.79648
 30
0.0
 11
197.007
 21
6.79648
 31
0.0
  0
LINE
  8
0
 62
     0
 10
197.007
 20
6.79648
 30
0.0
 11
197.007
 21
7.54613
 31
0.0
  0
LINE
  8
0
 62
     0
 10
197.007
 20
7.54613
 30
0.0
 11
207.119
 21
7.54613
 31
0.0
  0
LINE
  8
0
 62
     0
 10
207.119
 20
7.54613
 30
0.0
 11
207.119
 21
21.5456
 31
0.0
  0
LINE
  8
0
 62
     0
 10
207.119
 20
21.5456
 30
0.0
 11
190.737
 21
21.5456
 31
0.0
  0
LINE
  8
0
 62
     0
 10
190.737
 20
21.5456
 30
0.0
 11
190.737
 21
16.8465
 31
0.0
  0
LINE
  8
0
 62
     0
 10
190.737
 20
16.8465
 30
0.0
 11
184.438
 21
16.8465
 31
0.0
  0
LINE
  8
0
 62
     0
 10
184.438
 20
16.8465
 30
0.0
 11
184.438
 21
20.0767
 31
0.0
  0
LINE
  8
0
 62
     0
 10
184.438
 20
20.0767
 30
0.0
 11
182.713
 21
20.0767
 31
0.0
  0
LINE
  8
0
 62
     0
 10
182.713
 20
20.0767
 30
0.0
 11
182.713
 21
20.9958
 31
0.0
  0
LINE
  8
0
 62
     0
 10
182.713
 20
20.9958
 30
0.0
 11
179.412
 21
20.9958
 31
0.0
  0
LINE
  8
0
 62
     0
 10
179.412
 20
20.9958
 30
0.0
 11
179.412
 21
20.0767
 31
0.0
  0
LINE
  8
0
 62
     0
 10
179.412
 20
20.0767
 30
0.0
 11
177.832
 21
20.0767
 31
0.0
  0
LINE
  8
0
 62
     0
 10
177.832
 20
20.0767
 30
0.0
 11
177.832
 21
20.9958
 31
0.0
  0
LINE
  8
0
 62
     0
 10
177.832
 20
20.9958
 30
0.0
 11
174.531
 21
20.9958
 31
0.0
  0
LINE
  8
0
 62
     0
 10
174.531
 20
20.9958
 30
0.0
 11
174.531
 21
20.0767
 31
0.0
  0
LINE
  8
0
 62
     0
 10
174.531
 20
20.0767
 30
0.0
 11
172.806
 21
20.0767
 31
0.0
  0
LINE
  8
0
 62
     0
 10
172.806
 20
20.0767
 30
0.0
 11
172.806
 21
16.8465
 31
0.0
  0
LINE
  8
0
 62
     0
 10
172.806
 20
16.8465
 30
0.0
 11
145.207
 21
16.8465
 31
0.0
  0
LINE
  8
0
 62
     0
 10
145.207
 20
16.8465
 30
0.0
 11
145.207
 21
21.5456
 31
0.0
  0
LINE
  8
0
 62
     0
 10
145.207
 20
21.5456
 30
0.0
 11
124.062
 21
21.5456
 31
0.0
  0
LINE
  8
0
 62
     0
 10
364.568
 20
21.5456
 30
0.0
 11
378.569
 21
21.5456
 31
0.0
  0
LINE
  8
0
 62
     0
 10
378.569
 20
21.5456
 30
0.0
 11
378.569
 21
7.54613
 31
0.0
  0
LINE
  8
0
 62
     0
 10
378.569
 20
7.54613
 30
0.0
 11
364.568
 21
7.54613
 31
0.0
  0
LINE
  8
0
 62
     0
 10
364.568
 20
7.54613
 30
0.0
 11
364.568
 21
21.5456
 31
0.0
  0
LINE
  8
0
 62
     0
 10
231.22
 20
21.5456
 30
0.0
 11
245.219
 21
21.5456
 31
0.0
  0
LINE
  8
0
 62
     0
 10
245.219
 20
21.5456
 30
0.0
 11
245.219
 21
7.54613
 31
0.0
  0
LINE
  8
0
 62
     0
 10
245.219
 20
7.54613
 30
0.0
 11
231.22
 21
7.54613
 31
0.0
  0
LINE
  8
0
 62
     0
 10
231.22
 20
7.54613
 30
0.0
 11
231.22
 21
21.5456
 31
0.0
  0
LINE
  8
0
 62
     0
 10
209.787
 20
21.5456
 30
0.0
 11
226.169
 21
21.5456
 31
0.0
  0
LINE
  8
0
 62
     0
 10
226.169
 20
21.5456
 30
0.0
 11
226.169
 21
7.54613
 31
0.0
  0
LINE
  8
0
 62
     0
 10
226.169
 20
7.54613
 30
0.0
 11
209.787
 21
7.54613
 31
0.0
  0
LINE
  8
0
 62
     0
 10
209.787
 20
7.54613
 30
0.0
 11
209.787
 21
21.5456
 31
0.0
  0
LINE
  8
0
 62
     0
 10
52.626
 20
21.5456
 30
0.0
 11
66.6253
 21
21.5456
 31
0.0
  0
LINE
  8
0
 62
     0
 10
66.6253
 20
21.5456
 30
0.0
 11
66.6253
 21
7.54613
 31
0.0
  0
LINE
  8
0
 62
     0
 10
66.6253
 20
7.54613
 30
0.0
 11
52.626
 21
7.54613
 31
0.0
  0
LINE
  8
0
 62
     0
 10
52.626
 20
7.54613
 30
0.0
 11
52.626
 21
21.5456
 31
0.0
  0
LINE
  8
0
 62
     0
 10
31.1947
 20
21.5456
 30
0.0
 11
45.194
 21
21.5456
 31
0.0
  0
LINE
  8
0
 62
     0
 10
45.194
 20
21.5456
 30
0.0
 11
45.194
 21
7.54613
 31
0.0
  0
LINE
  8
0
 62
     0
 10
45.194
 20
7.54613
 30
0.0
 11
31.1947
 21
7.54613
 31
0.0
  0
LINE
  8
0
 62
     0
 10
31.1947
 20
7.54613
 30
0.0
 11
31.1947
 21
21.5456
 31
0.0
  0
LINE
  8
0
 62
     0
 10
7.38216
 20
21.5456
 30
0.0
 11
21.3817
 21
21.5456
 31
0.0
  0
LINE
  8
0
 62
     0
 10
21.3817
 20
21.5456
 30
0.0
 11
21.3817
 21
7.54613
 31
0.0
  0
LINE
  8
0
 62
     0
 10
21.3817
 20
7.54613
 30
0.0
 11
7.38216
 21
7.54613
 31
0.0
  0
LINE
  8
0
 62
     0
 10
7.38216
 20
7.54613
 30
0.0
 11
7.38216
 21
21.5456
 31
0.0
  0
LINE
  8
0
 62
     0
 10
390.119
 20
40.1712
 30
0.0
 11
390.119
 21
39.3457
 31
0.0
  0
LINE
  8
0
 62
     0
 10
390.119
 20
39.3457
 30
0.0
 11
383.85
 21
39.3457
 31
0.0
  0
LINE
  8
0
 62
     0
 10
383.85
 20
39.3457
 30
0.0
 11
383.85
 21
37.622
 31
0.0
  0
LINE
  8
0
 62
     0
 10
383.85
 20
37.622
 30
0.0
 11
382.87
 21
37.622
 31
0.0
  0
LINE
  8
0
 62
     0
 10
382.87
 20
37.622
 30
0.0
 11
382.87
 21
34.3214
 31
0.0
  0
LINE
  8
0
 62
     0
 10
382.87
 20
34.3214
 30
0.0
 11
383.85
 21
34.3214
 31
0.0
  0
LINE
  8
0
 62
     0
 10
383.85
 20
34.3214
 30
0.0
 11
383.85
 21
32.5961
 31
0.0
  0
LINE
  8
0
 62
     0
 10
383.85
 20
32.5961
 30
0.0
 11
388.32
 21
32.5961
 31
0.0
  0
LINE
  8
0
 62
     0
 10
388.32
 20
32.5961
 30
0.0
 11
388.32
 21
31.0706
 31
0.0
  0
LINE
  8
0
 62
     0
 10
388.32
 20
31.0706
 30
0.0
 11
383.621
 21
31.0706
 31
0.0
  0
LINE
  8
0
 62
     0
 10
383.621
 20
31.0706
 30
0.0
 11
383.621
 21
17.0711
 31
0.0
  0
LINE
  8
0
 62
     0
 10
383.621
 20
17.0711
 30
0.0
 11
388.32
 21
17.0711
 31
0.0
  0
LINE
  8
0
 62
     0
 10
388.32
 20
17.0711
 30
0.0
 11
388.32
 21
15.5456
 31
0.0
  0
LINE
  8
0
 62
     0
 10
388.32
 20
15.5456
 30
0.0
 11
383.85
 21
15.5456
 31
0.0
  0
LINE
  8
0
 62
     0
 10
383.85
 20
15.5456
 30
0.0
 11
383.85
 21
13.8217
 31
0.0
  0
LINE
  8
0
 62
     0
 10
383.85
 20
13.8217
 30
0.0
 11
382.87
 21
13.8217
 31
0.0
  0
LINE
  8
0
 62
     0
 10
382.87
 20
13.8217
 30
0.0
 11
382.87
 21
10.5213
 31
0.0
  0
LINE
  8
0
 62
     0
 10
382.87
 20
10.5213
 30
0.0
 11
383.85
 21
10.5213
 31
0.0
  0
LINE
  8
0
 62
     0
 10
383.85
 20
10.5213
 30
0.0
 11
383.85
 21
8.79602
 31
0.0
  0
LINE
  8
0
 62
     0
 10
383.85
 20
8.79602
 30
0.0
 11
390.119
 21
8.79602
 31
0.0
  0
LINE
  8
0
 62
     0
 10
390.119
 20
8.79602
 30
0.0
 11
390.119
 21
7.97197
 31
0.0
  0
LINE
  8
0
 62
     0
 10
390.119
 20
7.97197
 30
0.0
 11
392.92
 21
7.97197
 31
0.0
  0
LINE
  8
0
 62
     0
 10
392.92
 20
7.97197
 30
0.0
 11
392.92
 21
8.79602
 31
0.0
  0
LINE
  8
0
 62
     0
 10
392.92
 20
8.79602
 30
0.0
 11
396.152
 21
8.79602
 31
0.0
  0
LINE
  8
0
 62
     0
 10
396.152
 20
8.79602
 30
0.0
 11
396.152
 21
10.5213
 31
0.0
  0
LINE
  8
0
 62
     0
 10
396.152
 20
10.5213
 30
0.0
 11
397.069
 21
10.5213
 31
0.0
  0
LINE
  8
0
 62
     0
 10
397.069
 20
10.5213
 30
0.0
 11
397.069
 21
13.8217
 31
0.0
  0
LINE
  8
0
 62
     0
 10
397.069
 20
13.8217
 30
0.0
 11
396.152
 21
13.8217
 31
0.0
  0
LINE
  8
0
 62
     0
 10
396.152
 20
13.8217
 30
0.0
 11
396.152
 21
15.5456
 31
0.0
  0
LINE
  8
0
 62
     0
 10
396.152
 20
15.5456
 30
0.0
 11
392.92
 21
15.5456
 31
0.0
  0
LINE
  8
0
 62
     0
 10
392.92
 20
15.5456
 30
0.0
 11
392.92
 21
17.0711
 31
0.0
  0
LINE
  8
0
 62
     0
 10
392.92
 20
17.0711
 30
0.0
 11
397.619
 21
17.0711
 31
0.0
  0
LINE
  8
0
 62
     0
 10
397.619
 20
17.0711
 30
0.0
 11
397.619
 21
31.0706
 31
0.0
  0
LINE
  8
0
 62
     0
 10
397.619
 20
31.0706
 30
0.0
 11
392.92
 21
31.0706
 31
0.0
  0
LINE
  8
0
 62
     0
 10
392.92
 20
31.0706
 30
0.0
 11
392.92
 21
32.5961
 31
0.0
  0
LINE
  8
0
 62
     0
 10
392.92
 20
32.5961
 30
0.0
 11
396.152
 21
32.5961
 31
0.0
  0
LINE
  8
0
 62
     0
 10
396.152
 20
32.5961
 30
0.0
 11
396.152
 21
34.3214
 31
0.0
  0
LINE
  8
0
 62
     0
 10
396.152
 20
34.3214
 30
0.0
 11
397.069
 21
34.3214
 31
0.0
  0
LINE
  8
0
 62
     0
 10
397.069
 20
34.3214
 30
0.0
 11
397.069
 21
37.622
 31
0.0
  0
LINE
  8
0
 62
     0
 10
397.069
 20
37.622
 30
0.0
 11
396.152
 21
37.622
 31
0.0
  0
LINE
  8
0
 62
     0
 10
396.152
 20
37.622
 30
0.0
 11
396.152
 21
39.3457
 31
0.0
  0
LINE
  8
0
 62
     0
 10
396.152
 20
39.3457
 30
0.0
 11
392.92
 21
39.3457
 31
0.0
  0
LINE
  8
0
 62
     0
 10
392.92
 20
39.3457
 30
0.0
 11
392.92
 21
40.1712
 31
0.0
  0
LINE
  8
0
 62
     0
 10
392.92
 20
40.1712
 30
0.0
 11
390.119
 21
40.1712
 31
0.0
  0
LINE
  8
0
 62
     0
 10
274.082
 20
35.833
 30
0.0
 11
288.082
 21
35.833
 31
0.0
  0
LINE
  8
0
 62
     0
 10
288.082
 20
35.833
 30
0.0
 11
288.082
 21
21.8336
 31
0.0
  0
LINE
  8
0
 62
     0
 10
288.082
 20
21.8336
 30
0.0
 11
274.082
 21
21.8336
 31
0.0
  0
LINE
  8
0
 62
     0
 10
274.082
 20
21.8336
 30
0.0
 11
274.082
 21
35.833
 31
0.0
  0
LINE
  8
0
 62
     0
 10
364.571
 20
40.5955
 30
0.0
 11
378.569
 21
40.5955
 31
0.0
  0
LINE
  8
0
 62
     0
 10
378.569
 20
40.5955
 30
0.0
 11
378.569
 21
26.5961
 31
0.0
  0
LINE
  8
0
 62
     0
 10
378.569
 20
26.5961
 30
0.0
 11
364.571
 21
26.5961
 31
0.0
  0
LINE
  8
0
 62
     0
 10
364.571
 20
26.5961
 30
0.0
 11
364.571
 21
40.5955
 31
0.0
  0
LINE
  8
0
 62
     0
 10
345.52
 20
40.5955
 30
0.0
 11
359.519
 21
40.5955
 31
0.0
  0
LINE
  8
0
 62
     0
 10
359.519
 20
40.5955
 30
0.0
 11
359.519
 21
26.5961
 31
0.0
  0
LINE
  8
0
 62
     0
 10
359.519
 20
26.5961
 30
0.0
 11
345.52
 21
26.5961
 31
0.0
  0
LINE
  8
0
 62
     0
 10
345.52
 20
26.5961
 30
0.0
 11
345.52
 21
40.5955
 31
0.0
  0
LINE
  8
0
 62
     0
 10
326.47
 20
40.5955
 30
0.0
 11
340.469
 21
40.5955
 31
0.0
  0
LINE
  8
0
 62
     0
 10
340.469
 20
40.5955
 30
0.0
 11
340.469
 21
26.5961
 31
0.0
  0
LINE
  8
0
 62
     0
 10
340.469
 20
26.5961
 30
0.0
 11
326.47
 21
26.5961
 31
0.0
  0
LINE
  8
0
 62
     0
 10
326.47
 20
26.5961
 30
0.0
 11
326.47
 21
40.5955
 31
0.0
  0
LINE
  8
0
 62
     0
 10
297.895
 20
40.5955
 30
0.0
 11
311.894
 21
40.5955
 31
0.0
  0
LINE
  8
0
 62
     0
 10
311.894
 20
40.5955
 30
0.0
 11
311.894
 21
26.5961
 31
0.0
  0
LINE
  8
0
 62
     0
 10
311.894
 20
26.5961
 30
0.0
 11
297.895
 21
26.5961
 31
0.0
  0
LINE
  8
0
 62
     0
 10
297.895
 20
26.5961
 30
0.0
 11
297.895
 21
40.5955
 31
0.0
  0
LINE
  8
0
 62
     0
 10
243.126
 20
40.5955
 30
0.0
 11
257.125
 21
40.5955
 31
0.0
  0
LINE
  8
0
 62
     0
 10
257.125
 20
40.5955
 30
0.0
 11
257.125
 21
26.5961
 31
0.0
  0
LINE
  8
0
 62
     0
 10
257.125
 20
26.5961
 30
0.0
 11
243.126
 21
26.5961
 31
0.0
  0
LINE
  8
0
 62
     0
 10
243.126
 20
26.5961
 30
0.0
 11
243.126
 21
40.5955
 31
0.0
  0
LINE
  8
0
 62
     0
 10
216.932
 20
40.5955
 30
0.0
 11
230.932
 21
40.5955
 31
0.0
  0
LINE
  8
0
 62
     0
 10
230.932
 20
40.5955
 30
0.0
 11
230.932
 21
26.5961
 31
0.0
  0
LINE
  8
0
 62
     0
 10
230.932
 20
26.5961
 30
0.0
 11
216.932
 21
26.5961
 31
0.0
  0
LINE
  8
0
 62
     0
 10
216.932
 20
26.5961
 30
0.0
 11
216.932
 21
40.5955
 31
0.0
  0
LINE
  8
0
 62
     0
 10
197.882
 20
40.5955
 30
0.0
 11
211.882
 21
40.5955
 31
0.0
  0
LINE
  8
0
 62
     0
 10
211.882
 20
40.5955
 30
0.0
 11
211.882
 21
26.5961
 31
0.0
  0
LINE
  8
0
 62
     0
 10
211.882
 20
26.5961
 30
0.0
 11
197.882
 21
26.5961
 31
0.0
  0
LINE
  8
0
 62
     0
 10
197.882
 20
26.5961
 30
0.0
 11
197.882
 21
40.5955
 31
0.0
  0
LINE
  8
0
 62
     0
 10
178.832
 20
40.5955
 30
0.0
 11
192.832
 21
40.5955
 31
0.0
  0
LINE
  8
0
 62
     0
 10
192.832
 20
40.5955
 30
0.0
 11
192.832
 21
26.5961
 31
0.0
  0
LINE
  8
0
 62
     0
 10
192.832
 20
26.5961
 30
0.0
 11
178.832
 21
26.5961
 31
0.0
  0
LINE
  8
0
 62
     0
 10
178.832
 20
26.5961
 30
0.0
 11
178.832
 21
40.5955
 31
0.0
  0
LINE
  8
0
 62
     0
 10
159.782
 20
40.5955
 30
0.0
 11
173.782
 21
40.5955
 31
0.0
  0
LINE
  8
0
 62
     0
 10
173.782
 20
40.5955
 30
0.0
 11
173.782
 21
26.5961
 31
0.0
  0
LINE
  8
0
 62
     0
 10
173.782
 20
26.5961
 30
0.0
 11
159.782
 21
26.5961
 31
0.0
  0
LINE
  8
0
 62
     0
 10
159.782
 20
26.5961
 30
0.0
 11
159.782
 21
40.5955
 31
0.0
  0
LINE
  8
0
 62
     0
 10
140.732
 20
40.5955
 30
0.0
 11
154.732
 21
40.5955
 31
0.0
  0
LINE
  8
0
 62
     0
 10
154.732
 20
40.5955
 30
0.0
 11
154.732
 21
26.5961
 31
0.0
  0
LINE
  8
0
 62
     0
 10
154.732
 20
26.5961
 30
0.0
 11
140.732
 21
26.5961
 31
0.0
  0
LINE
  8
0
 62
     0
 10
140.732
 20
26.5961
 30
0.0
 11
140.732
 21
40.5955
 31
0.0
  0
LINE
  8
0
 62
     0
 10
121.682
 20
40.5955
 30
0.0
 11
135.682
 21
40.5955
 31
0.0
  0
LINE
  8
0
 62
     0
 10
135.682
 20
40.5955
 30
0.0
 11
135.682
 21
26.5961
 31
0.0
  0
LINE
  8
0
 62
     0
 10
135.682
 20
26.5961
 30
0.0
 11
121.682
 21
26.5961
 31
0.0
  0
LINE
  8
0
 62
     0
 10
121.682
 20
26.5961
 30
0.0
 11
121.682
 21
40.5955
 31
0.0
  0
LINE
  8
0
 62
     0
 10
102.632
 20
40.5955
 30
0.0
 11
116.632
 21
40.5955
 31
0.0
  0
LINE
  8
0
 62
     0
 10
116.632
 20
40.5955
 30
0.0
 11
116.632
 21
26.5961
 31
0.0
  0
LINE
  8
0
 62
     0
 10
116.632
 20
26.5961
 30
0.0
 11
102.632
 21
26.5961
 31
0.0
  0
LINE
  8
0
 62
     0
 10
102.632
 20
26.5961
 30
0.0
 11
102.632
 21
40.5955
 31
0.0
  0
LINE
  8
0
 62
     0
 10
83.5822
 20
40.5955
 30
0.0
 11
97.5815
 21
40.5955
 31
0.0
  0
LINE
  8
0
 62
     0
 10
97.5815
 20
40.5955
 30
0.0
 11
97.5815
 21
26.5961
 31
0.0
  0
LINE
  8
0
 62
     0
 10
97.5815
 20
26.5961
 30
0.0
 11
83.5822
 21
26.5961
 31
0.0
  0
LINE
  8
0
 62
     0
 10
83.5822
 20
26.5961
 30
0.0
 11
83.5822
 21
40.5955
 31
0.0
  0
LINE
  8
0
 62
     0
 10
64.5322
 20
40.5955
 30
0.0
 11
78.5315
 21
40.5955
 31
0.0
  0
LINE
  8
0
 62
     0
 10
78.5315
 20
40.5955
 30
0.0
 11
78.5315
 21
26.5961
 31
0.0
  0
LINE
  8
0
 62
     0
 10
78.5315
 20
26.5961
 30
0.0
 11
64.5322
 21
26.5961
 31
0.0
  0
LINE
  8
0
 62
     0
 10
64.5322
 20
26.5961
 30
0.0
 11
64.5322
 21
40.5955
 31
0.0
  0
LINE
  8
0
 62
     0
 10
45.4822
 20
40.5955
 30
0.0
 11
59.4815
 21
40.5955
 31
0.0
  0
LINE
  8
0
 62
     0
 10
59.4815
 20
40.5955
 30
0.0
 11
59.4815
 21
26.5961
 31
0.0
  0
LINE
  8
0
 62
     0
 10
59.4815
 20
26.5961
 30
0.0
 11
45.4822
 21
26.5961
 31
0.0
  0
LINE
  8
0
 62
     0
 10
45.4822
 20
26.5961
 30
0.0
 11
45.4822
 21
40.5955
 31
0.0
  0
LINE
  8
0
 62
     0
 10
26.4322
 20
40.5955
 30
0.0
 11
40.4315
 21
40.5955
 31
0.0
  0
LINE
  8
0
 62
     0
 10
40.4315
 20
40.5955
 30
0.0
 11
40.4315
 21
26.5961
 31
0.0
  0
LINE
  8
0
 62
     0
 10
40.4315
 20
26.5961
 30
0.0
 11
26.4322
 21
26.5961
 31
0.0
  0
LINE
  8
0
 62
     0
 10
26.4322
 20
26.5961
 30
0.0
 11
26.4322
 21
40.5955
 31
0.0
  0
LINE
  8
0
 62
     0
 10
5.00091
 20
40.5955
 30
0.0
 11
19.0004
 21
40.5955
 31
0.0
  0
LINE
  8
0
 62
     0
 10
19.0004
 20
40.5955
 30
0.0
 11
19.0004
 21
26.5961
 31
0.0
  0
LINE
  8
0
 62
     0
 10
19.0004
 20
26.5961
 30
0.0
 11
5.00091
 21
26.5961
 31
0.0
  0
LINE
  8
0
 62
     0
 10
5.00091
 20
26.5961
 30
0.0
 11
5.00091
 21
40.5955
 31
0.0
  0
LINE
  8
0
 62
     0
 10
364.571
 20
59.6456
 30
0.0
 11
378.569
 21
59.6456
 31
0.0
  0
LINE
  8
0
 62
     0
 10
378.569
 20
59.6456
 30
0.0
 11
378.569
 21
45.6463
 31
0.0
  0
LINE
  8
0
 62
     0
 10
378.569
 20
45.6463
 30
0.0
 11
364.571
 21
45.6463
 31
0.0
  0
LINE
  8
0
 62
     0
 10
364.571
 20
45.6463
 30
0.0
 11
364.571
 21
59.6456
 31
0.0
  0
LINE
  8
0
 62
     0
 10
345.52
 20
59.6456
 30
0.0
 11
359.519
 21
59.6456
 31
0.0
  0
LINE
  8
0
 62
     0
 10
359.519
 20
59.6456
 30
0.0
 11
359.519
 21
45.6463
 31
0.0
  0
LINE
  8
0
 62
     0
 10
359.519
 20
45.6463
 30
0.0
 11
345.52
 21
45.6463
 31
0.0
  0
LINE
  8
0
 62
     0
 10
345.52
 20
45.6463
 30
0.0
 11
345.52
 21
59.6456
 31
0.0
  0
LINE
  8
0
 62
     0
 10
326.47
 20
59.6456
 30
0.0
 11
340.469
 21
59.6456
 31
0.0
  0
LINE
  8
0
 62
     0
 10
340.469
 20
59.6456
 30
0.0
 11
340.469
 21
45.6463
 31
0.0
  0
LINE
  8
0
 62
     0
 10
340.469
 20
45.6463
 30
0.0
 11
326.47
 21
45.6463
 31
0.0
  0
LINE
  8
0
 62
     0
 10
326.47
 20
45.6463
 30
0.0
 11
326.47
 21
59.6456
 31
0.0
  0
LINE
  8
0
 62
     0
 10
297.895
 20
59.6456
 30
0.0
 11
311.894
 21
59.6456
 31
0.0
  0
LINE
  8
0
 62
     0
 10
311.894
 20
59.6456
 30
0.0
 11
311.894
 21
45.6463
 31
0.0
  0
LINE
  8
0
 62
     0
 10
311.894
 20
45.6463
 30
0.0
 11
297.895
 21
45.6463
 31
0.0
  0
LINE
  8
0
 62
     0
 10
297.895
 20
45.6463
 30
0.0
 11
297.895
 21
59.6456
 31
0.0
  0
LINE
  8
0
 62
     0
 10
245.507
 20
59.6456
 30
0.0
 11
259.507
 21
59.6456
 31
0.0
  0
LINE
  8
0
 62
     0
 10
259.507
 20
59.6456
 30
0.0
 11
259.507
 21
45.6463
 31
0.0
  0
LINE
  8
0
 62
     0
 10
259.507
 20
45.6463
 30
0.0
 11
245.507
 21
45.6463
 31
0.0
  0
LINE
  8
0
 62
     0
 10
245.507
 20
45.6463
 30
0.0
 11
245.507
 21
59.6456
 31
0.0
  0
LINE
  8
0
 62
     0
 10
226.457
 20
59.6456
 30
0.0
 11
240.457
 21
59.6456
 31
0.0
  0
LINE
  8
0
 62
     0
 10
240.457
 20
59.6456
 30
0.0
 11
240.457
 21
45.6463
 31
0.0
  0
LINE
  8
0
 62
     0
 10
240.457
 20
45.6463
 30
0.0
 11
226.457
 21
45.6463
 31
0.0
  0
LINE
  8
0
 62
     0
 10
226.457
 20
45.6463
 30
0.0
 11
226.457
 21
59.6456
 31
0.0
  0
LINE
  8
0
 62
     0
 10
207.407
 20
59.6456
 30
0.0
 11
221.407
 21
59.6456
 31
0.0
  0
LINE
  8
0
 62
     0
 10
221.407
 20
59.6456
 30
0.0
 11
221.407
 21
45.6463
 31
0.0
  0
LINE
  8
0
 62
     0
 10
221.407
 20
45.6463
 30
0.0
 11
207.407
 21
45.6463
 31
0.0
  0
LINE
  8
0
 62
     0
 10
207.407
 20
45.6463
 30
0.0
 11
207.407
 21
59.6456
 31
0.0
  0
LINE
  8
0
 62
     0
 10
188.357
 20
59.6456
 30
0.0
 11
202.357
 21
59.6456
 31
0.0
  0
LINE
  8
0
 62
     0
 10
202.357
 20
59.6456
 30
0.0
 11
202.357
 21
45.6463
 31
0.0
  0
LINE
  8
0
 62
     0
 10
202.357
 20
45.6463
 30
0.0
 11
188.357
 21
45.6463
 31
0.0
  0
LINE
  8
0
 62
     0
 10
188.357
 20
45.6463
 30
0.0
 11
188.357
 21
59.6456
 31
0.0
  0
LINE
  8
0
 62
     0
 10
169.307
 20
59.6456
 30
0.0
 11
183.307
 21
59.6456
 31
0.0
  0
LINE
  8
0
 62
     0
 10
183.307
 20
59.6456
 30
0.0
 11
183.307
 21
45.6463
 31
0.0
  0
LINE
  8
0
 62
     0
 10
183.307
 20
45.6463
 30
0.0
 11
169.307
 21
45.6463
 31
0.0
  0
LINE
  8
0
 62
     0
 10
169.307
 20
45.6463
 30
0.0
 11
169.307
 21
59.6456
 31
0.0
  0
LINE
  8
0
 62
     0
 10
150.257
 20
59.6456
 30
0.0
 11
164.257
 21
59.6456
 31
0.0
  0
LINE
  8
0
 62
     0
 10
164.257
 20
59.6456
 30
0.0
 11
164.257
 21
45.6463
 31
0.0
  0
LINE
  8
0
 62
     0
 10
164.257
 20
45.6463
 30
0.0
 11
150.257
 21
45.6463
 31
0.0
  0
LINE
  8
0
 62
     0
 10
150.257
 20
45.6463
 30
0.0
 11
150.257
 21
59.6456
 31
0.0
  0
LINE
  8
0
 62
     0
 10
131.207
 20
59.6456
 30
0.0
 11
145.207
 21
59.6456
 31
0.0
  0
LINE
  8
0
 62
     0
 10
145.207
 20
59.6456
 30
0.0
 11
145.207
 21
45.6463
 31
0.0
  0
LINE
  8
0
 62
     0
 10
145.207
 20
45.6463
 30
0.0
 11
131.207
 21
45.6463
 31
0.0
  0
LINE
  8
0
 62
     0
 10
131.207
 20
45.6463
 30
0.0
 11
131.207
 21
59.6456
 31
0.0
  0
LINE
  8
0
 62
     0
 10
112.157
 20
59.6456
 30
0.0
 11
126.157
 21
59.6456
 31
0.0
  0
LINE
  8
0
 62
     0
 10
126.157
 20
59.6456
 30
0.0
 11
126.157
 21
45.6463
 31
0.0
  0
LINE
  8
0
 62
     0
 10
126.157
 20
45.6463
 30
0.0
 11
112.157
 21
45.6463
 31
0.0
  0
LINE
  8
0
 62
     0
 10
112.157
 20
45.6463
 30
0.0
 11
112.157
 21
59.6456
 31
0.0
  0
LINE
  8
0
 62
     0
 10
93.1072
 20
59.6456
 30
0.0
 11
107.107
 21
59.6456
 31
0.0
  0
LINE
  8
0
 62
     0
 10
107.107
 20
59.6456
 30
0.0
 11
107.107
 21
45.6463
 31
0.0
  0
LINE
  8
0
 62
     0
 10
107.107
 20
45.6463
 30
0.0
 11
93.1072
 21
45.6463
 31
0.0
  0
LINE
  8
0
 62
     0
 10
93.1072
 20
45.6463
 30
0.0
 11
93.1072
 21
59.6456
 31
0.0
  0
LINE
  8
0
 62
     0
 10
74.0572
 20
59.6456
 30
0.0
 11
88.0565
 21
59.6456
 31
0.0
  0
LINE
  8
0
 62
     0
 10
88.0565
 20
59.6456
 30
0.0
 11
88.0565
 21
45.6463
 31
0.0
  0
LINE
  8
0
 62
     0
 10
88.0565
 20
45.6463
 30
0.0
 11
74.0572
 21
45.6463
 31
0.0
  0
LINE
  8
0
 62
     0
 10
74.0572
 20
45.6463
 30
0.0
 11
74.0572
 21
59.6456
 31
0.0
  0
LINE
  8
0
 62
     0
 10
55.0072
 20
59.6456
 30
0.0
 11
69.0065
 21
59.6456
 31
0.0
  0
LINE
  8
0
 62
     0
 10
69.0065
 20
59.6456
 30
0.0
 11
69.0065
 21
45.6463
 31
0.0
  0
LINE
  8
0
 62
     0
 10
69.0065
 20
45.6463
 30
0.0
 11
55.0072
 21
45.6463
 31
0.0
  0
LINE
  8
0
 62
     0
 10
55.0072
 20
45.6463
 30
0.0
 11
55.0072
 21
59.6456
 31
0.0
  0
LINE
  8
0
 62
     0
 10
35.9572
 20
59.6456
 30
0.0
 11
49.9565
 21
59.6456
 31
0.0
  0
LINE
  8
0
 62
     0
 10
49.9565
 20
59.6456
 30
0.0
 11
49.9565
 21
45.6463
 31
0.0
  0
LINE
  8
0
 62
     0
 10
49.9565
 20
45.6463
 30
0.0
 11
35.9572
 21
45.6463
 31
0.0
  0
LINE
  8
0
 62
     0
 10
35.9572
 20
45.6463
 30
0.0
 11
35.9572
 21
59.6456
 31
0.0
  0
LINE
  8
0
 62
     0
 10
9.76203
 20
59.6456
 30
0.0
 11
23.7629
 21
59.6456
 31
0.0
  0
LINE
  8
0
 62
     0
 10
23.7629
 20
59.6456
 30
0.0
 11
23.7629
 21
45.6463
 31
0.0
  0
LINE
  8
0
 62
     0
 10
23.7629
 20
45.6463
 30
0.0
 11
9.76203
 21
45.6463
 31
0.0
  0
LINE
  8
0
 62
     0
 10
9.76203
 20
45.6463
 30
0.0
 11
9.76203
 21
59.6456
 31
0.0
  0
LINE
  8
0
 62
     0
 10
390.119
 20
78.2712
 30
0.0
 11
390.119
 21
77.4457
 31
0.0
  0
LINE
  8
0
 62
     0
 10
390.119
 20
77.4457
 30
0.0
 11
383.85
 21
77.4457
 31
0.0
  0
LINE
  8
0
 62
     0
 10
383.85
 20
77.4457
 30
0.0
 11
383.85
 21
75.722
 31
0.0
  0
LINE
  8
0
 62
     0
 10
383.85
 20
75.722
 30
0.0
 11
382.87
 21
75.722
 31
0.0
  0
LINE
  8
0
 62
     0
 10
382.87
 20
75.722
 30
0.0
 11
382.87
 21
72.4214
 31
0.0
  0
LINE
  8
0
 62
     0
 10
382.87
 20
72.4214
 30
0.0
 11
383.85
 21
72.4214
 31
0.0
  0
LINE
  8
0
 62
     0
 10
383.85
 20
72.4214
 30
0.0
 11
383.85
 21
70.696
 31
0.0
  0
LINE
  8
0
 62
     0
 10
383.85
 20
70.696
 30
0.0
 11
388.32
 21
70.696
 31
0.0
  0
LINE
  8
0
 62
     0
 10
388.32
 20
70.696
 30
0.0
 11
388.32
 21
69.1706
 31
0.0
  0
LINE
  8
0
 62
     0
 10
388.32
 20
69.1706
 30
0.0
 11
383.621
 21
69.1706
 31
0.0
  0
LINE
  8
0
 62
     0
 10
383.621
 20
69.1706
 30
0.0
 11
383.621
 21
55.1713
 31
0.0
  0
LINE
  8
0
 62
     0
 10
383.621
 20
55.1713
 30
0.0
 11
388.32
 21
55.1713
 31
0.0
  0
LINE
  8
0
 62
     0
 10
388.32
 20
55.1713
 30
0.0
 11
388.32
 21
53.6455
 31
0.0
  0
LINE
  8
0
 62
     0
 10
388.32
 20
53.6455
 30
0.0
 11
383.85
 21
53.6455
 31
0.0
  0
LINE
  8
0
 62
     0
 10
383.85
 20
53.6455
 30
0.0
 11
383.85
 21
51.9218
 31
0.0
  0
LINE
  8
0
 62
     0
 10
383.85
 20
51.9218
 30
0.0
 11
382.87
 21
51.9218
 31
0.0
  0
LINE
  8
0
 62
     0
 10
382.87
 20
51.9218
 30
0.0
 11
382.87
 21
48.6212
 31
0.0
  0
LINE
  8
0
 62
     0
 10
382.87
 20
48.6212
 30
0.0
 11
383.85
 21
48.6212
 31
0.0
  0
LINE
  8
0
 62
     0
 10
383.85
 20
48.6212
 30
0.0
 11
383.85
 21
46.8962
 31
0.0
  0
LINE
  8
0
 62
     0
 10
383.85
 20
46.8962
 30
0.0
 11
390.119
 21
46.8962
 31
0.0
  0
LINE
  8
0
 62
     0
 10
390.119
 20
46.8962
 30
0.0
 11
390.119
 21
46.0721
 31
0.0
  0
LINE
  8
0
 62
     0
 10
390.119
 20
46.0721
 30
0.0
 11
392.92
 21
46.0721
 31
0.0
  0
LINE
  8
0
 62
     0
 10
392.92
 20
46.0721
 30
0.0
 11
392.92
 21
46.8962
 31
0.0
  0
LINE
  8
0
 62
     0
 10
392.92
 20
46.8962
 30
0.0
 11
396.152
 21
46.8962
 31
0.0
  0
LINE
  8
0
 62
     0
 10
396.152
 20
46.8962
 30
0.0
 11
396.152
 21
48.6212
 31
0.0
  0
LINE
  8
0
 62
     0
 10
396.152
 20
48.6212
 30
0.0
 11
397.069
 21
48.6212
 31
0.0
  0
LINE
  8
0
 62
     0
 10
397.069
 20
48.6212
 30
0.0
 11
397.069
 21
51.9218
 31
0.0
  0
LINE
  8
0
 62
     0
 10
397.069
 20
51.9218
 30
0.0
 11
396.152
 21
51.9218
 31
0.0
  0
LINE
  8
0
 62
     0
 10
396.152
 20
51.9218
 30
0.0
 11
396.152
 21
53.6455
 31
0.0
  0
LINE
  8
0
 62
     0
 10
396.152
 20
53.6455
 30
0.0
 11
392.92
 21
53.6455
 31
0.0
  0
LINE
  8
0
 62
     0
 10
392.92
 20
53.6455
 30
0.0
 11
392.92
 21
55.1713
 31
0.0
  0
LINE
  8
0
 62
     0
 10
392.92
 20
55.1713
 30
0.0
 11
397.619
 21
55.1713
 31
0.0
  0
LINE
  8
0
 62
     0
 10
397.619
 20
55.1713
 30
0.0
 11
397.619
 21
69.1706
 31
0.0
  0
LINE
  8
0
 62
     0
 10
397.619
 20
69.1706
 30
0.0
 11
392.92
 21
69.1706
 31
0.0
  0
LINE
  8
0
 62
     0
 10
392.92
 20
69.1706
 30
0.0
 11
392.92
 21
70.696
 31
0.0
  0
LINE
  8
0
 62
     0
 10
392.92
 20
70.696
 30
0.0
 11
396.152
 21
70.696
 31
0.0
  0
LINE
  8
0
 62
     0
 10
396.152
 20
70.696
 30
0.0
 11
396.152
 21
72.4214
 31
0.0
  0
LINE
  8
0
 62
     0
 10
396.152
 20
72.4214
 30
0.0
 11
397.069
 21
72.4214
 31
0.0
  0
LINE
  8
0
 62
     0
 10
397.069
 20
72.4214
 30
0.0
 11
397.069
 21
75.722
 31
0.0
  0
LINE
  8
0
 62
     0
 10
397.069
 20
75.722
 30
0.0
 11
396.152
 21
75.722
 31
0.0
  0
LINE
  8
0
 62
     0
 10
396.152
 20
75.722
 30
0.0
 11
396.152
 21
77.4457
 31
0.0
  0
LINE
  8
0
 62
     0
 10
396.152
 20
77.4457
 30
0.0
 11
392.92
 21
77.4457
 31
0.0
  0
LINE
  8
0
 62
     0
 10
392.92
 20
77.4457
 30
0.0
 11
392.92
 21
78.2712
 31
0.0
  0
LINE
  8
0
 62
     0
 10
392.92
 20
78.2712
 30
0.0
 11
390.119
 21
78.2712
 31
0.0
  0
LINE
  8
0
 62
     0
 10
273.437
 20
78.2712
 30
0.0
 11
273.437
 21
77.4457
 31
0.0
  0
LINE
  8
0
 62
     0
 10
273.437
 20
77.4457
 30
0.0
 11
267.167
 21
77.4457
 31
0.0
  0
LINE
  8
0
 62
     0
 10
267.167
 20
77.4457
 30
0.0
 11
267.167
 21
75.722
 31
0.0
  0
LINE
  8
0
 62
     0
 10
267.167
 20
75.722
 30
0.0
 11
266.187
 21
75.722
 31
0.0
  0
LINE
  8
0
 62
     0
 10
266.187
 20
75.722
 30
0.0
 11
266.187
 21
72.4214
 31
0.0
  0
LINE
  8
0
 62
     0
 10
266.187
 20
72.4214
 30
0.0
 11
267.167
 21
72.4214
 31
0.0
  0
LINE
  8
0
 62
     0
 10
267.167
 20
72.4214
 30
0.0
 11
267.167
 21
70.696
 31
0.0
  0
LINE
  8
0
 62
     0
 10
267.167
 20
70.696
 30
0.0
 11
271.637
 21
70.696
 31
0.0
  0
LINE
  8
0
 62
     0
 10
271.637
 20
70.696
 30
0.0
 11
271.637
 21
69.1706
 31
0.0
  0
LINE
  8
0
 62
     0
 10
271.637
 20
69.1706
 30
0.0
 11
266.937
 21
69.1706
 31
0.0
  0
LINE
  8
0
 62
     0
 10
266.937
 20
69.1706
 30
0.0
 11
266.937
 21
55.1713
 31
0.0
  0
LINE
  8
0
 62
     0
 10
266.937
 20
55.1713
 30
0.0
 11
271.637
 21
55.1713
 31
0.0
  0
LINE
  8
0
 62
     0
 10
271.637
 20
55.1713
 30
0.0
 11
271.637
 21
53.6455
 31
0.0
  0
LINE
  8
0
 62
     0
 10
271.637
 20
53.6455
 30
0.0
 11
267.167
 21
53.6455
 31
0.0
  0
LINE
  8
0
 62
     0
 10
267.167
 20
53.6455
 30
0.0
 11
267.167
 21
51.9218
 31
0.0
  0
LINE
  8
0
 62
     0
 10
267.167
 20
51.9218
 30
0.0
 11
266.187
 21
51.9218
 31
0.0
  0
LINE
  8
0
 62
     0
 10
266.187
 20
51.9218
 30
0.0
 11
266.187
 21
48.6212
 31
0.0
  0
LINE
  8
0
 62
     0
 10
266.187
 20
48.6212
 30
0.0
 11
267.167
 21
48.6212
 31
0.0
  0
LINE
  8
0
 62
     0
 10
267.167
 20
48.6212
 30
0.0
 11
267.167
 21
46.8962
 31
0.0
  0
LINE
  8
0
 62
     0
 10
267.167
 20
46.8962
 30
0.0
 11
273.437
 21
46.8962
 31
0.0
  0
LINE
  8
0
 62
     0
 10
273.437
 20
46.8962
 30
0.0
 11
273.437
 21
46.0721
 31
0.0
  0
LINE
  8
0
 62
     0
 10
273.437
 20
46.0721
 30
0.0
 11
276.237
 21
46.0721
 31
0.0
  0
LINE
  8
0
 62
     0
 10
276.237
 20
46.0721
 30
0.0
 11
276.237
 21
46.8962
 31
0.0
  0
LINE
  8
0
 62
     0
 10
276.237
 20
46.8962
 30
0.0
 11
279.467
 21
46.8962
 31
0.0
  0
LINE
  8
0
 62
     0
 10
279.467
 20
46.8962
 30
0.0
 11
279.467
 21
48.6212
 31
0.0
  0
LINE
  8
0
 62
     0
 10
279.467
 20
48.6212
 30
0.0
 11
280.388
 21
48.6212
 31
0.0
  0
LINE
  8
0
 62
     0
 10
280.388
 20
48.6212
 30
0.0
 11
280.388
 21
51.9218
 31
0.0
  0
LINE
  8
0
 62
     0
 10
280.388
 20
51.9218
 30
0.0
 11
279.467
 21
51.9218
 31
0.0
  0
LINE
  8
0
 62
     0
 10
279.467
 20
51.9218
 30
0.0
 11
279.467
 21
53.6455
 31
0.0
  0
LINE
  8
0
 62
     0
 10
279.467
 20
53.6455
 30
0.0
 11
276.237
 21
53.6455
 31
0.0
  0
LINE
  8
0
 62
     0
 10
276.237
 20
53.6455
 30
0.0
 11
276.237
 21
55.1713
 31
0.0
  0
LINE
  8
0
 62
     0
 10
276.237
 20
55.1713
 30
0.0
 11
280.938
 21
55.1713
 31
0.0
  0
LINE
  8
0
 62
     0
 10
280.938
 20
55.1713
 30
0.0
 11
280.938
 21
69.1706
 31
0.0
  0
LINE
  8
0
 62
     0
 10
280.938
 20
69.1706
 30
0.0
 11
276.237
 21
69.1706
 31
0.0
  0
LINE
  8
0
 62
     0
 10
276.237
 20
69.1706
 30
0.0
 11
276.237
 21
70.696
 31
0.0
  0
LINE
  8
0
 62
     0
 10
276.237
 20
70.696
 30
0.0
 11
279.467
 21
70.696
 31
0.0
  0
LINE
  8
0
 62
     0
 10
279.467
 20
70.696
 30
0.0
 11
279.467
 21
72.4214
 31
0.0
  0
LINE
  8
0
 62
     0
 10
279.467
 20
72.4214
 30
0.0
 11
280.388
 21
72.4214
 31
0.0
  0
LINE
  8
0
 62
     0
 10
280.388
 20
72.4214
 30
0.0
 11
280.388
 21
75.722
 31
0.0
  0
LINE
  8
0
 62
     0
 10
280.388
 20
75.722
 30
0.0
 11
279.467
 21
75.722
 31
0.0
  0
LINE
  8
0
 62
     0
 10
279.467
 20
75.722
 30
0.0
 11
279.467
 21
77.4457
 31
0.0
  0
LINE
  8
0
 62
     0
 10
279.467
 20
77.4457
 30
0.0
 11
276.237
 21
77.4457
 31
0.0
  0
LINE
  8
0
 62
     0
 10
276.237
 20
77.4457
 30
0.0
 11
276.237
 21
78.2712
 31
0.0
  0
LINE
  8
0
 62
     0
 10
276.237
 20
78.2712
 30
0.0
 11
273.437
 21
78.2712
 31
0.0
  0
LINE
  8
0
 62
     0
 10
364.571
 20
78.6956
 30
0.0
 11
378.569
 21
78.6956
 31
0.0
  0
LINE
  8
0
 62
     0
 10
378.569
 20
78.6956
 30
0.0
 11
378.569
 21
64.6963
 31
0.0
  0
LINE
  8
0
 62
     0
 10
378.569
 20
64.6963
 30
0.0
 11
364.571
 21
64.6963
 31
0.0
  0
LINE
  8
0
 62
     0
 10
364.571
 20
64.6963
 30
0.0
 11
364.571
 21
78.6956
 31
0.0
  0
LINE
  8
0
 62
     0
 10
345.52
 20
78.6956
 30
0.0
 11
359.519
 21
78.6956
 31
0.0
  0
LINE
  8
0
 62
     0
 10
359.519
 20
78.6956
 30
0.0
 11
359.519
 21
64.6963
 31
0.0
  0
LINE
  8
0
 62
     0
 10
359.519
 20
64.6963
 30
0.0
 11
345.52
 21
64.6963
 31
0.0
  0
LINE
  8
0
 62
     0
 10
345.52
 20
64.6963
 30
0.0
 11
345.52
 21
78.6956
 31
0.0
  0
LINE
  8
0
 62
     0
 10
326.47
 20
78.6956
 30
0.0
 11
340.469
 21
78.6956
 31
0.0
  0
LINE
  8
0
 62
     0
 10
340.469
 20
78.6956
 30
0.0
 11
340.469
 21
64.6963
 31
0.0
  0
LINE
  8
0
 62
     0
 10
340.469
 20
64.6963
 30
0.0
 11
326.47
 21
64.6963
 31
0.0
  0
LINE
  8
0
 62
     0
 10
326.47
 20
64.6963
 30
0.0
 11
326.47
 21
78.6956
 31
0.0
  0
LINE
  8
0
 62
     0
 10
297.895
 20
78.6956
 30
0.0
 11
311.894
 21
78.6956
 31
0.0
  0
LINE
  8
0
 62
     0
 10
311.894
 20
78.6956
 30
0.0
 11
311.894
 21
64.6963
 31
0.0
  0
LINE
  8
0
 62
     0
 10
311.894
 20
64.6963
 30
0.0
 11
297.895
 21
64.6963
 31
0.0
  0
LINE
  8
0
 62
     0
 10
297.895
 20
64.6963
 30
0.0
 11
297.895
 21
78.6956
 31
0.0
  0
LINE
  8
0
 62
     0
 10
240.745
 20
78.6956
 30
0.0
 11
254.744
 21
78.6956
 31
0.0
  0
LINE
  8
0
 62
     0
 10
254.744
 20
78.6956
 30
0.0
 11
254.744
 21
64.6963
 31
0.0
  0
LINE
  8
0
 62
     0
 10
254.744
 20
64.6963
 30
0.0
 11
240.745
 21
64.6963
 31
0.0
  0
LINE
  8
0
 62
     0
 10
240.745
 20
64.6963
 30
0.0
 11
240.745
 21
78.6956
 31
0.0
  0
LINE
  8
0
 62
     0
 10
221.695
 20
78.6956
 30
0.0
 11
235.694
 21
78.6956
 31
0.0
  0
LINE
  8
0
 62
     0
 10
235.694
 20
78.6956
 30
0.0
 11
235.694
 21
64.6963
 31
0.0
  0
LINE
  8
0
 62
     0
 10
235.694
 20
64.6963
 30
0.0
 11
221.695
 21
64.6963
 31
0.0
  0
LINE
  8
0
 62
     0
 10
221.695
 20
64.6963
 30
0.0
 11
221.695
 21
78.6956
 31
0.0
  0
LINE
  8
0
 62
     0
 10
202.645
 20
78.6956
 30
0.0
 11
216.644
 21
78.6956
 31
0.0
  0
LINE
  8
0
 62
     0
 10
216.644
 20
78.6956
 30
0.0
 11
216.644
 21
64.6963
 31
0.0
  0
LINE
  8
0
 62
     0
 10
216.644
 20
64.6963
 30
0.0
 11
202.645
 21
64.6963
 31
0.0
  0
LINE
  8
0
 62
     0
 10
202.645
 20
64.6963
 30
0.0
 11
202.645
 21
78.6956
 31
0.0
  0
LINE
  8
0
 62
     0
 10
183.595
 20
78.6956
 30
0.0
 11
197.594
 21
78.6956
 31
0.0
  0
LINE
  8
0
 62
     0
 10
197.594
 20
78.6956
 30
0.0
 11
197.594
 21
64.6963
 31
0.0
  0
LINE
  8
0
 62
     0
 10
197.594
 20
64.6963
 30
0.0
 11
183.595
 21
64.6963
 31
0.0
  0
LINE
  8
0
 62
     0
 10
183.595
 20
64.6963
 30
0.0
 11
183.595
 21
78.6956
 31
0.0
  0
LINE
  8
0
 62
     0
 10
164.545
 20
78.6956
 30
0.0
 11
178.544
 21
78.6956
 31
0.0
  0
LINE
  8
0
 62
     0
 10
178.544
 20
78.6956
 30
0.0
 11
178.544
 21
64.6963
 31
0.0
  0
LINE
  8
0
 62
     0
 10
178.544
 20
64.6963
 30
0.0
 11
164.545
 21
64.6963
 31
0.0
  0
LINE
  8
0
 62
     0
 10
164.545
 20
64.6963
 30
0.0
 11
164.545
 21
78.6956
 31
0.0
  0
LINE
  8
0
 62
     0
 10
145.495
 20
78.6956
 30
0.0
 11
159.494
 21
78.6956
 31
0.0
  0
LINE
  8
0
 62
     0
 10
159.494
 20
78.6956
 30
0.0
 11
159.494
 21
64.6963
 31
0.0
  0
LINE
  8
0
 62
     0
 10
159.494
 20
64.6963
 30
0.0
 11
145.495
 21
64.6963
 31
0.0
  0
LINE
  8
0
 62
     0
 10
145.495
 20
64.6963
 30
0.0
 11
145.495
 21
78.6956
 31
0.0
  0
LINE
  8
0
 62
     0
 10
126.445
 20
78.6956
 30
0.0
 11
140.444
 21
78.6956
 31
0.0
  0
LINE
  8
0
 62
     0
 10
140.444
 20
78.6956
 30
0.0
 11
140.444
 21
64.6963
 31
0.0
  0
LINE
  8
0
 62
     0
 10
140.444
 20
64.6963
 30
0.0
 11
126.445
 21
64.6963
 31
0.0
  0
LINE
  8
0
 62
     0
 10
126.445
 20
64.6963
 30
0.0
 11
126.445
 21
78.6956
 31
0.0
  0
LINE
  8
0
 62
     0
 10
107.395
 20
78.6956
 30
0.0
 11
121.394
 21
78.6956
 31
0.0
  0
LINE
  8
0
 62
     0
 10
121.394
 20
78.6956
 30
0.0
 11
121.394
 21
64.6963
 31
0.0
  0
LINE
  8
0
 62
     0
 10
121.394
 20
64.6963
 30
0.0
 11
107.395
 21
64.6963
 31
0.0
  0
LINE
  8
0
 62
     0
 10
107.395
 20
64.6963
 30
0.0
 11
107.395
 21
78.6956
 31
0.0
  0
LINE
  8
0
 62
     0
 10
88.3447
 20
78.6956
 30
0.0
 11
102.344
 21
78.6956
 31
0.0
  0
LINE
  8
0
 62
     0
 10
102.344
 20
78.6956
 30
0.0
 11
102.344
 21
64.6963
 31
0.0
  0
LINE
  8
0
 62
     0
 10
102.344
 20
64.6963
 30
0.0
 11
88.3447
 21
64.6963
 31
0.0
  0
LINE
  8
0
 62
     0
 10
88.3447
 20
64.6963
 30
0.0
 11
88.3447
 21
78.6956
 31
0.0
  0
LINE
  8
0
 62
     0
 10
69.2947
 20
78.6956
 30
0.0
 11
83.294
 21
78.6956
 31
0.0
  0
LINE
  8
0
 62
     0
 10
83.294
 20
78.6956
 30
0.0
 11
83.294
 21
64.6963
 31
0.0
  0
LINE
  8
0
 62
     0
 10
83.294
 20
64.6963
 30
0.0
 11
69.2947
 21
64.6963
 31
0.0
  0
LINE
  8
0
 62
     0
 10
69.2947
 20
64.6963
 30
0.0
 11
69.2947
 21
78.6956
 31
0.0
  0
LINE
  8
0
 62
     0
 10
50.2447
 20
78.6956
 30
0.0
 11
64.244
 21
78.6956
 31
0.0
  0
LINE
  8
0
 62
     0
 10
64.244
 20
78.6956
 30
0.0
 11
64.244
 21
64.6963
 31
0.0
  0
LINE
  8
0
 62
     0
 10
64.244
 20
64.6963
 30
0.0
 11
50.2447
 21
64.6963
 31
0.0
  0
LINE
  8
0
 62
     0
 10
50.2447
 20
64.6963
 30
0.0
 11
50.2447
 21
78.6956
 31
0.0
  0
LINE
  8
0
 62
     0
 10
31.1947
 20
78.6956
 30
0.0
 11
45.194
 21
78.6956
 31
0.0
  0
LINE
  8
0
 62
     0
 10
45.194
 20
78.6956
 30
0.0
 11
45.194
 21
64.6963
 31
0.0
  0
LINE
  8
0
 62
     0
 10
45.194
 20
64.6963
 30
0.0
 11
31.1947
 21
64.6963
 31
0.0
  0
LINE
  8
0
 62
     0
 10
31.1947
 20
64.6963
 30
0.0
 11
31.1947
 21
78.6956
 31
0.0
  0
LINE
  8
0
 62
     0
 10
7.38216
 20
78.6956
 30
0.0
 11
21.3817
 21
78.6956
 31
0.0
  0
LINE
  8
0
 62
     0
 10
21.3817
 20
78.6956
 30
0.0
 11
21.3817
 21
64.6963
 31
0.0
  0
LINE
  8
0
 62
     0
 10
21.3817
 20
64.6963
 30
0.0
 11
7.38216
 21
64.6963
 31
0.0
  0
LINE
  8
0
 62
     0
 10
7.38216
 20
64.6963
 30
0.0
 11
7.38216
 21
78.6956
 31
0.0
  0
LINE
  8
0
 62
     0
 10
259.795
 20
97.7456
 30
0.0
 11
259.795
 21
93.0465
 31
0.0
  0
LINE
  8
0
 62
     0
 10
259.795
 20
93.0465
 30
0.0
 11
258.269
 21
93.0465
 31
0.0
  0
LINE
  8
0
 62
     0
 10
258.269
 20
93.0465
 30
0.0
 11
258.269
 21
96.2766
 31
0.0
  0
LINE
  8
0
 62
     0
 10
258.269
 20
96.2766
 30
0.0
 11
256.544
 21
96.2766
 31
0.0
  0
LINE
  8
0
 62
     0
 10
256.544
 20
96.2766
 30
0.0
 11
256.544
 21
97.1959
 31
0.0
  0
LINE
  8
0
 62
     0
 10
256.544
 20
97.1959
 30
0.0
 11
253.243
 21
97.1959
 31
0.0
  0
LINE
  8
0
 62
     0
 10
253.243
 20
97.1959
 30
0.0
 11
253.243
 21
96.2766
 31
0.0
  0
LINE
  8
0
 62
     0
 10
253.243
 20
96.2766
 30
0.0
 11
251.52
 21
96.2766
 31
0.0
  0
LINE
  8
0
 62
     0
 10
251.52
 20
96.2766
 30
0.0
 11
251.52
 21
93.0465
 31
0.0
  0
LINE
  8
0
 62
     0
 10
251.52
 20
93.0465
 30
0.0
 11
250.694
 21
93.0465
 31
0.0
  0
LINE
  8
0
 62
     0
 10
250.694
 20
93.0465
 30
0.0
 11
250.694
 21
90.2462
 31
0.0
  0
LINE
  8
0
 62
     0
 10
250.694
 20
90.2462
 30
0.0
 11
251.52
 21
90.2462
 31
0.0
  0
LINE
  8
0
 62
     0
 10
251.52
 20
90.2462
 30
0.0
 11
251.52
 21
83.9763
 31
0.0
  0
LINE
  8
0
 62
     0
 10
251.52
 20
83.9763
 30
0.0
 11
253.243
 21
83.9763
 31
0.0
  0
LINE
  8
0
 62
     0
 10
253.243
 20
83.9763
 30
0.0
 11
253.243
 21
82.9966
 31
0.0
  0
LINE
  8
0
 62
     0
 10
253.243
 20
82.9966
 30
0.0
 11
256.544
 21
82.9966
 31
0.0
  0
LINE
  8
0
 62
     0
 10
256.544
 20
82.9966
 30
0.0
 11
256.544
 21
83.9763
 31
0.0
  0
LINE
  8
0
 62
     0
 10
256.544
 20
83.9763
 30
0.0
 11
258.269
 21
83.9763
 31
0.0
  0
LINE
  8
0
 62
     0
 10
258.269
 20
83.9763
 30
0.0
 11
258.269
 21
88.4467
 31
0.0
  0
LINE
  8
0
 62
     0
 10
258.269
 20
88.4467
 30
0.0
 11
259.795
 21
88.4467
 31
0.0
  0
LINE
  8
0
 62
     0
 10
259.795
 20
88.4467
 30
0.0
 11
259.795
 21
83.7463
 31
0.0
  0
LINE
  8
0
 62
     0
 10
259.795
 20
83.7463
 30
0.0
 11
273.794
 21
83.7463
 31
0.0
  0
LINE
  8
0
 62
     0
 10
273.794
 20
83.7463
 30
0.0
 11
273.794
 21
88.4467
 31
0.0
  0
LINE
  8
0
 62
     0
 10
273.794
 20
88.4467
 30
0.0
 11
275.32
 21
88.4467
 31
0.0
  0
LINE
  8
0
 62
     0
 10
275.32
 20
88.4467
 30
0.0
 11
275.32
 21
83.9763
 31
0.0
  0
LINE
  8
0
 62
     0
 10
275.32
 20
83.9763
 30
0.0
 11
277.045
 21
83.9763
 31
0.0
  0
LINE
  8
0
 62
     0
 10
277.045
 20
83.9763
 30
0.0
 11
277.045
 21
82.9966
 31
0.0
  0
LINE
  8
0
 62
     0
 10
277.045
 20
82.9966
 30
0.0
 11
280.344
 21
82.9966
 31
0.0
  0
LINE
  8
0
 62
     0
 10
280.344
 20
82.9966
 30
0.0
 11
280.344
 21
83.9763
 31
0.0
  0
LINE
  8
0
 62
     0
 10
280.344
 20
83.9763
 30
0.0
 11
282.069
 21
83.9763
 31
0.0
  0
LINE
  8
0
 62
     0
 10
282.069
 20
83.9763
 30
0.0
 11
282.069
 21
90.2462
 31
0.0
  0
LINE
  8
0
 62
     0
 10
282.069
 20
90.2462
 30
0.0
 11
282.895
 21
90.2462
 31
0.0
  0
LINE
  8
0
 62
     0
 10
282.895
 20
90.2462
 30
0.0
 11
282.895
 21
93.0465
 31
0.0
  0
LINE
  8
0
 62
     0
 10
282.895
 20
93.0465
 30
0.0
 11
282.069
 21
93.0465
 31
0.0
  0
LINE
  8
0
 62
     0
 10
282.069
 20
93.0465
 30
0.0
 11
282.069
 21
96.2766
 31
0.0
  0
LINE
  8
0
 62
     0
 10
282.069
 20
96.2766
 30
0.0
 11
280.344
 21
96.2766
 31
0.0
  0
LINE
  8
0
 62
     0
 10
280.344
 20
96.2766
 30
0.0
 11
280.344
 21
97.1959
 31
0.0
  0
LINE
  8
0
 62
     0
 10
280.344
 20
97.1959
 30
0.0
 11
277.045
 21
97.1959
 31
0.0
  0
LINE
  8
0
 62
     0
 10
277.045
 20
97.1959
 30
0.0
 11
277.045
 21
96.2766
 31
0.0
  0
LINE
  8
0
 62
     0
 10
277.045
 20
96.2766
 30
0.0
 11
275.32
 21
96.2766
 31
0.0
  0
LINE
  8
0
 62
     0
 10
275.32
 20
96.2766
 30
0.0
 11
275.32
 21
93.0465
 31
0.0
  0
LINE
  8
0
 62
     0
 10
275.32
 20
93.0465
 30
0.0
 11
273.794
 21
93.0465
 31
0.0
  0
LINE
  8
0
 62
     0
 10
273.794
 20
93.0465
 30
0.0
 11
273.794
 21
97.7456
 31
0.0
  0
LINE
  8
0
 62
     0
 10
273.794
 20
97.7456
 30
0.0
 11
259.795
 21
97.7456
 31
0.0
  0
LINE
  8
0
 62
     0
 10
383.621
 20
97.7456
 30
0.0
 11
397.619
 21
97.7456
 31
0.0
  0
LINE
  8
0
 62
     0
 10
397.619
 20
97.7456
 30
0.0
 11
397.619
 21
83.7463
 31
0.0
  0
LINE
  8
0
 62
     0
 10
397.619
 20
83.7463
 30
0.0
 11
383.621
 21
83.7463
 31
0.0
  0
LINE
  8
0
 62
     0
 10
383.621
 20
83.7463
 30
0.0
 11
383.621
 21
97.7456
 31
0.0
  0
LINE
  8
0
 62
     0
 10
364.571
 20
97.7456
 30
0.0
 11
378.569
 21
97.7456
 31
0.0
  0
LINE
  8
0
 62
     0
 10
378.569
 20
97.7456
 30
0.0
 11
378.569
 21
83.7463
 31
0.0
  0
LINE
  8
0
 62
     0
 10
378.569
 20
83.7463
 30
0.0
 11
364.571
 21
83.7463
 31
0.0
  0
LINE
  8
0
 62
     0
 10
364.571
 20
83.7463
 30
0.0
 11
364.571
 21
97.7456
 31
0.0
  0
LINE
  8
0
 62
     0
 10
345.52
 20
97.7456
 30
0.0
 11
359.519
 21
97.7456
 31
0.0
  0
LINE
  8
0
 62
     0
 10
359.519
 20
97.7456
 30
0.0
 11
359.519
 21
83.7463
 31
0.0
  0
LINE
  8
0
 62
     0
 10
359.519
 20
83.7463
 30
0.0
 11
345.52
 21
83.7463
 31
0.0
  0
LINE
  8
0
 62
     0
 10
345.52
 20
83.7463
 30
0.0
 11
345.52
 21
97.7456
 31
0.0
  0
LINE
  8
0
 62
     0
 10
326.47
 20
97.7456
 30
0.0
 11
340.469
 21
97.7456
 31
0.0
  0
LINE
  8
0
 62
     0
 10
340.469
 20
97.7456
 30
0.0
 11
340.469
 21
83.7463
 31
0.0
  0
LINE
  8
0
 62
     0
 10
340.469
 20
83.7463
 30
0.0
 11
326.47
 21
83.7463
 31
0.0
  0
LINE
  8
0
 62
     0
 10
326.47
 20
83.7463
 30
0.0
 11
326.47
 21
97.7456
 31
0.0
  0
LINE
  8
0
 62
     0
 10
297.895
 20
97.7456
 30
0.0
 11
311.894
 21
97.7456
 31
0.0
  0
LINE
  8
0
 62
     0
 10
311.894
 20
97.7456
 30
0.0
 11
311.894
 21
83.7463
 31
0.0
  0
LINE
  8
0
 62
     0
 10
311.894
 20
83.7463
 30
0.0
 11
297.895
 21
83.7463
 31
0.0
  0
LINE
  8
0
 62
     0
 10
297.895
 20
83.7463
 30
0.0
 11
297.895
 21
97.7456
 31
0.0
  0
LINE
  8
0
 62
     0
 10
231.22
 20
97.7456
 30
0.0
 11
245.219
 21
97.7456
 31
0.0
  0
LINE
  8
0
 62
     0
 10
245.219
 20
97.7456
 30
0.0
 11
245.219
 21
83.7463
 31
0.0
  0
LINE
  8
0
 62
     0
 10
245.219
 20
83.7463
 30
0.0
 11
231.22
 21
83.7463
 31
0.0
  0
LINE
  8
0
 62
     0
 10
231.22
 20
83.7463
 30
0.0
 11
231.22
 21
97.7456
 31
0.0
  0
LINE
  8
0
 62
     0
 10
212.17
 20
97.7456
 30
0.0
 11
226.169
 21
97.7456
 31
0.0
  0
LINE
  8
0
 62
     0
 10
226.169
 20
97.7456
 30
0.0
 11
226.169
 21
83.7463
 31
0.0
  0
LINE
  8
0
 62
     0
 10
226.169
 20
83.7463
 30
0.0
 11
212.17
 21
83.7463
 31
0.0
  0
LINE
  8
0
 62
     0
 10
212.17
 20
83.7463
 30
0.0
 11
212.17
 21
97.7456
 31
0.0
  0
LINE
  8
0
 62
     0
 10
193.12
 20
97.7456
 30
0.0
 11
207.119
 21
97.7456
 31
0.0
  0
LINE
  8
0
 62
     0
 10
207.119
 20
97.7456
 30
0.0
 11
207.119
 21
83.7463
 31
0.0
  0
LINE
  8
0
 62
     0
 10
207.119
 20
83.7463
 30
0.0
 11
193.12
 21
83.7463
 31
0.0
  0
LINE
  8
0
 62
     0
 10
193.12
 20
83.7463
 30
0.0
 11
193.12
 21
97.7456
 31
0.0
  0
LINE
  8
0
 62
     0
 10
174.07
 20
97.7456
 30
0.0
 11
188.069
 21
97.7456
 31
0.0
  0
LINE
  8
0
 62
     0
 10
188.069
 20
97.7456
 30
0.0
 11
188.069
 21
83.7463
 31
0.0
  0
LINE
  8
0
 62
     0
 10
188.069
 20
83.7463
 30
0.0
 11
174.07
 21
83.7463
 31
0.0
  0
LINE
  8
0
 62
     0
 10
174.07
 20
83.7463
 30
0.0
 11
174.07
 21
97.7456
 31
0.0
  0
LINE
  8
0
 62
     0
 10
155.02
 20
97.7456
 30
0.0
 11
169.019
 21
97.7456
 31
0.0
  0
LINE
  8
0
 62
     0
 10
169.019
 20
97.7456
 30
0.0
 11
169.019
 21
83.7463
 31
0.0
  0
LINE
  8
0
 62
     0
 10
169.019
 20
83.7463
 30
0.0
 11
155.02
 21
83.7463
 31
0.0
  0
LINE
  8
0
 62
     0
 10
155.02
 20
83.7463
 30
0.0
 11
155.02
 21
97.7456
 31
0.0
  0
LINE
  8
0
 62
     0
 10
135.97
 20
97.7456
 30
0.0
 11
149.969
 21
97.7456
 31
0.0
  0
LINE
  8
0
 62
     0
 10
149.969
 20
97.7456
 30
0.0
 11
149.969
 21
83.7463
 31
0.0
  0
LINE
  8
0
 62
     0
 10
149.969
 20
83.7463
 30
0.0
 11
135.97
 21
83.7463
 31
0.0
  0
LINE
  8
0
 62
     0
 10
135.97
 20
83.7463
 30
0.0
 11
135.97
 21
97.7456
 31
0.0
  0
LINE
  8
0
 62
     0
 10
116.918
 20
97.7456
 30
0.0
 11
130.919
 21
97.7456
 31
0.0
  0
LINE
  8
0
 62
     0
 10
130.919
 20
97.7456
 30
0.0
 11
130.919
 21
83.7463
 31
0.0
  0
LINE
  8
0
 62
     0
 10
130.919
 20
83.7463
 30
0.0
 11
116.918
 21
83.7463
 31
0.0
  0
LINE
  8
0
 62
     0
 10
116.918
 20
83.7463
 30
0.0
 11
116.918
 21
97.7456
 31
0.0
  0
LINE
  8
0
 62
     0
 10
97.8683
 20
97.7456
 30
0.0
 11
111.869
 21
97.7456
 31
0.0
  0
LINE
  8
0
 62
     0
 10
111.869
 20
97.7456
 30
0.0
 11
111.869
 21
83.7463
 31
0.0
  0
LINE
  8
0
 62
     0
 10
111.869
 20
83.7463
 30
0.0
 11
97.8683
 21
83.7463
 31
0.0
  0
LINE
  8
0
 62
     0
 10
97.8683
 20
83.7463
 30
0.0
 11
97.8683
 21
97.7456
 31
0.0
  0
LINE
  8
0
 62
     0
 10
78.8197
 20
97.7456
 30
0.0
 11
92.819
 21
97.7456
 31
0.0
  0
LINE
  8
0
 62
     0
 10
92.819
 20
97.7456
 30
0.0
 11
92.819
 21
83.7463
 31
0.0
  0
LINE
  8
0
 62
     0
 10
92.819
 20
83.7463
 30
0.0
 11
78.8197
 21
83.7463
 31
0.0
  0
LINE
  8
0
 62
     0
 10
78.8197
 20
83.7463
 30
0.0
 11
78.8197
 21
97.7456
 31
0.0
  0
LINE
  8
0
 62
     0
 10
59.7697
 20
97.7456
 30
0.0
 11
73.769
 21
97.7456
 31
0.0
  0
LINE
  8
0
 62
     0
 10
73.769
 20
97.7456
 30
0.0
 11
73.769
 21
83.7463
 31
0.0
  0
LINE
  8
0
 62
     0
 10
73.769
 20
83.7463
 30
0.0
 11
59.7697
 21
83.7463
 31
0.0
  0
LINE
  8
0
 62
     0
 10
59.7697
 20
83.7463
 30
0.0
 11
59.7697
 21
97.7456
 31
0.0
  0
LINE
  8
0
 62
     0
 10
40.7197
 20
97.7456
 30
0.0
 11
54.719
 21
97.7456
 31
0.0
  0
LINE
  8
0
 62
     0
 10
54.719
 20
97.7456
 30
0.0
 11
54.719
 21
83.7463
 31
0.0
  0
LINE
  8
0
 62
     0
 10
54.719
 20
83.7463
 30
0.0
 11
40.7197
 21
83.7463
 31
0.0
  0
LINE
  8
0
 62
     0
 10
40.7197
 20
83.7463
 30
0.0
 11
40.7197
 21
97.7456
 31
0.0
  0
LINE
  8
0
 62
     0
 10
21.6697
 20
97.7456
 30
0.0
 11
35.669
 21
97.7456
 31
0.0
  0
LINE
  8
0
 62
     0
 10
35.669
 20
97.7456
 30
0.0
 11
35.669
 21
83.7463
 31
0.0
  0
LINE
  8
0
 62
     0
 10
35.669
 20
83.7463
 30
0.0
 11
21.6697
 21
83.7463
 31
0.0
  0
LINE
  8
0
 62
     0
 10
21.6697
 20
83.7463
 30
0.0
 11
21.6697
 21
97.7456
 31
0.0
  0
LINE
  8
0
 62
     0
 10
2.61965
 20
97.7456
 30
0.0
 11
16.6192
 21
97.7456
 31
0.0
  0
LINE
  8
0
 62
     0
 10
16.6192
 20
97.7456
 30
0.0
 11
16.6192
 21
83.7463
 31
0.0
  0
LINE
  8
0
 62
     0
 10
16.6192
 20
83.7463
 30
0.0
 11
2.61965
 21
83.7463
 31
0.0
  0
LINE
  8
0
 62
     0
 10
2.61965
 20
83.7463
 30
0.0
 11
2.61965
 21
97.7456
 31
0.0
  0
LINE
  8
0
 62
     0
 10
297.895
 20
121.558
 30
0.0
 11
311.894
 21
121.558
 31
0.0
  0
LINE
  8
0
 62
     0
 10
311.894
 20
121.558
 30
0.0
 11
311.894
 21
107.559
 31
0.0
  0
LINE
  8
0
 62
     0
 10
311.894
 20
107.559
 30
0.0
 11
297.895
 21
107.559
 31
0.0
  0
LINE
  8
0
 62
     0
 10
297.895
 20
107.559
 30
0.0
 11
297.895
 21
121.558
 31
0.0
  0
LINE
  8
0
 62
     0
 10
269.32
 20
121.558
 30
0.0
 11
283.319
 21
121.558
 31
0.0
  0
LINE
  8
0
 62
     0
 10
283.319
 20
121.558
 30
0.0
 11
283.319
 21
107.559
 31
0.0
  0
LINE
  8
0
 62
     0
 10
283.319
 20
107.559
 30
0.0
 11
269.32
 21
107.559
 31
0.0
  0
LINE
  8
0
 62
     0
 10
269.32
 20
107.559
 30
0.0
 11
269.32
 21
121.558
 31
0.0
  0
LINE
  8
0
 62
     0
 10
250.27
 20
121.558
 30
0.0
 11
264.269
 21
121.558
 31
0.0
  0
LINE
  8
0
 62
     0
 10
264.269
 20
121.558
 30
0.0
 11
264.269
 21
107.559
 31
0.0
  0
LINE
  8
0
 62
     0
 10
264.269
 20
107.559
 30
0.0
 11
250.27
 21
107.559
 31
0.0
  0
LINE
  8
0
 62
     0
 10
250.27
 20
107.559
 30
0.0
 11
250.27
 21
121.558
 31
0.0
  0
LINE
  8
0
 62
     0
 10
231.22
 20
121.558
 30
0.0
 11
245.219
 21
121.558
 31
0.0
  0
LINE
  8
0
 62
     0
 10
245.219
 20
121.558
 30
0.0
 11
245.219
 21
107.559
 31
0.0
  0
LINE
  8
0
 62
     0
 10
245.219
 20
107.559
 30
0.0
 11
231.22
 21
107.559
 31
0.0
  0
LINE
  8
0
 62
     0
 10
231.22
 20
107.559
 30
0.0
 11
231.22
 21
121.558
 31
0.0
  0
LINE
  8
0
 62
     0
 10
212.17
 20
121.558
 30
0.0
 11
226.169
 21
121.558
 31
0.0
  0
LINE
  8
0
 62
     0
 10
226.169
 20
121.558
 30
0.0
 11
226.169
 21
107.559
 31
0.0
  0
LINE
  8
0
 62
     0
 10
226.169
 20
107.559
 30
0.0
 11
212.17
 21
107.559
 31
0.0
  0
LINE
  8
0
 62
     0
 10
212.17
 20
107.559
 30
0.0
 11
212.17
 21
121.558
 31
0.0
  0
LINE
  8
0
 62
     0
 10
183.595
 20
121.558
 30
0.0
 11
197.594
 21
121.558
 31
0.0
  0
LINE
  8
0
 62
     0
 10
197.594
 20
121.558
 30
0.0
 11
197.594
 21
107.559
 31
0.0
  0
LINE
  8
0
 62
     0
 10
197.594
 20
107.559
 30
0.0
 11
183.595
 21
107.559
 31
0.0
  0
LINE
  8
0
 62
     0
 10
183.595
 20
107.559
 30
0.0
 11
183.595
 21
121.558
 31
0.0
  0
LINE
  8
0
 62
     0
 10
164.545
 20
121.558
 30
0.0
 11
178.544
 21
121.558
 31
0.0
  0
LINE
  8
0
 62
     0
 10
178.544
 20
121.558
 30
0.0
 11
178.544
 21
107.559
 31
0.0
  0
LINE
  8
0
 62
     0
 10
178.544
 20
107.559
 30
0.0
 11
164.545
 21
107.559
 31
0.0
  0
LINE
  8
0
 62
     0
 10
164.545
 20
107.559
 30
0.0
 11
164.545
 21
121.558
 31
0.0
  0
LINE
  8
0
 62
     0
 10
145.495
 20
121.558
 30
0.0
 11
159.494
 21
121.558
 31
0.0
  0
LINE
  8
0
 62
     0
 10
159.494
 20
121.558
 30
0.0
 11
159.494
 21
107.559
 31
0.0
  0
LINE
  8
0
 62
     0
 10
159.494
 20
107.559
 30
0.0
 11
145.495
 21
107.559
 31
0.0
  0
LINE
  8
0
 62
     0
 10
145.495
 20
107.559
 30
0.0
 11
145.495
 21
121.558
 31
0.0
  0
LINE
  8
0
 62
     0
 10
126.445
 20
121.558
 30
0.0
 11
140.444
 21
121.558
 31
0.0
  0
LINE
  8
0
 62
     0
 10
140.444
 20
121.558
 30
0.0
 11
140.444
 21
107.559
 31
0.0
  0
LINE
  8
0
 62
     0
 10
140.444
 20
107.559
 30
0.0
 11
126.445
 21
107.559
 31
0.0
  0
LINE
  8
0
 62
     0
 10
126.445
 20
107.559
 30
0.0
 11
126.445
 21
121.558
 31
0.0
  0
LINE
  8
0
 62
     0
 10
97.8683
 20
121.558
 30
0.0
 11
111.869
 21
121.558
 31
0.0
  0
LINE
  8
0
 62
     0
 10
111.869
 20
121.558
 30
0.0
 11
111.869
 21
107.559
 31
0.0
  0
LINE
  8
0
 62
     0
 10
111.869
 20
107.559
 30
0.0
 11
97.8683
 21
107.559
 31
0.0
  0
LINE
  8
0
 62
     0
 10
97.8683
 20
107.559
 30
0.0
 11
97.8683
 21
121.558
 31
0.0
  0
LINE
  8
0
 62
     0
 10
78.8197
 20
121.558
 30
0.0
 11
92.819
 21
121.558
 31
0.0
  0
LINE
  8
0
 62
     0
 10
92.819
 20
121.558
 30
0.0
 11
92.819
 21
107.559
 31
0.0
  0
LINE
  8
0
 62
     0
 10
92.819
 20
107.559
 30
0.0
 11
78.8197
 21
107.559
 31
0.0
  0
LINE
  8
0
 62
     0
 10
78.8197
 20
107.559
 30
0.0
 11
78.8197
 21
121.558
 31
0.0
  0
LINE
  8
0
 62
     0
 10
59.7697
 20
121.558
 30
0.0
 11
73.769
 21
121.558
 31
0.0
  0
LINE
  8
0
 62
     0
 10
73.769
 20
121.558
 30
0.0
 11
73.769
 21
107.559
 31
0.0
  0
LINE
  8
0
 62
     0
 10
73.769
 20
107.559
 30
0.0
 11
59.7697
 21
107.559
 31
0.0
  0
LINE
  8
0
 62
     0
 10
59.7697
 20
107.559
 30
0.0
 11
59.7697
 21
121.558
 31
0.0
  0
LINE
  8
0
 62
     0
 10
40.7197
 20
121.558
 30
0.0
 11
54.719
 21
121.558
 31
0.0
  0
LINE
  8
0
 62
     0
 10
54.719
 20
121.558
 30
0.0
 11
54.719
 21
107.559
 31
0.0
  0
LINE
  8
0
 62
     0
 10
54.719
 20
107.559
 30
0.0
 11
40.7197
 21
107.559
 31
0.0
  0
LINE
  8
0
 62
     0
 10
40.7197
 20
107.559
 30
0.0
 11
40.7197
 21
121.558
 31
0.0
  0
LINE
  8
0
 62
     0
 10
2.61965
 20
121.558
 30
0.0
 11
16.6192
 21
121.558
 31
0.0
  0
LINE
  8
0
 62
     0
 10
16.6192
 20
121.558
 30
0.0
 11
16.6192
 21
107.559
 31
0.0
  0
LINE
  8
0
 62
     0
 10
16.6192
 20
107.559
 30
0.0
 11
2.61965
 21
107.559
 31
0.0
  0
LINE
  8
0
 62
     0
 10
2.61965
 20
107.559
 30
0.0
 11
2.61965
 21
121.558
 31
0.0
  0
ENDSEC
  0
EOF
