<svg width="400.05mm" height="123.825mm" viewBox="0 0 400.05 123.825" xmlns="http://www.w3.org/2000/svg"><g id="svgGroup" stroke-linecap="round" fill-rule="evenodd" font-size="9pt" stroke="#000" stroke-width="0.25mm" fill="none" style="stroke:#000;stroke-width:0.25mm;fill:none"><path d="M 0 123.825 L 400.05 123.825 L 400.05 0 L 0 0 L 0 123.825 Z M 78.135 103.848 L 83.79 103.848 A 0.5 0.5 0 0 1 84.29 104.348 L 84.29 106.738 A 0.5 0.5 0 0 0 84.79 107.238 L 128.588 107.238 L 172.385 107.238 A 0.5 0.5 0 0 0 172.885 106.738 L 172.885 104.348 A 0.5 0.5 0 0 1 173.385 103.848 L 179.04 103.848 A 0.5 0.5 0 0 1 179.54 104.348 L 179.54 107.252 L 179.904 107.252 A 0.5 0.5 0 0 1 180.404 107.752 L 180.404 110.045 L 180.04 110.045 A 0.5 0.5 0 0 0 179.54 110.545 L 179.54 115.642 A 0.5 0.5 0 0 1 179.04 116.142 L 178.237 116.142 A 0.5 0.5 0 0 0 177.737 116.642 L 177.737 116.81 A 0.5 0.5 0 0 1 177.237 117.31 L 175.189 117.31 A 0.5 0.5 0 0 1 174.689 116.81 L 174.689 116.642 A 0.5 0.5 0 0 0 174.189 116.142 L 173.385 116.142 A 0.5 0.5 0 0 1 172.885 115.642 L 172.885 112.337 A 0.5 0.5 0 0 0 172.385 111.837 L 128.588 111.837 L 84.79 111.837 A 0.5 0.5 0 0 0 84.29 112.337 L 84.29 115.642 A 0.5 0.5 0 0 1 83.79 116.142 L 82.987 116.142 A 0.5 0.5 0 0 0 82.487 116.642 L 82.487 116.81 A 0.5 0.5 0 0 1 81.987 117.31 L 79.939 117.31 A 0.5 0.5 0 0 1 79.439 116.81 L 79.439 116.642 A 0.5 0.5 0 0 0 78.939 116.142 L 78.135 116.142 A 0.5 0.5 0 0 1 77.635 115.642 L 77.635 110.545 A 0.5 0.5 0 0 0 77.135 110.045 L 76.772 110.045 L 76.772 107.752 A 0.5 0.5 0 0 1 77.272 107.252 L 77.635 107.252 L 77.635 104.348 A 0.5 0.5 0 0 1 78.135 103.848 Z M 396.215 85.247 L 396.215 90.902 A 0.5 0.5 0 0 1 395.715 91.402 L 395.402 91.402 L 395.402 100.013 L 395.402 108.623 L 395.715 108.623 A 0.5 0.5 0 0 1 396.215 109.123 L 396.215 114.778 A 0.5 0.5 0 0 1 395.715 115.278 L 392.811 115.278 L 392.811 115.642 A 0.5 0.5 0 0 1 392.311 116.142 L 390.017 116.142 L 390.017 115.778 A 0.5 0.5 0 0 0 389.517 115.278 L 384.421 115.278 A 0.5 0.5 0 0 1 383.921 114.778 L 383.921 113.975 A 0.5 0.5 0 0 0 383.421 113.475 L 383.253 113.475 A 0.5 0.5 0 0 1 382.753 112.975 L 382.753 110.927 A 0.5 0.5 0 0 1 383.253 110.427 L 383.421 110.427 A 0.5 0.5 0 0 0 383.921 109.927 L 383.921 108.623 L 384.208 108.623 A 0.5 0.5 0 0 0 384.708 108.123 L 384.708 100.013 L 384.708 91.902 A 0.5 0.5 0 0 0 384.208 91.402 L 383.921 91.402 L 383.921 90.099 A 0.5 0.5 0 0 0 383.421 89.599 L 383.253 89.599 A 0.5 0.5 0 0 1 382.753 89.099 L 382.753 87.051 A 0.5 0.5 0 0 1 383.253 86.551 L 383.421 86.551 A 0.5 0.5 0 0 0 383.921 86.051 L 383.921 85.247 A 0.5 0.5 0 0 1 384.421 84.747 L 389.517 84.747 A 0.5 0.5 0 0 0 390.017 84.247 L 390.017 83.884 L 392.311 83.884 A 0.5 0.5 0 0 1 392.811 84.384 L 392.811 84.747 L 395.715 84.747 A 0.5 0.5 0 0 1 396.215 85.247 Z M 279.533 47.147 L 279.533 52.802 A 0.5 0.5 0 0 1 279.033 53.302 L 278.721 53.302 L 278.721 61.913 L 278.721 70.523 L 279.033 70.523 A 0.5 0.5 0 0 1 279.533 71.023 L 279.533 76.678 A 0.5 0.5 0 0 1 279.033 77.178 L 276.13 77.178 L 276.13 77.542 A 0.5 0.5 0 0 1 275.63 78.042 L 273.336 78.042 L 273.336 77.678 A 0.5 0.5 0 0 0 272.836 77.178 L 267.74 77.178 A 0.5 0.5 0 0 1 267.24 76.678 L 267.24 75.875 A 0.5 0.5 0 0 0 266.74 75.375 L 266.571 75.375 A 0.5 0.5 0 0 1 266.071 74.875 L 266.071 72.827 A 0.5 0.5 0 0 1 266.571 72.327 L 266.74 72.327 A 0.5 0.5 0 0 0 267.24 71.827 L 267.24 70.523 L 267.527 70.523 A 0.5 0.5 0 0 0 268.027 70.023 L 268.027 61.913 L 268.027 53.802 A 0.5 0.5 0 0 0 267.527 53.302 L 267.24 53.302 L 267.24 51.999 A 0.5 0.5 0 0 0 266.74 51.499 L 266.571 51.499 A 0.5 0.5 0 0 1 266.071 50.999 L 266.071 48.951 A 0.5 0.5 0 0 1 266.571 48.451 L 266.74 48.451 A 0.5 0.5 0 0 0 267.24 47.951 L 267.24 47.147 A 0.5 0.5 0 0 1 267.74 46.647 L 272.836 46.647 A 0.5 0.5 0 0 0 273.336 46.147 L 273.336 45.784 L 275.63 45.784 A 0.5 0.5 0 0 1 276.13 46.284 L 276.13 46.647 L 279.033 46.647 A 0.5 0.5 0 0 1 279.533 47.147 Z M 396.215 47.147 L 396.215 52.802 A 0.5 0.5 0 0 1 395.715 53.302 L 395.402 53.302 L 395.402 61.913 L 395.402 70.523 L 395.715 70.523 A 0.5 0.5 0 0 1 396.215 71.023 L 396.215 76.678 A 0.5 0.5 0 0 1 395.715 77.178 L 392.811 77.178 L 392.811 77.542 A 0.5 0.5 0 0 1 392.311 78.042 L 390.017 78.042 L 390.017 77.678 A 0.5 0.5 0 0 0 389.517 77.178 L 384.421 77.178 A 0.5 0.5 0 0 1 383.921 76.678 L 383.921 75.875 A 0.5 0.5 0 0 0 383.421 75.375 L 383.253 75.375 A 0.5 0.5 0 0 1 382.753 74.875 L 382.753 72.827 A 0.5 0.5 0 0 1 383.253 72.327 L 383.421 72.327 A 0.5 0.5 0 0 0 383.921 71.827 L 383.921 70.523 L 384.208 70.523 A 0.5 0.5 0 0 0 384.708 70.023 L 384.708 61.913 L 384.708 53.802 A 0.5 0.5 0 0 0 384.208 53.302 L 383.921 53.302 L 383.921 51.999 A 0.5 0.5 0 0 0 383.421 51.499 L 383.253 51.499 A 0.5 0.5 0 0 1 382.753 50.999 L 382.753 48.951 A 0.5 0.5 0 0 1 383.253 48.451 L 383.421 48.451 A 0.5 0.5 0 0 0 383.921 47.951 L 383.921 47.147 A 0.5 0.5 0 0 1 384.421 46.647 L 389.517 46.647 A 0.5 0.5 0 0 0 390.017 46.147 L 390.017 45.784 L 392.311 45.784 A 0.5 0.5 0 0 1 392.811 46.284 L 392.811 46.647 L 395.715 46.647 A 0.5 0.5 0 0 1 396.215 47.147 Z M 251.935 27.648 L 257.589 27.648 A 0.5 0.5 0 0 1 258.089 28.148 L 258.089 28.461 L 266.7 28.461 L 275.311 28.461 L 275.311 28.148 A 0.5 0.5 0 0 1 275.811 27.648 L 281.465 27.648 A 0.5 0.5 0 0 1 281.965 28.148 L 281.965 31.051 L 282.329 31.051 A 0.5 0.5 0 0 1 282.829 31.551 L 282.829 33.846 L 282.465 33.846 A 0.5 0.5 0 0 0 281.965 34.346 L 281.965 39.442 A 0.5 0.5 0 0 1 281.465 39.942 L 280.662 39.942 A 0.5 0.5 0 0 0 280.162 40.442 L 280.162 40.61 A 0.5 0.5 0 0 1 279.662 41.11 L 277.614 41.11 A 0.5 0.5 0 0 1 277.114 40.61 L 277.114 40.442 A 0.5 0.5 0 0 0 276.614 39.942 L 275.311 39.942 L 275.311 39.654 A 0.5 0.5 0 0 0 274.811 39.154 L 266.7 39.154 L 258.589 39.154 A 0.5 0.5 0 0 0 258.089 39.654 L 258.089 39.942 L 256.786 39.942 A 0.5 0.5 0 0 0 256.286 40.442 L 256.286 40.61 A 0.5 0.5 0 0 1 255.786 41.11 L 253.738 41.11 A 0.5 0.5 0 0 1 253.238 40.61 L 253.238 40.442 A 0.5 0.5 0 0 0 252.738 39.942 L 251.935 39.942 A 0.5 0.5 0 0 1 251.435 39.442 L 251.435 34.346 A 0.5 0.5 0 0 0 250.935 33.846 L 250.571 33.846 L 250.571 31.551 A 0.5 0.5 0 0 1 251.071 31.051 L 251.435 31.051 L 251.435 28.148 A 0.5 0.5 0 0 1 251.935 27.648 Z M 328.135 103.848 L 333.789 103.848 A 0.5 0.5 0 0 1 334.289 104.348 L 334.289 104.661 L 342.9 104.661 L 351.511 104.661 L 351.511 104.348 A 0.5 0.5 0 0 1 352.011 103.848 L 357.665 103.848 A 0.5 0.5 0 0 1 358.165 104.348 L 358.165 107.252 L 358.529 107.252 A 0.5 0.5 0 0 1 359.029 107.752 L 359.029 110.045 L 358.665 110.045 A 0.5 0.5 0 0 0 358.165 110.545 L 358.165 115.642 A 0.5 0.5 0 0 1 357.665 116.142 L 356.862 116.142 A 0.5 0.5 0 0 0 356.362 116.642 L 356.362 116.81 A 0.5 0.5 0 0 1 355.862 117.31 L 353.814 117.31 A 0.5 0.5 0 0 1 353.314 116.81 L 353.314 116.642 A 0.5 0.5 0 0 0 352.814 116.142 L 351.511 116.142 L 351.511 115.854 A 0.5 0.5 0 0 0 351.011 115.354 L 342.9 115.354 L 334.789 115.354 A 0.5 0.5 0 0 0 334.289 115.854 L 334.289 116.142 L 332.986 116.142 A 0.5 0.5 0 0 0 332.486 116.642 L 332.486 116.81 A 0.5 0.5 0 0 1 331.986 117.31 L 329.938 117.31 A 0.5 0.5 0 0 1 329.438 116.81 L 329.438 116.642 A 0.5 0.5 0 0 0 328.938 116.142 L 328.135 116.142 A 0.5 0.5 0 0 1 327.635 115.642 L 327.635 110.545 A 0.5 0.5 0 0 0 327.135 110.045 L 326.771 110.045 L 326.771 107.752 A 0.5 0.5 0 0 1 327.271 107.252 L 327.635 107.252 L 327.635 104.348 A 0.5 0.5 0 0 1 328.135 103.848 Z M 245.913 64.438 L 258.913 64.438 A 0.5 0.5 0 0 1 259.413 64.938 L 259.413 77.938 A 0.5 0.5 0 0 1 258.913 78.438 L 245.913 78.438 A 0.5 0.5 0 0 1 245.413 77.938 L 245.413 64.938 A 0.5 0.5 0 0 1 245.913 64.438 Z M 22.075 26.338 L 35.075 26.338 A 0.5 0.5 0 0 1 35.575 26.838 L 35.575 39.838 A 0.5 0.5 0 0 1 35.075 40.338 L 22.075 40.338 A 0.5 0.5 0 0 1 21.575 39.838 L 21.575 26.838 A 0.5 0.5 0 0 1 22.075 26.338 Z M 41.125 26.338 L 54.125 26.338 A 0.5 0.5 0 0 1 54.625 26.838 L 54.625 39.838 A 0.5 0.5 0 0 1 54.125 40.338 L 41.125 40.338 A 0.5 0.5 0 0 1 40.625 39.838 L 40.625 26.838 A 0.5 0.5 0 0 1 41.125 26.338 Z M 60.175 26.338 L 73.175 26.338 A 0.5 0.5 0 0 1 73.675 26.838 L 73.675 39.838 A 0.5 0.5 0 0 1 73.175 40.338 L 60.175 40.338 A 0.5 0.5 0 0 1 59.675 39.838 L 59.675 26.838 A 0.5 0.5 0 0 1 60.175 26.338 Z M 79.225 26.338 L 92.225 26.338 A 0.5 0.5 0 0 1 92.725 26.838 L 92.725 39.838 A 0.5 0.5 0 0 1 92.225 40.338 L 79.225 40.338 A 0.5 0.5 0 0 1 78.725 39.838 L 78.725 26.838 A 0.5 0.5 0 0 1 79.225 26.338 Z M 98.275 26.338 L 111.275 26.338 A 0.5 0.5 0 0 1 111.775 26.838 L 111.775 39.838 A 0.5 0.5 0 0 1 111.275 40.338 L 98.275 40.338 A 0.5 0.5 0 0 1 97.775 39.838 L 97.775 26.838 A 0.5 0.5 0 0 1 98.275 26.338 Z M 136.375 26.338 L 149.375 26.338 A 0.5 0.5 0 0 1 149.875 26.838 L 149.875 39.838 A 0.5 0.5 0 0 1 149.375 40.338 L 136.375 40.338 A 0.5 0.5 0 0 1 135.875 39.838 L 135.875 26.838 A 0.5 0.5 0 0 1 136.375 26.338 Z M 155.425 26.338 L 168.425 26.338 A 0.5 0.5 0 0 1 168.925 26.838 L 168.925 39.838 A 0.5 0.5 0 0 1 168.425 40.338 L 155.425 40.338 A 0.5 0.5 0 0 1 154.925 39.838 L 154.925 26.838 A 0.5 0.5 0 0 1 155.425 26.338 Z M 174.475 26.338 L 187.475 26.338 A 0.5 0.5 0 0 1 187.975 26.838 L 187.975 39.838 A 0.5 0.5 0 0 1 187.475 40.338 L 174.475 40.338 A 0.5 0.5 0 0 1 173.975 39.838 L 173.975 26.838 A 0.5 0.5 0 0 1 174.475 26.338 Z M 193.525 26.338 L 206.525 26.338 A 0.5 0.5 0 0 1 207.025 26.838 L 207.025 39.838 A 0.5 0.5 0 0 1 206.525 40.338 L 193.525 40.338 A 0.5 0.5 0 0 1 193.025 39.838 L 193.025 26.838 A 0.5 0.5 0 0 1 193.525 26.338 Z M 212.575 26.338 L 225.575 26.338 A 0.5 0.5 0 0 1 226.075 26.838 L 226.075 39.838 A 0.5 0.5 0 0 1 225.575 40.338 L 212.575 40.338 A 0.5 0.5 0 0 1 212.075 39.838 L 212.075 26.838 A 0.5 0.5 0 0 1 212.575 26.338 Z M 231.625 26.338 L 244.625 26.338 A 0.5 0.5 0 0 1 245.125 26.838 L 245.125 39.838 A 0.5 0.5 0 0 1 244.625 40.338 L 231.625 40.338 A 0.5 0.5 0 0 1 231.125 39.838 L 231.125 26.838 A 0.5 0.5 0 0 1 231.625 26.338 Z M 260.2 26.338 L 273.2 26.338 A 0.5 0.5 0 0 1 273.7 26.838 L 273.7 39.838 A 0.5 0.5 0 0 1 273.2 40.338 L 260.2 40.338 A 0.5 0.5 0 0 1 259.7 39.838 L 259.7 26.838 A 0.5 0.5 0 0 1 260.2 26.338 Z M 298.3 26.338 L 311.3 26.338 A 0.5 0.5 0 0 1 311.8 26.838 L 311.8 39.838 A 0.5 0.5 0 0 1 311.3 40.338 L 298.3 40.338 A 0.5 0.5 0 0 1 297.8 39.838 L 297.8 26.838 A 0.5 0.5 0 0 1 298.3 26.338 Z M 326.875 26.338 L 339.875 26.338 A 0.5 0.5 0 0 1 340.375 26.838 L 340.375 39.838 A 0.5 0.5 0 0 1 339.875 40.338 L 326.875 40.338 A 0.5 0.5 0 0 1 326.375 39.838 L 326.375 26.838 A 0.5 0.5 0 0 1 326.875 26.338 Z M 345.925 26.338 L 358.925 26.338 A 0.5 0.5 0 0 1 359.425 26.838 L 359.425 39.838 A 0.5 0.5 0 0 1 358.925 40.338 L 345.925 40.338 A 0.5 0.5 0 0 1 345.425 39.838 L 345.425 26.838 A 0.5 0.5 0 0 1 345.925 26.338 Z M 364.975 26.338 L 377.975 26.338 A 0.5 0.5 0 0 1 378.475 26.838 L 378.475 39.838 A 0.5 0.5 0 0 1 377.975 40.338 L 364.975 40.338 A 0.5 0.5 0 0 1 364.475 39.838 L 364.475 26.838 A 0.5 0.5 0 0 1 364.975 26.338 Z M 384.025 26.338 L 397.025 26.338 A 0.5 0.5 0 0 1 397.525 26.838 L 397.525 39.838 A 0.5 0.5 0 0 1 397.025 40.338 L 384.025 40.338 A 0.5 0.5 0 0 1 383.525 39.838 L 383.525 26.838 A 0.5 0.5 0 0 1 384.025 26.338 Z M 7.788 45.388 L 20.788 45.388 A 0.5 0.5 0 0 1 21.288 45.888 L 21.288 58.888 A 0.5 0.5 0 0 1 20.788 59.388 L 7.788 59.388 A 0.5 0.5 0 0 1 7.288 58.888 L 7.288 45.888 A 0.5 0.5 0 0 1 7.788 45.388 Z M 31.6 45.388 L 44.6 45.388 A 0.5 0.5 0 0 1 45.1 45.888 L 45.1 58.888 A 0.5 0.5 0 0 1 44.6 59.388 L 31.6 59.388 A 0.5 0.5 0 0 1 31.1 58.888 L 31.1 45.888 A 0.5 0.5 0 0 1 31.6 45.388 Z M 50.65 45.388 L 63.65 45.388 A 0.5 0.5 0 0 1 64.15 45.888 L 64.15 58.888 A 0.5 0.5 0 0 1 63.65 59.388 L 50.65 59.388 A 0.5 0.5 0 0 1 50.15 58.888 L 50.15 45.888 A 0.5 0.5 0 0 1 50.65 45.388 Z M 69.7 45.388 L 82.7 45.388 A 0.5 0.5 0 0 1 83.2 45.888 L 83.2 58.888 A 0.5 0.5 0 0 1 82.7 59.388 L 69.7 59.388 A 0.5 0.5 0 0 1 69.2 58.888 L 69.2 45.888 A 0.5 0.5 0 0 1 69.7 45.388 Z M 88.75 45.388 L 101.75 45.388 A 0.5 0.5 0 0 1 102.25 45.888 L 102.25 58.888 A 0.5 0.5 0 0 1 101.75 59.388 L 88.75 59.388 A 0.5 0.5 0 0 1 88.25 58.888 L 88.25 45.888 A 0.5 0.5 0 0 1 88.75 45.388 Z M 107.8 45.388 L 120.8 45.388 A 0.5 0.5 0 0 1 121.3 45.888 L 121.3 58.888 A 0.5 0.5 0 0 1 120.8 59.388 L 107.8 59.388 A 0.5 0.5 0 0 1 107.3 58.888 L 107.3 45.888 A 0.5 0.5 0 0 1 107.8 45.388 Z M 126.85 45.388 L 139.85 45.388 A 0.5 0.5 0 0 1 140.35 45.888 L 140.35 58.888 A 0.5 0.5 0 0 1 139.85 59.388 L 126.85 59.388 A 0.5 0.5 0 0 1 126.35 58.888 L 126.35 45.888 A 0.5 0.5 0 0 1 126.85 45.388 Z M 145.9 45.388 L 158.9 45.388 A 0.5 0.5 0 0 1 159.4 45.888 L 159.4 58.888 A 0.5 0.5 0 0 1 158.9 59.388 L 145.9 59.388 A 0.5 0.5 0 0 1 145.4 58.888 L 145.4 45.888 A 0.5 0.5 0 0 1 145.9 45.388 Z M 164.95 45.388 L 177.95 45.388 A 0.5 0.5 0 0 1 178.45 45.888 L 178.45 58.888 A 0.5 0.5 0 0 1 177.95 59.388 L 164.95 59.388 A 0.5 0.5 0 0 1 164.45 58.888 L 164.45 45.888 A 0.5 0.5 0 0 1 164.95 45.388 Z M 184 45.388 L 197 45.388 A 0.5 0.5 0 0 1 197.5 45.888 L 197.5 58.888 A 0.5 0.5 0 0 1 197 59.388 L 184 59.388 A 0.5 0.5 0 0 1 183.5 58.888 L 183.5 45.888 A 0.5 0.5 0 0 1 184 45.388 Z M 203.05 45.388 L 216.05 45.388 A 0.5 0.5 0 0 1 216.55 45.888 L 216.55 58.888 A 0.5 0.5 0 0 1 216.05 59.388 L 203.05 59.388 A 0.5 0.5 0 0 1 202.55 58.888 L 202.55 45.888 A 0.5 0.5 0 0 1 203.05 45.388 Z M 222.1 45.388 L 235.1 45.388 A 0.5 0.5 0 0 1 235.6 45.888 L 235.6 58.888 A 0.5 0.5 0 0 1 235.1 59.388 L 222.1 59.388 A 0.5 0.5 0 0 1 221.6 58.888 L 221.6 45.888 A 0.5 0.5 0 0 1 222.1 45.388 Z M 241.15 45.388 L 254.15 45.388 A 0.5 0.5 0 0 1 254.65 45.888 L 254.65 58.888 A 0.5 0.5 0 0 1 254.15 59.388 L 241.15 59.388 A 0.5 0.5 0 0 1 240.65 58.888 L 240.65 45.888 A 0.5 0.5 0 0 1 241.15 45.388 Z M 298.3 45.388 L 311.3 45.388 A 0.5 0.5 0 0 1 311.8 45.888 L 311.8 58.888 A 0.5 0.5 0 0 1 311.3 59.388 L 298.3 59.388 A 0.5 0.5 0 0 1 297.8 58.888 L 297.8 45.888 A 0.5 0.5 0 0 1 298.3 45.388 Z M 326.875 45.388 L 339.875 45.388 A 0.5 0.5 0 0 1 340.375 45.888 L 340.375 58.888 A 0.5 0.5 0 0 1 339.875 59.388 L 326.875 59.388 A 0.5 0.5 0 0 1 326.375 58.888 L 326.375 45.888 A 0.5 0.5 0 0 1 326.875 45.388 Z M 345.925 45.388 L 358.925 45.388 A 0.5 0.5 0 0 1 359.425 45.888 L 359.425 58.888 A 0.5 0.5 0 0 1 358.925 59.388 L 345.925 59.388 A 0.5 0.5 0 0 1 345.425 58.888 L 345.425 45.888 A 0.5 0.5 0 0 1 345.925 45.388 Z M 364.975 45.388 L 377.975 45.388 A 0.5 0.5 0 0 1 378.475 45.888 L 378.475 58.888 A 0.5 0.5 0 0 1 377.975 59.388 L 364.975 59.388 A 0.5 0.5 0 0 1 364.475 58.888 L 364.475 45.888 A 0.5 0.5 0 0 1 364.975 45.388 Z M 10.169 64.438 L 23.169 64.438 A 0.5 0.5 0 0 1 23.669 64.938 L 23.669 77.938 A 0.5 0.5 0 0 1 23.169 78.438 L 10.169 78.438 A 0.5 0.5 0 0 1 9.669 77.938 L 9.669 64.938 A 0.5 0.5 0 0 1 10.169 64.438 Z M 36.363 64.438 L 49.363 64.438 A 0.5 0.5 0 0 1 49.863 64.938 L 49.863 77.938 A 0.5 0.5 0 0 1 49.363 78.438 L 36.363 78.438 A 0.5 0.5 0 0 1 35.863 77.938 L 35.863 64.938 A 0.5 0.5 0 0 1 36.363 64.438 Z M 74.463 64.438 L 87.463 64.438 A 0.5 0.5 0 0 1 87.963 64.938 L 87.963 77.938 A 0.5 0.5 0 0 1 87.463 78.438 L 74.463 78.438 A 0.5 0.5 0 0 1 73.963 77.938 L 73.963 64.938 A 0.5 0.5 0 0 1 74.463 64.438 Z M 93.513 64.438 L 106.513 64.438 A 0.5 0.5 0 0 1 107.013 64.938 L 107.013 77.938 A 0.5 0.5 0 0 1 106.513 78.438 L 93.513 78.438 A 0.5 0.5 0 0 1 93.013 77.938 L 93.013 64.938 A 0.5 0.5 0 0 1 93.513 64.438 Z M 112.563 64.438 L 125.563 64.438 A 0.5 0.5 0 0 1 126.063 64.938 L 126.063 77.938 A 0.5 0.5 0 0 1 125.563 78.438 L 112.563 78.438 A 0.5 0.5 0 0 1 112.063 77.938 L 112.063 64.938 A 0.5 0.5 0 0 1 112.563 64.438 Z M 131.613 64.438 L 144.613 64.438 A 0.5 0.5 0 0 1 145.113 64.938 L 145.113 77.938 A 0.5 0.5 0 0 1 144.613 78.438 L 131.613 78.438 A 0.5 0.5 0 0 1 131.113 77.938 L 131.113 64.938 A 0.5 0.5 0 0 1 131.613 64.438 Z M 150.663 64.438 L 163.663 64.438 A 0.5 0.5 0 0 1 164.163 64.938 L 164.163 77.938 A 0.5 0.5 0 0 1 163.663 78.438 L 150.663 78.438 A 0.5 0.5 0 0 1 150.163 77.938 L 150.163 64.938 A 0.5 0.5 0 0 1 150.663 64.438 Z M 169.713 64.438 L 182.713 64.438 A 0.5 0.5 0 0 1 183.213 64.938 L 183.213 77.938 A 0.5 0.5 0 0 1 182.713 78.438 L 169.713 78.438 A 0.5 0.5 0 0 1 169.213 77.938 L 169.213 64.938 A 0.5 0.5 0 0 1 169.713 64.438 Z M 188.763 64.438 L 201.763 64.438 A 0.5 0.5 0 0 1 202.263 64.938 L 202.263 77.938 A 0.5 0.5 0 0 1 201.763 78.438 L 188.763 78.438 A 0.5 0.5 0 0 1 188.263 77.938 L 188.263 64.938 A 0.5 0.5 0 0 1 188.763 64.438 Z M 207.813 64.438 L 220.813 64.438 A 0.5 0.5 0 0 1 221.313 64.938 L 221.313 77.938 A 0.5 0.5 0 0 1 220.813 78.438 L 207.813 78.438 A 0.5 0.5 0 0 1 207.313 77.938 L 207.313 64.938 A 0.5 0.5 0 0 1 207.813 64.438 Z M 226.863 64.438 L 239.863 64.438 A 0.5 0.5 0 0 1 240.363 64.938 L 240.363 77.938 A 0.5 0.5 0 0 1 239.863 78.438 L 226.863 78.438 A 0.5 0.5 0 0 1 226.363 77.938 L 226.363 64.938 A 0.5 0.5 0 0 1 226.863 64.438 Z M 298.3 64.438 L 311.3 64.438 A 0.5 0.5 0 0 1 311.8 64.938 L 311.8 77.938 A 0.5 0.5 0 0 1 311.3 78.438 L 298.3 78.438 A 0.5 0.5 0 0 1 297.8 77.938 L 297.8 64.938 A 0.5 0.5 0 0 1 298.3 64.438 Z M 326.875 64.438 L 339.875 64.438 A 0.5 0.5 0 0 1 340.375 64.938 L 340.375 77.938 A 0.5 0.5 0 0 1 339.875 78.438 L 326.875 78.438 A 0.5 0.5 0 0 1 326.375 77.938 L 326.375 64.938 A 0.5 0.5 0 0 1 326.875 64.438 Z M 345.925 64.438 L 358.925 64.438 A 0.5 0.5 0 0 1 359.425 64.938 L 359.425 77.938 A 0.5 0.5 0 0 1 358.925 78.438 L 345.925 78.438 A 0.5 0.5 0 0 1 345.425 77.938 L 345.425 64.938 A 0.5 0.5 0 0 1 345.925 64.438 Z M 364.975 64.438 L 377.975 64.438 A 0.5 0.5 0 0 1 378.475 64.938 L 378.475 77.938 A 0.5 0.5 0 0 1 377.975 78.438 L 364.975 78.438 A 0.5 0.5 0 0 1 364.475 77.938 L 364.475 64.938 A 0.5 0.5 0 0 1 364.975 64.438 Z M 5.406 83.488 L 18.406 83.488 A 0.5 0.5 0 0 1 18.906 83.988 L 18.906 96.988 A 0.5 0.5 0 0 1 18.406 97.488 L 5.406 97.488 A 0.5 0.5 0 0 1 4.906 96.988 L 4.906 83.988 A 0.5 0.5 0 0 1 5.406 83.488 Z M 26.838 83.488 L 39.838 83.488 A 0.5 0.5 0 0 1 40.338 83.988 L 40.338 96.988 A 0.5 0.5 0 0 1 39.838 97.488 L 26.838 97.488 A 0.5 0.5 0 0 1 26.338 96.988 L 26.338 83.988 A 0.5 0.5 0 0 1 26.838 83.488 Z M 45.888 83.488 L 58.888 83.488 A 0.5 0.5 0 0 1 59.388 83.988 L 59.388 96.988 A 0.5 0.5 0 0 1 58.888 97.488 L 45.888 97.488 A 0.5 0.5 0 0 1 45.388 96.988 L 45.388 83.988 A 0.5 0.5 0 0 1 45.888 83.488 Z M 64.938 83.488 L 77.938 83.488 A 0.5 0.5 0 0 1 78.438 83.988 L 78.438 96.988 A 0.5 0.5 0 0 1 77.938 97.488 L 64.938 97.488 A 0.5 0.5 0 0 1 64.438 96.988 L 64.438 83.988 A 0.5 0.5 0 0 1 64.938 83.488 Z M 83.988 83.488 L 96.988 83.488 A 0.5 0.5 0 0 1 97.488 83.988 L 97.488 96.988 A 0.5 0.5 0 0 1 96.988 97.488 L 83.988 97.488 A 0.5 0.5 0 0 1 83.488 96.988 L 83.488 83.988 A 0.5 0.5 0 0 1 83.988 83.488 Z M 103.038 83.488 L 116.038 83.488 A 0.5 0.5 0 0 1 116.538 83.988 L 116.538 96.988 A 0.5 0.5 0 0 1 116.038 97.488 L 103.038 97.488 A 0.5 0.5 0 0 1 102.538 96.988 L 102.538 83.988 A 0.5 0.5 0 0 1 103.038 83.488 Z M 122.088 83.488 L 135.088 83.488 A 0.5 0.5 0 0 1 135.588 83.988 L 135.588 96.988 A 0.5 0.5 0 0 1 135.088 97.488 L 122.088 97.488 A 0.5 0.5 0 0 1 121.588 96.988 L 121.588 83.988 A 0.5 0.5 0 0 1 122.088 83.488 Z M 141.138 83.488 L 154.138 83.488 A 0.5 0.5 0 0 1 154.638 83.988 L 154.638 96.988 A 0.5 0.5 0 0 1 154.138 97.488 L 141.138 97.488 A 0.5 0.5 0 0 1 140.638 96.988 L 140.638 83.988 A 0.5 0.5 0 0 1 141.138 83.488 Z M 160.188 83.488 L 173.188 83.488 A 0.5 0.5 0 0 1 173.688 83.988 L 173.688 96.988 A 0.5 0.5 0 0 1 173.188 97.488 L 160.188 97.488 A 0.5 0.5 0 0 1 159.688 96.988 L 159.688 83.988 A 0.5 0.5 0 0 1 160.188 83.488 Z M 179.238 83.488 L 192.238 83.488 A 0.5 0.5 0 0 1 192.738 83.988 L 192.738 96.988 A 0.5 0.5 0 0 1 192.238 97.488 L 179.238 97.488 A 0.5 0.5 0 0 1 178.738 96.988 L 178.738 83.988 A 0.5 0.5 0 0 1 179.238 83.488 Z M 198.288 83.488 L 211.288 83.488 A 0.5 0.5 0 0 1 211.788 83.988 L 211.788 96.988 A 0.5 0.5 0 0 1 211.288 97.488 L 198.288 97.488 A 0.5 0.5 0 0 1 197.788 96.988 L 197.788 83.988 A 0.5 0.5 0 0 1 198.288 83.488 Z M 217.338 83.488 L 230.338 83.488 A 0.5 0.5 0 0 1 230.838 83.988 L 230.838 96.988 A 0.5 0.5 0 0 1 230.338 97.488 L 217.338 97.488 A 0.5 0.5 0 0 1 216.838 96.988 L 216.838 83.988 A 0.5 0.5 0 0 1 217.338 83.488 Z M 243.531 83.488 L 256.531 83.488 A 0.5 0.5 0 0 1 257.031 83.988 L 257.031 96.988 A 0.5 0.5 0 0 1 256.531 97.488 L 243.531 97.488 A 0.5 0.5 0 0 1 243.031 96.988 L 243.031 83.988 A 0.5 0.5 0 0 1 243.531 83.488 Z M 298.3 83.488 L 311.3 83.488 A 0.5 0.5 0 0 1 311.8 83.988 L 311.8 96.988 A 0.5 0.5 0 0 1 311.3 97.488 L 298.3 97.488 A 0.5 0.5 0 0 1 297.8 96.988 L 297.8 83.988 A 0.5 0.5 0 0 1 298.3 83.488 Z M 326.875 83.488 L 339.875 83.488 A 0.5 0.5 0 0 1 340.375 83.988 L 340.375 96.988 A 0.5 0.5 0 0 1 339.875 97.488 L 326.875 97.488 A 0.5 0.5 0 0 1 326.375 96.988 L 326.375 83.988 A 0.5 0.5 0 0 1 326.875 83.488 Z M 345.925 83.488 L 358.925 83.488 A 0.5 0.5 0 0 1 359.425 83.988 L 359.425 96.988 A 0.5 0.5 0 0 1 358.925 97.488 L 345.925 97.488 A 0.5 0.5 0 0 1 345.425 96.988 L 345.425 83.988 A 0.5 0.5 0 0 1 345.925 83.488 Z M 364.975 83.488 L 377.975 83.488 A 0.5 0.5 0 0 1 378.475 83.988 L 378.475 96.988 A 0.5 0.5 0 0 1 377.975 97.488 L 364.975 97.488 A 0.5 0.5 0 0 1 364.475 96.988 L 364.475 83.988 A 0.5 0.5 0 0 1 364.975 83.488 Z M 397.525 93.513 L 397.525 106.513 A 0.5 0.5 0 0 1 397.025 107.013 L 384.025 107.013 A 0.5 0.5 0 0 1 383.525 106.513 L 383.525 93.513 A 0.5 0.5 0 0 1 384.025 93.013 L 397.025 93.013 A 0.5 0.5 0 0 1 397.525 93.513 Z M 274.488 88.25 L 287.488 88.25 A 0.5 0.5 0 0 1 287.988 88.75 L 287.988 101.75 A 0.5 0.5 0 0 1 287.488 102.25 L 274.488 102.25 A 0.5 0.5 0 0 1 273.988 101.75 L 273.988 88.75 A 0.5 0.5 0 0 1 274.488 88.25 Z M 7.788 102.538 L 20.788 102.538 A 0.5 0.5 0 0 1 21.288 103.038 L 21.288 116.038 A 0.5 0.5 0 0 1 20.788 116.538 L 7.788 116.538 A 0.5 0.5 0 0 1 7.288 116.038 L 7.288 103.038 A 0.5 0.5 0 0 1 7.788 102.538 Z M 31.6 102.538 L 44.6 102.538 A 0.5 0.5 0 0 1 45.1 103.038 L 45.1 116.038 A 0.5 0.5 0 0 1 44.6 116.538 L 31.6 116.538 A 0.5 0.5 0 0 1 31.1 116.038 L 31.1 103.038 A 0.5 0.5 0 0 1 31.6 102.538 Z M 53.031 102.538 L 66.031 102.538 A 0.5 0.5 0 0 1 66.531 103.038 L 66.531 116.038 A 0.5 0.5 0 0 1 66.031 116.538 L 53.031 116.538 A 0.5 0.5 0 0 1 52.531 116.038 L 52.531 103.038 A 0.5 0.5 0 0 1 53.031 102.538 Z M 122.088 102.538 L 135.088 102.538 A 0.5 0.5 0 0 1 135.588 103.038 L 135.588 116.038 A 0.5 0.5 0 0 1 135.088 116.538 L 122.088 116.538 A 0.5 0.5 0 0 1 121.588 116.038 L 121.588 103.038 A 0.5 0.5 0 0 1 122.088 102.538 Z M 191.144 102.538 L 204.144 102.538 A 0.5 0.5 0 0 1 204.644 103.038 L 204.644 116.038 A 0.5 0.5 0 0 1 204.144 116.538 L 191.144 116.538 A 0.5 0.5 0 0 1 190.644 116.038 L 190.644 103.038 A 0.5 0.5 0 0 1 191.144 102.538 Z M 212.575 102.538 L 225.575 102.538 A 0.5 0.5 0 0 1 226.075 103.038 L 226.075 116.038 A 0.5 0.5 0 0 1 225.575 116.538 L 212.575 116.538 A 0.5 0.5 0 0 1 212.075 116.038 L 212.075 103.038 A 0.5 0.5 0 0 1 212.575 102.538 Z M 231.625 102.538 L 244.625 102.538 A 0.5 0.5 0 0 1 245.125 103.038 L 245.125 116.038 A 0.5 0.5 0 0 1 244.625 116.538 L 231.625 116.538 A 0.5 0.5 0 0 1 231.125 116.038 L 231.125 103.038 A 0.5 0.5 0 0 1 231.625 102.538 Z M 336.4 102.538 L 349.4 102.538 A 0.5 0.5 0 0 1 349.9 103.038 L 349.9 116.038 A 0.5 0.5 0 0 1 349.4 116.538 L 336.4 116.538 A 0.5 0.5 0 0 1 335.9 116.038 L 335.9 103.038 A 0.5 0.5 0 0 1 336.4 102.538 Z M 364.975 102.538 L 377.975 102.538 A 0.5 0.5 0 0 1 378.475 103.038 L 378.475 116.038 A 0.5 0.5 0 0 1 377.975 116.538 L 364.975 116.538 A 0.5 0.5 0 0 1 364.475 116.038 L 364.475 103.038 A 0.5 0.5 0 0 1 364.975 102.538 Z M 255.438 107.3 L 268.438 107.3 A 0.5 0.5 0 0 1 268.938 107.8 L 268.938 120.8 A 0.5 0.5 0 0 1 268.438 121.3 L 255.438 121.3 A 0.5 0.5 0 0 1 254.938 120.8 L 254.938 107.8 A 0.5 0.5 0 0 1 255.438 107.3 Z M 274.488 107.3 L 287.488 107.3 A 0.5 0.5 0 0 1 287.988 107.8 L 287.988 120.8 A 0.5 0.5 0 0 1 287.488 121.3 L 274.488 121.3 A 0.5 0.5 0 0 1 273.988 120.8 L 273.988 107.8 A 0.5 0.5 0 0 1 274.488 107.3 Z M 293.538 107.3 L 306.538 107.3 A 0.5 0.5 0 0 1 307.038 107.8 L 307.038 120.8 A 0.5 0.5 0 0 1 306.538 121.3 L 293.538 121.3 A 0.5 0.5 0 0 1 293.038 120.8 L 293.038 107.8 A 0.5 0.5 0 0 1 293.538 107.3 Z M 3.025 2.525 L 16.025 2.525 A 0.5 0.5 0 0 1 16.525 3.025 L 16.525 16.025 A 0.5 0.5 0 0 1 16.025 16.525 L 3.025 16.525 A 0.5 0.5 0 0 1 2.525 16.025 L 2.525 3.025 A 0.5 0.5 0 0 1 3.025 2.525 Z M 41.125 2.525 L 54.125 2.525 A 0.5 0.5 0 0 1 54.625 3.025 L 54.625 16.025 A 0.5 0.5 0 0 1 54.125 16.525 L 41.125 16.525 A 0.5 0.5 0 0 1 40.625 16.025 L 40.625 3.025 A 0.5 0.5 0 0 1 41.125 2.525 Z M 60.175 2.525 L 73.175 2.525 A 0.5 0.5 0 0 1 73.675 3.025 L 73.675 16.025 A 0.5 0.5 0 0 1 73.175 16.525 L 60.175 16.525 A 0.5 0.5 0 0 1 59.675 16.025 L 59.675 3.025 A 0.5 0.5 0 0 1 60.175 2.525 Z M 79.225 2.525 L 92.225 2.525 A 0.5 0.5 0 0 1 92.725 3.025 L 92.725 16.025 A 0.5 0.5 0 0 1 92.225 16.525 L 79.225 16.525 A 0.5 0.5 0 0 1 78.725 16.025 L 78.725 3.025 A 0.5 0.5 0 0 1 79.225 2.525 Z M 98.275 2.525 L 111.275 2.525 A 0.5 0.5 0 0 1 111.775 3.025 L 111.775 16.025 A 0.5 0.5 0 0 1 111.275 16.525 L 98.275 16.525 A 0.5 0.5 0 0 1 97.775 16.025 L 97.775 3.025 A 0.5 0.5 0 0 1 98.275 2.525 Z M 126.85 2.525 L 139.85 2.525 A 0.5 0.5 0 0 1 140.35 3.025 L 140.35 16.025 A 0.5 0.5 0 0 1 139.85 16.525 L 126.85 16.525 A 0.5 0.5 0 0 1 126.35 16.025 L 126.35 3.025 A 0.5 0.5 0 0 1 126.85 2.525 Z M 145.9 2.525 L 158.9 2.525 A 0.5 0.5 0 0 1 159.4 3.025 L 159.4 16.025 A 0.5 0.5 0 0 1 158.9 16.525 L 145.9 16.525 A 0.5 0.5 0 0 1 145.4 16.025 L 145.4 3.025 A 0.5 0.5 0 0 1 145.9 2.525 Z M 164.95 2.525 L 177.95 2.525 A 0.5 0.5 0 0 1 178.45 3.025 L 178.45 16.025 A 0.5 0.5 0 0 1 177.95 16.525 L 164.95 16.525 A 0.5 0.5 0 0 1 164.45 16.025 L 164.45 3.025 A 0.5 0.5 0 0 1 164.95 2.525 Z M 184 2.525 L 197 2.525 A 0.5 0.5 0 0 1 197.5 3.025 L 197.5 16.025 A 0.5 0.5 0 0 1 197 16.525 L 184 16.525 A 0.5 0.5 0 0 1 183.5 16.025 L 183.5 3.025 A 0.5 0.5 0 0 1 184 2.525 Z M 212.575 2.525 L 225.575 2.525 A 0.5 0.5 0 0 1 226.075 3.025 L 226.075 16.025 A 0.5 0.5 0 0 1 225.575 16.525 L 212.575 16.525 A 0.5 0.5 0 0 1 212.075 16.025 L 212.075 3.025 A 0.5 0.5 0 0 1 212.575 2.525 Z M 231.625 2.525 L 244.625 2.525 A 0.5 0.5 0 0 1 245.125 3.025 L 245.125 16.025 A 0.5 0.5 0 0 1 244.625 16.525 L 231.625 16.525 A 0.5 0.5 0 0 1 231.125 16.025 L 231.125 3.025 A 0.5 0.5 0 0 1 231.625 2.525 Z M 250.675 2.525 L 263.675 2.525 A 0.5 0.5 0 0 1 264.175 3.025 L 264.175 16.025 A 0.5 0.5 0 0 1 263.675 16.525 L 250.675 16.525 A 0.5 0.5 0 0 1 250.175 16.025 L 250.175 3.025 A 0.5 0.5 0 0 1 250.675 2.525 Z M 269.725 2.525 L 282.725 2.525 A 0.5 0.5 0 0 1 283.225 3.025 L 283.225 16.025 A 0.5 0.5 0 0 1 282.725 16.525 L 269.725 16.525 A 0.5 0.5 0 0 1 269.225 16.025 L 269.225 3.025 A 0.5 0.5 0 0 1 269.725 2.525 Z M 298.3 2.525 L 311.3 2.525 A 0.5 0.5 0 0 1 311.8 3.025 L 311.8 16.025 A 0.5 0.5 0 0 1 311.3 16.525 L 298.3 16.525 A 0.5 0.5 0 0 1 297.8 16.025 L 297.8 3.025 A 0.5 0.5 0 0 1 298.3 2.525 Z M 3.025 26.338 L 16.025 26.338 A 0.5 0.5 0 0 1 16.525 26.838 L 16.525 39.838 A 0.5 0.5 0 0 1 16.025 40.338 L 3.025 40.338 A 0.5 0.5 0 0 1 2.525 39.838 L 2.525 26.838 A 0.5 0.5 0 0 1 3.025 26.338 Z M 280.844 55.413 L 280.844 68.413 A 0.5 0.5 0 0 1 280.344 68.913 L 267.344 68.913 A 0.5 0.5 0 0 1 266.844 68.413 L 266.844 55.413 A 0.5 0.5 0 0 1 267.344 54.913 L 280.344 54.913 A 0.5 0.5 0 0 1 280.844 55.413 Z M 397.525 55.413 L 397.525 68.413 A 0.5 0.5 0 0 1 397.025 68.913 L 384.025 68.913 A 0.5 0.5 0 0 1 383.525 68.413 L 383.525 55.413 A 0.5 0.5 0 0 1 384.025 54.913 L 397.025 54.913 A 0.5 0.5 0 0 1 397.525 55.413 Z M 55.413 64.438 L 68.413 64.438 A 0.5 0.5 0 0 1 68.913 64.938 L 68.913 77.938 A 0.5 0.5 0 0 1 68.413 78.438 L 55.413 78.438 A 0.5 0.5 0 0 1 54.913 77.938 L 54.913 64.938 A 0.5 0.5 0 0 1 55.413 64.438 Z M 117.325 26.338 L 130.325 26.338 A 0.5 0.5 0 0 1 130.825 26.838 L 130.825 39.838 A 0.5 0.5 0 0 1 130.325 40.338 L 117.325 40.338 A 0.5 0.5 0 0 1 116.825 39.838 L 116.825 26.838 A 0.5 0.5 0 0 1 117.325 26.338 Z" vector-effect="non-scaling-stroke"/></g></svg>