%TF.GenerationSoftware,KiCad,Pcbnew,(6.0.4)*%
%TF.CreationDate,2022-06-27T23:14:22+02:00*%
%TF.ProjectId,pcb-rounded,7063622d-726f-4756-9e64-65642e6b6963,rev?*%
%TF.SameCoordinates,Original*%
%TF.FileFunction,Soldermask,Bot*%
%TF.FilePolarity,Negative*%
%FSLAX46Y46*%
G04 Gerber Fmt 4.6, Leading zero omitted, Abs format (unit mm)*
G04 Created by KiCad (PCBNEW (6.0.4)) date 2022-06-27 23:14:22*
%MOMM*%
%LPD*%
G01*
G04 APERTURE LIST*
G04 Aperture macros list*
%AMRoundRect*
0 Rectangle with rounded corners*
0 $1 Rounding radius*
0 $2 $3 $4 $5 $6 $7 $8 $9 X,Y pos of 4 corners*
0 Add a 4 corners polygon primitive as box body*
4,1,4,$2,$3,$4,$5,$6,$7,$8,$9,$2,$3,0*
0 Add four circle primitives for the rounded corners*
1,1,$1+$1,$2,$3*
1,1,$1+$1,$4,$5*
1,1,$1+$1,$6,$7*
1,1,$1+$1,$8,$9*
0 Add four rect primitives between the rounded corners*
20,1,$1+$1,$2,$3,$4,$5,0*
20,1,$1+$1,$4,$5,$6,$7,0*
20,1,$1+$1,$6,$7,$8,$9,0*
20,1,$1+$1,$8,$9,$2,$3,0*%
G04 Aperture macros list end*
%ADD10R,1.600000X1.400000*%
%ADD11R,1.600000X1.420000*%
%ADD12R,1.600000X1.380000*%
%ADD13C,1.701800*%
%ADD14C,3.987800*%
%ADD15C,3.000000*%
%ADD16C,0.600000*%
%ADD17R,2.550000X2.500000*%
%ADD18C,2.200000*%
%ADD19C,3.048000*%
%ADD20R,2.570500X1.878000*%
%ADD21R,3.500998X2.500000*%
%ADD22R,3.349250X2.500000*%
%ADD23R,2.000000X2.000000*%
%ADD24C,2.000000*%
%ADD25R,3.200000X2.000000*%
%ADD26R,0.900000X1.200000*%
%ADD27RoundRect,0.250000X0.250000X0.700000X-0.250000X0.700000X-0.250000X-0.700000X0.250000X-0.700000X0*%
%ADD28RoundRect,0.250000X0.503814X0.132583X0.132583X0.503814X-0.503814X-0.132583X-0.132583X-0.503814X0*%
%ADD29R,1.800000X1.200000*%
%ADD30R,1.550000X0.600000*%
%ADD31R,1.200000X0.900000*%
G04 APERTURE END LIST*
D10*
%TO.C,D150*%
X465556250Y-223547500D03*
D11*
X465556250Y-221557500D03*
D10*
X459956250Y-221557500D03*
D12*
X459956250Y-223557500D03*
%TD*%
D10*
%TO.C,D190*%
X132181250Y-280697500D03*
D11*
X132181250Y-278707500D03*
D10*
X126581250Y-278707500D03*
D12*
X126581250Y-280707500D03*
%TD*%
D10*
%TO.C,D180*%
X298868750Y-261647500D03*
D11*
X298868750Y-259657500D03*
D10*
X293268750Y-259657500D03*
D12*
X293268750Y-261657500D03*
%TD*%
D10*
%TO.C,D115*%
X103606250Y-204497500D03*
D11*
X103606250Y-202507500D03*
D10*
X98006250Y-202507500D03*
D12*
X98006250Y-204507500D03*
%TD*%
D10*
%TO.C,D119*%
X179806250Y-204497500D03*
D11*
X179806250Y-202507500D03*
D10*
X174206250Y-202507500D03*
D12*
X174206250Y-204507500D03*
%TD*%
D13*
%TO.C,MX13*%
X372586250Y-174625000D03*
D14*
X367506250Y-174625000D03*
D15*
X370046250Y-169545000D03*
D13*
X362426250Y-174625000D03*
D15*
X363696250Y-172085000D03*
D16*
X372856250Y-168650000D03*
X372856250Y-170450000D03*
X372856250Y-169550000D03*
X374756250Y-169550000D03*
X374756250Y-168650000D03*
X374756250Y-170450000D03*
D17*
X373796250Y-169545000D03*
D16*
X360906250Y-172950000D03*
X359126250Y-171030000D03*
X359126250Y-172830000D03*
X360906250Y-172050000D03*
X360906250Y-171150000D03*
D17*
X360066250Y-171965000D03*
D16*
X359126250Y-171930000D03*
%TD*%
D10*
%TO.C,D135*%
X132181250Y-223547500D03*
D11*
X132181250Y-221557500D03*
D10*
X126581250Y-221557500D03*
D12*
X126581250Y-223557500D03*
%TD*%
D10*
%TO.C,D162*%
X327443750Y-242597500D03*
D11*
X327443750Y-240607500D03*
D10*
X321843750Y-240607500D03*
D12*
X321843750Y-242607500D03*
%TD*%
D15*
%TO.C,MX11*%
X331946250Y-169545000D03*
D13*
X334486250Y-174625000D03*
X324326250Y-174625000D03*
D14*
X329406250Y-174625000D03*
D15*
X325596250Y-172085000D03*
D17*
X335696250Y-169545000D03*
D16*
X334756250Y-169550000D03*
X336656250Y-168650000D03*
X334756250Y-170450000D03*
X336656250Y-169550000D03*
X336656250Y-170450000D03*
X334756250Y-168650000D03*
D17*
X321966250Y-171965000D03*
D16*
X322806250Y-172950000D03*
X321026250Y-172830000D03*
X321026250Y-171930000D03*
X321026250Y-171030000D03*
X322806250Y-172050000D03*
X322806250Y-171150000D03*
%TD*%
D14*
%TO.C,MX43*%
X281781250Y-217487500D03*
D13*
X276701250Y-217487500D03*
D15*
X277971250Y-214947500D03*
D13*
X286861250Y-217487500D03*
D15*
X284321250Y-212407500D03*
D16*
X289031250Y-211512500D03*
D17*
X288071250Y-212407500D03*
D16*
X289031250Y-212412500D03*
X287131250Y-212412500D03*
X287131250Y-213312500D03*
X289031250Y-213312500D03*
X287131250Y-211512500D03*
X275181250Y-214012500D03*
X275181250Y-214912500D03*
X273401250Y-214792500D03*
X273401250Y-213892500D03*
X275181250Y-215812500D03*
D17*
X274341250Y-214827500D03*
D16*
X273401250Y-215692500D03*
%TD*%
D10*
%TO.C,D136*%
X151231250Y-223547500D03*
D11*
X151231250Y-221557500D03*
D10*
X145631250Y-221557500D03*
D12*
X145631250Y-223557500D03*
%TD*%
D10*
%TO.C,D144*%
X303631250Y-223547500D03*
D11*
X303631250Y-221557500D03*
D10*
X298031250Y-221557500D03*
D12*
X298031250Y-223557500D03*
%TD*%
D10*
%TO.C,D158*%
X251243750Y-242597500D03*
D11*
X251243750Y-240607500D03*
D10*
X245643750Y-240607500D03*
D12*
X245643750Y-242607500D03*
%TD*%
D15*
%TO.C,MX31*%
X446246250Y-193357500D03*
D14*
X443706250Y-198437500D03*
D13*
X438626250Y-198437500D03*
X448786250Y-198437500D03*
D15*
X439896250Y-195897500D03*
D16*
X450956250Y-192462500D03*
X449056250Y-194262500D03*
D17*
X449996250Y-193357500D03*
D16*
X449056250Y-193362500D03*
X450956250Y-193362500D03*
X450956250Y-194262500D03*
X449056250Y-192462500D03*
X437106250Y-194962500D03*
D17*
X436266250Y-195777500D03*
D16*
X437106250Y-196762500D03*
X437106250Y-195862500D03*
X435326250Y-195742500D03*
X435326250Y-196642500D03*
X435326250Y-194842500D03*
%TD*%
D10*
%TO.C,D197*%
X375068750Y-285460000D03*
D11*
X375068750Y-283470000D03*
D10*
X369468750Y-283470000D03*
D12*
X369468750Y-285470000D03*
%TD*%
D15*
%TO.C,MX20*%
X198596250Y-193357500D03*
D13*
X190976250Y-198437500D03*
D14*
X196056250Y-198437500D03*
D15*
X192246250Y-195897500D03*
D13*
X201136250Y-198437500D03*
D16*
X203306250Y-192462500D03*
X201406250Y-194262500D03*
X201406250Y-193362500D03*
X203306250Y-194262500D03*
D17*
X202346250Y-193357500D03*
D16*
X201406250Y-192462500D03*
X203306250Y-193362500D03*
X187676250Y-195742500D03*
X189456250Y-196762500D03*
X189456250Y-194962500D03*
X187676250Y-194842500D03*
D17*
X188616250Y-195777500D03*
D16*
X189456250Y-195862500D03*
X187676250Y-196642500D03*
%TD*%
D14*
%TO.C,MX54*%
X172243750Y-236537500D03*
D13*
X167163750Y-236537500D03*
D15*
X168433750Y-233997500D03*
X174783750Y-231457500D03*
D13*
X177323750Y-236537500D03*
D16*
X179493750Y-230562500D03*
X179493750Y-231462500D03*
X177593750Y-230562500D03*
X179493750Y-232362500D03*
X177593750Y-232362500D03*
D17*
X178533750Y-231457500D03*
D16*
X177593750Y-231462500D03*
X165643750Y-233962500D03*
D17*
X164803750Y-233877500D03*
D16*
X163863750Y-234742500D03*
X165643750Y-233062500D03*
X163863750Y-232942500D03*
X163863750Y-233842500D03*
X165643750Y-234862500D03*
%TD*%
D18*
%TO.C,H3*%
X361156250Y-248443750D03*
%TD*%
%TO.C,H9*%
X111125000Y-184943750D03*
%TD*%
D10*
%TO.C,D134*%
X108368750Y-223547500D03*
D11*
X108368750Y-221557500D03*
D10*
X102768750Y-221557500D03*
D12*
X102768750Y-223557500D03*
%TD*%
D13*
%TO.C,MX12*%
X343376250Y-174625000D03*
D15*
X344646250Y-172085000D03*
D14*
X348456250Y-174625000D03*
D15*
X350996250Y-169545000D03*
D13*
X353536250Y-174625000D03*
D16*
X353806250Y-168650000D03*
X355706250Y-170450000D03*
X353806250Y-170450000D03*
X353806250Y-169550000D03*
D17*
X354746250Y-169545000D03*
D16*
X355706250Y-169550000D03*
X355706250Y-168650000D03*
X340076250Y-171030000D03*
X340076250Y-171930000D03*
X340076250Y-172830000D03*
X341856250Y-172950000D03*
D17*
X341016250Y-171965000D03*
D16*
X341856250Y-171150000D03*
X341856250Y-172050000D03*
%TD*%
D14*
%TO.C,MX51*%
X107950000Y-236537500D03*
D13*
X113030000Y-236537500D03*
X102870000Y-236537500D03*
D15*
X104140000Y-233997500D03*
X110490000Y-231457500D03*
D17*
X114240000Y-231457500D03*
D16*
X113300000Y-230562500D03*
X115200000Y-231462500D03*
X115200000Y-230562500D03*
X113300000Y-231462500D03*
X113300000Y-232362500D03*
X115200000Y-232362500D03*
X99570000Y-233842500D03*
D17*
X100510000Y-233877500D03*
D16*
X101350000Y-234862500D03*
X101350000Y-233062500D03*
X101350000Y-233962500D03*
X99570000Y-234742500D03*
X99570000Y-232942500D03*
%TD*%
D10*
%TO.C,D138*%
X189331250Y-223547500D03*
D11*
X189331250Y-221557500D03*
D10*
X183731250Y-221557500D03*
D12*
X183731250Y-223557500D03*
%TD*%
D10*
%TO.C,D166*%
X427456250Y-242597500D03*
D11*
X427456250Y-240607500D03*
D10*
X421856250Y-240607500D03*
D12*
X421856250Y-242607500D03*
%TD*%
D18*
%TO.C,H8*%
X474662500Y-185737500D03*
%TD*%
D13*
%TO.C,MX77*%
X233838750Y-255587500D03*
D15*
X241458750Y-250507500D03*
D13*
X243998750Y-255587500D03*
D15*
X235108750Y-253047500D03*
D14*
X238918750Y-255587500D03*
D17*
X245208750Y-250507500D03*
D16*
X244268750Y-251412500D03*
X246168750Y-251412500D03*
X246168750Y-249612500D03*
X246168750Y-250512500D03*
X244268750Y-249612500D03*
X244268750Y-250512500D03*
X232318750Y-252112500D03*
X230538750Y-251992500D03*
X232318750Y-253912500D03*
X230538750Y-252892500D03*
X230538750Y-253792500D03*
D17*
X231478750Y-252927500D03*
D16*
X232318750Y-253012500D03*
%TD*%
D10*
%TO.C,D185*%
X427456250Y-261647500D03*
D11*
X427456250Y-259657500D03*
D10*
X421856250Y-259657500D03*
D12*
X421856250Y-261657500D03*
%TD*%
D10*
%TO.C,D107*%
X246481250Y-180685000D03*
D11*
X246481250Y-178695000D03*
D10*
X240881250Y-178695000D03*
D12*
X240881250Y-180695000D03*
%TD*%
D10*
%TO.C,D175*%
X203618750Y-261647500D03*
D11*
X203618750Y-259657500D03*
D10*
X198018750Y-259657500D03*
D12*
X198018750Y-261657500D03*
%TD*%
D10*
%TO.C,D170*%
X105987500Y-261647500D03*
D11*
X105987500Y-259657500D03*
D10*
X100387500Y-259657500D03*
D12*
X100387500Y-261657500D03*
%TD*%
D10*
%TO.C,D202*%
X186950000Y-280697500D03*
D11*
X186950000Y-278707500D03*
D10*
X181350000Y-278707500D03*
D12*
X181350000Y-280707500D03*
%TD*%
D10*
%TO.C,D146*%
X341731250Y-223547500D03*
D11*
X341731250Y-221557500D03*
D10*
X336131250Y-221557500D03*
D12*
X336131250Y-223557500D03*
%TD*%
D14*
%TO.C,MX79*%
X277018750Y-255587500D03*
D15*
X279558750Y-250507500D03*
X273208750Y-253047500D03*
D13*
X282098750Y-255587500D03*
X271938750Y-255587500D03*
D16*
X282368750Y-250512500D03*
X284268750Y-249612500D03*
D17*
X283308750Y-250507500D03*
D16*
X284268750Y-250512500D03*
X282368750Y-249612500D03*
X282368750Y-251412500D03*
X284268750Y-251412500D03*
X270418750Y-253912500D03*
X270418750Y-252112500D03*
X268638750Y-251992500D03*
X268638750Y-253792500D03*
D17*
X269578750Y-252927500D03*
D16*
X268638750Y-252892500D03*
X270418750Y-253012500D03*
%TD*%
D10*
%TO.C,D140*%
X227431250Y-223547500D03*
D11*
X227431250Y-221557500D03*
D10*
X221831250Y-221557500D03*
D12*
X221831250Y-223557500D03*
%TD*%
D15*
%TO.C,MX49*%
X446246250Y-212407500D03*
X439896250Y-214947500D03*
D13*
X448786250Y-217487500D03*
D14*
X443706250Y-217487500D03*
D13*
X438626250Y-217487500D03*
D16*
X450956250Y-213312500D03*
X449056250Y-213312500D03*
X450956250Y-212412500D03*
X450956250Y-211512500D03*
X449056250Y-211512500D03*
D17*
X449996250Y-212407500D03*
D16*
X449056250Y-212412500D03*
X435326250Y-213892500D03*
X437106250Y-214912500D03*
X437106250Y-214012500D03*
D17*
X436266250Y-214827500D03*
D16*
X437106250Y-215812500D03*
X435326250Y-214792500D03*
X435326250Y-215692500D03*
%TD*%
D15*
%TO.C,MX45*%
X322421250Y-212407500D03*
D14*
X319881250Y-217487500D03*
D15*
X316071250Y-214947500D03*
D13*
X314801250Y-217487500D03*
X324961250Y-217487500D03*
D16*
X325231250Y-213312500D03*
X327131250Y-213312500D03*
X325231250Y-212412500D03*
X327131250Y-212412500D03*
X325231250Y-211512500D03*
D17*
X326171250Y-212407500D03*
D16*
X327131250Y-211512500D03*
X313281250Y-214912500D03*
X313281250Y-215812500D03*
X311501250Y-214792500D03*
D17*
X312441250Y-214827500D03*
D16*
X311501250Y-215692500D03*
X313281250Y-214012500D03*
X311501250Y-213892500D03*
%TD*%
D10*
%TO.C,D188*%
X484606250Y-271172500D03*
D11*
X484606250Y-269182500D03*
D10*
X479006250Y-269182500D03*
D12*
X479006250Y-271182500D03*
%TD*%
D10*
%TO.C,D137*%
X170281250Y-223547500D03*
D11*
X170281250Y-221557500D03*
D10*
X164681250Y-221557500D03*
D12*
X164681250Y-223557500D03*
%TD*%
D13*
%TO.C,MX42*%
X267811250Y-217487500D03*
D15*
X265271250Y-212407500D03*
D13*
X257651250Y-217487500D03*
D14*
X262731250Y-217487500D03*
D15*
X258921250Y-214947500D03*
D17*
X269021250Y-212407500D03*
D16*
X269981250Y-211512500D03*
X268081250Y-213312500D03*
X268081250Y-212412500D03*
X269981250Y-212412500D03*
X269981250Y-213312500D03*
X268081250Y-211512500D03*
X254351250Y-213892500D03*
X254351250Y-215692500D03*
X256131250Y-215812500D03*
X256131250Y-214912500D03*
X256131250Y-214012500D03*
X254351250Y-214792500D03*
D17*
X255291250Y-214827500D03*
%TD*%
D10*
%TO.C,D193*%
X294106250Y-280697500D03*
D11*
X294106250Y-278707500D03*
D10*
X288506250Y-278707500D03*
D12*
X288506250Y-280707500D03*
%TD*%
D14*
%TO.C,MX10*%
X310356250Y-174625000D03*
D13*
X305276250Y-174625000D03*
X315436250Y-174625000D03*
D15*
X306546250Y-172085000D03*
X312896250Y-169545000D03*
D16*
X315706250Y-168650000D03*
X317606250Y-169550000D03*
X315706250Y-170450000D03*
X315706250Y-169550000D03*
D17*
X316646250Y-169545000D03*
D16*
X317606250Y-168650000D03*
X317606250Y-170450000D03*
X301976250Y-171930000D03*
X303756250Y-172050000D03*
X301976250Y-172830000D03*
X301976250Y-171030000D03*
X303756250Y-171150000D03*
X303756250Y-172950000D03*
D17*
X302916250Y-171965000D03*
%TD*%
D14*
%TO.C,MX92*%
X229537500Y-274637500D03*
D15*
X224790000Y-269557500D03*
D13*
X224457500Y-274637500D03*
D19*
X286687500Y-267652500D03*
D13*
X227330000Y-274637500D03*
D15*
X232077500Y-269557500D03*
D14*
X172250100Y-282892500D03*
D13*
X234617500Y-274637500D03*
X217170000Y-274637500D03*
D14*
X272249900Y-282892500D03*
D15*
X225727500Y-272097500D03*
D19*
X272249900Y-267652500D03*
X172250100Y-267652500D03*
D14*
X286687500Y-282892500D03*
D15*
X218440000Y-272097500D03*
D14*
X222250000Y-274637500D03*
D16*
X227600000Y-270462500D03*
X227600000Y-269562500D03*
X229500000Y-270462500D03*
X236787500Y-268662500D03*
D17*
X235827500Y-269557500D03*
D16*
X229500000Y-269562500D03*
X227600000Y-268662500D03*
X236787500Y-269562500D03*
X234887500Y-270462500D03*
X229500000Y-268662500D03*
X234887500Y-269562500D03*
X236787500Y-270462500D03*
D17*
X228540000Y-269557500D03*
D16*
X234887500Y-268662500D03*
X222937500Y-272062500D03*
X215650000Y-272062500D03*
X215650000Y-271162500D03*
D20*
X222107750Y-271666500D03*
D16*
X221157500Y-271942500D03*
X215650000Y-272962500D03*
X213870000Y-271042500D03*
X213870000Y-272842500D03*
X213870000Y-271942500D03*
X222937500Y-271162500D03*
X221157500Y-271042500D03*
D17*
X214810000Y-271977500D03*
%TD*%
D10*
%TO.C,D163*%
X346493750Y-242597500D03*
D11*
X346493750Y-240607500D03*
D10*
X340893750Y-240607500D03*
D12*
X340893750Y-242607500D03*
%TD*%
D10*
%TO.C,D139*%
X208381250Y-223547500D03*
D11*
X208381250Y-221557500D03*
D10*
X202781250Y-221557500D03*
D12*
X202781250Y-223557500D03*
%TD*%
D15*
%TO.C,MX9*%
X284321250Y-169545000D03*
D13*
X286861250Y-174625000D03*
D14*
X281781250Y-174625000D03*
D15*
X277971250Y-172085000D03*
D13*
X276701250Y-174625000D03*
D16*
X287131250Y-169550000D03*
D17*
X288071250Y-169545000D03*
D16*
X289031250Y-170450000D03*
X289031250Y-169550000D03*
X287131250Y-168650000D03*
X287131250Y-170450000D03*
X289031250Y-168650000D03*
X273401250Y-171930000D03*
X275181250Y-172050000D03*
X273401250Y-171030000D03*
D17*
X274341250Y-171965000D03*
D16*
X273401250Y-172830000D03*
X275181250Y-172950000D03*
X275181250Y-171150000D03*
%TD*%
D13*
%TO.C,MX18*%
X163036250Y-198437500D03*
D14*
X157956250Y-198437500D03*
D15*
X160496250Y-193357500D03*
X154146250Y-195897500D03*
D13*
X152876250Y-198437500D03*
D16*
X163306250Y-194262500D03*
X163306250Y-193362500D03*
X165206250Y-193362500D03*
X165206250Y-192462500D03*
D17*
X164246250Y-193357500D03*
D16*
X163306250Y-192462500D03*
X165206250Y-194262500D03*
X149576250Y-195742500D03*
X151356250Y-196762500D03*
D17*
X150516250Y-195777500D03*
D16*
X151356250Y-194962500D03*
X151356250Y-195862500D03*
X149576250Y-196642500D03*
X149576250Y-194842500D03*
%TD*%
D10*
%TO.C,D141*%
X246481250Y-223547500D03*
D11*
X246481250Y-221557500D03*
D10*
X240881250Y-221557500D03*
D12*
X240881250Y-223557500D03*
%TD*%
D10*
%TO.C,D148*%
X427456250Y-223547500D03*
D11*
X427456250Y-221557500D03*
D10*
X421856250Y-221557500D03*
D12*
X421856250Y-223557500D03*
%TD*%
D13*
%TO.C,MX15*%
X95726250Y-198437500D03*
D14*
X100806250Y-198437500D03*
D13*
X105886250Y-198437500D03*
D15*
X103346250Y-193357500D03*
X96996250Y-195897500D03*
D16*
X106156250Y-193362500D03*
X106156250Y-192462500D03*
X108056250Y-193362500D03*
X108056250Y-194262500D03*
X108056250Y-192462500D03*
D17*
X107096250Y-193357500D03*
D16*
X106156250Y-194262500D03*
X92426250Y-194842500D03*
D17*
X93366250Y-195777500D03*
D16*
X94206250Y-196762500D03*
X94206250Y-195862500D03*
X92426250Y-195742500D03*
X92426250Y-196642500D03*
X94206250Y-194962500D03*
%TD*%
D14*
%TO.C,MX5*%
X196056250Y-174625000D03*
D15*
X198596250Y-169545000D03*
D13*
X190976250Y-174625000D03*
D15*
X192246250Y-172085000D03*
D13*
X201136250Y-174625000D03*
D17*
X202346250Y-169545000D03*
D16*
X203306250Y-168650000D03*
X201406250Y-168650000D03*
X201406250Y-170450000D03*
X203306250Y-170450000D03*
X203306250Y-169550000D03*
X201406250Y-169550000D03*
X189456250Y-172950000D03*
D17*
X188616250Y-171965000D03*
D16*
X189456250Y-172050000D03*
X187676250Y-171030000D03*
X187676250Y-172830000D03*
X187676250Y-171930000D03*
X189456250Y-171150000D03*
%TD*%
D13*
%TO.C,MX21*%
X220186250Y-198437500D03*
D14*
X215106250Y-198437500D03*
D13*
X210026250Y-198437500D03*
D15*
X211296250Y-195897500D03*
X217646250Y-193357500D03*
D16*
X220456250Y-192462500D03*
X220456250Y-194262500D03*
X222356250Y-193362500D03*
X220456250Y-193362500D03*
X222356250Y-192462500D03*
X222356250Y-194262500D03*
D17*
X221396250Y-193357500D03*
X207666250Y-195777500D03*
D16*
X206726250Y-194842500D03*
X208506250Y-194962500D03*
X208506250Y-195862500D03*
X208506250Y-196762500D03*
X206726250Y-196642500D03*
X206726250Y-195742500D03*
%TD*%
D10*
%TO.C,D113*%
X370306250Y-180685000D03*
D11*
X370306250Y-178695000D03*
D10*
X364706250Y-178695000D03*
D12*
X364706250Y-180695000D03*
%TD*%
D10*
%TO.C,D109*%
X284581250Y-180685000D03*
D11*
X284581250Y-178695000D03*
D10*
X278981250Y-178695000D03*
D12*
X278981250Y-180695000D03*
%TD*%
D13*
%TO.C,MX84*%
X401161250Y-255587500D03*
X391001250Y-255587500D03*
D15*
X392271250Y-253047500D03*
X398621250Y-250507500D03*
D14*
X396081250Y-255587500D03*
D16*
X403331250Y-251412500D03*
D17*
X402371250Y-250507500D03*
D16*
X401431250Y-251412500D03*
X403331250Y-249612500D03*
X403331250Y-250512500D03*
X401431250Y-249612500D03*
X401431250Y-250512500D03*
X389481250Y-253912500D03*
X389481250Y-252112500D03*
X387701250Y-253792500D03*
X389481250Y-253012500D03*
D17*
X388641250Y-252927500D03*
D16*
X387701250Y-251992500D03*
X387701250Y-252892500D03*
%TD*%
D15*
%TO.C,MX44*%
X303371250Y-212407500D03*
D13*
X295751250Y-217487500D03*
D14*
X300831250Y-217487500D03*
D13*
X305911250Y-217487500D03*
D15*
X297021250Y-214947500D03*
D16*
X306181250Y-211512500D03*
X306181250Y-213312500D03*
D17*
X307121250Y-212407500D03*
D16*
X308081250Y-212412500D03*
X306181250Y-212412500D03*
X308081250Y-213312500D03*
X308081250Y-211512500D03*
X294231250Y-214912500D03*
X294231250Y-215812500D03*
X292451250Y-214792500D03*
X292451250Y-215692500D03*
X294231250Y-214012500D03*
X292451250Y-213892500D03*
D17*
X293391250Y-214827500D03*
%TD*%
D10*
%TO.C,D127*%
X332206250Y-204497500D03*
D11*
X332206250Y-202507500D03*
D10*
X326606250Y-202507500D03*
D12*
X326606250Y-204507500D03*
%TD*%
D10*
%TO.C,D167*%
X446506250Y-242597500D03*
D11*
X446506250Y-240607500D03*
D10*
X440906250Y-240607500D03*
D12*
X440906250Y-242607500D03*
%TD*%
D15*
%TO.C,MX47*%
X398621250Y-212407500D03*
D14*
X396081250Y-217487500D03*
D13*
X401161250Y-217487500D03*
D15*
X392271250Y-214947500D03*
D13*
X391001250Y-217487500D03*
D16*
X403331250Y-213312500D03*
X401431250Y-211512500D03*
X403331250Y-212412500D03*
X401431250Y-212412500D03*
D17*
X402371250Y-212407500D03*
D16*
X403331250Y-211512500D03*
X401431250Y-213312500D03*
D17*
X388641250Y-214827500D03*
D16*
X387701250Y-215692500D03*
X387701250Y-213892500D03*
X387701250Y-214792500D03*
X389481250Y-215812500D03*
X389481250Y-214912500D03*
X389481250Y-214012500D03*
%TD*%
D15*
%TO.C,MX32*%
X458946250Y-195897500D03*
D14*
X462756250Y-198437500D03*
D13*
X457676250Y-198437500D03*
X467836250Y-198437500D03*
D15*
X465296250Y-193357500D03*
D16*
X468106250Y-193362500D03*
X470006250Y-192462500D03*
X470006250Y-193362500D03*
X470006250Y-194262500D03*
X468106250Y-194262500D03*
X468106250Y-192462500D03*
D17*
X469046250Y-193357500D03*
D16*
X454376250Y-196642500D03*
X456156250Y-195862500D03*
D17*
X455316250Y-195777500D03*
D16*
X456156250Y-194962500D03*
X456156250Y-196762500D03*
X454376250Y-195742500D03*
X454376250Y-194842500D03*
%TD*%
D13*
%TO.C,MX91*%
X145732500Y-274637500D03*
X155892500Y-274637500D03*
D14*
X150812500Y-274637500D03*
D15*
X147002500Y-272097500D03*
X153352500Y-269557500D03*
D16*
X158062500Y-268662500D03*
X156162500Y-268662500D03*
X156162500Y-269562500D03*
X156162500Y-270462500D03*
X158062500Y-270462500D03*
X158062500Y-269562500D03*
D17*
X157102500Y-269557500D03*
D16*
X144212500Y-272962500D03*
X142432500Y-272842500D03*
X144212500Y-271162500D03*
X142432500Y-271942500D03*
D17*
X143372500Y-271977500D03*
D16*
X142432500Y-271042500D03*
X144212500Y-272062500D03*
%TD*%
D13*
%TO.C,MX36*%
X153511250Y-217487500D03*
D14*
X148431250Y-217487500D03*
D15*
X144621250Y-214947500D03*
D13*
X143351250Y-217487500D03*
D15*
X150971250Y-212407500D03*
D17*
X154721250Y-212407500D03*
D16*
X155681250Y-212412500D03*
X153781250Y-213312500D03*
X153781250Y-211512500D03*
X155681250Y-211512500D03*
X155681250Y-213312500D03*
X153781250Y-212412500D03*
X141831250Y-215812500D03*
X141831250Y-214912500D03*
X140051250Y-214792500D03*
X141831250Y-214012500D03*
X140051250Y-213892500D03*
X140051250Y-215692500D03*
D17*
X140991250Y-214827500D03*
%TD*%
D10*
%TO.C,D183*%
X375068750Y-266410000D03*
D11*
X375068750Y-264420000D03*
D10*
X369468750Y-264420000D03*
D12*
X369468750Y-266420000D03*
%TD*%
D10*
%TO.C,D130*%
X427456250Y-204497500D03*
D11*
X427456250Y-202507500D03*
D10*
X421856250Y-202507500D03*
D12*
X421856250Y-204507500D03*
%TD*%
D15*
%TO.C,MX71*%
X127158750Y-250507500D03*
D14*
X124618750Y-255587500D03*
D15*
X120808750Y-253047500D03*
D13*
X119538750Y-255587500D03*
X129698750Y-255587500D03*
D16*
X129968750Y-250512500D03*
X129968750Y-249612500D03*
X129968750Y-251412500D03*
X131868750Y-251412500D03*
X131868750Y-250512500D03*
D17*
X130908750Y-250507500D03*
D16*
X131868750Y-249612500D03*
X116238750Y-251992500D03*
X118018750Y-253012500D03*
X116238750Y-252892500D03*
X118018750Y-252112500D03*
D17*
X117178750Y-252927500D03*
D16*
X116238750Y-253792500D03*
X118018750Y-253912500D03*
%TD*%
D10*
%TO.C,D116*%
X122656250Y-204497500D03*
D11*
X122656250Y-202507500D03*
D10*
X117056250Y-202507500D03*
D12*
X117056250Y-204507500D03*
%TD*%
D10*
%TO.C,D168*%
X465556250Y-242597500D03*
D11*
X465556250Y-240607500D03*
D10*
X459956250Y-240607500D03*
D12*
X459956250Y-242607500D03*
%TD*%
D10*
%TO.C,D176*%
X222668750Y-261647500D03*
D11*
X222668750Y-259657500D03*
D10*
X217068750Y-259657500D03*
D12*
X217068750Y-261657500D03*
%TD*%
D10*
%TO.C,D110*%
X313156250Y-180685000D03*
D11*
X313156250Y-178695000D03*
D10*
X307556250Y-178695000D03*
D12*
X307556250Y-180695000D03*
%TD*%
D13*
%TO.C,MX80*%
X301148750Y-255587500D03*
D15*
X298608750Y-250507500D03*
X292258750Y-253047500D03*
D14*
X296068750Y-255587500D03*
D13*
X290988750Y-255587500D03*
D16*
X301418750Y-250512500D03*
X303318750Y-250512500D03*
D17*
X302358750Y-250507500D03*
D16*
X303318750Y-249612500D03*
X301418750Y-251412500D03*
X303318750Y-251412500D03*
X301418750Y-249612500D03*
X289468750Y-252112500D03*
X287688750Y-252892500D03*
X289468750Y-253912500D03*
D17*
X288628750Y-252927500D03*
D16*
X287688750Y-253792500D03*
X289468750Y-253012500D03*
X287688750Y-251992500D03*
%TD*%
D10*
%TO.C,D128*%
X360781250Y-204497500D03*
D11*
X360781250Y-202507500D03*
D10*
X355181250Y-202507500D03*
D12*
X355181250Y-204507500D03*
%TD*%
D10*
%TO.C,D118*%
X160756250Y-204497500D03*
D11*
X160756250Y-202507500D03*
D10*
X155156250Y-202507500D03*
D12*
X155156250Y-204507500D03*
%TD*%
D14*
%TO.C,MX89*%
X105568750Y-274637500D03*
D15*
X108108750Y-269557500D03*
D13*
X100488750Y-274637500D03*
D15*
X101758750Y-272097500D03*
D13*
X110648750Y-274637500D03*
D16*
X110918750Y-270462500D03*
X112818750Y-270462500D03*
X112818750Y-269562500D03*
X110918750Y-268662500D03*
D17*
X111858750Y-269557500D03*
D16*
X112818750Y-268662500D03*
X110918750Y-269562500D03*
X98968750Y-272962500D03*
X97188750Y-271942500D03*
X98968750Y-272062500D03*
X97188750Y-271042500D03*
D17*
X98128750Y-271977500D03*
D16*
X97188750Y-272842500D03*
X98968750Y-271162500D03*
%TD*%
D13*
%TO.C,MX66*%
X429736250Y-236537500D03*
D15*
X427196250Y-231457500D03*
D14*
X424656250Y-236537500D03*
D15*
X420846250Y-233997500D03*
D13*
X419576250Y-236537500D03*
D16*
X431906250Y-231462500D03*
X430006250Y-232362500D03*
X430006250Y-231462500D03*
D17*
X430946250Y-231457500D03*
D16*
X430006250Y-230562500D03*
X431906250Y-230562500D03*
X431906250Y-232362500D03*
X418056250Y-234862500D03*
X418056250Y-233962500D03*
D17*
X417216250Y-233877500D03*
D16*
X418056250Y-233062500D03*
X416276250Y-233842500D03*
X416276250Y-232942500D03*
X416276250Y-234742500D03*
%TD*%
D10*
%TO.C,D186*%
X446506250Y-261647500D03*
D11*
X446506250Y-259657500D03*
D10*
X440906250Y-259657500D03*
D12*
X440906250Y-261657500D03*
%TD*%
D13*
%TO.C,MX3*%
X163036250Y-174625000D03*
D15*
X160496250Y-169545000D03*
D14*
X157956250Y-174625000D03*
D15*
X154146250Y-172085000D03*
D13*
X152876250Y-174625000D03*
D16*
X165206250Y-170450000D03*
X165206250Y-168650000D03*
X165206250Y-169550000D03*
X163306250Y-168650000D03*
D17*
X164246250Y-169545000D03*
D16*
X163306250Y-169550000D03*
X163306250Y-170450000D03*
D17*
X150516250Y-171965000D03*
D16*
X151356250Y-172050000D03*
X149576250Y-172830000D03*
X149576250Y-171930000D03*
X151356250Y-172950000D03*
X151356250Y-171150000D03*
X149576250Y-171030000D03*
%TD*%
D10*
%TO.C,D171*%
X127418750Y-261647500D03*
D11*
X127418750Y-259657500D03*
D10*
X121818750Y-259657500D03*
D12*
X121818750Y-261657500D03*
%TD*%
D14*
%TO.C,MX61*%
X305593750Y-236537500D03*
D15*
X308133750Y-231457500D03*
D13*
X310673750Y-236537500D03*
D15*
X301783750Y-233997500D03*
D13*
X300513750Y-236537500D03*
D16*
X310943750Y-230562500D03*
X312843750Y-231462500D03*
D17*
X311883750Y-231457500D03*
D16*
X312843750Y-232362500D03*
X310943750Y-232362500D03*
X312843750Y-230562500D03*
X310943750Y-231462500D03*
X297213750Y-234742500D03*
X298993750Y-233062500D03*
X298993750Y-234862500D03*
X297213750Y-232942500D03*
X297213750Y-233842500D03*
D17*
X298153750Y-233877500D03*
D16*
X298993750Y-233962500D03*
%TD*%
D13*
%TO.C,MX100*%
X457676250Y-274637500D03*
D15*
X458946250Y-272097500D03*
X465296250Y-269557500D03*
D14*
X462756250Y-274637500D03*
D13*
X467836250Y-274637500D03*
D17*
X469046250Y-269557500D03*
D16*
X468106250Y-269562500D03*
X470006250Y-269562500D03*
X470006250Y-270462500D03*
X468106250Y-270462500D03*
X468106250Y-268662500D03*
X470006250Y-268662500D03*
D17*
X455316250Y-271977500D03*
D16*
X454376250Y-271042500D03*
X456156250Y-272962500D03*
X456156250Y-272062500D03*
X454376250Y-271942500D03*
X456156250Y-271162500D03*
X454376250Y-272842500D03*
%TD*%
D10*
%TO.C,D105*%
X198856250Y-180685000D03*
D11*
X198856250Y-178695000D03*
D10*
X193256250Y-178695000D03*
D12*
X193256250Y-180695000D03*
%TD*%
D14*
%TO.C,MX86*%
X443706250Y-255587500D03*
D15*
X439896250Y-253047500D03*
D13*
X448786250Y-255587500D03*
D15*
X446246250Y-250507500D03*
D13*
X438626250Y-255587500D03*
D16*
X450956250Y-251412500D03*
X449056250Y-251412500D03*
X449056250Y-249612500D03*
X450956250Y-250512500D03*
D17*
X449996250Y-250507500D03*
D16*
X449056250Y-250512500D03*
X450956250Y-249612500D03*
X435326250Y-251992500D03*
X435326250Y-252892500D03*
X435326250Y-253792500D03*
D17*
X436266250Y-252927500D03*
D16*
X437106250Y-253912500D03*
X437106250Y-252112500D03*
X437106250Y-253012500D03*
%TD*%
D13*
%TO.C,MX39*%
X210661250Y-217487500D03*
X200501250Y-217487500D03*
D14*
X205581250Y-217487500D03*
D15*
X208121250Y-212407500D03*
X201771250Y-214947500D03*
D16*
X212831250Y-211512500D03*
X212831250Y-213312500D03*
X210931250Y-211512500D03*
X210931250Y-212412500D03*
X212831250Y-212412500D03*
X210931250Y-213312500D03*
D17*
X211871250Y-212407500D03*
D16*
X197201250Y-214792500D03*
D17*
X198141250Y-214827500D03*
D16*
X197201250Y-215692500D03*
X198981250Y-214912500D03*
X198981250Y-215812500D03*
X197201250Y-213892500D03*
X198981250Y-214012500D03*
%TD*%
D10*
%TO.C,D192*%
X227431250Y-280697500D03*
D11*
X227431250Y-278707500D03*
D10*
X221831250Y-278707500D03*
D12*
X221831250Y-280707500D03*
%TD*%
D14*
%TO.C,MX87*%
X462756250Y-255587500D03*
D13*
X457676250Y-255587500D03*
X467836250Y-255587500D03*
D15*
X465296250Y-250507500D03*
X458946250Y-253047500D03*
D17*
X469046250Y-250507500D03*
D16*
X468106250Y-251412500D03*
X468106250Y-250512500D03*
X468106250Y-249612500D03*
X470006250Y-251412500D03*
X470006250Y-249612500D03*
X470006250Y-250512500D03*
X456156250Y-252112500D03*
X456156250Y-253012500D03*
X456156250Y-253912500D03*
X454376250Y-252892500D03*
X454376250Y-251992500D03*
X454376250Y-253792500D03*
D17*
X455316250Y-252927500D03*
%TD*%
D13*
%TO.C,MX83*%
X367188750Y-260350000D03*
D14*
X372268750Y-260350000D03*
D13*
X377348750Y-260350000D03*
D15*
X368458750Y-257810000D03*
X374808750Y-255270000D03*
D16*
X379518750Y-255275000D03*
X379518750Y-256175000D03*
D17*
X378558750Y-255270000D03*
D16*
X377618750Y-255275000D03*
X377618750Y-254375000D03*
X379518750Y-254375000D03*
X377618750Y-256175000D03*
X363888750Y-258555000D03*
D17*
X364828750Y-257690000D03*
D16*
X365668750Y-256875000D03*
X365668750Y-258675000D03*
X363888750Y-256755000D03*
X365668750Y-257775000D03*
X363888750Y-257655000D03*
%TD*%
D15*
%TO.C,MX78*%
X254158750Y-253047500D03*
D13*
X252888750Y-255587500D03*
D14*
X257968750Y-255587500D03*
D13*
X263048750Y-255587500D03*
D15*
X260508750Y-250507500D03*
D16*
X265218750Y-249612500D03*
X263318750Y-250512500D03*
X265218750Y-250512500D03*
X263318750Y-251412500D03*
X265218750Y-251412500D03*
X263318750Y-249612500D03*
D17*
X264258750Y-250507500D03*
D16*
X251368750Y-253912500D03*
X251368750Y-252112500D03*
X249588750Y-251992500D03*
X249588750Y-252892500D03*
X251368750Y-253012500D03*
D17*
X250528750Y-252927500D03*
D16*
X249588750Y-253792500D03*
%TD*%
D10*
%TO.C,D120*%
X198856250Y-204497500D03*
D11*
X198856250Y-202507500D03*
D10*
X193256250Y-202507500D03*
D12*
X193256250Y-204507500D03*
%TD*%
D18*
%TO.C,H5*%
X277812500Y-229393750D03*
%TD*%
D10*
%TO.C,D122*%
X236956250Y-204497500D03*
D11*
X236956250Y-202507500D03*
D10*
X231356250Y-202507500D03*
D12*
X231356250Y-204507500D03*
%TD*%
D15*
%TO.C,MX40*%
X220821250Y-214947500D03*
D14*
X224631250Y-217487500D03*
D13*
X219551250Y-217487500D03*
D15*
X227171250Y-212407500D03*
D13*
X229711250Y-217487500D03*
D16*
X229981250Y-212412500D03*
X231881250Y-212412500D03*
X229981250Y-213312500D03*
D17*
X230921250Y-212407500D03*
D16*
X229981250Y-211512500D03*
X231881250Y-211512500D03*
X231881250Y-213312500D03*
X218031250Y-215812500D03*
X216251250Y-213892500D03*
X218031250Y-214912500D03*
X216251250Y-215692500D03*
X218031250Y-214012500D03*
D17*
X217191250Y-214827500D03*
D16*
X216251250Y-214792500D03*
%TD*%
D10*
%TO.C,D129*%
X398881250Y-204497500D03*
D11*
X398881250Y-202507500D03*
D10*
X393281250Y-202507500D03*
D12*
X393281250Y-204507500D03*
%TD*%
D10*
%TO.C,D155*%
X194093750Y-242597500D03*
D11*
X194093750Y-240607500D03*
D10*
X188493750Y-240607500D03*
D12*
X188493750Y-242607500D03*
%TD*%
D13*
%TO.C,MX81*%
X310038750Y-255587500D03*
D15*
X311308750Y-253047500D03*
X317658750Y-250507500D03*
D13*
X320198750Y-255587500D03*
D14*
X315118750Y-255587500D03*
D16*
X320468750Y-251412500D03*
X322368750Y-249612500D03*
X322368750Y-250512500D03*
X320468750Y-250512500D03*
D17*
X321408750Y-250507500D03*
D16*
X322368750Y-251412500D03*
X320468750Y-249612500D03*
D17*
X307678750Y-252927500D03*
D16*
X306738750Y-251992500D03*
X308518750Y-253012500D03*
X306738750Y-252892500D03*
X308518750Y-253912500D03*
X306738750Y-253792500D03*
X308518750Y-252112500D03*
%TD*%
D10*
%TO.C,D103*%
X160756250Y-180685000D03*
D11*
X160756250Y-178695000D03*
D10*
X155156250Y-178695000D03*
D12*
X155156250Y-180695000D03*
%TD*%
D13*
%TO.C,MX25*%
X296386250Y-198437500D03*
D15*
X293846250Y-193357500D03*
D13*
X286226250Y-198437500D03*
D14*
X291306250Y-198437500D03*
D15*
X287496250Y-195897500D03*
D16*
X296656250Y-192462500D03*
X298556250Y-194262500D03*
X298556250Y-192462500D03*
X298556250Y-193362500D03*
X296656250Y-193362500D03*
D17*
X297596250Y-193357500D03*
D16*
X296656250Y-194262500D03*
X282926250Y-195742500D03*
X284706250Y-194962500D03*
D17*
X283866250Y-195777500D03*
D16*
X282926250Y-196642500D03*
X284706250Y-195862500D03*
X284706250Y-196762500D03*
X282926250Y-194842500D03*
%TD*%
D10*
%TO.C,D106*%
X227431250Y-180685000D03*
D11*
X227431250Y-178695000D03*
D10*
X221831250Y-178695000D03*
D12*
X221831250Y-180695000D03*
%TD*%
D15*
%TO.C,MX52*%
X130333750Y-233997500D03*
X136683750Y-231457500D03*
D13*
X139223750Y-236537500D03*
D14*
X134143750Y-236537500D03*
D13*
X129063750Y-236537500D03*
D16*
X139493750Y-231462500D03*
X141393750Y-232362500D03*
X139493750Y-232362500D03*
D17*
X140433750Y-231457500D03*
D16*
X141393750Y-231462500D03*
X141393750Y-230562500D03*
X139493750Y-230562500D03*
X125763750Y-233842500D03*
X127543750Y-233062500D03*
X125763750Y-232942500D03*
D17*
X126703750Y-233877500D03*
D16*
X125763750Y-234742500D03*
X127543750Y-233962500D03*
X127543750Y-234862500D03*
%TD*%
D10*
%TO.C,D181*%
X317918750Y-261647500D03*
D11*
X317918750Y-259657500D03*
D10*
X312318750Y-259657500D03*
D12*
X312318750Y-261657500D03*
%TD*%
D10*
%TO.C,D184*%
X398881250Y-261647500D03*
D11*
X398881250Y-259657500D03*
D10*
X393281250Y-259657500D03*
D12*
X393281250Y-261657500D03*
%TD*%
D10*
%TO.C,D114*%
X398881250Y-180685000D03*
D11*
X398881250Y-178695000D03*
D10*
X393281250Y-178695000D03*
D12*
X393281250Y-180695000D03*
%TD*%
D14*
%TO.C,MX28*%
X369919250Y-206692500D03*
D13*
X352901250Y-198503639D03*
D15*
X354171250Y-195963639D03*
X360521250Y-193423639D03*
D14*
X357981250Y-198503639D03*
D13*
X363061250Y-198503639D03*
D14*
X346043250Y-206692500D03*
D19*
X346043250Y-191452500D03*
X369919250Y-191452500D03*
D17*
X364271250Y-193423639D03*
D16*
X365231250Y-193428639D03*
X365231250Y-194328639D03*
X365231250Y-192528639D03*
X363331250Y-193428639D03*
X363331250Y-194328639D03*
X363331250Y-192528639D03*
X351381250Y-196828639D03*
X349601250Y-195808639D03*
X349601250Y-196708639D03*
X351381250Y-195928639D03*
X349601250Y-194908639D03*
D17*
X350541250Y-195843639D03*
D16*
X351381250Y-195028639D03*
%TD*%
D13*
%TO.C,MX97*%
X367188750Y-279400000D03*
D14*
X372268750Y-279400000D03*
D15*
X374808750Y-274320000D03*
X368458750Y-276860000D03*
D13*
X377348750Y-279400000D03*
D16*
X377618750Y-273425000D03*
X377618750Y-275225000D03*
D17*
X378558750Y-274320000D03*
D16*
X379518750Y-275225000D03*
X377618750Y-274325000D03*
X379518750Y-274325000D03*
X379518750Y-273425000D03*
X363888750Y-275805000D03*
X363888750Y-277605000D03*
X365668750Y-276825000D03*
D17*
X364828750Y-276740000D03*
D16*
X365668750Y-275925000D03*
X363888750Y-276705000D03*
X365668750Y-277725000D03*
%TD*%
D18*
%TO.C,H4*%
X208756250Y-170656250D03*
%TD*%
D13*
%TO.C,MX63*%
X338613750Y-236537500D03*
D14*
X343693750Y-236537500D03*
D13*
X348773750Y-236537500D03*
D15*
X339883750Y-233997500D03*
X346233750Y-231457500D03*
D17*
X349983750Y-231457500D03*
D16*
X349043750Y-230562500D03*
X349043750Y-231462500D03*
X349043750Y-232362500D03*
X350943750Y-232362500D03*
X350943750Y-230562500D03*
X350943750Y-231462500D03*
X335313750Y-232942500D03*
D17*
X336253750Y-233877500D03*
D16*
X337093750Y-233062500D03*
X337093750Y-234862500D03*
X335313750Y-234742500D03*
X335313750Y-233842500D03*
X337093750Y-233962500D03*
%TD*%
D10*
%TO.C,D156*%
X213143750Y-242597500D03*
D11*
X213143750Y-240607500D03*
D10*
X207543750Y-240607500D03*
D12*
X207543750Y-242607500D03*
%TD*%
D15*
%TO.C,MX16*%
X122396250Y-193357500D03*
D13*
X114776250Y-198437500D03*
X124936250Y-198437500D03*
D15*
X116046250Y-195897500D03*
D14*
X119856250Y-198437500D03*
D16*
X127106250Y-193362500D03*
X125206250Y-192462500D03*
D17*
X126146250Y-193357500D03*
D16*
X125206250Y-193362500D03*
X125206250Y-194262500D03*
X127106250Y-194262500D03*
X127106250Y-192462500D03*
X111476250Y-195742500D03*
X113256250Y-195862500D03*
X111476250Y-196642500D03*
X113256250Y-196762500D03*
X111476250Y-194842500D03*
X113256250Y-194962500D03*
D17*
X112416250Y-195777500D03*
%TD*%
D10*
%TO.C,D159*%
X270293750Y-242597500D03*
D11*
X270293750Y-240607500D03*
D10*
X264693750Y-240607500D03*
D12*
X264693750Y-242607500D03*
%TD*%
D15*
%TO.C,MX76*%
X222408750Y-250507500D03*
D14*
X219868750Y-255587500D03*
D13*
X214788750Y-255587500D03*
D15*
X216058750Y-253047500D03*
D13*
X224948750Y-255587500D03*
D16*
X227118750Y-251412500D03*
D17*
X226158750Y-250507500D03*
D16*
X225218750Y-250512500D03*
X227118750Y-250512500D03*
X225218750Y-249612500D03*
X225218750Y-251412500D03*
X227118750Y-249612500D03*
X213268750Y-253012500D03*
X211488750Y-252892500D03*
X211488750Y-253792500D03*
X213268750Y-252112500D03*
D17*
X212428750Y-252927500D03*
D16*
X211488750Y-251992500D03*
X213268750Y-253912500D03*
%TD*%
D15*
%TO.C,MX14*%
X392271250Y-172085000D03*
D13*
X391001250Y-174625000D03*
X401161250Y-174625000D03*
D14*
X396081250Y-174625000D03*
D15*
X398621250Y-169545000D03*
D16*
X403331250Y-170450000D03*
X401431250Y-168650000D03*
X401431250Y-170450000D03*
X401431250Y-169550000D03*
X403331250Y-168650000D03*
X403331250Y-169550000D03*
D17*
X402371250Y-169545000D03*
D16*
X389481250Y-172950000D03*
X389481250Y-171150000D03*
X387701250Y-171030000D03*
X389481250Y-172050000D03*
D17*
X388641250Y-171965000D03*
D16*
X387701250Y-172830000D03*
X387701250Y-171930000D03*
%TD*%
D13*
%TO.C,MX65*%
X391001250Y-236537500D03*
D15*
X392271250Y-233997500D03*
D13*
X401161250Y-236537500D03*
D14*
X396081250Y-236537500D03*
D15*
X398621250Y-231457500D03*
D16*
X401431250Y-230562500D03*
X403331250Y-230562500D03*
X401431250Y-231462500D03*
X401431250Y-232362500D03*
D17*
X402371250Y-231457500D03*
D16*
X403331250Y-232362500D03*
X403331250Y-231462500D03*
X387701250Y-232942500D03*
X389481250Y-233062500D03*
X387701250Y-233842500D03*
X389481250Y-233962500D03*
X387701250Y-234742500D03*
X389481250Y-234862500D03*
D17*
X388641250Y-233877500D03*
%TD*%
D14*
%TO.C,MX75*%
X200818750Y-255587500D03*
D13*
X205898750Y-255587500D03*
D15*
X203358750Y-250507500D03*
D13*
X195738750Y-255587500D03*
D15*
X197008750Y-253047500D03*
D16*
X206168750Y-249612500D03*
X208068750Y-249612500D03*
X206168750Y-250512500D03*
X208068750Y-250512500D03*
X206168750Y-251412500D03*
D17*
X207108750Y-250507500D03*
D16*
X208068750Y-251412500D03*
X194218750Y-252112500D03*
X194218750Y-253012500D03*
X192438750Y-251992500D03*
X192438750Y-253792500D03*
X192438750Y-252892500D03*
X194218750Y-253912500D03*
D17*
X193378750Y-252927500D03*
%TD*%
D10*
%TO.C,D172*%
X146468750Y-261647500D03*
D11*
X146468750Y-259657500D03*
D10*
X140868750Y-259657500D03*
D12*
X140868750Y-261657500D03*
%TD*%
D18*
%TO.C,H7*%
X381793750Y-172243750D03*
%TD*%
D10*
%TO.C,D117*%
X141706250Y-204497500D03*
D11*
X141706250Y-202507500D03*
D10*
X136106250Y-202507500D03*
D12*
X136106250Y-204507500D03*
%TD*%
D10*
%TO.C,D173*%
X165518750Y-261647500D03*
D11*
X165518750Y-259657500D03*
D10*
X159918750Y-259657500D03*
D12*
X159918750Y-261657500D03*
%TD*%
D10*
%TO.C,D178*%
X260768750Y-261647500D03*
D11*
X260768750Y-259657500D03*
D10*
X255168750Y-259657500D03*
D12*
X255168750Y-261657500D03*
%TD*%
D13*
%TO.C,MX50*%
X457676250Y-217487500D03*
D15*
X458946250Y-214947500D03*
D13*
X467836250Y-217487500D03*
D14*
X462756250Y-217487500D03*
D15*
X465296250Y-212407500D03*
D16*
X468106250Y-211512500D03*
X468106250Y-212412500D03*
D17*
X469046250Y-212407500D03*
D16*
X470006250Y-211512500D03*
X470006250Y-212412500D03*
X470006250Y-213312500D03*
X468106250Y-213312500D03*
X456156250Y-214912500D03*
X454376250Y-214792500D03*
X456156250Y-215812500D03*
X454376250Y-215692500D03*
D17*
X455316250Y-214827500D03*
D16*
X454376250Y-213892500D03*
X456156250Y-214012500D03*
%TD*%
D14*
%TO.C,MX70*%
X103187500Y-255587500D03*
D15*
X99377500Y-253047500D03*
D13*
X98107500Y-255587500D03*
D15*
X105727500Y-250507500D03*
D13*
X108267500Y-255587500D03*
D16*
X110437500Y-250512500D03*
X108537500Y-251412500D03*
X110437500Y-251412500D03*
X110437500Y-249612500D03*
D17*
X109477500Y-250507500D03*
D16*
X108537500Y-249612500D03*
X108537500Y-250512500D03*
X96587500Y-252112500D03*
D17*
X95747500Y-252927500D03*
D16*
X96587500Y-253912500D03*
X94807500Y-252892500D03*
X94807500Y-253792500D03*
X96587500Y-253012500D03*
X94807500Y-251992500D03*
%TD*%
D10*
%TO.C,D199*%
X436981250Y-280697500D03*
D11*
X436981250Y-278707500D03*
D10*
X431381250Y-278707500D03*
D12*
X431381250Y-280707500D03*
%TD*%
D10*
%TO.C,D143*%
X284581250Y-223547500D03*
D11*
X284581250Y-221557500D03*
D10*
X278981250Y-221557500D03*
D12*
X278981250Y-223557500D03*
%TD*%
D10*
%TO.C,D182*%
X344112500Y-261647500D03*
D11*
X344112500Y-259657500D03*
D10*
X338512500Y-259657500D03*
D12*
X338512500Y-261657500D03*
%TD*%
D15*
%TO.C,MX33*%
X484346250Y-193357500D03*
D13*
X486886250Y-198437500D03*
X476726250Y-198437500D03*
D14*
X481806250Y-198437500D03*
D15*
X477996250Y-195897500D03*
D16*
X487156250Y-194262500D03*
X487156250Y-192462500D03*
X487156250Y-193362500D03*
D17*
X488096250Y-193357500D03*
D16*
X489056250Y-193362500D03*
X489056250Y-194262500D03*
X489056250Y-192462500D03*
X475206250Y-194962500D03*
X473426250Y-195742500D03*
X473426250Y-196642500D03*
X475206250Y-196762500D03*
X475206250Y-195862500D03*
X473426250Y-194842500D03*
D17*
X474366250Y-195777500D03*
%TD*%
D10*
%TO.C,D157*%
X232193750Y-242597500D03*
D11*
X232193750Y-240607500D03*
D10*
X226593750Y-240607500D03*
D12*
X226593750Y-242607500D03*
%TD*%
D15*
%TO.C,MX72*%
X139858750Y-253047500D03*
D13*
X138588750Y-255587500D03*
D15*
X146208750Y-250507500D03*
D13*
X148748750Y-255587500D03*
D14*
X143668750Y-255587500D03*
D17*
X149958750Y-250507500D03*
D16*
X149018750Y-251412500D03*
X149018750Y-250512500D03*
X150918750Y-250512500D03*
X150918750Y-249612500D03*
X150918750Y-251412500D03*
X149018750Y-249612500D03*
X137068750Y-253012500D03*
X137068750Y-252112500D03*
X135288750Y-251992500D03*
X135288750Y-252892500D03*
D17*
X136228750Y-252927500D03*
D16*
X135288750Y-253792500D03*
X137068750Y-253912500D03*
%TD*%
D15*
%TO.C,MX94*%
X310515000Y-269557500D03*
X304165000Y-272097500D03*
D14*
X307975000Y-274637500D03*
D13*
X313055000Y-274637500D03*
D14*
X310356250Y-274637500D03*
D15*
X306546250Y-272097500D03*
D13*
X305276250Y-274637500D03*
X315436250Y-274637500D03*
X302895000Y-274637500D03*
D15*
X312896250Y-269557500D03*
D16*
X317606250Y-268662500D03*
X315706250Y-268662500D03*
X317606250Y-270462500D03*
X317606250Y-269562500D03*
X315706250Y-269562500D03*
X315706250Y-270462500D03*
D21*
X316170749Y-269557500D03*
D16*
X301375000Y-271977500D03*
X299595000Y-271042500D03*
D22*
X300934625Y-271977500D03*
D16*
X301375000Y-271042500D03*
X299595000Y-271942500D03*
X301375000Y-272842500D03*
X299595000Y-272842500D03*
%TD*%
D13*
%TO.C,MX74*%
X186848750Y-255587500D03*
X176688750Y-255587500D03*
D15*
X177958750Y-253047500D03*
X184308750Y-250507500D03*
D14*
X181768750Y-255587500D03*
D16*
X187118750Y-250512500D03*
X189018750Y-250512500D03*
X189018750Y-249612500D03*
X187118750Y-251412500D03*
X187118750Y-249612500D03*
D17*
X188058750Y-250507500D03*
D16*
X189018750Y-251412500D03*
X173388750Y-252892500D03*
X175168750Y-253912500D03*
X173388750Y-251992500D03*
X175168750Y-253012500D03*
D17*
X174328750Y-252927500D03*
D16*
X175168750Y-252112500D03*
X173388750Y-253792500D03*
%TD*%
D10*
%TO.C,D196*%
X356018750Y-285460000D03*
D11*
X356018750Y-283470000D03*
D10*
X350418750Y-283470000D03*
D12*
X350418750Y-285470000D03*
%TD*%
D18*
%TO.C,H6*%
X207168750Y-274637500D03*
%TD*%
D10*
%TO.C,D102*%
X141706250Y-180685000D03*
D11*
X141706250Y-178695000D03*
D10*
X136106250Y-178695000D03*
D12*
X136106250Y-180695000D03*
%TD*%
D10*
%TO.C,D203*%
X263150000Y-280697500D03*
D11*
X263150000Y-278707500D03*
D10*
X257550000Y-278707500D03*
D12*
X257550000Y-280707500D03*
%TD*%
D10*
%TO.C,D177*%
X241718750Y-261647500D03*
D11*
X241718750Y-259657500D03*
D10*
X236118750Y-259657500D03*
D12*
X236118750Y-261657500D03*
%TD*%
D15*
%TO.C,MX6*%
X220821250Y-172085000D03*
D13*
X219551250Y-174625000D03*
D15*
X227171250Y-169545000D03*
D13*
X229711250Y-174625000D03*
D14*
X224631250Y-174625000D03*
D17*
X230921250Y-169545000D03*
D16*
X231881250Y-168650000D03*
X231881250Y-170450000D03*
X229981250Y-169550000D03*
X231881250Y-169550000D03*
X229981250Y-168650000D03*
X229981250Y-170450000D03*
X218031250Y-172950000D03*
X218031250Y-172050000D03*
D17*
X217191250Y-171965000D03*
D16*
X216251250Y-172830000D03*
X218031250Y-171150000D03*
X216251250Y-171030000D03*
X216251250Y-171930000D03*
%TD*%
D10*
%TO.C,D145*%
X322681250Y-223547500D03*
D11*
X322681250Y-221557500D03*
D10*
X317081250Y-221557500D03*
D12*
X317081250Y-223557500D03*
%TD*%
D10*
%TO.C,D112*%
X351256250Y-180685000D03*
D11*
X351256250Y-178695000D03*
D10*
X345656250Y-178695000D03*
D12*
X345656250Y-180695000D03*
%TD*%
D15*
%TO.C,MX19*%
X179546250Y-193357500D03*
D13*
X171926250Y-198437500D03*
D14*
X177006250Y-198437500D03*
D13*
X182086250Y-198437500D03*
D15*
X173196250Y-195897500D03*
D16*
X182356250Y-194262500D03*
X184256250Y-192462500D03*
X182356250Y-192462500D03*
X182356250Y-193362500D03*
X184256250Y-194262500D03*
D17*
X183296250Y-193357500D03*
D16*
X184256250Y-193362500D03*
D17*
X169566250Y-195777500D03*
D16*
X170406250Y-194962500D03*
X168626250Y-194842500D03*
X168626250Y-195742500D03*
X170406250Y-195862500D03*
X170406250Y-196762500D03*
X168626250Y-196642500D03*
%TD*%
D10*
%TO.C,D142*%
X265531250Y-223547500D03*
D11*
X265531250Y-221557500D03*
D10*
X259931250Y-221557500D03*
D12*
X259931250Y-223557500D03*
%TD*%
D10*
%TO.C,D161*%
X308393750Y-242597500D03*
D11*
X308393750Y-240607500D03*
D10*
X302793750Y-240607500D03*
D12*
X302793750Y-242607500D03*
%TD*%
D14*
%TO.C,MX90*%
X129381250Y-274637500D03*
D13*
X124301250Y-274637500D03*
X134461250Y-274637500D03*
D15*
X125571250Y-272097500D03*
X131921250Y-269557500D03*
D16*
X136631250Y-268662500D03*
X136631250Y-270462500D03*
D17*
X135671250Y-269557500D03*
D16*
X134731250Y-270462500D03*
X136631250Y-269562500D03*
X134731250Y-269562500D03*
X134731250Y-268662500D03*
X122781250Y-272962500D03*
X121001250Y-271042500D03*
D17*
X121941250Y-271977500D03*
D16*
X121001250Y-272842500D03*
X122781250Y-272062500D03*
X122781250Y-271162500D03*
X121001250Y-271942500D03*
%TD*%
D10*
%TO.C,D149*%
X446506250Y-223547500D03*
D11*
X446506250Y-221557500D03*
D10*
X440906250Y-221557500D03*
D12*
X440906250Y-223557500D03*
%TD*%
D19*
%TO.C,MX69*%
X474755111Y-239016639D03*
D14*
X489995111Y-215140639D03*
X489995111Y-239016639D03*
X481806250Y-227078639D03*
D15*
X477996250Y-224538639D03*
D13*
X486886250Y-227078639D03*
D15*
X484346250Y-221998639D03*
D13*
X476726250Y-227078639D03*
D19*
X474755111Y-215140639D03*
D16*
X487156250Y-222003639D03*
X487156250Y-221103639D03*
X489056250Y-222903639D03*
D17*
X488096250Y-221998639D03*
D16*
X487156250Y-222903639D03*
X489056250Y-222003639D03*
X489056250Y-221103639D03*
X475206250Y-225403639D03*
D17*
X474366250Y-224418639D03*
D16*
X473426250Y-224383639D03*
X473426250Y-223483639D03*
X475206250Y-224503639D03*
X475206250Y-223603639D03*
X473426250Y-225283639D03*
%TD*%
D14*
%TO.C,MX30*%
X424656250Y-198437500D03*
D15*
X420846250Y-195897500D03*
D13*
X429736250Y-198437500D03*
D15*
X427196250Y-193357500D03*
D13*
X419576250Y-198437500D03*
D16*
X431906250Y-192462500D03*
D17*
X430946250Y-193357500D03*
D16*
X430006250Y-194262500D03*
X431906250Y-194262500D03*
X430006250Y-193362500D03*
X431906250Y-193362500D03*
X430006250Y-192462500D03*
X418056250Y-195862500D03*
X416276250Y-194842500D03*
X416276250Y-196642500D03*
D17*
X417216250Y-195777500D03*
D16*
X418056250Y-196762500D03*
X416276250Y-195742500D03*
X418056250Y-194962500D03*
%TD*%
D13*
%TO.C,MX85*%
X419576250Y-255587500D03*
D14*
X424656250Y-255587500D03*
D13*
X429736250Y-255587500D03*
D15*
X427196250Y-250507500D03*
X420846250Y-253047500D03*
D16*
X431906250Y-250512500D03*
X430006250Y-251412500D03*
X430006250Y-249612500D03*
X430006250Y-250512500D03*
X431906250Y-249612500D03*
D17*
X430946250Y-250507500D03*
D16*
X431906250Y-251412500D03*
X416276250Y-253792500D03*
X418056250Y-252112500D03*
X416276250Y-251992500D03*
X418056250Y-253012500D03*
X416276250Y-252892500D03*
X418056250Y-253912500D03*
D17*
X417216250Y-252927500D03*
%TD*%
D18*
%TO.C,H2*%
X452500000Y-268400000D03*
%TD*%
D10*
%TO.C,D126*%
X313156250Y-204497500D03*
D11*
X313156250Y-202507500D03*
D10*
X307556250Y-202507500D03*
D12*
X307556250Y-204507500D03*
%TD*%
D15*
%TO.C,MX73*%
X165258750Y-250507500D03*
X158908750Y-253047500D03*
D13*
X167798750Y-255587500D03*
D14*
X162718750Y-255587500D03*
D13*
X157638750Y-255587500D03*
D16*
X169968750Y-251412500D03*
X168068750Y-251412500D03*
X168068750Y-249612500D03*
D17*
X169008750Y-250507500D03*
D16*
X169968750Y-250512500D03*
X169968750Y-249612500D03*
X168068750Y-250512500D03*
X156118750Y-253912500D03*
X154338750Y-251992500D03*
X154338750Y-252892500D03*
X156118750Y-253012500D03*
X154338750Y-253792500D03*
D17*
X155278750Y-252927500D03*
D16*
X156118750Y-252112500D03*
%TD*%
D10*
%TO.C,D195*%
X332206250Y-280697500D03*
D11*
X332206250Y-278707500D03*
D10*
X326606250Y-278707500D03*
D12*
X326606250Y-280707500D03*
%TD*%
D10*
%TO.C,D123*%
X256006250Y-204497500D03*
D11*
X256006250Y-202507500D03*
D10*
X250406250Y-202507500D03*
D12*
X250406250Y-204507500D03*
%TD*%
D15*
%TO.C,MX57*%
X225583750Y-233997500D03*
D13*
X234473750Y-236537500D03*
D14*
X229393750Y-236537500D03*
D15*
X231933750Y-231457500D03*
D13*
X224313750Y-236537500D03*
D16*
X234743750Y-230562500D03*
X236643750Y-230562500D03*
D17*
X235683750Y-231457500D03*
D16*
X234743750Y-231462500D03*
X236643750Y-232362500D03*
X234743750Y-232362500D03*
X236643750Y-231462500D03*
X222793750Y-233062500D03*
X221013750Y-233842500D03*
X221013750Y-234742500D03*
X222793750Y-234862500D03*
X221013750Y-232942500D03*
X222793750Y-233962500D03*
D17*
X221953750Y-233877500D03*
%TD*%
D10*
%TO.C,D179*%
X279818750Y-261647500D03*
D11*
X279818750Y-259657500D03*
D10*
X274218750Y-259657500D03*
D12*
X274218750Y-261657500D03*
%TD*%
D15*
%TO.C,MX48*%
X420846250Y-214947500D03*
D13*
X419576250Y-217487500D03*
X429736250Y-217487500D03*
D15*
X427196250Y-212407500D03*
D14*
X424656250Y-217487500D03*
D17*
X430946250Y-212407500D03*
D16*
X430006250Y-211512500D03*
X430006250Y-212412500D03*
X431906250Y-211512500D03*
X431906250Y-212412500D03*
X431906250Y-213312500D03*
X430006250Y-213312500D03*
X418056250Y-214012500D03*
X418056250Y-215812500D03*
X418056250Y-214912500D03*
X416276250Y-214792500D03*
X416276250Y-215692500D03*
X416276250Y-213892500D03*
D17*
X417216250Y-214827500D03*
%TD*%
D10*
%TO.C,D174*%
X184568750Y-261647500D03*
D11*
X184568750Y-259657500D03*
D10*
X178968750Y-259657500D03*
D12*
X178968750Y-261657500D03*
%TD*%
D10*
%TO.C,D147*%
X398881250Y-223547500D03*
D11*
X398881250Y-221557500D03*
D10*
X393281250Y-221557500D03*
D12*
X393281250Y-223557500D03*
%TD*%
D13*
%TO.C,MX95*%
X334486250Y-274637500D03*
D15*
X331946250Y-269557500D03*
D14*
X329406250Y-274637500D03*
D13*
X324326250Y-274637500D03*
D15*
X325596250Y-272097500D03*
D16*
X334756250Y-269562500D03*
X334756250Y-268662500D03*
D17*
X335696250Y-269557500D03*
D16*
X336656250Y-269562500D03*
X336656250Y-268662500D03*
X334756250Y-270462500D03*
X336656250Y-270462500D03*
X321026250Y-272842500D03*
X321026250Y-271042500D03*
X322806250Y-272062500D03*
X321026250Y-271942500D03*
X322806250Y-272962500D03*
X322806250Y-271162500D03*
D17*
X321966250Y-271977500D03*
%TD*%
D13*
%TO.C,MX98*%
X396398750Y-279400000D03*
D15*
X387508750Y-276860000D03*
D13*
X386238750Y-279400000D03*
D15*
X393858750Y-274320000D03*
D14*
X391318750Y-279400000D03*
D16*
X398568750Y-274325000D03*
X396668750Y-275225000D03*
D17*
X397608750Y-274320000D03*
D16*
X398568750Y-275225000D03*
X396668750Y-273425000D03*
X396668750Y-274325000D03*
X398568750Y-273425000D03*
X382938750Y-277605000D03*
X384718750Y-275925000D03*
X384718750Y-276825000D03*
X382938750Y-275805000D03*
X382938750Y-276705000D03*
X384718750Y-277725000D03*
D17*
X383878750Y-276740000D03*
%TD*%
D10*
%TO.C,D198*%
X394118750Y-285460000D03*
D11*
X394118750Y-283470000D03*
D10*
X388518750Y-283470000D03*
D12*
X388518750Y-285470000D03*
%TD*%
D10*
%TO.C,D133*%
X484606250Y-204497500D03*
D11*
X484606250Y-202507500D03*
D10*
X479006250Y-202507500D03*
D12*
X479006250Y-204507500D03*
%TD*%
D14*
%TO.C,MX55*%
X191293750Y-236537500D03*
D15*
X187483750Y-233997500D03*
D13*
X196373750Y-236537500D03*
X186213750Y-236537500D03*
D15*
X193833750Y-231457500D03*
D16*
X196643750Y-232362500D03*
X196643750Y-231462500D03*
X198543750Y-232362500D03*
X198543750Y-231462500D03*
D17*
X197583750Y-231457500D03*
D16*
X196643750Y-230562500D03*
X198543750Y-230562500D03*
X184693750Y-233962500D03*
X182913750Y-233842500D03*
X182913750Y-234742500D03*
D17*
X183853750Y-233877500D03*
D16*
X184693750Y-234862500D03*
X184693750Y-233062500D03*
X182913750Y-232942500D03*
%TD*%
D15*
%TO.C,MX60*%
X282733750Y-233997500D03*
D13*
X291623750Y-236537500D03*
D15*
X289083750Y-231457500D03*
D13*
X281463750Y-236537500D03*
D14*
X286543750Y-236537500D03*
D16*
X293793750Y-230562500D03*
X291893750Y-230562500D03*
X291893750Y-231462500D03*
X291893750Y-232362500D03*
X293793750Y-231462500D03*
D17*
X292833750Y-231457500D03*
D16*
X293793750Y-232362500D03*
X279943750Y-233062500D03*
X278163750Y-232942500D03*
X279943750Y-234862500D03*
D17*
X279103750Y-233877500D03*
D16*
X279943750Y-233962500D03*
X278163750Y-233842500D03*
X278163750Y-234742500D03*
%TD*%
D10*
%TO.C,D121*%
X217906250Y-204497500D03*
D11*
X217906250Y-202507500D03*
D10*
X212306250Y-202507500D03*
D12*
X212306250Y-204507500D03*
%TD*%
D19*
%TO.C,MX99*%
X422243250Y-267652500D03*
X446119250Y-267652500D03*
D15*
X430371250Y-272163639D03*
D14*
X446119250Y-282892500D03*
D15*
X436721250Y-269623639D03*
D14*
X434181250Y-274703639D03*
D13*
X429101250Y-274703639D03*
D14*
X422243250Y-282892500D03*
D13*
X439261250Y-274703639D03*
D16*
X439531250Y-268728639D03*
X439531250Y-269628639D03*
X441431250Y-270528639D03*
X439531250Y-270528639D03*
D17*
X440471250Y-269623639D03*
D16*
X441431250Y-268728639D03*
X441431250Y-269628639D03*
X425801250Y-271108639D03*
X427581250Y-272128639D03*
X425801250Y-272908639D03*
D17*
X426741250Y-272043639D03*
D16*
X427581250Y-273028639D03*
X427581250Y-271228639D03*
X425801250Y-272008639D03*
%TD*%
D13*
%TO.C,MX7*%
X248761250Y-174625000D03*
D15*
X239871250Y-172085000D03*
X246221250Y-169545000D03*
D14*
X243681250Y-174625000D03*
D13*
X238601250Y-174625000D03*
D16*
X249031250Y-168650000D03*
X250931250Y-169550000D03*
D17*
X249971250Y-169545000D03*
D16*
X249031250Y-170450000D03*
X249031250Y-169550000D03*
X250931250Y-168650000D03*
X250931250Y-170450000D03*
X237081250Y-172050000D03*
X235301250Y-171030000D03*
X235301250Y-171930000D03*
X237081250Y-171150000D03*
X235301250Y-172830000D03*
X237081250Y-172950000D03*
D17*
X236241250Y-171965000D03*
%TD*%
D10*
%TO.C,D187*%
X465556250Y-261647500D03*
D11*
X465556250Y-259657500D03*
D10*
X459956250Y-259657500D03*
D12*
X459956250Y-261657500D03*
%TD*%
D10*
%TO.C,D125*%
X294106250Y-204497500D03*
D11*
X294106250Y-202507500D03*
D10*
X288506250Y-202507500D03*
D12*
X288506250Y-204507500D03*
%TD*%
D14*
%TO.C,MX37*%
X167481250Y-217487500D03*
D13*
X162401250Y-217487500D03*
X172561250Y-217487500D03*
D15*
X163671250Y-214947500D03*
X170021250Y-212407500D03*
D16*
X172831250Y-212412500D03*
X172831250Y-213312500D03*
X174731250Y-212412500D03*
X174731250Y-213312500D03*
X174731250Y-211512500D03*
D17*
X173771250Y-212407500D03*
D16*
X172831250Y-211512500D03*
X159101250Y-214792500D03*
D17*
X160041250Y-214827500D03*
D16*
X160881250Y-215812500D03*
X160881250Y-214012500D03*
X160881250Y-214912500D03*
X159101250Y-215692500D03*
X159101250Y-213892500D03*
%TD*%
D15*
%TO.C,MX96*%
X355758750Y-274320000D03*
D13*
X348138750Y-279400000D03*
D15*
X349408750Y-276860000D03*
D14*
X353218750Y-279400000D03*
D13*
X358298750Y-279400000D03*
D16*
X360468750Y-274325000D03*
X360468750Y-275225000D03*
X358568750Y-275225000D03*
D17*
X359508750Y-274320000D03*
D16*
X360468750Y-273425000D03*
X358568750Y-274325000D03*
X358568750Y-273425000D03*
X344838750Y-275805000D03*
X346618750Y-275925000D03*
X346618750Y-277725000D03*
X344838750Y-277605000D03*
D17*
X345778750Y-276740000D03*
D16*
X346618750Y-276825000D03*
X344838750Y-276705000D03*
%TD*%
D13*
%TO.C,MX4*%
X182086250Y-174625000D03*
D14*
X177006250Y-174625000D03*
D15*
X173196250Y-172085000D03*
D13*
X171926250Y-174625000D03*
D15*
X179546250Y-169545000D03*
D16*
X184256250Y-169550000D03*
X182356250Y-169550000D03*
X182356250Y-170450000D03*
X184256250Y-170450000D03*
X182356250Y-168650000D03*
X184256250Y-168650000D03*
D17*
X183296250Y-169545000D03*
D16*
X168626250Y-172830000D03*
X168626250Y-171930000D03*
X170406250Y-172950000D03*
X170406250Y-171150000D03*
D17*
X169566250Y-171965000D03*
D16*
X170406250Y-172050000D03*
X168626250Y-171030000D03*
%TD*%
D10*
%TO.C,D154*%
X175043750Y-242597500D03*
D11*
X175043750Y-240607500D03*
D10*
X169443750Y-240607500D03*
D12*
X169443750Y-242607500D03*
%TD*%
D18*
%TO.C,H1*%
X117475000Y-267493750D03*
%TD*%
D14*
%TO.C,MX56*%
X210343750Y-236537500D03*
D13*
X205263750Y-236537500D03*
D15*
X212883750Y-231457500D03*
D13*
X215423750Y-236537500D03*
D15*
X206533750Y-233997500D03*
D16*
X215693750Y-230562500D03*
X217593750Y-232362500D03*
D17*
X216633750Y-231457500D03*
D16*
X215693750Y-231462500D03*
X215693750Y-232362500D03*
X217593750Y-230562500D03*
X217593750Y-231462500D03*
X203743750Y-234862500D03*
X201963750Y-232942500D03*
X203743750Y-233062500D03*
X203743750Y-233962500D03*
X201963750Y-233842500D03*
D17*
X202903750Y-233877500D03*
D16*
X201963750Y-234742500D03*
%TD*%
D10*
%TO.C,D104*%
X179806250Y-180685000D03*
D11*
X179806250Y-178695000D03*
D10*
X174206250Y-178695000D03*
D12*
X174206250Y-180695000D03*
%TD*%
D10*
%TO.C,D153*%
X155993750Y-242597500D03*
D11*
X155993750Y-240607500D03*
D10*
X150393750Y-240607500D03*
D12*
X150393750Y-242607500D03*
%TD*%
D10*
%TO.C,D124*%
X275056250Y-204497500D03*
D11*
X275056250Y-202507500D03*
D10*
X269456250Y-202507500D03*
D12*
X269456250Y-204507500D03*
%TD*%
D10*
%TO.C,D200*%
X465556250Y-280697500D03*
D11*
X465556250Y-278707500D03*
D10*
X459956250Y-278707500D03*
D12*
X459956250Y-280707500D03*
%TD*%
D13*
%TO.C,MX46*%
X344011250Y-217487500D03*
D15*
X335121250Y-214947500D03*
D14*
X338931250Y-217487500D03*
D13*
X333851250Y-217487500D03*
D15*
X341471250Y-212407500D03*
D16*
X346181250Y-212412500D03*
X344281250Y-211512500D03*
X344281250Y-212412500D03*
D17*
X345221250Y-212407500D03*
D16*
X346181250Y-211512500D03*
X346181250Y-213312500D03*
X344281250Y-213312500D03*
X332331250Y-214912500D03*
D17*
X331491250Y-214827500D03*
D16*
X332331250Y-214012500D03*
X332331250Y-215812500D03*
X330551250Y-213892500D03*
X330551250Y-214792500D03*
X330551250Y-215692500D03*
%TD*%
D13*
%TO.C,MX22*%
X229076250Y-198437500D03*
D14*
X234156250Y-198437500D03*
D15*
X236696250Y-193357500D03*
D13*
X239236250Y-198437500D03*
D15*
X230346250Y-195897500D03*
D16*
X239506250Y-194262500D03*
X241406250Y-192462500D03*
X239506250Y-192462500D03*
X241406250Y-193362500D03*
X241406250Y-194262500D03*
X239506250Y-193362500D03*
D17*
X240446250Y-193357500D03*
D16*
X225776250Y-195742500D03*
X225776250Y-196642500D03*
D17*
X226716250Y-195777500D03*
D16*
X227556250Y-194962500D03*
X225776250Y-194842500D03*
X227556250Y-195862500D03*
X227556250Y-196762500D03*
%TD*%
D10*
%TO.C,D194*%
X313156250Y-280697500D03*
D11*
X313156250Y-278707500D03*
D10*
X307556250Y-278707500D03*
D12*
X307556250Y-280707500D03*
%TD*%
D15*
%TO.C,MX38*%
X189071250Y-212407500D03*
D13*
X181451250Y-217487500D03*
D14*
X186531250Y-217487500D03*
D13*
X191611250Y-217487500D03*
D15*
X182721250Y-214947500D03*
D16*
X193781250Y-213312500D03*
X191881250Y-213312500D03*
X193781250Y-211512500D03*
D17*
X192821250Y-212407500D03*
D16*
X193781250Y-212412500D03*
X191881250Y-212412500D03*
X191881250Y-211512500D03*
D17*
X179091250Y-214827500D03*
D16*
X179931250Y-214912500D03*
X179931250Y-215812500D03*
X178151250Y-214792500D03*
X179931250Y-214012500D03*
X178151250Y-213892500D03*
X178151250Y-215692500D03*
%TD*%
D14*
%TO.C,MX23*%
X253206250Y-198437500D03*
D15*
X249396250Y-195897500D03*
D13*
X258286250Y-198437500D03*
D15*
X255746250Y-193357500D03*
D13*
X248126250Y-198437500D03*
D16*
X260456250Y-193362500D03*
X260456250Y-192462500D03*
X258556250Y-193362500D03*
X260456250Y-194262500D03*
X258556250Y-194262500D03*
X258556250Y-192462500D03*
D17*
X259496250Y-193357500D03*
D16*
X246606250Y-196762500D03*
D17*
X245766250Y-195777500D03*
D16*
X244826250Y-196642500D03*
X244826250Y-194842500D03*
X246606250Y-194962500D03*
X246606250Y-195862500D03*
X244826250Y-195742500D03*
%TD*%
D13*
%TO.C,MX27*%
X334486250Y-198437500D03*
D15*
X325596250Y-195897500D03*
D13*
X324326250Y-198437500D03*
D15*
X331946250Y-193357500D03*
D14*
X329406250Y-198437500D03*
D17*
X335696250Y-193357500D03*
D16*
X334756250Y-193362500D03*
X334756250Y-192462500D03*
X336656250Y-194262500D03*
X334756250Y-194262500D03*
X336656250Y-192462500D03*
X336656250Y-193362500D03*
X322806250Y-194962500D03*
X322806250Y-195862500D03*
X321026250Y-194842500D03*
X321026250Y-196642500D03*
D17*
X321966250Y-195777500D03*
D16*
X322806250Y-196762500D03*
X321026250Y-195742500D03*
%TD*%
D13*
%TO.C,MX1*%
X95726250Y-174625000D03*
D15*
X96996250Y-172085000D03*
D13*
X105886250Y-174625000D03*
D15*
X103346250Y-169545000D03*
D14*
X100806250Y-174625000D03*
D16*
X106156250Y-168650000D03*
X106156250Y-169550000D03*
X106156250Y-170450000D03*
X108056250Y-168650000D03*
D17*
X107096250Y-169545000D03*
D16*
X108056250Y-170450000D03*
X108056250Y-169550000D03*
X92426250Y-172830000D03*
X94206250Y-171150000D03*
X92426250Y-171030000D03*
X92426250Y-171930000D03*
X94206250Y-172050000D03*
D17*
X93366250Y-171965000D03*
D16*
X94206250Y-172950000D03*
%TD*%
D23*
%TO.C,SW2*%
X474306250Y-172125000D03*
D24*
X474306250Y-177125000D03*
X474306250Y-174625000D03*
D25*
X481806250Y-169025000D03*
X481806250Y-180225000D03*
D24*
X488806250Y-177125000D03*
X488806250Y-172125000D03*
%TD*%
D10*
%TO.C,D111*%
X332206250Y-180685000D03*
D11*
X332206250Y-178695000D03*
D10*
X326606250Y-178695000D03*
D12*
X326606250Y-180695000D03*
%TD*%
D14*
%TO.C,MX93*%
X291306250Y-274637500D03*
D15*
X287496250Y-272097500D03*
X293846250Y-269557500D03*
D13*
X286226250Y-274637500D03*
X296386250Y-274637500D03*
D16*
X298556250Y-270462500D03*
X296656250Y-268662500D03*
X296656250Y-270462500D03*
X298556250Y-269562500D03*
D17*
X297596250Y-269557500D03*
D16*
X296656250Y-269562500D03*
X298556250Y-268662500D03*
D17*
X283866250Y-271977500D03*
D16*
X282926250Y-272842500D03*
X284706250Y-272062500D03*
X284706250Y-272962500D03*
X282926250Y-271942500D03*
X282926250Y-271042500D03*
X284706250Y-271162500D03*
%TD*%
D14*
%TO.C,MX67*%
X443706250Y-236537500D03*
D13*
X448786250Y-236537500D03*
D15*
X446246250Y-231457500D03*
X439896250Y-233997500D03*
D13*
X438626250Y-236537500D03*
D16*
X450956250Y-232362500D03*
X449056250Y-232362500D03*
X449056250Y-230562500D03*
X450956250Y-230562500D03*
D17*
X449996250Y-231457500D03*
D16*
X449056250Y-231462500D03*
X450956250Y-231462500D03*
X435326250Y-232942500D03*
X437106250Y-233962500D03*
X437106250Y-233062500D03*
D17*
X436266250Y-233877500D03*
D16*
X435326250Y-233842500D03*
X435326250Y-234742500D03*
X437106250Y-234862500D03*
%TD*%
D15*
%TO.C,MX8*%
X265271250Y-169545000D03*
D14*
X262731250Y-174625000D03*
D15*
X258921250Y-172085000D03*
D13*
X257651250Y-174625000D03*
X267811250Y-174625000D03*
D16*
X268081250Y-168650000D03*
X269981250Y-169550000D03*
X268081250Y-169550000D03*
X269981250Y-170450000D03*
D17*
X269021250Y-169545000D03*
D16*
X268081250Y-170450000D03*
X269981250Y-168650000D03*
X254351250Y-171930000D03*
X254351250Y-171030000D03*
X256131250Y-171150000D03*
D17*
X255291250Y-171965000D03*
D16*
X256131250Y-172950000D03*
X256131250Y-172050000D03*
X254351250Y-172830000D03*
%TD*%
D14*
%TO.C,MX88*%
X489995111Y-277116639D03*
D19*
X474755111Y-253240639D03*
D15*
X484346250Y-260098639D03*
D14*
X489995111Y-253240639D03*
X481806250Y-265178639D03*
D13*
X476726250Y-265178639D03*
D15*
X477996250Y-262638639D03*
D13*
X486886250Y-265178639D03*
D19*
X474755111Y-277116639D03*
D16*
X487156250Y-259203639D03*
D17*
X488096250Y-260098639D03*
D16*
X489056250Y-259203639D03*
X487156250Y-260103639D03*
X487156250Y-261003639D03*
X489056250Y-261003639D03*
X489056250Y-260103639D03*
X475206250Y-261703639D03*
X473426250Y-262483639D03*
D17*
X474366250Y-262518639D03*
D16*
X475206250Y-262603639D03*
X473426250Y-263383639D03*
X475206250Y-263503639D03*
X473426250Y-261583639D03*
%TD*%
D10*
%TO.C,D132*%
X465556250Y-204497500D03*
D11*
X465556250Y-202507500D03*
D10*
X459956250Y-202507500D03*
D12*
X459956250Y-204507500D03*
%TD*%
D15*
%TO.C,MX41*%
X246221250Y-212407500D03*
X239871250Y-214947500D03*
D14*
X243681250Y-217487500D03*
D13*
X238601250Y-217487500D03*
X248761250Y-217487500D03*
D17*
X249971250Y-212407500D03*
D16*
X250931250Y-211512500D03*
X250931250Y-213312500D03*
X249031250Y-211512500D03*
X249031250Y-213312500D03*
X249031250Y-212412500D03*
X250931250Y-212412500D03*
X237081250Y-215812500D03*
X235301250Y-213892500D03*
X235301250Y-215692500D03*
D17*
X236241250Y-214827500D03*
D16*
X237081250Y-214012500D03*
X237081250Y-214912500D03*
X235301250Y-214792500D03*
%TD*%
D10*
%TO.C,D189*%
X108368750Y-280697500D03*
D11*
X108368750Y-278707500D03*
D10*
X102768750Y-278707500D03*
D12*
X102768750Y-280707500D03*
%TD*%
D13*
%TO.C,MX17*%
X133826250Y-198437500D03*
X143986250Y-198437500D03*
D15*
X135096250Y-195897500D03*
X141446250Y-193357500D03*
D14*
X138906250Y-198437500D03*
D16*
X144256250Y-192462500D03*
X144256250Y-193362500D03*
X144256250Y-194262500D03*
X146156250Y-193362500D03*
X146156250Y-194262500D03*
D17*
X145196250Y-193357500D03*
D16*
X146156250Y-192462500D03*
X132306250Y-196762500D03*
X132306250Y-195862500D03*
X130526250Y-196642500D03*
X130526250Y-195742500D03*
X132306250Y-194962500D03*
X130526250Y-194842500D03*
D17*
X131466250Y-195777500D03*
%TD*%
D13*
%TO.C,MX26*%
X305276250Y-198437500D03*
D15*
X306546250Y-195897500D03*
D14*
X310356250Y-198437500D03*
D13*
X315436250Y-198437500D03*
D15*
X312896250Y-193357500D03*
D16*
X317606250Y-192462500D03*
D17*
X316646250Y-193357500D03*
D16*
X317606250Y-194262500D03*
X315706250Y-193362500D03*
X315706250Y-194262500D03*
X315706250Y-192462500D03*
X317606250Y-193362500D03*
X301976250Y-196642500D03*
X303756250Y-195862500D03*
X303756250Y-194962500D03*
X301976250Y-195742500D03*
X301976250Y-194842500D03*
D17*
X302916250Y-195777500D03*
D16*
X303756250Y-196762500D03*
%TD*%
D10*
%TO.C,D160*%
X289343750Y-242597500D03*
D11*
X289343750Y-240607500D03*
D10*
X283743750Y-240607500D03*
D12*
X283743750Y-242607500D03*
%TD*%
D10*
%TO.C,D131*%
X446506250Y-204497500D03*
D11*
X446506250Y-202507500D03*
D10*
X440906250Y-202507500D03*
D12*
X440906250Y-204507500D03*
%TD*%
D15*
%TO.C,MX82*%
X337502500Y-253047500D03*
D13*
X336232500Y-255587500D03*
X346392500Y-255587500D03*
D14*
X341312500Y-255587500D03*
D15*
X343852500Y-250507500D03*
D16*
X346662500Y-249612500D03*
X348562500Y-249612500D03*
X348562500Y-251412500D03*
D17*
X347602500Y-250507500D03*
D16*
X348562500Y-250512500D03*
X346662500Y-250512500D03*
X346662500Y-251412500D03*
D17*
X333872500Y-252927500D03*
D16*
X334712500Y-253012500D03*
X332932500Y-253792500D03*
X332932500Y-251992500D03*
X334712500Y-252112500D03*
X334712500Y-253912500D03*
X332932500Y-252892500D03*
%TD*%
D10*
%TO.C,D108*%
X265531250Y-180685000D03*
D11*
X265531250Y-178695000D03*
D10*
X259931250Y-178695000D03*
D12*
X259931250Y-180695000D03*
%TD*%
D13*
%TO.C,MX62*%
X319563750Y-236537500D03*
D15*
X320833750Y-233997500D03*
D13*
X329723750Y-236537500D03*
D15*
X327183750Y-231457500D03*
D14*
X324643750Y-236537500D03*
D16*
X331893750Y-231462500D03*
D17*
X330933750Y-231457500D03*
D16*
X331893750Y-230562500D03*
X329993750Y-231462500D03*
X329993750Y-232362500D03*
X329993750Y-230562500D03*
X331893750Y-232362500D03*
X318043750Y-233962500D03*
X318043750Y-234862500D03*
X316263750Y-234742500D03*
D17*
X317203750Y-233877500D03*
D16*
X318043750Y-233062500D03*
X316263750Y-233842500D03*
X316263750Y-232942500D03*
%TD*%
D10*
%TO.C,D152*%
X136943750Y-242597500D03*
D11*
X136943750Y-240607500D03*
D10*
X131343750Y-240607500D03*
D12*
X131343750Y-242607500D03*
%TD*%
D15*
%TO.C,MX34*%
X101758750Y-214947500D03*
X108108750Y-212407500D03*
D13*
X100488750Y-217487500D03*
D14*
X105568750Y-217487500D03*
D13*
X110648750Y-217487500D03*
D16*
X112818750Y-213312500D03*
X112818750Y-212412500D03*
X112818750Y-211512500D03*
X110918750Y-213312500D03*
X110918750Y-211512500D03*
D17*
X111858750Y-212407500D03*
D16*
X110918750Y-212412500D03*
D17*
X98128750Y-214827500D03*
D16*
X98968750Y-215812500D03*
X98968750Y-214912500D03*
X97188750Y-214792500D03*
X97188750Y-213892500D03*
X97188750Y-215692500D03*
X98968750Y-214012500D03*
%TD*%
D15*
%TO.C,MX68*%
X465296250Y-231457500D03*
D13*
X467836250Y-236537500D03*
D14*
X462756250Y-236537500D03*
D13*
X457676250Y-236537500D03*
D15*
X458946250Y-233997500D03*
D16*
X470006250Y-231462500D03*
X468106250Y-230562500D03*
X468106250Y-232362500D03*
D17*
X469046250Y-231457500D03*
D16*
X470006250Y-232362500D03*
X468106250Y-231462500D03*
X470006250Y-230562500D03*
X454376250Y-234742500D03*
X456156250Y-233062500D03*
X456156250Y-234862500D03*
X454376250Y-232942500D03*
D17*
X455316250Y-233877500D03*
D16*
X454376250Y-233842500D03*
X456156250Y-233962500D03*
%TD*%
D10*
%TO.C,D169*%
X484606250Y-233072500D03*
D11*
X484606250Y-231082500D03*
D10*
X479006250Y-231082500D03*
D12*
X479006250Y-233082500D03*
%TD*%
D10*
%TO.C,D191*%
X153612500Y-280697500D03*
D11*
X153612500Y-278707500D03*
D10*
X148012500Y-278707500D03*
D12*
X148012500Y-280707500D03*
%TD*%
D10*
%TO.C,D165*%
X398881250Y-242597500D03*
D11*
X398881250Y-240607500D03*
D10*
X393281250Y-240607500D03*
D12*
X393281250Y-242607500D03*
%TD*%
D13*
%TO.C,MX24*%
X277336250Y-198437500D03*
D14*
X272256250Y-198437500D03*
D15*
X268446250Y-195897500D03*
X274796250Y-193357500D03*
D13*
X267176250Y-198437500D03*
D17*
X278546250Y-193357500D03*
D16*
X279506250Y-192462500D03*
X277606250Y-194262500D03*
X279506250Y-193362500D03*
X279506250Y-194262500D03*
X277606250Y-192462500D03*
X277606250Y-193362500D03*
X265656250Y-194962500D03*
D17*
X264816250Y-195777500D03*
D16*
X265656250Y-195862500D03*
X263876250Y-194842500D03*
X263876250Y-196642500D03*
X263876250Y-195742500D03*
X265656250Y-196762500D03*
%TD*%
D13*
%TO.C,MX29*%
X391001250Y-198437500D03*
D15*
X398621250Y-193357500D03*
D14*
X396081250Y-198437500D03*
D13*
X401161250Y-198437500D03*
D15*
X392271250Y-195897500D03*
D16*
X403331250Y-193362500D03*
X401431250Y-194262500D03*
X403331250Y-194262500D03*
X401431250Y-192462500D03*
D17*
X402371250Y-193357500D03*
D16*
X403331250Y-192462500D03*
X401431250Y-193362500D03*
X387701250Y-194842500D03*
X387701250Y-195742500D03*
X387701250Y-196642500D03*
X389481250Y-195862500D03*
D17*
X388641250Y-195777500D03*
D16*
X389481250Y-196762500D03*
X389481250Y-194962500D03*
%TD*%
D14*
%TO.C,MX35*%
X129381250Y-217487500D03*
D13*
X124301250Y-217487500D03*
D15*
X125571250Y-214947500D03*
X131921250Y-212407500D03*
D13*
X134461250Y-217487500D03*
D16*
X136631250Y-213312500D03*
X134731250Y-212412500D03*
X136631250Y-211512500D03*
D17*
X135671250Y-212407500D03*
D16*
X136631250Y-212412500D03*
X134731250Y-213312500D03*
X134731250Y-211512500D03*
X122781250Y-214912500D03*
X122781250Y-214012500D03*
D17*
X121941250Y-214827500D03*
D16*
X122781250Y-215812500D03*
X121001250Y-213892500D03*
X121001250Y-214792500D03*
X121001250Y-215692500D03*
%TD*%
D10*
%TO.C,D164*%
X367925000Y-233072500D03*
D11*
X367925000Y-231082500D03*
D10*
X362325000Y-231082500D03*
D12*
X362325000Y-233082500D03*
%TD*%
D13*
%TO.C,MX64*%
X360045000Y-227012500D03*
D14*
X365125000Y-227012500D03*
D19*
X358140000Y-215074500D03*
D15*
X367665000Y-221932500D03*
D13*
X370205000Y-227012500D03*
D14*
X373380000Y-238950500D03*
D19*
X358140000Y-238950500D03*
D14*
X373380000Y-215074500D03*
D15*
X361315000Y-224472500D03*
D16*
X372375000Y-221037500D03*
D17*
X371415000Y-221932500D03*
D16*
X370475000Y-221937500D03*
X370475000Y-221037500D03*
X372375000Y-222837500D03*
X372375000Y-221937500D03*
X370475000Y-222837500D03*
X356745000Y-224317500D03*
X358525000Y-224437500D03*
X358525000Y-223537500D03*
X356745000Y-225217500D03*
D17*
X357685000Y-224352500D03*
D16*
X356745000Y-223417500D03*
X358525000Y-225337500D03*
%TD*%
D10*
%TO.C,D151*%
X110750000Y-242597500D03*
D11*
X110750000Y-240607500D03*
D10*
X105150000Y-240607500D03*
D12*
X105150000Y-242607500D03*
%TD*%
D13*
%TO.C,MX58*%
X243363750Y-236537500D03*
D15*
X244633750Y-233997500D03*
X250983750Y-231457500D03*
D14*
X248443750Y-236537500D03*
D13*
X253523750Y-236537500D03*
D17*
X254733750Y-231457500D03*
D16*
X255693750Y-231462500D03*
X253793750Y-232362500D03*
X255693750Y-230562500D03*
X253793750Y-230562500D03*
X255693750Y-232362500D03*
X253793750Y-231462500D03*
D17*
X241003750Y-233877500D03*
D16*
X241843750Y-234862500D03*
X240063750Y-232942500D03*
X240063750Y-233842500D03*
X240063750Y-234742500D03*
X241843750Y-233962500D03*
X241843750Y-233062500D03*
%TD*%
D10*
%TO.C,D101*%
X103606250Y-180685000D03*
D11*
X103606250Y-178695000D03*
D10*
X98006250Y-178695000D03*
D12*
X98006250Y-180695000D03*
%TD*%
D13*
%TO.C,MX53*%
X148113750Y-236537500D03*
X158273750Y-236537500D03*
D15*
X149383750Y-233997500D03*
D14*
X153193750Y-236537500D03*
D15*
X155733750Y-231457500D03*
D17*
X159483750Y-231457500D03*
D16*
X158543750Y-232362500D03*
X158543750Y-231462500D03*
X160443750Y-232362500D03*
X160443750Y-231462500D03*
X160443750Y-230562500D03*
X158543750Y-230562500D03*
X144813750Y-233842500D03*
X146593750Y-234862500D03*
X144813750Y-234742500D03*
X146593750Y-233062500D03*
X144813750Y-232942500D03*
X146593750Y-233962500D03*
D17*
X145753750Y-233877500D03*
%TD*%
D13*
%TO.C,MX2*%
X133826250Y-174625000D03*
D14*
X138906250Y-174625000D03*
D13*
X143986250Y-174625000D03*
D15*
X141446250Y-169545000D03*
X135096250Y-172085000D03*
D16*
X146156250Y-170450000D03*
D17*
X145196250Y-169545000D03*
D16*
X144256250Y-170450000D03*
X146156250Y-169550000D03*
X144256250Y-169550000D03*
X144256250Y-168650000D03*
X146156250Y-168650000D03*
X130526250Y-171030000D03*
X130526250Y-171930000D03*
X132306250Y-171150000D03*
X132306250Y-172050000D03*
D17*
X131466250Y-171965000D03*
D16*
X130526250Y-172830000D03*
X132306250Y-172950000D03*
%TD*%
D15*
%TO.C,MX59*%
X263683750Y-233997500D03*
D14*
X267493750Y-236537500D03*
D13*
X262413750Y-236537500D03*
D15*
X270033750Y-231457500D03*
D13*
X272573750Y-236537500D03*
D16*
X274743750Y-232362500D03*
X272843750Y-231462500D03*
X274743750Y-230562500D03*
D17*
X273783750Y-231457500D03*
D16*
X272843750Y-232362500D03*
X274743750Y-231462500D03*
X272843750Y-230562500D03*
X260893750Y-233962500D03*
X259113750Y-233842500D03*
D17*
X260053750Y-233877500D03*
D16*
X259113750Y-234742500D03*
X260893750Y-234862500D03*
X259113750Y-232942500D03*
X260893750Y-233062500D03*
%TD*%
D26*
%TO.C,D31*%
X439006250Y-200818750D03*
X435706250Y-200818750D03*
%TD*%
%TO.C,D13*%
X362806250Y-177006250D03*
X359506250Y-177006250D03*
%TD*%
D27*
%TO.C,C65*%
X224043750Y-242887500D03*
X222043750Y-242887500D03*
%TD*%
%TO.C,C48*%
X219281250Y-223837500D03*
X217281250Y-223837500D03*
%TD*%
%TO.C,C42*%
X100218750Y-223837500D03*
X98218750Y-223837500D03*
%TD*%
%TO.C,C84*%
X214518750Y-261937500D03*
X212518750Y-261937500D03*
%TD*%
D26*
%TO.C,D85*%
X419956250Y-257968750D03*
X416656250Y-257968750D03*
%TD*%
D27*
%TO.C,C14*%
X219281250Y-180975000D03*
X217281250Y-180975000D03*
%TD*%
D26*
%TO.C,D37*%
X162781250Y-219868750D03*
X159481250Y-219868750D03*
%TD*%
%TO.C,D25*%
X286606250Y-200818750D03*
X283306250Y-200818750D03*
%TD*%
D27*
%TO.C,C34*%
X305006250Y-204787500D03*
X303006250Y-204787500D03*
%TD*%
D26*
%TO.C,D71*%
X119918750Y-257968750D03*
X116618750Y-257968750D03*
%TD*%
%TO.C,D99*%
X429481250Y-277018750D03*
X426181250Y-277018750D03*
%TD*%
%TO.C,D63*%
X338993750Y-238918750D03*
X335693750Y-238918750D03*
%TD*%
D27*
%TO.C,C76*%
X457406250Y-242887500D03*
X455406250Y-242887500D03*
%TD*%
%TO.C,C90*%
X335962500Y-261937500D03*
X333962500Y-261937500D03*
%TD*%
%TO.C,C39*%
X438356250Y-204787500D03*
X436356250Y-204787500D03*
%TD*%
D26*
%TO.C,D61*%
X300893750Y-238918750D03*
X297593750Y-238918750D03*
%TD*%
%TO.C,D49*%
X439006250Y-219868750D03*
X435706250Y-219868750D03*
%TD*%
%TO.C,D1*%
X96106250Y-177006250D03*
X92806250Y-177006250D03*
%TD*%
D27*
%TO.C,C28*%
X190706250Y-204787500D03*
X188706250Y-204787500D03*
%TD*%
D26*
%TO.C,D56*%
X205643750Y-238918750D03*
X202343750Y-238918750D03*
%TD*%
D27*
%TO.C,C79*%
X119268750Y-261937500D03*
X117268750Y-261937500D03*
%TD*%
D26*
%TO.C,D94*%
X305656250Y-277018750D03*
X302356250Y-277018750D03*
%TD*%
D27*
%TO.C,C89*%
X309768750Y-261937500D03*
X307768750Y-261937500D03*
%TD*%
D28*
%TO.C,R5*%
X425345235Y-168045235D03*
X424054765Y-166754765D03*
%TD*%
D26*
%TO.C,D39*%
X200881250Y-219868750D03*
X197581250Y-219868750D03*
%TD*%
D27*
%TO.C,C108*%
X457406250Y-280987500D03*
X455406250Y-280987500D03*
%TD*%
%TO.C,C52*%
X295481250Y-223837500D03*
X293481250Y-223837500D03*
%TD*%
%TO.C,C107*%
X428831250Y-280987500D03*
X426831250Y-280987500D03*
%TD*%
%TO.C,C21*%
X362156250Y-180975000D03*
X360156250Y-180975000D03*
%TD*%
%TO.C,C68*%
X281193750Y-242887500D03*
X279193750Y-242887500D03*
%TD*%
%TO.C,C60*%
X128793750Y-242887500D03*
X126793750Y-242887500D03*
%TD*%
%TO.C,C74*%
X419306250Y-242887500D03*
X417306250Y-242887500D03*
%TD*%
D26*
%TO.C,D70*%
X98487500Y-257968750D03*
X95187500Y-257968750D03*
%TD*%
%TO.C,D91*%
X146112500Y-277018750D03*
X142812500Y-277018750D03*
%TD*%
D27*
%TO.C,C24*%
X114506250Y-204787500D03*
X112506250Y-204787500D03*
%TD*%
D26*
%TO.C,D46*%
X334231250Y-219868750D03*
X330931250Y-219868750D03*
%TD*%
%TO.C,D79*%
X272318750Y-257968750D03*
X269018750Y-257968750D03*
%TD*%
%TO.C,D22*%
X229456250Y-200818750D03*
X226156250Y-200818750D03*
%TD*%
%TO.C,D29*%
X391381250Y-200818750D03*
X388081250Y-200818750D03*
%TD*%
%TO.C,D51*%
X103312500Y-238918750D03*
X100012500Y-238918750D03*
%TD*%
%TO.C,D77*%
X234218750Y-257968750D03*
X230918750Y-257968750D03*
%TD*%
%TO.C,D17*%
X134206250Y-200818750D03*
X130906250Y-200818750D03*
%TD*%
%TO.C,D66*%
X419956250Y-238918750D03*
X416656250Y-238918750D03*
%TD*%
D27*
%TO.C,C92*%
X390731250Y-261937500D03*
X388731250Y-261937500D03*
%TD*%
%TO.C,C22*%
X390731250Y-180975000D03*
X388731250Y-180975000D03*
%TD*%
%TO.C,C30*%
X228806250Y-204787500D03*
X226806250Y-204787500D03*
%TD*%
%TO.C,C70*%
X319293750Y-242887500D03*
X317293750Y-242887500D03*
%TD*%
D26*
%TO.C,D72*%
X138968750Y-257968750D03*
X135668750Y-257968750D03*
%TD*%
D27*
%TO.C,C104*%
X347868750Y-285750000D03*
X345868750Y-285750000D03*
%TD*%
%TO.C,C72*%
X359775000Y-233362500D03*
X357775000Y-233362500D03*
%TD*%
D26*
%TO.C,D58*%
X243743750Y-238918750D03*
X240443750Y-238918750D03*
%TD*%
D27*
%TO.C,C1*%
X255000000Y-281000000D03*
X253000000Y-281000000D03*
%TD*%
D26*
%TO.C,D47*%
X391381250Y-219868750D03*
X388081250Y-219868750D03*
%TD*%
D27*
%TO.C,C96*%
X476456250Y-271462500D03*
X474456250Y-271462500D03*
%TD*%
%TO.C,C55*%
X390731250Y-223837500D03*
X388731250Y-223837500D03*
%TD*%
%TO.C,C67*%
X262143750Y-242887500D03*
X260143750Y-242887500D03*
%TD*%
D26*
%TO.C,D57*%
X224693750Y-238918750D03*
X221393750Y-238918750D03*
%TD*%
%TO.C,D75*%
X196118750Y-257968750D03*
X192818750Y-257968750D03*
%TD*%
%TO.C,D35*%
X124681250Y-219868750D03*
X121381250Y-219868750D03*
%TD*%
D27*
%TO.C,C16*%
X257381250Y-180975000D03*
X255381250Y-180975000D03*
%TD*%
D26*
%TO.C,D68*%
X458056250Y-238918750D03*
X454756250Y-238918750D03*
%TD*%
%TO.C,D80*%
X291368750Y-257968750D03*
X288068750Y-257968750D03*
%TD*%
D27*
%TO.C,C63*%
X186150000Y-242887500D03*
X184150000Y-242887500D03*
%TD*%
D26*
%TO.C,D11*%
X324706250Y-177006250D03*
X321406250Y-177006250D03*
%TD*%
D27*
%TO.C,C18*%
X305006250Y-180975000D03*
X303006250Y-180975000D03*
%TD*%
D26*
%TO.C,D97*%
X367568750Y-281781250D03*
X364268750Y-281781250D03*
%TD*%
D27*
%TO.C,C97*%
X100218750Y-280987500D03*
X98218750Y-280987500D03*
%TD*%
%TO.C,C69*%
X300243750Y-242887500D03*
X298243750Y-242887500D03*
%TD*%
D26*
%TO.C,D18*%
X153256250Y-200818750D03*
X149956250Y-200818750D03*
%TD*%
D27*
%TO.C,C15*%
X238331250Y-180975000D03*
X236331250Y-180975000D03*
%TD*%
D26*
%TO.C,D27*%
X324706250Y-200818750D03*
X321406250Y-200818750D03*
%TD*%
D27*
%TO.C,C58*%
X457406250Y-223837500D03*
X455406250Y-223837500D03*
%TD*%
D26*
%TO.C,D21*%
X210406250Y-200818750D03*
X207106250Y-200818750D03*
%TD*%
%TO.C,D42*%
X258031250Y-219868750D03*
X254731250Y-219868750D03*
%TD*%
%TO.C,D73*%
X158018750Y-257968750D03*
X154718750Y-257968750D03*
%TD*%
D27*
%TO.C,C17*%
X276431250Y-180975000D03*
X274431250Y-180975000D03*
%TD*%
D26*
%TO.C,D10*%
X305656250Y-177006250D03*
X302356250Y-177006250D03*
%TD*%
%TO.C,D5*%
X191356250Y-177006250D03*
X188056250Y-177006250D03*
%TD*%
D27*
%TO.C,C103*%
X324056250Y-280987500D03*
X322056250Y-280987500D03*
%TD*%
D26*
%TO.C,D100*%
X458056250Y-277018750D03*
X454756250Y-277018750D03*
%TD*%
D27*
%TO.C,C46*%
X181181250Y-223837500D03*
X179181250Y-223837500D03*
%TD*%
D26*
%TO.C,D83*%
X367568750Y-262731250D03*
X364268750Y-262731250D03*
%TD*%
%TO.C,D33*%
X477106250Y-200818750D03*
X473806250Y-200818750D03*
%TD*%
D29*
%TO.C,J2*%
X211050000Y-175500000D03*
X211050000Y-181100000D03*
D30*
X207175000Y-176800000D03*
X207175000Y-177800000D03*
X207175000Y-178800000D03*
X207175000Y-179800000D03*
%TD*%
D26*
%TO.C,D96*%
X348518750Y-281781250D03*
X345218750Y-281781250D03*
%TD*%
D27*
%TO.C,C73*%
X390731250Y-242887500D03*
X388731250Y-242887500D03*
%TD*%
%TO.C,C19*%
X324056250Y-180975000D03*
X322056250Y-180975000D03*
%TD*%
D26*
%TO.C,D60*%
X281843750Y-238918750D03*
X278543750Y-238918750D03*
%TD*%
%TO.C,D36*%
X143731250Y-219868750D03*
X140431250Y-219868750D03*
%TD*%
%TO.C,D9*%
X277081250Y-177006250D03*
X273781250Y-177006250D03*
%TD*%
D27*
%TO.C,C86*%
X252618750Y-261937500D03*
X250618750Y-261937500D03*
%TD*%
D26*
%TO.C,D6*%
X219931250Y-177006250D03*
X216631250Y-177006250D03*
%TD*%
D27*
%TO.C,C29*%
X209756250Y-204787500D03*
X207756250Y-204787500D03*
%TD*%
D28*
%TO.C,R4*%
X423713985Y-169713985D03*
X422423515Y-168423515D03*
%TD*%
D27*
%TO.C,C102*%
X305006250Y-280987500D03*
X303006250Y-280987500D03*
%TD*%
%TO.C,C54*%
X333581250Y-223837500D03*
X331581250Y-223837500D03*
%TD*%
D26*
%TO.C,D14*%
X391381250Y-177006250D03*
X388081250Y-177006250D03*
%TD*%
D27*
%TO.C,C106*%
X385968750Y-285750000D03*
X383968750Y-285750000D03*
%TD*%
%TO.C,C61*%
X147843750Y-242887500D03*
X145843750Y-242887500D03*
%TD*%
%TO.C,C36*%
X352631250Y-204787500D03*
X350631250Y-204787500D03*
%TD*%
D26*
%TO.C,D86*%
X439006250Y-257968750D03*
X435706250Y-257968750D03*
%TD*%
%TO.C,D16*%
X115156250Y-200818750D03*
X111856250Y-200818750D03*
%TD*%
D27*
%TO.C,C100*%
X218487500Y-280987500D03*
X216487500Y-280987500D03*
%TD*%
%TO.C,C71*%
X338343750Y-242887500D03*
X336343750Y-242887500D03*
%TD*%
%TO.C,C43*%
X124031250Y-223837500D03*
X122031250Y-223837500D03*
%TD*%
%TO.C,C77*%
X476456250Y-233362500D03*
X474456250Y-233362500D03*
%TD*%
D26*
%TO.C,D24*%
X267556250Y-200818750D03*
X264256250Y-200818750D03*
%TD*%
%TO.C,D87*%
X458056250Y-257968750D03*
X454756250Y-257968750D03*
%TD*%
D27*
%TO.C,C10*%
X133556250Y-180975000D03*
X131556250Y-180975000D03*
%TD*%
D26*
%TO.C,D93*%
X286606250Y-277018750D03*
X283306250Y-277018750D03*
%TD*%
D27*
%TO.C,C109*%
X178800000Y-280987500D03*
X176800000Y-280987500D03*
%TD*%
%TO.C,C59*%
X102600000Y-242887500D03*
X100600000Y-242887500D03*
%TD*%
D26*
%TO.C,D88*%
X477106250Y-267493750D03*
X473806250Y-267493750D03*
%TD*%
D27*
%TO.C,C56*%
X419306250Y-223837500D03*
X417306250Y-223837500D03*
%TD*%
D26*
%TO.C,D7*%
X238981250Y-177006250D03*
X235681250Y-177006250D03*
%TD*%
%TO.C,D64*%
X360425000Y-229393750D03*
X357125000Y-229393750D03*
%TD*%
D27*
%TO.C,C66*%
X243093750Y-242887500D03*
X241093750Y-242887500D03*
%TD*%
D26*
%TO.C,D90*%
X124681250Y-277018750D03*
X121381250Y-277018750D03*
%TD*%
%TO.C,D44*%
X296131250Y-219868750D03*
X292831250Y-219868750D03*
%TD*%
D27*
%TO.C,C57*%
X438356250Y-223837500D03*
X436356250Y-223837500D03*
%TD*%
%TO.C,C64*%
X204993750Y-242887500D03*
X202993750Y-242887500D03*
%TD*%
D26*
%TO.C,D28*%
X353281250Y-200818750D03*
X349981250Y-200818750D03*
%TD*%
%TO.C,D53*%
X148493750Y-238918750D03*
X145193750Y-238918750D03*
%TD*%
D27*
%TO.C,C49*%
X238331250Y-223837500D03*
X236331250Y-223837500D03*
%TD*%
%TO.C,C88*%
X290718750Y-261937500D03*
X288718750Y-261937500D03*
%TD*%
%TO.C,C62*%
X166893750Y-242887500D03*
X164893750Y-242887500D03*
%TD*%
D26*
%TO.C,D84*%
X391381250Y-257968750D03*
X388081250Y-257968750D03*
%TD*%
D27*
%TO.C,C11*%
X152606250Y-180975000D03*
X150606250Y-180975000D03*
%TD*%
D26*
%TO.C,D82*%
X336612500Y-257968750D03*
X333312500Y-257968750D03*
%TD*%
D27*
%TO.C,C20*%
X343106250Y-180975000D03*
X341106250Y-180975000D03*
%TD*%
%TO.C,C27*%
X171656250Y-204787500D03*
X169656250Y-204787500D03*
%TD*%
%TO.C,C33*%
X285956250Y-204787500D03*
X283956250Y-204787500D03*
%TD*%
%TO.C,C31*%
X247856250Y-204787500D03*
X245856250Y-204787500D03*
%TD*%
%TO.C,C23*%
X95456250Y-204787500D03*
X93456250Y-204787500D03*
%TD*%
%TO.C,C45*%
X162131250Y-223837500D03*
X160131250Y-223837500D03*
%TD*%
D26*
%TO.C,D15*%
X96106250Y-200818750D03*
X92806250Y-200818750D03*
%TD*%
D27*
%TO.C,C25*%
X133556250Y-204787500D03*
X131556250Y-204787500D03*
%TD*%
D26*
%TO.C,D48*%
X419956250Y-219868750D03*
X416656250Y-219868750D03*
%TD*%
D27*
%TO.C,C53*%
X314531250Y-223837500D03*
X312531250Y-223837500D03*
%TD*%
D26*
%TO.C,D41*%
X238981250Y-219868750D03*
X235681250Y-219868750D03*
%TD*%
%TO.C,D92*%
X217550000Y-277018750D03*
X214250000Y-277018750D03*
%TD*%
D27*
%TO.C,C87*%
X271668750Y-261937500D03*
X269668750Y-261937500D03*
%TD*%
D26*
%TO.C,D65*%
X391318750Y-238918750D03*
X388018750Y-238918750D03*
%TD*%
D27*
%TO.C,C82*%
X176418750Y-261937500D03*
X174418750Y-261937500D03*
%TD*%
%TO.C,C47*%
X200231250Y-223837500D03*
X198231250Y-223837500D03*
%TD*%
D26*
%TO.C,D55*%
X186593750Y-238918750D03*
X183293750Y-238918750D03*
%TD*%
D27*
%TO.C,C9*%
X95456250Y-180975000D03*
X93456250Y-180975000D03*
%TD*%
%TO.C,C35*%
X324056250Y-204787500D03*
X322056250Y-204787500D03*
%TD*%
D26*
%TO.C,D98*%
X386618750Y-281781250D03*
X383318750Y-281781250D03*
%TD*%
D27*
%TO.C,C12*%
X171656250Y-180975000D03*
X169656250Y-180975000D03*
%TD*%
D26*
%TO.C,D12*%
X343756250Y-177006250D03*
X340456250Y-177006250D03*
%TD*%
D27*
%TO.C,C40*%
X457406250Y-204787500D03*
X455406250Y-204787500D03*
%TD*%
%TO.C,C101*%
X283575000Y-280987500D03*
X281575000Y-280987500D03*
%TD*%
%TO.C,C38*%
X419306250Y-204787500D03*
X417306250Y-204787500D03*
%TD*%
D26*
%TO.C,D34*%
X100868750Y-219868750D03*
X97568750Y-219868750D03*
%TD*%
%TO.C,D69*%
X477106250Y-229393750D03*
X473806250Y-229393750D03*
%TD*%
D27*
%TO.C,C98*%
X124031250Y-280987500D03*
X122031250Y-280987500D03*
%TD*%
D26*
%TO.C,D67*%
X438943750Y-238918750D03*
X435643750Y-238918750D03*
%TD*%
D27*
%TO.C,C41*%
X476456250Y-204787500D03*
X474456250Y-204787500D03*
%TD*%
D26*
%TO.C,D81*%
X310418750Y-257968750D03*
X307118750Y-257968750D03*
%TD*%
D27*
%TO.C,C50*%
X257381250Y-223837500D03*
X255381250Y-223837500D03*
%TD*%
%TO.C,C80*%
X138318750Y-261937500D03*
X136318750Y-261937500D03*
%TD*%
D26*
%TO.C,D62*%
X319943750Y-238918750D03*
X316643750Y-238918750D03*
%TD*%
%TO.C,D59*%
X262793750Y-238918750D03*
X259493750Y-238918750D03*
%TD*%
D27*
%TO.C,C51*%
X276431250Y-223837500D03*
X274431250Y-223837500D03*
%TD*%
D26*
%TO.C,D45*%
X315181250Y-219868750D03*
X311881250Y-219868750D03*
%TD*%
%TO.C,D32*%
X458056250Y-200818750D03*
X454756250Y-200818750D03*
%TD*%
D27*
%TO.C,C75*%
X438356250Y-242887500D03*
X436356250Y-242887500D03*
%TD*%
D26*
%TO.C,D52*%
X129443750Y-238918750D03*
X126143750Y-238918750D03*
%TD*%
D27*
%TO.C,C95*%
X457406250Y-261937500D03*
X455406250Y-261937500D03*
%TD*%
D26*
%TO.C,D4*%
X172306250Y-177006250D03*
X169006250Y-177006250D03*
%TD*%
D27*
%TO.C,C94*%
X438356250Y-261937500D03*
X436356250Y-261937500D03*
%TD*%
%TO.C,C91*%
X366918750Y-266700000D03*
X364918750Y-266700000D03*
%TD*%
%TO.C,C81*%
X157368750Y-261937500D03*
X155368750Y-261937500D03*
%TD*%
D26*
%TO.C,D50*%
X457993750Y-219868750D03*
X454693750Y-219868750D03*
%TD*%
D27*
%TO.C,C37*%
X390731250Y-204787500D03*
X388731250Y-204787500D03*
%TD*%
D26*
%TO.C,D8*%
X258093750Y-177006250D03*
X254793750Y-177006250D03*
%TD*%
D27*
%TO.C,C93*%
X419306250Y-261937500D03*
X417306250Y-261937500D03*
%TD*%
D26*
%TO.C,D26*%
X305656250Y-200818750D03*
X302356250Y-200818750D03*
%TD*%
D27*
%TO.C,C85*%
X233568750Y-261937500D03*
X231568750Y-261937500D03*
%TD*%
D26*
%TO.C,D2*%
X134206250Y-177006250D03*
X130906250Y-177006250D03*
%TD*%
D27*
%TO.C,C78*%
X97837500Y-261937500D03*
X95837500Y-261937500D03*
%TD*%
D26*
%TO.C,D19*%
X172306250Y-200818750D03*
X169006250Y-200818750D03*
%TD*%
D27*
%TO.C,C13*%
X190706250Y-180975000D03*
X188706250Y-180975000D03*
%TD*%
D26*
%TO.C,D89*%
X100868750Y-277018750D03*
X97568750Y-277018750D03*
%TD*%
D27*
%TO.C,C99*%
X145462500Y-280987500D03*
X143462500Y-280987500D03*
%TD*%
D26*
%TO.C,D78*%
X253268750Y-257968750D03*
X249968750Y-257968750D03*
%TD*%
%TO.C,D54*%
X167543750Y-238918750D03*
X164243750Y-238918750D03*
%TD*%
%TO.C,D76*%
X215168750Y-257968750D03*
X211868750Y-257968750D03*
%TD*%
%TO.C,D38*%
X181831250Y-219868750D03*
X178531250Y-219868750D03*
%TD*%
%TO.C,D95*%
X324706250Y-277018750D03*
X321406250Y-277018750D03*
%TD*%
%TO.C,D30*%
X419956250Y-200818750D03*
X416656250Y-200818750D03*
%TD*%
D27*
%TO.C,C26*%
X152606250Y-204787500D03*
X150606250Y-204787500D03*
%TD*%
D26*
%TO.C,D74*%
X177068750Y-257968750D03*
X173768750Y-257968750D03*
%TD*%
D27*
%TO.C,C83*%
X195468750Y-261937500D03*
X193468750Y-261937500D03*
%TD*%
%TO.C,C44*%
X143081250Y-223837500D03*
X141081250Y-223837500D03*
%TD*%
%TO.C,C105*%
X366918750Y-285750000D03*
X364918750Y-285750000D03*
%TD*%
D26*
%TO.C,D3*%
X153256250Y-177006250D03*
X149956250Y-177006250D03*
%TD*%
D27*
%TO.C,C32*%
X266906250Y-204787500D03*
X264906250Y-204787500D03*
%TD*%
D26*
%TO.C,D43*%
X277081250Y-219868750D03*
X273781250Y-219868750D03*
%TD*%
D31*
%TO.C,D201*%
X487362500Y-182625000D03*
X487362500Y-179325000D03*
%TD*%
D26*
%TO.C,D20*%
X191356250Y-200818750D03*
X188056250Y-200818750D03*
%TD*%
%TO.C,D23*%
X248506250Y-200818750D03*
X245206250Y-200818750D03*
%TD*%
%TO.C,D40*%
X219931250Y-219868750D03*
X216631250Y-219868750D03*
%TD*%
M02*
