%TF.GenerationSoftware,KiCad,Pcbnew,(6.0.4)*%
%TF.CreationDate,2022-05-25T22:55:25+02:00*%
%TF.ProjectId,pcb-rounded,7063622d-726f-4756-9e64-65642e6b6963,rev?*%
%TF.SameCoordinates,Original*%
%TF.FileFunction,Profile,NP*%
%FSLAX46Y46*%
G04 Gerber Fmt 4.6, Leading zero omitted, Abs format (unit mm)*
G04 Created by KiCad (PCBNEW (6.0.4)) date 2022-05-25 22:55:25*
%MOMM*%
%LPD*%
G01*
G04 APERTURE LIST*
%TA.AperFunction,Profile*%
%ADD10C,0.100000*%
%TD*%
%TA.AperFunction,Profile*%
%ADD11C,0.120000*%
%TD*%
G04 APERTURE END LIST*
D10*
X493712500Y-165100000D02*
G75*
G03*
X492125000Y-163512500I-1587600J-100D01*
G01*
X88900000Y-288925000D02*
X88900000Y-165100000D01*
X90487500Y-163512500D02*
G75*
G03*
X88900000Y-165100000I0J-1587500D01*
G01*
X90487500Y-290512500D02*
X492125000Y-290512500D01*
X492125000Y-290512500D02*
G75*
G03*
X493712500Y-288925000I0J1587500D01*
G01*
X88900000Y-288925000D02*
G75*
G03*
X90487500Y-290512500I1587600J100D01*
G01*
X493712500Y-288925000D02*
X493712500Y-165100000D01*
X90487500Y-163512500D02*
X492125000Y-163512500D01*
D11*
%TO.C,D150*%
X464706250Y-220697500D02*
X460806250Y-220697500D01*
X460806250Y-224397500D02*
X464706250Y-224397500D01*
X464706250Y-224397500D02*
X464706250Y-220697500D01*
X460806250Y-220697500D02*
X460806250Y-224397500D01*
%TO.C,D190*%
X131331250Y-281547500D02*
X131331250Y-277847500D01*
X131331250Y-277847500D02*
X127431250Y-277847500D01*
X127431250Y-277847500D02*
X127431250Y-281547500D01*
X127431250Y-281547500D02*
X131331250Y-281547500D01*
%TO.C,D180*%
X298018750Y-258797500D02*
X294118750Y-258797500D01*
X294118750Y-258797500D02*
X294118750Y-262497500D01*
X294118750Y-262497500D02*
X298018750Y-262497500D01*
X298018750Y-262497500D02*
X298018750Y-258797500D01*
%TO.C,D115*%
X98856250Y-205347500D02*
X102756250Y-205347500D01*
X102756250Y-205347500D02*
X102756250Y-201647500D01*
X98856250Y-201647500D02*
X98856250Y-205347500D01*
X102756250Y-201647500D02*
X98856250Y-201647500D01*
%TO.C,D119*%
X178956250Y-205347500D02*
X178956250Y-201647500D01*
X175056250Y-201647500D02*
X175056250Y-205347500D01*
X175056250Y-205347500D02*
X178956250Y-205347500D01*
X178956250Y-201647500D02*
X175056250Y-201647500D01*
%TO.C,D135*%
X127431250Y-224397500D02*
X131331250Y-224397500D01*
X131331250Y-220697500D02*
X127431250Y-220697500D01*
X131331250Y-224397500D02*
X131331250Y-220697500D01*
X127431250Y-220697500D02*
X127431250Y-224397500D01*
%TO.C,D162*%
X326593750Y-239747500D02*
X322693750Y-239747500D01*
X326593750Y-243447500D02*
X326593750Y-239747500D01*
X322693750Y-243447500D02*
X326593750Y-243447500D01*
X322693750Y-239747500D02*
X322693750Y-243447500D01*
%TO.C,D136*%
X150381250Y-220697500D02*
X146481250Y-220697500D01*
X146481250Y-220697500D02*
X146481250Y-224397500D01*
X150381250Y-224397500D02*
X150381250Y-220697500D01*
X146481250Y-224397500D02*
X150381250Y-224397500D01*
%TO.C,D144*%
X298881250Y-220697500D02*
X298881250Y-224397500D01*
X298881250Y-224397500D02*
X302781250Y-224397500D01*
X302781250Y-220697500D02*
X298881250Y-220697500D01*
X302781250Y-224397500D02*
X302781250Y-220697500D01*
%TO.C,D158*%
X246493750Y-239747500D02*
X246493750Y-243447500D01*
X250393750Y-239747500D02*
X246493750Y-239747500D01*
X246493750Y-243447500D02*
X250393750Y-243447500D01*
X250393750Y-243447500D02*
X250393750Y-239747500D01*
%TO.C,D197*%
X374218750Y-286310000D02*
X374218750Y-282610000D01*
X374218750Y-282610000D02*
X370318750Y-282610000D01*
X370318750Y-282610000D02*
X370318750Y-286310000D01*
X370318750Y-286310000D02*
X374218750Y-286310000D01*
%TO.C,D134*%
X107518750Y-220697500D02*
X103618750Y-220697500D01*
X103618750Y-224397500D02*
X107518750Y-224397500D01*
X107518750Y-224397500D02*
X107518750Y-220697500D01*
X103618750Y-220697500D02*
X103618750Y-224397500D01*
%TO.C,D138*%
X188481250Y-224397500D02*
X188481250Y-220697500D01*
X184581250Y-224397500D02*
X188481250Y-224397500D01*
X184581250Y-220697500D02*
X184581250Y-224397500D01*
X188481250Y-220697500D02*
X184581250Y-220697500D01*
%TO.C,D166*%
X426606250Y-243447500D02*
X426606250Y-239747500D01*
X422706250Y-243447500D02*
X426606250Y-243447500D01*
X422706250Y-239747500D02*
X422706250Y-243447500D01*
X426606250Y-239747500D02*
X422706250Y-239747500D01*
%TO.C,D185*%
X426606250Y-258797500D02*
X422706250Y-258797500D01*
X422706250Y-258797500D02*
X422706250Y-262497500D01*
X426606250Y-262497500D02*
X426606250Y-258797500D01*
X422706250Y-262497500D02*
X426606250Y-262497500D01*
%TO.C,D107*%
X241731250Y-181535000D02*
X245631250Y-181535000D01*
X245631250Y-177835000D02*
X241731250Y-177835000D01*
X245631250Y-181535000D02*
X245631250Y-177835000D01*
X241731250Y-177835000D02*
X241731250Y-181535000D01*
%TO.C,D175*%
X202768750Y-262497500D02*
X202768750Y-258797500D01*
X198868750Y-262497500D02*
X202768750Y-262497500D01*
X202768750Y-258797500D02*
X198868750Y-258797500D01*
X198868750Y-258797500D02*
X198868750Y-262497500D01*
%TO.C,D170*%
X105137500Y-258797500D02*
X101237500Y-258797500D01*
X101237500Y-258797500D02*
X101237500Y-262497500D01*
X101237500Y-262497500D02*
X105137500Y-262497500D01*
X105137500Y-262497500D02*
X105137500Y-258797500D01*
%TO.C,D202*%
X186100000Y-277847500D02*
X182200000Y-277847500D01*
X186100000Y-281547500D02*
X186100000Y-277847500D01*
X182200000Y-281547500D02*
X186100000Y-281547500D01*
X182200000Y-277847500D02*
X182200000Y-281547500D01*
%TO.C,D146*%
X340881250Y-224397500D02*
X340881250Y-220697500D01*
X336981250Y-224397500D02*
X340881250Y-224397500D01*
X340881250Y-220697500D02*
X336981250Y-220697500D01*
X336981250Y-220697500D02*
X336981250Y-224397500D01*
%TO.C,D140*%
X226581250Y-220697500D02*
X222681250Y-220697500D01*
X226581250Y-224397500D02*
X226581250Y-220697500D01*
X222681250Y-224397500D02*
X226581250Y-224397500D01*
X222681250Y-220697500D02*
X222681250Y-224397500D01*
%TO.C,D188*%
X479856250Y-272022500D02*
X483756250Y-272022500D01*
X483756250Y-268322500D02*
X479856250Y-268322500D01*
X483756250Y-272022500D02*
X483756250Y-268322500D01*
X479856250Y-268322500D02*
X479856250Y-272022500D01*
%TO.C,D137*%
X165531250Y-224397500D02*
X169431250Y-224397500D01*
X169431250Y-224397500D02*
X169431250Y-220697500D01*
X169431250Y-220697500D02*
X165531250Y-220697500D01*
X165531250Y-220697500D02*
X165531250Y-224397500D01*
%TO.C,D193*%
X289356250Y-281547500D02*
X293256250Y-281547500D01*
X293256250Y-281547500D02*
X293256250Y-277847500D01*
X289356250Y-277847500D02*
X289356250Y-281547500D01*
X293256250Y-277847500D02*
X289356250Y-277847500D01*
%TO.C,D163*%
X341743750Y-243447500D02*
X345643750Y-243447500D01*
X345643750Y-239747500D02*
X341743750Y-239747500D01*
X341743750Y-239747500D02*
X341743750Y-243447500D01*
X345643750Y-243447500D02*
X345643750Y-239747500D01*
%TO.C,D139*%
X207531250Y-224397500D02*
X207531250Y-220697500D01*
X207531250Y-220697500D02*
X203631250Y-220697500D01*
X203631250Y-220697500D02*
X203631250Y-224397500D01*
X203631250Y-224397500D02*
X207531250Y-224397500D01*
%TO.C,D141*%
X241731250Y-224397500D02*
X245631250Y-224397500D01*
X245631250Y-224397500D02*
X245631250Y-220697500D01*
X245631250Y-220697500D02*
X241731250Y-220697500D01*
X241731250Y-220697500D02*
X241731250Y-224397500D01*
%TO.C,D148*%
X422706250Y-224397500D02*
X426606250Y-224397500D01*
X426606250Y-220697500D02*
X422706250Y-220697500D01*
X426606250Y-224397500D02*
X426606250Y-220697500D01*
X422706250Y-220697500D02*
X422706250Y-224397500D01*
%TO.C,D113*%
X369456250Y-177835000D02*
X365556250Y-177835000D01*
X369456250Y-181535000D02*
X369456250Y-177835000D01*
X365556250Y-177835000D02*
X365556250Y-181535000D01*
X365556250Y-181535000D02*
X369456250Y-181535000D01*
%TO.C,D109*%
X283731250Y-177835000D02*
X279831250Y-177835000D01*
X283731250Y-181535000D02*
X283731250Y-177835000D01*
X279831250Y-177835000D02*
X279831250Y-181535000D01*
X279831250Y-181535000D02*
X283731250Y-181535000D01*
%TO.C,D127*%
X331356250Y-205347500D02*
X331356250Y-201647500D01*
X327456250Y-205347500D02*
X331356250Y-205347500D01*
X331356250Y-201647500D02*
X327456250Y-201647500D01*
X327456250Y-201647500D02*
X327456250Y-205347500D01*
%TO.C,D167*%
X445656250Y-243447500D02*
X445656250Y-239747500D01*
X441756250Y-239747500D02*
X441756250Y-243447500D01*
X441756250Y-243447500D02*
X445656250Y-243447500D01*
X445656250Y-239747500D02*
X441756250Y-239747500D01*
%TO.C,D183*%
X370318750Y-267260000D02*
X374218750Y-267260000D01*
X370318750Y-263560000D02*
X370318750Y-267260000D01*
X374218750Y-263560000D02*
X370318750Y-263560000D01*
X374218750Y-267260000D02*
X374218750Y-263560000D01*
%TO.C,D130*%
X426606250Y-205347500D02*
X426606250Y-201647500D01*
X422706250Y-201647500D02*
X422706250Y-205347500D01*
X422706250Y-205347500D02*
X426606250Y-205347500D01*
X426606250Y-201647500D02*
X422706250Y-201647500D01*
%TO.C,D116*%
X121806250Y-201647500D02*
X117906250Y-201647500D01*
X117906250Y-201647500D02*
X117906250Y-205347500D01*
X121806250Y-205347500D02*
X121806250Y-201647500D01*
X117906250Y-205347500D02*
X121806250Y-205347500D01*
%TO.C,D168*%
X464706250Y-243447500D02*
X464706250Y-239747500D01*
X464706250Y-239747500D02*
X460806250Y-239747500D01*
X460806250Y-239747500D02*
X460806250Y-243447500D01*
X460806250Y-243447500D02*
X464706250Y-243447500D01*
%TO.C,D176*%
X221818750Y-262497500D02*
X221818750Y-258797500D01*
X217918750Y-258797500D02*
X217918750Y-262497500D01*
X221818750Y-258797500D02*
X217918750Y-258797500D01*
X217918750Y-262497500D02*
X221818750Y-262497500D01*
%TO.C,D110*%
X312306250Y-181535000D02*
X312306250Y-177835000D01*
X308406250Y-181535000D02*
X312306250Y-181535000D01*
X308406250Y-177835000D02*
X308406250Y-181535000D01*
X312306250Y-177835000D02*
X308406250Y-177835000D01*
%TO.C,D128*%
X359931250Y-205347500D02*
X359931250Y-201647500D01*
X356031250Y-201647500D02*
X356031250Y-205347500D01*
X359931250Y-201647500D02*
X356031250Y-201647500D01*
X356031250Y-205347500D02*
X359931250Y-205347500D01*
%TO.C,D118*%
X159906250Y-201647500D02*
X156006250Y-201647500D01*
X159906250Y-205347500D02*
X159906250Y-201647500D01*
X156006250Y-201647500D02*
X156006250Y-205347500D01*
X156006250Y-205347500D02*
X159906250Y-205347500D01*
%TO.C,D186*%
X441756250Y-262497500D02*
X445656250Y-262497500D01*
X445656250Y-262497500D02*
X445656250Y-258797500D01*
X441756250Y-258797500D02*
X441756250Y-262497500D01*
X445656250Y-258797500D02*
X441756250Y-258797500D01*
%TO.C,D171*%
X122668750Y-258797500D02*
X122668750Y-262497500D01*
X122668750Y-262497500D02*
X126568750Y-262497500D01*
X126568750Y-262497500D02*
X126568750Y-258797500D01*
X126568750Y-258797500D02*
X122668750Y-258797500D01*
%TO.C,D105*%
X198006250Y-181535000D02*
X198006250Y-177835000D01*
X194106250Y-177835000D02*
X194106250Y-181535000D01*
X198006250Y-177835000D02*
X194106250Y-177835000D01*
X194106250Y-181535000D02*
X198006250Y-181535000D01*
%TO.C,D192*%
X226581250Y-277847500D02*
X222681250Y-277847500D01*
X222681250Y-277847500D02*
X222681250Y-281547500D01*
X222681250Y-281547500D02*
X226581250Y-281547500D01*
X226581250Y-281547500D02*
X226581250Y-277847500D01*
%TO.C,D120*%
X198006250Y-201647500D02*
X194106250Y-201647500D01*
X194106250Y-201647500D02*
X194106250Y-205347500D01*
X198006250Y-205347500D02*
X198006250Y-201647500D01*
X194106250Y-205347500D02*
X198006250Y-205347500D01*
%TO.C,D122*%
X236106250Y-205347500D02*
X236106250Y-201647500D01*
X232206250Y-201647500D02*
X232206250Y-205347500D01*
X236106250Y-201647500D02*
X232206250Y-201647500D01*
X232206250Y-205347500D02*
X236106250Y-205347500D01*
%TO.C,D129*%
X394131250Y-205347500D02*
X398031250Y-205347500D01*
X398031250Y-205347500D02*
X398031250Y-201647500D01*
X394131250Y-201647500D02*
X394131250Y-205347500D01*
X398031250Y-201647500D02*
X394131250Y-201647500D01*
%TO.C,D155*%
X193243750Y-239747500D02*
X189343750Y-239747500D01*
X189343750Y-243447500D02*
X193243750Y-243447500D01*
X193243750Y-243447500D02*
X193243750Y-239747500D01*
X189343750Y-239747500D02*
X189343750Y-243447500D01*
%TO.C,D103*%
X159906250Y-181535000D02*
X159906250Y-177835000D01*
X156006250Y-181535000D02*
X159906250Y-181535000D01*
X156006250Y-177835000D02*
X156006250Y-181535000D01*
X159906250Y-177835000D02*
X156006250Y-177835000D01*
%TO.C,D106*%
X222681250Y-177835000D02*
X222681250Y-181535000D01*
X226581250Y-181535000D02*
X226581250Y-177835000D01*
X222681250Y-181535000D02*
X226581250Y-181535000D01*
X226581250Y-177835000D02*
X222681250Y-177835000D01*
%TO.C,D181*%
X317068750Y-258797500D02*
X313168750Y-258797500D01*
X313168750Y-258797500D02*
X313168750Y-262497500D01*
X313168750Y-262497500D02*
X317068750Y-262497500D01*
X317068750Y-262497500D02*
X317068750Y-258797500D01*
%TO.C,D184*%
X394131250Y-262497500D02*
X398031250Y-262497500D01*
X398031250Y-262497500D02*
X398031250Y-258797500D01*
X394131250Y-258797500D02*
X394131250Y-262497500D01*
X398031250Y-258797500D02*
X394131250Y-258797500D01*
%TO.C,D114*%
X398031250Y-177835000D02*
X394131250Y-177835000D01*
X398031250Y-181535000D02*
X398031250Y-177835000D01*
X394131250Y-181535000D02*
X398031250Y-181535000D01*
X394131250Y-177835000D02*
X394131250Y-181535000D01*
%TO.C,D156*%
X212293750Y-243447500D02*
X212293750Y-239747500D01*
X208393750Y-243447500D02*
X212293750Y-243447500D01*
X212293750Y-239747500D02*
X208393750Y-239747500D01*
X208393750Y-239747500D02*
X208393750Y-243447500D01*
%TO.C,D159*%
X265543750Y-239747500D02*
X265543750Y-243447500D01*
X269443750Y-243447500D02*
X269443750Y-239747500D01*
X269443750Y-239747500D02*
X265543750Y-239747500D01*
X265543750Y-243447500D02*
X269443750Y-243447500D01*
%TO.C,D172*%
X145618750Y-262497500D02*
X145618750Y-258797500D01*
X141718750Y-262497500D02*
X145618750Y-262497500D01*
X141718750Y-258797500D02*
X141718750Y-262497500D01*
X145618750Y-258797500D02*
X141718750Y-258797500D01*
%TO.C,D117*%
X140856250Y-205347500D02*
X140856250Y-201647500D01*
X140856250Y-201647500D02*
X136956250Y-201647500D01*
X136956250Y-205347500D02*
X140856250Y-205347500D01*
X136956250Y-201647500D02*
X136956250Y-205347500D01*
%TO.C,D173*%
X164668750Y-262497500D02*
X164668750Y-258797500D01*
X160768750Y-262497500D02*
X164668750Y-262497500D01*
X160768750Y-258797500D02*
X160768750Y-262497500D01*
X164668750Y-258797500D02*
X160768750Y-258797500D01*
%TO.C,D178*%
X256018750Y-258797500D02*
X256018750Y-262497500D01*
X259918750Y-262497500D02*
X259918750Y-258797500D01*
X256018750Y-262497500D02*
X259918750Y-262497500D01*
X259918750Y-258797500D02*
X256018750Y-258797500D01*
%TO.C,D199*%
X436131250Y-277847500D02*
X432231250Y-277847500D01*
X432231250Y-281547500D02*
X436131250Y-281547500D01*
X432231250Y-277847500D02*
X432231250Y-281547500D01*
X436131250Y-281547500D02*
X436131250Y-277847500D01*
%TO.C,D143*%
X283731250Y-224397500D02*
X283731250Y-220697500D01*
X279831250Y-220697500D02*
X279831250Y-224397500D01*
X283731250Y-220697500D02*
X279831250Y-220697500D01*
X279831250Y-224397500D02*
X283731250Y-224397500D01*
%TO.C,D182*%
X343262500Y-258797500D02*
X339362500Y-258797500D01*
X343262500Y-262497500D02*
X343262500Y-258797500D01*
X339362500Y-258797500D02*
X339362500Y-262497500D01*
X339362500Y-262497500D02*
X343262500Y-262497500D01*
%TO.C,D157*%
X227443750Y-239747500D02*
X227443750Y-243447500D01*
X227443750Y-243447500D02*
X231343750Y-243447500D01*
X231343750Y-239747500D02*
X227443750Y-239747500D01*
X231343750Y-243447500D02*
X231343750Y-239747500D01*
%TO.C,D196*%
X351268750Y-282610000D02*
X351268750Y-286310000D01*
X355168750Y-282610000D02*
X351268750Y-282610000D01*
X355168750Y-286310000D02*
X355168750Y-282610000D01*
X351268750Y-286310000D02*
X355168750Y-286310000D01*
%TO.C,D102*%
X140856250Y-181535000D02*
X140856250Y-177835000D01*
X140856250Y-177835000D02*
X136956250Y-177835000D01*
X136956250Y-177835000D02*
X136956250Y-181535000D01*
X136956250Y-181535000D02*
X140856250Y-181535000D01*
%TO.C,D203*%
X262300000Y-281547500D02*
X262300000Y-277847500D01*
X262300000Y-277847500D02*
X258400000Y-277847500D01*
X258400000Y-281547500D02*
X262300000Y-281547500D01*
X258400000Y-277847500D02*
X258400000Y-281547500D01*
%TO.C,D177*%
X236968750Y-262497500D02*
X240868750Y-262497500D01*
X236968750Y-258797500D02*
X236968750Y-262497500D01*
X240868750Y-262497500D02*
X240868750Y-258797500D01*
X240868750Y-258797500D02*
X236968750Y-258797500D01*
%TO.C,D145*%
X317931250Y-220697500D02*
X317931250Y-224397500D01*
X321831250Y-220697500D02*
X317931250Y-220697500D01*
X321831250Y-224397500D02*
X321831250Y-220697500D01*
X317931250Y-224397500D02*
X321831250Y-224397500D01*
%TO.C,D112*%
X346506250Y-181535000D02*
X350406250Y-181535000D01*
X350406250Y-181535000D02*
X350406250Y-177835000D01*
X350406250Y-177835000D02*
X346506250Y-177835000D01*
X346506250Y-177835000D02*
X346506250Y-181535000D01*
%TO.C,D142*%
X264681250Y-220697500D02*
X260781250Y-220697500D01*
X260781250Y-224397500D02*
X264681250Y-224397500D01*
X264681250Y-224397500D02*
X264681250Y-220697500D01*
X260781250Y-220697500D02*
X260781250Y-224397500D01*
%TO.C,D161*%
X303643750Y-243447500D02*
X307543750Y-243447500D01*
X307543750Y-243447500D02*
X307543750Y-239747500D01*
X303643750Y-239747500D02*
X303643750Y-243447500D01*
X307543750Y-239747500D02*
X303643750Y-239747500D01*
%TO.C,D149*%
X445656250Y-224397500D02*
X445656250Y-220697500D01*
X441756250Y-224397500D02*
X445656250Y-224397500D01*
X441756250Y-220697500D02*
X441756250Y-224397500D01*
X445656250Y-220697500D02*
X441756250Y-220697500D01*
%TO.C,D126*%
X312306250Y-205347500D02*
X312306250Y-201647500D01*
X312306250Y-201647500D02*
X308406250Y-201647500D01*
X308406250Y-205347500D02*
X312306250Y-205347500D01*
X308406250Y-201647500D02*
X308406250Y-205347500D01*
%TO.C,D195*%
X331356250Y-277847500D02*
X327456250Y-277847500D01*
X327456250Y-281547500D02*
X331356250Y-281547500D01*
X331356250Y-281547500D02*
X331356250Y-277847500D01*
X327456250Y-277847500D02*
X327456250Y-281547500D01*
%TO.C,D123*%
X251256250Y-201647500D02*
X251256250Y-205347500D01*
X255156250Y-205347500D02*
X255156250Y-201647500D01*
X255156250Y-201647500D02*
X251256250Y-201647500D01*
X251256250Y-205347500D02*
X255156250Y-205347500D01*
%TO.C,D179*%
X278968750Y-258797500D02*
X275068750Y-258797500D01*
X275068750Y-258797500D02*
X275068750Y-262497500D01*
X278968750Y-262497500D02*
X278968750Y-258797500D01*
X275068750Y-262497500D02*
X278968750Y-262497500D01*
%TO.C,D174*%
X183718750Y-262497500D02*
X183718750Y-258797500D01*
X183718750Y-258797500D02*
X179818750Y-258797500D01*
X179818750Y-258797500D02*
X179818750Y-262497500D01*
X179818750Y-262497500D02*
X183718750Y-262497500D01*
%TO.C,D147*%
X398031250Y-224397500D02*
X398031250Y-220697500D01*
X394131250Y-220697500D02*
X394131250Y-224397500D01*
X398031250Y-220697500D02*
X394131250Y-220697500D01*
X394131250Y-224397500D02*
X398031250Y-224397500D01*
%TO.C,D198*%
X393268750Y-282610000D02*
X389368750Y-282610000D01*
X389368750Y-282610000D02*
X389368750Y-286310000D01*
X389368750Y-286310000D02*
X393268750Y-286310000D01*
X393268750Y-286310000D02*
X393268750Y-282610000D01*
%TO.C,D133*%
X483756250Y-205347500D02*
X483756250Y-201647500D01*
X479856250Y-201647500D02*
X479856250Y-205347500D01*
X483756250Y-201647500D02*
X479856250Y-201647500D01*
X479856250Y-205347500D02*
X483756250Y-205347500D01*
%TO.C,D121*%
X213156250Y-201647500D02*
X213156250Y-205347500D01*
X213156250Y-205347500D02*
X217056250Y-205347500D01*
X217056250Y-201647500D02*
X213156250Y-201647500D01*
X217056250Y-205347500D02*
X217056250Y-201647500D01*
%TO.C,D187*%
X464706250Y-258797500D02*
X460806250Y-258797500D01*
X460806250Y-258797500D02*
X460806250Y-262497500D01*
X460806250Y-262497500D02*
X464706250Y-262497500D01*
X464706250Y-262497500D02*
X464706250Y-258797500D01*
%TO.C,D125*%
X289356250Y-201647500D02*
X289356250Y-205347500D01*
X289356250Y-205347500D02*
X293256250Y-205347500D01*
X293256250Y-205347500D02*
X293256250Y-201647500D01*
X293256250Y-201647500D02*
X289356250Y-201647500D01*
%TO.C,D154*%
X170293750Y-243447500D02*
X174193750Y-243447500D01*
X170293750Y-239747500D02*
X170293750Y-243447500D01*
X174193750Y-243447500D02*
X174193750Y-239747500D01*
X174193750Y-239747500D02*
X170293750Y-239747500D01*
%TO.C,D104*%
X178956250Y-177835000D02*
X175056250Y-177835000D01*
X178956250Y-181535000D02*
X178956250Y-177835000D01*
X175056250Y-181535000D02*
X178956250Y-181535000D01*
X175056250Y-177835000D02*
X175056250Y-181535000D01*
%TO.C,D153*%
X155143750Y-239747500D02*
X151243750Y-239747500D01*
X151243750Y-243447500D02*
X155143750Y-243447500D01*
X155143750Y-243447500D02*
X155143750Y-239747500D01*
X151243750Y-239747500D02*
X151243750Y-243447500D01*
%TO.C,D124*%
X274206250Y-205347500D02*
X274206250Y-201647500D01*
X270306250Y-201647500D02*
X270306250Y-205347500D01*
X270306250Y-205347500D02*
X274206250Y-205347500D01*
X274206250Y-201647500D02*
X270306250Y-201647500D01*
%TO.C,D200*%
X464706250Y-281547500D02*
X464706250Y-277847500D01*
X460806250Y-277847500D02*
X460806250Y-281547500D01*
X464706250Y-277847500D02*
X460806250Y-277847500D01*
X460806250Y-281547500D02*
X464706250Y-281547500D01*
%TO.C,D194*%
X312306250Y-277847500D02*
X308406250Y-277847500D01*
X312306250Y-281547500D02*
X312306250Y-277847500D01*
X308406250Y-277847500D02*
X308406250Y-281547500D01*
X308406250Y-281547500D02*
X312306250Y-281547500D01*
%TO.C,D111*%
X331356250Y-177835000D02*
X327456250Y-177835000D01*
X331356250Y-181535000D02*
X331356250Y-177835000D01*
X327456250Y-181535000D02*
X331356250Y-181535000D01*
X327456250Y-177835000D02*
X327456250Y-181535000D01*
%TO.C,D132*%
X460806250Y-205347500D02*
X464706250Y-205347500D01*
X464706250Y-205347500D02*
X464706250Y-201647500D01*
X460806250Y-201647500D02*
X460806250Y-205347500D01*
X464706250Y-201647500D02*
X460806250Y-201647500D01*
%TO.C,D189*%
X103618750Y-277847500D02*
X103618750Y-281547500D01*
X107518750Y-281547500D02*
X107518750Y-277847500D01*
X103618750Y-281547500D02*
X107518750Y-281547500D01*
X107518750Y-277847500D02*
X103618750Y-277847500D01*
%TO.C,D160*%
X284593750Y-239747500D02*
X284593750Y-243447500D01*
X284593750Y-243447500D02*
X288493750Y-243447500D01*
X288493750Y-239747500D02*
X284593750Y-239747500D01*
X288493750Y-243447500D02*
X288493750Y-239747500D01*
%TO.C,D131*%
X445656250Y-201647500D02*
X441756250Y-201647500D01*
X445656250Y-205347500D02*
X445656250Y-201647500D01*
X441756250Y-201647500D02*
X441756250Y-205347500D01*
X441756250Y-205347500D02*
X445656250Y-205347500D01*
%TO.C,D108*%
X260781250Y-181535000D02*
X264681250Y-181535000D01*
X264681250Y-177835000D02*
X260781250Y-177835000D01*
X264681250Y-181535000D02*
X264681250Y-177835000D01*
X260781250Y-177835000D02*
X260781250Y-181535000D01*
%TO.C,D152*%
X136093750Y-239747500D02*
X132193750Y-239747500D01*
X132193750Y-239747500D02*
X132193750Y-243447500D01*
X136093750Y-243447500D02*
X136093750Y-239747500D01*
X132193750Y-243447500D02*
X136093750Y-243447500D01*
%TO.C,D169*%
X479856250Y-233922500D02*
X483756250Y-233922500D01*
X483756250Y-230222500D02*
X479856250Y-230222500D01*
X483756250Y-233922500D02*
X483756250Y-230222500D01*
X479856250Y-230222500D02*
X479856250Y-233922500D01*
%TO.C,D191*%
X148862500Y-281547500D02*
X152762500Y-281547500D01*
X152762500Y-277847500D02*
X148862500Y-277847500D01*
X152762500Y-281547500D02*
X152762500Y-277847500D01*
X148862500Y-277847500D02*
X148862500Y-281547500D01*
%TO.C,D165*%
X398031250Y-239747500D02*
X394131250Y-239747500D01*
X394131250Y-243447500D02*
X398031250Y-243447500D01*
X398031250Y-243447500D02*
X398031250Y-239747500D01*
X394131250Y-239747500D02*
X394131250Y-243447500D01*
%TO.C,D164*%
X363175000Y-233922500D02*
X367075000Y-233922500D01*
X367075000Y-230222500D02*
X363175000Y-230222500D01*
X367075000Y-233922500D02*
X367075000Y-230222500D01*
X363175000Y-230222500D02*
X363175000Y-233922500D01*
%TO.C,D151*%
X106000000Y-239747500D02*
X106000000Y-243447500D01*
X109900000Y-243447500D02*
X109900000Y-239747500D01*
X109900000Y-239747500D02*
X106000000Y-239747500D01*
X106000000Y-243447500D02*
X109900000Y-243447500D01*
%TO.C,D101*%
X98856250Y-181535000D02*
X102756250Y-181535000D01*
X102756250Y-177835000D02*
X98856250Y-177835000D01*
X102756250Y-181535000D02*
X102756250Y-177835000D01*
X98856250Y-177835000D02*
X98856250Y-181535000D01*
%TD*%
M02*
