%TF.GenerationSoftware,KiCad,Pcbnew,(6.0.4)*%
%TF.CreationDate,2022-05-25T22:55:25+02:00*%
%TF.ProjectId,pcb-rounded,7063622d-726f-4756-9e64-65642e6b6963,rev?*%
%TF.SameCoordinates,Original*%
%TF.FileFunction,Legend,Top*%
%TF.FilePolarity,Positive*%
%FSLAX46Y46*%
G04 Gerber Fmt 4.6, Leading zero omitted, Abs format (unit mm)*
G04 Created by KiCad (PCBNEW (6.0.4)) date 2022-05-25 22:55:25*
%MOMM*%
%LPD*%
G01*
G04 APERTURE LIST*
%ADD10C,0.200000*%
%ADD11C,0.150000*%
%ADD12C,0.120000*%
G04 APERTURE END LIST*
D10*
G36*
X199926208Y-275607989D02*
G01*
X203662406Y-271592746D01*
X204902633Y-271592746D01*
X201466163Y-275210086D01*
X205062835Y-279287341D01*
X203734748Y-279287341D01*
X200691017Y-275861201D01*
X199926208Y-276677692D01*
X199926208Y-279287341D01*
X198903014Y-279287341D01*
X198903014Y-271592746D01*
X199926208Y-271592746D01*
X199926208Y-275607989D01*
G37*
X199926208Y-275607989D02*
X203662406Y-271592746D01*
X204902633Y-271592746D01*
X201466163Y-275210086D01*
X205062835Y-279287341D01*
X203734748Y-279287341D01*
X200691017Y-275861201D01*
X199926208Y-276677692D01*
X199926208Y-279287341D01*
X198903014Y-279287341D01*
X198903014Y-271592746D01*
X199926208Y-271592746D01*
X199926208Y-275607989D01*
G36*
X206887451Y-269522113D02*
G01*
X205378158Y-272357082D01*
X204898948Y-272357082D01*
X206504539Y-269414622D01*
X204605605Y-269414622D01*
X204605605Y-269022746D01*
X206887466Y-269022746D01*
X206887451Y-269522113D01*
G37*
X206887451Y-269522113D02*
X205378158Y-272357082D01*
X204898948Y-272357082D01*
X206504539Y-269414622D01*
X204605605Y-269414622D01*
X204605605Y-269022746D01*
X206887466Y-269022746D01*
X206887451Y-269522113D01*
G36*
X204916923Y-271145129D02*
G01*
X196444480Y-271145129D01*
X196444480Y-279308414D01*
X195416984Y-279308414D01*
X195416984Y-271145129D01*
X196444480Y-271145129D01*
X196444480Y-271144618D01*
X195416984Y-271144618D01*
X195416984Y-271145129D01*
X162263950Y-271145129D01*
X162263950Y-270053783D01*
X204916923Y-270053783D01*
X204916923Y-271145129D01*
G37*
X204916923Y-271145129D02*
X196444480Y-271145129D01*
X196444480Y-279308414D01*
X195416984Y-279308414D01*
X195416984Y-271145129D01*
X196444480Y-271145129D01*
X196444480Y-271144618D01*
X195416984Y-271144618D01*
X195416984Y-271145129D01*
X162263950Y-271145129D01*
X162263950Y-270053783D01*
X204916923Y-270053783D01*
X204916923Y-271145129D01*
G36*
X174454536Y-274984641D02*
G01*
X174473915Y-274764856D01*
X174501045Y-274551207D01*
X174535927Y-274343694D01*
X174578560Y-274142318D01*
X174628944Y-273947079D01*
X174687080Y-273757976D01*
X174718974Y-273665161D01*
X174752644Y-273574041D01*
X174788091Y-273484617D01*
X174825314Y-273396889D01*
X174864313Y-273310856D01*
X174905089Y-273226519D01*
X174947641Y-273143877D01*
X174991970Y-273062931D01*
X175038075Y-272983681D01*
X175085956Y-272906126D01*
X175135614Y-272830267D01*
X175187048Y-272756103D01*
X175240259Y-272683635D01*
X175295246Y-272612863D01*
X175352009Y-272543786D01*
X175410548Y-272476405D01*
X175468240Y-272414031D01*
X175527627Y-272353513D01*
X175588710Y-272294853D01*
X175651488Y-272238049D01*
X175715962Y-272183103D01*
X175782132Y-272130013D01*
X175849997Y-272078781D01*
X175919558Y-272029406D01*
X175990815Y-271981888D01*
X176063767Y-271936226D01*
X176138415Y-271892422D01*
X176214759Y-271850475D01*
X176292798Y-271810385D01*
X176372533Y-271772153D01*
X176453964Y-271735777D01*
X176537090Y-271701259D01*
X176622174Y-271668719D01*
X176708186Y-271638278D01*
X176795128Y-271609937D01*
X176882997Y-271583695D01*
X176971796Y-271559553D01*
X177061523Y-271537510D01*
X177152178Y-271517566D01*
X177243762Y-271499722D01*
X177336275Y-271483977D01*
X177429716Y-271470331D01*
X177524086Y-271458785D01*
X177619385Y-271449338D01*
X177715612Y-271441991D01*
X177812767Y-271436742D01*
X177910851Y-271433594D01*
X178009864Y-271432544D01*
X178112550Y-271433614D01*
X178213904Y-271436823D01*
X178313926Y-271442173D01*
X178412615Y-271449661D01*
X178509973Y-271459290D01*
X178605997Y-271471059D01*
X178700690Y-271484967D01*
X178794051Y-271501015D01*
X178886079Y-271519203D01*
X178976775Y-271539530D01*
X179066138Y-271561997D01*
X179154170Y-271586605D01*
X179240869Y-271613352D01*
X179326236Y-271642238D01*
X179410270Y-271673265D01*
X179492973Y-271706432D01*
X179574868Y-271740930D01*
X179655188Y-271777244D01*
X179733934Y-271815376D01*
X179811105Y-271855324D01*
X179886702Y-271897088D01*
X179960724Y-271940670D01*
X180033172Y-271986068D01*
X180104045Y-272033282D01*
X180173343Y-272082314D01*
X180241068Y-272133162D01*
X180307217Y-272185827D01*
X180371793Y-272240309D01*
X180434793Y-272296608D01*
X180496220Y-272354723D01*
X180556071Y-272414656D01*
X180614349Y-272476405D01*
X180614341Y-272476405D01*
X180672255Y-272541908D01*
X180728433Y-272609229D01*
X180782875Y-272678366D01*
X180835580Y-272749319D01*
X180886550Y-272822090D01*
X180935784Y-272896678D01*
X180983282Y-272973082D01*
X181029043Y-273051303D01*
X181073069Y-273131341D01*
X181115359Y-273213195D01*
X181155913Y-273296867D01*
X181194730Y-273382355D01*
X181231812Y-273469659D01*
X181267158Y-273558780D01*
X181300767Y-273649718D01*
X181332641Y-273742473D01*
X181363304Y-273836923D01*
X181391989Y-273932947D01*
X181418695Y-274030547D01*
X181443423Y-274129721D01*
X181466173Y-274230469D01*
X181486945Y-274332792D01*
X181505738Y-274436690D01*
X181522553Y-274542162D01*
X181537390Y-274649209D01*
X181550249Y-274757830D01*
X181570031Y-274979796D01*
X181581900Y-275208060D01*
X181585857Y-275442622D01*
X181581819Y-275677265D01*
X181569708Y-275905771D01*
X181549522Y-276128140D01*
X181521261Y-276344372D01*
X181484926Y-276554468D01*
X181440517Y-276758427D01*
X181388033Y-276956250D01*
X181327476Y-277147937D01*
X181295017Y-277240631D01*
X181260943Y-277331387D01*
X181225254Y-277420205D01*
X181187951Y-277507085D01*
X181149032Y-277592028D01*
X181108499Y-277675033D01*
X181066351Y-277756100D01*
X181022588Y-277835229D01*
X180977210Y-277912420D01*
X180930217Y-277987674D01*
X180881609Y-278060990D01*
X180831386Y-278132368D01*
X180779548Y-278201808D01*
X180726095Y-278269310D01*
X180671028Y-278334875D01*
X180614345Y-278398502D01*
X180554231Y-278462734D01*
X180492744Y-278524947D01*
X180429885Y-278585142D01*
X180365653Y-278643318D01*
X180300048Y-278699475D01*
X180233070Y-278753614D01*
X180164720Y-278805734D01*
X180094998Y-278855836D01*
X180023902Y-278903919D01*
X179951434Y-278949983D01*
X179877594Y-278994029D01*
X179802380Y-279036056D01*
X179725794Y-279076065D01*
X179647835Y-279114054D01*
X179568504Y-279150026D01*
X179487800Y-279183978D01*
X179406329Y-279215892D01*
X179323404Y-279245747D01*
X179239026Y-279273543D01*
X179153195Y-279299280D01*
X179065911Y-279322958D01*
X178977173Y-279344578D01*
X178886982Y-279364138D01*
X178795337Y-279381640D01*
X178702240Y-279397082D01*
X178607688Y-279410466D01*
X178511684Y-279421790D01*
X178414226Y-279431056D01*
X178315315Y-279438262D01*
X178214950Y-279443410D01*
X178113132Y-279446498D01*
X178009860Y-279447528D01*
X177909011Y-279446478D01*
X177809292Y-279443329D01*
X177710703Y-279438081D01*
X177613245Y-279430734D01*
X177516918Y-279421287D01*
X177421720Y-279409741D01*
X177327654Y-279396095D01*
X177234717Y-279380350D01*
X177142911Y-279362506D01*
X177052236Y-279342562D01*
X176962691Y-279320519D01*
X176874276Y-279296377D01*
X176786991Y-279270135D01*
X176700837Y-279241794D01*
X176615814Y-279211353D01*
X176531921Y-279178813D01*
X176450006Y-279144275D01*
X176369625Y-279107839D01*
X176290778Y-279069505D01*
X176213465Y-279029274D01*
X176137687Y-278987146D01*
X176063443Y-278943121D01*
X175990732Y-278897197D01*
X175919556Y-278849377D01*
X175849915Y-278799659D01*
X175781807Y-278748043D01*
X175715234Y-278694530D01*
X175650194Y-278639119D01*
X175586689Y-278581811D01*
X175524719Y-278522606D01*
X175464282Y-278461502D01*
X175405380Y-278398502D01*
X175348071Y-278333644D01*
X175292418Y-278266969D01*
X175238420Y-278198477D01*
X175186078Y-278128169D01*
X175135391Y-278056044D01*
X175086359Y-277982103D01*
X175038982Y-277906345D01*
X174993261Y-277828770D01*
X174949195Y-277749378D01*
X174906784Y-277668170D01*
X174866028Y-277585145D01*
X174826928Y-277500304D01*
X174789483Y-277413646D01*
X174753693Y-277325171D01*
X174719559Y-277234880D01*
X174687080Y-277142772D01*
X174657043Y-277048927D01*
X174628944Y-276953426D01*
X174602783Y-276856270D01*
X174578560Y-276757459D01*
X174556274Y-276656993D01*
X174535927Y-276554872D01*
X174517517Y-276451095D01*
X174501045Y-276345663D01*
X174486511Y-276238576D01*
X174473915Y-276129834D01*
X174454536Y-275907384D01*
X174442909Y-275678313D01*
X174439033Y-275442622D01*
X175503558Y-275442622D01*
X175506223Y-275629121D01*
X175514217Y-275810088D01*
X175527539Y-275985525D01*
X175546191Y-276155430D01*
X175570172Y-276319805D01*
X175599482Y-276478649D01*
X175634121Y-276631962D01*
X175674090Y-276779744D01*
X175719387Y-276921996D01*
X175770014Y-277058716D01*
X175825969Y-277189905D01*
X175887254Y-277315564D01*
X175953868Y-277435691D01*
X176025810Y-277550288D01*
X176103082Y-277659354D01*
X176185684Y-277762889D01*
X176272766Y-277859883D01*
X176363482Y-277950619D01*
X176457831Y-278035098D01*
X176555814Y-278113319D01*
X176657430Y-278185282D01*
X176762680Y-278250987D01*
X176871564Y-278310435D01*
X176984081Y-278363625D01*
X177100231Y-278410557D01*
X177220015Y-278451232D01*
X177343432Y-278485648D01*
X177470483Y-278513808D01*
X177601167Y-278535709D01*
X177735485Y-278551353D01*
X177873437Y-278560740D01*
X178015022Y-278563869D01*
X178156586Y-278560740D01*
X178294477Y-278551353D01*
X178428694Y-278535709D01*
X178559237Y-278513808D01*
X178686107Y-278485648D01*
X178809302Y-278451232D01*
X178928824Y-278410557D01*
X179044672Y-278363625D01*
X179156846Y-278310435D01*
X179265346Y-278250987D01*
X179370172Y-278185282D01*
X179471324Y-278113319D01*
X179568803Y-278035098D01*
X179662607Y-277950619D01*
X179752738Y-277859883D01*
X179839195Y-277762889D01*
X179921796Y-277659354D01*
X179999068Y-277550288D01*
X180071011Y-277435691D01*
X180137624Y-277315564D01*
X180198909Y-277189905D01*
X180254865Y-277058716D01*
X180305491Y-276921996D01*
X180350788Y-276779744D01*
X180390757Y-276631962D01*
X180425396Y-276478649D01*
X180454706Y-276319805D01*
X180478687Y-276155430D01*
X180497339Y-275985525D01*
X180510661Y-275810088D01*
X180518655Y-275629121D01*
X180521320Y-275442622D01*
X180518695Y-275257980D01*
X180510823Y-275078708D01*
X180497702Y-274904805D01*
X180479333Y-274736271D01*
X180455715Y-274573108D01*
X180426849Y-274415313D01*
X180392735Y-274262889D01*
X180353372Y-274115833D01*
X180308761Y-273974148D01*
X180258901Y-273837832D01*
X180203793Y-273706885D01*
X180143437Y-273581308D01*
X180077833Y-273461100D01*
X180006980Y-273346262D01*
X179930878Y-273236793D01*
X179849529Y-273132693D01*
X179763637Y-273033823D01*
X179673910Y-272941331D01*
X179580348Y-272855218D01*
X179482950Y-272775483D01*
X179381717Y-272702128D01*
X179276649Y-272635151D01*
X179167745Y-272574552D01*
X179055006Y-272520332D01*
X178938431Y-272472492D01*
X178818022Y-272431029D01*
X178693777Y-272395946D01*
X178565696Y-272367241D01*
X178433781Y-272344916D01*
X178298030Y-272328969D01*
X178158443Y-272319400D01*
X178015022Y-272316211D01*
X177870349Y-272319400D01*
X177729592Y-272328969D01*
X177592751Y-272344916D01*
X177459826Y-272367241D01*
X177330817Y-272395946D01*
X177205724Y-272431029D01*
X177084548Y-272472492D01*
X176967287Y-272520332D01*
X176853942Y-272574552D01*
X176744514Y-272635151D01*
X176639001Y-272702128D01*
X176537405Y-272775483D01*
X176439725Y-272855218D01*
X176345961Y-272941331D01*
X176256113Y-273033823D01*
X176170181Y-273132693D01*
X176089457Y-273236793D01*
X176013941Y-273346262D01*
X175943633Y-273461100D01*
X175878533Y-273581308D01*
X175818641Y-273706885D01*
X175763957Y-273837832D01*
X175714481Y-273974148D01*
X175670214Y-274115833D01*
X175631154Y-274262889D01*
X175597302Y-274415313D01*
X175568658Y-274573108D01*
X175545222Y-274736271D01*
X175526994Y-274904805D01*
X175513974Y-275078708D01*
X175506162Y-275257980D01*
X175503558Y-275442622D01*
X174439033Y-275442622D01*
X174442909Y-275210563D01*
X174454536Y-274984641D01*
G37*
X174454536Y-274984641D02*
X174473915Y-274764856D01*
X174501045Y-274551207D01*
X174535927Y-274343694D01*
X174578560Y-274142318D01*
X174628944Y-273947079D01*
X174687080Y-273757976D01*
X174718974Y-273665161D01*
X174752644Y-273574041D01*
X174788091Y-273484617D01*
X174825314Y-273396889D01*
X174864313Y-273310856D01*
X174905089Y-273226519D01*
X174947641Y-273143877D01*
X174991970Y-273062931D01*
X175038075Y-272983681D01*
X175085956Y-272906126D01*
X175135614Y-272830267D01*
X175187048Y-272756103D01*
X175240259Y-272683635D01*
X175295246Y-272612863D01*
X175352009Y-272543786D01*
X175410548Y-272476405D01*
X175468240Y-272414031D01*
X175527627Y-272353513D01*
X175588710Y-272294853D01*
X175651488Y-272238049D01*
X175715962Y-272183103D01*
X175782132Y-272130013D01*
X175849997Y-272078781D01*
X175919558Y-272029406D01*
X175990815Y-271981888D01*
X176063767Y-271936226D01*
X176138415Y-271892422D01*
X176214759Y-271850475D01*
X176292798Y-271810385D01*
X176372533Y-271772153D01*
X176453964Y-271735777D01*
X176537090Y-271701259D01*
X176622174Y-271668719D01*
X176708186Y-271638278D01*
X176795128Y-271609937D01*
X176882997Y-271583695D01*
X176971796Y-271559553D01*
X177061523Y-271537510D01*
X177152178Y-271517566D01*
X177243762Y-271499722D01*
X177336275Y-271483977D01*
X177429716Y-271470331D01*
X177524086Y-271458785D01*
X177619385Y-271449338D01*
X177715612Y-271441991D01*
X177812767Y-271436742D01*
X177910851Y-271433594D01*
X178009864Y-271432544D01*
X178112550Y-271433614D01*
X178213904Y-271436823D01*
X178313926Y-271442173D01*
X178412615Y-271449661D01*
X178509973Y-271459290D01*
X178605997Y-271471059D01*
X178700690Y-271484967D01*
X178794051Y-271501015D01*
X178886079Y-271519203D01*
X178976775Y-271539530D01*
X179066138Y-271561997D01*
X179154170Y-271586605D01*
X179240869Y-271613352D01*
X179326236Y-271642238D01*
X179410270Y-271673265D01*
X179492973Y-271706432D01*
X179574868Y-271740930D01*
X179655188Y-271777244D01*
X179733934Y-271815376D01*
X179811105Y-271855324D01*
X179886702Y-271897088D01*
X179960724Y-271940670D01*
X180033172Y-271986068D01*
X180104045Y-272033282D01*
X180173343Y-272082314D01*
X180241068Y-272133162D01*
X180307217Y-272185827D01*
X180371793Y-272240309D01*
X180434793Y-272296608D01*
X180496220Y-272354723D01*
X180556071Y-272414656D01*
X180614349Y-272476405D01*
X180614341Y-272476405D01*
X180672255Y-272541908D01*
X180728433Y-272609229D01*
X180782875Y-272678366D01*
X180835580Y-272749319D01*
X180886550Y-272822090D01*
X180935784Y-272896678D01*
X180983282Y-272973082D01*
X181029043Y-273051303D01*
X181073069Y-273131341D01*
X181115359Y-273213195D01*
X181155913Y-273296867D01*
X181194730Y-273382355D01*
X181231812Y-273469659D01*
X181267158Y-273558780D01*
X181300767Y-273649718D01*
X181332641Y-273742473D01*
X181363304Y-273836923D01*
X181391989Y-273932947D01*
X181418695Y-274030547D01*
X181443423Y-274129721D01*
X181466173Y-274230469D01*
X181486945Y-274332792D01*
X181505738Y-274436690D01*
X181522553Y-274542162D01*
X181537390Y-274649209D01*
X181550249Y-274757830D01*
X181570031Y-274979796D01*
X181581900Y-275208060D01*
X181585857Y-275442622D01*
X181581819Y-275677265D01*
X181569708Y-275905771D01*
X181549522Y-276128140D01*
X181521261Y-276344372D01*
X181484926Y-276554468D01*
X181440517Y-276758427D01*
X181388033Y-276956250D01*
X181327476Y-277147937D01*
X181295017Y-277240631D01*
X181260943Y-277331387D01*
X181225254Y-277420205D01*
X181187951Y-277507085D01*
X181149032Y-277592028D01*
X181108499Y-277675033D01*
X181066351Y-277756100D01*
X181022588Y-277835229D01*
X180977210Y-277912420D01*
X180930217Y-277987674D01*
X180881609Y-278060990D01*
X180831386Y-278132368D01*
X180779548Y-278201808D01*
X180726095Y-278269310D01*
X180671028Y-278334875D01*
X180614345Y-278398502D01*
X180554231Y-278462734D01*
X180492744Y-278524947D01*
X180429885Y-278585142D01*
X180365653Y-278643318D01*
X180300048Y-278699475D01*
X180233070Y-278753614D01*
X180164720Y-278805734D01*
X180094998Y-278855836D01*
X180023902Y-278903919D01*
X179951434Y-278949983D01*
X179877594Y-278994029D01*
X179802380Y-279036056D01*
X179725794Y-279076065D01*
X179647835Y-279114054D01*
X179568504Y-279150026D01*
X179487800Y-279183978D01*
X179406329Y-279215892D01*
X179323404Y-279245747D01*
X179239026Y-279273543D01*
X179153195Y-279299280D01*
X179065911Y-279322958D01*
X178977173Y-279344578D01*
X178886982Y-279364138D01*
X178795337Y-279381640D01*
X178702240Y-279397082D01*
X178607688Y-279410466D01*
X178511684Y-279421790D01*
X178414226Y-279431056D01*
X178315315Y-279438262D01*
X178214950Y-279443410D01*
X178113132Y-279446498D01*
X178009860Y-279447528D01*
X177909011Y-279446478D01*
X177809292Y-279443329D01*
X177710703Y-279438081D01*
X177613245Y-279430734D01*
X177516918Y-279421287D01*
X177421720Y-279409741D01*
X177327654Y-279396095D01*
X177234717Y-279380350D01*
X177142911Y-279362506D01*
X177052236Y-279342562D01*
X176962691Y-279320519D01*
X176874276Y-279296377D01*
X176786991Y-279270135D01*
X176700837Y-279241794D01*
X176615814Y-279211353D01*
X176531921Y-279178813D01*
X176450006Y-279144275D01*
X176369625Y-279107839D01*
X176290778Y-279069505D01*
X176213465Y-279029274D01*
X176137687Y-278987146D01*
X176063443Y-278943121D01*
X175990732Y-278897197D01*
X175919556Y-278849377D01*
X175849915Y-278799659D01*
X175781807Y-278748043D01*
X175715234Y-278694530D01*
X175650194Y-278639119D01*
X175586689Y-278581811D01*
X175524719Y-278522606D01*
X175464282Y-278461502D01*
X175405380Y-278398502D01*
X175348071Y-278333644D01*
X175292418Y-278266969D01*
X175238420Y-278198477D01*
X175186078Y-278128169D01*
X175135391Y-278056044D01*
X175086359Y-277982103D01*
X175038982Y-277906345D01*
X174993261Y-277828770D01*
X174949195Y-277749378D01*
X174906784Y-277668170D01*
X174866028Y-277585145D01*
X174826928Y-277500304D01*
X174789483Y-277413646D01*
X174753693Y-277325171D01*
X174719559Y-277234880D01*
X174687080Y-277142772D01*
X174657043Y-277048927D01*
X174628944Y-276953426D01*
X174602783Y-276856270D01*
X174578560Y-276757459D01*
X174556274Y-276656993D01*
X174535927Y-276554872D01*
X174517517Y-276451095D01*
X174501045Y-276345663D01*
X174486511Y-276238576D01*
X174473915Y-276129834D01*
X174454536Y-275907384D01*
X174442909Y-275678313D01*
X174439033Y-275442622D01*
X175503558Y-275442622D01*
X175506223Y-275629121D01*
X175514217Y-275810088D01*
X175527539Y-275985525D01*
X175546191Y-276155430D01*
X175570172Y-276319805D01*
X175599482Y-276478649D01*
X175634121Y-276631962D01*
X175674090Y-276779744D01*
X175719387Y-276921996D01*
X175770014Y-277058716D01*
X175825969Y-277189905D01*
X175887254Y-277315564D01*
X175953868Y-277435691D01*
X176025810Y-277550288D01*
X176103082Y-277659354D01*
X176185684Y-277762889D01*
X176272766Y-277859883D01*
X176363482Y-277950619D01*
X176457831Y-278035098D01*
X176555814Y-278113319D01*
X176657430Y-278185282D01*
X176762680Y-278250987D01*
X176871564Y-278310435D01*
X176984081Y-278363625D01*
X177100231Y-278410557D01*
X177220015Y-278451232D01*
X177343432Y-278485648D01*
X177470483Y-278513808D01*
X177601167Y-278535709D01*
X177735485Y-278551353D01*
X177873437Y-278560740D01*
X178015022Y-278563869D01*
X178156586Y-278560740D01*
X178294477Y-278551353D01*
X178428694Y-278535709D01*
X178559237Y-278513808D01*
X178686107Y-278485648D01*
X178809302Y-278451232D01*
X178928824Y-278410557D01*
X179044672Y-278363625D01*
X179156846Y-278310435D01*
X179265346Y-278250987D01*
X179370172Y-278185282D01*
X179471324Y-278113319D01*
X179568803Y-278035098D01*
X179662607Y-277950619D01*
X179752738Y-277859883D01*
X179839195Y-277762889D01*
X179921796Y-277659354D01*
X179999068Y-277550288D01*
X180071011Y-277435691D01*
X180137624Y-277315564D01*
X180198909Y-277189905D01*
X180254865Y-277058716D01*
X180305491Y-276921996D01*
X180350788Y-276779744D01*
X180390757Y-276631962D01*
X180425396Y-276478649D01*
X180454706Y-276319805D01*
X180478687Y-276155430D01*
X180497339Y-275985525D01*
X180510661Y-275810088D01*
X180518655Y-275629121D01*
X180521320Y-275442622D01*
X180518695Y-275257980D01*
X180510823Y-275078708D01*
X180497702Y-274904805D01*
X180479333Y-274736271D01*
X180455715Y-274573108D01*
X180426849Y-274415313D01*
X180392735Y-274262889D01*
X180353372Y-274115833D01*
X180308761Y-273974148D01*
X180258901Y-273837832D01*
X180203793Y-273706885D01*
X180143437Y-273581308D01*
X180077833Y-273461100D01*
X180006980Y-273346262D01*
X179930878Y-273236793D01*
X179849529Y-273132693D01*
X179763637Y-273033823D01*
X179673910Y-272941331D01*
X179580348Y-272855218D01*
X179482950Y-272775483D01*
X179381717Y-272702128D01*
X179276649Y-272635151D01*
X179167745Y-272574552D01*
X179055006Y-272520332D01*
X178938431Y-272472492D01*
X178818022Y-272431029D01*
X178693777Y-272395946D01*
X178565696Y-272367241D01*
X178433781Y-272344916D01*
X178298030Y-272328969D01*
X178158443Y-272319400D01*
X178015022Y-272316211D01*
X177870349Y-272319400D01*
X177729592Y-272328969D01*
X177592751Y-272344916D01*
X177459826Y-272367241D01*
X177330817Y-272395946D01*
X177205724Y-272431029D01*
X177084548Y-272472492D01*
X176967287Y-272520332D01*
X176853942Y-272574552D01*
X176744514Y-272635151D01*
X176639001Y-272702128D01*
X176537405Y-272775483D01*
X176439725Y-272855218D01*
X176345961Y-272941331D01*
X176256113Y-273033823D01*
X176170181Y-273132693D01*
X176089457Y-273236793D01*
X176013941Y-273346262D01*
X175943633Y-273461100D01*
X175878533Y-273581308D01*
X175818641Y-273706885D01*
X175763957Y-273837832D01*
X175714481Y-273974148D01*
X175670214Y-274115833D01*
X175631154Y-274262889D01*
X175597302Y-274415313D01*
X175568658Y-274573108D01*
X175545222Y-274736271D01*
X175526994Y-274904805D01*
X175513974Y-275078708D01*
X175506162Y-275257980D01*
X175503558Y-275442622D01*
X174439033Y-275442622D01*
X174442909Y-275210563D01*
X174454536Y-274984641D01*
G36*
X173136783Y-272378223D02*
G01*
X172129096Y-272378223D01*
X172129096Y-278501865D01*
X173136783Y-278501865D01*
X173136783Y-279287341D01*
X170098216Y-279287341D01*
X170098216Y-278501865D01*
X171105903Y-278501865D01*
X171105903Y-272378223D01*
X170098216Y-272378223D01*
X170098216Y-271592746D01*
X173136783Y-271592746D01*
X173136783Y-272378223D01*
G37*
X173136783Y-272378223D02*
X172129096Y-272378223D01*
X172129096Y-278501865D01*
X173136783Y-278501865D01*
X173136783Y-279287341D01*
X170098216Y-279287341D01*
X170098216Y-278501865D01*
X171105903Y-278501865D01*
X171105903Y-272378223D01*
X170098216Y-272378223D01*
X170098216Y-271592746D01*
X173136783Y-271592746D01*
X173136783Y-272378223D01*
G36*
X186655296Y-275876712D02*
G01*
X188639663Y-271592746D01*
X190060760Y-271592746D01*
X190060760Y-279287341D01*
X189037566Y-279287341D01*
X189037566Y-272657275D01*
X186898170Y-277168613D01*
X186288390Y-277168613D01*
X184164497Y-272657275D01*
X184164497Y-279287341D01*
X183208488Y-279287341D01*
X183208488Y-271592746D01*
X184603748Y-271592746D01*
X186655296Y-275876712D01*
G37*
X186655296Y-275876712D02*
X188639663Y-271592746D01*
X190060760Y-271592746D01*
X190060760Y-279287341D01*
X189037566Y-279287341D01*
X189037566Y-272657275D01*
X186898170Y-277168613D01*
X186288390Y-277168613D01*
X184164497Y-272657275D01*
X184164497Y-279287341D01*
X183208488Y-279287341D01*
X183208488Y-271592746D01*
X184603748Y-271592746D01*
X186655296Y-275876712D01*
G36*
X164191615Y-271592746D02*
G01*
X164465985Y-271595330D01*
X164725820Y-271603081D01*
X164971121Y-271616001D01*
X165201888Y-271634088D01*
X165418121Y-271657342D01*
X165619819Y-271685765D01*
X165806984Y-271719355D01*
X165979614Y-271758113D01*
X166143040Y-271800100D01*
X166300006Y-271845962D01*
X166450513Y-271895700D01*
X166594560Y-271949314D01*
X166732148Y-272006804D01*
X166863276Y-272068169D01*
X166987945Y-272133409D01*
X167047857Y-272167483D01*
X167106155Y-272202525D01*
X167202988Y-272265162D01*
X167297115Y-272330342D01*
X167388538Y-272398065D01*
X167477256Y-272468333D01*
X167563269Y-272541144D01*
X167646577Y-272616498D01*
X167727179Y-272694396D01*
X167805077Y-272774838D01*
X167880270Y-272857823D01*
X167952758Y-272943351D01*
X168022541Y-273031423D01*
X168089619Y-273122039D01*
X168153993Y-273215198D01*
X168215661Y-273310901D01*
X168274624Y-273409147D01*
X168330882Y-273509936D01*
X168384072Y-273613187D01*
X168433831Y-273718820D01*
X168480158Y-273826836D01*
X168523053Y-273937233D01*
X168562517Y-274050012D01*
X168598549Y-274165174D01*
X168631149Y-274282717D01*
X168660318Y-274402642D01*
X168686055Y-274524950D01*
X168708360Y-274649639D01*
X168727234Y-274776710D01*
X168742677Y-274906164D01*
X168754687Y-275037999D01*
X168763266Y-275172216D01*
X168768414Y-275308814D01*
X168770130Y-275447795D01*
X168770137Y-275447795D01*
X168768341Y-275578156D01*
X168762951Y-275706983D01*
X168753968Y-275834275D01*
X168741392Y-275960034D01*
X168725223Y-276084259D01*
X168705461Y-276206949D01*
X168682106Y-276328106D01*
X168655158Y-276447728D01*
X168624616Y-276565817D01*
X168590482Y-276682371D01*
X168552754Y-276797392D01*
X168511433Y-276910878D01*
X168466519Y-277022830D01*
X168418012Y-277133248D01*
X168365912Y-277242133D01*
X168310218Y-277349483D01*
X168252184Y-277454572D01*
X168191767Y-277556674D01*
X168128968Y-277655788D01*
X168063788Y-277751914D01*
X167996225Y-277845053D01*
X167926280Y-277935204D01*
X167853953Y-278022368D01*
X167779245Y-278106544D01*
X167702154Y-278187732D01*
X167622681Y-278265933D01*
X167540827Y-278341146D01*
X167456590Y-278413371D01*
X167369972Y-278482609D01*
X167280971Y-278548859D01*
X167189589Y-278612122D01*
X167095825Y-278672397D01*
X167029453Y-278712386D01*
X166962112Y-278750961D01*
X166893802Y-278788124D01*
X166824524Y-278823874D01*
X166754276Y-278858210D01*
X166683060Y-278891134D01*
X166610874Y-278922644D01*
X166537720Y-278952742D01*
X166463597Y-278981426D01*
X166388505Y-279008697D01*
X166312444Y-279034556D01*
X166235414Y-279059001D01*
X166157415Y-279082033D01*
X166078447Y-279103652D01*
X165998511Y-279123857D01*
X165917606Y-279142650D01*
X165749657Y-279176561D01*
X165568790Y-279205951D01*
X165375003Y-279230820D01*
X165168298Y-279251167D01*
X164948674Y-279266993D01*
X164716131Y-279278298D01*
X164470668Y-279285080D01*
X164212287Y-279287341D01*
X162269260Y-279287341D01*
X162269260Y-278408832D01*
X163292453Y-278408832D01*
X164253631Y-278408832D01*
X164435387Y-278407136D01*
X164611167Y-278402050D01*
X164780973Y-278393572D01*
X164944803Y-278381703D01*
X165102657Y-278366442D01*
X165254537Y-278347790D01*
X165400441Y-278325746D01*
X165540370Y-278300311D01*
X165609124Y-278286019D01*
X165677151Y-278270274D01*
X165744452Y-278253075D01*
X165811025Y-278234423D01*
X165876872Y-278214318D01*
X165941992Y-278192759D01*
X166006386Y-278169747D01*
X166070052Y-278145282D01*
X166132992Y-278119363D01*
X166195206Y-278091991D01*
X166256692Y-278063165D01*
X166317452Y-278032886D01*
X166377486Y-278001154D01*
X166436792Y-277967968D01*
X166495372Y-277933328D01*
X166553226Y-277897235D01*
X166623796Y-277850463D01*
X166692106Y-277801875D01*
X166758155Y-277751470D01*
X166821942Y-277699248D01*
X166883469Y-277645210D01*
X166942736Y-277589355D01*
X166999741Y-277531683D01*
X167054486Y-277472195D01*
X167106969Y-277410890D01*
X167157192Y-277347768D01*
X167205154Y-277282830D01*
X167250855Y-277216075D01*
X167294296Y-277147504D01*
X167335475Y-277077115D01*
X167374394Y-277004910D01*
X167411052Y-276930888D01*
X167446095Y-276854787D01*
X167478877Y-276776345D01*
X167509398Y-276695561D01*
X167537659Y-276612435D01*
X167563658Y-276526968D01*
X167587397Y-276439159D01*
X167608875Y-276349008D01*
X167628092Y-276256516D01*
X167645048Y-276161682D01*
X167659744Y-276064506D01*
X167672178Y-275964989D01*
X167682352Y-275863130D01*
X167690265Y-275758929D01*
X167695917Y-275652387D01*
X167699308Y-275543503D01*
X167700439Y-275432285D01*
X167699207Y-275320360D01*
X167695513Y-275210649D01*
X167689357Y-275103159D01*
X167680737Y-274997889D01*
X167669655Y-274894839D01*
X167656110Y-274794010D01*
X167640103Y-274695401D01*
X167621632Y-274599012D01*
X167600700Y-274504845D01*
X167577304Y-274412897D01*
X167551446Y-274323170D01*
X167523125Y-274235663D01*
X167492341Y-274150377D01*
X167459095Y-274067311D01*
X167423387Y-273986465D01*
X167385215Y-273907840D01*
X167344601Y-273831354D01*
X167301565Y-273756928D01*
X167256106Y-273684560D01*
X167208225Y-273614252D01*
X167157922Y-273546002D01*
X167105196Y-273479812D01*
X167050047Y-273415681D01*
X166992477Y-273353608D01*
X166932484Y-273293595D01*
X166870068Y-273235641D01*
X166805230Y-273179746D01*
X166737970Y-273125909D01*
X166668288Y-273074132D01*
X166596183Y-273024414D01*
X166521655Y-272976755D01*
X166444705Y-272931155D01*
X166387640Y-272899483D01*
X166330130Y-272869062D01*
X166272176Y-272839893D01*
X166213778Y-272811975D01*
X166154936Y-272785309D01*
X166095649Y-272759895D01*
X166035919Y-272735732D01*
X165975744Y-272712820D01*
X165915125Y-272691160D01*
X165854062Y-272670752D01*
X165792555Y-272651596D01*
X165730604Y-272633691D01*
X165668209Y-272617038D01*
X165605370Y-272601636D01*
X165542086Y-272587486D01*
X165478359Y-272574588D01*
X165347310Y-272550365D01*
X165209965Y-272529371D01*
X165066321Y-272511607D01*
X164916379Y-272497072D01*
X164760139Y-272485768D01*
X164597601Y-272477693D01*
X164428765Y-272472848D01*
X164253631Y-272471233D01*
X163292453Y-272471233D01*
X163292453Y-278408832D01*
X162269260Y-278408832D01*
X162269260Y-271592746D01*
X164191615Y-271592746D01*
G37*
X164191615Y-271592746D02*
X164465985Y-271595330D01*
X164725820Y-271603081D01*
X164971121Y-271616001D01*
X165201888Y-271634088D01*
X165418121Y-271657342D01*
X165619819Y-271685765D01*
X165806984Y-271719355D01*
X165979614Y-271758113D01*
X166143040Y-271800100D01*
X166300006Y-271845962D01*
X166450513Y-271895700D01*
X166594560Y-271949314D01*
X166732148Y-272006804D01*
X166863276Y-272068169D01*
X166987945Y-272133409D01*
X167047857Y-272167483D01*
X167106155Y-272202525D01*
X167202988Y-272265162D01*
X167297115Y-272330342D01*
X167388538Y-272398065D01*
X167477256Y-272468333D01*
X167563269Y-272541144D01*
X167646577Y-272616498D01*
X167727179Y-272694396D01*
X167805077Y-272774838D01*
X167880270Y-272857823D01*
X167952758Y-272943351D01*
X168022541Y-273031423D01*
X168089619Y-273122039D01*
X168153993Y-273215198D01*
X168215661Y-273310901D01*
X168274624Y-273409147D01*
X168330882Y-273509936D01*
X168384072Y-273613187D01*
X168433831Y-273718820D01*
X168480158Y-273826836D01*
X168523053Y-273937233D01*
X168562517Y-274050012D01*
X168598549Y-274165174D01*
X168631149Y-274282717D01*
X168660318Y-274402642D01*
X168686055Y-274524950D01*
X168708360Y-274649639D01*
X168727234Y-274776710D01*
X168742677Y-274906164D01*
X168754687Y-275037999D01*
X168763266Y-275172216D01*
X168768414Y-275308814D01*
X168770130Y-275447795D01*
X168770137Y-275447795D01*
X168768341Y-275578156D01*
X168762951Y-275706983D01*
X168753968Y-275834275D01*
X168741392Y-275960034D01*
X168725223Y-276084259D01*
X168705461Y-276206949D01*
X168682106Y-276328106D01*
X168655158Y-276447728D01*
X168624616Y-276565817D01*
X168590482Y-276682371D01*
X168552754Y-276797392D01*
X168511433Y-276910878D01*
X168466519Y-277022830D01*
X168418012Y-277133248D01*
X168365912Y-277242133D01*
X168310218Y-277349483D01*
X168252184Y-277454572D01*
X168191767Y-277556674D01*
X168128968Y-277655788D01*
X168063788Y-277751914D01*
X167996225Y-277845053D01*
X167926280Y-277935204D01*
X167853953Y-278022368D01*
X167779245Y-278106544D01*
X167702154Y-278187732D01*
X167622681Y-278265933D01*
X167540827Y-278341146D01*
X167456590Y-278413371D01*
X167369972Y-278482609D01*
X167280971Y-278548859D01*
X167189589Y-278612122D01*
X167095825Y-278672397D01*
X167029453Y-278712386D01*
X166962112Y-278750961D01*
X166893802Y-278788124D01*
X166824524Y-278823874D01*
X166754276Y-278858210D01*
X166683060Y-278891134D01*
X166610874Y-278922644D01*
X166537720Y-278952742D01*
X166463597Y-278981426D01*
X166388505Y-279008697D01*
X166312444Y-279034556D01*
X166235414Y-279059001D01*
X166157415Y-279082033D01*
X166078447Y-279103652D01*
X165998511Y-279123857D01*
X165917606Y-279142650D01*
X165749657Y-279176561D01*
X165568790Y-279205951D01*
X165375003Y-279230820D01*
X165168298Y-279251167D01*
X164948674Y-279266993D01*
X164716131Y-279278298D01*
X164470668Y-279285080D01*
X164212287Y-279287341D01*
X162269260Y-279287341D01*
X162269260Y-278408832D01*
X163292453Y-278408832D01*
X164253631Y-278408832D01*
X164435387Y-278407136D01*
X164611167Y-278402050D01*
X164780973Y-278393572D01*
X164944803Y-278381703D01*
X165102657Y-278366442D01*
X165254537Y-278347790D01*
X165400441Y-278325746D01*
X165540370Y-278300311D01*
X165609124Y-278286019D01*
X165677151Y-278270274D01*
X165744452Y-278253075D01*
X165811025Y-278234423D01*
X165876872Y-278214318D01*
X165941992Y-278192759D01*
X166006386Y-278169747D01*
X166070052Y-278145282D01*
X166132992Y-278119363D01*
X166195206Y-278091991D01*
X166256692Y-278063165D01*
X166317452Y-278032886D01*
X166377486Y-278001154D01*
X166436792Y-277967968D01*
X166495372Y-277933328D01*
X166553226Y-277897235D01*
X166623796Y-277850463D01*
X166692106Y-277801875D01*
X166758155Y-277751470D01*
X166821942Y-277699248D01*
X166883469Y-277645210D01*
X166942736Y-277589355D01*
X166999741Y-277531683D01*
X167054486Y-277472195D01*
X167106969Y-277410890D01*
X167157192Y-277347768D01*
X167205154Y-277282830D01*
X167250855Y-277216075D01*
X167294296Y-277147504D01*
X167335475Y-277077115D01*
X167374394Y-277004910D01*
X167411052Y-276930888D01*
X167446095Y-276854787D01*
X167478877Y-276776345D01*
X167509398Y-276695561D01*
X167537659Y-276612435D01*
X167563658Y-276526968D01*
X167587397Y-276439159D01*
X167608875Y-276349008D01*
X167628092Y-276256516D01*
X167645048Y-276161682D01*
X167659744Y-276064506D01*
X167672178Y-275964989D01*
X167682352Y-275863130D01*
X167690265Y-275758929D01*
X167695917Y-275652387D01*
X167699308Y-275543503D01*
X167700439Y-275432285D01*
X167699207Y-275320360D01*
X167695513Y-275210649D01*
X167689357Y-275103159D01*
X167680737Y-274997889D01*
X167669655Y-274894839D01*
X167656110Y-274794010D01*
X167640103Y-274695401D01*
X167621632Y-274599012D01*
X167600700Y-274504845D01*
X167577304Y-274412897D01*
X167551446Y-274323170D01*
X167523125Y-274235663D01*
X167492341Y-274150377D01*
X167459095Y-274067311D01*
X167423387Y-273986465D01*
X167385215Y-273907840D01*
X167344601Y-273831354D01*
X167301565Y-273756928D01*
X167256106Y-273684560D01*
X167208225Y-273614252D01*
X167157922Y-273546002D01*
X167105196Y-273479812D01*
X167050047Y-273415681D01*
X166992477Y-273353608D01*
X166932484Y-273293595D01*
X166870068Y-273235641D01*
X166805230Y-273179746D01*
X166737970Y-273125909D01*
X166668288Y-273074132D01*
X166596183Y-273024414D01*
X166521655Y-272976755D01*
X166444705Y-272931155D01*
X166387640Y-272899483D01*
X166330130Y-272869062D01*
X166272176Y-272839893D01*
X166213778Y-272811975D01*
X166154936Y-272785309D01*
X166095649Y-272759895D01*
X166035919Y-272735732D01*
X165975744Y-272712820D01*
X165915125Y-272691160D01*
X165854062Y-272670752D01*
X165792555Y-272651596D01*
X165730604Y-272633691D01*
X165668209Y-272617038D01*
X165605370Y-272601636D01*
X165542086Y-272587486D01*
X165478359Y-272574588D01*
X165347310Y-272550365D01*
X165209965Y-272529371D01*
X165066321Y-272511607D01*
X164916379Y-272497072D01*
X164760139Y-272485768D01*
X164597601Y-272477693D01*
X164428765Y-272472848D01*
X164253631Y-272471233D01*
X163292453Y-272471233D01*
X163292453Y-278408832D01*
X162269260Y-278408832D01*
X162269260Y-271592746D01*
X164191615Y-271592746D01*
G36*
X209744804Y-269414622D02*
G01*
X208170570Y-269414622D01*
X208170570Y-270301387D01*
X208218995Y-270297170D01*
X208267981Y-270293524D01*
X208317526Y-270290449D01*
X208367629Y-270287944D01*
X208416334Y-270285976D01*
X208461681Y-270284569D01*
X208503669Y-270283724D01*
X208542297Y-270283443D01*
X208608987Y-270284178D01*
X208673578Y-270286382D01*
X208736068Y-270290057D01*
X208796459Y-270295200D01*
X208854751Y-270301814D01*
X208910943Y-270309897D01*
X208965035Y-270319449D01*
X209017028Y-270330470D01*
X209042370Y-270336349D01*
X209067449Y-270342788D01*
X209092266Y-270349786D01*
X209116819Y-270357344D01*
X209141111Y-270365462D01*
X209165139Y-270374139D01*
X209188906Y-270383376D01*
X209212409Y-270393173D01*
X209235650Y-270403530D01*
X209258629Y-270414447D01*
X209281345Y-270425923D01*
X209303799Y-270437959D01*
X209325991Y-270450555D01*
X209347920Y-270463711D01*
X209369586Y-270477427D01*
X209390991Y-270491702D01*
X209413069Y-270507377D01*
X209434517Y-270523612D01*
X209455336Y-270540407D01*
X209475525Y-270557762D01*
X209495084Y-270575676D01*
X209514013Y-270594151D01*
X209532313Y-270613185D01*
X209549982Y-270632779D01*
X209567022Y-270652933D01*
X209583432Y-270673647D01*
X209599212Y-270694921D01*
X209614362Y-270716755D01*
X209628882Y-270739148D01*
X209642772Y-270762101D01*
X209656032Y-270785615D01*
X209668662Y-270809688D01*
X209680594Y-270834424D01*
X209691756Y-270859931D01*
X209702148Y-270886207D01*
X209711771Y-270913254D01*
X209720623Y-270941070D01*
X209728706Y-270969656D01*
X209736019Y-270999012D01*
X209742563Y-271029138D01*
X209748336Y-271060033D01*
X209753340Y-271091699D01*
X209757574Y-271124134D01*
X209761038Y-271157339D01*
X209763732Y-271191313D01*
X209765656Y-271226057D01*
X209766811Y-271261571D01*
X209767196Y-271297855D01*
X209767211Y-271297885D01*
X209766879Y-271326917D01*
X209765882Y-271355792D01*
X209764220Y-271384510D01*
X209761893Y-271413070D01*
X209758901Y-271441472D01*
X209755245Y-271469718D01*
X209750924Y-271497806D01*
X209745938Y-271525736D01*
X209740287Y-271553509D01*
X209733972Y-271581124D01*
X209726992Y-271608583D01*
X209719347Y-271635883D01*
X209711037Y-271663026D01*
X209702063Y-271690012D01*
X209692424Y-271716840D01*
X209682121Y-271743510D01*
X209671240Y-271769840D01*
X209659869Y-271795644D01*
X209648008Y-271820924D01*
X209635658Y-271845679D01*
X209622817Y-271869909D01*
X209609486Y-271893614D01*
X209595666Y-271916795D01*
X209581355Y-271939450D01*
X209566555Y-271961581D01*
X209551265Y-271983187D01*
X209535484Y-272004268D01*
X209519214Y-272024825D01*
X209502454Y-272044856D01*
X209485204Y-272064363D01*
X209467463Y-272083345D01*
X209449233Y-272101802D01*
X209428834Y-272121116D01*
X209407945Y-272139870D01*
X209386566Y-272158064D01*
X209364697Y-272175699D01*
X209342339Y-272192774D01*
X209319491Y-272209289D01*
X209296153Y-272225244D01*
X209272325Y-272240640D01*
X209248007Y-272255475D01*
X209223200Y-272269751D01*
X209197903Y-272283467D01*
X209172116Y-272296623D01*
X209145839Y-272309219D01*
X209119073Y-272321254D01*
X209091817Y-272332730D01*
X209064071Y-272343646D01*
X209036079Y-272353678D01*
X209007528Y-272363063D01*
X208978416Y-272371800D01*
X208948745Y-272379891D01*
X208918514Y-272387334D01*
X208887723Y-272394130D01*
X208856372Y-272400279D01*
X208824461Y-272405781D01*
X208791991Y-272410635D01*
X208758961Y-272414843D01*
X208725371Y-272418403D01*
X208691221Y-272421315D01*
X208656512Y-272423581D01*
X208621243Y-272425199D01*
X208585414Y-272426170D01*
X208549026Y-272426494D01*
X208481042Y-272425584D01*
X208413688Y-272422855D01*
X208346964Y-272418306D01*
X208280869Y-272411938D01*
X208215404Y-272403751D01*
X208150569Y-272393744D01*
X208086364Y-272381918D01*
X208022788Y-272368274D01*
X207960753Y-272353895D01*
X207901166Y-272338747D01*
X207844029Y-272322828D01*
X207789340Y-272306138D01*
X207737101Y-272288678D01*
X207687310Y-272270448D01*
X207639969Y-272251448D01*
X207595077Y-272231677D01*
X207595077Y-271759181D01*
X207626426Y-271759181D01*
X207673311Y-271787767D01*
X207722156Y-271815304D01*
X207772960Y-271841792D01*
X207825724Y-271867230D01*
X207880447Y-271891618D01*
X207937130Y-271914956D01*
X207995772Y-271937245D01*
X208056373Y-271958484D01*
X208117814Y-271977380D01*
X208178975Y-271993756D01*
X208239856Y-272007613D01*
X208300457Y-272018950D01*
X208360779Y-272027767D01*
X208420820Y-272034065D01*
X208480581Y-272037844D01*
X208540061Y-272039104D01*
X208579634Y-272038404D01*
X208618857Y-272036304D01*
X208657730Y-272032805D01*
X208696252Y-272027906D01*
X208734425Y-272021607D01*
X208772248Y-272013908D01*
X208809722Y-272004810D01*
X208846847Y-271994311D01*
X208865470Y-271988450D01*
X208883830Y-271982064D01*
X208901928Y-271975153D01*
X208919764Y-271967717D01*
X208937338Y-271959756D01*
X208954649Y-271951271D01*
X208971697Y-271942261D01*
X208988484Y-271932726D01*
X209005008Y-271922666D01*
X209021269Y-271912082D01*
X209037268Y-271900973D01*
X209053005Y-271889339D01*
X209068479Y-271877181D01*
X209083690Y-271864498D01*
X209098640Y-271851290D01*
X209113326Y-271837558D01*
X209125451Y-271825373D01*
X209137190Y-271812891D01*
X209148544Y-271800111D01*
X209159513Y-271787034D01*
X209170098Y-271773659D01*
X209180297Y-271759987D01*
X209190112Y-271746018D01*
X209199541Y-271731751D01*
X209208586Y-271717186D01*
X209217246Y-271702324D01*
X209225521Y-271687165D01*
X209233411Y-271671708D01*
X209240916Y-271655954D01*
X209248037Y-271639902D01*
X209254772Y-271623553D01*
X209261123Y-271606906D01*
X209267359Y-271589944D01*
X209273193Y-271572650D01*
X209278624Y-271555024D01*
X209283654Y-271537066D01*
X209288280Y-271518775D01*
X209292505Y-271500152D01*
X209296327Y-271481196D01*
X209299747Y-271461908D01*
X209302764Y-271442288D01*
X209305379Y-271422336D01*
X209307592Y-271402051D01*
X209309403Y-271381434D01*
X209310811Y-271360485D01*
X209311817Y-271339203D01*
X209312420Y-271317589D01*
X209312621Y-271295642D01*
X209312385Y-271274299D01*
X209311677Y-271253375D01*
X209310496Y-271232872D01*
X209308842Y-271212788D01*
X209306716Y-271193124D01*
X209304118Y-271173881D01*
X209301048Y-271155057D01*
X209297505Y-271136653D01*
X209293489Y-271118669D01*
X209289002Y-271101105D01*
X209284042Y-271083960D01*
X209278610Y-271067236D01*
X209272705Y-271050931D01*
X209266329Y-271035046D01*
X209259480Y-271019581D01*
X209252158Y-271004535D01*
X209244698Y-270989883D01*
X209236870Y-270975598D01*
X209228674Y-270961681D01*
X209220111Y-270948131D01*
X209211180Y-270934949D01*
X209201882Y-270922134D01*
X209192217Y-270909687D01*
X209182184Y-270897607D01*
X209171783Y-270885895D01*
X209161015Y-270874550D01*
X209149880Y-270863572D01*
X209138377Y-270852962D01*
X209126507Y-270842720D01*
X209114269Y-270832845D01*
X209101664Y-270823337D01*
X209088691Y-270814197D01*
X209073934Y-270803762D01*
X209058775Y-270793729D01*
X209043213Y-270784099D01*
X209027249Y-270774871D01*
X209010883Y-270766045D01*
X208994114Y-270757621D01*
X208976943Y-270749600D01*
X208959369Y-270741981D01*
X208941393Y-270734764D01*
X208923015Y-270727950D01*
X208904234Y-270721538D01*
X208885051Y-270715528D01*
X208865466Y-270709921D01*
X208845479Y-270704716D01*
X208825089Y-270699914D01*
X208804298Y-270695514D01*
X208762240Y-270687116D01*
X208718923Y-270679838D01*
X208674347Y-270673680D01*
X208628511Y-270668642D01*
X208581415Y-270664724D01*
X208533060Y-270661925D01*
X208483445Y-270660246D01*
X208432571Y-270659686D01*
X208383516Y-270660106D01*
X208334881Y-270661366D01*
X208286666Y-270663465D01*
X208238870Y-270666404D01*
X208191494Y-270670183D01*
X208144538Y-270674801D01*
X208098002Y-270680259D01*
X208051887Y-270686557D01*
X207964275Y-270699992D01*
X207882819Y-270713428D01*
X207807520Y-270726863D01*
X207738380Y-270740298D01*
X207738380Y-269022746D01*
X209744804Y-269022746D01*
X209744804Y-269414622D01*
G37*
X209744804Y-269414622D02*
X208170570Y-269414622D01*
X208170570Y-270301387D01*
X208218995Y-270297170D01*
X208267981Y-270293524D01*
X208317526Y-270290449D01*
X208367629Y-270287944D01*
X208416334Y-270285976D01*
X208461681Y-270284569D01*
X208503669Y-270283724D01*
X208542297Y-270283443D01*
X208608987Y-270284178D01*
X208673578Y-270286382D01*
X208736068Y-270290057D01*
X208796459Y-270295200D01*
X208854751Y-270301814D01*
X208910943Y-270309897D01*
X208965035Y-270319449D01*
X209017028Y-270330470D01*
X209042370Y-270336349D01*
X209067449Y-270342788D01*
X209092266Y-270349786D01*
X209116819Y-270357344D01*
X209141111Y-270365462D01*
X209165139Y-270374139D01*
X209188906Y-270383376D01*
X209212409Y-270393173D01*
X209235650Y-270403530D01*
X209258629Y-270414447D01*
X209281345Y-270425923D01*
X209303799Y-270437959D01*
X209325991Y-270450555D01*
X209347920Y-270463711D01*
X209369586Y-270477427D01*
X209390991Y-270491702D01*
X209413069Y-270507377D01*
X209434517Y-270523612D01*
X209455336Y-270540407D01*
X209475525Y-270557762D01*
X209495084Y-270575676D01*
X209514013Y-270594151D01*
X209532313Y-270613185D01*
X209549982Y-270632779D01*
X209567022Y-270652933D01*
X209583432Y-270673647D01*
X209599212Y-270694921D01*
X209614362Y-270716755D01*
X209628882Y-270739148D01*
X209642772Y-270762101D01*
X209656032Y-270785615D01*
X209668662Y-270809688D01*
X209680594Y-270834424D01*
X209691756Y-270859931D01*
X209702148Y-270886207D01*
X209711771Y-270913254D01*
X209720623Y-270941070D01*
X209728706Y-270969656D01*
X209736019Y-270999012D01*
X209742563Y-271029138D01*
X209748336Y-271060033D01*
X209753340Y-271091699D01*
X209757574Y-271124134D01*
X209761038Y-271157339D01*
X209763732Y-271191313D01*
X209765656Y-271226057D01*
X209766811Y-271261571D01*
X209767196Y-271297855D01*
X209767211Y-271297885D01*
X209766879Y-271326917D01*
X209765882Y-271355792D01*
X209764220Y-271384510D01*
X209761893Y-271413070D01*
X209758901Y-271441472D01*
X209755245Y-271469718D01*
X209750924Y-271497806D01*
X209745938Y-271525736D01*
X209740287Y-271553509D01*
X209733972Y-271581124D01*
X209726992Y-271608583D01*
X209719347Y-271635883D01*
X209711037Y-271663026D01*
X209702063Y-271690012D01*
X209692424Y-271716840D01*
X209682121Y-271743510D01*
X209671240Y-271769840D01*
X209659869Y-271795644D01*
X209648008Y-271820924D01*
X209635658Y-271845679D01*
X209622817Y-271869909D01*
X209609486Y-271893614D01*
X209595666Y-271916795D01*
X209581355Y-271939450D01*
X209566555Y-271961581D01*
X209551265Y-271983187D01*
X209535484Y-272004268D01*
X209519214Y-272024825D01*
X209502454Y-272044856D01*
X209485204Y-272064363D01*
X209467463Y-272083345D01*
X209449233Y-272101802D01*
X209428834Y-272121116D01*
X209407945Y-272139870D01*
X209386566Y-272158064D01*
X209364697Y-272175699D01*
X209342339Y-272192774D01*
X209319491Y-272209289D01*
X209296153Y-272225244D01*
X209272325Y-272240640D01*
X209248007Y-272255475D01*
X209223200Y-272269751D01*
X209197903Y-272283467D01*
X209172116Y-272296623D01*
X209145839Y-272309219D01*
X209119073Y-272321254D01*
X209091817Y-272332730D01*
X209064071Y-272343646D01*
X209036079Y-272353678D01*
X209007528Y-272363063D01*
X208978416Y-272371800D01*
X208948745Y-272379891D01*
X208918514Y-272387334D01*
X208887723Y-272394130D01*
X208856372Y-272400279D01*
X208824461Y-272405781D01*
X208791991Y-272410635D01*
X208758961Y-272414843D01*
X208725371Y-272418403D01*
X208691221Y-272421315D01*
X208656512Y-272423581D01*
X208621243Y-272425199D01*
X208585414Y-272426170D01*
X208549026Y-272426494D01*
X208481042Y-272425584D01*
X208413688Y-272422855D01*
X208346964Y-272418306D01*
X208280869Y-272411938D01*
X208215404Y-272403751D01*
X208150569Y-272393744D01*
X208086364Y-272381918D01*
X208022788Y-272368274D01*
X207960753Y-272353895D01*
X207901166Y-272338747D01*
X207844029Y-272322828D01*
X207789340Y-272306138D01*
X207737101Y-272288678D01*
X207687310Y-272270448D01*
X207639969Y-272251448D01*
X207595077Y-272231677D01*
X207595077Y-271759181D01*
X207626426Y-271759181D01*
X207673311Y-271787767D01*
X207722156Y-271815304D01*
X207772960Y-271841792D01*
X207825724Y-271867230D01*
X207880447Y-271891618D01*
X207937130Y-271914956D01*
X207995772Y-271937245D01*
X208056373Y-271958484D01*
X208117814Y-271977380D01*
X208178975Y-271993756D01*
X208239856Y-272007613D01*
X208300457Y-272018950D01*
X208360779Y-272027767D01*
X208420820Y-272034065D01*
X208480581Y-272037844D01*
X208540061Y-272039104D01*
X208579634Y-272038404D01*
X208618857Y-272036304D01*
X208657730Y-272032805D01*
X208696252Y-272027906D01*
X208734425Y-272021607D01*
X208772248Y-272013908D01*
X208809722Y-272004810D01*
X208846847Y-271994311D01*
X208865470Y-271988450D01*
X208883830Y-271982064D01*
X208901928Y-271975153D01*
X208919764Y-271967717D01*
X208937338Y-271959756D01*
X208954649Y-271951271D01*
X208971697Y-271942261D01*
X208988484Y-271932726D01*
X209005008Y-271922666D01*
X209021269Y-271912082D01*
X209037268Y-271900973D01*
X209053005Y-271889339D01*
X209068479Y-271877181D01*
X209083690Y-271864498D01*
X209098640Y-271851290D01*
X209113326Y-271837558D01*
X209125451Y-271825373D01*
X209137190Y-271812891D01*
X209148544Y-271800111D01*
X209159513Y-271787034D01*
X209170098Y-271773659D01*
X209180297Y-271759987D01*
X209190112Y-271746018D01*
X209199541Y-271731751D01*
X209208586Y-271717186D01*
X209217246Y-271702324D01*
X209225521Y-271687165D01*
X209233411Y-271671708D01*
X209240916Y-271655954D01*
X209248037Y-271639902D01*
X209254772Y-271623553D01*
X209261123Y-271606906D01*
X209267359Y-271589944D01*
X209273193Y-271572650D01*
X209278624Y-271555024D01*
X209283654Y-271537066D01*
X209288280Y-271518775D01*
X209292505Y-271500152D01*
X209296327Y-271481196D01*
X209299747Y-271461908D01*
X209302764Y-271442288D01*
X209305379Y-271422336D01*
X209307592Y-271402051D01*
X209309403Y-271381434D01*
X209310811Y-271360485D01*
X209311817Y-271339203D01*
X209312420Y-271317589D01*
X209312621Y-271295642D01*
X209312385Y-271274299D01*
X209311677Y-271253375D01*
X209310496Y-271232872D01*
X209308842Y-271212788D01*
X209306716Y-271193124D01*
X209304118Y-271173881D01*
X209301048Y-271155057D01*
X209297505Y-271136653D01*
X209293489Y-271118669D01*
X209289002Y-271101105D01*
X209284042Y-271083960D01*
X209278610Y-271067236D01*
X209272705Y-271050931D01*
X209266329Y-271035046D01*
X209259480Y-271019581D01*
X209252158Y-271004535D01*
X209244698Y-270989883D01*
X209236870Y-270975598D01*
X209228674Y-270961681D01*
X209220111Y-270948131D01*
X209211180Y-270934949D01*
X209201882Y-270922134D01*
X209192217Y-270909687D01*
X209182184Y-270897607D01*
X209171783Y-270885895D01*
X209161015Y-270874550D01*
X209149880Y-270863572D01*
X209138377Y-270852962D01*
X209126507Y-270842720D01*
X209114269Y-270832845D01*
X209101664Y-270823337D01*
X209088691Y-270814197D01*
X209073934Y-270803762D01*
X209058775Y-270793729D01*
X209043213Y-270784099D01*
X209027249Y-270774871D01*
X209010883Y-270766045D01*
X208994114Y-270757621D01*
X208976943Y-270749600D01*
X208959369Y-270741981D01*
X208941393Y-270734764D01*
X208923015Y-270727950D01*
X208904234Y-270721538D01*
X208885051Y-270715528D01*
X208865466Y-270709921D01*
X208845479Y-270704716D01*
X208825089Y-270699914D01*
X208804298Y-270695514D01*
X208762240Y-270687116D01*
X208718923Y-270679838D01*
X208674347Y-270673680D01*
X208628511Y-270668642D01*
X208581415Y-270664724D01*
X208533060Y-270661925D01*
X208483445Y-270660246D01*
X208432571Y-270659686D01*
X208383516Y-270660106D01*
X208334881Y-270661366D01*
X208286666Y-270663465D01*
X208238870Y-270666404D01*
X208191494Y-270670183D01*
X208144538Y-270674801D01*
X208098002Y-270680259D01*
X208051887Y-270686557D01*
X207964275Y-270699992D01*
X207882819Y-270713428D01*
X207807520Y-270726863D01*
X207738380Y-270740298D01*
X207738380Y-269022746D01*
X209744804Y-269022746D01*
X209744804Y-269414622D01*
D11*
%TO.C,SW1*%
X459041666Y-181936011D02*
X459184523Y-181983630D01*
X459422619Y-181983630D01*
X459517857Y-181936011D01*
X459565476Y-181888392D01*
X459613095Y-181793154D01*
X459613095Y-181697916D01*
X459565476Y-181602678D01*
X459517857Y-181555059D01*
X459422619Y-181507440D01*
X459232142Y-181459821D01*
X459136904Y-181412202D01*
X459089285Y-181364583D01*
X459041666Y-181269345D01*
X459041666Y-181174107D01*
X459089285Y-181078869D01*
X459136904Y-181031250D01*
X459232142Y-180983630D01*
X459470238Y-180983630D01*
X459613095Y-181031250D01*
X459946428Y-180983630D02*
X460184523Y-181983630D01*
X460375000Y-181269345D01*
X460565476Y-181983630D01*
X460803571Y-180983630D01*
X461708333Y-181983630D02*
X461136904Y-181983630D01*
X461422619Y-181983630D02*
X461422619Y-180983630D01*
X461327380Y-181126488D01*
X461232142Y-181221726D01*
X461136904Y-181269345D01*
%TO.C,R2*%
X416568756Y-179304458D02*
X415996336Y-179203443D01*
X416164695Y-179708519D02*
X415457588Y-179001413D01*
X415726962Y-178732038D01*
X415827977Y-178698367D01*
X415895321Y-178698367D01*
X415996336Y-178732038D01*
X416097351Y-178833054D01*
X416131023Y-178934069D01*
X416131023Y-179001413D01*
X416097351Y-179102428D01*
X415827977Y-179371802D01*
X416198367Y-178395321D02*
X416198367Y-178327977D01*
X416232038Y-178226962D01*
X416400397Y-178058603D01*
X416501413Y-178024932D01*
X416568756Y-178024932D01*
X416669771Y-178058603D01*
X416737115Y-178125947D01*
X416804458Y-178260634D01*
X416804458Y-179068756D01*
X417242191Y-178631023D01*
%TO.C,H3*%
X360338095Y-248952380D02*
X360338095Y-247952380D01*
X360338095Y-248428571D02*
X360909523Y-248428571D01*
X360909523Y-248952380D02*
X360909523Y-247952380D01*
X361290476Y-247952380D02*
X361909523Y-247952380D01*
X361576190Y-248333333D01*
X361719047Y-248333333D01*
X361814285Y-248380952D01*
X361861904Y-248428571D01*
X361909523Y-248523809D01*
X361909523Y-248761904D01*
X361861904Y-248857142D01*
X361814285Y-248904761D01*
X361719047Y-248952380D01*
X361433333Y-248952380D01*
X361338095Y-248904761D01*
X361290476Y-248857142D01*
%TO.C,H9*%
X110363095Y-185396130D02*
X110363095Y-184396130D01*
X110363095Y-184872321D02*
X110934523Y-184872321D01*
X110934523Y-185396130D02*
X110934523Y-184396130D01*
X111458333Y-185396130D02*
X111648809Y-185396130D01*
X111744047Y-185348511D01*
X111791666Y-185300892D01*
X111886904Y-185158035D01*
X111934523Y-184967559D01*
X111934523Y-184586607D01*
X111886904Y-184491369D01*
X111839285Y-184443750D01*
X111744047Y-184396130D01*
X111553571Y-184396130D01*
X111458333Y-184443750D01*
X111410714Y-184491369D01*
X111363095Y-184586607D01*
X111363095Y-184824702D01*
X111410714Y-184919940D01*
X111458333Y-184967559D01*
X111553571Y-185015178D01*
X111744047Y-185015178D01*
X111839285Y-184967559D01*
X111886904Y-184919940D01*
X111934523Y-184824702D01*
%TO.C,C7*%
X447153868Y-189144958D02*
X447153868Y-189212301D01*
X447086524Y-189346988D01*
X447019181Y-189414332D01*
X446884493Y-189481675D01*
X446749806Y-189481675D01*
X446648791Y-189448004D01*
X446480432Y-189346988D01*
X446379417Y-189245973D01*
X446278402Y-189077614D01*
X446244730Y-188976599D01*
X446244730Y-188841912D01*
X446312074Y-188707225D01*
X446379417Y-188639881D01*
X446514104Y-188572538D01*
X446581448Y-188572538D01*
X446749806Y-188269492D02*
X447221211Y-187798088D01*
X447625272Y-188808240D01*
%TO.C,H8*%
X473900595Y-186189880D02*
X473900595Y-185189880D01*
X473900595Y-185666071D02*
X474472023Y-185666071D01*
X474472023Y-186189880D02*
X474472023Y-185189880D01*
X475091071Y-185618452D02*
X474995833Y-185570833D01*
X474948214Y-185523214D01*
X474900595Y-185427976D01*
X474900595Y-185380357D01*
X474948214Y-185285119D01*
X474995833Y-185237500D01*
X475091071Y-185189880D01*
X475281547Y-185189880D01*
X475376785Y-185237500D01*
X475424404Y-185285119D01*
X475472023Y-185380357D01*
X475472023Y-185427976D01*
X475424404Y-185523214D01*
X475376785Y-185570833D01*
X475281547Y-185618452D01*
X475091071Y-185618452D01*
X474995833Y-185666071D01*
X474948214Y-185713690D01*
X474900595Y-185808928D01*
X474900595Y-185999404D01*
X474948214Y-186094642D01*
X474995833Y-186142261D01*
X475091071Y-186189880D01*
X475281547Y-186189880D01*
X475376785Y-186142261D01*
X475424404Y-186094642D01*
X475472023Y-185999404D01*
X475472023Y-185808928D01*
X475424404Y-185713690D01*
X475376785Y-185666071D01*
X475281547Y-185618452D01*
%TO.C,C4*%
X434912688Y-181666389D02*
X434912688Y-181733732D01*
X434845344Y-181868419D01*
X434778001Y-181935763D01*
X434643313Y-182003106D01*
X434508626Y-182003106D01*
X434407611Y-181969435D01*
X434239252Y-181868419D01*
X434138237Y-181767404D01*
X434037222Y-181599045D01*
X434003550Y-181498030D01*
X434003550Y-181363343D01*
X434070894Y-181228656D01*
X434138237Y-181161312D01*
X434272924Y-181093969D01*
X434340268Y-181093969D01*
X435114718Y-180656236D02*
X435586123Y-181127641D01*
X434676985Y-180555221D02*
X435013703Y-181228656D01*
X435451436Y-180790923D01*
%TO.C,MX92*%
X229147619Y-277876190D02*
X229147619Y-277685714D01*
X229100000Y-277590476D01*
X229052380Y-277542857D01*
X228909523Y-277447619D01*
X228719047Y-277400000D01*
X228338095Y-277400000D01*
X228242857Y-277447619D01*
X228195238Y-277495238D01*
X228147619Y-277590476D01*
X228147619Y-277780952D01*
X228195238Y-277876190D01*
X228242857Y-277923809D01*
X228338095Y-277971428D01*
X228576190Y-277971428D01*
X228671428Y-277923809D01*
X228719047Y-277876190D01*
X228766666Y-277780952D01*
X228766666Y-277590476D01*
X228719047Y-277495238D01*
X228671428Y-277447619D01*
X228576190Y-277400000D01*
X228242857Y-278400000D02*
X228195238Y-278447619D01*
X228147619Y-278400000D01*
X228195238Y-278352380D01*
X228242857Y-278400000D01*
X228147619Y-278400000D01*
X229052380Y-278828571D02*
X229100000Y-278876190D01*
X229147619Y-278971428D01*
X229147619Y-279209523D01*
X229100000Y-279304761D01*
X229052380Y-279352380D01*
X228957142Y-279400000D01*
X228861904Y-279400000D01*
X228719047Y-279352380D01*
X228147619Y-278780952D01*
X228147619Y-279400000D01*
X229147619Y-280304761D02*
X229147619Y-279828571D01*
X228671428Y-279780952D01*
X228719047Y-279828571D01*
X228766666Y-279923809D01*
X228766666Y-280161904D01*
X228719047Y-280257142D01*
X228671428Y-280304761D01*
X228576190Y-280352380D01*
X228338095Y-280352380D01*
X228242857Y-280304761D01*
X228195238Y-280257142D01*
X228147619Y-280161904D01*
X228147619Y-279923809D01*
X228195238Y-279828571D01*
X228242857Y-279780952D01*
X229147619Y-280780952D02*
X228338095Y-280780952D01*
X228242857Y-280828571D01*
X228195238Y-280876190D01*
X228147619Y-280971428D01*
X228147619Y-281161904D01*
X228195238Y-281257142D01*
X228242857Y-281304761D01*
X228338095Y-281352380D01*
X229147619Y-281352380D01*
X236291369Y-279780357D02*
X236291369Y-280447023D01*
X235291369Y-280018452D01*
X236291369Y-280827976D02*
X235481845Y-280827976D01*
X235386607Y-280875595D01*
X235338988Y-280923214D01*
X235291369Y-281018452D01*
X235291369Y-281208928D01*
X235338988Y-281304166D01*
X235386607Y-281351785D01*
X235481845Y-281399404D01*
X236291369Y-281399404D01*
%TO.C,C3*%
X468187257Y-171331911D02*
X468187257Y-171399254D01*
X468119913Y-171533941D01*
X468052570Y-171601285D01*
X467917882Y-171668628D01*
X467783195Y-171668628D01*
X467682180Y-171634957D01*
X467513821Y-171533941D01*
X467412806Y-171432926D01*
X467311791Y-171264567D01*
X467278119Y-171163552D01*
X467278119Y-171028865D01*
X467345463Y-170894178D01*
X467412806Y-170826834D01*
X467547493Y-170759491D01*
X467614837Y-170759491D01*
X467783195Y-170456445D02*
X468220928Y-170018712D01*
X468254600Y-170523789D01*
X468355615Y-170422773D01*
X468456631Y-170389102D01*
X468523974Y-170389102D01*
X468624989Y-170422773D01*
X468793348Y-170591132D01*
X468827020Y-170692147D01*
X468827020Y-170759491D01*
X468793348Y-170860506D01*
X468591318Y-171062537D01*
X468490302Y-171096209D01*
X468422959Y-171096209D01*
%TO.C,R8*%
X469504458Y-182631243D02*
X469403443Y-183203663D01*
X469908519Y-183035304D02*
X469201413Y-183742411D01*
X468932038Y-183473037D01*
X468898367Y-183372022D01*
X468898367Y-183304678D01*
X468932038Y-183203663D01*
X469033054Y-183102648D01*
X469134069Y-183068976D01*
X469201413Y-183068976D01*
X469302428Y-183102648D01*
X469571802Y-183372022D01*
X468696336Y-182631243D02*
X468730008Y-182732258D01*
X468730008Y-182799602D01*
X468696336Y-182900617D01*
X468662664Y-182934289D01*
X468561649Y-182967961D01*
X468494306Y-182967961D01*
X468393290Y-182934289D01*
X468258603Y-182799602D01*
X468224932Y-182698586D01*
X468224932Y-182631243D01*
X468258603Y-182530228D01*
X468292275Y-182496556D01*
X468393290Y-182462884D01*
X468460634Y-182462884D01*
X468561649Y-182496556D01*
X468696336Y-182631243D01*
X468797351Y-182664915D01*
X468864695Y-182664915D01*
X468965710Y-182631243D01*
X469100397Y-182496556D01*
X469134069Y-182395541D01*
X469134069Y-182328197D01*
X469100397Y-182227182D01*
X468965710Y-182092495D01*
X468864695Y-182058823D01*
X468797351Y-182058823D01*
X468696336Y-182092495D01*
X468561649Y-182227182D01*
X468527977Y-182328197D01*
X468527977Y-182395541D01*
X468561649Y-182496556D01*
%TO.C,U1*%
X435367867Y-169681863D02*
X435940287Y-170254283D01*
X436041302Y-170287955D01*
X436108646Y-170287955D01*
X436209661Y-170254283D01*
X436344348Y-170119596D01*
X436378020Y-170018581D01*
X436378020Y-169951237D01*
X436344348Y-169850222D01*
X435771928Y-169277802D01*
X437186142Y-169277802D02*
X436782081Y-169681863D01*
X436984111Y-169479833D02*
X436277005Y-168772726D01*
X436310676Y-168941085D01*
X436310676Y-169075772D01*
X436277005Y-169176787D01*
%TO.C,R7*%
X409633333Y-167002380D02*
X409300000Y-166526190D01*
X409061904Y-167002380D02*
X409061904Y-166002380D01*
X409442857Y-166002380D01*
X409538095Y-166050000D01*
X409585714Y-166097619D01*
X409633333Y-166192857D01*
X409633333Y-166335714D01*
X409585714Y-166430952D01*
X409538095Y-166478571D01*
X409442857Y-166526190D01*
X409061904Y-166526190D01*
X409966666Y-166002380D02*
X410633333Y-166002380D01*
X410204761Y-167002380D01*
%TO.C,H5*%
X277038095Y-229852380D02*
X277038095Y-228852380D01*
X277038095Y-229328571D02*
X277609523Y-229328571D01*
X277609523Y-229852380D02*
X277609523Y-228852380D01*
X278561904Y-228852380D02*
X278085714Y-228852380D01*
X278038095Y-229328571D01*
X278085714Y-229280952D01*
X278180952Y-229233333D01*
X278419047Y-229233333D01*
X278514285Y-229280952D01*
X278561904Y-229328571D01*
X278609523Y-229423809D01*
X278609523Y-229661904D01*
X278561904Y-229757142D01*
X278514285Y-229804761D01*
X278419047Y-229852380D01*
X278180952Y-229852380D01*
X278085714Y-229804761D01*
X278038095Y-229757142D01*
%TO.C,C8*%
X423809687Y-173389139D02*
X423809687Y-173456482D01*
X423742343Y-173591169D01*
X423675000Y-173658513D01*
X423540312Y-173725856D01*
X423405625Y-173725856D01*
X423304610Y-173692185D01*
X423136251Y-173591169D01*
X423035236Y-173490154D01*
X422934221Y-173321795D01*
X422900549Y-173220780D01*
X422900549Y-173086093D01*
X422967893Y-172951406D01*
X423035236Y-172884062D01*
X423169923Y-172816719D01*
X423237267Y-172816719D01*
X423877030Y-172648360D02*
X423776015Y-172682032D01*
X423708671Y-172682032D01*
X423607656Y-172648360D01*
X423573984Y-172614688D01*
X423540312Y-172513673D01*
X423540312Y-172446330D01*
X423573984Y-172345314D01*
X423708671Y-172210627D01*
X423809687Y-172176956D01*
X423877030Y-172176956D01*
X423978045Y-172210627D01*
X424011717Y-172244299D01*
X424045389Y-172345314D01*
X424045389Y-172412658D01*
X424011717Y-172513673D01*
X423877030Y-172648360D01*
X423843358Y-172749375D01*
X423843358Y-172816719D01*
X423877030Y-172917734D01*
X424011717Y-173052421D01*
X424112732Y-173086093D01*
X424180076Y-173086093D01*
X424281091Y-173052421D01*
X424415778Y-172917734D01*
X424449450Y-172816719D01*
X424449450Y-172749375D01*
X424415778Y-172648360D01*
X424281091Y-172513673D01*
X424180076Y-172480001D01*
X424112732Y-172480001D01*
X424011717Y-172513673D01*
%TO.C,H4*%
X207994345Y-171108630D02*
X207994345Y-170108630D01*
X207994345Y-170584821D02*
X208565773Y-170584821D01*
X208565773Y-171108630D02*
X208565773Y-170108630D01*
X209470535Y-170441964D02*
X209470535Y-171108630D01*
X209232440Y-170061011D02*
X208994345Y-170775297D01*
X209613392Y-170775297D01*
%TO.C,Q1*%
X413847619Y-180395238D02*
X413800000Y-180490476D01*
X413704761Y-180585714D01*
X413561904Y-180728571D01*
X413514285Y-180823809D01*
X413514285Y-180919047D01*
X413752380Y-180871428D02*
X413704761Y-180966666D01*
X413609523Y-181061904D01*
X413419047Y-181109523D01*
X413085714Y-181109523D01*
X412895238Y-181061904D01*
X412800000Y-180966666D01*
X412752380Y-180871428D01*
X412752380Y-180680952D01*
X412800000Y-180585714D01*
X412895238Y-180490476D01*
X413085714Y-180442857D01*
X413419047Y-180442857D01*
X413609523Y-180490476D01*
X413704761Y-180585714D01*
X413752380Y-180680952D01*
X413752380Y-180871428D01*
X413752380Y-179490476D02*
X413752380Y-180061904D01*
X413752380Y-179776190D02*
X412752380Y-179776190D01*
X412895238Y-179871428D01*
X412990476Y-179966666D01*
X413038095Y-180061904D01*
%TO.C,H7*%
X381031845Y-172696130D02*
X381031845Y-171696130D01*
X381031845Y-172172321D02*
X381603273Y-172172321D01*
X381603273Y-172696130D02*
X381603273Y-171696130D01*
X381984226Y-171696130D02*
X382650892Y-171696130D01*
X382222321Y-172696130D01*
%TO.C,R1*%
X452266554Y-185653741D02*
X451694134Y-185552726D01*
X451862493Y-186057802D02*
X451155386Y-185350696D01*
X451424760Y-185081321D01*
X451525775Y-185047650D01*
X451593119Y-185047650D01*
X451694134Y-185081321D01*
X451795149Y-185182337D01*
X451828821Y-185283352D01*
X451828821Y-185350696D01*
X451795149Y-185451711D01*
X451525775Y-185721085D01*
X452939989Y-184980306D02*
X452535928Y-185384367D01*
X452737959Y-185182337D02*
X452030852Y-184475230D01*
X452064524Y-184643589D01*
X452064524Y-184778276D01*
X452030852Y-184879291D01*
%TO.C,MX94*%
X316253869Y-279955654D02*
X316253869Y-279384226D01*
X316253869Y-279669940D02*
X317253869Y-279669940D01*
X317111011Y-279574702D01*
X317015773Y-279479464D01*
X316968154Y-279384226D01*
X317253869Y-280384226D02*
X316444345Y-280384226D01*
X316349107Y-280431845D01*
X316301488Y-280479464D01*
X316253869Y-280574702D01*
X316253869Y-280765178D01*
X316301488Y-280860416D01*
X316349107Y-280908035D01*
X316444345Y-280955654D01*
X317253869Y-280955654D01*
X313872619Y-277971428D02*
X313872619Y-277400000D01*
X313872619Y-277685714D02*
X314872619Y-277685714D01*
X314729761Y-277590476D01*
X314634523Y-277495238D01*
X314586904Y-277400000D01*
X313967857Y-278400000D02*
X313920238Y-278447619D01*
X313872619Y-278400000D01*
X313920238Y-278352380D01*
X313967857Y-278400000D01*
X313872619Y-278400000D01*
X314777380Y-278828571D02*
X314825000Y-278876190D01*
X314872619Y-278971428D01*
X314872619Y-279209523D01*
X314825000Y-279304761D01*
X314777380Y-279352380D01*
X314682142Y-279400000D01*
X314586904Y-279400000D01*
X314444047Y-279352380D01*
X313872619Y-278780952D01*
X313872619Y-279400000D01*
X314872619Y-280304761D02*
X314872619Y-279828571D01*
X314396428Y-279780952D01*
X314444047Y-279828571D01*
X314491666Y-279923809D01*
X314491666Y-280161904D01*
X314444047Y-280257142D01*
X314396428Y-280304761D01*
X314301190Y-280352380D01*
X314063095Y-280352380D01*
X313967857Y-280304761D01*
X313920238Y-280257142D01*
X313872619Y-280161904D01*
X313872619Y-279923809D01*
X313920238Y-279828571D01*
X313967857Y-279780952D01*
X314872619Y-280780952D02*
X314063095Y-280780952D01*
X313967857Y-280828571D01*
X313920238Y-280876190D01*
X313872619Y-280971428D01*
X313872619Y-281161904D01*
X313920238Y-281257142D01*
X313967857Y-281304761D01*
X314063095Y-281352380D01*
X314872619Y-281352380D01*
%TO.C,H6*%
X206406845Y-275052380D02*
X206406845Y-274052380D01*
X206406845Y-274528571D02*
X206978273Y-274528571D01*
X206978273Y-275052380D02*
X206978273Y-274052380D01*
X207883035Y-274052380D02*
X207692559Y-274052380D01*
X207597321Y-274100000D01*
X207549702Y-274147619D01*
X207454464Y-274290476D01*
X207406845Y-274480952D01*
X207406845Y-274861904D01*
X207454464Y-274957142D01*
X207502083Y-275004761D01*
X207597321Y-275052380D01*
X207787797Y-275052380D01*
X207883035Y-275004761D01*
X207930654Y-274957142D01*
X207978273Y-274861904D01*
X207978273Y-274623809D01*
X207930654Y-274528571D01*
X207883035Y-274480952D01*
X207787797Y-274433333D01*
X207597321Y-274433333D01*
X207502083Y-274480952D01*
X207454464Y-274528571D01*
X207406845Y-274623809D01*
%TO.C,C6*%
X432336038Y-168526881D02*
X432336038Y-168594224D01*
X432268694Y-168728911D01*
X432201351Y-168796255D01*
X432066663Y-168863598D01*
X431931976Y-168863598D01*
X431830961Y-168829927D01*
X431662602Y-168728911D01*
X431561587Y-168627896D01*
X431460572Y-168459537D01*
X431426900Y-168358522D01*
X431426900Y-168223835D01*
X431494244Y-168089148D01*
X431561587Y-168021804D01*
X431696274Y-167954461D01*
X431763618Y-167954461D01*
X432302366Y-167281026D02*
X432167679Y-167415713D01*
X432134007Y-167516728D01*
X432134007Y-167584072D01*
X432167679Y-167752430D01*
X432268694Y-167920789D01*
X432538068Y-168190163D01*
X432639083Y-168223835D01*
X432706427Y-168223835D01*
X432807442Y-168190163D01*
X432942129Y-168055476D01*
X432975801Y-167954461D01*
X432975801Y-167887117D01*
X432942129Y-167786102D01*
X432773770Y-167617743D01*
X432672755Y-167584072D01*
X432605412Y-167584072D01*
X432504396Y-167617743D01*
X432369709Y-167752430D01*
X432336038Y-167853446D01*
X432336038Y-167920789D01*
X432369709Y-168021804D01*
%TO.C,R3*%
X410935304Y-175171006D02*
X410362884Y-175069991D01*
X410531243Y-175575067D02*
X409824136Y-174867961D01*
X410093510Y-174598586D01*
X410194525Y-174564915D01*
X410261869Y-174564915D01*
X410362884Y-174598586D01*
X410463899Y-174699602D01*
X410497571Y-174800617D01*
X410497571Y-174867961D01*
X410463899Y-174968976D01*
X410194525Y-175238350D01*
X410463899Y-174228197D02*
X410901632Y-173790464D01*
X410935304Y-174295541D01*
X411036319Y-174194525D01*
X411137335Y-174160854D01*
X411204678Y-174160854D01*
X411305693Y-174194525D01*
X411474052Y-174362884D01*
X411507724Y-174463899D01*
X411507724Y-174531243D01*
X411474052Y-174632258D01*
X411272022Y-174834289D01*
X411171006Y-174867961D01*
X411103663Y-174867961D01*
%TO.C,Y1*%
X465840438Y-167657139D02*
X466177156Y-167993857D01*
X465234347Y-167522452D02*
X465840438Y-167657139D01*
X465705751Y-167051048D01*
X467018949Y-167152063D02*
X466614888Y-167556124D01*
X466816919Y-167354093D02*
X466109812Y-166646987D01*
X466143484Y-166815345D01*
X466143484Y-166950032D01*
X466109812Y-167051048D01*
%TO.C,R6*%
X449180054Y-165471006D02*
X448607634Y-165369991D01*
X448775993Y-165875067D02*
X448068886Y-165167961D01*
X448338260Y-164898586D01*
X448439275Y-164864915D01*
X448506619Y-164864915D01*
X448607634Y-164898586D01*
X448708649Y-164999602D01*
X448742321Y-165100617D01*
X448742321Y-165167961D01*
X448708649Y-165268976D01*
X448439275Y-165538350D01*
X449079039Y-164157808D02*
X448944352Y-164292495D01*
X448910680Y-164393510D01*
X448910680Y-164460854D01*
X448944352Y-164629212D01*
X449045367Y-164797571D01*
X449314741Y-165066945D01*
X449415756Y-165100617D01*
X449483100Y-165100617D01*
X449584115Y-165066945D01*
X449718802Y-164932258D01*
X449752474Y-164831243D01*
X449752474Y-164763899D01*
X449718802Y-164662884D01*
X449550443Y-164494525D01*
X449449428Y-164460854D01*
X449382085Y-164460854D01*
X449281069Y-164494525D01*
X449146382Y-164629212D01*
X449112711Y-164730228D01*
X449112711Y-164797571D01*
X449146382Y-164898586D01*
%TO.C,H2*%
X451738095Y-268952380D02*
X451738095Y-267952380D01*
X451738095Y-268428571D02*
X452309523Y-268428571D01*
X452309523Y-268952380D02*
X452309523Y-267952380D01*
X452738095Y-268047619D02*
X452785714Y-268000000D01*
X452880952Y-267952380D01*
X453119047Y-267952380D01*
X453214285Y-268000000D01*
X453261904Y-268047619D01*
X453309523Y-268142857D01*
X453309523Y-268238095D01*
X453261904Y-268380952D01*
X452690476Y-268952380D01*
X453309523Y-268952380D01*
%TO.C,C5*%
X427700538Y-177766131D02*
X427700538Y-177833474D01*
X427633194Y-177968161D01*
X427565851Y-178035505D01*
X427431163Y-178102848D01*
X427296476Y-178102848D01*
X427195461Y-178069177D01*
X427027102Y-177968161D01*
X426926087Y-177867146D01*
X426825072Y-177698787D01*
X426791400Y-177597772D01*
X426791400Y-177463085D01*
X426858744Y-177328398D01*
X426926087Y-177261054D01*
X427060774Y-177193711D01*
X427128118Y-177193711D01*
X427700538Y-176486604D02*
X427363820Y-176823322D01*
X427666866Y-177193711D01*
X427666866Y-177126367D01*
X427700538Y-177025352D01*
X427868896Y-176856993D01*
X427969912Y-176823322D01*
X428037255Y-176823322D01*
X428138270Y-176856993D01*
X428306629Y-177025352D01*
X428340301Y-177126367D01*
X428340301Y-177193711D01*
X428306629Y-177294726D01*
X428138270Y-177463085D01*
X428037255Y-177496757D01*
X427969912Y-177496757D01*
%TO.C,H1*%
X116738095Y-267952380D02*
X116738095Y-266952380D01*
X116738095Y-267428571D02*
X117309523Y-267428571D01*
X117309523Y-267952380D02*
X117309523Y-266952380D01*
X118309523Y-267952380D02*
X117738095Y-267952380D01*
X118023809Y-267952380D02*
X118023809Y-266952380D01*
X117928571Y-267095238D01*
X117833333Y-267190476D01*
X117738095Y-267238095D01*
%TO.C,SW2*%
X484072916Y-178829761D02*
X484215773Y-178877380D01*
X484453869Y-178877380D01*
X484549107Y-178829761D01*
X484596726Y-178782142D01*
X484644345Y-178686904D01*
X484644345Y-178591666D01*
X484596726Y-178496428D01*
X484549107Y-178448809D01*
X484453869Y-178401190D01*
X484263392Y-178353571D01*
X484168154Y-178305952D01*
X484120535Y-178258333D01*
X484072916Y-178163095D01*
X484072916Y-178067857D01*
X484120535Y-177972619D01*
X484168154Y-177925000D01*
X484263392Y-177877380D01*
X484501488Y-177877380D01*
X484644345Y-177925000D01*
X484977678Y-177877380D02*
X485215773Y-178877380D01*
X485406250Y-178163095D01*
X485596726Y-178877380D01*
X485834821Y-177877380D01*
X486168154Y-177972619D02*
X486215773Y-177925000D01*
X486311011Y-177877380D01*
X486549107Y-177877380D01*
X486644345Y-177925000D01*
X486691964Y-177972619D01*
X486739583Y-178067857D01*
X486739583Y-178163095D01*
X486691964Y-178305952D01*
X486120535Y-178877380D01*
X486739583Y-178877380D01*
%TO.C,NT1*%
X211952380Y-184342857D02*
X210952380Y-184342857D01*
X211952380Y-183771428D01*
X210952380Y-183771428D01*
X210952380Y-183438095D02*
X210952380Y-182866666D01*
X211952380Y-183152380D02*
X210952380Y-183152380D01*
X211952380Y-182009523D02*
X211952380Y-182580952D01*
X211952380Y-182295238D02*
X210952380Y-182295238D01*
X211095238Y-182390476D01*
X211190476Y-182485714D01*
X211238095Y-182580952D01*
%TO.C,C2*%
X462645836Y-165990490D02*
X462645836Y-166057833D01*
X462578492Y-166192520D01*
X462511149Y-166259864D01*
X462376461Y-166327207D01*
X462241774Y-166327207D01*
X462140759Y-166293536D01*
X461972400Y-166192520D01*
X461871385Y-166091505D01*
X461770370Y-165923146D01*
X461736698Y-165822131D01*
X461736698Y-165687444D01*
X461804042Y-165552757D01*
X461871385Y-165485413D01*
X462006072Y-165418070D01*
X462073416Y-165418070D01*
X462342790Y-165148696D02*
X462342790Y-165081352D01*
X462376461Y-164980337D01*
X462544820Y-164811978D01*
X462645836Y-164778307D01*
X462713179Y-164778307D01*
X462814194Y-164811978D01*
X462881538Y-164879322D01*
X462948881Y-165014009D01*
X462948881Y-165822131D01*
X463386614Y-165384398D01*
D12*
%TO.C,SW1*%
X457375000Y-184531250D02*
X463375000Y-184531250D01*
X463375000Y-184531250D02*
X463375000Y-188531250D01*
X463375000Y-188531250D02*
X457375000Y-188531250D01*
X457375000Y-188531250D02*
X457375000Y-184531250D01*
%TO.C,R2*%
X415880282Y-178059165D02*
X415559165Y-178380282D01*
X414840835Y-177019718D02*
X414519718Y-177340835D01*
%TO.C,C7*%
X448436044Y-186318259D02*
X448805511Y-185948792D01*
X449475491Y-187357706D02*
X449844958Y-186988239D01*
%TO.C,C4*%
X433243010Y-183191543D02*
X432873543Y-183561010D01*
X434282457Y-184230990D02*
X433912990Y-184600457D01*
D11*
%TO.C,MX92*%
X234537500Y-281637500D02*
X236537500Y-281637500D01*
X236537500Y-281637500D02*
X236537500Y-279637500D01*
X229250000Y-281637500D02*
X229250000Y-279637500D01*
X227250000Y-281637500D02*
X229250000Y-281637500D01*
D12*
%TO.C,C3*%
X466266240Y-173504457D02*
X466635707Y-173134990D01*
X465226793Y-172465010D02*
X465596260Y-172095543D01*
%TO.C,R8*%
X467219718Y-184359165D02*
X467540835Y-184680282D01*
X468259165Y-183319718D02*
X468580282Y-183640835D01*
D11*
%TO.C,U1*%
X433235604Y-176619086D02*
X432334043Y-177520648D01*
X442976000Y-186359482D02*
X443453297Y-185882185D01*
X432829018Y-176212500D02*
X433235604Y-176619086D01*
X432829018Y-176212500D02*
X433306315Y-175735203D01*
X442976000Y-166065518D02*
X443453297Y-166542815D01*
X453122982Y-176212500D02*
X452645685Y-175735203D01*
X453122982Y-176212500D02*
X452645685Y-176689797D01*
X442976000Y-166065518D02*
X442498703Y-166542815D01*
X442976000Y-186359482D02*
X442498703Y-185882185D01*
D12*
%TO.C,R7*%
X409572936Y-168935000D02*
X410027064Y-168935000D01*
X409572936Y-167465000D02*
X410027064Y-167465000D01*
%TO.C,C8*%
X421940010Y-174714293D02*
X421570543Y-175083760D01*
X422979457Y-175753740D02*
X422609990Y-176123207D01*
%TO.C,Q1*%
X409340000Y-180300000D02*
X409340000Y-180950000D01*
X412460000Y-180300000D02*
X412460000Y-180950000D01*
X409340000Y-180300000D02*
X409340000Y-179650000D01*
X412460000Y-180300000D02*
X412460000Y-178625000D01*
%TO.C,R1*%
X453590415Y-187063017D02*
X453911532Y-186741900D01*
X452550968Y-186023570D02*
X452872085Y-185702453D01*
D11*
%TO.C,MX94*%
X317356250Y-281637500D02*
X317356250Y-279637500D01*
X312975000Y-281637500D02*
X314975000Y-281637500D01*
X314975000Y-281637500D02*
X314975000Y-279637500D01*
X315356250Y-281637500D02*
X317356250Y-281637500D01*
D12*
%TO.C,C6*%
X434516240Y-166598207D02*
X434885707Y-166228740D01*
X433476793Y-165558760D02*
X433846260Y-165189293D01*
%TO.C,R3*%
X412259165Y-176580282D02*
X412580282Y-176259165D01*
X411219718Y-175540835D02*
X411540835Y-175219718D01*
%TO.C,Y1*%
X464178737Y-167019060D02*
X461350310Y-169847487D01*
X466512190Y-169352513D02*
X464178737Y-167019060D01*
%TO.C,R6*%
X449464468Y-165840835D02*
X449785585Y-165519718D01*
X450503915Y-166880282D02*
X450825032Y-166559165D01*
%TO.C,C5*%
X428841293Y-174798010D02*
X429210760Y-174428543D01*
X429880740Y-175837457D02*
X430250207Y-175467990D01*
%TO.C,SW2*%
X481806250Y-174125000D02*
X481806250Y-175125000D01*
X479806250Y-168725000D02*
X475706250Y-168725000D01*
X474006250Y-170525000D02*
X474606250Y-170525000D01*
X483806250Y-168725000D02*
X487906250Y-168725000D01*
X481306250Y-174625000D02*
X482306250Y-174625000D01*
X475706250Y-168725000D02*
X475706250Y-180525000D01*
D11*
X472281250Y-165100000D02*
X474281250Y-165100000D01*
D12*
X474606250Y-170525000D02*
X474306250Y-170825000D01*
X474306250Y-170825000D02*
X474006250Y-170525000D01*
D11*
X489331250Y-165100000D02*
X491331250Y-165100000D01*
X474281250Y-184150000D02*
X472281250Y-184150000D01*
X491331250Y-165100000D02*
X491331250Y-167100000D01*
D12*
X487906250Y-168725000D02*
X487906250Y-171125000D01*
D11*
X472281250Y-167100000D02*
X472281250Y-165100000D01*
X472281250Y-184150000D02*
X472281250Y-182150000D01*
D12*
X479806250Y-180525000D02*
X475706250Y-180525000D01*
D11*
X491331250Y-182150000D02*
X491331250Y-184150000D01*
X491331250Y-184150000D02*
X489331250Y-184150000D01*
D12*
X487906250Y-180525000D02*
X483806250Y-180525000D01*
X487906250Y-178125000D02*
X487906250Y-180525000D01*
X487906250Y-173325000D02*
X487906250Y-175925000D01*
X484806250Y-174625000D02*
G75*
G03*
X484806250Y-174625000I-3000000J0D01*
G01*
%TO.C,C2*%
X460196260Y-166895543D02*
X459826793Y-167265010D01*
X461235707Y-167934990D02*
X460866240Y-168304457D01*
%TD*%
M02*
