M48
; DRILL file {KiCad (6.0.4)} date Tue Apr 19 22:35:05 2022
; FORMAT={-:-/ absolute / inch / decimal}
; #@! TF.CreationDate,2022-04-19T22:35:05+02:00
; #@! TF.GenerationSoftware,Kicad,Pcbnew,(6.0.4)
; #@! TF.FileFunction,Plated,1,2,PTH
FMAT,2
INCH
; #@! TA.AperFunction,Plated,PTH,ComponentDrill
T1C0.0118
; #@! TA.AperFunction,Plated,PTH,ViaDrill
T2C0.0157
; #@! TA.AperFunction,Plated,PTH,ComponentDrill
T3C0.0236
%
G90
G05
T1
X3.6388Y-6.7335
X3.6388Y-6.7689
X3.6388Y-6.8043
X3.6388Y-7.671
X3.6388Y-7.7064
X3.6388Y-7.7418
X3.7089Y-6.7382
X3.7089Y-6.7736
X3.7089Y-6.8091
X3.7089Y-7.6757
X3.7089Y-7.7111
X3.7089Y-7.7466
X3.7326Y-9.921
X3.7326Y-9.9564
X3.7326Y-9.9918
X3.8027Y-9.9257
X3.8027Y-9.9611
X3.8027Y-9.9966
X3.8263Y-8.421
X3.8263Y-8.4564
X3.8263Y-8.4918
X3.8263Y-10.671
X3.8263Y-10.7064
X3.8263Y-10.7418
X3.8964Y-8.4257
X3.8964Y-8.4611
X3.8964Y-8.4966
X3.8964Y-10.6757
X3.8964Y-10.7111
X3.8964Y-10.7466
X3.9201Y-9.171
X3.9201Y-9.2064
X3.9201Y-9.2418
X3.9902Y-9.1757
X3.9902Y-9.2111
X3.9902Y-9.2466
X4.1794Y-6.6398
X4.1794Y-6.6752
X4.1794Y-6.7106
X4.1794Y-7.5773
X4.1794Y-7.6127
X4.1794Y-7.6481
X4.2542Y-6.6398
X4.2542Y-6.6752
X4.2542Y-6.7106
X4.2542Y-7.5773
X4.2542Y-7.6127
X4.2542Y-7.6481
X4.2731Y-9.8273
X4.2731Y-9.8627
X4.2731Y-9.8981
X4.3479Y-9.8273
X4.3479Y-9.8627
X4.3479Y-9.8981
X4.3669Y-8.3273
X4.3669Y-8.3627
X4.3669Y-8.3981
X4.3669Y-10.5773
X4.3669Y-10.6127
X4.3669Y-10.6481
X4.3888Y-7.671
X4.3888Y-7.7064
X4.3888Y-7.7418
X4.4417Y-8.3273
X4.4417Y-8.3627
X4.4417Y-8.3981
X4.4417Y-10.5773
X4.4417Y-10.6127
X4.4417Y-10.6481
X4.4589Y-7.6757
X4.4589Y-7.7111
X4.4589Y-7.7466
X4.4606Y-9.0773
X4.4606Y-9.1127
X4.4606Y-9.1481
X4.5354Y-9.0773
X4.5354Y-9.1127
X4.5354Y-9.1481
X4.5763Y-9.921
X4.5763Y-9.9564
X4.5763Y-9.9918
X4.6464Y-9.9257
X4.6464Y-9.9611
X4.6464Y-9.9966
X4.7638Y-8.421
X4.7638Y-8.4564
X4.7638Y-8.4918
X4.7638Y-10.671
X4.7638Y-10.7064
X4.7638Y-10.7418
X4.8339Y-8.4257
X4.8339Y-8.4611
X4.8339Y-8.4966
X4.8339Y-10.6757
X4.8339Y-10.7111
X4.8339Y-10.7466
X4.9294Y-7.5773
X4.9294Y-7.6127
X4.9294Y-7.6481
X4.9513Y-9.171
X4.9513Y-9.2064
X4.9513Y-9.2418
X5.0042Y-7.5773
X5.0042Y-7.6127
X5.0042Y-7.6481
X5.0214Y-9.1757
X5.0214Y-9.2111
X5.0214Y-9.2466
X5.1169Y-9.8273
X5.1169Y-9.8627
X5.1169Y-9.8981
X5.1388Y-6.7335
X5.1388Y-6.7689
X5.1388Y-6.8043
X5.1388Y-7.671
X5.1388Y-7.7064
X5.1388Y-7.7418
X5.1917Y-9.8273
X5.1917Y-9.8627
X5.1917Y-9.8981
X5.2089Y-6.7382
X5.2089Y-6.7736
X5.2089Y-6.8091
X5.2089Y-7.6757
X5.2089Y-7.7111
X5.2089Y-7.7466
X5.3044Y-8.3273
X5.3044Y-8.3627
X5.3044Y-8.3981
X5.3044Y-10.5773
X5.3044Y-10.6127
X5.3044Y-10.6481
X5.3263Y-9.921
X5.3263Y-9.9564
X5.3263Y-9.9918
X5.3792Y-8.3273
X5.3792Y-8.3627
X5.3792Y-8.3981
X5.3792Y-10.5773
X5.3792Y-10.6127
X5.3792Y-10.6481
X5.3964Y-9.9257
X5.3964Y-9.9611
X5.3964Y-9.9966
X5.4919Y-9.0773
X5.4919Y-9.1127
X5.4919Y-9.1481
X5.5138Y-8.421
X5.5138Y-8.4564
X5.5138Y-8.4918
X5.5667Y-9.0773
X5.5667Y-9.1127
X5.5667Y-9.1481
X5.5839Y-8.4257
X5.5839Y-8.4611
X5.5839Y-8.4966
X5.6076Y-10.671
X5.6076Y-10.7064
X5.6076Y-10.7418
X5.6777Y-10.6757
X5.6777Y-10.7111
X5.6777Y-10.7466
X5.6794Y-6.6398
X5.6794Y-6.6752
X5.6794Y-6.7106
X5.6794Y-7.5773
X5.6794Y-7.6127
X5.6794Y-7.6481
X5.7013Y-9.171
X5.7013Y-9.2064
X5.7013Y-9.2418
X5.7542Y-6.6398
X5.7542Y-6.6752
X5.7542Y-6.7106
X5.7542Y-7.5773
X5.7542Y-7.6127
X5.7542Y-7.6481
X5.7714Y-9.1757
X5.7714Y-9.2111
X5.7714Y-9.2466
X5.8669Y-9.8273
X5.8669Y-9.8627
X5.8669Y-9.8981
X5.8888Y-6.7335
X5.8888Y-6.7689
X5.8888Y-6.8043
X5.8888Y-7.671
X5.8888Y-7.7064
X5.8888Y-7.7418
X5.9417Y-9.8273
X5.9417Y-9.8627
X5.9417Y-9.8981
X5.9589Y-6.7382
X5.9589Y-6.7736
X5.9589Y-6.8091
X5.9589Y-7.6757
X5.9589Y-7.7111
X5.9589Y-7.7466
X6.0544Y-8.3273
X6.0544Y-8.3627
X6.0544Y-8.3981
X6.0763Y-9.921
X6.0763Y-9.9564
X6.0763Y-9.9918
X6.1292Y-8.3273
X6.1292Y-8.3627
X6.1292Y-8.3981
X6.1464Y-9.9257
X6.1464Y-9.9611
X6.1464Y-9.9966
X6.1481Y-10.5773
X6.1481Y-10.6127
X6.1481Y-10.6481
X6.2229Y-10.5773
X6.2229Y-10.6127
X6.2229Y-10.6481
X6.2419Y-9.0773
X6.2419Y-9.1127
X6.2419Y-9.1481
X6.2638Y-8.421
X6.2638Y-8.4564
X6.2638Y-8.4918
X6.3167Y-9.0773
X6.3167Y-9.1127
X6.3167Y-9.1481
X6.3339Y-8.4257
X6.3339Y-8.4611
X6.3339Y-8.4966
X6.4294Y-6.6398
X6.4294Y-6.6752
X6.4294Y-6.7106
X6.4294Y-7.5773
X6.4294Y-7.6127
X6.4294Y-7.6481
X6.4513Y-9.171
X6.4513Y-9.2064
X6.4513Y-9.2418
X6.5042Y-6.6398
X6.5042Y-6.6752
X6.5042Y-6.7106
X6.5042Y-7.5773
X6.5042Y-7.6127
X6.5042Y-7.6481
X6.5214Y-9.1757
X6.5214Y-9.2111
X6.5214Y-9.2466
X6.6169Y-9.8273
X6.6169Y-9.8627
X6.6169Y-9.8981
X6.6388Y-6.7335
X6.6388Y-6.7689
X6.6388Y-6.8043
X6.6388Y-7.671
X6.6388Y-7.7064
X6.6388Y-7.7418
X6.6917Y-9.8273
X6.6917Y-9.8627
X6.6917Y-9.8981
X6.7089Y-6.7382
X6.7089Y-6.7736
X6.7089Y-6.8091
X6.7089Y-7.6757
X6.7089Y-7.7111
X6.7089Y-7.7466
X6.8044Y-8.3273
X6.8044Y-8.3627
X6.8044Y-8.3981
X6.8263Y-9.921
X6.8263Y-9.9564
X6.8263Y-9.9918
X6.8792Y-8.3273
X6.8792Y-8.3627
X6.8792Y-8.3981
X6.8964Y-9.9257
X6.8964Y-9.9611
X6.8964Y-9.9966
X6.9919Y-9.0773
X6.9919Y-9.1127
X6.9919Y-9.1481
X7.0138Y-8.421
X7.0138Y-8.4564
X7.0138Y-8.4918
X7.0667Y-9.0773
X7.0667Y-9.1127
X7.0667Y-9.1481
X7.0839Y-8.4257
X7.0839Y-8.4611
X7.0839Y-8.4966
X7.1794Y-6.6398
X7.1794Y-6.6752
X7.1794Y-6.7106
X7.1794Y-7.5773
X7.1794Y-7.6127
X7.1794Y-7.6481
X7.2013Y-9.171
X7.2013Y-9.2064
X7.2013Y-9.2418
X7.2542Y-6.6398
X7.2542Y-6.6752
X7.2542Y-6.7106
X7.2542Y-7.5773
X7.2542Y-7.6127
X7.2542Y-7.6481
X7.2714Y-9.1757
X7.2714Y-9.2111
X7.2714Y-9.2466
X7.3669Y-9.8273
X7.3669Y-9.8627
X7.3669Y-9.8981
X7.3888Y-6.7335
X7.3888Y-6.7689
X7.3888Y-6.8043
X7.3888Y-7.671
X7.3888Y-7.7064
X7.3888Y-7.7418
X7.4417Y-9.8273
X7.4417Y-9.8627
X7.4417Y-9.8981
X7.4589Y-6.7382
X7.4589Y-6.7736
X7.4589Y-6.8091
X7.4589Y-7.6757
X7.4589Y-7.7111
X7.4589Y-7.7466
X7.5544Y-8.3273
X7.5544Y-8.3627
X7.5544Y-8.3981
X7.5763Y-9.921
X7.5763Y-9.9564
X7.5763Y-9.9918
X7.6292Y-8.3273
X7.6292Y-8.3627
X7.6292Y-8.3981
X7.6464Y-9.9257
X7.6464Y-9.9611
X7.6464Y-9.9966
X7.7419Y-9.0773
X7.7419Y-9.1127
X7.7419Y-9.1481
X7.7638Y-8.421
X7.7638Y-8.4564
X7.7638Y-8.4918
X7.8167Y-9.0773
X7.8167Y-9.1127
X7.8167Y-9.1481
X7.8339Y-8.4257
X7.8339Y-8.4611
X7.8339Y-8.4966
X7.9294Y-6.6398
X7.9294Y-6.6752
X7.9294Y-6.7106
X7.9294Y-7.5773
X7.9294Y-7.6127
X7.9294Y-7.6481
X7.9513Y-9.171
X7.9513Y-9.2064
X7.9513Y-9.2418
X8.0042Y-6.6398
X8.0042Y-6.6752
X8.0042Y-6.7106
X8.0042Y-7.5773
X8.0042Y-7.6127
X8.0042Y-7.6481
X8.0214Y-9.1757
X8.0214Y-9.2111
X8.0214Y-9.2466
X8.1169Y-9.8273
X8.1169Y-9.8627
X8.1169Y-9.8981
X8.1388Y-7.671
X8.1388Y-7.7064
X8.1388Y-7.7418
X8.1917Y-9.8273
X8.1917Y-9.8627
X8.1917Y-9.8981
X8.2089Y-7.6757
X8.2089Y-7.7111
X8.2089Y-7.7466
X8.3044Y-8.3273
X8.3044Y-8.3627
X8.3044Y-8.3981
X8.3263Y-9.921
X8.3263Y-9.9564
X8.3263Y-9.9918
X8.3264Y-10.6736
X8.3264Y-10.709
X8.3264Y-10.7444
X8.3792Y-8.3273
X8.3792Y-8.3627
X8.3792Y-8.3981
X8.3964Y-9.9257
X8.3964Y-9.9611
X8.3964Y-9.9966
X8.3965Y-10.6783
X8.3965Y-10.7137
X8.3965Y-10.7492
X8.4201Y-10.671
X8.4201Y-10.7064
X8.4201Y-10.7418
X8.4902Y-10.6757
X8.4902Y-10.7111
X8.4902Y-10.7466
X8.4919Y-9.0773
X8.4919Y-9.1127
X8.4919Y-9.1481
X8.5138Y-6.7335
X8.5138Y-6.7689
X8.5138Y-6.8043
X8.5138Y-8.421
X8.5138Y-8.4564
X8.5138Y-8.4918
X8.5667Y-9.0773
X8.5667Y-9.1127
X8.5667Y-9.1481
X8.5839Y-6.7382
X8.5839Y-6.7736
X8.5839Y-6.8091
X8.5839Y-8.4257
X8.5839Y-8.4611
X8.5839Y-8.4966
X8.6794Y-7.5773
X8.6794Y-7.6127
X8.6794Y-7.6481
X8.7013Y-9.171
X8.7013Y-9.2064
X8.7013Y-9.2418
X8.707Y-10.671
X8.707Y-10.7064
X8.707Y-10.7418
X8.7542Y-7.5773
X8.7542Y-7.6127
X8.7542Y-7.6481
X8.7714Y-9.1757
X8.7714Y-9.2111
X8.7714Y-9.2466
X8.7771Y-10.6757
X8.7771Y-10.7111
X8.7771Y-10.7466
X8.8669Y-9.8273
X8.8669Y-9.8627
X8.8669Y-9.8981
X8.8669Y-10.5799
X8.8669Y-10.6153
X8.8669Y-10.6507
X8.8888Y-7.671
X8.8888Y-7.7064
X8.8888Y-7.7418
X8.9417Y-9.8273
X8.9417Y-9.8627
X8.9417Y-9.8981
X8.9417Y-10.5799
X8.9417Y-10.6153
X8.9417Y-10.6507
X8.9589Y-7.6757
X8.9589Y-7.7111
X8.9589Y-7.7466
X8.9606Y-10.5773
X8.9606Y-10.6127
X8.9606Y-10.6481
X9.0354Y-10.5773
X9.0354Y-10.6127
X9.0354Y-10.6481
X9.0544Y-6.6398
X9.0544Y-6.6752
X9.0544Y-6.7106
X9.0544Y-8.3273
X9.0544Y-8.3627
X9.0544Y-8.3981
X9.0763Y-9.921
X9.0763Y-9.9564
X9.0763Y-9.9918
X9.1292Y-6.6398
X9.1292Y-6.6752
X9.1292Y-6.7106
X9.1292Y-8.3273
X9.1292Y-8.3627
X9.1292Y-8.3981
X9.1464Y-9.9257
X9.1464Y-9.9611
X9.1464Y-9.9966
X9.2419Y-9.0773
X9.2419Y-9.1127
X9.2419Y-9.1481
X9.2475Y-10.5773
X9.2475Y-10.6127
X9.2475Y-10.6481
X9.2638Y-6.7335
X9.2638Y-6.7689
X9.2638Y-6.8043
X9.2638Y-8.421
X9.2638Y-8.4564
X9.2638Y-8.4918
X9.3167Y-9.0773
X9.3167Y-9.1127
X9.3167Y-9.1481
X9.3223Y-10.5773
X9.3223Y-10.6127
X9.3223Y-10.6481
X9.3339Y-6.7382
X9.3339Y-6.7736
X9.3339Y-6.8091
X9.3339Y-8.4257
X9.3339Y-8.4611
X9.3339Y-8.4966
X9.4294Y-7.5773
X9.4294Y-7.6127
X9.4294Y-7.6481
X9.4513Y-9.171
X9.4513Y-9.2064
X9.4513Y-9.2418
X9.5042Y-7.5773
X9.5042Y-7.6127
X9.5042Y-7.6481
X9.5214Y-9.1757
X9.5214Y-9.2111
X9.5214Y-9.2466
X9.6169Y-9.8273
X9.6169Y-9.8627
X9.6169Y-9.8981
X9.6388Y-7.671
X9.6388Y-7.7064
X9.6388Y-7.7418
X9.6917Y-9.8273
X9.6917Y-9.8627
X9.6917Y-9.8981
X9.7089Y-7.6757
X9.7089Y-7.7111
X9.7089Y-7.7466
X9.8044Y-6.6398
X9.8044Y-6.6752
X9.8044Y-6.7106
X9.8044Y-8.3273
X9.8044Y-8.3627
X9.8044Y-8.3981
X9.8263Y-9.921
X9.8263Y-9.9564
X9.8263Y-9.9918
X9.8792Y-6.6398
X9.8792Y-6.6752
X9.8792Y-6.7106
X9.8792Y-8.3273
X9.8792Y-8.3627
X9.8792Y-8.3981
X9.8964Y-9.9257
X9.8964Y-9.9611
X9.8964Y-9.9966
X9.9919Y-9.0773
X9.9919Y-9.1127
X9.9919Y-9.1481
X10.0138Y-6.7335
X10.0138Y-6.7689
X10.0138Y-6.8043
X10.0138Y-8.421
X10.0138Y-8.4564
X10.0138Y-8.4918
X10.0667Y-9.0773
X10.0667Y-9.1127
X10.0667Y-9.1481
X10.0839Y-6.7382
X10.0839Y-6.7736
X10.0839Y-6.8091
X10.0839Y-8.4257
X10.0839Y-8.4611
X10.0839Y-8.4966
X10.1794Y-7.5773
X10.1794Y-7.6127
X10.1794Y-7.6481
X10.2013Y-9.171
X10.2013Y-9.2064
X10.2013Y-9.2418
X10.2542Y-7.5773
X10.2542Y-7.6127
X10.2542Y-7.6481
X10.2714Y-9.1757
X10.2714Y-9.2111
X10.2714Y-9.2466
X10.3669Y-9.8273
X10.3669Y-9.8627
X10.3669Y-9.8981
X10.3888Y-7.671
X10.3888Y-7.7064
X10.3888Y-7.7418
X10.4417Y-9.8273
X10.4417Y-9.8627
X10.4417Y-9.8981
X10.4589Y-7.6757
X10.4589Y-7.7111
X10.4589Y-7.7466
X10.5544Y-6.6398
X10.5544Y-6.6752
X10.5544Y-6.7106
X10.5544Y-8.3273
X10.5544Y-8.3627
X10.5544Y-8.3981
X10.5763Y-9.921
X10.5763Y-9.9564
X10.5763Y-9.9918
X10.6292Y-6.6398
X10.6292Y-6.6752
X10.6292Y-6.7106
X10.6292Y-8.3273
X10.6292Y-8.3627
X10.6292Y-8.3981
X10.6464Y-9.9257
X10.6464Y-9.9611
X10.6464Y-9.9966
X10.7419Y-9.0773
X10.7419Y-9.1127
X10.7419Y-9.1481
X10.7638Y-6.7335
X10.7638Y-6.7689
X10.7638Y-6.8043
X10.7638Y-8.421
X10.7638Y-8.4564
X10.7638Y-8.4918
X10.8167Y-9.0773
X10.8167Y-9.1127
X10.8167Y-9.1481
X10.8339Y-6.7382
X10.8339Y-6.7736
X10.8339Y-6.8091
X10.8339Y-8.4257
X10.8339Y-8.4611
X10.8339Y-8.4966
X10.9294Y-7.5773
X10.9294Y-7.6127
X10.9294Y-7.6481
X10.9513Y-9.171
X10.9513Y-9.2064
X10.9513Y-9.2418
X11.0042Y-7.5773
X11.0042Y-7.6127
X11.0042Y-7.6481
X11.0214Y-9.1757
X11.0214Y-9.2111
X11.0214Y-9.2466
X11.0451Y-10.671
X11.0451Y-10.7064
X11.0451Y-10.7418
X11.1152Y-10.6757
X11.1152Y-10.7111
X11.1152Y-10.7466
X11.1169Y-9.8273
X11.1169Y-9.8627
X11.1169Y-9.8981
X11.1388Y-7.671
X11.1388Y-7.7064
X11.1388Y-7.7418
X11.1388Y-10.671
X11.1388Y-10.7064
X11.1388Y-10.7418
X11.1917Y-9.8273
X11.1917Y-9.8627
X11.1917Y-9.8981
X11.2089Y-7.6757
X11.2089Y-7.7111
X11.2089Y-7.7466
X11.2089Y-10.6757
X11.2089Y-10.7111
X11.2089Y-10.7466
X11.3044Y-6.6398
X11.3044Y-6.6752
X11.3044Y-6.7106
X11.3044Y-8.3273
X11.3044Y-8.3627
X11.3044Y-8.3981
X11.3263Y-9.921
X11.3263Y-9.9564
X11.3263Y-9.9918
X11.3792Y-6.6398
X11.3792Y-6.6752
X11.3792Y-6.7106
X11.3792Y-8.3273
X11.3792Y-8.3627
X11.3792Y-8.3981
X11.3964Y-9.9257
X11.3964Y-9.9611
X11.3964Y-9.9966
X11.4919Y-9.0773
X11.4919Y-9.1127
X11.4919Y-9.1481
X11.5138Y-8.421
X11.5138Y-8.4564
X11.5138Y-8.4918
X11.5667Y-9.0773
X11.5667Y-9.1127
X11.5667Y-9.1481
X11.5839Y-8.4257
X11.5839Y-8.4611
X11.5839Y-8.4966
X11.5856Y-10.5773
X11.5856Y-10.6127
X11.5856Y-10.6481
X11.6604Y-10.5773
X11.6604Y-10.6127
X11.6604Y-10.6481
X11.6794Y-7.5773
X11.6794Y-7.6127
X11.6794Y-7.6481
X11.6794Y-10.5773
X11.6794Y-10.6127
X11.6794Y-10.6481
X11.7013Y-9.171
X11.7013Y-9.2064
X11.7013Y-9.2418
X11.7542Y-7.5773
X11.7542Y-7.6127
X11.7542Y-7.6481
X11.7542Y-10.5773
X11.7542Y-10.6127
X11.7542Y-10.6481
X11.7714Y-9.1757
X11.7714Y-9.2111
X11.7714Y-9.2466
X11.7951Y-10.671
X11.7951Y-10.7064
X11.7951Y-10.7418
X11.8652Y-10.6757
X11.8652Y-10.7111
X11.8652Y-10.7466
X11.8669Y-9.8273
X11.8669Y-9.8627
X11.8669Y-9.8981
X11.8888Y-6.7335
X11.8888Y-6.7689
X11.8888Y-6.8043
X11.8888Y-7.671
X11.8888Y-7.7064
X11.8888Y-7.7418
X11.8888Y-10.671
X11.8888Y-10.7064
X11.8888Y-10.7418
X11.9417Y-9.8273
X11.9417Y-9.8627
X11.9417Y-9.8981
X11.9589Y-6.7382
X11.9589Y-6.7736
X11.9589Y-6.8091
X11.9589Y-7.6757
X11.9589Y-7.7111
X11.9589Y-7.7466
X11.9589Y-10.6757
X11.9589Y-10.7111
X11.9589Y-10.7466
X12.0544Y-8.3273
X12.0544Y-8.3627
X12.0544Y-8.3981
X12.0763Y-9.921
X12.0763Y-9.9564
X12.0763Y-9.9918
X12.1292Y-8.3273
X12.1292Y-8.3627
X12.1292Y-8.3981
X12.1464Y-9.9257
X12.1464Y-9.9611
X12.1464Y-9.9966
X12.2419Y-9.0773
X12.2419Y-9.1127
X12.2419Y-9.1481
X12.2638Y-8.421
X12.2638Y-8.4564
X12.2638Y-8.4918
X12.3167Y-9.0773
X12.3167Y-9.1127
X12.3167Y-9.1481
X12.3339Y-8.4257
X12.3339Y-8.4611
X12.3339Y-8.4966
X12.3356Y-10.5773
X12.3356Y-10.6127
X12.3356Y-10.6481
X12.4104Y-10.5773
X12.4104Y-10.6127
X12.4104Y-10.6481
X12.4294Y-6.6398
X12.4294Y-6.6752
X12.4294Y-6.7106
X12.4294Y-7.5773
X12.4294Y-7.6127
X12.4294Y-7.6481
X12.4294Y-10.5773
X12.4294Y-10.6127
X12.4294Y-10.6481
X12.4513Y-9.171
X12.4513Y-9.2064
X12.4513Y-9.2418
X12.5042Y-6.6398
X12.5042Y-6.6752
X12.5042Y-6.7106
X12.5042Y-7.5773
X12.5042Y-7.6127
X12.5042Y-7.6481
X12.5042Y-10.5773
X12.5042Y-10.6127
X12.5042Y-10.6481
X12.5214Y-9.1757
X12.5214Y-9.2111
X12.5214Y-9.2466
X12.6169Y-9.8273
X12.6169Y-9.8627
X12.6169Y-9.8981
X12.6388Y-6.7335
X12.6388Y-6.7689
X12.6388Y-6.8043
X12.6388Y-7.671
X12.6388Y-7.7064
X12.6388Y-7.7418
X12.6388Y-10.671
X12.6388Y-10.7064
X12.6388Y-10.7418
X12.6917Y-9.8273
X12.6917Y-9.8627
X12.6917Y-9.8981
X12.7089Y-6.7382
X12.7089Y-6.7736
X12.7089Y-6.8091
X12.7089Y-7.6757
X12.7089Y-7.7111
X12.7089Y-7.7466
X12.7089Y-10.6757
X12.7089Y-10.7111
X12.7089Y-10.7466
X12.8044Y-8.3273
X12.8044Y-8.3627
X12.8044Y-8.3981
X12.8792Y-8.3273
X12.8792Y-8.3627
X12.8792Y-8.3981
X12.9919Y-9.0773
X12.9919Y-9.1127
X12.9919Y-9.1481
X13.0138Y-8.421
X13.0138Y-8.4564
X13.0138Y-8.4918
X13.0667Y-9.0773
X13.0667Y-9.1127
X13.0667Y-9.1481
X13.0839Y-8.4257
X13.0839Y-8.4611
X13.0839Y-8.4966
X13.1076Y-9.921
X13.1076Y-9.9564
X13.1076Y-9.9918
X13.1777Y-9.9257
X13.1777Y-9.9611
X13.1777Y-9.9966
X13.1794Y-6.6398
X13.1794Y-6.6752
X13.1794Y-6.7106
X13.1794Y-7.5773
X13.1794Y-7.6127
X13.1794Y-7.6481
X13.1794Y-10.5773
X13.1794Y-10.6127
X13.1794Y-10.6481
X13.2013Y-9.171
X13.2013Y-9.2064
X13.2013Y-9.2418
X13.2542Y-6.6398
X13.2542Y-6.6752
X13.2542Y-6.7106
X13.2542Y-7.5773
X13.2542Y-7.6127
X13.2542Y-7.6481
X13.2542Y-10.5773
X13.2542Y-10.6127
X13.2542Y-10.6481
X13.2714Y-9.1757
X13.2714Y-9.2111
X13.2714Y-9.2466
X13.3888Y-6.7335
X13.3888Y-6.7689
X13.3888Y-6.8043
X13.4589Y-6.7382
X13.4589Y-6.7736
X13.4589Y-6.8091
X13.5544Y-8.3273
X13.5544Y-8.3627
X13.5544Y-8.3981
X13.5763Y-10.8585
X13.5763Y-10.8939
X13.5763Y-10.9293
X13.6292Y-8.3273
X13.6292Y-8.3627
X13.6292Y-8.3981
X13.6464Y-10.8632
X13.6464Y-10.8986
X13.6464Y-10.9341
X13.6481Y-9.8273
X13.6481Y-9.8627
X13.6481Y-9.8981
X13.7229Y-9.8273
X13.7229Y-9.8627
X13.7229Y-9.8981
X13.7419Y-9.0773
X13.7419Y-9.1127
X13.7419Y-9.1481
X13.7638Y-7.6736
X13.7638Y-7.709
X13.7638Y-7.7444
X13.8167Y-9.0773
X13.8167Y-9.1127
X13.8167Y-9.1481
X13.8339Y-7.6783
X13.8339Y-7.7137
X13.8339Y-7.7492
X13.9294Y-6.6398
X13.9294Y-6.6752
X13.9294Y-6.7106
X14.0042Y-6.6398
X14.0042Y-6.6752
X14.0042Y-6.7106
X14.0451Y-8.796
X14.0451Y-8.8314
X14.0451Y-8.8668
X14.1152Y-8.8007
X14.1152Y-8.8361
X14.1152Y-8.8716
X14.1169Y-10.7648
X14.1169Y-10.8002
X14.1169Y-10.8356
X14.1388Y-6.7335
X14.1388Y-6.7689
X14.1388Y-6.8043
X14.1917Y-10.7648
X14.1917Y-10.8002
X14.1917Y-10.8356
X14.2089Y-6.7382
X14.2089Y-6.7736
X14.2089Y-6.8091
X14.3044Y-7.5799
X14.3044Y-7.6153
X14.3044Y-7.6507
X14.3263Y-10.1085
X14.3263Y-10.1439
X14.3263Y-10.1793
X14.3263Y-10.8585
X14.3263Y-10.8939
X14.3263Y-10.9293
X14.3792Y-7.5799
X14.3792Y-7.6153
X14.3792Y-7.6507
X14.3964Y-10.1132
X14.3964Y-10.1486
X14.3964Y-10.1841
X14.3964Y-10.8632
X14.3964Y-10.8986
X14.3964Y-10.9341
X14.5856Y-8.7023
X14.5856Y-8.7377
X14.5856Y-8.7731
X14.6604Y-8.7023
X14.6604Y-8.7377
X14.6604Y-8.7731
X14.6794Y-6.6398
X14.6794Y-6.6752
X14.6794Y-6.7106
X14.7542Y-6.6398
X14.7542Y-6.6752
X14.7542Y-6.7106
X14.8669Y-10.0148
X14.8669Y-10.0502
X14.8669Y-10.0856
X14.8669Y-10.7648
X14.8669Y-10.8002
X14.8669Y-10.8356
X14.9417Y-10.0148
X14.9417Y-10.0502
X14.9417Y-10.0856
X14.9417Y-10.7648
X14.9417Y-10.8002
X14.9417Y-10.8356
X15.0763Y-10.8585
X15.0763Y-10.8939
X15.0763Y-10.9293
X15.1464Y-10.8632
X15.1464Y-10.8986
X15.1464Y-10.9341
X15.2638Y-6.7335
X15.2638Y-6.7689
X15.2638Y-6.8043
X15.2638Y-7.671
X15.2638Y-7.7064
X15.2638Y-7.7418
X15.2638Y-8.421
X15.2638Y-8.4564
X15.2638Y-8.4918
X15.2638Y-9.171
X15.2638Y-9.2064
X15.2638Y-9.2418
X15.2638Y-9.921
X15.2638Y-9.9564
X15.2638Y-9.9918
X15.3339Y-6.7382
X15.3339Y-6.7736
X15.3339Y-6.8091
X15.3339Y-7.6757
X15.3339Y-7.7111
X15.3339Y-7.7466
X15.3339Y-8.4257
X15.3339Y-8.4611
X15.3339Y-8.4966
X15.3339Y-9.1757
X15.3339Y-9.2111
X15.3339Y-9.2466
X15.3339Y-9.9257
X15.3339Y-9.9611
X15.3339Y-9.9966
X15.6169Y-10.7648
X15.6169Y-10.8002
X15.6169Y-10.8356
X15.6917Y-10.7648
X15.6917Y-10.8002
X15.6917Y-10.8356
X15.8044Y-6.6398
X15.8044Y-6.6752
X15.8044Y-6.7106
X15.8044Y-7.5773
X15.8044Y-7.6127
X15.8044Y-7.6481
X15.8044Y-8.3273
X15.8044Y-8.3627
X15.8044Y-8.3981
X15.8044Y-9.0773
X15.8044Y-9.1127
X15.8044Y-9.1481
X15.8044Y-9.8273
X15.8044Y-9.8627
X15.8044Y-9.8981
X15.8792Y-6.6398
X15.8792Y-6.6752
X15.8792Y-6.7106
X15.8792Y-7.5773
X15.8792Y-7.6127
X15.8792Y-7.6481
X15.8792Y-8.3273
X15.8792Y-8.3627
X15.8792Y-8.3981
X15.8792Y-9.0773
X15.8792Y-9.1127
X15.8792Y-9.1481
X15.8792Y-9.8273
X15.8792Y-9.8627
X15.8792Y-9.8981
X16.3888Y-7.671
X16.3888Y-7.7064
X16.3888Y-7.7418
X16.3888Y-8.421
X16.3888Y-8.4564
X16.3888Y-8.4918
X16.3888Y-9.171
X16.3888Y-9.2064
X16.3888Y-9.2418
X16.3888Y-9.921
X16.3888Y-9.9564
X16.3888Y-9.9918
X16.4589Y-7.6757
X16.4589Y-7.7111
X16.4589Y-7.7466
X16.4589Y-8.4257
X16.4589Y-8.4611
X16.4589Y-8.4966
X16.4589Y-9.1757
X16.4589Y-9.2111
X16.4589Y-9.2466
X16.4589Y-9.9257
X16.4589Y-9.9611
X16.4589Y-9.9966
X16.7638Y-10.6736
X16.7638Y-10.709
X16.7638Y-10.7444
X16.8339Y-10.6783
X16.8339Y-10.7137
X16.8339Y-10.7492
X16.9294Y-7.5773
X16.9294Y-7.6127
X16.9294Y-7.6481
X16.9294Y-8.3273
X16.9294Y-8.3627
X16.9294Y-8.3981
X16.9294Y-9.0773
X16.9294Y-9.1127
X16.9294Y-9.1481
X16.9294Y-9.8273
X16.9294Y-9.8627
X16.9294Y-9.8981
X17.0042Y-7.5773
X17.0042Y-7.6127
X17.0042Y-7.6481
X17.0042Y-8.3273
X17.0042Y-8.3627
X17.0042Y-8.3981
X17.0042Y-9.0773
X17.0042Y-9.1127
X17.0042Y-9.1481
X17.0042Y-9.8273
X17.0042Y-9.8627
X17.0042Y-9.8981
X17.1388Y-7.671
X17.1388Y-7.7064
X17.1388Y-7.7418
X17.1388Y-8.421
X17.1388Y-8.4564
X17.1388Y-8.4918
X17.1388Y-9.171
X17.1388Y-9.2064
X17.1388Y-9.2418
X17.1388Y-9.921
X17.1388Y-9.9564
X17.1388Y-9.9918
X17.2089Y-7.6757
X17.2089Y-7.7111
X17.2089Y-7.7466
X17.2089Y-8.4257
X17.2089Y-8.4611
X17.2089Y-8.4966
X17.2089Y-9.1757
X17.2089Y-9.2111
X17.2089Y-9.2466
X17.2089Y-9.9257
X17.2089Y-9.9611
X17.2089Y-9.9966
X17.3044Y-10.5799
X17.3044Y-10.6153
X17.3044Y-10.6507
X17.3792Y-10.5799
X17.3792Y-10.6153
X17.3792Y-10.6507
X17.6794Y-7.5773
X17.6794Y-7.6127
X17.6794Y-7.6481
X17.6794Y-8.3273
X17.6794Y-8.3627
X17.6794Y-8.3981
X17.6794Y-9.0773
X17.6794Y-9.1127
X17.6794Y-9.1481
X17.6794Y-9.8273
X17.6794Y-9.8627
X17.6794Y-9.8981
X17.7542Y-7.5773
X17.7542Y-7.6127
X17.7542Y-7.6481
X17.7542Y-8.3273
X17.7542Y-8.3627
X17.7542Y-8.3981
X17.7542Y-9.0773
X17.7542Y-9.1127
X17.7542Y-9.1481
X17.7542Y-9.8273
X17.7542Y-9.8627
X17.7542Y-9.8981
X17.8888Y-7.671
X17.8888Y-7.7064
X17.8888Y-7.7418
X17.8888Y-8.421
X17.8888Y-8.4564
X17.8888Y-8.4918
X17.8888Y-9.171
X17.8888Y-9.2064
X17.8888Y-9.2418
X17.8888Y-9.921
X17.8888Y-9.9564
X17.8888Y-9.9918
X17.8888Y-10.671
X17.8888Y-10.7064
X17.8888Y-10.7418
X17.9589Y-7.6757
X17.9589Y-7.7111
X17.9589Y-7.7466
X17.9589Y-8.4257
X17.9589Y-8.4611
X17.9589Y-8.4966
X17.9589Y-9.1757
X17.9589Y-9.2111
X17.9589Y-9.2466
X17.9589Y-9.9257
X17.9589Y-9.9611
X17.9589Y-9.9966
X17.9589Y-10.6757
X17.9589Y-10.7111
X17.9589Y-10.7466
X18.4294Y-7.5773
X18.4294Y-7.6127
X18.4294Y-7.6481
X18.4294Y-8.3273
X18.4294Y-8.3627
X18.4294Y-8.3981
X18.4294Y-9.0773
X18.4294Y-9.1127
X18.4294Y-9.1481
X18.4294Y-9.8273
X18.4294Y-9.8627
X18.4294Y-9.8981
X18.4294Y-10.5773
X18.4294Y-10.6127
X18.4294Y-10.6481
X18.5042Y-7.5773
X18.5042Y-7.6127
X18.5042Y-7.6481
X18.5042Y-8.3273
X18.5042Y-8.3627
X18.5042Y-8.3981
X18.5042Y-9.0773
X18.5042Y-9.1127
X18.5042Y-9.1481
X18.5042Y-9.8273
X18.5042Y-9.8627
X18.5042Y-9.8981
X18.5042Y-10.5773
X18.5042Y-10.6127
X18.5042Y-10.6481
X18.6388Y-7.671
X18.6388Y-7.7064
X18.6388Y-7.7418
X18.6388Y-8.7986
X18.6388Y-8.834
X18.6388Y-8.8694
X18.6388Y-10.2986
X18.6388Y-10.334
X18.6388Y-10.3694
X18.7089Y-7.6757
X18.7089Y-7.7111
X18.7089Y-7.7466
X18.7089Y-8.8033
X18.7089Y-8.8387
X18.7089Y-8.8742
X18.7089Y-10.3033
X18.7089Y-10.3387
X18.7089Y-10.3742
X19.1794Y-7.5773
X19.1794Y-7.6127
X19.1794Y-7.6481
X19.1794Y-8.7049
X19.1794Y-8.7403
X19.1794Y-8.7757
X19.1794Y-10.2049
X19.1794Y-10.2403
X19.1794Y-10.2757
X19.2542Y-7.5773
X19.2542Y-7.6127
X19.2542Y-7.6481
X19.2542Y-8.7049
X19.2542Y-8.7403
X19.2542Y-8.7757
X19.2542Y-10.2049
X19.2542Y-10.2403
X19.2542Y-10.2757
T2
X3.7559Y-7.1496
X3.7638Y-8.0551
X3.7638Y-8.1654
X3.8438Y-7.875
X3.8504Y-10.3071
X3.8504Y-10.4252
X3.8583Y-7.2677
X3.9375Y-10.0938
X3.9449Y-8.8031
X3.9449Y-8.9055
X3.9449Y-11.0551
X3.9449Y-11.2992
X4.0312Y-10.8438
X4.0315Y-9.5512
X4.0315Y-9.6614
X4.0625Y-8.625
X4.125Y-9.375
X4.1562Y-7.125
X4.1562Y-8.0625
X4.25Y-10.3125
X4.3438Y-8.8125
X4.4375Y-9.5625
X4.4803Y-8.0551
X4.4803Y-8.1654
X4.5Y-10.9688
X4.5354Y-8.0079
X4.6929Y-10.2992
X4.6929Y-10.4252
X4.7008Y-6.7717
X4.748Y-6.8268
X4.8661Y-8.811
X4.8661Y-8.9055
X4.8819Y-11.0551
X4.8819Y-11.2992
X4.9062Y-8.0625
X4.9688Y-8.5938
X4.9688Y-10.8438
X5.0315Y-6.9921
X5.0709Y-9.5512
X5.0709Y-9.6614
X5.0938Y-10.3125
X5.1562Y-9.3438
X5.2283Y-7.126
X5.2283Y-7.2677
X5.2362Y-10.0315
X5.2598Y-7.0394
X5.2598Y-8.0551
X5.2598Y-8.1654
X5.2812Y-8.8125
X5.4173Y-10.2992
X5.4173Y-10.4252
X5.4688Y-7.5312
X5.4688Y-9.5625
X5.4688Y-10.875
X5.6562Y-7.0938
X5.6562Y-8.0312
X5.6614Y-8.8031
X5.6614Y-8.9055
X5.7188Y-8.5938
X5.7323Y-11.0551
X5.7323Y-11.2992
X5.8125Y-10.875
X5.8268Y-9.5512
X5.8268Y-9.6614
X5.8438Y-10.2812
X5.9062Y-9.3125
X5.9921Y-8.0551
X5.9921Y-8.1654
X6.0Y-7.0394
X6.0Y-10.0
X6.0312Y-8.7812
X6.0315Y-7.1181
X6.0315Y-7.2677
X6.0938Y-7.8438
X6.189Y-10.3071
X6.189Y-10.4252
X6.2188Y-9.5312
X6.3438Y-10.875
X6.3937Y-8.8031
X6.3937Y-8.9055
X6.4062Y-7.0938
X6.4062Y-8.0312
X6.4688Y-8.5625
X6.4688Y-10.1562
X6.5748Y-9.5512
X6.5748Y-9.6614
X6.6562Y-9.375
X6.7188Y-10.0938
X6.75Y-7.0312
X6.7795Y-7.1181
X6.7795Y-7.2677
X6.7812Y-8.7812
X6.7874Y-8.0551
X6.8438Y-7.8438
X6.8976Y-8.1654
X6.9606Y-10.3071
X6.9606Y-10.4252
X7.0312Y-9.5625
X7.0312Y-10.0938
X7.1102Y-8.9055
X7.1181Y-8.8031
X7.1562Y-7.0938
X7.1562Y-8.0312
X7.2188Y-8.5938
X7.3307Y-9.5512
X7.3307Y-9.6614
X7.375Y-10.2188
X7.4062Y-9.375
X7.4961Y-8.0472
X7.4961Y-8.1654
X7.5197Y-7.0394
X7.5312Y-8.7812
X7.5354Y-7.1181
X7.5354Y-7.2677
X7.5938Y-7.8438
X7.7008Y-10.3071
X7.7008Y-10.4252
X7.71Y-9.53
X7.8976Y-8.8031
X7.8976Y-8.9055
X7.9062Y-7.0938
X7.9062Y-8.0312
X7.9688Y-8.5938
X8.0866Y-9.5512
X8.0866Y-9.6614
X8.1562Y-9.3438
X8.2202Y-10.063
X8.25Y-10.1562
X8.2812Y-8.7812
X8.2913Y-8.0551
X8.3937Y-8.1654
X8.4409Y-10.3071
X8.4409Y-10.4252
X8.5Y-9.5625
X8.5906Y-11.0551
X8.5906Y-11.2992
X8.5938Y-10.9688
X8.6378Y-8.8031
X8.6378Y-8.9055
X8.6535Y-7.0394
X8.6535Y-7.1181
X8.6535Y-7.2677
X8.6562Y-8.0312
X8.7188Y-8.5938
X8.7827Y-7.9062
X8.8268Y-9.5512
X8.8268Y-9.6614
X8.8438Y-10.2812
X8.9062Y-9.375
X8.9702Y-10.125
X8.9764Y-8.0551
X8.9764Y-8.1654
X9.0312Y-7.0938
X9.0312Y-8.7812
X9.0625Y-11.0312
X9.0938Y-7.8438
X9.2126Y-10.3071
X9.2126Y-10.4252
X9.25Y-9.5625
X9.2812Y-10.0938
X9.3937Y-8.8031
X9.3937Y-8.9055
X9.4016Y-7.0394
X9.4016Y-7.1181
X9.4016Y-7.2677
X9.4062Y-8.0312
X9.4688Y-8.625
X9.5827Y-9.5512
X9.5827Y-9.6614
X9.6562Y-9.3438
X9.7283Y-10.2559
X9.7559Y-8.0551
X9.7812Y-7.0938
X9.7812Y-8.7812
X9.8268Y-8.1654
X9.8465Y-7.8307
X9.9606Y-10.2992
X9.9606Y-10.4252
X9.9688Y-9.5312
X10.035Y-10.09
X10.1339Y-8.8031
X10.1339Y-8.9055
X10.1417Y-7.0394
X10.1496Y-7.1181
X10.1496Y-7.2677
X10.1654Y-8.0315
X10.2205Y-8.6063
X10.3228Y-9.5512
X10.3228Y-9.6614
X10.4173Y-9.3701
X10.475Y-10.275
X10.4961Y-8.0551
X10.5315Y-7.0984
X10.5354Y-8.7835
X10.5748Y-8.1654
X10.61Y-7.845
X10.685Y-10.3071
X10.685Y-10.4252
X10.73Y-9.53
X10.805Y-10.1
X10.8976Y-7.1181
X10.8976Y-7.2677
X10.8976Y-8.811
X10.8976Y-8.9055
X10.9055Y-7.0472
X10.91Y-8.035
X10.985Y-8.595
X11.063Y-9.5512
X11.063Y-9.6614
X11.0787Y-10.4567
X11.17Y-9.33
X11.1811Y-11.0394
X11.23Y-10.28
X11.2598Y-8.0551
X11.2598Y-11.2992
X11.275Y-7.1
X11.285Y-8.79
X11.3307Y-8.1654
X11.36Y-7.855
X11.4252Y-10.3071
X11.4252Y-10.4252
X11.475Y-9.545
X11.4803Y-10.4882
X11.535Y-10.085
X11.6378Y-10.9528
X11.6457Y-8.811
X11.6457Y-8.9055
X11.655Y-8.035
X11.73Y-8.6
X11.8268Y-9.5512
X11.8268Y-9.6614
X11.86Y-10.3
X11.905Y-9.36
X12.0Y-11.0551
X12.0Y-11.2992
X12.0079Y-8.0551
X12.0236Y-7.1181
X12.0236Y-7.2677
X12.03Y-8.785
X12.0315Y-7.0394
X12.0709Y-8.1654
X12.095Y-7.84
X12.175Y-10.4768
X12.215Y-9.54
X12.2205Y-10.3071
X12.2205Y-10.4252
X12.29Y-10.905
X12.295Y-10.11
X12.3937Y-8.8031
X12.3937Y-8.9055
X12.41Y-8.03
X12.415Y-7.105
X12.43Y-11.04
X12.475Y-8.61
X12.5591Y-9.5512
X12.5591Y-9.6614
X12.605Y-10.285
X12.67Y-9.35
X12.748Y-8.0551
X12.75Y-10.205
X12.7638Y-7.1181
X12.7638Y-7.2677
X12.7717Y-7.045
X12.7717Y-11.0551
X12.7717Y-11.2992
X12.785Y-8.79
X12.81Y-10.145
X12.811Y-8.1654
X12.845Y-7.865
X12.85Y-10.85
X12.97Y-9.54
X13.1417Y-8.8031
X13.1417Y-8.9055
X13.155Y-7.1
X13.16Y-8.04
X13.2205Y-10.4567
X13.2283Y-10.2992
X13.23Y-8.61
X13.3228Y-9.5512
X13.3228Y-9.6614
X13.33Y-10.105
X13.425Y-9.345
X13.5276Y-7.1181
X13.5276Y-7.2677
X13.53Y-8.79
X13.5354Y-7.0394
X13.63Y-10.32
X13.6929Y-11.2362
X13.6929Y-11.3307
X13.715Y-9.525
X13.8898Y-8.2441
X13.905Y-7.1
X13.9055Y-8.0551
X13.985Y-7.855
X14.0394Y-9.6614
X14.125Y-10.71
X14.135Y-10.925
X14.189Y-9.1811
X14.205Y-11.125
X14.26Y-8.975
X14.2835Y-7.1181
X14.2835Y-7.2677
X14.285Y-8.065
X14.2913Y-7.04
X14.435Y-10.45
X14.4567Y-11.2441
X14.4567Y-11.3307
X14.4646Y-10.4961
X14.4646Y-10.6378
X14.545Y-11.035
X14.575Y-9.18
X14.66Y-7.105
X14.85Y-10.485
X14.875Y-11.23
X15.1811Y-11.2441
X15.1811Y-11.3307
X15.19Y-11.16
X15.2756Y-7.2677
X15.3858Y-8.0551
X15.3858Y-8.1496
X15.3858Y-9.5591
X15.3858Y-9.6614
X15.3858Y-10.3071
X15.3858Y-10.4331
X15.3937Y-8.811
X15.3937Y-8.8976
X15.4016Y-7.04
X15.48Y-9.38
X15.4835Y-7.2394
X15.485Y-7.83
X15.485Y-8.6
X15.485Y-10.1
X15.595Y-11.23
X15.77Y-8.795
X15.77Y-9.54
X15.78Y-7.115
X15.785Y-8.045
X15.915Y-10.3
X15.9291Y-8.2126
X15.9646Y-11.2874
X15.9764Y-8.1496
X15.9921Y-7.5118
X16.0079Y-8.8976
X16.0079Y-8.9764
X16.0079Y-9.6614
X16.0079Y-9.7323
X16.0079Y-10.4331
X16.0079Y-10.5118
X16.0157Y-8.3228
X16.0236Y-7.3622
X16.0866Y-7.3622
X16.1496Y-7.3622
X16.2126Y-7.3622
X16.2756Y-7.3622
X16.3465Y-8.3228
X16.5039Y-10.2992
X16.5039Y-10.4331
X16.51Y-7.975
X16.5118Y-8.7953
X16.5118Y-8.8976
X16.5118Y-9.5591
X16.5118Y-9.6614
X16.5433Y-7.0866
X16.5433Y-8.0551
X16.5433Y-8.1496
X16.5591Y-7.0079
X16.61Y-8.58
X16.61Y-9.335
X16.61Y-10.12
X16.6693Y-6.7008
X16.7165Y-6.7008
X16.874Y-11.0551
X16.874Y-11.3071
X16.905Y-8.05
X16.905Y-10.295
X16.91Y-8.795
X16.91Y-9.545
X16.985Y-10.845
X16.9921Y-7.252
X17.0709Y-7.3228
X17.1339Y-7.1102
X17.2205Y-7.1869
X17.245Y-7.985
X17.2598Y-8.7953
X17.2598Y-8.8976
X17.29Y-11.045
X17.2913Y-7.2598
X17.36Y-9.345
X17.3622Y-8.1496
X17.3622Y-8.2126
X17.4182Y-7.1584
X17.4252Y-6.6614
X17.4646Y-7.1575
X17.4965Y-7.221
X17.5512Y-8.2126
X17.5748Y-8.1496
X17.655Y-8.8
X17.6693Y-7.5118
X17.675Y-10.315
X17.7827Y-7.8425
X17.811Y-10.4016
X17.811Y-10.4646
X17.8504Y-7.8425
X17.9055Y-7.5102
X17.9213Y-10.4016
X17.9213Y-10.4646
X18.0Y-7.98
X18.0Y-8.0472
X18.0Y-8.1496
X18.005Y-10.97
X18.0079Y-11.0472
X18.0079Y-11.3071
X18.0408Y-9.4708
X18.0576Y-7.3518
X18.11Y-8.61
X18.2283Y-9.7402
X18.3622Y-6.5118
X18.3701Y-9.7402
X18.4Y-8.045
X18.4Y-8.805
X18.42Y-10.3
X18.4317Y-10.9967
X18.4567Y-9.7402
X18.5669Y-9.1575
X18.5669Y-9.378
X18.5906Y-8.9528
X18.622Y-9.7402
X18.7402Y-9.0236
X18.745Y-7.985
X18.8268Y-10.1102
X18.8504Y-8.6142
X18.9449Y-7.4331
X18.9528Y-8.6142
X18.9606Y-10.1024
T3
G00X4.5487Y-6.4781
M15
G01X4.5487Y-6.5017
M16
G05
G00X4.5487Y-6.6328
M15
G01X4.5487Y-6.6761
M16
G05
G00X4.8888Y-6.4781
M15
G01X4.8888Y-6.5017
M16
G05
G00X4.8888Y-6.6328
M15
G01X4.8888Y-6.6761
M16
G05
T0
M30
