%TF.GenerationSoftware,KiCad,Pcbnew,(6.0.4)*%
%TF.CreationDate,2022-04-19T22:35:02+02:00*%
%TF.ProjectId,pcb,7063622e-6b69-4636-9164-5f7063625858,rev?*%
%TF.SameCoordinates,Original*%
%TF.FileFunction,Copper,L1,Top*%
%TF.FilePolarity,Positive*%
%FSLAX46Y46*%
G04 Gerber Fmt 4.6, Leading zero omitted, Abs format (unit mm)*
G04 Created by KiCad (PCBNEW (6.0.4)) date 2022-04-19 22:35:02*
%MOMM*%
%LPD*%
G01*
G04 APERTURE LIST*
G04 Aperture macros list*
%AMRoundRect*
0 Rectangle with rounded corners*
0 $1 Rounding radius*
0 $2 $3 $4 $5 $6 $7 $8 $9 X,Y pos of 4 corners*
0 Add a 4 corners polygon primitive as box body*
4,1,4,$2,$3,$4,$5,$6,$7,$8,$9,$2,$3,0*
0 Add four circle primitives for the rounded corners*
1,1,$1+$1,$2,$3*
1,1,$1+$1,$4,$5*
1,1,$1+$1,$6,$7*
1,1,$1+$1,$8,$9*
0 Add four rect primitives between the rounded corners*
20,1,$1+$1,$2,$3,$4,$5,0*
20,1,$1+$1,$4,$5,$6,$7,0*
20,1,$1+$1,$6,$7,$8,$9,0*
20,1,$1+$1,$8,$9,$2,$3,0*%
%AMRotRect*
0 Rectangle, with rotation*
0 The origin of the aperture is its center*
0 $1 length*
0 $2 width*
0 $3 Rotation angle, in degrees counterclockwise*
0 Add horizontal line*
21,1,$1,$2,0,0,$3*%
G04 Aperture macros list end*
%TA.AperFunction,ComponentPad*%
%ADD10C,0.600000*%
%TD*%
%TA.AperFunction,SMDPad,CuDef*%
%ADD11R,1.800000X1.100000*%
%TD*%
%TA.AperFunction,SMDPad,CuDef*%
%ADD12RoundRect,0.250000X0.512652X0.159099X0.159099X0.512652X-0.512652X-0.159099X-0.159099X-0.512652X0*%
%TD*%
%TA.AperFunction,SMDPad,CuDef*%
%ADD13RoundRect,0.250000X-0.159099X0.512652X-0.512652X0.159099X0.159099X-0.512652X0.512652X-0.159099X0*%
%TD*%
%TA.AperFunction,SMDPad,CuDef*%
%ADD14RoundRect,0.250000X-0.132583X0.503814X-0.503814X0.132583X0.132583X-0.503814X0.503814X-0.132583X0*%
%TD*%
%TA.AperFunction,SMDPad,CuDef*%
%ADD15RoundRect,0.250000X0.159099X-0.512652X0.512652X-0.159099X-0.159099X0.512652X-0.512652X0.159099X0*%
%TD*%
%TA.AperFunction,SMDPad,CuDef*%
%ADD16RotRect,1.500000X0.550000X45.000000*%
%TD*%
%TA.AperFunction,SMDPad,CuDef*%
%ADD17RotRect,1.500000X0.550000X135.000000*%
%TD*%
%TA.AperFunction,SMDPad,CuDef*%
%ADD18RoundRect,0.250000X0.503814X0.132583X0.132583X0.503814X-0.503814X-0.132583X-0.132583X-0.503814X0*%
%TD*%
%TA.AperFunction,SMDPad,CuDef*%
%ADD19RotRect,1.400000X1.200000X225.000000*%
%TD*%
%TA.AperFunction,SMDPad,CuDef*%
%ADD20RoundRect,0.250000X0.132583X-0.503814X0.503814X-0.132583X-0.132583X0.503814X-0.503814X0.132583X0*%
%TD*%
%TA.AperFunction,ComponentPad*%
%ADD21O,1.000000X1.600000*%
%TD*%
%TA.AperFunction,ComponentPad*%
%ADD22O,1.000000X2.100000*%
%TD*%
%TA.AperFunction,ViaPad*%
%ADD23C,0.800000*%
%TD*%
%TA.AperFunction,Conductor*%
%ADD24C,0.250000*%
%TD*%
%TA.AperFunction,Conductor*%
%ADD25C,0.200000*%
%TD*%
G04 APERTURE END LIST*
D10*
%TO.P,MX20,1,COL*%
%TO.N,COL3*%
X174731250Y-211512500D03*
X172831250Y-212412500D03*
X174731250Y-212412500D03*
X172831250Y-211512500D03*
X172831250Y-213312500D03*
X174731250Y-213312500D03*
%TO.P,MX20,2,ROW*%
%TO.N,Net-(D20-Pad2)*%
X160881250Y-215812500D03*
X160881250Y-214012500D03*
X159101250Y-214792500D03*
X160881250Y-214912500D03*
X159101250Y-213892500D03*
X159101250Y-215692500D03*
%TD*%
%TO.P,MX91,1,COL*%
%TO.N,COL16*%
X449056250Y-232362500D03*
X450956250Y-232362500D03*
X449056250Y-231462500D03*
X449056250Y-230562500D03*
X450956250Y-231462500D03*
X450956250Y-230562500D03*
%TO.P,MX91,2,ROW*%
%TO.N,Net-(D91-Pad2)*%
X437106250Y-234862500D03*
X435326250Y-234742500D03*
X437106250Y-233062500D03*
X437106250Y-233962500D03*
X435326250Y-233842500D03*
X435326250Y-232942500D03*
%TD*%
D11*
%TO.P,SW1,1,1*%
%TO.N,GND*%
X472500000Y-185150000D03*
%TO.P,SW1,2,2*%
%TO.N,Net-(R6-Pad2)*%
X478700000Y-188850000D03*
%TO.P,SW1,3*%
%TO.N,N/C*%
X472500000Y-188850000D03*
%TO.P,SW1,4*%
X478700000Y-185150000D03*
%TD*%
D10*
%TO.P,MX11,1,COL*%
%TO.N,COL1*%
X134731250Y-268662500D03*
X134731250Y-269562500D03*
X136631250Y-268662500D03*
X136631250Y-269562500D03*
X134731250Y-270462500D03*
X136631250Y-270462500D03*
%TO.P,MX11,2,ROW*%
%TO.N,Net-(D11-Pad2)*%
X122781250Y-271162500D03*
X121001250Y-271942500D03*
X122781250Y-272062500D03*
X121001250Y-272842500D03*
X121001250Y-271042500D03*
X122781250Y-272962500D03*
%TD*%
%TO.P,MX89,1,COL*%
%TO.N,COL16*%
X449056250Y-193362500D03*
X449056250Y-194262500D03*
X450956250Y-193362500D03*
X450956250Y-194262500D03*
X450956250Y-192462500D03*
X449056250Y-192462500D03*
%TO.P,MX89,2,ROW*%
%TO.N,Net-(D89-Pad2)*%
X437106250Y-194962500D03*
X437106250Y-196762500D03*
X437106250Y-195862500D03*
X435326250Y-196642500D03*
X435326250Y-195742500D03*
X435326250Y-194842500D03*
%TD*%
%TO.P,MX34,1,COL*%
%TO.N,COL6*%
X220456250Y-193362500D03*
X220456250Y-194262500D03*
X220456250Y-192462500D03*
X222356250Y-193362500D03*
X222356250Y-194262500D03*
X222356250Y-192462500D03*
%TO.P,MX34,2,ROW*%
%TO.N,Net-(D34-Pad2)*%
X208506250Y-195862500D03*
X206726250Y-194842500D03*
X206726250Y-195742500D03*
X208506250Y-196762500D03*
X208506250Y-194962500D03*
X206726250Y-196642500D03*
%TD*%
%TO.P,MX46,1,COL*%
%TO.N,COL8*%
X268081250Y-211512500D03*
X269981250Y-212412500D03*
X269981250Y-213312500D03*
X268081250Y-212412500D03*
X269981250Y-211512500D03*
X268081250Y-213312500D03*
%TO.P,MX46,2,ROW*%
%TO.N,Net-(D46-Pad2)*%
X254351250Y-213892500D03*
X254351250Y-214792500D03*
X256131250Y-214912500D03*
X256131250Y-214012500D03*
X256131250Y-215812500D03*
X254351250Y-215692500D03*
%TD*%
%TO.P,MX37,1,COL*%
%TO.N,COL6*%
X227118750Y-251412500D03*
X227118750Y-250512500D03*
X227118750Y-249612500D03*
X225218750Y-249612500D03*
X225218750Y-251412500D03*
X225218750Y-250512500D03*
%TO.P,MX37,2,ROW*%
%TO.N,Net-(D37-Pad2)*%
X211488750Y-252892500D03*
X211488750Y-253792500D03*
X211488750Y-251992500D03*
X213268750Y-252112500D03*
X213268750Y-253012500D03*
X213268750Y-253912500D03*
%TD*%
%TO.P,MX104,1,COL*%
%TO.N,COL10*%
X315225000Y-269562500D03*
X313325000Y-268662500D03*
X315225000Y-270462500D03*
X313325000Y-269562500D03*
X315225000Y-268662500D03*
X313325000Y-270462500D03*
%TO.P,MX104,2,ROW*%
%TO.N,Net-(D65-Pad2)*%
X299595000Y-272842500D03*
X301375000Y-272062500D03*
X299595000Y-271942500D03*
X301375000Y-271162500D03*
X301375000Y-272962500D03*
X299595000Y-271042500D03*
%TD*%
%TO.P,MX70,1,COL*%
%TO.N,COL12*%
X348562500Y-249612500D03*
X348562500Y-250512500D03*
X346662500Y-249612500D03*
X346662500Y-250512500D03*
X346662500Y-251412500D03*
X348562500Y-251412500D03*
%TO.P,MX70,2,ROW*%
%TO.N,Net-(D70-Pad2)*%
X334712500Y-252112500D03*
X332932500Y-253792500D03*
X332932500Y-252892500D03*
X334712500Y-253012500D03*
X332932500Y-251992500D03*
X334712500Y-253912500D03*
%TD*%
D12*
%TO.P,C4,1*%
%TO.N,+5V*%
X462871751Y-187471751D03*
%TO.P,C4,2*%
%TO.N,GND*%
X461528249Y-186128249D03*
%TD*%
D13*
%TO.P,C8,1*%
%TO.N,Net-(C8-Pad1)*%
X438271751Y-185328249D03*
%TO.P,C8,2*%
%TO.N,GND*%
X436928249Y-186671751D03*
%TD*%
D10*
%TO.P,MX18,1,COL*%
%TO.N,COL3*%
X163306250Y-170450000D03*
X163306250Y-169550000D03*
X165206250Y-170450000D03*
X165206250Y-169550000D03*
X165206250Y-168650000D03*
X163306250Y-168650000D03*
%TO.P,MX18,2,ROW*%
%TO.N,Net-(D18-Pad2)*%
X151356250Y-171150000D03*
X149576250Y-171030000D03*
X151356250Y-172050000D03*
X149576250Y-171930000D03*
X151356250Y-172950000D03*
X149576250Y-172830000D03*
%TD*%
%TO.P,MX55,1,COL*%
%TO.N,COL10*%
X298556250Y-192462500D03*
X296656250Y-193362500D03*
X296656250Y-192462500D03*
X296656250Y-194262500D03*
X298556250Y-193362500D03*
X298556250Y-194262500D03*
%TO.P,MX55,2,ROW*%
%TO.N,Net-(D55-Pad2)*%
X284706250Y-196762500D03*
X282926250Y-195742500D03*
X284706250Y-195862500D03*
X282926250Y-196642500D03*
X284706250Y-194962500D03*
X282926250Y-194842500D03*
%TD*%
%TO.P,MX13,1,COL*%
%TO.N,COL2*%
X146156250Y-193362500D03*
X146156250Y-194262500D03*
X146156250Y-192462500D03*
X144256250Y-193362500D03*
X144256250Y-192462500D03*
X144256250Y-194262500D03*
%TO.P,MX13,2,ROW*%
%TO.N,Net-(D13-Pad2)*%
X132306250Y-196762500D03*
X130526250Y-194842500D03*
X132306250Y-195862500D03*
X130526250Y-196642500D03*
X132306250Y-194962500D03*
X130526250Y-195742500D03*
%TD*%
%TO.P,MX45,1,COL*%
%TO.N,COL8*%
X260456250Y-193362500D03*
X260456250Y-194262500D03*
X258556250Y-192462500D03*
X258556250Y-194262500D03*
X258556250Y-193362500D03*
X260456250Y-192462500D03*
%TO.P,MX45,2,ROW*%
%TO.N,Net-(D45-Pad2)*%
X244826250Y-195742500D03*
X246606250Y-194962500D03*
X246606250Y-196762500D03*
X246606250Y-195862500D03*
X244826250Y-194842500D03*
X244826250Y-196642500D03*
%TD*%
%TO.P,MX75,1,COL*%
%TO.N,COL12*%
X358568750Y-274325000D03*
X360468750Y-275225000D03*
X358568750Y-275225000D03*
X358568750Y-273425000D03*
X360468750Y-274325000D03*
X360468750Y-273425000D03*
%TO.P,MX75,2,ROW*%
%TO.N,Net-(D75-Pad2)*%
X344838750Y-277605000D03*
X346618750Y-277725000D03*
X344838750Y-276705000D03*
X346618750Y-276825000D03*
X344838750Y-275805000D03*
X346618750Y-275925000D03*
%TD*%
D14*
%TO.P,R3,1*%
%TO.N,Net-(R3-Pad1)*%
X434245235Y-181554765D03*
%TO.P,R3,2*%
%TO.N,D-*%
X432954765Y-182845235D03*
%TD*%
D10*
%TO.P,MX40,1,COL*%
%TO.N,COL7*%
X241406250Y-194262500D03*
X239506250Y-194262500D03*
X239506250Y-192462500D03*
X239506250Y-193362500D03*
X241406250Y-192462500D03*
X241406250Y-193362500D03*
%TO.P,MX40,2,ROW*%
%TO.N,Net-(D40-Pad2)*%
X225776250Y-194842500D03*
X227556250Y-195862500D03*
X225776250Y-196642500D03*
X225776250Y-195742500D03*
X227556250Y-196762500D03*
X227556250Y-194962500D03*
%TD*%
%TO.P,MX44,1,COL*%
%TO.N,COL8*%
X269981250Y-170450000D03*
X268081250Y-169550000D03*
X268081250Y-170450000D03*
X268081250Y-168650000D03*
X269981250Y-169550000D03*
X269981250Y-168650000D03*
%TO.P,MX44,2,ROW*%
%TO.N,Net-(D44-Pad2)*%
X256131250Y-172050000D03*
X254351250Y-171030000D03*
X256131250Y-171150000D03*
X256131250Y-172950000D03*
X254351250Y-171930000D03*
X254351250Y-172830000D03*
%TD*%
%TO.P,MX67,1,COL*%
%TO.N,COL12*%
X336656250Y-193362500D03*
X336656250Y-194262500D03*
X334756250Y-192462500D03*
X334756250Y-193362500D03*
X334756250Y-194262500D03*
X336656250Y-192462500D03*
%TO.P,MX67,2,ROW*%
%TO.N,Net-(D67-Pad2)*%
X321026250Y-196642500D03*
X321026250Y-194842500D03*
X322806250Y-195862500D03*
X322806250Y-194962500D03*
X321026250Y-195742500D03*
X322806250Y-196762500D03*
%TD*%
D15*
%TO.P,C6,1*%
%TO.N,Net-(C6-Pad1)*%
X487328249Y-173471751D03*
%TO.P,C6,2*%
%TO.N,GND*%
X488671751Y-172128249D03*
%TD*%
D10*
%TO.P,MX48,1,COL*%
%TO.N,COL8*%
X265218750Y-251412500D03*
X265218750Y-249612500D03*
X265218750Y-250512500D03*
X263318750Y-250512500D03*
X263318750Y-249612500D03*
X263318750Y-251412500D03*
%TO.P,MX48,2,ROW*%
%TO.N,Net-(D48-Pad2)*%
X249588750Y-252892500D03*
X251368750Y-253012500D03*
X249588750Y-251992500D03*
X251368750Y-253912500D03*
X251368750Y-252112500D03*
X249588750Y-253792500D03*
%TD*%
%TO.P,MX92,1,COL*%
%TO.N,COL16*%
X450956250Y-251412500D03*
X449056250Y-250512500D03*
X450956250Y-250512500D03*
X449056250Y-249612500D03*
X450956250Y-249612500D03*
X449056250Y-251412500D03*
%TO.P,MX92,2,ROW*%
%TO.N,Net-(D92-Pad2)*%
X435326250Y-252892500D03*
X437106250Y-253012500D03*
X435326250Y-251992500D03*
X435326250Y-253792500D03*
X437106250Y-253912500D03*
X437106250Y-252112500D03*
%TD*%
%TO.P,MX68,1,COL*%
%TO.N,COL12*%
X346181250Y-212412500D03*
X344281250Y-211512500D03*
X346181250Y-211512500D03*
X346181250Y-213312500D03*
X344281250Y-212412500D03*
X344281250Y-213312500D03*
%TO.P,MX68,2,ROW*%
%TO.N,Net-(D68-Pad2)*%
X330551250Y-215692500D03*
X330551250Y-214792500D03*
X332331250Y-214912500D03*
X330551250Y-213892500D03*
X332331250Y-215812500D03*
X332331250Y-214012500D03*
%TD*%
%TO.P,MX81,1,COL*%
%TO.N,COL14*%
X401431250Y-213312500D03*
X403331250Y-213312500D03*
X401431250Y-212412500D03*
X401431250Y-211512500D03*
X403331250Y-211512500D03*
X403331250Y-212412500D03*
%TO.P,MX81,2,ROW*%
%TO.N,Net-(D81-Pad2)*%
X389481250Y-214012500D03*
X387701250Y-215692500D03*
X389481250Y-214912500D03*
X387701250Y-214792500D03*
X387701250Y-213892500D03*
X389481250Y-215812500D03*
%TD*%
%TO.P,MX98,1,COL*%
%TO.N,COL17*%
X487156250Y-192462500D03*
X489056250Y-192462500D03*
X489056250Y-193362500D03*
X489056250Y-194262500D03*
X487156250Y-194262500D03*
X487156250Y-193362500D03*
%TO.P,MX98,2,ROW*%
%TO.N,Net-(D98-Pad2)*%
X473426250Y-194842500D03*
X475206250Y-195862500D03*
X475206250Y-194962500D03*
X473426250Y-196642500D03*
X473426250Y-195742500D03*
X475206250Y-196762500D03*
%TD*%
%TO.P,MX21,1,COL*%
%TO.N,COL3*%
X177593750Y-231462500D03*
X177593750Y-232362500D03*
X177593750Y-230562500D03*
X179493750Y-232362500D03*
X179493750Y-231462500D03*
X179493750Y-230562500D03*
%TO.P,MX21,2,ROW*%
%TO.N,Net-(D21-Pad2)*%
X165643750Y-233062500D03*
X165643750Y-233962500D03*
X163863750Y-233842500D03*
X165643750Y-234862500D03*
X163863750Y-232942500D03*
X163863750Y-234742500D03*
%TD*%
D16*
%TO.P,U1,1,PE6*%
%TO.N,unconnected-(U1-Pad1)*%
X443543887Y-177414582D03*
%TO.P,U1,2,PE7*%
%TO.N,unconnected-(U1-Pad2)*%
X444109573Y-177980267D03*
%TO.P,U1,3,UVCC*%
%TO.N,+5V*%
X444675258Y-178545952D03*
%TO.P,U1,4,D-*%
%TO.N,Net-(R3-Pad1)*%
X445240943Y-179111638D03*
%TO.P,U1,5,D+*%
%TO.N,Net-(R4-Pad1)*%
X445806629Y-179677323D03*
%TO.P,U1,6,UGND*%
%TO.N,GND*%
X446372314Y-180243009D03*
%TO.P,U1,7,UCAP*%
%TO.N,Net-(C8-Pad1)*%
X446938000Y-180808694D03*
%TO.P,U1,8,VBUS*%
%TO.N,+5V*%
X447503685Y-181374380D03*
%TO.P,U1,9,PE3*%
%TO.N,unconnected-(U1-Pad9)*%
X448069370Y-181940065D03*
%TO.P,U1,10,PB0*%
%TO.N,unconnected-(U1-Pad10)*%
X448635056Y-182505750D03*
%TO.P,U1,11,PB1*%
%TO.N,unconnected-(U1-Pad11)*%
X449200741Y-183071436D03*
%TO.P,U1,12,PB2*%
%TO.N,unconnected-(U1-Pad12)*%
X449766427Y-183637121D03*
%TO.P,U1,13,PB3*%
%TO.N,unconnected-(U1-Pad13)*%
X450332112Y-184202807D03*
%TO.P,U1,14,PB4*%
%TO.N,unconnected-(U1-Pad14)*%
X450897798Y-184768492D03*
%TO.P,U1,15,PB5*%
%TO.N,unconnected-(U1-Pad15)*%
X451463483Y-185334177D03*
%TO.P,U1,16,PB6*%
%TO.N,unconnected-(U1-Pad16)*%
X452029168Y-185899863D03*
D17*
%TO.P,U1,17,PB7*%
%TO.N,unconnected-(U1-Pad17)*%
X454433332Y-185899863D03*
%TO.P,U1,18,PE4*%
%TO.N,unconnected-(U1-Pad18)*%
X454999017Y-185334177D03*
%TO.P,U1,19,PE5*%
%TO.N,unconnected-(U1-Pad19)*%
X455564702Y-184768492D03*
%TO.P,U1,20,~{RESET}*%
%TO.N,Net-(R6-Pad2)*%
X456130388Y-184202807D03*
%TO.P,U1,21,VCC*%
%TO.N,+5V*%
X456696073Y-183637121D03*
%TO.P,U1,22,GND*%
%TO.N,GND*%
X457261759Y-183071436D03*
%TO.P,U1,23,XTAL2*%
%TO.N,Net-(C6-Pad1)*%
X457827444Y-182505750D03*
%TO.P,U1,24,XTAL1*%
%TO.N,Net-(C5-Pad1)*%
X458393130Y-181940065D03*
%TO.P,U1,25,PD0*%
%TO.N,unconnected-(U1-Pad25)*%
X458958815Y-181374380D03*
%TO.P,U1,26,PD1*%
%TO.N,unconnected-(U1-Pad26)*%
X459524500Y-180808694D03*
%TO.P,U1,27,PD2*%
%TO.N,unconnected-(U1-Pad27)*%
X460090186Y-180243009D03*
%TO.P,U1,28,PD3*%
%TO.N,unconnected-(U1-Pad28)*%
X460655871Y-179677323D03*
%TO.P,U1,29,PD4*%
%TO.N,unconnected-(U1-Pad29)*%
X461221557Y-179111638D03*
%TO.P,U1,30,PD5*%
%TO.N,unconnected-(U1-Pad30)*%
X461787242Y-178545952D03*
%TO.P,U1,31,PD6*%
%TO.N,unconnected-(U1-Pad31)*%
X462352927Y-177980267D03*
%TO.P,U1,32,PD7*%
%TO.N,unconnected-(U1-Pad32)*%
X462918613Y-177414582D03*
D16*
%TO.P,U1,33,PE0*%
%TO.N,unconnected-(U1-Pad33)*%
X462918613Y-175010418D03*
%TO.P,U1,34,PE1*%
%TO.N,unconnected-(U1-Pad34)*%
X462352927Y-174444733D03*
%TO.P,U1,35,PC0*%
%TO.N,unconnected-(U1-Pad35)*%
X461787242Y-173879048D03*
%TO.P,U1,36,PC1*%
%TO.N,unconnected-(U1-Pad36)*%
X461221557Y-173313362D03*
%TO.P,U1,37,PC2*%
%TO.N,unconnected-(U1-Pad37)*%
X460655871Y-172747677D03*
%TO.P,U1,38,PC3*%
%TO.N,unconnected-(U1-Pad38)*%
X460090186Y-172181991D03*
%TO.P,U1,39,PC4*%
%TO.N,unconnected-(U1-Pad39)*%
X459524500Y-171616306D03*
%TO.P,U1,40,PC5*%
%TO.N,unconnected-(U1-Pad40)*%
X458958815Y-171050620D03*
%TO.P,U1,41,PC6*%
%TO.N,unconnected-(U1-Pad41)*%
X458393130Y-170484935D03*
%TO.P,U1,42,PC7*%
%TO.N,unconnected-(U1-Pad42)*%
X457827444Y-169919250D03*
%TO.P,U1,43,PE2/~{HWB}*%
%TO.N,Net-(R5-Pad1)*%
X457261759Y-169353564D03*
%TO.P,U1,44,PA7*%
%TO.N,unconnected-(U1-Pad44)*%
X456696073Y-168787879D03*
%TO.P,U1,45,PA6*%
%TO.N,unconnected-(U1-Pad45)*%
X456130388Y-168222193D03*
%TO.P,U1,46,PA5*%
%TO.N,unconnected-(U1-Pad46)*%
X455564702Y-167656508D03*
%TO.P,U1,47,PA4*%
%TO.N,unconnected-(U1-Pad47)*%
X454999017Y-167090823D03*
%TO.P,U1,48,PA3*%
%TO.N,unconnected-(U1-Pad48)*%
X454433332Y-166525137D03*
D17*
%TO.P,U1,49,PA2*%
%TO.N,unconnected-(U1-Pad49)*%
X452029168Y-166525137D03*
%TO.P,U1,50,PA1*%
%TO.N,unconnected-(U1-Pad50)*%
X451463483Y-167090823D03*
%TO.P,U1,51,PA0*%
%TO.N,unconnected-(U1-Pad51)*%
X450897798Y-167656508D03*
%TO.P,U1,52,VCC*%
%TO.N,+5V*%
X450332112Y-168222193D03*
%TO.P,U1,53,GND*%
%TO.N,GND*%
X449766427Y-168787879D03*
%TO.P,U1,54,PF7*%
%TO.N,unconnected-(U1-Pad54)*%
X449200741Y-169353564D03*
%TO.P,U1,55,PF6*%
%TO.N,unconnected-(U1-Pad55)*%
X448635056Y-169919250D03*
%TO.P,U1,56,PF5*%
%TO.N,unconnected-(U1-Pad56)*%
X448069370Y-170484935D03*
%TO.P,U1,57,PF4*%
%TO.N,unconnected-(U1-Pad57)*%
X447503685Y-171050620D03*
%TO.P,U1,58,PF3*%
%TO.N,unconnected-(U1-Pad58)*%
X446938000Y-171616306D03*
%TO.P,U1,59,PF2*%
%TO.N,unconnected-(U1-Pad59)*%
X446372314Y-172181991D03*
%TO.P,U1,60,PF1*%
%TO.N,unconnected-(U1-Pad60)*%
X445806629Y-172747677D03*
%TO.P,U1,61,PF0*%
%TO.N,unconnected-(U1-Pad61)*%
X445240943Y-173313362D03*
%TO.P,U1,62,AREF*%
%TO.N,unconnected-(U1-Pad62)*%
X444675258Y-173879048D03*
%TO.P,U1,63,GND*%
%TO.N,GND*%
X444109573Y-174444733D03*
%TO.P,U1,64,AVCC*%
%TO.N,+5V*%
X443543887Y-175010418D03*
%TD*%
D10*
%TO.P,MX62,1,COL*%
%TO.N,COL11*%
X325231250Y-211512500D03*
X327131250Y-213312500D03*
X327131250Y-212412500D03*
X327131250Y-211512500D03*
X325231250Y-213312500D03*
X325231250Y-212412500D03*
%TO.P,MX62,2,ROW*%
%TO.N,Net-(D62-Pad2)*%
X311501250Y-214792500D03*
X313281250Y-214912500D03*
X311501250Y-213892500D03*
X313281250Y-215812500D03*
X311501250Y-215692500D03*
X313281250Y-214012500D03*
%TD*%
%TO.P,MX31,1,COL*%
%TO.N,COL5*%
X215693750Y-230562500D03*
X217593750Y-232362500D03*
X215693750Y-232362500D03*
X215693750Y-231462500D03*
X217593750Y-231462500D03*
X217593750Y-230562500D03*
%TO.P,MX31,2,ROW*%
%TO.N,Net-(D31-Pad2)*%
X201963750Y-232942500D03*
X203743750Y-233062500D03*
X203743750Y-233962500D03*
X201963750Y-233842500D03*
X201963750Y-234742500D03*
X203743750Y-234862500D03*
%TD*%
%TO.P,MX69,1,COL*%
%TO.N,COL12*%
X350943750Y-232362500D03*
X350943750Y-230562500D03*
X349043750Y-232362500D03*
X349043750Y-230562500D03*
X350943750Y-231462500D03*
X349043750Y-231462500D03*
%TO.P,MX69,2,ROW*%
%TO.N,Net-(D69-Pad2)*%
X337093750Y-234862500D03*
X337093750Y-233962500D03*
X337093750Y-233062500D03*
X335313750Y-232942500D03*
X335313750Y-233842500D03*
X335313750Y-234742500D03*
%TD*%
%TO.P,MX100,1,COL*%
%TO.N,COL8*%
X487156250Y-261003639D03*
X489056250Y-259203639D03*
X487156250Y-259203639D03*
X489056250Y-260103639D03*
X487156250Y-260103639D03*
X489056250Y-261003639D03*
%TO.P,MX100,2,ROW*%
%TO.N,Net-(D100-Pad2)*%
X475206250Y-263503639D03*
X473426250Y-261583639D03*
X473426250Y-262483639D03*
X475206250Y-261703639D03*
X475206250Y-262603639D03*
X473426250Y-263383639D03*
%TD*%
%TO.P,MX33,1,COL*%
%TO.N,COL6*%
X229981250Y-169550000D03*
X231881250Y-169550000D03*
X229981250Y-170450000D03*
X231881250Y-168650000D03*
X229981250Y-168650000D03*
X231881250Y-170450000D03*
%TO.P,MX33,2,ROW*%
%TO.N,Net-(D33-Pad2)*%
X218031250Y-172050000D03*
X218031250Y-171150000D03*
X218031250Y-172950000D03*
X216251250Y-171030000D03*
X216251250Y-172830000D03*
X216251250Y-171930000D03*
%TD*%
%TO.P,MX23,1,COL*%
%TO.N,COL4*%
X184256250Y-170450000D03*
X182356250Y-169550000D03*
X182356250Y-170450000D03*
X184256250Y-168650000D03*
X184256250Y-169550000D03*
X182356250Y-168650000D03*
%TO.P,MX23,2,ROW*%
%TO.N,Net-(D23-Pad2)*%
X168626250Y-171030000D03*
X170406250Y-171150000D03*
X168626250Y-172830000D03*
X168626250Y-171930000D03*
X170406250Y-172050000D03*
X170406250Y-172950000D03*
%TD*%
%TO.P,MX73,1,COL*%
%TO.N,COL13*%
X363331250Y-192528639D03*
X365231250Y-193428639D03*
X365231250Y-192528639D03*
X365231250Y-194328639D03*
X363331250Y-193428639D03*
X363331250Y-194328639D03*
%TO.P,MX73,2,ROW*%
%TO.N,Net-(D73-Pad2)*%
X351381250Y-195028639D03*
X351381250Y-195928639D03*
X349601250Y-195808639D03*
X349601250Y-194908639D03*
X351381250Y-196828639D03*
X349601250Y-196708639D03*
%TD*%
%TO.P,MX57,1,COL*%
%TO.N,COL10*%
X312843750Y-230562500D03*
X312843750Y-232362500D03*
X310943750Y-232362500D03*
X312843750Y-231462500D03*
X310943750Y-231462500D03*
X310943750Y-230562500D03*
%TO.P,MX57,2,ROW*%
%TO.N,Net-(D57-Pad2)*%
X298993750Y-233962500D03*
X297213750Y-234742500D03*
X298993750Y-233062500D03*
X298993750Y-234862500D03*
X297213750Y-233842500D03*
X297213750Y-232942500D03*
%TD*%
%TO.P,MX41,1,COL*%
%TO.N,COL7*%
X250931250Y-212412500D03*
X250931250Y-211512500D03*
X249031250Y-213312500D03*
X249031250Y-212412500D03*
X249031250Y-211512500D03*
X250931250Y-213312500D03*
%TO.P,MX41,2,ROW*%
%TO.N,Net-(D41-Pad2)*%
X235301250Y-213892500D03*
X237081250Y-214912500D03*
X235301250Y-215692500D03*
X237081250Y-215812500D03*
X235301250Y-214792500D03*
X237081250Y-214012500D03*
%TD*%
%TO.P,MX43,1,COL*%
%TO.N,COL7*%
X246168750Y-250512500D03*
X246168750Y-249612500D03*
X244268750Y-249612500D03*
X246168750Y-251412500D03*
X244268750Y-250512500D03*
X244268750Y-251412500D03*
%TO.P,MX43,2,ROW*%
%TO.N,Net-(D43-Pad2)*%
X232318750Y-253912500D03*
X232318750Y-252112500D03*
X230538750Y-251992500D03*
X230538750Y-253792500D03*
X232318750Y-253012500D03*
X230538750Y-252892500D03*
%TD*%
%TO.P,MX74,1,COL*%
%TO.N,COL13*%
X372375000Y-222837500D03*
X372375000Y-221037500D03*
X370475000Y-221037500D03*
X372375000Y-221937500D03*
X370475000Y-221937500D03*
X370475000Y-222837500D03*
%TO.P,MX74,2,ROW*%
%TO.N,Net-(D74-Pad2)*%
X356745000Y-223417500D03*
X358525000Y-225337500D03*
X356745000Y-225217500D03*
X358525000Y-224437500D03*
X358525000Y-223537500D03*
X356745000Y-224317500D03*
%TD*%
%TO.P,MX76,1,COL*%
%TO.N,COL13*%
X377618750Y-255275000D03*
X379518750Y-256175000D03*
X379518750Y-255275000D03*
X379518750Y-254375000D03*
X377618750Y-256175000D03*
X377618750Y-254375000D03*
%TO.P,MX76,2,ROW*%
%TO.N,Net-(D76-Pad2)*%
X363888750Y-258555000D03*
X363888750Y-257655000D03*
X365668750Y-257775000D03*
X365668750Y-258675000D03*
X363888750Y-256755000D03*
X365668750Y-256875000D03*
%TD*%
%TO.P,MX96,1,COL*%
%TO.N,COL17*%
X470006250Y-231462500D03*
X468106250Y-230562500D03*
X468106250Y-231462500D03*
X468106250Y-232362500D03*
X470006250Y-232362500D03*
X470006250Y-230562500D03*
%TO.P,MX96,2,ROW*%
%TO.N,Net-(D96-Pad2)*%
X456156250Y-233062500D03*
X456156250Y-233962500D03*
X456156250Y-234862500D03*
X454376250Y-232942500D03*
X454376250Y-233842500D03*
X454376250Y-234742500D03*
%TD*%
%TO.P,MX9,1,COL*%
%TO.N,COL1*%
X141393750Y-231462500D03*
X139493750Y-232362500D03*
X141393750Y-232362500D03*
X139493750Y-231462500D03*
X139493750Y-230562500D03*
X141393750Y-230562500D03*
%TO.P,MX9,2,ROW*%
%TO.N,Net-(D9-Pad2)*%
X127543750Y-233062500D03*
X125763750Y-234742500D03*
X127543750Y-233962500D03*
X125763750Y-233842500D03*
X127543750Y-234862500D03*
X125763750Y-232942500D03*
%TD*%
%TO.P,MX27,1,COL*%
%TO.N,COL4*%
X187118750Y-250512500D03*
X187118750Y-251412500D03*
X189018750Y-249612500D03*
X189018750Y-251412500D03*
X187118750Y-249612500D03*
X189018750Y-250512500D03*
%TO.P,MX27,2,ROW*%
%TO.N,Net-(D27-Pad2)*%
X175168750Y-253012500D03*
X175168750Y-252112500D03*
X175168750Y-253912500D03*
X173388750Y-252892500D03*
X173388750Y-251992500D03*
X173388750Y-253792500D03*
%TD*%
%TO.P,MX22,1,COL*%
%TO.N,COL3*%
X168068750Y-249612500D03*
X169968750Y-250512500D03*
X169968750Y-251412500D03*
X168068750Y-250512500D03*
X168068750Y-251412500D03*
X169968750Y-249612500D03*
%TO.P,MX22,2,ROW*%
%TO.N,Net-(D22-Pad2)*%
X154338750Y-251992500D03*
X154338750Y-253792500D03*
X154338750Y-252892500D03*
X156118750Y-253912500D03*
X156118750Y-252112500D03*
X156118750Y-253012500D03*
%TD*%
%TO.P,MX60,1,COL*%
%TO.N,COL11*%
X334756250Y-168650000D03*
X334756250Y-169550000D03*
X336656250Y-169550000D03*
X336656250Y-168650000D03*
X334756250Y-170450000D03*
X336656250Y-170450000D03*
%TO.P,MX60,2,ROW*%
%TO.N,Net-(D60-Pad2)*%
X321026250Y-172830000D03*
X321026250Y-171030000D03*
X322806250Y-171150000D03*
X322806250Y-172050000D03*
X322806250Y-172950000D03*
X321026250Y-171930000D03*
%TD*%
D15*
%TO.P,C7,1*%
%TO.N,+5V*%
X440528249Y-186271751D03*
%TO.P,C7,2*%
%TO.N,GND*%
X441871751Y-184928249D03*
%TD*%
D10*
%TO.P,MX78,1,COL*%
%TO.N,COL14*%
X396668750Y-274325000D03*
X398568750Y-273425000D03*
X398568750Y-275225000D03*
X398568750Y-274325000D03*
X396668750Y-273425000D03*
X396668750Y-275225000D03*
%TO.P,MX78,2,ROW*%
%TO.N,Net-(D78-Pad2)*%
X384718750Y-276825000D03*
X382938750Y-275805000D03*
X382938750Y-277605000D03*
X384718750Y-275925000D03*
X382938750Y-276705000D03*
X384718750Y-277725000D03*
%TD*%
%TO.P,MX66,1,COL*%
%TO.N,COL12*%
X355706250Y-169550000D03*
X353806250Y-168650000D03*
X355706250Y-170450000D03*
X353806250Y-170450000D03*
X353806250Y-169550000D03*
X355706250Y-168650000D03*
%TO.P,MX66,2,ROW*%
%TO.N,Net-(D66-Pad2)*%
X341856250Y-171150000D03*
X341856250Y-172050000D03*
X341856250Y-172950000D03*
X340076250Y-171030000D03*
X340076250Y-172830000D03*
X340076250Y-171930000D03*
%TD*%
%TO.P,MX97,1,COL*%
%TO.N,COL7*%
X468106250Y-249612500D03*
X468106250Y-250512500D03*
X470006250Y-249612500D03*
X470006250Y-250512500D03*
X468106250Y-251412500D03*
X470006250Y-251412500D03*
%TO.P,MX97,2,ROW*%
%TO.N,Net-(D97-Pad2)*%
X456156250Y-252112500D03*
X454376250Y-253792500D03*
X456156250Y-253912500D03*
X456156250Y-253012500D03*
X454376250Y-251992500D03*
X454376250Y-252892500D03*
%TD*%
%TO.P,MX71,1,COL*%
%TO.N,COL11*%
X336656250Y-269562500D03*
X334756250Y-270462500D03*
X336656250Y-268662500D03*
X336656250Y-270462500D03*
X334756250Y-269562500D03*
X334756250Y-268662500D03*
%TO.P,MX71,2,ROW*%
%TO.N,Net-(D71-Pad2)*%
X321026250Y-272842500D03*
X321026250Y-271942500D03*
X322806250Y-271162500D03*
X321026250Y-271042500D03*
X322806250Y-272062500D03*
X322806250Y-272962500D03*
%TD*%
%TO.P,MX17,1,COL*%
%TO.N,COL2*%
X158062500Y-269562500D03*
X158062500Y-270462500D03*
X158062500Y-268662500D03*
X156162500Y-270462500D03*
X156162500Y-268662500D03*
X156162500Y-269562500D03*
%TO.P,MX17,2,ROW*%
%TO.N,Net-(D17-Pad2)*%
X142432500Y-271942500D03*
X144212500Y-271162500D03*
X144212500Y-272962500D03*
X142432500Y-272842500D03*
X144212500Y-272062500D03*
X142432500Y-271042500D03*
%TD*%
%TO.P,MX28,1,COL*%
%TO.N,COL5*%
X201406250Y-169550000D03*
X203306250Y-169550000D03*
X201406250Y-170450000D03*
X201406250Y-168650000D03*
X203306250Y-168650000D03*
X203306250Y-170450000D03*
%TO.P,MX28,2,ROW*%
%TO.N,Net-(D28-Pad2)*%
X187676250Y-171930000D03*
X187676250Y-171030000D03*
X189456250Y-171150000D03*
X189456250Y-172950000D03*
X189456250Y-172050000D03*
X187676250Y-172830000D03*
%TD*%
%TO.P,MX102,1,COL*%
%TO.N,COL6*%
X236787500Y-270462500D03*
X234887500Y-270462500D03*
X234887500Y-269562500D03*
X236787500Y-269562500D03*
X234887500Y-268662500D03*
X236787500Y-268662500D03*
%TO.P,MX102,2,ROW*%
%TO.N,Net-(D38-Pad2)*%
X222937500Y-271162500D03*
X221157500Y-271942500D03*
X221157500Y-272842500D03*
X221157500Y-271042500D03*
X222937500Y-272062500D03*
X222937500Y-272962500D03*
%TD*%
%TO.P,MX77,1,COL*%
%TO.N,COL13*%
X377618750Y-273425000D03*
X377618750Y-274325000D03*
X379518750Y-275225000D03*
X379518750Y-273425000D03*
X379518750Y-274325000D03*
X377618750Y-275225000D03*
%TO.P,MX77,2,ROW*%
%TO.N,Net-(D77-Pad2)*%
X365668750Y-276825000D03*
X363888750Y-275805000D03*
X363888750Y-277605000D03*
X363888750Y-276705000D03*
X365668750Y-277725000D03*
X365668750Y-275925000D03*
%TD*%
%TO.P,MX95,1,COL*%
%TO.N,COL17*%
X470006250Y-211512500D03*
X468106250Y-212412500D03*
X468106250Y-213312500D03*
X470006250Y-212412500D03*
X470006250Y-213312500D03*
X468106250Y-211512500D03*
%TO.P,MX95,2,ROW*%
%TO.N,Net-(D95-Pad2)*%
X454376250Y-214792500D03*
X454376250Y-215692500D03*
X454376250Y-213892500D03*
X456156250Y-215812500D03*
X456156250Y-214012500D03*
X456156250Y-214912500D03*
%TD*%
%TO.P,MX1,1,COL*%
%TO.N,COL0*%
X106156250Y-168650000D03*
X108056250Y-168650000D03*
X106156250Y-170450000D03*
X108056250Y-170450000D03*
X106156250Y-169550000D03*
X108056250Y-169550000D03*
%TO.P,MX1,2,ROW*%
%TO.N,Net-(D1-Pad2)*%
X92426250Y-171930000D03*
X92426250Y-171030000D03*
X94206250Y-172950000D03*
X94206250Y-171150000D03*
X92426250Y-172830000D03*
X94206250Y-172050000D03*
%TD*%
%TO.P,MX19,1,COL*%
%TO.N,COL3*%
X165206250Y-193362500D03*
X163306250Y-193362500D03*
X163306250Y-192462500D03*
X163306250Y-194262500D03*
X165206250Y-192462500D03*
X165206250Y-194262500D03*
%TO.P,MX19,2,ROW*%
%TO.N,Net-(D19-Pad2)*%
X151356250Y-194962500D03*
X149576250Y-194842500D03*
X151356250Y-195862500D03*
X151356250Y-196762500D03*
X149576250Y-196642500D03*
X149576250Y-195742500D03*
%TD*%
%TO.P,MX90,1,COL*%
%TO.N,COL16*%
X450956250Y-212412500D03*
X450956250Y-213312500D03*
X450956250Y-211512500D03*
X449056250Y-211512500D03*
X449056250Y-212412500D03*
X449056250Y-213312500D03*
%TO.P,MX90,2,ROW*%
%TO.N,Net-(D90-Pad2)*%
X435326250Y-214792500D03*
X437106250Y-214912500D03*
X435326250Y-213892500D03*
X437106250Y-215812500D03*
X435326250Y-215692500D03*
X437106250Y-214012500D03*
%TD*%
%TO.P,MX93,1,COL*%
%TO.N,COL16*%
X468106250Y-268662500D03*
X468106250Y-269562500D03*
X470006250Y-270462500D03*
X470006250Y-269562500D03*
X468106250Y-270462500D03*
X470006250Y-268662500D03*
%TO.P,MX93,2,ROW*%
%TO.N,Net-(D93-Pad2)*%
X456156250Y-272062500D03*
X454376250Y-271042500D03*
X456156250Y-272962500D03*
X454376250Y-272842500D03*
X454376250Y-271942500D03*
X456156250Y-271162500D03*
%TD*%
%TO.P,MX38,1,COL*%
%TO.N,COL6*%
X225220315Y-270528639D03*
X225220315Y-268728639D03*
X227120315Y-269628639D03*
X225220315Y-269628639D03*
X227120315Y-268728639D03*
X227120315Y-270528639D03*
%TO.P,MX38,2,ROW*%
%TO.N,Net-(D38-Pad2)*%
X213270315Y-271228639D03*
X211490315Y-271108639D03*
X213270315Y-273028639D03*
X211490315Y-272008639D03*
X211490315Y-272908639D03*
X213270315Y-272128639D03*
%TD*%
D14*
%TO.P,R4,1*%
%TO.N,Net-(R4-Pad1)*%
X436245235Y-183354765D03*
%TO.P,R4,2*%
%TO.N,D+*%
X434954765Y-184645235D03*
%TD*%
D18*
%TO.P,R6,1*%
%TO.N,+5V*%
X460845235Y-189445235D03*
%TO.P,R6,2*%
%TO.N,Net-(R6-Pad2)*%
X459554765Y-188154765D03*
%TD*%
D10*
%TO.P,MX52,1,COL*%
%TO.N,COL9*%
X293793750Y-231462500D03*
X291893750Y-230562500D03*
X291893750Y-232362500D03*
X291893750Y-231462500D03*
X293793750Y-230562500D03*
X293793750Y-232362500D03*
%TO.P,MX52,2,ROW*%
%TO.N,Net-(D52-Pad2)*%
X278163750Y-232942500D03*
X279943750Y-233962500D03*
X279943750Y-233062500D03*
X278163750Y-234742500D03*
X278163750Y-233842500D03*
X279943750Y-234862500D03*
%TD*%
%TO.P,MX39,1,COL*%
%TO.N,COL7*%
X250931250Y-169550000D03*
X249031250Y-169550000D03*
X249031250Y-170450000D03*
X250931250Y-170450000D03*
X249031250Y-168650000D03*
X250931250Y-168650000D03*
%TO.P,MX39,2,ROW*%
%TO.N,Net-(D39-Pad2)*%
X235301250Y-172830000D03*
X237081250Y-171150000D03*
X237081250Y-172050000D03*
X235301250Y-171030000D03*
X237081250Y-172950000D03*
X235301250Y-171930000D03*
%TD*%
%TO.P,MX94,1,COL*%
%TO.N,COL16*%
X470006250Y-192462500D03*
X468106250Y-194262500D03*
X470006250Y-194262500D03*
X470006250Y-193362500D03*
X468106250Y-192462500D03*
X468106250Y-193362500D03*
%TO.P,MX94,2,ROW*%
%TO.N,Net-(D94-Pad2)*%
X456156250Y-196762500D03*
X454376250Y-196642500D03*
X454376250Y-194842500D03*
X456156250Y-195862500D03*
X454376250Y-195742500D03*
X456156250Y-194962500D03*
%TD*%
%TO.P,MX61,1,COL*%
%TO.N,COL11*%
X315706250Y-192462500D03*
X317606250Y-192462500D03*
X315706250Y-193362500D03*
X317606250Y-193362500D03*
X315706250Y-194262500D03*
X317606250Y-194262500D03*
%TO.P,MX61,2,ROW*%
%TO.N,Net-(D61-Pad2)*%
X301976250Y-195742500D03*
X303756250Y-194962500D03*
X301976250Y-196642500D03*
X303756250Y-195862500D03*
X301976250Y-194842500D03*
X303756250Y-196762500D03*
%TD*%
%TO.P,MX3,1,COL*%
%TO.N,COL0*%
X112818750Y-212412500D03*
X110918750Y-212412500D03*
X110918750Y-211512500D03*
X112818750Y-213312500D03*
X112818750Y-211512500D03*
X110918750Y-213312500D03*
%TO.P,MX3,2,ROW*%
%TO.N,Net-(D3-Pad2)*%
X97188750Y-214792500D03*
X97188750Y-215692500D03*
X98968750Y-214912500D03*
X98968750Y-214012500D03*
X98968750Y-215812500D03*
X97188750Y-213892500D03*
%TD*%
D13*
%TO.P,C3,1*%
%TO.N,+5V*%
X447471751Y-165328249D03*
%TO.P,C3,2*%
%TO.N,GND*%
X446128249Y-166671751D03*
%TD*%
D10*
%TO.P,MX14,1,COL*%
%TO.N,COL2*%
X153781250Y-212412500D03*
X155681250Y-213312500D03*
X153781250Y-213312500D03*
X155681250Y-211512500D03*
X153781250Y-211512500D03*
X155681250Y-212412500D03*
%TO.P,MX14,2,ROW*%
%TO.N,Net-(D14-Pad2)*%
X140051250Y-213892500D03*
X140051250Y-215692500D03*
X141831250Y-215812500D03*
X140051250Y-214792500D03*
X141831250Y-214012500D03*
X141831250Y-214912500D03*
%TD*%
%TO.P,MX83,1,COL*%
%TO.N,COL14*%
X401431250Y-249612500D03*
X401431250Y-251412500D03*
X403331250Y-250512500D03*
X403331250Y-249612500D03*
X403331250Y-251412500D03*
X401431250Y-250512500D03*
%TO.P,MX83,2,ROW*%
%TO.N,Net-(D83-Pad2)*%
X387701250Y-252892500D03*
X387701250Y-253792500D03*
X389481250Y-253912500D03*
X389481250Y-253012500D03*
X389481250Y-252112500D03*
X387701250Y-251992500D03*
%TD*%
D19*
%TO.P,Y1,1,1*%
%TO.N,Net-(C5-Pad1)*%
X486176777Y-168221142D03*
%TO.P,Y1,2,2*%
%TO.N,GND*%
X484621142Y-169776777D03*
%TO.P,Y1,3,3*%
%TO.N,Net-(C6-Pad1)*%
X485823223Y-170978858D03*
%TO.P,Y1,4,4*%
%TO.N,GND*%
X487378858Y-169423223D03*
%TD*%
D10*
%TO.P,MX58,1,COL*%
%TO.N,COL10*%
X303318750Y-250512500D03*
X301418750Y-249612500D03*
X303318750Y-249612500D03*
X303318750Y-251412500D03*
X301418750Y-250512500D03*
X301418750Y-251412500D03*
%TO.P,MX58,2,ROW*%
%TO.N,Net-(D58-Pad2)*%
X287688750Y-252892500D03*
X289468750Y-253012500D03*
X287688750Y-253792500D03*
X289468750Y-252112500D03*
X287688750Y-251992500D03*
X289468750Y-253912500D03*
%TD*%
D20*
%TO.P,R5,1*%
%TO.N,Net-(R5-Pad1)*%
X459754765Y-166845235D03*
%TO.P,R5,2*%
%TO.N,GND*%
X461045235Y-165554765D03*
%TD*%
D10*
%TO.P,MX50,1,COL*%
%TO.N,COL9*%
X279506250Y-193362500D03*
X279506250Y-194262500D03*
X279506250Y-192462500D03*
X277606250Y-192462500D03*
X277606250Y-193362500D03*
X277606250Y-194262500D03*
%TO.P,MX50,2,ROW*%
%TO.N,Net-(D50-Pad2)*%
X263876250Y-196642500D03*
X263876250Y-195742500D03*
X263876250Y-194842500D03*
X265656250Y-195862500D03*
X265656250Y-196762500D03*
X265656250Y-194962500D03*
%TD*%
%TO.P,MX72,1,COL*%
%TO.N,COL13*%
X372856250Y-168650000D03*
X374756250Y-169550000D03*
X374756250Y-168650000D03*
X372856250Y-169550000D03*
X374756250Y-170450000D03*
X372856250Y-170450000D03*
%TO.P,MX72,2,ROW*%
%TO.N,Net-(D72-Pad2)*%
X360906250Y-172950000D03*
X359126250Y-171030000D03*
X359126250Y-172830000D03*
X359126250Y-171930000D03*
X360906250Y-172050000D03*
X360906250Y-171150000D03*
%TD*%
%TO.P,MX54,1,COL*%
%TO.N,COL10*%
X315706250Y-168650000D03*
X317606250Y-170450000D03*
X315706250Y-170450000D03*
X317606250Y-168650000D03*
X315706250Y-169550000D03*
X317606250Y-169550000D03*
%TO.P,MX54,2,ROW*%
%TO.N,Net-(D54-Pad2)*%
X303756250Y-171150000D03*
X301976250Y-171030000D03*
X301976250Y-171930000D03*
X303756250Y-172950000D03*
X301976250Y-172830000D03*
X303756250Y-172050000D03*
%TD*%
%TO.P,MX49,1,COL*%
%TO.N,COL9*%
X289031250Y-170450000D03*
X287131250Y-169550000D03*
X287131250Y-168650000D03*
X289031250Y-169550000D03*
X287131250Y-170450000D03*
X289031250Y-168650000D03*
%TO.P,MX49,2,ROW*%
%TO.N,Net-(D49-Pad2)*%
X275181250Y-171150000D03*
X273401250Y-172830000D03*
X273401250Y-171030000D03*
X275181250Y-172950000D03*
X273401250Y-171930000D03*
X275181250Y-172050000D03*
%TD*%
%TO.P,MX86,1,COL*%
%TO.N,COL15*%
X430006250Y-232362500D03*
X431906250Y-231462500D03*
X431906250Y-232362500D03*
X431906250Y-230562500D03*
X430006250Y-230562500D03*
X430006250Y-231462500D03*
%TO.P,MX86,2,ROW*%
%TO.N,Net-(D86-Pad2)*%
X418056250Y-233062500D03*
X416276250Y-232942500D03*
X418056250Y-233962500D03*
X418056250Y-234862500D03*
X416276250Y-234742500D03*
X416276250Y-233842500D03*
%TD*%
%TO.P,MX24,1,COL*%
%TO.N,COL4*%
X182356250Y-192462500D03*
X184256250Y-194262500D03*
X182356250Y-194262500D03*
X182356250Y-193362500D03*
X184256250Y-193362500D03*
X184256250Y-192462500D03*
%TO.P,MX24,2,ROW*%
%TO.N,Net-(D24-Pad2)*%
X170406250Y-196762500D03*
X170406250Y-195862500D03*
X170406250Y-194962500D03*
X168626250Y-196642500D03*
X168626250Y-194842500D03*
X168626250Y-195742500D03*
%TD*%
%TO.P,MX80,1,COL*%
%TO.N,COL14*%
X403331250Y-192462500D03*
X403331250Y-194262500D03*
X401431250Y-194262500D03*
X401431250Y-193362500D03*
X401431250Y-192462500D03*
X403331250Y-193362500D03*
%TO.P,MX80,2,ROW*%
%TO.N,Net-(D80-Pad2)*%
X389481250Y-195862500D03*
X387701250Y-194842500D03*
X387701250Y-195742500D03*
X387701250Y-196642500D03*
X389481250Y-194962500D03*
X389481250Y-196762500D03*
%TD*%
%TO.P,MX51,1,COL*%
%TO.N,COL9*%
X289031250Y-213312500D03*
X289031250Y-211512500D03*
X287131250Y-211512500D03*
X289031250Y-212412500D03*
X287131250Y-212412500D03*
X287131250Y-213312500D03*
%TO.P,MX51,2,ROW*%
%TO.N,Net-(D51-Pad2)*%
X275181250Y-214912500D03*
X275181250Y-215812500D03*
X273401250Y-215692500D03*
X273401250Y-213892500D03*
X275181250Y-214012500D03*
X273401250Y-214792500D03*
%TD*%
%TO.P,MX47,1,COL*%
%TO.N,COL8*%
X272843750Y-230562500D03*
X272843750Y-231462500D03*
X274743750Y-231462500D03*
X274743750Y-232362500D03*
X274743750Y-230562500D03*
X272843750Y-232362500D03*
%TO.P,MX47,2,ROW*%
%TO.N,Net-(D47-Pad2)*%
X260893750Y-233062500D03*
X259113750Y-233842500D03*
X260893750Y-234862500D03*
X259113750Y-234742500D03*
X259113750Y-232942500D03*
X260893750Y-233962500D03*
%TD*%
%TO.P,MX99,1,COL*%
%TO.N,COL5*%
X487156250Y-221103639D03*
X489056250Y-222003639D03*
X489056250Y-222903639D03*
X489056250Y-221103639D03*
X487156250Y-222003639D03*
X487156250Y-222903639D03*
%TO.P,MX99,2,ROW*%
%TO.N,Net-(D99-Pad2)*%
X475206250Y-225403639D03*
X473426250Y-223483639D03*
X473426250Y-224383639D03*
X473426250Y-225283639D03*
X475206250Y-223603639D03*
X475206250Y-224503639D03*
%TD*%
%TO.P,MX30,1,COL*%
%TO.N,COL5*%
X210931250Y-211512500D03*
X210931250Y-212412500D03*
X210931250Y-213312500D03*
X212831250Y-213312500D03*
X212831250Y-212412500D03*
X212831250Y-211512500D03*
%TO.P,MX30,2,ROW*%
%TO.N,Net-(D30-Pad2)*%
X197201250Y-214792500D03*
X198981250Y-214912500D03*
X197201250Y-215692500D03*
X197201250Y-213892500D03*
X198981250Y-215812500D03*
X198981250Y-214012500D03*
%TD*%
%TO.P,MX26,1,COL*%
%TO.N,COL4*%
X196643750Y-230562500D03*
X196643750Y-232362500D03*
X198543750Y-230562500D03*
X198543750Y-231462500D03*
X196643750Y-231462500D03*
X198543750Y-232362500D03*
%TO.P,MX26,2,ROW*%
%TO.N,Net-(D26-Pad2)*%
X182913750Y-233842500D03*
X184693750Y-233962500D03*
X182913750Y-232942500D03*
X182913750Y-234742500D03*
X184693750Y-233062500D03*
X184693750Y-234862500D03*
%TD*%
%TO.P,MX36,1,COL*%
%TO.N,COL6*%
X236643750Y-232362500D03*
X234743750Y-232362500D03*
X236643750Y-230562500D03*
X234743750Y-231462500D03*
X236643750Y-231462500D03*
X234743750Y-230562500D03*
%TO.P,MX36,2,ROW*%
%TO.N,Net-(D36-Pad2)*%
X222793750Y-234862500D03*
X221013750Y-234742500D03*
X221013750Y-233842500D03*
X222793750Y-233062500D03*
X221013750Y-232942500D03*
X222793750Y-233962500D03*
%TD*%
%TO.P,MX35,1,COL*%
%TO.N,COL6*%
X231881250Y-213312500D03*
X229981250Y-212412500D03*
X229981250Y-213312500D03*
X231881250Y-212412500D03*
X229981250Y-211512500D03*
X231881250Y-211512500D03*
%TO.P,MX35,2,ROW*%
%TO.N,Net-(D35-Pad2)*%
X218031250Y-214012500D03*
X216251250Y-215692500D03*
X216251250Y-214792500D03*
X218031250Y-214912500D03*
X218031250Y-215812500D03*
X216251250Y-213892500D03*
%TD*%
%TO.P,MX88,1,COL*%
%TO.N,COL15*%
X441431250Y-268728639D03*
X439531250Y-269628639D03*
X441431250Y-269628639D03*
X439531250Y-270528639D03*
X441431250Y-270528639D03*
X439531250Y-268728639D03*
%TO.P,MX88,2,ROW*%
%TO.N,Net-(D88-Pad2)*%
X425801250Y-271108639D03*
X427581250Y-272128639D03*
X427581250Y-271228639D03*
X425801250Y-272908639D03*
X425801250Y-272008639D03*
X427581250Y-273028639D03*
%TD*%
%TO.P,MX29,1,COL*%
%TO.N,COL5*%
X203306250Y-194262500D03*
X201406250Y-192462500D03*
X203306250Y-193362500D03*
X201406250Y-194262500D03*
X201406250Y-193362500D03*
X203306250Y-192462500D03*
%TO.P,MX29,2,ROW*%
%TO.N,Net-(D29-Pad2)*%
X187676250Y-195742500D03*
X187676250Y-194842500D03*
X187676250Y-196642500D03*
X189456250Y-195862500D03*
X189456250Y-194962500D03*
X189456250Y-196762500D03*
%TD*%
%TO.P,MX53,1,COL*%
%TO.N,COL9*%
X282368750Y-249612500D03*
X284268750Y-250512500D03*
X282368750Y-250512500D03*
X282368750Y-251412500D03*
X284268750Y-251412500D03*
X284268750Y-249612500D03*
%TO.P,MX53,2,ROW*%
%TO.N,Net-(D53-Pad2)*%
X270418750Y-253012500D03*
X268638750Y-251992500D03*
X268638750Y-252892500D03*
X270418750Y-252112500D03*
X270418750Y-253912500D03*
X268638750Y-253792500D03*
%TD*%
%TO.P,MX6,1,COL*%
%TO.N,COL0*%
X110918750Y-268662500D03*
X112818750Y-269562500D03*
X112818750Y-270462500D03*
X110918750Y-270462500D03*
X110918750Y-269562500D03*
X112818750Y-268662500D03*
%TO.P,MX6,2,ROW*%
%TO.N,Net-(D6-Pad2)*%
X98968750Y-271162500D03*
X98968750Y-272962500D03*
X98968750Y-272062500D03*
X97188750Y-271042500D03*
X97188750Y-271942500D03*
X97188750Y-272842500D03*
%TD*%
%TO.P,MX79,1,COL*%
%TO.N,COL14*%
X401431250Y-170450000D03*
X401431250Y-169550000D03*
X403331250Y-170450000D03*
X403331250Y-168650000D03*
X403331250Y-169550000D03*
X401431250Y-168650000D03*
%TO.P,MX79,2,ROW*%
%TO.N,Net-(D79-Pad2)*%
X387701250Y-171030000D03*
X389481250Y-172950000D03*
X389481250Y-172050000D03*
X387701250Y-172830000D03*
X387701250Y-171930000D03*
X389481250Y-171150000D03*
%TD*%
%TO.P,MX56,1,COL*%
%TO.N,COL10*%
X308081250Y-211512500D03*
X306181250Y-212412500D03*
X306181250Y-211512500D03*
X308081250Y-213312500D03*
X306181250Y-213312500D03*
X308081250Y-212412500D03*
%TO.P,MX56,2,ROW*%
%TO.N,Net-(D56-Pad2)*%
X294231250Y-214012500D03*
X294231250Y-215812500D03*
X292451250Y-213892500D03*
X292451250Y-215692500D03*
X294231250Y-214912500D03*
X292451250Y-214792500D03*
%TD*%
D15*
%TO.P,C2,1*%
%TO.N,+5V*%
X440128249Y-172271751D03*
%TO.P,C2,2*%
%TO.N,GND*%
X441471751Y-170928249D03*
%TD*%
D10*
%TO.P,MX84,1,COL*%
%TO.N,COL15*%
X430006250Y-194262500D03*
X430006250Y-192462500D03*
X431906250Y-194262500D03*
X431906250Y-192462500D03*
X430006250Y-193362500D03*
X431906250Y-193362500D03*
%TO.P,MX84,2,ROW*%
%TO.N,Net-(D84-Pad2)*%
X416276250Y-194842500D03*
X418056250Y-195862500D03*
X418056250Y-196762500D03*
X416276250Y-196642500D03*
X416276250Y-195742500D03*
X418056250Y-194962500D03*
%TD*%
%TO.P,MX16,1,COL*%
%TO.N,COL2*%
X150918750Y-250512500D03*
X150918750Y-249612500D03*
X149018750Y-249612500D03*
X149018750Y-251412500D03*
X149018750Y-250512500D03*
X150918750Y-251412500D03*
%TO.P,MX16,2,ROW*%
%TO.N,Net-(D16-Pad2)*%
X137068750Y-253012500D03*
X137068750Y-252112500D03*
X137068750Y-253912500D03*
X135288750Y-251992500D03*
X135288750Y-253792500D03*
X135288750Y-252892500D03*
%TD*%
%TO.P,MX101,1,COL*%
%TO.N,COL6*%
X229500000Y-268662500D03*
X227600000Y-269562500D03*
X229500000Y-270462500D03*
X227600000Y-268662500D03*
X227600000Y-270462500D03*
X229500000Y-269562500D03*
%TO.P,MX101,2,ROW*%
%TO.N,Net-(D38-Pad2)*%
X213870000Y-271042500D03*
X215650000Y-272062500D03*
X213870000Y-272842500D03*
X215650000Y-272962500D03*
X213870000Y-271942500D03*
X215650000Y-271162500D03*
%TD*%
%TO.P,MX42,1,COL*%
%TO.N,COL7*%
X253793750Y-232362500D03*
X255693750Y-232362500D03*
X255693750Y-230562500D03*
X253793750Y-231462500D03*
X255693750Y-231462500D03*
X253793750Y-230562500D03*
%TO.P,MX42,2,ROW*%
%TO.N,Net-(D42-Pad2)*%
X240063750Y-234742500D03*
X240063750Y-232942500D03*
X241843750Y-234862500D03*
X240063750Y-233842500D03*
X241843750Y-233962500D03*
X241843750Y-233062500D03*
%TD*%
%TO.P,MX59,1,COL*%
%TO.N,COL9*%
X296175000Y-269562500D03*
X296175000Y-268662500D03*
X294275000Y-268662500D03*
X294275000Y-270462500D03*
X294275000Y-269562500D03*
X296175000Y-270462500D03*
%TO.P,MX59,2,ROW*%
%TO.N,Net-(D59-Pad2)*%
X280545000Y-271042500D03*
X282325000Y-272962500D03*
X280545000Y-272842500D03*
X282325000Y-272062500D03*
X282325000Y-271162500D03*
X280545000Y-271942500D03*
%TD*%
%TO.P,MX85,1,COL*%
%TO.N,COL15*%
X431906250Y-212412500D03*
X430006250Y-213312500D03*
X431906250Y-211512500D03*
X430006250Y-211512500D03*
X430006250Y-212412500D03*
X431906250Y-213312500D03*
%TO.P,MX85,2,ROW*%
%TO.N,Net-(D85-Pad2)*%
X418056250Y-215812500D03*
X416276250Y-213892500D03*
X416276250Y-214792500D03*
X418056250Y-214912500D03*
X418056250Y-214012500D03*
X416276250Y-215692500D03*
%TD*%
%TO.P,MX12,1,COL*%
%TO.N,COL2*%
X146156250Y-168650000D03*
X144256250Y-170450000D03*
X146156250Y-169550000D03*
X144256250Y-169550000D03*
X144256250Y-168650000D03*
X146156250Y-170450000D03*
%TO.P,MX12,2,ROW*%
%TO.N,Net-(D12-Pad2)*%
X132306250Y-172050000D03*
X130526250Y-171930000D03*
X132306250Y-171150000D03*
X130526250Y-172830000D03*
X130526250Y-171030000D03*
X132306250Y-172950000D03*
%TD*%
%TO.P,MX103,1,COL*%
%TO.N,COL9*%
X298556250Y-268662500D03*
X296656250Y-268662500D03*
X296656250Y-269562500D03*
X298556250Y-269562500D03*
X298556250Y-270462500D03*
X296656250Y-270462500D03*
%TO.P,MX103,2,ROW*%
%TO.N,Net-(D59-Pad2)*%
X284706250Y-271162500D03*
X282926250Y-272842500D03*
X282926250Y-271042500D03*
X284706250Y-272962500D03*
X284706250Y-272062500D03*
X282926250Y-271942500D03*
%TD*%
%TO.P,MX25,1,COL*%
%TO.N,COL4*%
X193781250Y-211512500D03*
X191881250Y-213312500D03*
X191881250Y-211512500D03*
X191881250Y-212412500D03*
X193781250Y-213312500D03*
X193781250Y-212412500D03*
%TO.P,MX25,2,ROW*%
%TO.N,Net-(D25-Pad2)*%
X179931250Y-214012500D03*
X178151250Y-215692500D03*
X178151250Y-213892500D03*
X179931250Y-214912500D03*
X178151250Y-214792500D03*
X179931250Y-215812500D03*
%TD*%
%TO.P,MX63,1,COL*%
%TO.N,COL11*%
X331893750Y-230562500D03*
X331893750Y-232362500D03*
X329993750Y-232362500D03*
X329993750Y-231462500D03*
X329993750Y-230562500D03*
X331893750Y-231462500D03*
%TO.P,MX63,2,ROW*%
%TO.N,Net-(D63-Pad2)*%
X318043750Y-233962500D03*
X318043750Y-234862500D03*
X318043750Y-233062500D03*
X316263750Y-233842500D03*
X316263750Y-234742500D03*
X316263750Y-232942500D03*
%TD*%
%TO.P,MX32,1,COL*%
%TO.N,COL5*%
X206168750Y-251412500D03*
X206168750Y-249612500D03*
X208068750Y-249612500D03*
X208068750Y-251412500D03*
X206168750Y-250512500D03*
X208068750Y-250512500D03*
%TO.P,MX32,2,ROW*%
%TO.N,Net-(D32-Pad2)*%
X192438750Y-251992500D03*
X194218750Y-252112500D03*
X194218750Y-253912500D03*
X192438750Y-252892500D03*
X194218750Y-253012500D03*
X192438750Y-253792500D03*
%TD*%
%TO.P,MX7,1,COL*%
%TO.N,COL1*%
X125206250Y-193362500D03*
X127106250Y-193362500D03*
X125206250Y-194262500D03*
X125206250Y-192462500D03*
X127106250Y-194262500D03*
X127106250Y-192462500D03*
%TO.P,MX7,2,ROW*%
%TO.N,Net-(D7-Pad2)*%
X113256250Y-195862500D03*
X111476250Y-196642500D03*
X111476250Y-195742500D03*
X113256250Y-196762500D03*
X113256250Y-194962500D03*
X111476250Y-194842500D03*
%TD*%
D13*
%TO.P,C5,1*%
%TO.N,Net-(C5-Pad1)*%
X483271751Y-166928249D03*
%TO.P,C5,2*%
%TO.N,GND*%
X481928249Y-168271751D03*
%TD*%
D10*
%TO.P,MX64,1,COL*%
%TO.N,COL11*%
X320468750Y-250512500D03*
X320468750Y-251412500D03*
X322368750Y-250512500D03*
X322368750Y-251412500D03*
X320468750Y-249612500D03*
X322368750Y-249612500D03*
%TO.P,MX64,2,ROW*%
%TO.N,Net-(D64-Pad2)*%
X306738750Y-252892500D03*
X308518750Y-252112500D03*
X306738750Y-253792500D03*
X308518750Y-253012500D03*
X306738750Y-251992500D03*
X308518750Y-253912500D03*
%TD*%
%TO.P,MX15,1,COL*%
%TO.N,COL2*%
X160443750Y-232362500D03*
X158543750Y-232362500D03*
X158543750Y-230562500D03*
X160443750Y-230562500D03*
X160443750Y-231462500D03*
X158543750Y-231462500D03*
%TO.P,MX15,2,ROW*%
%TO.N,Net-(D15-Pad2)*%
X146593750Y-234862500D03*
X146593750Y-233062500D03*
X146593750Y-233962500D03*
X144813750Y-232942500D03*
X144813750Y-234742500D03*
X144813750Y-233842500D03*
%TD*%
%TO.P,MX87,1,COL*%
%TO.N,COL15*%
X430006250Y-250512500D03*
X430006250Y-251412500D03*
X431906250Y-251412500D03*
X431906250Y-249612500D03*
X430006250Y-249612500D03*
X431906250Y-250512500D03*
%TO.P,MX87,2,ROW*%
%TO.N,Net-(D87-Pad2)*%
X416276250Y-251992500D03*
X416276250Y-253792500D03*
X418056250Y-253012500D03*
X416276250Y-252892500D03*
X418056250Y-253912500D03*
X418056250Y-252112500D03*
%TD*%
%TO.P,MX5,1,COL*%
%TO.N,COL0*%
X110437500Y-250512500D03*
X108537500Y-251412500D03*
X110437500Y-251412500D03*
X108537500Y-250512500D03*
X108537500Y-249612500D03*
X110437500Y-249612500D03*
%TO.P,MX5,2,ROW*%
%TO.N,Net-(D5-Pad2)*%
X96587500Y-253912500D03*
X94807500Y-251992500D03*
X94807500Y-252892500D03*
X94807500Y-253792500D03*
X96587500Y-252112500D03*
X96587500Y-253012500D03*
%TD*%
%TO.P,MX65,1,COL*%
%TO.N,COL10*%
X315706250Y-268662500D03*
X317606250Y-269562500D03*
X315706250Y-269562500D03*
X315706250Y-270462500D03*
X317606250Y-270462500D03*
X317606250Y-268662500D03*
%TO.P,MX65,2,ROW*%
%TO.N,Net-(D65-Pad2)*%
X303756250Y-272962500D03*
X303756250Y-272062500D03*
X301976250Y-271942500D03*
X301976250Y-272842500D03*
X303756250Y-271162500D03*
X301976250Y-271042500D03*
%TD*%
%TO.P,MX10,1,COL*%
%TO.N,COL1*%
X131868750Y-251412500D03*
X129968750Y-250512500D03*
X131868750Y-250512500D03*
X131868750Y-249612500D03*
X129968750Y-249612500D03*
X129968750Y-251412500D03*
%TO.P,MX10,2,ROW*%
%TO.N,Net-(D10-Pad2)*%
X116238750Y-253792500D03*
X116238750Y-252892500D03*
X116238750Y-251992500D03*
X118018750Y-253012500D03*
X118018750Y-252112500D03*
X118018750Y-253912500D03*
%TD*%
%TO.P,MX2,1,COL*%
%TO.N,COL0*%
X106156250Y-192462500D03*
X106156250Y-193362500D03*
X108056250Y-193362500D03*
X106156250Y-194262500D03*
X108056250Y-192462500D03*
X108056250Y-194262500D03*
%TO.P,MX2,2,ROW*%
%TO.N,Net-(D2-Pad2)*%
X92426250Y-194842500D03*
X92426250Y-196642500D03*
X92426250Y-195742500D03*
X94206250Y-195862500D03*
X94206250Y-194962500D03*
X94206250Y-196762500D03*
%TD*%
%TO.P,MX8,1,COL*%
%TO.N,COL1*%
X136631250Y-213312500D03*
X134731250Y-211512500D03*
X136631250Y-211512500D03*
X134731250Y-213312500D03*
X136631250Y-212412500D03*
X134731250Y-212412500D03*
%TO.P,MX8,2,ROW*%
%TO.N,Net-(D8-Pad2)*%
X121001250Y-215692500D03*
X121001250Y-213892500D03*
X121001250Y-214792500D03*
X122781250Y-214012500D03*
X122781250Y-214912500D03*
X122781250Y-215812500D03*
%TD*%
%TO.P,MX4,1,COL*%
%TO.N,COL0*%
X113300000Y-230562500D03*
X113300000Y-232362500D03*
X115200000Y-232362500D03*
X115200000Y-230562500D03*
X115200000Y-231462500D03*
X113300000Y-231462500D03*
%TO.P,MX4,2,ROW*%
%TO.N,Net-(D4-Pad2)*%
X101350000Y-233962500D03*
X99570000Y-234742500D03*
X101350000Y-233062500D03*
X99570000Y-232942500D03*
X99570000Y-233842500D03*
X101350000Y-234862500D03*
%TD*%
%TO.P,MX82,1,COL*%
%TO.N,COL14*%
X401431250Y-230562500D03*
X403331250Y-231462500D03*
X401431250Y-231462500D03*
X403331250Y-232362500D03*
X403331250Y-230562500D03*
X401431250Y-232362500D03*
%TO.P,MX82,2,ROW*%
%TO.N,Net-(D82-Pad2)*%
X389481250Y-234862500D03*
X387701250Y-233842500D03*
X387701250Y-234742500D03*
X387701250Y-232942500D03*
X389481250Y-233062500D03*
X389481250Y-233962500D03*
%TD*%
D21*
%TO.P,J1,S1,SHIELD*%
%TO.N,GND*%
X115536250Y-164843750D03*
D22*
X115536250Y-169023750D03*
X124176250Y-169023750D03*
D21*
X124176250Y-164843750D03*
%TD*%
D23*
%TO.N,GND*%
X478800000Y-218800000D03*
X441000000Y-208600000D03*
X452400000Y-265800000D03*
X453400000Y-199200000D03*
X406600000Y-267000000D03*
X478200000Y-256800000D03*
X448800000Y-190800000D03*
X455200000Y-265800000D03*
X451680750Y-199200000D03*
X471600000Y-238200000D03*
X481600000Y-256600000D03*
X454800000Y-190758479D03*
X466400000Y-165400000D03*
X481400000Y-218800000D03*
X445800000Y-208600000D03*
X420600000Y-178000000D03*
X406600000Y-247200000D03*
X442600000Y-169200000D03*
X406200000Y-190800000D03*
X404600000Y-208600000D03*
X295600000Y-278200000D03*
X471600000Y-232600000D03*
X281400000Y-265600000D03*
X406600000Y-228000000D03*
%TO.N,+5V*%
X95600000Y-207400000D03*
X257400000Y-226200000D03*
X153200000Y-180800000D03*
X407000000Y-187000000D03*
X287800000Y-207400000D03*
X360400000Y-233200000D03*
X128800000Y-245400000D03*
X219800000Y-180800000D03*
X347800000Y-285400000D03*
X128800000Y-242600000D03*
X466600000Y-247400000D03*
X137600000Y-264800000D03*
X124000000Y-280800000D03*
X145600000Y-280800000D03*
X176800000Y-264800000D03*
X441000000Y-207000000D03*
X324400000Y-280800000D03*
X152200000Y-207400000D03*
X172200000Y-180800000D03*
X390800000Y-245400000D03*
X191400000Y-184600000D03*
X419400000Y-245400000D03*
X162400000Y-226200000D03*
X367400000Y-266600000D03*
X124000000Y-287000000D03*
X266600000Y-204600000D03*
X200600000Y-223600000D03*
X333800000Y-226200000D03*
X324200000Y-184600000D03*
X336000000Y-261600000D03*
X219400000Y-226200000D03*
X281000000Y-242600000D03*
X257400000Y-223600000D03*
X98000000Y-184600000D03*
X238800000Y-184600000D03*
X102400000Y-242600000D03*
X304800000Y-280800000D03*
X213200000Y-207400000D03*
X356600000Y-245400000D03*
X133600000Y-204600000D03*
X243400000Y-242600000D03*
X284000000Y-280400000D03*
X391000000Y-226000000D03*
X132800000Y-181000000D03*
X310400000Y-264800000D03*
X352800000Y-209400000D03*
X338400000Y-245400000D03*
X410200000Y-187000000D03*
X405800000Y-207000000D03*
X205400000Y-245400000D03*
X238600000Y-226200000D03*
X271400000Y-261800000D03*
X102400000Y-245400000D03*
X200600000Y-226200000D03*
X428600000Y-287200000D03*
X180600000Y-226200000D03*
X333800000Y-223600000D03*
X362800000Y-180800000D03*
X295800000Y-223800000D03*
X253000000Y-261600000D03*
X391000000Y-223800000D03*
X137600000Y-261600000D03*
X167000000Y-242600000D03*
X324200000Y-180800000D03*
X323800000Y-204600000D03*
X195600000Y-261800000D03*
X257800000Y-180800000D03*
X276800000Y-223800000D03*
X247800000Y-204600000D03*
X457200000Y-207000000D03*
X148000000Y-242600000D03*
X428600000Y-280800000D03*
X281000000Y-245400000D03*
X290200000Y-261800000D03*
X172400000Y-204600000D03*
X148000000Y-245400000D03*
X306600000Y-207400000D03*
X190400000Y-207400000D03*
X347800000Y-287800000D03*
X390800000Y-265000000D03*
X452400000Y-264200000D03*
X300400000Y-245400000D03*
X438400000Y-223400000D03*
X305400000Y-180800000D03*
X143800000Y-223600000D03*
X127800000Y-177600000D03*
X262200000Y-245400000D03*
X95400000Y-181600000D03*
X304800000Y-287000000D03*
X172200000Y-184600000D03*
X100200000Y-280800000D03*
X195600000Y-264800000D03*
X271400000Y-264800000D03*
X167000000Y-245400000D03*
X385600000Y-285600000D03*
X234000000Y-264800000D03*
X420200000Y-204600000D03*
X186200000Y-245400000D03*
X472200000Y-227400000D03*
X305400000Y-184600000D03*
X362800000Y-184600000D03*
X457400000Y-280600000D03*
X388000000Y-184600000D03*
X286000000Y-204600000D03*
X353200000Y-204600000D03*
X473000000Y-247400000D03*
X393281250Y-183881250D03*
X419200000Y-261600000D03*
X406600000Y-265000000D03*
X343600000Y-180800000D03*
X457400000Y-287200000D03*
X238600000Y-223600000D03*
X186200000Y-242600000D03*
X123600000Y-226200000D03*
X268600000Y-207400000D03*
X253000000Y-264800000D03*
X180800000Y-223600000D03*
X157200000Y-264800000D03*
X419400000Y-223400000D03*
X257800000Y-184600000D03*
X305000000Y-204600000D03*
X319000000Y-245400000D03*
X175200000Y-207400000D03*
X438400000Y-226000000D03*
X119200000Y-264800000D03*
X343600000Y-184600000D03*
X218200000Y-280800000D03*
X390800000Y-207000000D03*
X286000000Y-287000000D03*
X276800000Y-180800000D03*
X385600000Y-287800000D03*
X300400000Y-242600000D03*
X325400000Y-207400000D03*
X97800000Y-261800000D03*
X310400000Y-261800000D03*
X249600000Y-207400000D03*
X419400000Y-242800000D03*
X276800000Y-184600000D03*
X390800000Y-204600000D03*
X210600000Y-204600000D03*
X218200000Y-287000000D03*
X262200000Y-242600000D03*
X132800000Y-184600000D03*
X457200000Y-204400000D03*
X390800000Y-261800000D03*
X234000000Y-261800000D03*
X100200000Y-223600000D03*
X133600000Y-207400000D03*
X324400000Y-287000000D03*
X408600000Y-187000000D03*
X153200000Y-184600000D03*
X119200000Y-261600000D03*
X228000000Y-204600000D03*
X390800000Y-242800000D03*
X420200000Y-180000000D03*
X367200000Y-287800000D03*
X314800000Y-223600000D03*
X224200000Y-242600000D03*
X413400000Y-187000000D03*
X420200000Y-207000000D03*
X224200000Y-245400000D03*
X152200000Y-204600000D03*
X405500000Y-286700000D03*
X335800000Y-265600000D03*
X367400000Y-270200000D03*
X406600000Y-245400000D03*
X100200000Y-226200000D03*
X219800000Y-184600000D03*
X145600000Y-287000000D03*
X367200000Y-285600000D03*
X314800000Y-226200000D03*
X295800000Y-226200000D03*
X113800000Y-204600000D03*
X463000000Y-247400000D03*
X290200000Y-264800000D03*
X143800000Y-226200000D03*
X214400000Y-264800000D03*
X100200000Y-287000000D03*
X419200000Y-265000000D03*
X446400000Y-207000000D03*
X406600000Y-226000000D03*
X338400000Y-242600000D03*
X190400000Y-204400000D03*
X319000000Y-242600000D03*
X95600000Y-204600000D03*
X243400000Y-245400000D03*
X468800000Y-247400000D03*
X219400000Y-223600000D03*
X157200000Y-261800000D03*
X123600000Y-223800000D03*
X276800000Y-226200000D03*
X411800000Y-187000000D03*
X176800000Y-261800000D03*
X238800000Y-180800000D03*
X205400000Y-242600000D03*
X476000000Y-229200000D03*
X228000000Y-207400000D03*
X162400000Y-223600000D03*
X191400000Y-180800000D03*
X214400000Y-261800000D03*
X113800000Y-207400000D03*
X455200000Y-264200000D03*
X97800000Y-264800000D03*
X419400000Y-226000000D03*
%TO.N,Net-(C8-Pad1)*%
X439200000Y-184400000D03*
X444412299Y-183412299D03*
%TO.N,D+*%
X120600000Y-173400000D03*
X423400000Y-170200000D03*
X433600000Y-186000000D03*
%TO.N,D-*%
X119400000Y-172000000D03*
X431600000Y-184200000D03*
X424600000Y-170200000D03*
%TO.N,Net-(R3-Pad1)*%
X442422904Y-181822904D03*
X435200000Y-180600000D03*
%TO.N,Net-(R4-Pad1)*%
X437400000Y-182547404D03*
X443600000Y-181800000D03*
%TO.N,Net-(R6-Pad2)*%
X458663791Y-186736209D03*
X481200000Y-188800000D03*
%TO.N,/LED*%
X152400000Y-254000000D03*
X112712500Y-242887500D03*
X421894000Y-257048000D03*
X467360000Y-223647000D03*
X181768750Y-180181250D03*
X291465000Y-242443000D03*
X259600000Y-218600000D03*
X277114000Y-204089000D03*
X348361000Y-241935000D03*
X215900000Y-242887500D03*
X324400000Y-178943000D03*
X143668750Y-180181250D03*
X103187500Y-219075000D03*
X227843250Y-257175000D03*
X191293750Y-223043750D03*
X161131250Y-276225000D03*
X154781250Y-199231250D03*
X421894000Y-237109000D03*
X254889000Y-256286000D03*
X343800000Y-178800000D03*
X393192000Y-238252000D03*
X297942000Y-218440000D03*
X150018750Y-236537500D03*
X393319000Y-256540000D03*
X267500000Y-180300000D03*
X238918750Y-203993750D03*
X162718750Y-203993750D03*
X230187500Y-280193750D03*
X210343750Y-223043750D03*
X285242000Y-261112000D03*
X207168750Y-237331250D03*
X223080750Y-200818750D03*
X258200000Y-204000000D03*
X321818000Y-237490000D03*
X133000000Y-254800000D03*
X325374000Y-257683000D03*
X448437000Y-223520000D03*
X105568750Y-204787500D03*
X267600000Y-223100000D03*
X336042000Y-218694000D03*
X431419000Y-275463000D03*
X334264000Y-204216000D03*
X334137000Y-180340000D03*
X272542000Y-242062000D03*
X230981250Y-199231250D03*
X307213000Y-199136000D03*
X400558000Y-242316000D03*
X245268750Y-237331250D03*
X277000000Y-179000000D03*
X320167000Y-261239000D03*
X467360000Y-204343000D03*
X312293000Y-256794000D03*
X97631250Y-200025000D03*
X358775000Y-272034000D03*
X234950000Y-242887500D03*
X279019000Y-218313000D03*
X400812000Y-180721000D03*
X346202000Y-262128000D03*
X302387000Y-237744000D03*
X457200000Y-202692000D03*
X269494000Y-199263000D03*
X153193750Y-223043750D03*
X429387000Y-261493000D03*
X372364000Y-180467000D03*
X440944000Y-237363000D03*
X274447000Y-256540000D03*
X457327000Y-278638000D03*
X115200000Y-203400000D03*
X291600000Y-266400000D03*
X315722000Y-280416000D03*
X400939000Y-204343000D03*
X400558000Y-223393000D03*
X286639000Y-223266000D03*
X181768750Y-203993750D03*
X126206250Y-275431250D03*
X221456250Y-218281250D03*
X257600000Y-178800000D03*
X288544000Y-199517000D03*
X114300000Y-278606250D03*
X316865000Y-218694000D03*
X170656250Y-256381250D03*
X171450000Y-178593750D03*
X468165326Y-279316326D03*
X326263000Y-199771000D03*
X343662000Y-223266000D03*
X467868000Y-261620000D03*
X439166000Y-280543000D03*
X310261000Y-242316000D03*
X476123000Y-202819000D03*
X362839000Y-204851000D03*
X338582000Y-256667000D03*
X292989000Y-256159000D03*
X312166000Y-276987000D03*
X448945000Y-262001000D03*
X229393750Y-180181250D03*
X301244000Y-261620000D03*
X353187000Y-180340000D03*
X169068750Y-238125000D03*
X309245000Y-266109875D03*
X235743750Y-256381250D03*
X391200000Y-178816000D03*
X173831250Y-199231250D03*
X323850000Y-259207000D03*
X458235674Y-240557674D03*
X324739000Y-223266000D03*
X355219000Y-199517000D03*
X459994000Y-218694000D03*
X286385000Y-180340000D03*
X404241000Y-261620000D03*
X224631250Y-261143750D03*
X253206250Y-242093750D03*
X296037000Y-204089000D03*
X102393750Y-275431250D03*
X329438000Y-242316000D03*
X393319000Y-218440000D03*
X138906250Y-276225000D03*
X305600000Y-178800000D03*
X183356250Y-218281250D03*
X370205000Y-233172000D03*
X315214000Y-203962000D03*
X429514000Y-223393000D03*
X138906250Y-242887500D03*
X429387000Y-204470000D03*
X200818750Y-203993750D03*
X145256250Y-218281250D03*
X129381250Y-261937500D03*
X264600000Y-238000000D03*
X148431250Y-261143750D03*
X143668750Y-203993750D03*
X192881250Y-199231250D03*
X340995000Y-237363000D03*
X126206250Y-218281250D03*
X172243750Y-223043750D03*
X157956250Y-242093750D03*
X138906250Y-191293750D03*
X209550000Y-257968750D03*
X219868750Y-203993750D03*
X266065000Y-260985000D03*
X415200000Y-211400000D03*
X104775000Y-238125000D03*
X315341000Y-180467000D03*
X360807000Y-282575000D03*
X385826000Y-283464000D03*
X218281250Y-278606250D03*
X164306250Y-257968750D03*
X248443750Y-180181250D03*
X208793250Y-255600000D03*
X377190000Y-266319000D03*
X247100000Y-260500000D03*
X366649000Y-265430000D03*
X406800000Y-211400000D03*
X396113000Y-285242000D03*
X438023000Y-202819000D03*
X147637500Y-276225000D03*
X377825000Y-285242000D03*
X188118750Y-238125000D03*
X110331250Y-223837500D03*
X162718750Y-180181250D03*
X195834000Y-242062000D03*
X130968750Y-237331250D03*
X238800000Y-178800000D03*
X305562000Y-223139000D03*
X219800000Y-178800000D03*
X100012500Y-256381250D03*
X429514000Y-242443000D03*
X362204000Y-227965000D03*
X124618750Y-204787500D03*
X133600000Y-178800000D03*
X248443750Y-223043750D03*
X250100000Y-198900000D03*
X152400000Y-178800000D03*
X226218750Y-238125000D03*
X187325000Y-259556250D03*
X421894000Y-217932000D03*
X283718000Y-236982000D03*
X393319000Y-198882000D03*
X326390000Y-275590000D03*
X164306250Y-217487500D03*
X363000000Y-178816000D03*
X191000000Y-178800000D03*
X240506250Y-219075000D03*
X107950000Y-261937500D03*
X105568750Y-180975000D03*
X359029000Y-277495000D03*
X134143750Y-223837500D03*
X200818750Y-180181250D03*
X178593750Y-242887500D03*
X202406250Y-218281250D03*
X178593750Y-256381250D03*
X229393750Y-223043750D03*
X419354000Y-202565000D03*
X369443000Y-280289000D03*
%TD*%
D24*
%TO.N,GND*%
X281400000Y-266600000D02*
X281400000Y-265600000D01*
X448800000Y-190800000D02*
X454758479Y-190800000D01*
X444109573Y-174444733D02*
X446132420Y-176467580D01*
X444109573Y-174444733D02*
X444044733Y-174444733D01*
X417400000Y-178000000D02*
X419800000Y-178000000D01*
X478800000Y-218800000D02*
X481400000Y-218800000D01*
X411200000Y-185800000D02*
X411000000Y-186000000D01*
X284400000Y-269600000D02*
X281400000Y-266600000D01*
X447139454Y-179475869D02*
X446372314Y-180243009D01*
X487378858Y-169423223D02*
X487066982Y-169735099D01*
X446132420Y-176467580D02*
X450250045Y-172349955D01*
X446372314Y-180243009D02*
X446372314Y-180427686D01*
X442600000Y-169800000D02*
X441471751Y-170928249D01*
X414000000Y-178000000D02*
X415800000Y-178000000D01*
X466400000Y-165400000D02*
X479056498Y-165400000D01*
X462506498Y-185150000D02*
X472500000Y-185150000D01*
X484662820Y-169735099D02*
X484621142Y-169776777D01*
X288200000Y-269600000D02*
X284400000Y-269600000D01*
X478200000Y-256800000D02*
X481400000Y-256800000D01*
X446855933Y-179759390D02*
X446372314Y-180243009D01*
X461528249Y-186128249D02*
X460318572Y-186128249D01*
X411000000Y-187600000D02*
X411000000Y-242800000D01*
X446128249Y-166671751D02*
X447650299Y-166671751D01*
X444109573Y-174444733D02*
X441471751Y-171806911D01*
X406200000Y-185800000D02*
X414000000Y-178000000D01*
X453949713Y-179759390D02*
X446855933Y-179759390D01*
X406200000Y-190800000D02*
X406200000Y-185800000D01*
X441471751Y-171806911D02*
X441471751Y-170928249D01*
X442600000Y-169200000D02*
X442600000Y-169800000D01*
X447139454Y-177474614D02*
X447139454Y-179475869D01*
X461528249Y-186128249D02*
X462506498Y-185150000D01*
X411000000Y-242800000D02*
X406600000Y-247200000D01*
X446372314Y-180243009D02*
X446356991Y-180243009D01*
X460318572Y-186128249D02*
X457261759Y-183071436D01*
X487066982Y-169735099D02*
X484662820Y-169735099D01*
X457261759Y-183071436D02*
X457271436Y-183071436D01*
X415800000Y-178000000D02*
X417400000Y-178000000D01*
X407800000Y-206400000D02*
X405600000Y-208600000D01*
X419800000Y-178000000D02*
X420600000Y-178000000D01*
X297611671Y-274011671D02*
X295400000Y-271800000D01*
X466400000Y-165400000D02*
X466245235Y-165554765D01*
X419800000Y-178000000D02*
X419000000Y-178000000D01*
X419000000Y-178000000D02*
X411200000Y-185800000D01*
X454758479Y-190800000D02*
X454800000Y-190758479D01*
X415800000Y-178000000D02*
X407800000Y-186000000D01*
X297611671Y-276188329D02*
X297611671Y-274011671D01*
X453400000Y-199200000D02*
X451680750Y-199200000D01*
X471600000Y-232600000D02*
X471600000Y-238200000D01*
X406600000Y-267000000D02*
X412600000Y-261000000D01*
X409400000Y-186000000D02*
X409400000Y-225200000D01*
X290400000Y-271800000D02*
X288200000Y-269600000D01*
X481400000Y-256800000D02*
X481600000Y-256600000D01*
X479056498Y-165400000D02*
X481928249Y-168271751D01*
X441000000Y-208600000D02*
X445800000Y-208600000D01*
X446132420Y-176467580D02*
X447139454Y-177474614D01*
X450250045Y-172349955D02*
X450250045Y-169271497D01*
X295600000Y-278200000D02*
X297611671Y-276188329D01*
X412600000Y-186000000D02*
X420600000Y-178000000D01*
X450250045Y-169271497D02*
X449766427Y-168787879D01*
X412600000Y-261000000D02*
X412600000Y-186000000D01*
X447650299Y-166671751D02*
X449766427Y-168787879D01*
X405600000Y-208600000D02*
X404600000Y-208600000D01*
X295400000Y-271800000D02*
X290400000Y-271800000D01*
X411000000Y-186000000D02*
X411000000Y-187600000D01*
X489200000Y-171600000D02*
X489200000Y-171244365D01*
X452400000Y-265800000D02*
X455200000Y-265800000D01*
X457261759Y-183071436D02*
X453949713Y-179759390D01*
X446372314Y-180427686D02*
X441871751Y-184928249D01*
X488671751Y-172128249D02*
X489200000Y-171600000D01*
X409400000Y-225200000D02*
X406600000Y-228000000D01*
X417400000Y-178000000D02*
X409400000Y-186000000D01*
X407800000Y-186000000D02*
X407800000Y-206400000D01*
X489200000Y-171244365D02*
X487378858Y-169423223D01*
X466245235Y-165554765D02*
X461045235Y-165554765D01*
X411000000Y-187600000D02*
X411000000Y-187800000D01*
%TO.N,+5V*%
X462871751Y-187471751D02*
X460530703Y-187471751D01*
X420200000Y-181600000D02*
X420200000Y-180000000D01*
X408600000Y-224000000D02*
X406600000Y-226000000D01*
X113800000Y-207400000D02*
X113800000Y-204600000D01*
X310400000Y-264800000D02*
X310400000Y-261800000D01*
X238800000Y-184600000D02*
X238800000Y-180800000D01*
X390800000Y-207000000D02*
X390800000Y-204600000D01*
X457400000Y-287200000D02*
X457400000Y-280600000D01*
X162400000Y-226200000D02*
X162400000Y-223600000D01*
X268600000Y-206600000D02*
X266600000Y-204600000D01*
X419200000Y-265000000D02*
X419200000Y-261600000D01*
X100200000Y-287000000D02*
X100200000Y-280800000D01*
X228000000Y-207400000D02*
X228000000Y-204600000D01*
X300400000Y-245400000D02*
X300400000Y-242600000D01*
X325400000Y-206200000D02*
X323800000Y-204600000D01*
X276800000Y-226200000D02*
X276800000Y-223800000D01*
X175200000Y-207400000D02*
X172400000Y-204600000D01*
X304800000Y-287000000D02*
X304800000Y-280800000D01*
X205400000Y-245400000D02*
X205400000Y-242600000D01*
X388400000Y-184600000D02*
X388000000Y-184600000D01*
X335800000Y-265600000D02*
X335800000Y-261800000D01*
X95600000Y-207400000D02*
X95600000Y-204600000D01*
X466600000Y-247400000D02*
X463000000Y-247400000D01*
X319000000Y-245400000D02*
X319000000Y-242600000D01*
X360400000Y-241600000D02*
X360400000Y-233200000D01*
X438600000Y-188200000D02*
X426800000Y-188200000D01*
X410200000Y-208400000D02*
X410200000Y-208600000D01*
X367400000Y-270200000D02*
X367400000Y-266600000D01*
X123600000Y-226200000D02*
X123600000Y-223800000D01*
X133600000Y-207400000D02*
X133600000Y-204600000D01*
X132800000Y-184600000D02*
X132800000Y-181000000D01*
X457200000Y-207000000D02*
X457200000Y-204400000D01*
X352800000Y-209400000D02*
X352800000Y-205000000D01*
X444471751Y-165328249D02*
X439600000Y-170200000D01*
X98000000Y-184600000D02*
X95400000Y-182000000D01*
X95400000Y-182000000D02*
X95400000Y-181600000D01*
X419400000Y-226000000D02*
X419400000Y-223400000D01*
X157200000Y-264800000D02*
X157200000Y-261800000D01*
X262200000Y-245400000D02*
X262200000Y-242600000D01*
X472200000Y-227400000D02*
X474200000Y-227400000D01*
X439600000Y-171743502D02*
X440128249Y-172271751D01*
X97800000Y-264800000D02*
X97800000Y-261800000D01*
X234000000Y-264800000D02*
X234000000Y-261800000D01*
X333800000Y-226200000D02*
X333800000Y-223600000D01*
X100200000Y-226200000D02*
X100200000Y-223600000D01*
X473000000Y-247400000D02*
X468800000Y-247400000D01*
X218200000Y-287000000D02*
X218200000Y-280800000D01*
X390800000Y-265000000D02*
X390800000Y-261800000D01*
X180600000Y-226200000D02*
X180600000Y-223800000D01*
X130400000Y-165600000D02*
X127800000Y-168200000D01*
X286000000Y-287000000D02*
X284000000Y-285000000D01*
X428600000Y-287200000D02*
X428600000Y-280800000D01*
X119200000Y-264800000D02*
X119200000Y-261600000D01*
X219800000Y-184600000D02*
X219800000Y-180800000D01*
X338400000Y-245400000D02*
X338400000Y-242600000D01*
X306600000Y-206200000D02*
X305000000Y-204600000D01*
X145600000Y-287000000D02*
X145600000Y-280800000D01*
X420200000Y-207000000D02*
X420200000Y-204600000D01*
X443543887Y-175010418D02*
X442866916Y-175010418D01*
X416800000Y-165600000D02*
X423471751Y-172271751D01*
X447471751Y-165328249D02*
X444471751Y-165328249D01*
X210600000Y-204800000D02*
X210600000Y-204600000D01*
X324200000Y-184600000D02*
X324200000Y-180800000D01*
X253000000Y-264800000D02*
X253000000Y-261600000D01*
X137600000Y-264800000D02*
X137600000Y-261600000D01*
X474200000Y-227400000D02*
X476000000Y-229200000D01*
X406200000Y-207000000D02*
X405800000Y-207000000D01*
X440528249Y-186271751D02*
X444256498Y-190000000D01*
X413400000Y-187000000D02*
X413400000Y-209200000D01*
X410200000Y-241800000D02*
X406600000Y-245400000D01*
X440528249Y-182692961D02*
X444675258Y-178545952D01*
X343600000Y-184600000D02*
X343600000Y-180800000D01*
X439600000Y-170200000D02*
X439600000Y-171743502D01*
X153200000Y-184600000D02*
X153200000Y-180800000D01*
X305400000Y-184600000D02*
X305400000Y-180800000D01*
X414200000Y-165600000D02*
X130400000Y-165600000D01*
X191400000Y-184600000D02*
X191400000Y-180800000D01*
X213200000Y-207400000D02*
X210600000Y-204800000D01*
X102400000Y-245400000D02*
X102400000Y-242600000D01*
X124000000Y-287000000D02*
X124000000Y-280800000D01*
X249600000Y-207400000D02*
X249600000Y-206400000D01*
X456696073Y-183637121D02*
X456621407Y-183637121D01*
X391000000Y-226000000D02*
X391000000Y-223800000D01*
X128800000Y-245400000D02*
X128800000Y-242600000D01*
X440528249Y-186271751D02*
X442606315Y-186271751D01*
X450332112Y-168222193D02*
X450332112Y-168188610D01*
X290200000Y-264800000D02*
X290200000Y-261800000D01*
X406600000Y-285600000D02*
X405500000Y-286700000D01*
X452400000Y-264200000D02*
X455200000Y-264200000D01*
X419400000Y-245400000D02*
X419400000Y-242800000D01*
X352800000Y-205000000D02*
X353200000Y-204600000D01*
X268600000Y-207400000D02*
X268600000Y-206600000D01*
X286000000Y-205600000D02*
X286000000Y-204600000D01*
X407000000Y-187000000D02*
X407000000Y-206200000D01*
X287800000Y-207400000D02*
X286000000Y-205600000D01*
X276800000Y-184600000D02*
X276800000Y-180800000D01*
X224200000Y-245400000D02*
X224200000Y-242600000D01*
X172200000Y-184600000D02*
X172200000Y-180800000D01*
X440128249Y-185871751D02*
X440528249Y-186271751D01*
X249600000Y-206400000D02*
X247800000Y-204600000D01*
X462818719Y-187471751D02*
X460845235Y-189445235D01*
X413400000Y-213800000D02*
X413400000Y-214000000D01*
X238600000Y-226200000D02*
X238600000Y-223600000D01*
X219400000Y-226200000D02*
X219400000Y-223600000D01*
X176800000Y-264800000D02*
X176800000Y-261800000D01*
X413400000Y-278800000D02*
X406600000Y-285600000D01*
X362800000Y-184600000D02*
X362800000Y-180800000D01*
X347800000Y-287800000D02*
X347800000Y-285400000D01*
X410200000Y-208400000D02*
X410200000Y-241800000D01*
X442866916Y-175010418D02*
X440128249Y-172271751D01*
X167000000Y-245400000D02*
X167000000Y-242600000D01*
X356600000Y-245400000D02*
X360400000Y-241600000D01*
X295800000Y-226200000D02*
X295800000Y-223800000D01*
X190400000Y-207400000D02*
X190400000Y-204400000D01*
X200600000Y-226200000D02*
X200600000Y-223600000D01*
X324400000Y-287000000D02*
X324400000Y-280800000D01*
X460290470Y-190000000D02*
X460845235Y-189445235D01*
X410200000Y-187000000D02*
X410200000Y-208400000D01*
X426800000Y-188200000D02*
X420200000Y-181600000D01*
X443543887Y-174943887D02*
X443543887Y-175010418D01*
X180600000Y-223800000D02*
X180800000Y-223600000D01*
X414200000Y-165600000D02*
X416800000Y-165600000D01*
X440528249Y-186271751D02*
X440528249Y-182692961D01*
X367200000Y-287800000D02*
X367200000Y-285600000D01*
X325400000Y-207400000D02*
X325400000Y-206200000D01*
X438400000Y-226000000D02*
X438400000Y-223400000D01*
X214400000Y-264800000D02*
X214400000Y-261800000D01*
X444839033Y-184039033D02*
X447503685Y-181374380D01*
X411800000Y-259800000D02*
X406600000Y-265000000D01*
X460530703Y-187471751D02*
X456696073Y-183637121D01*
X411800000Y-187000000D02*
X411800000Y-259800000D01*
X281000000Y-245400000D02*
X281000000Y-242600000D01*
X423471751Y-172271751D02*
X440128249Y-172271751D01*
X284000000Y-285000000D02*
X284000000Y-280400000D01*
X392562500Y-184600000D02*
X388400000Y-184600000D01*
X148000000Y-245400000D02*
X148000000Y-242600000D01*
X306600000Y-207400000D02*
X306600000Y-206200000D01*
X257800000Y-184600000D02*
X257800000Y-180800000D01*
X143800000Y-226200000D02*
X143800000Y-223600000D01*
X444256498Y-190000000D02*
X460290470Y-190000000D01*
X127800000Y-168200000D02*
X127800000Y-177600000D01*
X186200000Y-245400000D02*
X186200000Y-242600000D01*
X413400000Y-213800000D02*
X413400000Y-278800000D01*
X444606314Y-184271751D02*
X444839033Y-184039033D01*
X441000000Y-207000000D02*
X446400000Y-207000000D01*
X407000000Y-206200000D02*
X406200000Y-207000000D01*
X390800000Y-245400000D02*
X390800000Y-242800000D01*
X385600000Y-287800000D02*
X385600000Y-285600000D01*
X440128249Y-172271751D02*
X440128249Y-185871751D01*
X335800000Y-261800000D02*
X336000000Y-261600000D01*
X408600000Y-187000000D02*
X408600000Y-224000000D01*
X440528249Y-186271751D02*
X438600000Y-188200000D01*
X152200000Y-207400000D02*
X152200000Y-204600000D01*
X450332112Y-168222193D02*
X450815731Y-168705812D01*
X462871751Y-187471751D02*
X462818719Y-187471751D01*
X442606315Y-186271751D02*
X444839033Y-184039033D01*
X271400000Y-264800000D02*
X271400000Y-261800000D01*
X450332112Y-168188610D02*
X447471751Y-165328249D01*
X445158877Y-178062333D02*
X444675258Y-178545952D01*
X413400000Y-209200000D02*
X413400000Y-209400000D01*
X243400000Y-245400000D02*
X243400000Y-242600000D01*
X195600000Y-264800000D02*
X195600000Y-261800000D01*
X257400000Y-226200000D02*
X257400000Y-223600000D01*
X393281250Y-183881250D02*
X392562500Y-184600000D01*
X413400000Y-209200000D02*
X413400000Y-213800000D01*
X314800000Y-226200000D02*
X314800000Y-223600000D01*
%TO.N,Net-(C5-Pad1)*%
X484178858Y-168221142D02*
X486176777Y-168221142D01*
X458393130Y-181940065D02*
X460053065Y-183600000D01*
X460053065Y-183600000D02*
X472200000Y-183600000D01*
X472200000Y-183600000D02*
X482800000Y-173000000D01*
X486176777Y-168221142D02*
X484555635Y-166600000D01*
X482800000Y-169600000D02*
X484178858Y-168221142D01*
X484555635Y-166600000D02*
X483600000Y-166600000D01*
X482800000Y-173000000D02*
X482800000Y-169600000D01*
X483600000Y-166600000D02*
X483271751Y-166928249D01*
%TO.N,Net-(C6-Pad1)*%
X483800000Y-173000000D02*
X472560847Y-184239153D01*
X459560847Y-184239153D02*
X457827444Y-182505750D01*
X487328249Y-173471751D02*
X485823223Y-171966725D01*
X485823223Y-171966725D02*
X485823223Y-170978858D01*
X485823223Y-170978858D02*
X483802081Y-173000000D01*
X483802081Y-173000000D02*
X483800000Y-173000000D01*
X472560847Y-184239153D02*
X459560847Y-184239153D01*
%TO.N,Net-(C8-Pad1)*%
X438271751Y-185328249D02*
X439200000Y-184400000D01*
X446938000Y-180886598D02*
X446938000Y-180808694D01*
X444412299Y-183412299D02*
X446938000Y-180886598D01*
%TO.N,Net-(D1-Pad2)*%
X92426250Y-172830000D02*
X94086250Y-172830000D01*
X94086250Y-172830000D02*
X94206250Y-172950000D01*
X94086250Y-171930000D02*
X94206250Y-172050000D01*
X92426250Y-171930000D02*
X94086250Y-171930000D01*
X94086250Y-171030000D02*
X94206250Y-171150000D01*
X94206250Y-171150000D02*
X94206250Y-172950000D01*
X92426250Y-171030000D02*
X94086250Y-171030000D01*
X92426250Y-171030000D02*
X92426250Y-172830000D01*
%TO.N,Net-(D2-Pad2)*%
X94086250Y-194842500D02*
X94206250Y-194962500D01*
X92426250Y-196642500D02*
X94086250Y-196642500D01*
X94206250Y-194962500D02*
X94206250Y-196762500D01*
X92426250Y-195742500D02*
X94086250Y-195742500D01*
X94086250Y-195742500D02*
X94206250Y-195862500D01*
X92426250Y-194842500D02*
X92426250Y-196642500D01*
X92426250Y-194842500D02*
X94086250Y-194842500D01*
X94086250Y-196642500D02*
X94206250Y-196762500D01*
%TO.N,Net-(D3-Pad2)*%
X98848750Y-214792500D02*
X98968750Y-214912500D01*
X98968750Y-214012500D02*
X98968750Y-215812500D01*
X98848750Y-215692500D02*
X98968750Y-215812500D01*
X97188750Y-213892500D02*
X98848750Y-213892500D01*
X97188750Y-213892500D02*
X97188750Y-215692500D01*
X97188750Y-214792500D02*
X98848750Y-214792500D01*
X97188750Y-215692500D02*
X98848750Y-215692500D01*
X98848750Y-213892500D02*
X98968750Y-214012500D01*
%TO.N,Net-(D4-Pad2)*%
X99570000Y-232942500D02*
X101230000Y-232942500D01*
X99570000Y-232942500D02*
X99570000Y-234742500D01*
X99570000Y-234742500D02*
X101230000Y-234742500D01*
X101230000Y-234742500D02*
X101350000Y-234862500D01*
X101230000Y-232942500D02*
X101350000Y-233062500D01*
X99570000Y-233842500D02*
X101230000Y-233842500D01*
X101350000Y-233062500D02*
X101350000Y-234862500D01*
X101230000Y-233842500D02*
X101350000Y-233962500D01*
%TO.N,Net-(D5-Pad2)*%
X96467500Y-251992500D02*
X96587500Y-252112500D01*
X94807500Y-251992500D02*
X94807500Y-253792500D01*
X96467500Y-253792500D02*
X96587500Y-253912500D01*
X94807500Y-251992500D02*
X96467500Y-251992500D01*
X96587500Y-252112500D02*
X96587500Y-253912500D01*
X96467500Y-252892500D02*
X96587500Y-253012500D01*
X94807500Y-253792500D02*
X96467500Y-253792500D01*
X94807500Y-252892500D02*
X96467500Y-252892500D01*
%TO.N,Net-(D6-Pad2)*%
X98848750Y-271042500D02*
X98968750Y-271162500D01*
X97188750Y-271942500D02*
X98848750Y-271942500D01*
X97188750Y-272842500D02*
X98848750Y-272842500D01*
X98848750Y-271942500D02*
X98968750Y-272062500D01*
X97188750Y-271042500D02*
X98848750Y-271042500D01*
X97188750Y-271042500D02*
X97188750Y-272842500D01*
X98968750Y-272962500D02*
X98968750Y-271162500D01*
X98848750Y-272842500D02*
X98968750Y-272962500D01*
%TO.N,Net-(D7-Pad2)*%
X111476250Y-195742500D02*
X113136250Y-195742500D01*
X113256250Y-194962500D02*
X113256250Y-196762500D01*
X111476250Y-196642500D02*
X113136250Y-196642500D01*
X111476250Y-194842500D02*
X111476250Y-196642500D01*
X113136250Y-194842500D02*
X113256250Y-194962500D01*
X113136250Y-196642500D02*
X113256250Y-196762500D01*
X113136250Y-195742500D02*
X113256250Y-195862500D01*
X111476250Y-194842500D02*
X113136250Y-194842500D01*
%TO.N,Net-(D8-Pad2)*%
X121001250Y-215692500D02*
X122661250Y-215692500D01*
X121001250Y-213892500D02*
X122661250Y-213892500D01*
X121001250Y-213892500D02*
X121001250Y-215692500D01*
X122661250Y-215692500D02*
X122781250Y-215812500D01*
X122661250Y-213892500D02*
X122781250Y-214012500D01*
X122661250Y-214792500D02*
X122781250Y-214912500D01*
X122781250Y-214012500D02*
X122781250Y-215812500D01*
X121001250Y-214792500D02*
X122661250Y-214792500D01*
%TO.N,Net-(D9-Pad2)*%
X125763750Y-233842500D02*
X127423750Y-233842500D01*
X125763750Y-234742500D02*
X127423750Y-234742500D01*
X125763750Y-232942500D02*
X125763750Y-234742500D01*
X125763750Y-232942500D02*
X127423750Y-232942500D01*
X127423750Y-232942500D02*
X127543750Y-233062500D01*
X127423750Y-234742500D02*
X127543750Y-234862500D01*
X127543750Y-233062500D02*
X127543750Y-234862500D01*
X127423750Y-233842500D02*
X127543750Y-233962500D01*
%TO.N,Net-(D10-Pad2)*%
X117898750Y-252892500D02*
X118018750Y-253012500D01*
X116238750Y-253792500D02*
X117898750Y-253792500D01*
X118018750Y-253912500D02*
X118018750Y-252112500D01*
X116238750Y-252892500D02*
X117898750Y-252892500D01*
X116238750Y-251992500D02*
X116238750Y-253792500D01*
X117898750Y-251992500D02*
X118018750Y-252112500D01*
X117898750Y-253792500D02*
X118018750Y-253912500D01*
X116238750Y-251992500D02*
X117898750Y-251992500D01*
%TO.N,Net-(D11-Pad2)*%
X121001250Y-271042500D02*
X121001250Y-272842500D01*
X121001250Y-272842500D02*
X122661250Y-272842500D01*
X121001250Y-271942500D02*
X122661250Y-271942500D01*
X122661250Y-271942500D02*
X122781250Y-272062500D01*
X122781250Y-272962500D02*
X122781250Y-271162500D01*
X122661250Y-272842500D02*
X122781250Y-272962500D01*
X121001250Y-271042500D02*
X122661250Y-271042500D01*
X122661250Y-271042500D02*
X122781250Y-271162500D01*
%TO.N,Net-(D12-Pad2)*%
X130526250Y-171930000D02*
X132186250Y-171930000D01*
X130526250Y-171030000D02*
X130526250Y-172830000D01*
X130526250Y-172830000D02*
X132186250Y-172830000D01*
X130526250Y-171030000D02*
X132186250Y-171030000D01*
X132186250Y-172830000D02*
X132306250Y-172950000D01*
X132186250Y-171030000D02*
X132306250Y-171150000D01*
X132306250Y-171150000D02*
X132306250Y-172950000D01*
X132186250Y-171930000D02*
X132306250Y-172050000D01*
%TO.N,Net-(D13-Pad2)*%
X132186250Y-195742500D02*
X132306250Y-195862500D01*
X130526250Y-194842500D02*
X132186250Y-194842500D01*
X132306250Y-194962500D02*
X132306250Y-196762500D01*
X130526250Y-194842500D02*
X130526250Y-196642500D01*
X132186250Y-196642500D02*
X132306250Y-196762500D01*
X130526250Y-196642500D02*
X132186250Y-196642500D01*
X132186250Y-194842500D02*
X132306250Y-194962500D01*
X130526250Y-195742500D02*
X132186250Y-195742500D01*
%TO.N,Net-(D14-Pad2)*%
X140051250Y-215692500D02*
X141711250Y-215692500D01*
X141711250Y-214792500D02*
X141831250Y-214912500D01*
X140051250Y-213892500D02*
X141711250Y-213892500D01*
X141711250Y-215692500D02*
X141831250Y-215812500D01*
X140051250Y-214792500D02*
X141711250Y-214792500D01*
X140051250Y-213892500D02*
X140051250Y-215692500D01*
X141711250Y-213892500D02*
X141831250Y-214012500D01*
X141831250Y-214012500D02*
X141831250Y-215812500D01*
%TO.N,Net-(D15-Pad2)*%
X144813750Y-234742500D02*
X146473750Y-234742500D01*
X146473750Y-233842500D02*
X146593750Y-233962500D01*
X146593750Y-233062500D02*
X146593750Y-234862500D01*
X146473750Y-234742500D02*
X146593750Y-234862500D01*
X146473750Y-232942500D02*
X146593750Y-233062500D01*
X144813750Y-233842500D02*
X146473750Y-233842500D01*
X144813750Y-232942500D02*
X146473750Y-232942500D01*
X144813750Y-232942500D02*
X144813750Y-234742500D01*
%TO.N,Net-(D16-Pad2)*%
X136948750Y-253792500D02*
X137068750Y-253912500D01*
X135288750Y-252892500D02*
X136948750Y-252892500D01*
X135288750Y-253792500D02*
X136948750Y-253792500D01*
X135288750Y-251992500D02*
X135288750Y-253792500D01*
X136948750Y-251992500D02*
X137068750Y-252112500D01*
X135288750Y-251992500D02*
X136948750Y-251992500D01*
X137068750Y-253912500D02*
X137068750Y-252112500D01*
X136948750Y-252892500D02*
X137068750Y-253012500D01*
%TO.N,Net-(D17-Pad2)*%
X144092500Y-272842500D02*
X144212500Y-272962500D01*
X142432500Y-272842500D02*
X144092500Y-272842500D01*
X142432500Y-271042500D02*
X142432500Y-272842500D01*
X142432500Y-271942500D02*
X144092500Y-271942500D01*
X144092500Y-271942500D02*
X144212500Y-272062500D01*
X142432500Y-271042500D02*
X144092500Y-271042500D01*
X144212500Y-271162500D02*
X144212500Y-272962500D01*
X144092500Y-271042500D02*
X144212500Y-271162500D01*
%TO.N,Net-(D18-Pad2)*%
X151236250Y-171030000D02*
X151356250Y-171150000D01*
X151236250Y-171930000D02*
X151356250Y-172050000D01*
X149576250Y-171030000D02*
X149576250Y-172830000D01*
X149576250Y-172830000D02*
X151236250Y-172830000D01*
X149576250Y-171030000D02*
X151236250Y-171030000D01*
X151356250Y-171150000D02*
X151356250Y-172950000D01*
X151236250Y-172830000D02*
X151356250Y-172950000D01*
X149576250Y-171930000D02*
X151236250Y-171930000D01*
%TO.N,Net-(D19-Pad2)*%
X149576250Y-195742500D02*
X151236250Y-195742500D01*
X151236250Y-194842500D02*
X151356250Y-194962500D01*
X149576250Y-194842500D02*
X151236250Y-194842500D01*
X151236250Y-196642500D02*
X151356250Y-196762500D01*
X151356250Y-194962500D02*
X151356250Y-196762500D01*
X149576250Y-194842500D02*
X149576250Y-196642500D01*
X149576250Y-196642500D02*
X151236250Y-196642500D01*
X151236250Y-195742500D02*
X151356250Y-195862500D01*
%TO.N,Net-(D20-Pad2)*%
X159101250Y-214792500D02*
X160761250Y-214792500D01*
X160881250Y-214012500D02*
X160881250Y-215812500D01*
X159101250Y-215692500D02*
X160761250Y-215692500D01*
X159101250Y-213892500D02*
X159101250Y-215692500D01*
X160761250Y-213892500D02*
X160881250Y-214012500D01*
X159101250Y-213892500D02*
X160761250Y-213892500D01*
X160761250Y-215692500D02*
X160881250Y-215812500D01*
X160761250Y-214792500D02*
X160881250Y-214912500D01*
%TO.N,Net-(D21-Pad2)*%
X163863750Y-233842500D02*
X165523750Y-233842500D01*
X165523750Y-234742500D02*
X165643750Y-234862500D01*
X163863750Y-234742500D02*
X165523750Y-234742500D01*
X165643750Y-233062500D02*
X165643750Y-234862500D01*
X163863750Y-232942500D02*
X165523750Y-232942500D01*
X163863750Y-232942500D02*
X163863750Y-234742500D01*
X165523750Y-233842500D02*
X165643750Y-233962500D01*
X165523750Y-232942500D02*
X165643750Y-233062500D01*
%TO.N,Net-(D22-Pad2)*%
X154338750Y-252892500D02*
X155998750Y-252892500D01*
X154338750Y-251992500D02*
X154338750Y-253792500D01*
X155998750Y-253792500D02*
X156118750Y-253912500D01*
X154338750Y-253792500D02*
X155998750Y-253792500D01*
X156118750Y-253912500D02*
X156118750Y-252112500D01*
X155998750Y-252892500D02*
X156118750Y-253012500D01*
X154338750Y-251992500D02*
X155998750Y-251992500D01*
X155998750Y-251992500D02*
X156118750Y-252112500D01*
%TO.N,Net-(D23-Pad2)*%
X168626250Y-172830000D02*
X170286250Y-172830000D01*
X168626250Y-171030000D02*
X168626250Y-172830000D01*
X170286250Y-171030000D02*
X170406250Y-171150000D01*
X170406250Y-171150000D02*
X170406250Y-172950000D01*
X168626250Y-171030000D02*
X170286250Y-171030000D01*
X170286250Y-172830000D02*
X170406250Y-172950000D01*
X168626250Y-171930000D02*
X170286250Y-171930000D01*
X170286250Y-171930000D02*
X170406250Y-172050000D01*
%TO.N,Net-(D24-Pad2)*%
X168626250Y-194842500D02*
X168626250Y-196642500D01*
X168626250Y-195742500D02*
X170286250Y-195742500D01*
X168626250Y-194842500D02*
X170286250Y-194842500D01*
X170286250Y-194842500D02*
X170406250Y-194962500D01*
X168626250Y-196642500D02*
X170286250Y-196642500D01*
X170286250Y-195742500D02*
X170406250Y-195862500D01*
X170406250Y-196762500D02*
X170406250Y-194962500D01*
X170286250Y-196642500D02*
X170406250Y-196762500D01*
%TO.N,Net-(D25-Pad2)*%
X179931250Y-214012500D02*
X179931250Y-215812500D01*
X178151250Y-214792500D02*
X179811250Y-214792500D01*
X179811250Y-214792500D02*
X179931250Y-214912500D01*
X178151250Y-213892500D02*
X179811250Y-213892500D01*
X178151250Y-213892500D02*
X178151250Y-215692500D01*
X179811250Y-213892500D02*
X179931250Y-214012500D01*
X179811250Y-215692500D02*
X179931250Y-215812500D01*
X178151250Y-215692500D02*
X179811250Y-215692500D01*
%TO.N,Net-(D26-Pad2)*%
X182913750Y-232942500D02*
X182913750Y-234742500D01*
X184693750Y-233062500D02*
X184693750Y-234862500D01*
X182913750Y-232942500D02*
X184573750Y-232942500D01*
X182913750Y-233842500D02*
X184573750Y-233842500D01*
X182913750Y-234742500D02*
X184573750Y-234742500D01*
X184573750Y-232942500D02*
X184693750Y-233062500D01*
X184573750Y-233842500D02*
X184693750Y-233962500D01*
X184573750Y-234742500D02*
X184693750Y-234862500D01*
%TO.N,Net-(D27-Pad2)*%
X175048750Y-251992500D02*
X175168750Y-252112500D01*
X175168750Y-252112500D02*
X175168750Y-253912500D01*
X175048750Y-253792500D02*
X175168750Y-253912500D01*
X173388750Y-251992500D02*
X175048750Y-251992500D01*
X173388750Y-252892500D02*
X175048750Y-252892500D01*
X173388750Y-251992500D02*
X173388750Y-253792500D01*
X173388750Y-253792500D02*
X175048750Y-253792500D01*
X175048750Y-252892500D02*
X175168750Y-253012500D01*
%TO.N,Net-(D28-Pad2)*%
X187676250Y-171030000D02*
X189336250Y-171030000D01*
X189336250Y-171930000D02*
X189456250Y-172050000D01*
X187676250Y-171030000D02*
X187676250Y-172830000D01*
X187676250Y-172830000D02*
X189336250Y-172830000D01*
X189336250Y-171030000D02*
X189456250Y-171150000D01*
X189336250Y-172830000D02*
X189456250Y-172950000D01*
X187676250Y-171930000D02*
X189336250Y-171930000D01*
X189456250Y-171150000D02*
X189456250Y-172950000D01*
%TO.N,Net-(D29-Pad2)*%
X189336250Y-194842500D02*
X189456250Y-194962500D01*
X187676250Y-196642500D02*
X189336250Y-196642500D01*
X187676250Y-194842500D02*
X187676250Y-196642500D01*
X187676250Y-194842500D02*
X189336250Y-194842500D01*
X189456250Y-194962500D02*
X189456250Y-196762500D01*
X189336250Y-195742500D02*
X189456250Y-195862500D01*
X189336250Y-196642500D02*
X189456250Y-196762500D01*
X187676250Y-195742500D02*
X189336250Y-195742500D01*
%TO.N,Net-(D30-Pad2)*%
X198981250Y-214012500D02*
X198981250Y-215812500D01*
X197201250Y-215692500D02*
X198861250Y-215692500D01*
X197201250Y-213892500D02*
X198861250Y-213892500D01*
X198861250Y-215692500D02*
X198981250Y-215812500D01*
X197201250Y-213892500D02*
X197201250Y-215692500D01*
X198861250Y-214792500D02*
X198981250Y-214912500D01*
X198861250Y-213892500D02*
X198981250Y-214012500D01*
X197201250Y-214792500D02*
X198861250Y-214792500D01*
%TO.N,Net-(D31-Pad2)*%
X201963750Y-232942500D02*
X203623750Y-232942500D01*
X203623750Y-232942500D02*
X203743750Y-233062500D01*
X201963750Y-234742500D02*
X203623750Y-234742500D01*
X201963750Y-233842500D02*
X203623750Y-233842500D01*
X203743750Y-233062500D02*
X203743750Y-234862500D01*
X203623750Y-234742500D02*
X203743750Y-234862500D01*
X203623750Y-233842500D02*
X203743750Y-233962500D01*
X201963750Y-232942500D02*
X201963750Y-234742500D01*
%TO.N,Net-(D32-Pad2)*%
X192438750Y-253792500D02*
X194098750Y-253792500D01*
X194098750Y-252892500D02*
X194218750Y-253012500D01*
X194098750Y-251992500D02*
X194218750Y-252112500D01*
X192438750Y-251992500D02*
X194098750Y-251992500D01*
X194098750Y-253792500D02*
X194218750Y-253912500D01*
X192438750Y-252892500D02*
X194098750Y-252892500D01*
X194218750Y-252112500D02*
X194218750Y-253912500D01*
X192438750Y-251992500D02*
X192438750Y-253792500D01*
%TO.N,Net-(D33-Pad2)*%
X216251250Y-172830000D02*
X217911250Y-172830000D01*
X216251250Y-171030000D02*
X217911250Y-171030000D01*
X217911250Y-171030000D02*
X218031250Y-171150000D01*
X217911250Y-172830000D02*
X218031250Y-172950000D01*
X217911250Y-171930000D02*
X218031250Y-172050000D01*
X218031250Y-171150000D02*
X218031250Y-172950000D01*
X216251250Y-171030000D02*
X216251250Y-172830000D01*
X216251250Y-171930000D02*
X217911250Y-171930000D01*
%TO.N,Net-(D34-Pad2)*%
X206726250Y-196642500D02*
X208386250Y-196642500D01*
X206726250Y-194842500D02*
X208386250Y-194842500D01*
X206726250Y-194842500D02*
X206726250Y-196642500D01*
X208506250Y-194962500D02*
X208506250Y-196762500D01*
X208386250Y-196642500D02*
X208506250Y-196762500D01*
X208386250Y-194842500D02*
X208506250Y-194962500D01*
X206726250Y-195742500D02*
X208386250Y-195742500D01*
X208386250Y-195742500D02*
X208506250Y-195862500D01*
%TO.N,Net-(D35-Pad2)*%
X216251250Y-213892500D02*
X217911250Y-213892500D01*
X217911250Y-213892500D02*
X218031250Y-214012500D01*
X218031250Y-214012500D02*
X218031250Y-215812500D01*
X217911250Y-214792500D02*
X218031250Y-214912500D01*
X217911250Y-215692500D02*
X218031250Y-215812500D01*
X216251250Y-213892500D02*
X216251250Y-215692500D01*
X216251250Y-215692500D02*
X217911250Y-215692500D01*
X216251250Y-214792500D02*
X217911250Y-214792500D01*
%TO.N,Net-(D36-Pad2)*%
X221013750Y-234742500D02*
X222673750Y-234742500D01*
X221013750Y-232942500D02*
X221013750Y-234742500D01*
X221013750Y-232942500D02*
X222673750Y-232942500D01*
X222673750Y-233842500D02*
X222793750Y-233962500D01*
X222673750Y-232942500D02*
X222793750Y-233062500D01*
X222793750Y-233062500D02*
X222793750Y-234862500D01*
X222673750Y-234742500D02*
X222793750Y-234862500D01*
X221013750Y-233842500D02*
X222673750Y-233842500D01*
%TO.N,Net-(D37-Pad2)*%
X213148750Y-252892500D02*
X213268750Y-253012500D01*
X211488750Y-251992500D02*
X211488750Y-253792500D01*
X213268750Y-253912500D02*
X213268750Y-252112500D01*
X211488750Y-251992500D02*
X213148750Y-251992500D01*
X211488750Y-252892500D02*
X213148750Y-252892500D01*
X213148750Y-251992500D02*
X213268750Y-252112500D01*
X211488750Y-253792500D02*
X213148750Y-253792500D01*
X213148750Y-253792500D02*
X213268750Y-253912500D01*
%TO.N,Net-(D39-Pad2)*%
X236961250Y-171030000D02*
X237081250Y-171150000D01*
X235301250Y-172830000D02*
X236961250Y-172830000D01*
X235301250Y-171030000D02*
X236961250Y-171030000D01*
X235301250Y-171930000D02*
X236961250Y-171930000D01*
X236961250Y-172830000D02*
X237081250Y-172950000D01*
X237081250Y-171150000D02*
X237081250Y-172950000D01*
X236961250Y-171930000D02*
X237081250Y-172050000D01*
X235301250Y-171030000D02*
X235301250Y-172830000D01*
%TO.N,Net-(D40-Pad2)*%
X227436250Y-195742500D02*
X227556250Y-195862500D01*
X225776250Y-195742500D02*
X227436250Y-195742500D01*
X225776250Y-196642500D02*
X227436250Y-196642500D01*
X225776250Y-194842500D02*
X227436250Y-194842500D01*
X225776250Y-194842500D02*
X225776250Y-196642500D01*
X227556250Y-194962500D02*
X227556250Y-196762500D01*
X227436250Y-194842500D02*
X227556250Y-194962500D01*
X227436250Y-196642500D02*
X227556250Y-196762500D01*
%TO.N,Net-(D41-Pad2)*%
X235301250Y-214792500D02*
X236961250Y-214792500D01*
X236961250Y-214792500D02*
X237081250Y-214912500D01*
X237081250Y-214012500D02*
X237081250Y-215812500D01*
X235301250Y-213892500D02*
X236961250Y-213892500D01*
X235301250Y-213892500D02*
X235301250Y-215692500D01*
X236961250Y-215692500D02*
X237081250Y-215812500D01*
X235301250Y-215692500D02*
X236961250Y-215692500D01*
X236961250Y-213892500D02*
X237081250Y-214012500D01*
%TO.N,Net-(D42-Pad2)*%
X240063750Y-232942500D02*
X241723750Y-232942500D01*
X240063750Y-234742500D02*
X241723750Y-234742500D01*
X241723750Y-233842500D02*
X241843750Y-233962500D01*
X240063750Y-232942500D02*
X240063750Y-234742500D01*
X241843750Y-233062500D02*
X241843750Y-234862500D01*
X240063750Y-233842500D02*
X241723750Y-233842500D01*
X241723750Y-234742500D02*
X241843750Y-234862500D01*
X241723750Y-232942500D02*
X241843750Y-233062500D01*
%TO.N,Net-(D43-Pad2)*%
X230538750Y-252892500D02*
X232198750Y-252892500D01*
X230538750Y-253792500D02*
X232198750Y-253792500D01*
X232198750Y-251992500D02*
X232318750Y-252112500D01*
X230538750Y-251992500D02*
X232198750Y-251992500D01*
X232318750Y-253912500D02*
X232318750Y-252112500D01*
X230538750Y-251992500D02*
X230538750Y-253792500D01*
X232198750Y-252892500D02*
X232318750Y-253012500D01*
X232198750Y-253792500D02*
X232318750Y-253912500D01*
%TO.N,Net-(D44-Pad2)*%
X254351250Y-171030000D02*
X256011250Y-171030000D01*
X256011250Y-172830000D02*
X256131250Y-172950000D01*
X256011250Y-171030000D02*
X256131250Y-171150000D01*
X256131250Y-171150000D02*
X256131250Y-172950000D01*
X254351250Y-172830000D02*
X256011250Y-172830000D01*
X254351250Y-171030000D02*
X254351250Y-172830000D01*
X254351250Y-171930000D02*
X256011250Y-171930000D01*
X256011250Y-171930000D02*
X256131250Y-172050000D01*
%TO.N,Net-(D45-Pad2)*%
X246486250Y-194842500D02*
X246606250Y-194962500D01*
X244826250Y-194842500D02*
X244826250Y-196642500D01*
X246606250Y-194962500D02*
X246606250Y-196762500D01*
X244826250Y-194842500D02*
X246486250Y-194842500D01*
X244826250Y-195742500D02*
X246486250Y-195742500D01*
X244826250Y-196642500D02*
X246486250Y-196642500D01*
X246486250Y-195742500D02*
X246606250Y-195862500D01*
X246486250Y-196642500D02*
X246606250Y-196762500D01*
%TO.N,Net-(D46-Pad2)*%
X254351250Y-215692500D02*
X256011250Y-215692500D01*
X256131250Y-214012500D02*
X256131250Y-215812500D01*
X254351250Y-213892500D02*
X254351250Y-215692500D01*
X256011250Y-215692500D02*
X256131250Y-215812500D01*
X256011250Y-213892500D02*
X256131250Y-214012500D01*
X254351250Y-213892500D02*
X256011250Y-213892500D01*
X256011250Y-214792500D02*
X256131250Y-214912500D01*
X254351250Y-214792500D02*
X256011250Y-214792500D01*
%TO.N,Net-(D47-Pad2)*%
X260773750Y-234742500D02*
X260893750Y-234862500D01*
X259113750Y-234742500D02*
X260773750Y-234742500D01*
X260773750Y-232942500D02*
X260893750Y-233062500D01*
X259113750Y-232942500D02*
X259113750Y-234742500D01*
X259113750Y-233842500D02*
X260773750Y-233842500D01*
X260773750Y-233842500D02*
X260893750Y-233962500D01*
X259113750Y-232942500D02*
X260773750Y-232942500D01*
X260893750Y-233062500D02*
X260893750Y-234862500D01*
%TO.N,Net-(D48-Pad2)*%
X251248750Y-251992500D02*
X251368750Y-252112500D01*
X249588750Y-252892500D02*
X251248750Y-252892500D01*
X251248750Y-252892500D02*
X251368750Y-253012500D01*
X249588750Y-253792500D02*
X251248750Y-253792500D01*
X251368750Y-252112500D02*
X251368750Y-253912500D01*
X249588750Y-251992500D02*
X251248750Y-251992500D01*
X251248750Y-253792500D02*
X251368750Y-253912500D01*
X249588750Y-251992500D02*
X249588750Y-253792500D01*
%TO.N,Net-(D49-Pad2)*%
X275181250Y-171150000D02*
X275181250Y-172950000D01*
X273401250Y-172830000D02*
X275061250Y-172830000D01*
X273401250Y-171030000D02*
X273401250Y-172830000D01*
X273401250Y-171930000D02*
X275061250Y-171930000D01*
X275061250Y-172830000D02*
X275181250Y-172950000D01*
X273401250Y-171030000D02*
X275061250Y-171030000D01*
X275061250Y-171930000D02*
X275181250Y-172050000D01*
X275061250Y-171030000D02*
X275181250Y-171150000D01*
%TO.N,Net-(D50-Pad2)*%
X263876250Y-195742500D02*
X265536250Y-195742500D01*
X265656250Y-194962500D02*
X265656250Y-196762500D01*
X265536250Y-195742500D02*
X265656250Y-195862500D01*
X265536250Y-194842500D02*
X265656250Y-194962500D01*
X265536250Y-196642500D02*
X265656250Y-196762500D01*
X263876250Y-194842500D02*
X265536250Y-194842500D01*
X263876250Y-196642500D02*
X265536250Y-196642500D01*
X263876250Y-194842500D02*
X263876250Y-196642500D01*
%TO.N,Net-(D51-Pad2)*%
X275061250Y-213892500D02*
X275181250Y-214012500D01*
X273401250Y-215692500D02*
X275061250Y-215692500D01*
X275181250Y-214012500D02*
X275181250Y-215812500D01*
X273401250Y-213892500D02*
X275061250Y-213892500D01*
X275061250Y-214792500D02*
X275181250Y-214912500D01*
X275061250Y-215692500D02*
X275181250Y-215812500D01*
X273401250Y-213892500D02*
X273401250Y-215692500D01*
X273401250Y-214792500D02*
X275061250Y-214792500D01*
%TO.N,Net-(D52-Pad2)*%
X279823750Y-233842500D02*
X279943750Y-233962500D01*
X278163750Y-234742500D02*
X279823750Y-234742500D01*
X278163750Y-232942500D02*
X278163750Y-234742500D01*
X278163750Y-233842500D02*
X279823750Y-233842500D01*
X279823750Y-232942500D02*
X279943750Y-233062500D01*
X278163750Y-232942500D02*
X279823750Y-232942500D01*
X279823750Y-234742500D02*
X279943750Y-234862500D01*
X279943750Y-233062500D02*
X279943750Y-234862500D01*
%TO.N,Net-(D53-Pad2)*%
X270298750Y-251992500D02*
X270418750Y-252112500D01*
X268638750Y-253792500D02*
X270298750Y-253792500D01*
X270298750Y-252892500D02*
X270418750Y-253012500D01*
X268638750Y-251992500D02*
X268638750Y-253792500D01*
X268638750Y-251992500D02*
X270298750Y-251992500D01*
X270298750Y-253792500D02*
X270418750Y-253912500D01*
X268638750Y-252892500D02*
X270298750Y-252892500D01*
X270418750Y-253912500D02*
X270418750Y-252112500D01*
%TO.N,Net-(D54-Pad2)*%
X301976250Y-171030000D02*
X303636250Y-171030000D01*
X303636250Y-171030000D02*
X303756250Y-171150000D01*
X301976250Y-172830000D02*
X303636250Y-172830000D01*
X301976250Y-171930000D02*
X303636250Y-171930000D01*
X303756250Y-171150000D02*
X303756250Y-172950000D01*
X301976250Y-171030000D02*
X301976250Y-172830000D01*
X303636250Y-171930000D02*
X303756250Y-172050000D01*
X303636250Y-172830000D02*
X303756250Y-172950000D01*
%TO.N,Net-(D55-Pad2)*%
X282926250Y-195742500D02*
X284586250Y-195742500D01*
X284706250Y-194962500D02*
X284706250Y-196762500D01*
X282926250Y-194842500D02*
X282926250Y-196642500D01*
X282926250Y-196642500D02*
X284586250Y-196642500D01*
X284586250Y-195742500D02*
X284706250Y-195862500D01*
X282926250Y-194842500D02*
X284586250Y-194842500D01*
X284586250Y-196642500D02*
X284706250Y-196762500D01*
X284586250Y-194842500D02*
X284706250Y-194962500D01*
%TO.N,Net-(D56-Pad2)*%
X292451250Y-215692500D02*
X294111250Y-215692500D01*
X294111250Y-214792500D02*
X294231250Y-214912500D01*
X292451250Y-213892500D02*
X292451250Y-215692500D01*
X294111250Y-215692500D02*
X294231250Y-215812500D01*
X292451250Y-214792500D02*
X294111250Y-214792500D01*
X294231250Y-214012500D02*
X294231250Y-215812500D01*
X294111250Y-213892500D02*
X294231250Y-214012500D01*
X292451250Y-213892500D02*
X294111250Y-213892500D01*
%TO.N,Net-(D57-Pad2)*%
X297213750Y-233842500D02*
X298873750Y-233842500D01*
X298873750Y-232942500D02*
X298993750Y-233062500D01*
X298873750Y-233842500D02*
X298993750Y-233962500D01*
X297213750Y-232942500D02*
X297213750Y-234742500D01*
X298993750Y-233062500D02*
X298993750Y-234862500D01*
X298873750Y-234742500D02*
X298993750Y-234862500D01*
X297213750Y-232942500D02*
X298873750Y-232942500D01*
X297213750Y-234742500D02*
X298873750Y-234742500D01*
%TO.N,Net-(D58-Pad2)*%
X289348750Y-251992500D02*
X289468750Y-252112500D01*
X287688750Y-252892500D02*
X289348750Y-252892500D01*
X289468750Y-253912500D02*
X289468750Y-252112500D01*
X287688750Y-251992500D02*
X289348750Y-251992500D01*
X289348750Y-252892500D02*
X289468750Y-253012500D01*
X289348750Y-253792500D02*
X289468750Y-253912500D01*
X287688750Y-253792500D02*
X289348750Y-253792500D01*
X287688750Y-251992500D02*
X287688750Y-253792500D01*
%TO.N,Net-(D59-Pad2)*%
X282445000Y-272842500D02*
X282325000Y-272962500D01*
X282205000Y-271042500D02*
X282325000Y-271162500D01*
X282205000Y-272842500D02*
X282325000Y-272962500D01*
X282926250Y-271042500D02*
X282926250Y-272842500D01*
X282926250Y-271942500D02*
X282445000Y-271942500D01*
X280545000Y-271042500D02*
X282205000Y-271042500D01*
X282205000Y-271942500D02*
X282325000Y-272062500D01*
X282445000Y-271042500D02*
X282325000Y-271162500D01*
X282926250Y-272842500D02*
X282445000Y-272842500D01*
X280545000Y-271942500D02*
X282205000Y-271942500D01*
X280545000Y-272842500D02*
X282205000Y-272842500D01*
X282445000Y-271942500D02*
X282325000Y-272062500D01*
X282926250Y-271042500D02*
X282445000Y-271042500D01*
X282325000Y-272962500D02*
X282325000Y-271162500D01*
X280545000Y-271042500D02*
X280545000Y-272842500D01*
%TO.N,Net-(D60-Pad2)*%
X321026250Y-171030000D02*
X322686250Y-171030000D01*
X321026250Y-171030000D02*
X321026250Y-172830000D01*
X322686250Y-172830000D02*
X322806250Y-172950000D01*
X322806250Y-171150000D02*
X322806250Y-172950000D01*
X322686250Y-171930000D02*
X322806250Y-172050000D01*
X321026250Y-172830000D02*
X322686250Y-172830000D01*
X322686250Y-171030000D02*
X322806250Y-171150000D01*
X321026250Y-171930000D02*
X322686250Y-171930000D01*
%TO.N,Net-(D61-Pad2)*%
X303756250Y-194962500D02*
X303756250Y-196762500D01*
X301976250Y-194842500D02*
X303636250Y-194842500D01*
X303636250Y-194842500D02*
X303756250Y-194962500D01*
X301976250Y-196642500D02*
X303636250Y-196642500D01*
X303636250Y-196642500D02*
X303756250Y-196762500D01*
X303636250Y-195742500D02*
X303756250Y-195862500D01*
X301976250Y-194842500D02*
X301976250Y-196642500D01*
X301976250Y-195742500D02*
X303636250Y-195742500D01*
%TO.N,Net-(D62-Pad2)*%
X313281250Y-214012500D02*
X313281250Y-215812500D01*
X311501250Y-214792500D02*
X313161250Y-214792500D01*
X313161250Y-213892500D02*
X313281250Y-214012500D01*
X311501250Y-213892500D02*
X313161250Y-213892500D01*
X313161250Y-214792500D02*
X313281250Y-214912500D01*
X313161250Y-215692500D02*
X313281250Y-215812500D01*
X311501250Y-213892500D02*
X311501250Y-215692500D01*
X311501250Y-215692500D02*
X313161250Y-215692500D01*
%TO.N,Net-(D63-Pad2)*%
X316263750Y-232942500D02*
X317923750Y-232942500D01*
X318043750Y-233062500D02*
X318043750Y-234862500D01*
X316263750Y-234742500D02*
X317923750Y-234742500D01*
X316263750Y-232942500D02*
X316263750Y-234742500D01*
X317923750Y-232942500D02*
X318043750Y-233062500D01*
X317923750Y-234742500D02*
X318043750Y-234862500D01*
X316263750Y-233842500D02*
X317923750Y-233842500D01*
X317923750Y-233842500D02*
X318043750Y-233962500D01*
%TO.N,Net-(D64-Pad2)*%
X306738750Y-251992500D02*
X308398750Y-251992500D01*
X308518750Y-253912500D02*
X308518750Y-252112500D01*
X308398750Y-253792500D02*
X308518750Y-253912500D01*
X306738750Y-251992500D02*
X306738750Y-253792500D01*
X306738750Y-252892500D02*
X308398750Y-252892500D01*
X308398750Y-252892500D02*
X308518750Y-253012500D01*
X306738750Y-253792500D02*
X308398750Y-253792500D01*
X308398750Y-251992500D02*
X308518750Y-252112500D01*
%TO.N,Net-(D65-Pad2)*%
X301375000Y-271162500D02*
X301375000Y-272962500D01*
X301231739Y-271942500D02*
X301351739Y-272062500D01*
X301375000Y-272062500D02*
X301856250Y-272062500D01*
X301856250Y-271162500D02*
X301976250Y-271042500D01*
X299595000Y-271942500D02*
X301231739Y-271942500D01*
X299595000Y-272842500D02*
X301231739Y-272842500D01*
X301856250Y-272062500D02*
X301976250Y-271942500D01*
X301231739Y-272842500D02*
X301351739Y-272962500D01*
X301856250Y-272962500D02*
X301976250Y-272842500D01*
X299595000Y-271042500D02*
X299595000Y-272842500D01*
X301231739Y-271042500D02*
X301351739Y-271162500D01*
X301375000Y-271162500D02*
X301856250Y-271162500D01*
X301375000Y-272962500D02*
X301856250Y-272962500D01*
X301976250Y-271042500D02*
X301976250Y-272842500D01*
X299595000Y-271042500D02*
X301231739Y-271042500D01*
%TO.N,Net-(D66-Pad2)*%
X341736250Y-172830000D02*
X341856250Y-172950000D01*
X341736250Y-171030000D02*
X341856250Y-171150000D01*
X340076250Y-171030000D02*
X341736250Y-171030000D01*
X341736250Y-171930000D02*
X341856250Y-172050000D01*
X340076250Y-171030000D02*
X340076250Y-172830000D01*
X340076250Y-172830000D02*
X341736250Y-172830000D01*
X340076250Y-171930000D02*
X341736250Y-171930000D01*
X341856250Y-171150000D02*
X341856250Y-172950000D01*
%TO.N,Net-(D67-Pad2)*%
X322686250Y-194842500D02*
X322806250Y-194962500D01*
X321026250Y-194842500D02*
X321026250Y-196642500D01*
X321026250Y-194842500D02*
X322686250Y-194842500D01*
X322686250Y-196642500D02*
X322806250Y-196762500D01*
X322806250Y-194962500D02*
X322806250Y-196762500D01*
X322686250Y-195742500D02*
X322806250Y-195862500D01*
X321026250Y-195742500D02*
X322686250Y-195742500D01*
X321026250Y-196642500D02*
X322686250Y-196642500D01*
%TO.N,Net-(D68-Pad2)*%
X330551250Y-213892500D02*
X332211250Y-213892500D01*
X332211250Y-215692500D02*
X332331250Y-215812500D01*
X332331250Y-214012500D02*
X332331250Y-215812500D01*
X332211250Y-213892500D02*
X332331250Y-214012500D01*
X332211250Y-214792500D02*
X332331250Y-214912500D01*
X330551250Y-214792500D02*
X332211250Y-214792500D01*
X330551250Y-215692500D02*
X332211250Y-215692500D01*
X330551250Y-213892500D02*
X330551250Y-215692500D01*
%TO.N,Net-(D69-Pad2)*%
X335313750Y-233842500D02*
X336973750Y-233842500D01*
X337093750Y-233062500D02*
X337093750Y-234862500D01*
X336973750Y-232942500D02*
X337093750Y-233062500D01*
X336973750Y-233842500D02*
X337093750Y-233962500D01*
X335313750Y-234742500D02*
X336973750Y-234742500D01*
X335313750Y-232942500D02*
X336973750Y-232942500D01*
X335313750Y-232942500D02*
X335313750Y-234742500D01*
X336973750Y-234742500D02*
X337093750Y-234862500D01*
%TO.N,Net-(D70-Pad2)*%
X334592500Y-252892500D02*
X334712500Y-253012500D01*
X332932500Y-251992500D02*
X334592500Y-251992500D01*
X332932500Y-252892500D02*
X334592500Y-252892500D01*
X334592500Y-251992500D02*
X334712500Y-252112500D01*
X334712500Y-253912500D02*
X334712500Y-252112500D01*
X332932500Y-251992500D02*
X332932500Y-253792500D01*
X334592500Y-253792500D02*
X334712500Y-253912500D01*
X332932500Y-253792500D02*
X334592500Y-253792500D01*
%TO.N,Net-(D71-Pad2)*%
X322686250Y-271942500D02*
X322806250Y-272062500D01*
X321026250Y-271042500D02*
X321026250Y-272842500D01*
X322806250Y-272962500D02*
X322806250Y-271162500D01*
X321026250Y-271042500D02*
X322686250Y-271042500D01*
X321026250Y-271942500D02*
X322686250Y-271942500D01*
X322686250Y-272842500D02*
X322806250Y-272962500D01*
X322686250Y-271042500D02*
X322806250Y-271162500D01*
X321026250Y-272842500D02*
X322686250Y-272842500D01*
%TO.N,Net-(D72-Pad2)*%
X360786250Y-171030000D02*
X360906250Y-171150000D01*
X359126250Y-171030000D02*
X360786250Y-171030000D01*
X360786250Y-171930000D02*
X360906250Y-172050000D01*
X360786250Y-172830000D02*
X360906250Y-172950000D01*
X359126250Y-171030000D02*
X359126250Y-172830000D01*
X360906250Y-171150000D02*
X360906250Y-172950000D01*
X359126250Y-171930000D02*
X360786250Y-171930000D01*
X359126250Y-172830000D02*
X360786250Y-172830000D01*
%TO.N,Net-(D73-Pad2)*%
X349601250Y-194908639D02*
X349601250Y-196708639D01*
X349601250Y-196708639D02*
X351261250Y-196708639D01*
X351261250Y-196708639D02*
X351381250Y-196828639D01*
X351381250Y-195028639D02*
X351381250Y-196828639D01*
X349601250Y-194908639D02*
X351261250Y-194908639D01*
X351261250Y-195808639D02*
X351381250Y-195928639D01*
X351261250Y-194908639D02*
X351381250Y-195028639D01*
X349601250Y-195808639D02*
X351261250Y-195808639D01*
%TO.N,Net-(D74-Pad2)*%
X356745000Y-223417500D02*
X356745000Y-225217500D01*
X358405000Y-224317500D02*
X358525000Y-224437500D01*
X358405000Y-223417500D02*
X358525000Y-223537500D01*
X358525000Y-223537500D02*
X358525000Y-225337500D01*
X356745000Y-224317500D02*
X358405000Y-224317500D01*
X356745000Y-225217500D02*
X358405000Y-225217500D01*
X356745000Y-223417500D02*
X358405000Y-223417500D01*
X358405000Y-225217500D02*
X358525000Y-225337500D01*
%TO.N,Net-(D75-Pad2)*%
X346498750Y-277605000D02*
X346618750Y-277725000D01*
X346498750Y-275805000D02*
X346618750Y-275925000D01*
X344838750Y-275805000D02*
X346498750Y-275805000D01*
X346618750Y-275925000D02*
X346618750Y-277725000D01*
X344838750Y-275805000D02*
X344838750Y-277605000D01*
X344838750Y-277605000D02*
X346498750Y-277605000D01*
X344838750Y-276705000D02*
X346498750Y-276705000D01*
X346498750Y-276705000D02*
X346618750Y-276825000D01*
%TO.N,Net-(D76-Pad2)*%
X365668750Y-256875000D02*
X365668750Y-258675000D01*
X365548750Y-256755000D02*
X365668750Y-256875000D01*
X365548750Y-258555000D02*
X365668750Y-258675000D01*
X365548750Y-257655000D02*
X365668750Y-257775000D01*
X363888750Y-257655000D02*
X365548750Y-257655000D01*
X363888750Y-258555000D02*
X365548750Y-258555000D01*
X363888750Y-256755000D02*
X365548750Y-256755000D01*
X363888750Y-258555000D02*
X363888750Y-256755000D01*
%TO.N,Net-(D77-Pad2)*%
X365548750Y-276705000D02*
X365668750Y-276825000D01*
X363888750Y-275805000D02*
X363888750Y-277605000D01*
X365668750Y-275925000D02*
X365668750Y-277725000D01*
X363888750Y-277605000D02*
X365548750Y-277605000D01*
X365548750Y-277605000D02*
X365668750Y-277725000D01*
X365548750Y-275805000D02*
X365668750Y-275925000D01*
X363888750Y-275805000D02*
X365548750Y-275805000D01*
X363888750Y-276705000D02*
X365548750Y-276705000D01*
%TO.N,Net-(D78-Pad2)*%
X384598750Y-276705000D02*
X384718750Y-276825000D01*
X384598750Y-277605000D02*
X384718750Y-277725000D01*
X384598750Y-275805000D02*
X384718750Y-275925000D01*
X382938750Y-275805000D02*
X384598750Y-275805000D01*
X382938750Y-276705000D02*
X384598750Y-276705000D01*
X382938750Y-275805000D02*
X382938750Y-277605000D01*
X382938750Y-277605000D02*
X384598750Y-277605000D01*
X384718750Y-277725000D02*
X384718750Y-275925000D01*
%TO.N,Net-(D79-Pad2)*%
X389361250Y-171030000D02*
X389481250Y-171150000D01*
X387701250Y-171030000D02*
X387701250Y-172830000D01*
X387701250Y-172830000D02*
X389361250Y-172830000D01*
X389361250Y-172830000D02*
X389481250Y-172950000D01*
X387701250Y-171930000D02*
X389361250Y-171930000D01*
X387701250Y-171030000D02*
X389361250Y-171030000D01*
X389481250Y-171150000D02*
X389481250Y-172950000D01*
X389361250Y-171930000D02*
X389481250Y-172050000D01*
%TO.N,Net-(D80-Pad2)*%
X387701250Y-196642500D02*
X389361250Y-196642500D01*
X387701250Y-194842500D02*
X387701250Y-196642500D01*
X389361250Y-196642500D02*
X389481250Y-196762500D01*
X387701250Y-195742500D02*
X389361250Y-195742500D01*
X389481250Y-194962500D02*
X389481250Y-196762500D01*
X389361250Y-194842500D02*
X389481250Y-194962500D01*
X387701250Y-194842500D02*
X389361250Y-194842500D01*
X389361250Y-195742500D02*
X389481250Y-195862500D01*
%TO.N,Net-(D81-Pad2)*%
X389361250Y-214792500D02*
X389481250Y-214912500D01*
X389481250Y-214012500D02*
X389481250Y-215812500D01*
X387701250Y-215692500D02*
X389361250Y-215692500D01*
X389361250Y-213892500D02*
X389481250Y-214012500D01*
X387701250Y-213892500D02*
X389361250Y-213892500D01*
X387701250Y-213892500D02*
X387701250Y-215692500D01*
X387701250Y-214792500D02*
X389361250Y-214792500D01*
X389361250Y-215692500D02*
X389481250Y-215812500D01*
%TO.N,Net-(D82-Pad2)*%
X387701250Y-234742500D02*
X389361250Y-234742500D01*
X389481250Y-233062500D02*
X389481250Y-234862500D01*
X387701250Y-232942500D02*
X387701250Y-234742500D01*
X387701250Y-233842500D02*
X389361250Y-233842500D01*
X389361250Y-234742500D02*
X389481250Y-234862500D01*
X389361250Y-232942500D02*
X389481250Y-233062500D01*
X387701250Y-232942500D02*
X389361250Y-232942500D01*
X389361250Y-233842500D02*
X389481250Y-233962500D01*
%TO.N,Net-(D83-Pad2)*%
X387701250Y-253792500D02*
X389361250Y-253792500D01*
X387701250Y-252892500D02*
X389361250Y-252892500D01*
X389361250Y-252892500D02*
X389481250Y-253012500D01*
X389481250Y-252112500D02*
X389481250Y-253912500D01*
X389361250Y-251992500D02*
X389481250Y-252112500D01*
X387701250Y-251992500D02*
X389361250Y-251992500D01*
X389361250Y-253792500D02*
X389481250Y-253912500D01*
X387701250Y-251992500D02*
X387701250Y-253792500D01*
%TO.N,Net-(D84-Pad2)*%
X416276250Y-196642500D02*
X417936250Y-196642500D01*
X418056250Y-196762500D02*
X418056250Y-194962500D01*
X416276250Y-194842500D02*
X417936250Y-194842500D01*
X417936250Y-194842500D02*
X418056250Y-194962500D01*
X417936250Y-196642500D02*
X418056250Y-196762500D01*
X416276250Y-195742500D02*
X417936250Y-195742500D01*
X416276250Y-194842500D02*
X416276250Y-196642500D01*
X417936250Y-195742500D02*
X418056250Y-195862500D01*
%TO.N,Net-(D85-Pad2)*%
X418056250Y-214012500D02*
X418056250Y-215812500D01*
X416276250Y-215692500D02*
X417936250Y-215692500D01*
X417936250Y-213892500D02*
X418056250Y-214012500D01*
X416276250Y-213892500D02*
X417936250Y-213892500D01*
X417936250Y-215692500D02*
X418056250Y-215812500D01*
X416276250Y-213892500D02*
X416276250Y-215692500D01*
X416276250Y-214792500D02*
X417936250Y-214792500D01*
X417936250Y-214792500D02*
X418056250Y-214912500D01*
%TO.N,Net-(D86-Pad2)*%
X417936250Y-232942500D02*
X418056250Y-233062500D01*
X417936250Y-234742500D02*
X418056250Y-234862500D01*
X417936250Y-233842500D02*
X418056250Y-233962500D01*
X416276250Y-232942500D02*
X417936250Y-232942500D01*
X416276250Y-232942500D02*
X416276250Y-234742500D01*
X418056250Y-233062500D02*
X418056250Y-234862500D01*
X416276250Y-234742500D02*
X417936250Y-234742500D01*
X416276250Y-233842500D02*
X417936250Y-233842500D01*
%TO.N,Net-(D87-Pad2)*%
X417936250Y-251992500D02*
X418056250Y-252112500D01*
X417936250Y-252892500D02*
X418056250Y-253012500D01*
X416276250Y-253792500D02*
X417936250Y-253792500D01*
X417936250Y-253792500D02*
X418056250Y-253912500D01*
X418056250Y-252112500D02*
X418056250Y-253912500D01*
X416276250Y-252892500D02*
X417936250Y-252892500D01*
X416276250Y-251992500D02*
X417936250Y-251992500D01*
X416276250Y-251992500D02*
X416276250Y-253792500D01*
%TO.N,Net-(D88-Pad2)*%
X427461250Y-272908639D02*
X427581250Y-273028639D01*
X425801250Y-272008639D02*
X427461250Y-272008639D01*
X425801250Y-271108639D02*
X427461250Y-271108639D01*
X427581250Y-271228639D02*
X427581250Y-273028639D01*
X425921250Y-273028639D02*
X425801250Y-272908639D01*
X425801250Y-271108639D02*
X425801250Y-272908639D01*
X427461250Y-271108639D02*
X427581250Y-271228639D01*
X427461250Y-272008639D02*
X427581250Y-272128639D01*
X425801250Y-272908639D02*
X427461250Y-272908639D01*
%TO.N,Net-(D89-Pad2)*%
X436986250Y-194842500D02*
X437106250Y-194962500D01*
X435326250Y-194842500D02*
X435326250Y-196642500D01*
X435326250Y-194842500D02*
X436986250Y-194842500D01*
X436986250Y-195742500D02*
X437106250Y-195862500D01*
X436986250Y-196642500D02*
X437106250Y-196762500D01*
X435326250Y-196642500D02*
X436986250Y-196642500D01*
X437106250Y-194962500D02*
X437106250Y-196762500D01*
X435326250Y-195742500D02*
X436986250Y-195742500D01*
%TO.N,Net-(D90-Pad2)*%
X436986250Y-214792500D02*
X437106250Y-214912500D01*
X437106250Y-214012500D02*
X437106250Y-215812500D01*
X435326250Y-213892500D02*
X435326250Y-215692500D01*
X436986250Y-213892500D02*
X437106250Y-214012500D01*
X435326250Y-215692500D02*
X436986250Y-215692500D01*
X435326250Y-213892500D02*
X436986250Y-213892500D01*
X435326250Y-214792500D02*
X436986250Y-214792500D01*
X436986250Y-215692500D02*
X437106250Y-215812500D01*
%TO.N,Net-(D91-Pad2)*%
X435326250Y-233842500D02*
X436986250Y-233842500D01*
X436986250Y-234742500D02*
X437106250Y-234862500D01*
X435326250Y-232942500D02*
X435326250Y-234742500D01*
X436986250Y-233842500D02*
X437106250Y-233962500D01*
X437106250Y-233062500D02*
X437106250Y-234862500D01*
X436986250Y-232942500D02*
X437106250Y-233062500D01*
X435326250Y-232942500D02*
X436986250Y-232942500D01*
X435326250Y-234742500D02*
X436986250Y-234742500D01*
%TO.N,Net-(D92-Pad2)*%
X436986250Y-253792500D02*
X437106250Y-253912500D01*
X435326250Y-252892500D02*
X436986250Y-252892500D01*
X435326250Y-251992500D02*
X435326250Y-253792500D01*
X435326250Y-253792500D02*
X436986250Y-253792500D01*
X436986250Y-252892500D02*
X437106250Y-253012500D01*
X436986250Y-251992500D02*
X437106250Y-252112500D01*
X437106250Y-252112500D02*
X437106250Y-253912500D01*
X435326250Y-251992500D02*
X436986250Y-251992500D01*
%TO.N,Net-(D93-Pad2)*%
X456036250Y-272842500D02*
X456156250Y-272962500D01*
X456036250Y-271942500D02*
X456156250Y-272062500D01*
X454376250Y-271942500D02*
X456036250Y-271942500D01*
X454376250Y-272842500D02*
X456036250Y-272842500D01*
X456036250Y-271042500D02*
X456156250Y-271162500D01*
X454376250Y-271042500D02*
X454376250Y-272842500D01*
X456156250Y-271162500D02*
X456156250Y-272962500D01*
X454376250Y-271042500D02*
X456036250Y-271042500D01*
%TO.N,Net-(D94-Pad2)*%
X456156250Y-194962500D02*
X456156250Y-196762500D01*
X456036250Y-196642500D02*
X456156250Y-196762500D01*
X454376250Y-195742500D02*
X456036250Y-195742500D01*
X456036250Y-195742500D02*
X456156250Y-195862500D01*
X454376250Y-194842500D02*
X456036250Y-194842500D01*
X456036250Y-194842500D02*
X456156250Y-194962500D01*
X454376250Y-194842500D02*
X454376250Y-196642500D01*
X454376250Y-196642500D02*
X456036250Y-196642500D01*
%TO.N,Net-(D95-Pad2)*%
X456036250Y-213892500D02*
X456156250Y-214012500D01*
X456036250Y-215692500D02*
X456156250Y-215812500D01*
X456156250Y-214012500D02*
X456156250Y-215812500D01*
X454376250Y-213892500D02*
X454376250Y-215692500D01*
X454376250Y-215692500D02*
X456036250Y-215692500D01*
X454376250Y-214792500D02*
X456036250Y-214792500D01*
X454376250Y-213892500D02*
X456036250Y-213892500D01*
X456036250Y-214792500D02*
X456156250Y-214912500D01*
%TO.N,Net-(D96-Pad2)*%
X454376250Y-232942500D02*
X456036250Y-232942500D01*
X456036250Y-232942500D02*
X456156250Y-233062500D01*
X456156250Y-233062500D02*
X456156250Y-234862500D01*
X454376250Y-233842500D02*
X456036250Y-233842500D01*
X454376250Y-234742500D02*
X456036250Y-234742500D01*
X456036250Y-234742500D02*
X456156250Y-234862500D01*
X456036250Y-233842500D02*
X456156250Y-233962500D01*
X454376250Y-232942500D02*
X454376250Y-234742500D01*
%TO.N,Net-(D97-Pad2)*%
X456036250Y-252892500D02*
X456156250Y-253012500D01*
X454376250Y-253792500D02*
X456036250Y-253792500D01*
X454376250Y-251992500D02*
X454376250Y-253792500D01*
X456036250Y-253792500D02*
X456156250Y-253912500D01*
X456156250Y-252112500D02*
X456156250Y-253912500D01*
X456036250Y-251992500D02*
X456156250Y-252112500D01*
X454376250Y-252892500D02*
X456036250Y-252892500D01*
X454376250Y-251992500D02*
X456036250Y-251992500D01*
%TO.N,Net-(D98-Pad2)*%
X475086250Y-196642500D02*
X475206250Y-196762500D01*
X473426250Y-195742500D02*
X475086250Y-195742500D01*
X475206250Y-194962500D02*
X475206250Y-196762500D01*
X473426250Y-194842500D02*
X473426250Y-196642500D01*
X473426250Y-196642500D02*
X475086250Y-196642500D01*
X475086250Y-195742500D02*
X475206250Y-195862500D01*
X475086250Y-194842500D02*
X475206250Y-194962500D01*
X473426250Y-194842500D02*
X475086250Y-194842500D01*
%TO.N,Net-(D99-Pad2)*%
X473426250Y-223483639D02*
X475086250Y-223483639D01*
X475086250Y-225283639D02*
X475206250Y-225403639D01*
X475086250Y-223483639D02*
X475206250Y-223603639D01*
X473426250Y-223483639D02*
X473426250Y-225283639D01*
X475206250Y-223603639D02*
X475206250Y-225403639D01*
X475086250Y-224383639D02*
X475206250Y-224503639D01*
X473426250Y-224383639D02*
X475086250Y-224383639D01*
X473426250Y-225283639D02*
X475086250Y-225283639D01*
%TO.N,Net-(D100-Pad2)*%
X473426250Y-261583639D02*
X475086250Y-261583639D01*
X473426250Y-261583639D02*
X473426250Y-263383639D01*
X473426250Y-263383639D02*
X475086250Y-263383639D01*
X475086250Y-261583639D02*
X475206250Y-261703639D01*
X475206250Y-261703639D02*
X475206250Y-263503639D01*
X475086250Y-263383639D02*
X475206250Y-263503639D01*
X475086250Y-262483639D02*
X475206250Y-262603639D01*
X473426250Y-262483639D02*
X475086250Y-262483639D01*
D25*
%TO.N,D+*%
X127000000Y-167800000D02*
X130000000Y-164800000D01*
X418000000Y-164800000D02*
X423400000Y-170200000D01*
X125000000Y-173400000D02*
X126800000Y-171600000D01*
X130600000Y-164800000D02*
X418000000Y-164800000D01*
X120600000Y-173400000D02*
X125000000Y-173400000D01*
X433600000Y-186000000D02*
X434954765Y-184645235D01*
X127000000Y-171400000D02*
X127000000Y-167800000D01*
X130000000Y-164800000D02*
X130600000Y-164800000D01*
X126800000Y-171600000D02*
X127000000Y-171400000D01*
%TO.N,D-*%
X130200000Y-164200000D02*
X418600000Y-164200000D01*
X418600000Y-164200000D02*
X424600000Y-170200000D01*
X126200000Y-167800000D02*
X129800000Y-164200000D01*
X431600000Y-184200000D02*
X432954765Y-182845235D01*
X126200000Y-171000000D02*
X126200000Y-167800000D01*
X129800000Y-164200000D02*
X130200000Y-164200000D01*
X119400000Y-172000000D02*
X125200000Y-172000000D01*
X125200000Y-172000000D02*
X126200000Y-171000000D01*
D24*
%TO.N,COL0*%
X108056250Y-194262500D02*
X107950000Y-194262500D01*
X113300000Y-231462500D02*
X115200000Y-231462500D01*
X112818750Y-211512500D02*
X112818750Y-213312500D01*
X106156250Y-168650000D02*
X106156250Y-170450000D01*
X112818750Y-230562500D02*
X113300000Y-230562500D01*
X110437500Y-249612500D02*
X110437500Y-251412500D01*
X110918750Y-211512500D02*
X112818750Y-211512500D01*
X108537500Y-249612500D02*
X108537500Y-251412500D01*
X115200000Y-244850000D02*
X110437500Y-249612500D01*
X110437500Y-250512500D02*
X108537500Y-250512500D01*
X108056250Y-170450000D02*
X108056250Y-192462500D01*
X110437500Y-268181250D02*
X110918750Y-268662500D01*
X108537500Y-251412500D02*
X110437500Y-251412500D01*
X109864724Y-211512500D02*
X110918750Y-211512500D01*
X106156250Y-193362500D02*
X108056250Y-193362500D01*
X108056250Y-168650000D02*
X108056250Y-170450000D01*
X106156250Y-192462500D02*
X106156250Y-194262500D01*
X115200000Y-230562500D02*
X115200000Y-232362500D01*
X106156250Y-168650000D02*
X108056250Y-168650000D01*
X115200000Y-232362500D02*
X115200000Y-244850000D01*
X106156250Y-192462500D02*
X108056250Y-192462500D01*
X106156250Y-169550000D02*
X108056250Y-169550000D01*
X112818750Y-270462500D02*
X112818750Y-268662500D01*
X112818750Y-213312500D02*
X112818750Y-230562500D01*
X113300000Y-232362500D02*
X115200000Y-232362500D01*
X106156250Y-170450000D02*
X108056250Y-170450000D01*
X110918750Y-269562500D02*
X112818750Y-269562500D01*
X106156250Y-194262500D02*
X108056250Y-194262500D01*
X110918750Y-268662500D02*
X112818750Y-268662500D01*
X110918750Y-213312500D02*
X112818750Y-213312500D01*
X110918750Y-270462500D02*
X112818750Y-270462500D01*
X110918750Y-268662500D02*
X110918750Y-270462500D01*
X113300000Y-230562500D02*
X115200000Y-230562500D01*
X108537500Y-249612500D02*
X110437500Y-249612500D01*
X107950000Y-209597776D02*
X109864724Y-211512500D01*
X110918750Y-211512500D02*
X110918750Y-213312500D01*
X108056250Y-192462500D02*
X108056250Y-194262500D01*
X110437500Y-251412500D02*
X110437500Y-268181250D01*
X113300000Y-230562500D02*
X113300000Y-232362500D01*
X110918750Y-212412500D02*
X112818750Y-212412500D01*
X107950000Y-194262500D02*
X107950000Y-209597776D01*
%TO.N,COL1*%
X137318750Y-234537500D02*
X137318750Y-244162500D01*
X127106250Y-194262500D02*
X127106250Y-203887500D01*
X127106250Y-203887500D02*
X134731250Y-211512500D01*
X139493750Y-232362500D02*
X141393750Y-232362500D01*
X127106250Y-192462500D02*
X127106250Y-194262500D01*
X125206250Y-192462500D02*
X127106250Y-192462500D01*
X137318750Y-244162500D02*
X131868750Y-249612500D01*
X125206250Y-193362500D02*
X127106250Y-193362500D01*
X136631250Y-270462500D02*
X136631250Y-268662500D01*
X134731250Y-268662500D02*
X134731250Y-270462500D01*
X134731250Y-268662500D02*
X136631250Y-268662500D01*
X134731250Y-213312500D02*
X136631250Y-213312500D01*
X134731250Y-211512500D02*
X136631250Y-211512500D01*
X139493750Y-230562500D02*
X139493750Y-232362500D01*
X131868750Y-250512500D02*
X129968750Y-250512500D01*
X134731250Y-212412500D02*
X136631250Y-212412500D01*
X131868750Y-265800000D02*
X134731250Y-268662500D01*
X129968750Y-249612500D02*
X129968750Y-251412500D01*
X129968750Y-249612500D02*
X131868750Y-249612500D01*
X139493750Y-231462500D02*
X141393750Y-231462500D01*
X136631250Y-270462500D02*
X134731250Y-270462500D01*
X129968750Y-251412500D02*
X131868750Y-251412500D01*
X139493750Y-230562500D02*
X141393750Y-230562500D01*
X125206250Y-192462500D02*
X125206250Y-194262500D01*
X141393750Y-230562500D02*
X141393750Y-232362500D01*
X139493750Y-232362500D02*
X137318750Y-234537500D01*
X136631250Y-227700000D02*
X139493750Y-230562500D01*
X134731250Y-211512500D02*
X134731250Y-213312500D01*
X136631250Y-211512500D02*
X136631250Y-213312500D01*
X125206250Y-194262500D02*
X127106250Y-194262500D01*
X134731250Y-269562500D02*
X136631250Y-269562500D01*
X131868750Y-249612500D02*
X131868750Y-251412500D01*
X136631250Y-213312500D02*
X136631250Y-227700000D01*
X131868750Y-251412500D02*
X131868750Y-265800000D01*
%TO.N,COL2*%
X155681250Y-213312500D02*
X158543750Y-216175000D01*
X153781250Y-211512500D02*
X155681250Y-211512500D01*
X144256250Y-192462500D02*
X144256250Y-194262500D01*
X158062500Y-269562500D02*
X156162500Y-269562500D01*
X150918750Y-249612500D02*
X150918750Y-251412500D01*
X146156250Y-168650000D02*
X146156250Y-170450000D01*
X144256250Y-170450000D02*
X146156250Y-170450000D01*
X153781250Y-211512500D02*
X153781250Y-213312500D01*
X158543750Y-230562500D02*
X160443750Y-230562500D01*
X149018750Y-249612500D02*
X149018750Y-251412500D01*
X155562171Y-244969079D02*
X150918750Y-249612500D01*
X158543750Y-230562500D02*
X158543750Y-232362500D01*
X150918750Y-251412500D02*
X150918750Y-263418750D01*
X156162500Y-270462500D02*
X158062500Y-270462500D01*
X156162500Y-268662500D02*
X158062500Y-268662500D01*
X144256250Y-192462500D02*
X146156250Y-192462500D01*
X146156250Y-192462500D02*
X146156250Y-194262500D01*
X144256250Y-194262500D02*
X146156250Y-194262500D01*
X155681250Y-211512500D02*
X155681250Y-213312500D01*
X150918750Y-263418750D02*
X156162500Y-268662500D01*
X149018750Y-249612500D02*
X150918750Y-249612500D01*
X158543750Y-232362500D02*
X155562171Y-235344079D01*
X158543750Y-216175000D02*
X158543750Y-230562500D01*
X153781250Y-213312500D02*
X155681250Y-213312500D01*
X160443750Y-230562500D02*
X160443750Y-232362500D01*
X146156250Y-203887500D02*
X153781250Y-211512500D01*
X149018750Y-251412500D02*
X150918750Y-251412500D01*
X146156250Y-170450000D02*
X146156250Y-192462500D01*
X150918750Y-250512500D02*
X149018750Y-250512500D01*
X146156250Y-194262500D02*
X146156250Y-203887500D01*
X144256250Y-169550000D02*
X146156250Y-169550000D01*
X144256250Y-193362500D02*
X146156250Y-193362500D01*
X158543750Y-231462500D02*
X160443750Y-231462500D01*
X155562171Y-235344079D02*
X155562171Y-244969079D01*
X153781250Y-212412500D02*
X155681250Y-212412500D01*
X156162500Y-268662500D02*
X156162500Y-270462500D01*
X158543750Y-232362500D02*
X160443750Y-232362500D01*
X144256250Y-168650000D02*
X144256250Y-170450000D01*
X144256250Y-168650000D02*
X146156250Y-168650000D01*
X158062500Y-268662500D02*
X158062500Y-270462500D01*
%TO.N,COL3*%
X168068750Y-249612500D02*
X169968750Y-249612500D01*
X174731250Y-211512500D02*
X174731250Y-213312500D01*
X165206250Y-168650000D02*
X165206250Y-170450000D01*
X172831250Y-211512500D02*
X172831250Y-213312500D01*
X179493750Y-240087500D02*
X169968750Y-249612500D01*
X165206250Y-192462500D02*
X165206250Y-194262500D01*
X179493750Y-230562500D02*
X179493750Y-232362500D01*
X163306250Y-192462500D02*
X163306250Y-194262500D01*
X165206250Y-194262500D02*
X165206250Y-203887500D01*
X163306250Y-194262500D02*
X165206250Y-194262500D01*
X163306250Y-168650000D02*
X163306250Y-170450000D01*
X163306250Y-193362500D02*
X165206250Y-193362500D01*
X168068750Y-251412500D02*
X169968750Y-251412500D01*
X174731250Y-227700000D02*
X177593750Y-230562500D01*
X177593750Y-230562500D02*
X177593750Y-232362500D01*
X169968750Y-249612500D02*
X169968750Y-251412500D01*
X177593750Y-230562500D02*
X179493750Y-230562500D01*
X163306250Y-170450000D02*
X165206250Y-170450000D01*
X177593750Y-232362500D02*
X179493750Y-232362500D01*
X174731250Y-213312500D02*
X174731250Y-227700000D01*
X172831250Y-213312500D02*
X174731250Y-213312500D01*
X172831250Y-212412500D02*
X174731250Y-212412500D01*
X168068750Y-250512500D02*
X169968750Y-250512500D01*
X163306250Y-168650000D02*
X165206250Y-168650000D01*
X165206250Y-203887500D02*
X172831250Y-211512500D01*
X172831250Y-211512500D02*
X174731250Y-211512500D01*
X179493750Y-232362500D02*
X179493750Y-240087500D01*
X163306250Y-192462500D02*
X165206250Y-192462500D01*
X163306250Y-169550000D02*
X165206250Y-169550000D01*
X165206250Y-170450000D02*
X165206250Y-192462500D01*
X177593750Y-231462500D02*
X179493750Y-231462500D01*
X168068750Y-249612500D02*
X168068750Y-251412500D01*
%TO.N,COL4*%
X189308114Y-249612500D02*
X189018750Y-249612500D01*
X184256250Y-170450000D02*
X184256250Y-192462500D01*
X184256250Y-168650000D02*
X184256250Y-170450000D01*
X198543750Y-232362500D02*
X198543750Y-240376864D01*
X184256250Y-202280864D02*
X191881250Y-209905864D01*
X193781250Y-227700000D02*
X196643750Y-230562500D01*
X182356250Y-170450000D02*
X184256250Y-170450000D01*
X187118750Y-249612500D02*
X189018750Y-249612500D01*
X196643750Y-230562500D02*
X196643750Y-232362500D01*
X182356250Y-168650000D02*
X184256250Y-168650000D01*
X196643750Y-232362500D02*
X198543750Y-232362500D01*
X196643750Y-231462500D02*
X198543750Y-231462500D01*
X187118750Y-251412500D02*
X189018750Y-251412500D01*
X193781250Y-213312500D02*
X193781250Y-227700000D01*
X182356250Y-193362500D02*
X184256250Y-193362500D01*
X198543750Y-240376864D02*
X189308114Y-249612500D01*
X191881250Y-212412500D02*
X193781250Y-212412500D01*
X187118750Y-250512500D02*
X189018750Y-250512500D01*
X191881250Y-211512500D02*
X193781250Y-211512500D01*
X184256250Y-192462500D02*
X184256250Y-194262500D01*
X196643750Y-230562500D02*
X198543750Y-230562500D01*
X182356250Y-169550000D02*
X184256250Y-169550000D01*
X191881250Y-211512500D02*
X191881250Y-213312500D01*
X184256250Y-194262500D02*
X184256250Y-202280864D01*
X189018750Y-249612500D02*
X189018750Y-251412500D01*
X182356250Y-194262500D02*
X184256250Y-194262500D01*
X187118750Y-249612500D02*
X187118750Y-251412500D01*
X198543750Y-230562500D02*
X198543750Y-232362500D01*
X182356250Y-192462500D02*
X184256250Y-192462500D01*
X182356250Y-192462500D02*
X182356250Y-194262500D01*
X182356250Y-168650000D02*
X182356250Y-170450000D01*
X191881250Y-209905864D02*
X191881250Y-211512500D01*
X191881250Y-213312500D02*
X193781250Y-213312500D01*
X193781250Y-211512500D02*
X193781250Y-213312500D01*
%TO.N,COL5*%
X492784230Y-264930956D02*
X492784230Y-226631619D01*
X201406250Y-168650000D02*
X201406250Y-170450000D01*
X487156250Y-221103639D02*
X487156250Y-222903639D01*
X217593750Y-232362500D02*
X217593750Y-240087500D01*
X215693750Y-231462500D02*
X217593750Y-231462500D01*
X208068750Y-251412500D02*
X208068750Y-279506250D01*
X203306250Y-192462500D02*
X203306250Y-194262500D01*
X206168750Y-249612500D02*
X208068750Y-249612500D01*
X201406250Y-194262500D02*
X203306250Y-194262500D01*
X217593750Y-230562500D02*
X217593750Y-232362500D01*
X201406250Y-192462500D02*
X201406250Y-194262500D01*
X210931250Y-213312500D02*
X212831250Y-213312500D01*
X217593750Y-240087500D02*
X208068750Y-249612500D01*
X489056250Y-221103639D02*
X489056250Y-222903639D01*
X203306250Y-170450000D02*
X203306250Y-192462500D01*
X215693750Y-232362500D02*
X217593750Y-232362500D01*
X208068750Y-279506250D02*
X218162500Y-289600000D01*
X208068750Y-251412500D02*
X208068750Y-249612500D01*
X203306250Y-194262500D02*
X203306250Y-203887500D01*
X212831250Y-211512500D02*
X212831250Y-213312500D01*
X201406250Y-170450000D02*
X203306250Y-170450000D01*
X203306250Y-203887500D02*
X210931250Y-211512500D01*
X215693750Y-230562500D02*
X215693750Y-232362500D01*
X212831250Y-227700000D02*
X215693750Y-230562500D01*
X487156250Y-222903639D02*
X489056250Y-222903639D01*
X201406250Y-169550000D02*
X203306250Y-169550000D01*
X487156250Y-222003639D02*
X489056250Y-222003639D01*
X212831250Y-213312500D02*
X212831250Y-227700000D01*
X206168750Y-250512500D02*
X208068750Y-250512500D01*
X201406250Y-192462500D02*
X203306250Y-192462500D01*
X468115186Y-289600000D02*
X492784230Y-264930956D01*
X210931250Y-211512500D02*
X210931250Y-213312500D01*
X218162500Y-289600000D02*
X468115186Y-289600000D01*
X210931250Y-211512500D02*
X212831250Y-211512500D01*
X215693750Y-230562500D02*
X217593750Y-230562500D01*
X206168750Y-249612500D02*
X206168750Y-251412500D01*
X206168750Y-251412500D02*
X208068750Y-251412500D01*
X201406250Y-193362500D02*
X203306250Y-193362500D01*
X203306250Y-168650000D02*
X203306250Y-170450000D01*
X212831250Y-212412500D02*
X210931250Y-212412500D01*
X487156250Y-221103639D02*
X489056250Y-221103639D01*
X492784230Y-226631619D02*
X489056250Y-222903639D01*
X201406250Y-168650000D02*
X203306250Y-168650000D01*
%TO.N,COL6*%
X231881250Y-213312500D02*
X231881250Y-227700000D01*
X213150315Y-271108639D02*
X213270315Y-271228639D01*
X229500000Y-269562500D02*
X227186454Y-269562500D01*
X222817500Y-271942500D02*
X222937500Y-272062500D01*
X234887500Y-268662500D02*
X236787500Y-268662500D01*
X227617021Y-267682979D02*
X229582979Y-267682979D01*
X220456250Y-193362500D02*
X222356250Y-193362500D01*
X213150315Y-272908639D02*
X213270315Y-273028639D01*
X227118750Y-251412500D02*
X227118750Y-249612500D01*
X229981250Y-170450000D02*
X227806250Y-172625000D01*
X213456454Y-271042500D02*
X213270315Y-271228639D01*
X236643750Y-230562500D02*
X236643750Y-232362500D01*
X222937500Y-272062500D02*
X222937500Y-271498160D01*
X227118750Y-266806250D02*
X227118750Y-268727074D01*
X229981250Y-169550000D02*
X231881250Y-169550000D01*
X213870000Y-272842500D02*
X213456454Y-272842500D01*
X227600000Y-267700000D02*
X227617021Y-267682979D01*
X211490315Y-272008639D02*
X213150315Y-272008639D01*
X236787500Y-270462500D02*
X236787500Y-268662500D01*
X227118750Y-268727074D02*
X227120315Y-268728639D01*
X211490315Y-271108639D02*
X213150315Y-271108639D01*
X213270315Y-271228639D02*
X213270315Y-273028639D01*
X229500000Y-268662500D02*
X227186454Y-268662500D01*
X231881250Y-168650000D02*
X231881250Y-170450000D01*
X220456250Y-192462500D02*
X220456250Y-194262500D01*
X227600000Y-268662500D02*
X227600000Y-270462500D01*
X213870000Y-272842500D02*
X213870000Y-271042500D01*
X234743750Y-231462500D02*
X236643750Y-231462500D01*
X227186454Y-268662500D02*
X227120315Y-268728639D01*
X234743750Y-230562500D02*
X236643750Y-230562500D01*
X227120315Y-270528639D02*
X227120315Y-268728639D01*
X229500000Y-270462500D02*
X227186454Y-270462500D01*
X236787500Y-269562500D02*
X234887500Y-269562500D01*
X213870000Y-271942500D02*
X213456454Y-271942500D01*
X227118750Y-251412500D02*
X227118750Y-266806250D01*
X231881250Y-211512500D02*
X231881250Y-213312500D01*
X229582979Y-267682979D02*
X233907979Y-267682979D01*
X229981250Y-213312500D02*
X231881250Y-213312500D01*
X227806250Y-172625000D02*
X227806250Y-187012500D01*
X225218750Y-249612500D02*
X227118750Y-249612500D01*
X229981250Y-170450000D02*
X231881250Y-170450000D01*
X231881250Y-227700000D02*
X234743750Y-230562500D01*
X220456250Y-194262500D02*
X222356250Y-194262500D01*
X211490315Y-272908639D02*
X213150315Y-272908639D01*
X227600000Y-267287500D02*
X227600000Y-267700000D01*
X234887500Y-270462500D02*
X234887500Y-268662500D01*
X213456454Y-271942500D02*
X213270315Y-272128639D01*
X236643750Y-232362500D02*
X236643750Y-240087500D01*
X225218750Y-251412500D02*
X227118750Y-251412500D01*
X227806250Y-187012500D02*
X222356250Y-192462500D01*
X227600000Y-267700000D02*
X227600000Y-268662500D01*
X213456454Y-272842500D02*
X213270315Y-273028639D01*
X225218750Y-250512500D02*
X227118750Y-250512500D01*
X229981250Y-212412500D02*
X231881250Y-212412500D01*
X229500000Y-267765958D02*
X229500000Y-268662500D01*
X213870000Y-271042500D02*
X213456454Y-271042500D01*
X234743750Y-232362500D02*
X236643750Y-232362500D01*
X221157500Y-271042500D02*
X221157500Y-271942500D01*
X222356250Y-194262500D02*
X222356250Y-203887500D01*
X227186454Y-269562500D02*
X227120315Y-269628639D01*
X229981250Y-211512500D02*
X231881250Y-211512500D01*
X229981250Y-168650000D02*
X229981250Y-170450000D01*
X236643750Y-240087500D02*
X227118750Y-249612500D01*
X229981250Y-168650000D02*
X231881250Y-168650000D01*
X229500000Y-270462500D02*
X229500000Y-268662500D01*
X234887500Y-270462500D02*
X236787500Y-270462500D01*
X221157500Y-271942500D02*
X222817500Y-271942500D01*
X222356250Y-192462500D02*
X222356250Y-194262500D01*
X225218750Y-249612500D02*
X225218750Y-251412500D01*
X234743750Y-230562500D02*
X234743750Y-232362500D01*
X233907979Y-267682979D02*
X234887500Y-268662500D01*
X222356250Y-203887500D02*
X229981250Y-211512500D01*
X229582979Y-267682979D02*
X229500000Y-267765958D01*
X211490315Y-272908639D02*
X211490315Y-271108639D01*
X227186454Y-270462500D02*
X227120315Y-270528639D01*
X229981250Y-211512500D02*
X229981250Y-213312500D01*
X227118750Y-266806250D02*
X227600000Y-267287500D01*
X213150315Y-272008639D02*
X213270315Y-272128639D01*
X220456250Y-192462500D02*
X222356250Y-192462500D01*
%TO.N,COL7*%
X468106250Y-251412500D02*
X470006250Y-251412500D01*
X253793750Y-230562500D02*
X255693750Y-230562500D01*
X239506250Y-194262500D02*
X241406250Y-194262500D01*
X255693750Y-242781250D02*
X248862500Y-249612500D01*
X269250480Y-289150480D02*
X467928988Y-289150480D01*
X255693750Y-232362500D02*
X255693750Y-242781250D01*
X249031250Y-168650000D02*
X249031250Y-170450000D01*
X250931250Y-213312500D02*
X250931250Y-227700000D01*
X249031250Y-213312500D02*
X250931250Y-213312500D01*
X250931250Y-227700000D02*
X253793750Y-230562500D01*
X249031250Y-168650000D02*
X250931250Y-168650000D01*
X241406250Y-192462500D02*
X241406250Y-194262500D01*
X239506250Y-192462500D02*
X239506250Y-194262500D01*
X249031250Y-169550000D02*
X250931250Y-169550000D01*
X241406250Y-203887500D02*
X249031250Y-211512500D01*
X239506250Y-193362500D02*
X241406250Y-193362500D01*
X470006250Y-249612500D02*
X470006250Y-251412500D01*
X244268750Y-251412500D02*
X246168750Y-251412500D01*
X248862500Y-249612500D02*
X246168750Y-249612500D01*
X244268750Y-249612500D02*
X246168750Y-249612500D01*
X246168750Y-251412500D02*
X246168750Y-266068750D01*
X239506250Y-192462500D02*
X241406250Y-192462500D01*
X250931250Y-182937500D02*
X241406250Y-192462500D01*
X468106250Y-250512500D02*
X470006250Y-250512500D01*
X244268750Y-249612500D02*
X244268750Y-251412500D01*
X250931250Y-168650000D02*
X250931250Y-170450000D01*
X489680761Y-258699511D02*
X481493750Y-250512500D01*
X249031250Y-211512500D02*
X249031250Y-213312500D01*
X467928988Y-289150480D02*
X489680761Y-267398707D01*
X253793750Y-232362500D02*
X255693750Y-232362500D01*
X468106250Y-249612500D02*
X470006250Y-249612500D01*
X489680761Y-267398707D02*
X489680761Y-258699511D01*
X253793750Y-231462500D02*
X255693750Y-231462500D01*
X468106250Y-249612500D02*
X468106250Y-251412500D01*
X481493750Y-250512500D02*
X470006250Y-250512500D01*
X249031250Y-211512500D02*
X250931250Y-211512500D01*
X250931250Y-170450000D02*
X250931250Y-182937500D01*
X255693750Y-230562500D02*
X255693750Y-232362500D01*
X246168750Y-266068750D02*
X269250480Y-289150480D01*
X250931250Y-211512500D02*
X250931250Y-213312500D01*
X249031250Y-212412500D02*
X250931250Y-212412500D01*
X249031250Y-170450000D02*
X250931250Y-170450000D01*
X241406250Y-194262500D02*
X241406250Y-203887500D01*
X253793750Y-230562500D02*
X253793750Y-232362500D01*
X246168750Y-251412500D02*
X246168750Y-249612500D01*
X244268750Y-250512500D02*
X246168750Y-250512500D01*
%TO.N,COL8*%
X268081250Y-211512500D02*
X269981250Y-211512500D01*
X272843750Y-232362500D02*
X274743750Y-232362500D01*
X285789591Y-288700960D02*
X467742790Y-288700960D01*
X274743750Y-241003250D02*
X266134500Y-249612500D01*
X263318750Y-249612500D02*
X265218750Y-249612500D01*
X487156250Y-259203639D02*
X489056250Y-259203639D01*
X266134500Y-249612500D02*
X265218750Y-249612500D01*
X269981250Y-168650000D02*
X269981250Y-170450000D01*
X269981250Y-170450000D02*
X269981250Y-182937500D01*
X467742790Y-288700960D02*
X489056250Y-267387500D01*
X268081250Y-211512500D02*
X268081250Y-213312500D01*
X258556250Y-192462500D02*
X260456250Y-192462500D01*
X263318750Y-251412500D02*
X265218750Y-251412500D01*
X268081250Y-170450000D02*
X269981250Y-170450000D01*
X269981250Y-211512500D02*
X269981250Y-213312500D01*
X265218750Y-268130119D02*
X285789591Y-288700960D01*
X269981250Y-227700000D02*
X272843750Y-230562500D01*
X265218750Y-251412500D02*
X265218750Y-268130119D01*
X487156250Y-260103639D02*
X489056250Y-260103639D01*
X269981250Y-213312500D02*
X269981250Y-227700000D01*
X272843750Y-230562500D02*
X274743750Y-230562500D01*
X272843750Y-231462500D02*
X274743750Y-231462500D01*
X268081250Y-213312500D02*
X269981250Y-213312500D01*
X265218750Y-249612500D02*
X265218750Y-251412500D01*
X268081250Y-169550000D02*
X269981250Y-169550000D01*
X260456250Y-203887500D02*
X268081250Y-211512500D01*
X274743750Y-230562500D02*
X274743750Y-232362500D01*
X268081250Y-212412500D02*
X269981250Y-212412500D01*
X487156250Y-259203639D02*
X487156250Y-261003639D01*
X265218750Y-250512500D02*
X263318750Y-250512500D01*
X487156250Y-261003639D02*
X489056250Y-261003639D01*
X272843750Y-230562500D02*
X272843750Y-232362500D01*
X258556250Y-192462500D02*
X258556250Y-194262500D01*
X258556250Y-193362500D02*
X260456250Y-193362500D01*
X260456250Y-194262500D02*
X260456250Y-203887500D01*
X268081250Y-168650000D02*
X269981250Y-168650000D01*
X269981250Y-182937500D02*
X260456250Y-192462500D01*
X274743750Y-232362500D02*
X274743750Y-241003250D01*
X489056250Y-259203639D02*
X489056250Y-261003639D01*
X489056250Y-267387500D02*
X489056250Y-261003639D01*
X268081250Y-168650000D02*
X268081250Y-170450000D01*
X258556250Y-194262500D02*
X260456250Y-194262500D01*
X260456250Y-192462500D02*
X260456250Y-194262500D01*
X263318750Y-249612500D02*
X263318750Y-251412500D01*
%TO.N,COL9*%
X287131250Y-213312500D02*
X289031250Y-213312500D01*
X277606250Y-192462500D02*
X279506250Y-192462500D01*
X287131250Y-211512500D02*
X287131250Y-213312500D01*
X284268750Y-251412500D02*
X284268750Y-261662750D01*
X293793750Y-242146250D02*
X286327500Y-249612500D01*
X287131250Y-168650000D02*
X287131250Y-170450000D01*
X277606250Y-193362500D02*
X279506250Y-193362500D01*
X282368750Y-249612500D02*
X282368750Y-251412500D01*
X296656250Y-270462500D02*
X296656250Y-268662500D01*
X291893750Y-231462500D02*
X293793750Y-231462500D01*
X291893750Y-232362500D02*
X293793750Y-232362500D01*
X296175000Y-270462500D02*
X298556250Y-270462500D01*
X289031250Y-170450000D02*
X289031250Y-182937500D01*
X298556250Y-268662500D02*
X296175000Y-268662500D01*
X287131250Y-169550000D02*
X289031250Y-169550000D01*
X291893750Y-230562500D02*
X291893750Y-232362500D01*
X289031250Y-227700000D02*
X291893750Y-230562500D01*
X287131250Y-212412500D02*
X289031250Y-212412500D01*
X296175000Y-268662500D02*
X296175000Y-270462500D01*
X289031250Y-182937500D02*
X279506250Y-192462500D01*
X277606250Y-194262500D02*
X279506250Y-194262500D01*
X293793750Y-232362500D02*
X293793750Y-242146250D01*
X279506250Y-203887500D02*
X287131250Y-211512500D01*
X282368750Y-250512500D02*
X284268750Y-250512500D01*
X289031250Y-211512500D02*
X289031250Y-213312500D01*
X295140625Y-267628125D02*
X297521875Y-267628125D01*
X296175000Y-269562500D02*
X298556250Y-269562500D01*
X291893750Y-230562500D02*
X293793750Y-230562500D01*
X286327500Y-249612500D02*
X284268750Y-249612500D01*
X284268750Y-251412500D02*
X284268750Y-249612500D01*
X295140625Y-267628125D02*
X296175000Y-268662500D01*
X282368750Y-249612500D02*
X284268750Y-249612500D01*
X297521875Y-267628125D02*
X298556250Y-268662500D01*
X298556250Y-268662500D02*
X298556250Y-270462500D01*
X287131250Y-168650000D02*
X289031250Y-168650000D01*
X293793750Y-230562500D02*
X293793750Y-232362500D01*
X279506250Y-194262500D02*
X279506250Y-203887500D01*
X287131250Y-170450000D02*
X289031250Y-170450000D01*
X289031250Y-168650000D02*
X289031250Y-170450000D01*
X289031250Y-213312500D02*
X289031250Y-227700000D01*
X290234125Y-267628125D02*
X295140625Y-267628125D01*
X279506250Y-192462500D02*
X279506250Y-194262500D01*
X282368750Y-251412500D02*
X284268750Y-251412500D01*
X277606250Y-192462500D02*
X277606250Y-194262500D01*
X284268750Y-261662750D02*
X290234125Y-267628125D01*
X287131250Y-211512500D02*
X289031250Y-211512500D01*
%TO.N,COL10*%
X310943750Y-232362500D02*
X312843750Y-232362500D01*
X298556250Y-192462500D02*
X298556250Y-194262500D01*
X315706250Y-268662500D02*
X315706250Y-270462500D01*
X298556250Y-194262500D02*
X298556250Y-203887500D01*
X308081250Y-211512500D02*
X308081250Y-213312500D01*
X303318750Y-261408750D02*
X308744375Y-266834375D01*
X310943750Y-230562500D02*
X312843750Y-230562500D01*
X296656250Y-192462500D02*
X298556250Y-192462500D01*
X315778125Y-266834375D02*
X317606250Y-268662500D01*
X296656250Y-193362500D02*
X298556250Y-193362500D01*
X296656250Y-194262500D02*
X298556250Y-194262500D01*
X308744375Y-266834375D02*
X315778125Y-266834375D01*
X317606250Y-268662500D02*
X317606250Y-270462500D01*
X315706250Y-169550000D02*
X317606250Y-169550000D01*
X317606250Y-268662500D02*
X315849511Y-268662500D01*
X310943750Y-231462500D02*
X312843750Y-231462500D01*
X303318750Y-249612500D02*
X303318750Y-251412500D01*
X315225000Y-268662500D02*
X315706250Y-268662500D01*
X306012500Y-192462500D02*
X298556250Y-192462500D01*
X308081250Y-213312500D02*
X308081250Y-227700000D01*
X301418750Y-249612500D02*
X301418750Y-251412500D01*
X317606250Y-270462500D02*
X315849511Y-270462500D01*
X301418750Y-249612500D02*
X303318750Y-249612500D01*
X317606250Y-180868750D02*
X306012500Y-192462500D01*
X315225000Y-269562500D02*
X315706250Y-269562500D01*
X312843750Y-232362500D02*
X312843750Y-242400250D01*
X306181250Y-212412500D02*
X308081250Y-212412500D01*
X303318750Y-251412500D02*
X303318750Y-261408750D01*
X315706250Y-168650000D02*
X317606250Y-168650000D01*
X306181250Y-211512500D02*
X308081250Y-211512500D01*
X315706250Y-168650000D02*
X315706250Y-170450000D01*
X317606250Y-269562500D02*
X315849511Y-269562500D01*
X306181250Y-213312500D02*
X308081250Y-213312500D01*
X317606250Y-168650000D02*
X317606250Y-170450000D01*
X305631500Y-249612500D02*
X303318750Y-249612500D01*
X315706250Y-170450000D02*
X317606250Y-170450000D01*
X312843750Y-230562500D02*
X312843750Y-232362500D01*
X312843750Y-242400250D02*
X305631500Y-249612500D01*
X310943750Y-230562500D02*
X310943750Y-232362500D01*
X308081250Y-227700000D02*
X310943750Y-230562500D01*
X317606250Y-169550000D02*
X317606250Y-180868750D01*
X301418750Y-251412500D02*
X303318750Y-251412500D01*
X315225000Y-270462500D02*
X315225000Y-268662500D01*
X306181250Y-211512500D02*
X306181250Y-213312500D01*
X315225000Y-270462500D02*
X315706250Y-270462500D01*
X298556250Y-203887500D02*
X306181250Y-211512500D01*
X301418750Y-250512500D02*
X303318750Y-250512500D01*
X296656250Y-192462500D02*
X296656250Y-194262500D01*
%TO.N,COL11*%
X334756250Y-168650000D02*
X336656250Y-168650000D01*
X325231250Y-211512500D02*
X327131250Y-211512500D01*
X317606250Y-192462500D02*
X317606250Y-194262500D01*
X334756250Y-270462500D02*
X336656250Y-270462500D01*
X322368750Y-249612500D02*
X320468750Y-249612500D01*
X317606250Y-194262500D02*
X317606250Y-203887500D01*
X320468750Y-249612500D02*
X320468750Y-251412500D01*
X336656250Y-180233750D02*
X324427500Y-192462500D01*
X315706250Y-193362500D02*
X317606250Y-193362500D01*
X336656250Y-170450000D02*
X336656250Y-180233750D01*
X327131250Y-213312500D02*
X327131250Y-227700000D01*
X322368750Y-251412500D02*
X320468750Y-251412500D01*
X329993750Y-231462500D02*
X331893750Y-231462500D01*
X317606250Y-203887500D02*
X325231250Y-211512500D01*
X315706250Y-192462500D02*
X317606250Y-192462500D01*
X327131250Y-211512500D02*
X327131250Y-213312500D01*
X327131250Y-227700000D02*
X329993750Y-230562500D01*
X315706250Y-194262500D02*
X317606250Y-194262500D01*
X336656250Y-168650000D02*
X336656250Y-170450000D01*
X329993750Y-230562500D02*
X329993750Y-232362500D01*
X329993750Y-230562500D02*
X331893750Y-230562500D01*
X334756250Y-268662500D02*
X334756250Y-270462500D01*
X329993750Y-232362500D02*
X331893750Y-232362500D01*
X331893750Y-242527250D02*
X324808500Y-249612500D01*
X325231250Y-211512500D02*
X325231250Y-213312500D01*
X334756250Y-169550000D02*
X336656250Y-169550000D01*
X334756250Y-170450000D02*
X336656250Y-170450000D01*
X334756250Y-269562500D02*
X336656250Y-269562500D01*
X331893750Y-230562500D02*
X331893750Y-232362500D01*
X320468750Y-250512500D02*
X322368750Y-250512500D01*
X322368750Y-251412500D02*
X322368750Y-249612500D01*
X336656250Y-270462500D02*
X336656250Y-268662500D01*
X334756250Y-268662500D02*
X336656250Y-268662500D01*
X334756250Y-168650000D02*
X334756250Y-170450000D01*
X331893750Y-232362500D02*
X331893750Y-242527250D01*
X315706250Y-192462500D02*
X315706250Y-194262500D01*
X324427500Y-192462500D02*
X317606250Y-192462500D01*
X322368750Y-256275000D02*
X334756250Y-268662500D01*
X325231250Y-213312500D02*
X327131250Y-213312500D01*
X324808500Y-249612500D02*
X322368750Y-249612500D01*
X322368750Y-251412500D02*
X322368750Y-256275000D01*
X325231250Y-212412500D02*
X327131250Y-212412500D01*
%TO.N,COL12*%
X350943750Y-230562500D02*
X350943750Y-232362500D01*
X355706250Y-168650000D02*
X355706250Y-170450000D01*
X346662500Y-249612500D02*
X346662500Y-251412500D01*
X350943750Y-247231250D02*
X348562500Y-249612500D01*
X348562500Y-263418750D02*
X358568750Y-273425000D01*
X336656250Y-203887500D02*
X344281250Y-211512500D01*
X344281250Y-211512500D02*
X346181250Y-211512500D01*
X344281250Y-213312500D02*
X346181250Y-213312500D01*
X353806250Y-169550000D02*
X355706250Y-169550000D01*
X334756250Y-192462500D02*
X336656250Y-192462500D01*
X346181250Y-213312500D02*
X346181250Y-227700000D01*
X355706250Y-184932750D02*
X347287979Y-193351021D01*
X353806250Y-168650000D02*
X355706250Y-168650000D01*
X346181250Y-227700000D02*
X349043750Y-230562500D01*
X336656250Y-192462500D02*
X336656250Y-194262500D01*
X337544771Y-193351021D02*
X336656250Y-192462500D01*
X346662500Y-251412500D02*
X348562500Y-251412500D01*
X334756250Y-194262500D02*
X336656250Y-194262500D01*
X349043750Y-230562500D02*
X350943750Y-230562500D01*
X360468750Y-273425000D02*
X360468750Y-275225000D01*
X349043750Y-230562500D02*
X349043750Y-232362500D01*
X344281250Y-212412500D02*
X346181250Y-212412500D01*
X346662500Y-249612500D02*
X348562500Y-249612500D01*
X353806250Y-170450000D02*
X355706250Y-170450000D01*
X346181250Y-211512500D02*
X346181250Y-213312500D01*
X358568750Y-273425000D02*
X360468750Y-273425000D01*
X334756250Y-192462500D02*
X334756250Y-194262500D01*
X358568750Y-275225000D02*
X360468750Y-275225000D01*
X344281250Y-211512500D02*
X344281250Y-213312500D01*
X348562500Y-251412500D02*
X348562500Y-249612500D01*
X355706250Y-170450000D02*
X355706250Y-184932750D01*
X348562500Y-251412500D02*
X348562500Y-263418750D01*
X347287979Y-193351021D02*
X337544771Y-193351021D01*
X349043750Y-231462500D02*
X350943750Y-231462500D01*
X350943750Y-232362500D02*
X350943750Y-247231250D01*
X358568750Y-273425000D02*
X358568750Y-275225000D01*
X346662500Y-250512500D02*
X348562500Y-250512500D01*
X336656250Y-194262500D02*
X336656250Y-203887500D01*
X334756250Y-193362500D02*
X336656250Y-193362500D01*
X353806250Y-168650000D02*
X353806250Y-170450000D01*
X349043750Y-232362500D02*
X350943750Y-232362500D01*
X358568750Y-274325000D02*
X360468750Y-274325000D01*
%TO.N,COL13*%
X372856250Y-168650000D02*
X372856250Y-170450000D01*
X379518750Y-256175000D02*
X379518750Y-273425000D01*
X377618750Y-274325000D02*
X379518750Y-274325000D01*
X377618750Y-273425000D02*
X377618750Y-275225000D01*
X365231250Y-192528639D02*
X365231250Y-194328639D01*
X374756250Y-168650000D02*
X374756250Y-170450000D01*
X379518750Y-275225000D02*
X379518750Y-273425000D01*
X372375000Y-222837500D02*
X377618750Y-228081250D01*
X363331250Y-192528639D02*
X363331250Y-194328639D01*
X363331250Y-192528639D02*
X365231250Y-192528639D01*
X372856250Y-168650000D02*
X374756250Y-168650000D01*
X377618750Y-256175000D02*
X379518750Y-256175000D01*
X370475000Y-221037500D02*
X370475000Y-222837500D01*
X363331250Y-194328639D02*
X365231250Y-194328639D01*
X365231250Y-194328639D02*
X365231250Y-215793750D01*
X379518750Y-254375000D02*
X379518750Y-256175000D01*
X363331250Y-193428639D02*
X365231250Y-193428639D01*
X374756250Y-183003639D02*
X365231250Y-192528639D01*
X377618750Y-273425000D02*
X379518750Y-273425000D01*
X377618750Y-255275000D02*
X379518750Y-255275000D01*
X365231250Y-215793750D02*
X370475000Y-221037500D01*
X372856250Y-169550000D02*
X374756250Y-169550000D01*
X377618750Y-254375000D02*
X377618750Y-256175000D01*
X374756250Y-170450000D02*
X374756250Y-183003639D01*
X377618750Y-254375000D02*
X379518750Y-254375000D01*
X370475000Y-221037500D02*
X372375000Y-221037500D01*
X377618750Y-228081250D02*
X377618750Y-254375000D01*
X370475000Y-222837500D02*
X372375000Y-222837500D01*
X372856250Y-170450000D02*
X374756250Y-170450000D01*
X370475000Y-221937500D02*
X372375000Y-221937500D01*
X377618750Y-275225000D02*
X379518750Y-275225000D01*
X372375000Y-221037500D02*
X372375000Y-222837500D01*
%TO.N,COL14*%
X401431250Y-251412500D02*
X403331250Y-251412500D01*
X401431250Y-168650000D02*
X403331250Y-168650000D01*
X401431250Y-211512500D02*
X403331250Y-211512500D01*
X403331250Y-194262500D02*
X403331250Y-211512500D01*
X403331250Y-192462500D02*
X403331250Y-194262500D01*
X401431250Y-231462500D02*
X403331250Y-231462500D01*
X401431250Y-168650000D02*
X401431250Y-170450000D01*
X401431250Y-213312500D02*
X403331250Y-213312500D01*
X401431250Y-212412500D02*
X403331250Y-212412500D01*
X396668750Y-273425000D02*
X398568750Y-273425000D01*
X403331250Y-249612500D02*
X403331250Y-251412500D01*
X401431250Y-193362500D02*
X403331250Y-193362500D01*
X403331250Y-211512500D02*
X403331250Y-213312500D01*
X401431250Y-230562500D02*
X403331250Y-230562500D01*
X396668750Y-274325000D02*
X398568750Y-274325000D01*
X403331250Y-232362500D02*
X403331250Y-249612500D01*
X403331250Y-251412500D02*
X403331250Y-268662500D01*
X401431250Y-194262500D02*
X403331250Y-194262500D01*
X403331250Y-168650000D02*
X403331250Y-170450000D01*
X401431250Y-170450000D02*
X403331250Y-170450000D01*
X396668750Y-275225000D02*
X396668750Y-273425000D01*
X401431250Y-211512500D02*
X401431250Y-213312500D01*
X403331250Y-170450000D02*
X403331250Y-192462500D01*
X401431250Y-230562500D02*
X401431250Y-232362500D01*
X396668750Y-275225000D02*
X398568750Y-275225000D01*
X401431250Y-249612500D02*
X403331250Y-249612500D01*
X401431250Y-232362500D02*
X403331250Y-232362500D01*
X403331250Y-268662500D02*
X398568750Y-273425000D01*
X401431250Y-192462500D02*
X401431250Y-194262500D01*
X401431250Y-169550000D02*
X403331250Y-169550000D01*
X401431250Y-250512500D02*
X403331250Y-250512500D01*
X398568750Y-273425000D02*
X398568750Y-275225000D01*
X401431250Y-192462500D02*
X403331250Y-192462500D01*
X403331250Y-230562500D02*
X403331250Y-232362500D01*
X403331250Y-213312500D02*
X403331250Y-230562500D01*
X401431250Y-249612500D02*
X401431250Y-251412500D01*
%TO.N,COL15*%
X431906250Y-232362500D02*
X431906250Y-249612500D01*
X430006250Y-232362500D02*
X431906250Y-232362500D01*
X430006250Y-251412500D02*
X431906250Y-251412500D01*
X431906250Y-211512500D02*
X431906250Y-213312500D01*
X431906250Y-194262500D02*
X431906250Y-192462500D01*
X439531250Y-270528639D02*
X441431250Y-270528639D01*
X430006250Y-249612500D02*
X430006250Y-251412500D01*
X439531250Y-269628639D02*
X441431250Y-269628639D01*
X439531250Y-268728639D02*
X439531250Y-270528639D01*
X430006250Y-194262500D02*
X431906250Y-194262500D01*
X430006250Y-192462500D02*
X430006250Y-194262500D01*
X430006250Y-211512500D02*
X431906250Y-211512500D01*
X430006250Y-211512500D02*
X430006250Y-213312500D01*
X441431250Y-268728639D02*
X441431250Y-270528639D01*
X430006250Y-249612500D02*
X431906250Y-249612500D01*
X431906250Y-261103639D02*
X439531250Y-268728639D01*
X430006250Y-250512500D02*
X431906250Y-250512500D01*
X430006250Y-192462500D02*
X431906250Y-192462500D01*
X430006250Y-212412500D02*
X431906250Y-212412500D01*
X439531250Y-268728639D02*
X441431250Y-268728639D01*
X431906250Y-249612500D02*
X431906250Y-251412500D01*
X431906250Y-251412500D02*
X431906250Y-261103639D01*
X430006250Y-230562500D02*
X431906250Y-230562500D01*
X431906250Y-194262500D02*
X431906250Y-211512500D01*
X430006250Y-230562500D02*
X430006250Y-232362500D01*
X430006250Y-231462500D02*
X431906250Y-231462500D01*
X430006250Y-193362500D02*
X431906250Y-193362500D01*
X431906250Y-213312500D02*
X431906250Y-230562500D01*
X430006250Y-213312500D02*
X431906250Y-213312500D01*
X431906250Y-230562500D02*
X431906250Y-232362500D01*
%TO.N,COL16*%
X450956250Y-213312500D02*
X450956250Y-230562500D01*
X450956250Y-255630250D02*
X463008979Y-267682979D01*
X449056250Y-212412500D02*
X450956250Y-212412500D01*
X451935771Y-191482979D02*
X450956250Y-192462500D01*
X450956250Y-211512500D02*
X450956250Y-213312500D01*
X449056250Y-213312500D02*
X450956250Y-213312500D01*
X450956250Y-194262500D02*
X450956250Y-211512500D01*
X449056250Y-251412500D02*
X450956250Y-251412500D01*
X468106250Y-268662500D02*
X468106250Y-270462500D01*
X449056250Y-249612500D02*
X450956250Y-249612500D01*
X450956250Y-192462500D02*
X450956250Y-194262500D01*
X468106250Y-192462500D02*
X468106250Y-194262500D01*
X449056250Y-192462500D02*
X450956250Y-192462500D01*
X468106250Y-192462500D02*
X470006250Y-192462500D01*
X468106250Y-270462500D02*
X470006250Y-270462500D01*
X449056250Y-231462500D02*
X450956250Y-231462500D01*
X468106250Y-192462500D02*
X467126729Y-191482979D01*
X449056250Y-230562500D02*
X449056250Y-232362500D01*
X449056250Y-232362500D02*
X450956250Y-232362500D01*
X449056250Y-249612500D02*
X449056250Y-251412500D01*
X449056250Y-192462500D02*
X449056250Y-194262500D01*
X449056250Y-211512500D02*
X450956250Y-211512500D01*
X470006250Y-192462500D02*
X470006250Y-194262500D01*
X450956250Y-230562500D02*
X450956250Y-232362500D01*
X449056250Y-211512500D02*
X449056250Y-213312500D01*
X468106250Y-193362500D02*
X470006250Y-193362500D01*
X468106250Y-194262500D02*
X470006250Y-194262500D01*
X450956250Y-249612500D02*
X450956250Y-251412500D01*
X449056250Y-193362500D02*
X450956250Y-193362500D01*
X468106250Y-269562500D02*
X470006250Y-269562500D01*
X468106250Y-268662500D02*
X470006250Y-268662500D01*
X449056250Y-194262500D02*
X450956250Y-194262500D01*
X467126729Y-191482979D02*
X451935771Y-191482979D01*
X470006250Y-268662500D02*
X470006250Y-270462500D01*
X450956250Y-251412500D02*
X450956250Y-255630250D01*
X449056250Y-230562500D02*
X450956250Y-230562500D01*
X449056250Y-250512500D02*
X450956250Y-250512500D01*
X463008979Y-267682979D02*
X467126729Y-267682979D01*
X467126729Y-267682979D02*
X468106250Y-268662500D01*
X450956250Y-232362500D02*
X450956250Y-249612500D01*
%TO.N,COL17*%
X468106250Y-211512500D02*
X470006250Y-211512500D01*
X487156250Y-192462500D02*
X489056250Y-192462500D01*
X468106250Y-232362500D02*
X470006250Y-232362500D01*
X470006250Y-213312500D02*
X470006250Y-230562500D01*
X487156250Y-194262500D02*
X489056250Y-194262500D01*
X487156250Y-192462500D02*
X487156250Y-194262500D01*
X468106250Y-230562500D02*
X470006250Y-230562500D01*
X489056250Y-192462500D02*
X489056250Y-194262500D01*
X470006250Y-230562500D02*
X470006250Y-232362500D01*
X468106250Y-212412500D02*
X470006250Y-212412500D01*
X487249671Y-196069079D02*
X480825217Y-196069079D01*
X480825217Y-196069079D02*
X479437829Y-197456467D01*
X468106250Y-231462500D02*
X470006250Y-231462500D01*
X470006250Y-211512500D02*
X470006250Y-213312500D01*
X468106250Y-211512500D02*
X468106250Y-213312500D01*
X479437829Y-197472171D02*
X470006250Y-206903750D01*
X468106250Y-230562500D02*
X468106250Y-232362500D01*
X487156250Y-193362500D02*
X489056250Y-193362500D01*
X468106250Y-213312500D02*
X470006250Y-213312500D01*
X489056250Y-194262500D02*
X487249671Y-196069079D01*
X470006250Y-206903750D02*
X470006250Y-211512500D01*
X479437829Y-197456467D02*
X479437829Y-197472171D01*
%TO.N,Net-(R3-Pad1)*%
X442422904Y-181822904D02*
X442529677Y-181822904D01*
X442529677Y-181822904D02*
X445240943Y-179111638D01*
X434245235Y-181554765D02*
X435200000Y-180600000D01*
%TO.N,Net-(R4-Pad1)*%
X436592639Y-183354765D02*
X437400000Y-182547404D01*
X443600000Y-181800000D02*
X445722677Y-179677323D01*
X445722677Y-179677323D02*
X445806629Y-179677323D01*
X436245235Y-183354765D02*
X436592639Y-183354765D01*
%TO.N,Net-(R5-Pad1)*%
X457261759Y-169353564D02*
X457261759Y-169338241D01*
X457261759Y-169338241D02*
X459754765Y-166845235D01*
%TO.N,Net-(R6-Pad2)*%
X481150000Y-188850000D02*
X478700000Y-188850000D01*
X459554765Y-188154765D02*
X459554765Y-187627184D01*
X481200000Y-188800000D02*
X481150000Y-188850000D01*
X459554765Y-187627184D02*
X458663791Y-186736209D01*
X458663791Y-186736209D02*
X456130388Y-184202807D01*
%TO.N,/LED*%
X342154000Y-178800000D02*
X328041000Y-192913000D01*
X340995000Y-235886796D02*
X340995000Y-237363000D01*
X259621021Y-248632979D02*
X256033271Y-252220729D01*
X211000000Y-266000000D02*
X221200000Y-266000000D01*
X393687171Y-276799395D02*
X393687171Y-282816171D01*
X286639000Y-233092796D02*
X286639000Y-223266000D01*
X164306250Y-217313046D02*
X164306250Y-217487500D01*
X343662000Y-233219796D02*
X340995000Y-235886796D01*
X361828531Y-273685000D02*
X361950000Y-273685000D01*
X320167000Y-261239000D02*
X318262000Y-263144000D01*
X110696526Y-242887500D02*
X102393750Y-251190276D01*
X285242000Y-251460000D02*
X285242000Y-261112000D01*
X184595771Y-216073525D02*
X183356250Y-217313046D01*
X219800000Y-178800000D02*
X218075000Y-178800000D01*
X318262000Y-274320000D02*
X315595000Y-276987000D01*
X302387000Y-236045224D02*
X302387000Y-237744000D01*
X151650829Y-202450829D02*
X161796729Y-212596729D01*
X169068750Y-236363046D02*
X169068750Y-238125000D01*
X301351739Y-203434739D02*
X308864000Y-210947000D01*
X400558000Y-242316000D02*
X395100217Y-247773783D01*
X137318750Y-184150000D02*
X137318750Y-196325974D01*
X326390000Y-274304296D02*
X326390000Y-275590000D01*
X191000000Y-178800000D02*
X191000000Y-178887500D01*
X460820771Y-216089229D02*
X459994000Y-216916000D01*
X237611520Y-178800000D02*
X223530270Y-192881250D01*
X210343750Y-223043750D02*
X210343750Y-233188046D01*
X362204000Y-226568000D02*
X362204000Y-227965000D01*
X248443750Y-180181250D02*
X247221526Y-180181250D01*
X313205898Y-252198102D02*
X313205898Y-254150898D01*
X142875000Y-252682224D02*
X140635203Y-254922021D01*
X133600000Y-180431250D02*
X137318750Y-184150000D01*
X253206250Y-242093750D02*
X246856250Y-248443750D01*
X259500000Y-217400000D02*
X259500000Y-218200000D01*
X467360000Y-204343000D02*
X460820771Y-210882229D01*
X178593750Y-255063474D02*
X178593750Y-256381250D01*
X178593750Y-243670693D02*
X167902364Y-254362079D01*
X223530270Y-198924020D02*
X233362500Y-208756250D01*
X470662000Y-276819652D02*
X470662000Y-268097000D01*
X432245771Y-273289664D02*
X431419000Y-274116435D01*
X393319000Y-197850296D02*
X393319000Y-198882000D01*
X251555761Y-210655761D02*
X251555761Y-224655761D01*
X467360000Y-223647000D02*
X461775217Y-229231783D01*
X136537829Y-205594079D02*
X138112500Y-207168750D01*
X241900000Y-201000000D02*
X251555761Y-210655761D01*
X150018750Y-236013474D02*
X150018750Y-236537500D01*
X419354000Y-202565000D02*
X419354000Y-207246000D01*
X241745771Y-215723953D02*
X240506250Y-216963474D01*
X251270771Y-195182005D02*
X251270771Y-197023525D01*
X222695771Y-206820771D02*
X222695771Y-215723953D01*
X189517021Y-248632979D02*
X183167021Y-248632979D01*
X233362500Y-208756250D02*
X233362500Y-224631250D01*
X421894000Y-255000296D02*
X421894000Y-257048000D01*
X439166000Y-280543000D02*
X442214000Y-277495000D01*
X246856250Y-248443750D02*
X239712500Y-248443750D01*
X165100000Y-256553242D02*
X165100000Y-257175000D01*
X275463000Y-229870000D02*
X275463000Y-241046000D01*
X459994000Y-216916000D02*
X459994000Y-218694000D01*
X110331250Y-223837500D02*
X106968967Y-227199783D01*
X293069797Y-191482979D02*
X304325021Y-191482979D01*
X349187011Y-249623707D02*
X349187011Y-262446011D01*
X318262000Y-263144000D02*
X318262000Y-274320000D01*
X126206250Y-274463046D02*
X126206250Y-275431250D01*
X115200000Y-203400000D02*
X115200000Y-205687500D01*
X467481739Y-238638261D02*
X470662000Y-235458000D01*
X112712500Y-242887500D02*
X110696526Y-242887500D01*
X165893750Y-199231250D02*
X165893750Y-185737500D01*
X312293000Y-255063796D02*
X312293000Y-256794000D01*
X320401739Y-275736261D02*
X320401739Y-262655261D01*
X191814239Y-255067011D02*
X187325000Y-259556250D01*
X305600000Y-178800000D02*
X305489000Y-178689000D01*
X209550000Y-250825000D02*
X209550000Y-257968750D01*
X210343750Y-233188046D02*
X207168750Y-236363046D01*
X366649000Y-272161557D02*
X366649000Y-265430000D01*
X115200000Y-205687500D02*
X117475000Y-207962500D01*
X136537829Y-197106895D02*
X136537829Y-205594079D01*
X403955761Y-211328000D02*
X403955761Y-214044239D01*
X105568750Y-204787500D02*
X105568750Y-214138046D01*
X179833271Y-253823953D02*
X178593750Y-255063474D01*
X362458718Y-178816000D02*
X348411671Y-192863047D01*
X267600000Y-233081796D02*
X264600000Y-236081796D01*
X241900000Y-194700000D02*
X241900000Y-201000000D01*
X283718000Y-236013796D02*
X286639000Y-233092796D01*
X294418261Y-242283739D02*
X285242000Y-251460000D01*
X305562000Y-232870224D02*
X302387000Y-236045224D01*
X213518750Y-223043750D02*
X218281250Y-227806250D01*
X161796729Y-216028271D02*
X161139932Y-216685068D01*
X223530270Y-192881250D02*
X223530270Y-198924020D01*
X359208943Y-277368000D02*
X359156000Y-277368000D01*
X348411671Y-192863047D02*
X348411671Y-210611090D01*
X353187000Y-180340000D02*
X342044021Y-191482979D01*
X207168750Y-236363046D02*
X207168750Y-237331250D01*
X260795771Y-206595771D02*
X260795771Y-216104229D01*
X259500000Y-218500000D02*
X259600000Y-218600000D01*
X138112500Y-207168750D02*
X138112500Y-222250000D01*
X419354000Y-207246000D02*
X415272000Y-211328000D01*
X394145771Y-216089229D02*
X393319000Y-216916000D01*
X285275021Y-248632979D02*
X278782297Y-248632979D01*
X371287717Y-277031579D02*
X369443000Y-278876296D01*
X306070000Y-262934875D02*
X309245000Y-266109875D01*
X377825000Y-285242000D02*
X379603000Y-283464000D01*
X266065000Y-250444000D02*
X266065000Y-260985000D01*
X256400000Y-229500000D02*
X256400000Y-242710718D01*
X229393750Y-233188046D02*
X226218750Y-236363046D01*
X236983271Y-253823953D02*
X235743750Y-255063474D01*
X440944000Y-235950296D02*
X440944000Y-237363000D01*
X351568261Y-247242457D02*
X349187011Y-249623707D01*
X143668750Y-180181250D02*
X138893421Y-184956579D01*
X103633271Y-266254229D02*
X103633271Y-272873953D01*
X176025217Y-196069079D02*
X173831250Y-198263046D01*
X134143750Y-233188046D02*
X130968750Y-236363046D01*
X380143261Y-189451739D02*
X380143261Y-263255485D01*
X343662000Y-223266000D02*
X343662000Y-233219796D01*
X429387000Y-261493000D02*
X432245771Y-264351771D01*
X313563000Y-242316718D02*
X306070000Y-249809718D01*
X202406250Y-217313046D02*
X202406250Y-218281250D01*
X324739000Y-223266000D02*
X324739000Y-233092796D01*
X303944021Y-248632979D02*
X297594021Y-248632979D01*
X337439000Y-215630296D02*
X336042000Y-217027296D01*
X211137500Y-278606250D02*
X208756250Y-276225000D01*
X138906250Y-245493750D02*
X138906250Y-242887500D01*
X167291163Y-254362079D02*
X165100000Y-256553242D01*
X188118750Y-236363046D02*
X188118750Y-238125000D01*
X448437000Y-223520000D02*
X442725217Y-229231783D01*
X391200000Y-178816000D02*
X390779000Y-178816000D01*
X470662000Y-212598000D02*
X470662000Y-208280000D01*
X403955761Y-261334761D02*
X404241000Y-261620000D01*
X239712500Y-248443750D02*
X236983271Y-251172979D01*
X230981250Y-198263046D02*
X230981250Y-199231250D01*
X256400000Y-242710718D02*
X247100000Y-252010718D01*
X138893421Y-184956579D02*
X138893421Y-191280921D01*
X332613000Y-242570000D02*
X325374000Y-249809000D01*
X165893750Y-185737500D02*
X165893750Y-184150000D01*
X329438000Y-242316000D02*
X323121021Y-248632979D01*
X165100000Y-257175000D02*
X164306250Y-257968750D01*
X342044021Y-191482979D02*
X331122021Y-191482979D01*
X363000000Y-178816000D02*
X362458718Y-178816000D01*
X137318750Y-196325974D02*
X136537829Y-197106895D01*
X178593750Y-242887500D02*
X178593750Y-243670693D01*
X315722000Y-280416000D02*
X320401739Y-275736261D01*
X423418000Y-248539000D02*
X423418000Y-253476296D01*
X369443000Y-278876296D02*
X369443000Y-280289000D01*
X393319000Y-216916000D02*
X393319000Y-218440000D01*
X133000000Y-254800000D02*
X133350000Y-254450000D01*
X232281729Y-195121047D02*
X232281729Y-196962567D01*
X370205000Y-233172000D02*
X349636531Y-253740469D01*
X327755761Y-225139761D02*
X332613000Y-229997000D01*
X328041000Y-192913000D02*
X322072557Y-192913000D01*
X288544000Y-199517000D02*
X288544000Y-197850296D01*
X152400000Y-178800000D02*
X152271729Y-178928271D01*
X230981250Y-280193750D02*
X230187500Y-280193750D01*
X102393750Y-251190276D02*
X102393750Y-253031796D01*
X325374000Y-249809000D02*
X325374000Y-257683000D01*
X222695771Y-215723953D02*
X221456250Y-216963474D01*
X103633271Y-272873953D02*
X102393750Y-274113474D01*
X248443750Y-223043750D02*
X248443750Y-233188046D01*
X267600000Y-223100000D02*
X267600000Y-233081796D01*
X229393750Y-180181250D02*
X229393750Y-186060718D01*
X317945771Y-216089229D02*
X316865000Y-217170000D01*
X173831250Y-198263046D02*
X173831250Y-199231250D01*
X346202000Y-262128000D02*
X336897979Y-271432021D01*
X467868000Y-261620000D02*
X470984009Y-258503991D01*
X265971021Y-248632979D02*
X259621021Y-248632979D01*
X356235000Y-195058915D02*
X356235000Y-196900435D01*
X117475000Y-207962500D02*
X117475000Y-243210718D01*
X322072557Y-192913000D02*
X320401739Y-194583818D01*
X317945771Y-206693771D02*
X317945771Y-216089229D01*
X280162000Y-201168000D02*
X289814000Y-210820000D01*
X363189521Y-205201521D02*
X363189521Y-225582479D01*
X394145771Y-229805229D02*
X394145771Y-235123525D01*
X308864000Y-210947000D02*
X308864000Y-213938443D01*
X260795771Y-216104229D02*
X259500000Y-217400000D01*
X313205898Y-254150898D02*
X312293000Y-255063796D01*
X161139932Y-242878818D02*
X153193750Y-250825000D01*
X97631250Y-200025000D02*
X97631250Y-197913474D01*
X148877021Y-272873953D02*
X147637500Y-274113474D01*
X133350000Y-251050000D02*
X138906250Y-245493750D01*
X247100000Y-252010718D02*
X247100000Y-260500000D01*
X175418750Y-223837500D02*
X175418750Y-208756250D01*
X348411671Y-210611090D02*
X346805761Y-212217000D01*
X361950000Y-274626943D02*
X359208943Y-277368000D01*
X238918750Y-203993750D02*
X241745771Y-206820771D01*
X360807000Y-278003557D02*
X366649000Y-272161557D01*
X370826915Y-180467000D02*
X356235000Y-195058915D01*
X245268750Y-236363046D02*
X245268750Y-237331250D01*
X270510000Y-194992776D02*
X285162776Y-180340000D01*
X104775000Y-236363046D02*
X104775000Y-238125000D01*
X154781250Y-197913474D02*
X154781250Y-199231250D01*
X298895771Y-215723953D02*
X297942000Y-216677724D01*
X289814000Y-210820000D02*
X289814000Y-225699557D01*
X442725217Y-229231783D02*
X442725217Y-234169079D01*
X228292770Y-254486520D02*
X238125000Y-264318750D01*
X380143261Y-263255485D02*
X393687171Y-276799395D01*
X308420771Y-195134229D02*
X308420771Y-197039229D01*
X432530761Y-249777761D02*
X432530761Y-208311239D01*
X250100000Y-198194296D02*
X250100000Y-198900000D01*
X394145771Y-235123525D02*
X393192000Y-236077296D01*
X269494000Y-197850296D02*
X270510000Y-196834296D01*
X269494000Y-199263000D02*
X269494000Y-197850296D01*
X283718000Y-236982000D02*
X283718000Y-236013796D01*
X429387000Y-204470000D02*
X422720771Y-211136229D01*
X103187500Y-216519296D02*
X103187500Y-219075000D01*
X187051739Y-198957989D02*
X194405761Y-206312011D01*
X470662000Y-268097000D02*
X469773000Y-267208000D01*
X294133271Y-252093729D02*
X294133271Y-254173525D01*
X247221526Y-180181250D02*
X232281729Y-195121047D01*
X324739000Y-233092796D02*
X321818000Y-236013796D01*
X213518750Y-209075240D02*
X213518750Y-223043750D01*
X267500000Y-180300000D02*
X266152776Y-180300000D01*
X147637500Y-274113474D02*
X147637500Y-276225000D01*
X395100217Y-247773783D02*
X395100217Y-253219079D01*
X129381250Y-261937500D02*
X129381250Y-271288046D01*
X432530761Y-258921761D02*
X432530761Y-249777761D01*
X257600000Y-179000000D02*
X241900000Y-194700000D01*
X371287717Y-272221283D02*
X371287717Y-277031579D01*
X180118261Y-242781900D02*
X180118261Y-228537011D01*
X133350000Y-254450000D02*
X133350000Y-251050000D01*
X280162000Y-192442468D02*
X280162000Y-201168000D01*
X322994021Y-191482979D02*
X312072021Y-191482979D01*
X218075000Y-178800000D02*
X203993750Y-192881250D01*
X229393750Y-186060718D02*
X223080750Y-192373718D01*
X403955761Y-214044239D02*
X406600000Y-211400000D01*
X152271729Y-178928271D02*
X152271729Y-196978271D01*
X156020771Y-186879229D02*
X156020771Y-196673953D01*
X320401739Y-203899796D02*
X327755761Y-211253818D01*
X298895771Y-206947771D02*
X298895771Y-215723953D01*
X203993750Y-199550240D02*
X213518750Y-209075240D01*
X289433000Y-195119776D02*
X293069797Y-191482979D01*
X148431250Y-261143750D02*
X148877021Y-261589521D01*
X313563000Y-218637443D02*
X313563000Y-242316718D01*
X142875000Y-227012500D02*
X142875000Y-252682224D01*
X316771021Y-248632979D02*
X313205898Y-252198102D01*
X296037000Y-204089000D02*
X298895771Y-206947771D01*
X299329677Y-265557000D02*
X301244000Y-263642677D01*
X195834000Y-242316000D02*
X189517021Y-248632979D01*
X279845771Y-216073525D02*
X279845771Y-206820771D01*
X200818750Y-180181250D02*
X194120771Y-186879229D01*
X223080750Y-192373718D02*
X223080750Y-200818750D01*
X289814000Y-225699557D02*
X294418261Y-230303818D01*
X400812000Y-180721000D02*
X395100217Y-186432783D01*
X400558000Y-223393000D02*
X394145771Y-229805229D01*
X395100217Y-253219079D02*
X393319000Y-255000296D01*
X346805761Y-225541318D02*
X351568261Y-230303818D01*
X275083271Y-252332005D02*
X275083271Y-254173525D01*
X102393750Y-253031796D02*
X100012500Y-255413046D01*
X138893421Y-191280921D02*
X138906250Y-191293750D01*
X218281250Y-242093750D02*
X209550000Y-250825000D01*
X294418261Y-230303818D02*
X294418261Y-242283739D01*
X421894000Y-216916000D02*
X421894000Y-217932000D01*
X238125000Y-273050000D02*
X230981250Y-280193750D01*
X292443000Y-265557000D02*
X299329677Y-265557000D01*
X338582000Y-255016000D02*
X338582000Y-256667000D01*
X236983271Y-251172979D02*
X236983271Y-253823953D01*
X134143750Y-223837500D02*
X134143750Y-233188046D01*
X146495771Y-206820771D02*
X146495771Y-215723953D01*
X199168261Y-219065340D02*
X199168261Y-240569239D01*
X461775217Y-234169079D02*
X458597000Y-237347296D01*
X442214000Y-268605000D02*
X432530761Y-258921761D01*
X100012500Y-255413046D02*
X100012500Y-256381250D01*
X162718750Y-203993750D02*
X165545771Y-206820771D01*
X138112500Y-222250000D02*
X142875000Y-227012500D01*
X203993750Y-192881250D02*
X203993750Y-199550240D01*
X237331250Y-242093750D02*
X228292770Y-251132230D01*
X194405761Y-214302840D02*
X199168261Y-219065340D01*
X291600000Y-266400000D02*
X292443000Y-265557000D01*
X237331250Y-228600000D02*
X237331250Y-242093750D01*
X228292770Y-251132230D02*
X228292770Y-254486520D01*
X432530761Y-208311239D02*
X438023000Y-202819000D01*
X467481739Y-251671182D02*
X467481739Y-238638261D01*
X305562000Y-223139000D02*
X305562000Y-232870224D01*
X429514000Y-223393000D02*
X422720771Y-230186229D01*
X270637000Y-210947000D02*
X270637000Y-225044000D01*
X170656250Y-256381250D02*
X170656250Y-252243911D01*
X334137000Y-180340000D02*
X322994021Y-191482979D01*
X308420771Y-197039229D02*
X307213000Y-198247000D01*
X226218750Y-236363046D02*
X226218750Y-238125000D01*
X279019000Y-216900296D02*
X279845771Y-216073525D01*
X297594021Y-248632979D02*
X294133271Y-252093729D01*
X127445771Y-215723953D02*
X126206250Y-216963474D01*
X339377021Y-254220979D02*
X338582000Y-255016000D01*
X133600000Y-178800000D02*
X133600000Y-180431250D01*
X422720771Y-216089229D02*
X421894000Y-216916000D01*
X266152776Y-180300000D02*
X251270771Y-195182005D01*
X288544000Y-197850296D02*
X289433000Y-196961296D01*
X275463000Y-241046000D02*
X266065000Y-250444000D01*
X422720771Y-211136229D02*
X422720771Y-216089229D01*
X305489000Y-178689000D02*
X293915468Y-178689000D01*
X331122021Y-191482979D02*
X327660000Y-194945000D01*
X461775217Y-229231783D02*
X461775217Y-234169079D01*
X162718750Y-180181250D02*
X156020771Y-186879229D01*
X310261000Y-242316000D02*
X303944021Y-248632979D01*
X208756250Y-268243750D02*
X211000000Y-266000000D01*
X227843250Y-249994250D02*
X227843250Y-257175000D01*
X279019000Y-218313000D02*
X279019000Y-216900296D01*
X460820771Y-210882229D02*
X460820771Y-216089229D01*
X316865000Y-217170000D02*
X316865000Y-218694000D01*
X194120771Y-186879229D02*
X194120771Y-196673953D01*
X349636531Y-261493000D02*
X361828531Y-273685000D01*
X379603000Y-283464000D02*
X385826000Y-283464000D01*
X372364000Y-180467000D02*
X370826915Y-180467000D01*
X208793250Y-249994250D02*
X215900000Y-242887500D01*
X170656250Y-252243911D02*
X175731331Y-247168830D01*
X270637000Y-225044000D02*
X275463000Y-229870000D01*
X124618750Y-204787500D02*
X127445771Y-207614521D01*
X297942000Y-216677724D02*
X297942000Y-218440000D01*
X274447000Y-254809796D02*
X274447000Y-256540000D01*
X261080761Y-192563239D02*
X261080761Y-201390761D01*
X346805761Y-212217000D02*
X346805761Y-225541318D01*
X238125000Y-264318750D02*
X238125000Y-273050000D01*
X336042000Y-217027296D02*
X336042000Y-218694000D01*
X332613000Y-229997000D02*
X332613000Y-242570000D01*
X179833271Y-251966729D02*
X179833271Y-253823953D01*
X165893750Y-184150000D02*
X171450000Y-178593750D01*
X219868750Y-203993750D02*
X222695771Y-206820771D01*
X138906250Y-257175000D02*
X138906250Y-276225000D01*
X320401739Y-262655261D02*
X323850000Y-259207000D01*
X355219000Y-197916435D02*
X355219000Y-199517000D01*
X183356250Y-217313046D02*
X183356250Y-218281250D01*
X152271729Y-196978271D02*
X151650829Y-197599171D01*
X98870771Y-187672979D02*
X105568750Y-180975000D01*
X191293750Y-233188046D02*
X188118750Y-236363046D01*
X323121021Y-248632979D02*
X316771021Y-248632979D01*
X451580761Y-255619043D02*
X451580761Y-208311239D01*
X277000000Y-179000000D02*
X274644000Y-179000000D01*
X324400000Y-178943000D02*
X320294000Y-178943000D01*
X218281250Y-278606250D02*
X211137500Y-278606250D01*
X143668750Y-203993750D02*
X146495771Y-206820771D01*
X156020771Y-196673953D02*
X154781250Y-197913474D01*
X442214000Y-277495000D02*
X442214000Y-268605000D01*
X327660000Y-196834296D02*
X326263000Y-198231296D01*
X278782297Y-248632979D02*
X275083271Y-252332005D01*
X106968967Y-227199783D02*
X106968967Y-234169079D01*
X326263000Y-198231296D02*
X326263000Y-199771000D01*
X431419000Y-274116435D02*
X431419000Y-275463000D01*
X451580761Y-208311239D02*
X457200000Y-202692000D01*
X360807000Y-282575000D02*
X360807000Y-278003557D01*
X114300000Y-246385718D02*
X114300000Y-278606250D01*
X176212500Y-224631250D02*
X175418750Y-223837500D01*
X224631250Y-262568750D02*
X224631250Y-261143750D01*
X312072021Y-191482979D02*
X308420771Y-195134229D01*
X470662000Y-208280000D02*
X476123000Y-202819000D01*
X175418750Y-208756250D02*
X165893750Y-199231250D01*
X167902364Y-254362079D02*
X167291163Y-254362079D01*
X306324000Y-192913000D02*
X302514000Y-192913000D01*
X184595771Y-206820771D02*
X184595771Y-216073525D01*
X329262275Y-271432021D02*
X326390000Y-274304296D01*
X442725217Y-234169079D02*
X440944000Y-235950296D01*
X400939000Y-204343000D02*
X394145771Y-211136229D01*
X191000000Y-178887500D02*
X187051739Y-182835761D01*
X240506250Y-216963474D02*
X240506250Y-219075000D01*
X129381250Y-271288046D02*
X126206250Y-274463046D01*
X423418000Y-253476296D02*
X421894000Y-255000296D01*
X98870771Y-196673953D02*
X98870771Y-187672979D01*
X191814239Y-247923261D02*
X191814239Y-255067011D01*
X203645771Y-206820771D02*
X203645771Y-216073525D01*
X234950000Y-242887500D02*
X227843250Y-249994250D01*
X218281250Y-227806250D02*
X218281250Y-242093750D01*
X351568261Y-230303818D02*
X351568261Y-247242457D01*
X390779000Y-178816000D02*
X380143261Y-189451739D01*
X363189521Y-225582479D02*
X362204000Y-226568000D01*
X238800000Y-178800000D02*
X237611520Y-178800000D01*
X194120771Y-196673953D02*
X192881250Y-197913474D01*
X256033271Y-254125729D02*
X254889000Y-255270000D01*
X232281729Y-196962567D02*
X230981250Y-198263046D01*
X251555761Y-224655761D02*
X256400000Y-229500000D01*
X301244000Y-263642677D02*
X301244000Y-261620000D01*
X208793250Y-255600000D02*
X208793250Y-249994250D01*
X272542000Y-242062000D02*
X265971021Y-248632979D01*
X187051739Y-182835761D02*
X187051739Y-198957989D01*
X270510000Y-196834296D02*
X270510000Y-194992776D01*
X337439000Y-207391000D02*
X337439000Y-215630296D01*
X248443750Y-233188046D02*
X245268750Y-236363046D01*
X172243750Y-223043750D02*
X172243750Y-233188046D01*
X259500000Y-218200000D02*
X259500000Y-218500000D01*
X294133271Y-254173525D02*
X292989000Y-255317796D01*
X203645771Y-216073525D02*
X202406250Y-217313046D01*
X285162776Y-180340000D02*
X286385000Y-180340000D01*
X306070000Y-249809718D02*
X306070000Y-262934875D01*
X251270771Y-197023525D02*
X250100000Y-198194296D01*
X304325021Y-191482979D02*
X315341000Y-180467000D01*
X359156000Y-277368000D02*
X359029000Y-277495000D01*
X470662000Y-235458000D02*
X470662000Y-212598000D01*
X165545771Y-216073525D02*
X164306250Y-217313046D01*
X289433000Y-196961296D02*
X289433000Y-195119776D01*
X343800000Y-178800000D02*
X342154000Y-178800000D01*
X469773000Y-267208000D02*
X463169718Y-267208000D01*
X183167021Y-248632979D02*
X179833271Y-251966729D01*
X403955761Y-214044239D02*
X403955761Y-261334761D01*
X254889000Y-255270000D02*
X254889000Y-256286000D01*
X422720771Y-230186229D02*
X422720771Y-235123525D01*
X152400000Y-250814443D02*
X152400000Y-254000000D01*
X470984009Y-255173452D02*
X467481739Y-251671182D01*
X229393750Y-223043750D02*
X229393750Y-233188046D01*
X320401739Y-194583818D02*
X320401739Y-203899796D01*
X241745771Y-206820771D02*
X241745771Y-215723953D01*
X421894000Y-235950296D02*
X421894000Y-237109000D01*
X208756250Y-276225000D02*
X208756250Y-268243750D01*
X257600000Y-178800000D02*
X257600000Y-179000000D01*
X377190000Y-266319000D02*
X371287717Y-272221283D01*
X221456250Y-216963474D02*
X221456250Y-218281250D01*
X356235000Y-196900435D02*
X355219000Y-197916435D01*
X181768750Y-180181250D02*
X176025217Y-185924783D01*
X191293750Y-223043750D02*
X191293750Y-233188046D01*
X233362500Y-224631250D02*
X237331250Y-228600000D01*
X275083271Y-254173525D02*
X274447000Y-254809796D01*
X97631250Y-197913474D02*
X98870771Y-196673953D01*
X151650829Y-197599171D02*
X151650829Y-202450829D01*
X153193750Y-255587500D02*
X160634230Y-263027980D01*
X308864000Y-213938443D02*
X313563000Y-218637443D01*
X321818000Y-236013796D02*
X321818000Y-237490000D01*
X200818750Y-203993750D02*
X203645771Y-206820771D01*
X126206250Y-216963474D02*
X126206250Y-218281250D01*
X274644000Y-179000000D02*
X261080761Y-192563239D01*
X130968750Y-236363046D02*
X130968750Y-237331250D01*
X307213000Y-198247000D02*
X307213000Y-199136000D01*
X362839000Y-204851000D02*
X363189521Y-205201521D01*
X180118261Y-228537011D02*
X176212500Y-224631250D01*
X393687171Y-282816171D02*
X396113000Y-285242000D01*
X181768750Y-203993750D02*
X184595771Y-206820771D01*
X327755761Y-211253818D02*
X327755761Y-225139761D01*
X349636531Y-253740469D02*
X349636531Y-261493000D01*
X393192000Y-236077296D02*
X393192000Y-238252000D01*
X291465000Y-242443000D02*
X285275021Y-248632979D01*
X127445771Y-207614521D02*
X127445771Y-215723953D01*
X429514000Y-242443000D02*
X423418000Y-248539000D01*
X448945000Y-262001000D02*
X448945000Y-270256000D01*
X327660000Y-194945000D02*
X327660000Y-196834296D01*
X258200000Y-204000000D02*
X260795771Y-206595771D01*
X468165326Y-279316326D02*
X470662000Y-276819652D01*
X235743750Y-255063474D02*
X235743750Y-256381250D01*
X264600000Y-236081796D02*
X264600000Y-238000000D01*
X394145771Y-211136229D02*
X394145771Y-216089229D01*
X406600000Y-211400000D02*
X406800000Y-211400000D01*
X395100217Y-196069079D02*
X393319000Y-197850296D01*
X458597000Y-237347296D02*
X458597000Y-240196348D01*
X117475000Y-243210718D02*
X114300000Y-246385718D01*
X153193750Y-250825000D02*
X153193750Y-255587500D01*
X348361000Y-241935000D02*
X339377021Y-250918979D01*
X448945000Y-270256000D02*
X457327000Y-278638000D01*
X334264000Y-204216000D02*
X337439000Y-207391000D01*
X146495771Y-215723953D02*
X145256250Y-216963474D01*
X106968967Y-234169079D02*
X104775000Y-236363046D01*
X470984009Y-258503991D02*
X470984009Y-255173452D01*
X157956250Y-245258193D02*
X152400000Y-250814443D01*
X161796729Y-212596729D02*
X161796729Y-216028271D01*
X361950000Y-273685000D02*
X361950000Y-274626943D01*
X336897979Y-271432021D02*
X329262275Y-271432021D01*
X160634230Y-263027980D02*
X160634230Y-275727980D01*
X458597000Y-240196348D02*
X458235674Y-240557674D01*
X199168261Y-240569239D02*
X191814239Y-247923261D01*
X153193750Y-232838474D02*
X150018750Y-236013474D01*
X102393750Y-274113474D02*
X102393750Y-275431250D01*
X261080761Y-201390761D02*
X270637000Y-210947000D01*
X301351739Y-194075261D02*
X301351739Y-203434739D01*
X176025217Y-185924783D02*
X176025217Y-196069079D01*
X320294000Y-178943000D02*
X306324000Y-192913000D01*
X148877021Y-261589521D02*
X148877021Y-272873953D01*
X221200000Y-266000000D02*
X224631250Y-262568750D01*
X157956250Y-242093750D02*
X157956250Y-245258193D01*
X192881250Y-197913474D02*
X192881250Y-199231250D01*
X195834000Y-242062000D02*
X195834000Y-242316000D01*
X194405761Y-206312011D02*
X194405761Y-214302840D01*
X339377021Y-250918979D02*
X339377021Y-254220979D01*
X315595000Y-276987000D02*
X312166000Y-276987000D01*
X140635203Y-254922021D02*
X140635203Y-255446047D01*
X293915468Y-178689000D02*
X280162000Y-192442468D01*
X256033271Y-252220729D02*
X256033271Y-254125729D01*
X279845771Y-206820771D02*
X277114000Y-204089000D01*
X292989000Y-255317796D02*
X292989000Y-256159000D01*
X161139932Y-216685068D02*
X161139932Y-242878818D01*
X105568750Y-214138046D02*
X103187500Y-216519296D01*
X395100217Y-186432783D02*
X395100217Y-196069079D01*
X422720771Y-235123525D02*
X421894000Y-235950296D01*
X172243750Y-233188046D02*
X169068750Y-236363046D01*
X140635203Y-255446047D02*
X138906250Y-257175000D01*
X145256250Y-216963474D02*
X145256250Y-218281250D01*
X463169718Y-267208000D02*
X451580761Y-255619043D01*
X349187011Y-262446011D02*
X358775000Y-272034000D01*
X315214000Y-203962000D02*
X317945771Y-206693771D01*
X160634230Y-275727980D02*
X161131250Y-276225000D01*
X165545771Y-206820771D02*
X165545771Y-216073525D01*
X432245771Y-264351771D02*
X432245771Y-273289664D01*
X153193750Y-223043750D02*
X153193750Y-232838474D01*
X175731331Y-247168830D02*
X180118261Y-242781900D01*
X302514000Y-192913000D02*
X301351739Y-194075261D01*
X107950000Y-261937500D02*
X103633271Y-266254229D01*
X393319000Y-255000296D02*
X393319000Y-256540000D01*
%TD*%
%TA.AperFunction,Conductor*%
%TO.N,GND*%
G36*
X491301265Y-164022501D02*
G01*
X491314319Y-164024534D01*
X491324958Y-164026191D01*
X491337635Y-164024534D01*
X491364948Y-164023951D01*
X491454835Y-164031818D01*
X491507614Y-164036437D01*
X491529243Y-164040251D01*
X491689623Y-164083229D01*
X491710245Y-164090735D01*
X491860737Y-164160914D01*
X491879745Y-164171890D01*
X492015754Y-164267128D01*
X492032578Y-164281246D01*
X492149979Y-164398651D01*
X492164096Y-164415476D01*
X492259324Y-164551480D01*
X492270305Y-164570500D01*
X492340472Y-164720975D01*
X492347984Y-164741614D01*
X492390954Y-164901987D01*
X492394768Y-164923615D01*
X492406665Y-165059598D01*
X492406118Y-165075872D01*
X492406550Y-165075877D01*
X492406440Y-165084853D01*
X492405059Y-165093724D01*
X492406223Y-165102626D01*
X492406223Y-165102628D01*
X492409186Y-165125283D01*
X492410250Y-165141621D01*
X492410250Y-176474000D01*
X492390248Y-176542121D01*
X492336592Y-176588614D01*
X492284250Y-176600000D01*
X481400094Y-176600000D01*
X481331973Y-176579998D01*
X481285480Y-176526342D01*
X481275376Y-176456068D01*
X481304870Y-176391488D01*
X481310999Y-176384905D01*
X484184166Y-173511738D01*
X484190057Y-173506545D01*
X484193443Y-173504542D01*
X484207764Y-173490221D01*
X484222798Y-173477380D01*
X484232775Y-173470131D01*
X484239188Y-173465472D01*
X484267379Y-173431395D01*
X484275359Y-173422626D01*
X485240197Y-172457789D01*
X485302507Y-172423765D01*
X485373323Y-172428830D01*
X485418385Y-172457791D01*
X486031840Y-173071246D01*
X486065866Y-173133558D01*
X486065390Y-173189222D01*
X486056994Y-173224879D01*
X486057000Y-173232195D01*
X486057000Y-173232198D01*
X486057071Y-173313505D01*
X486057148Y-173401749D01*
X486097987Y-173573841D01*
X486101269Y-173580380D01*
X486101269Y-173580381D01*
X486174235Y-173725772D01*
X486177321Y-173731921D01*
X486181663Y-173737254D01*
X486181664Y-173737256D01*
X486241587Y-173810860D01*
X486241593Y-173810866D01*
X486243618Y-173813354D01*
X486986646Y-174556382D01*
X486989176Y-174558436D01*
X486989180Y-174558440D01*
X487063840Y-174619064D01*
X487063844Y-174619066D01*
X487069193Y-174623410D01*
X487227413Y-174702468D01*
X487293981Y-174718142D01*
X487392451Y-174741329D01*
X487392455Y-174741329D01*
X487399575Y-174743006D01*
X487406891Y-174743000D01*
X487406894Y-174743000D01*
X487488201Y-174742929D01*
X487576445Y-174742852D01*
X487662491Y-174722432D01*
X487741416Y-174703703D01*
X487741417Y-174703703D01*
X487748537Y-174702013D01*
X487906617Y-174622679D01*
X487911952Y-174618336D01*
X487985556Y-174558413D01*
X487985562Y-174558407D01*
X487988050Y-174556382D01*
X488412880Y-174131552D01*
X488414938Y-174129018D01*
X488475562Y-174054358D01*
X488475564Y-174054354D01*
X488479908Y-174049005D01*
X488558966Y-173890785D01*
X488577198Y-173813354D01*
X488597827Y-173725747D01*
X488597827Y-173725743D01*
X488599504Y-173718623D01*
X488599350Y-173541753D01*
X488598119Y-173536567D01*
X488609901Y-173467385D01*
X488657766Y-173414950D01*
X488726382Y-173396717D01*
X488737603Y-173397510D01*
X488750453Y-173398997D01*
X488912571Y-173398856D01*
X488927007Y-173397160D01*
X489084744Y-173359727D01*
X489098409Y-173354754D01*
X489243695Y-173281842D01*
X489255178Y-173274413D01*
X489328739Y-173214524D01*
X489333492Y-173210233D01*
X489351198Y-173192526D01*
X489358810Y-173178585D01*
X489358679Y-173176750D01*
X489354428Y-173170136D01*
X488313673Y-172129381D01*
X489036159Y-172129381D01*
X489036290Y-172131214D01*
X489040541Y-172137829D01*
X489710406Y-172807694D01*
X489724350Y-172815308D01*
X489726183Y-172815177D01*
X489732798Y-172810926D01*
X489753698Y-172790026D01*
X489758047Y-172785203D01*
X489818646Y-172710573D01*
X489826068Y-172699062D01*
X489898722Y-172553661D01*
X489903672Y-172539987D01*
X489940827Y-172382188D01*
X489942499Y-172367743D01*
X489942358Y-172205627D01*
X489940662Y-172191191D01*
X489903229Y-172033454D01*
X489898256Y-172019789D01*
X489825344Y-171874503D01*
X489817915Y-171863020D01*
X489758035Y-171789470D01*
X489753725Y-171784696D01*
X489576927Y-171607899D01*
X489562989Y-171600288D01*
X489561153Y-171600420D01*
X489554541Y-171604669D01*
X489043773Y-172115437D01*
X489036159Y-172129381D01*
X488313673Y-172129381D01*
X487633096Y-171448804D01*
X487619152Y-171441190D01*
X487617319Y-171441321D01*
X487610704Y-171445572D01*
X487589804Y-171466472D01*
X487585455Y-171471295D01*
X487524856Y-171545925D01*
X487517434Y-171557436D01*
X487444780Y-171702837D01*
X487439830Y-171716511D01*
X487402675Y-171874310D01*
X487401003Y-171888755D01*
X487401144Y-172050870D01*
X487402471Y-172062168D01*
X487390554Y-172132158D01*
X487342690Y-172184593D01*
X487274075Y-172202828D01*
X487263720Y-172202096D01*
X487256923Y-172200496D01*
X487249607Y-172200502D01*
X487249604Y-172200502D01*
X487168297Y-172200573D01*
X487080053Y-172200650D01*
X487072934Y-172202339D01*
X487072929Y-172202340D01*
X487045855Y-172208765D01*
X486974957Y-172205032D01*
X486927668Y-172175265D01*
X486650165Y-171897762D01*
X486616139Y-171835450D01*
X486621204Y-171764635D01*
X486650165Y-171719572D01*
X487133638Y-171236099D01*
X487133647Y-171236089D01*
X487136061Y-171233675D01*
X487141990Y-171226301D01*
X487170305Y-171191085D01*
X487170307Y-171191082D01*
X487175254Y-171184929D01*
X487223911Y-171077913D01*
X487984692Y-171077913D01*
X487984823Y-171079748D01*
X487989074Y-171086362D01*
X488658939Y-171756227D01*
X488672883Y-171763841D01*
X488674716Y-171763710D01*
X488681331Y-171759459D01*
X489192097Y-171248693D01*
X489199711Y-171234749D01*
X489199580Y-171232916D01*
X489195329Y-171226301D01*
X489015330Y-171046302D01*
X489010507Y-171041953D01*
X488935877Y-170981354D01*
X488924366Y-170973932D01*
X488778965Y-170901278D01*
X488765291Y-170896328D01*
X488607492Y-170859173D01*
X488593047Y-170857501D01*
X488430931Y-170857642D01*
X488416495Y-170859338D01*
X488258758Y-170896771D01*
X488245093Y-170901744D01*
X488099807Y-170974656D01*
X488088324Y-170982085D01*
X488014763Y-171041974D01*
X488010010Y-171046265D01*
X487992304Y-171063972D01*
X487984692Y-171077913D01*
X487223911Y-171077913D01*
X487235542Y-171052333D01*
X487236814Y-171043448D01*
X487236817Y-171043439D01*
X487249387Y-170955662D01*
X487278844Y-170891065D01*
X487338548Y-170852648D01*
X487356250Y-170848797D01*
X487443303Y-170836329D01*
X487460366Y-170831339D01*
X487577462Y-170778101D01*
X487590818Y-170769876D01*
X487630694Y-170737815D01*
X487635773Y-170733257D01*
X487969915Y-170399115D01*
X487977529Y-170385171D01*
X487977398Y-170383336D01*
X487973148Y-170376723D01*
X487108743Y-169512318D01*
X487074717Y-169450006D01*
X487076552Y-169424355D01*
X487743266Y-169424355D01*
X487743397Y-169426188D01*
X487747648Y-169432803D01*
X488329130Y-170014284D01*
X488343068Y-170021895D01*
X488344904Y-170021763D01*
X488351516Y-170017514D01*
X488688902Y-169680127D01*
X488693444Y-169675064D01*
X488725512Y-169635182D01*
X488733735Y-169621828D01*
X488786974Y-169504731D01*
X488791964Y-169487668D01*
X488810048Y-169361400D01*
X488810048Y-169343624D01*
X488791964Y-169217357D01*
X488786974Y-169200294D01*
X488733736Y-169083198D01*
X488725511Y-169069842D01*
X488693450Y-169029966D01*
X488688892Y-169024887D01*
X488425460Y-168761455D01*
X488411516Y-168753841D01*
X488409683Y-168753972D01*
X488403068Y-168758223D01*
X487750880Y-169410411D01*
X487743266Y-169424355D01*
X487076552Y-169424355D01*
X487079782Y-169379191D01*
X487108743Y-169334128D01*
X488040626Y-168402245D01*
X488048240Y-168388301D01*
X488048109Y-168386468D01*
X488043858Y-168379854D01*
X487777183Y-168113179D01*
X487772120Y-168108637D01*
X487732238Y-168076569D01*
X487718884Y-168068346D01*
X487633868Y-168029692D01*
X487580134Y-167983289D01*
X487571317Y-167967143D01*
X487532075Y-167880834D01*
X487532074Y-167880833D01*
X487528808Y-167873649D01*
X487523861Y-167867496D01*
X487523859Y-167867493D01*
X487491755Y-167827565D01*
X487489615Y-167824903D01*
X486573016Y-166908304D01*
X486556280Y-166894848D01*
X486530426Y-166874060D01*
X486530423Y-166874058D01*
X486524270Y-166869111D01*
X486391674Y-166808823D01*
X486382787Y-166807550D01*
X486382786Y-166807550D01*
X486256370Y-166789447D01*
X486247488Y-166788175D01*
X486238606Y-166789447D01*
X486112190Y-166807550D01*
X486112189Y-166807550D01*
X486103302Y-166808823D01*
X485970706Y-166869111D01*
X485964553Y-166874058D01*
X485964550Y-166874060D01*
X485921960Y-166908304D01*
X485921247Y-166907418D01*
X485861410Y-166935998D01*
X485790973Y-166927104D01*
X485752242Y-166900702D01*
X485059287Y-166207747D01*
X485051747Y-166199461D01*
X485047635Y-166192982D01*
X484997983Y-166146356D01*
X484995142Y-166143602D01*
X484975405Y-166123865D01*
X484972208Y-166121385D01*
X484963186Y-166113680D01*
X484936735Y-166088841D01*
X484930956Y-166083414D01*
X484924010Y-166079595D01*
X484924007Y-166079593D01*
X484913201Y-166073652D01*
X484896682Y-166062801D01*
X484896218Y-166062441D01*
X484880676Y-166050386D01*
X484873407Y-166047241D01*
X484873403Y-166047238D01*
X484840098Y-166032826D01*
X484829448Y-166027609D01*
X484790695Y-166006305D01*
X484771072Y-166001267D01*
X484752369Y-165994863D01*
X484741055Y-165989967D01*
X484741054Y-165989967D01*
X484733780Y-165986819D01*
X484725957Y-165985580D01*
X484725947Y-165985577D01*
X484690111Y-165979901D01*
X484678491Y-165977495D01*
X484643346Y-165968472D01*
X484643345Y-165968472D01*
X484635665Y-165966500D01*
X484615411Y-165966500D01*
X484595700Y-165964949D01*
X484583521Y-165963020D01*
X484575692Y-165961780D01*
X484567800Y-165962526D01*
X484531674Y-165965941D01*
X484519816Y-165966500D01*
X483788426Y-165966500D01*
X483720305Y-165946498D01*
X483699331Y-165929595D01*
X483613354Y-165843618D01*
X483610820Y-165841560D01*
X483536160Y-165780936D01*
X483536156Y-165780934D01*
X483530807Y-165776590D01*
X483372587Y-165697532D01*
X483306019Y-165681858D01*
X483207549Y-165658671D01*
X483207545Y-165658671D01*
X483200425Y-165656994D01*
X483193109Y-165657000D01*
X483193106Y-165657000D01*
X483111799Y-165657071D01*
X483023555Y-165657148D01*
X482937509Y-165677567D01*
X482858584Y-165696297D01*
X482858583Y-165696297D01*
X482851463Y-165697987D01*
X482693383Y-165777321D01*
X482688050Y-165781663D01*
X482688048Y-165781664D01*
X482614444Y-165841587D01*
X482614438Y-165841593D01*
X482611950Y-165843618D01*
X482187120Y-166268448D01*
X482185066Y-166270978D01*
X482185062Y-166270982D01*
X482124438Y-166345642D01*
X482124436Y-166345646D01*
X482120092Y-166350995D01*
X482041034Y-166509215D01*
X482000496Y-166681377D01*
X482000650Y-166858247D01*
X482001881Y-166863433D01*
X481990099Y-166932615D01*
X481942234Y-166985050D01*
X481873618Y-167003283D01*
X481862397Y-167002490D01*
X481849547Y-167001003D01*
X481687429Y-167001144D01*
X481672993Y-167002840D01*
X481515256Y-167040273D01*
X481501591Y-167045246D01*
X481356305Y-167118158D01*
X481344822Y-167125587D01*
X481271261Y-167185476D01*
X481266508Y-167189767D01*
X481248802Y-167207474D01*
X481241190Y-167221415D01*
X481241321Y-167223250D01*
X481245572Y-167229864D01*
X482198364Y-168182656D01*
X482232390Y-168244968D01*
X482227325Y-168315783D01*
X482198364Y-168360846D01*
X481407903Y-169151307D01*
X481400289Y-169165251D01*
X481400420Y-169167084D01*
X481404671Y-169173699D01*
X481584670Y-169353698D01*
X481589493Y-169358047D01*
X481664123Y-169418646D01*
X481675634Y-169426068D01*
X481821035Y-169498722D01*
X481834709Y-169503672D01*
X481992508Y-169540827D01*
X482006953Y-169542499D01*
X482040392Y-169542470D01*
X482108530Y-169562414D01*
X482155069Y-169616029D01*
X482166500Y-169668470D01*
X482166500Y-172685406D01*
X482146498Y-172753527D01*
X482129595Y-172774501D01*
X478615095Y-176289001D01*
X478552783Y-176323027D01*
X478481968Y-176317962D01*
X478425132Y-176275415D01*
X478400321Y-176208895D01*
X478400000Y-176199906D01*
X478400000Y-168032257D01*
X480657501Y-168032257D01*
X480657642Y-168194373D01*
X480659338Y-168208809D01*
X480696771Y-168366546D01*
X480701744Y-168380211D01*
X480774656Y-168525497D01*
X480782085Y-168536980D01*
X480841965Y-168610530D01*
X480846275Y-168615304D01*
X481023073Y-168792101D01*
X481037011Y-168799712D01*
X481038847Y-168799580D01*
X481045459Y-168795331D01*
X481556227Y-168284563D01*
X481563841Y-168270619D01*
X481563710Y-168268786D01*
X481559459Y-168262171D01*
X480889594Y-167592306D01*
X480875650Y-167584692D01*
X480873817Y-167584823D01*
X480867202Y-167589074D01*
X480846302Y-167609974D01*
X480841953Y-167614797D01*
X480781354Y-167689427D01*
X480773932Y-167700938D01*
X480701278Y-167846339D01*
X480696328Y-167860013D01*
X480659173Y-168017812D01*
X480657501Y-168032257D01*
X478400000Y-168032257D01*
X478400000Y-164147000D01*
X478420002Y-164078879D01*
X478473658Y-164032386D01*
X478526000Y-164021000D01*
X491281875Y-164021000D01*
X491301265Y-164022501D01*
G37*
%TD.AperFunction*%
%TA.AperFunction,Conductor*%
G36*
X484665174Y-169477701D02*
G01*
X484710237Y-169506662D01*
X484891257Y-169687682D01*
X484925283Y-169749994D01*
X484920218Y-169820809D01*
X484891257Y-169865872D01*
X483959374Y-170797755D01*
X483951760Y-170811699D01*
X483951891Y-170813532D01*
X483956142Y-170820146D01*
X484222817Y-171086821D01*
X484227880Y-171091363D01*
X484267762Y-171123431D01*
X484281116Y-171131654D01*
X484366132Y-171170308D01*
X484419866Y-171216711D01*
X484428682Y-171232857D01*
X484469001Y-171321533D01*
X484478989Y-171391824D01*
X484449388Y-171456356D01*
X484443396Y-171462780D01*
X483648595Y-172257581D01*
X483586283Y-172291607D01*
X483515468Y-172286542D01*
X483458632Y-172243995D01*
X483433821Y-172177475D01*
X483433500Y-172168486D01*
X483433500Y-170573894D01*
X483453502Y-170505773D01*
X483507158Y-170459280D01*
X483551870Y-170452851D01*
X483551580Y-170448799D01*
X483590317Y-170446028D01*
X483596932Y-170441777D01*
X484532047Y-169506662D01*
X484594359Y-169472636D01*
X484665174Y-169477701D01*
G37*
%TD.AperFunction*%
%TD*%
M02*
