%TF.GenerationSoftware,KiCad,Pcbnew,(6.0.4)*%
%TF.CreationDate,2022-04-19T22:35:02+02:00*%
%TF.ProjectId,pcb,7063622e-6b69-4636-9164-5f7063625858,rev?*%
%TF.SameCoordinates,Original*%
%TF.FileFunction,Soldermask,Top*%
%TF.FilePolarity,Negative*%
%FSLAX46Y46*%
G04 Gerber Fmt 4.6, Leading zero omitted, Abs format (unit mm)*
G04 Created by KiCad (PCBNEW (6.0.4)) date 2022-04-19 22:35:02*
%MOMM*%
%LPD*%
G01*
G04 APERTURE LIST*
G04 Aperture macros list*
%AMRoundRect*
0 Rectangle with rounded corners*
0 $1 Rounding radius*
0 $2 $3 $4 $5 $6 $7 $8 $9 X,Y pos of 4 corners*
0 Add a 4 corners polygon primitive as box body*
4,1,4,$2,$3,$4,$5,$6,$7,$8,$9,$2,$3,0*
0 Add four circle primitives for the rounded corners*
1,1,$1+$1,$2,$3*
1,1,$1+$1,$4,$5*
1,1,$1+$1,$6,$7*
1,1,$1+$1,$8,$9*
0 Add four rect primitives between the rounded corners*
20,1,$1+$1,$2,$3,$4,$5,0*
20,1,$1+$1,$4,$5,$6,$7,0*
20,1,$1+$1,$6,$7,$8,$9,0*
20,1,$1+$1,$8,$9,$2,$3,0*%
%AMRotRect*
0 Rectangle, with rotation*
0 The origin of the aperture is its center*
0 $1 length*
0 $2 width*
0 $3 Rotation angle, in degrees counterclockwise*
0 Add horizontal line*
21,1,$1,$2,0,0,$3*%
G04 Aperture macros list end*
%ADD10C,3.000000*%
%ADD11C,1.701800*%
%ADD12C,3.987800*%
%ADD13R,1.800000X1.100000*%
%ADD14RoundRect,0.250000X0.512652X0.159099X0.159099X0.512652X-0.512652X-0.159099X-0.159099X-0.512652X0*%
%ADD15RoundRect,0.250000X-0.159099X0.512652X-0.512652X0.159099X0.159099X-0.512652X0.512652X-0.159099X0*%
%ADD16RoundRect,0.250000X-0.132583X0.503814X-0.503814X0.132583X0.132583X-0.503814X0.503814X-0.132583X0*%
%ADD17RoundRect,0.250000X0.159099X-0.512652X0.512652X-0.159099X-0.159099X0.512652X-0.512652X0.159099X0*%
%ADD18RotRect,1.500000X0.550000X45.000000*%
%ADD19RotRect,1.500000X0.550000X135.000000*%
%ADD20C,3.048000*%
%ADD21RoundRect,0.250000X0.503814X0.132583X0.132583X0.503814X-0.503814X-0.132583X-0.132583X-0.503814X0*%
%ADD22RotRect,1.400000X1.200000X225.000000*%
%ADD23RoundRect,0.250000X0.132583X-0.503814X0.503814X-0.132583X-0.132583X0.503814X-0.503814X0.132583X0*%
%ADD24C,0.650000*%
%ADD25O,1.000000X1.600000*%
%ADD26O,1.000000X2.100000*%
G04 APERTURE END LIST*
D10*
%TO.C,MX20*%
X163671250Y-214947500D03*
D11*
X162401250Y-217487500D03*
D10*
X170021250Y-212407500D03*
D12*
X167481250Y-217487500D03*
D11*
X172561250Y-217487500D03*
%TD*%
D12*
%TO.C,MX91*%
X443706250Y-236537500D03*
D10*
X439896250Y-233997500D03*
D11*
X438626250Y-236537500D03*
X448786250Y-236537500D03*
D10*
X446246250Y-231457500D03*
%TD*%
D13*
%TO.C,SW1*%
X472500000Y-185150000D03*
X478700000Y-188850000D03*
X472500000Y-188850000D03*
X478700000Y-185150000D03*
%TD*%
D11*
%TO.C,MX11*%
X134461250Y-274637500D03*
D10*
X125571250Y-272097500D03*
D11*
X124301250Y-274637500D03*
D12*
X129381250Y-274637500D03*
D10*
X131921250Y-269557500D03*
%TD*%
D12*
%TO.C,MX89*%
X443706250Y-198437500D03*
D10*
X439896250Y-195897500D03*
D11*
X438626250Y-198437500D03*
D10*
X446246250Y-193357500D03*
D11*
X448786250Y-198437500D03*
%TD*%
D10*
%TO.C,MX34*%
X211296250Y-195897500D03*
X217646250Y-193357500D03*
D11*
X220186250Y-198437500D03*
X210026250Y-198437500D03*
D12*
X215106250Y-198437500D03*
%TD*%
%TO.C,MX46*%
X262731250Y-217487500D03*
D10*
X265271250Y-212407500D03*
D11*
X267811250Y-217487500D03*
X257651250Y-217487500D03*
D10*
X258921250Y-214947500D03*
%TD*%
%TO.C,MX37*%
X216058750Y-253047500D03*
D11*
X224948750Y-255587500D03*
D10*
X222408750Y-250507500D03*
D11*
X214788750Y-255587500D03*
D12*
X219868750Y-255587500D03*
%TD*%
%TO.C,MX104*%
X307975000Y-274637500D03*
D10*
X304165000Y-272097500D03*
D11*
X313055000Y-274637500D03*
D10*
X310515000Y-269557500D03*
D11*
X302895000Y-274637500D03*
%TD*%
%TO.C,MX70*%
X336232500Y-255587500D03*
D12*
X341312500Y-255587500D03*
D10*
X337502500Y-253047500D03*
X343852500Y-250507500D03*
D11*
X346392500Y-255587500D03*
%TD*%
D14*
%TO.C,C4*%
X462871751Y-187471751D03*
X461528249Y-186128249D03*
%TD*%
D15*
%TO.C,C8*%
X438271751Y-185328249D03*
X436928249Y-186671751D03*
%TD*%
D10*
%TO.C,MX18*%
X160496250Y-169545000D03*
D11*
X163036250Y-174625000D03*
D12*
X157956250Y-174625000D03*
D10*
X154146250Y-172085000D03*
D11*
X152876250Y-174625000D03*
%TD*%
%TO.C,MX55*%
X286226250Y-198437500D03*
D12*
X291306250Y-198437500D03*
D11*
X296386250Y-198437500D03*
D10*
X287496250Y-195897500D03*
X293846250Y-193357500D03*
%TD*%
%TO.C,MX13*%
X135096250Y-195897500D03*
D11*
X133826250Y-198437500D03*
X143986250Y-198437500D03*
D10*
X141446250Y-193357500D03*
D12*
X138906250Y-198437500D03*
%TD*%
D11*
%TO.C,MX45*%
X248126250Y-198437500D03*
D10*
X255746250Y-193357500D03*
X249396250Y-195897500D03*
D11*
X258286250Y-198437500D03*
D12*
X253206250Y-198437500D03*
%TD*%
D10*
%TO.C,MX75*%
X355758750Y-274320000D03*
D11*
X348138750Y-279400000D03*
D12*
X353218750Y-279400000D03*
D11*
X358298750Y-279400000D03*
D10*
X349408750Y-276860000D03*
%TD*%
D16*
%TO.C,R3*%
X434245235Y-181554765D03*
X432954765Y-182845235D03*
%TD*%
D11*
%TO.C,MX40*%
X229076250Y-198437500D03*
D10*
X236696250Y-193357500D03*
D11*
X239236250Y-198437500D03*
D12*
X234156250Y-198437500D03*
D10*
X230346250Y-195897500D03*
%TD*%
D11*
%TO.C,MX44*%
X267811250Y-174625000D03*
D10*
X258921250Y-172085000D03*
X265271250Y-169545000D03*
D12*
X262731250Y-174625000D03*
D11*
X257651250Y-174625000D03*
%TD*%
D12*
%TO.C,MX67*%
X329406250Y-198437500D03*
D11*
X334486250Y-198437500D03*
X324326250Y-198437500D03*
D10*
X331946250Y-193357500D03*
X325596250Y-195897500D03*
%TD*%
D17*
%TO.C,C6*%
X487328249Y-173471751D03*
X488671751Y-172128249D03*
%TD*%
D11*
%TO.C,MX48*%
X263048750Y-255587500D03*
D12*
X257968750Y-255587500D03*
D10*
X260508750Y-250507500D03*
X254158750Y-253047500D03*
D11*
X252888750Y-255587500D03*
%TD*%
D10*
%TO.C,MX92*%
X446246250Y-250507500D03*
D11*
X448786250Y-255587500D03*
D12*
X443706250Y-255587500D03*
D11*
X438626250Y-255587500D03*
D10*
X439896250Y-253047500D03*
%TD*%
%TO.C,MX68*%
X335121250Y-214947500D03*
D12*
X338931250Y-217487500D03*
D11*
X344011250Y-217487500D03*
X333851250Y-217487500D03*
D10*
X341471250Y-212407500D03*
%TD*%
D12*
%TO.C,MX81*%
X396081250Y-217487500D03*
D11*
X391001250Y-217487500D03*
X401161250Y-217487500D03*
D10*
X392271250Y-214947500D03*
X398621250Y-212407500D03*
%TD*%
D11*
%TO.C,MX98*%
X476726250Y-198437500D03*
D12*
X481806250Y-198437500D03*
D10*
X484346250Y-193357500D03*
X477996250Y-195897500D03*
D11*
X486886250Y-198437500D03*
%TD*%
D10*
%TO.C,MX21*%
X174783750Y-231457500D03*
D11*
X177323750Y-236537500D03*
D12*
X172243750Y-236537500D03*
D10*
X168433750Y-233997500D03*
D11*
X167163750Y-236537500D03*
%TD*%
D18*
%TO.C,U1*%
X443543887Y-177414582D03*
X444109573Y-177980267D03*
X444675258Y-178545952D03*
X445240943Y-179111638D03*
X445806629Y-179677323D03*
X446372314Y-180243009D03*
X446938000Y-180808694D03*
X447503685Y-181374380D03*
X448069370Y-181940065D03*
X448635056Y-182505750D03*
X449200741Y-183071436D03*
X449766427Y-183637121D03*
X450332112Y-184202807D03*
X450897798Y-184768492D03*
X451463483Y-185334177D03*
X452029168Y-185899863D03*
D19*
X454433332Y-185899863D03*
X454999017Y-185334177D03*
X455564702Y-184768492D03*
X456130388Y-184202807D03*
X456696073Y-183637121D03*
X457261759Y-183071436D03*
X457827444Y-182505750D03*
X458393130Y-181940065D03*
X458958815Y-181374380D03*
X459524500Y-180808694D03*
X460090186Y-180243009D03*
X460655871Y-179677323D03*
X461221557Y-179111638D03*
X461787242Y-178545952D03*
X462352927Y-177980267D03*
X462918613Y-177414582D03*
D18*
X462918613Y-175010418D03*
X462352927Y-174444733D03*
X461787242Y-173879048D03*
X461221557Y-173313362D03*
X460655871Y-172747677D03*
X460090186Y-172181991D03*
X459524500Y-171616306D03*
X458958815Y-171050620D03*
X458393130Y-170484935D03*
X457827444Y-169919250D03*
X457261759Y-169353564D03*
X456696073Y-168787879D03*
X456130388Y-168222193D03*
X455564702Y-167656508D03*
X454999017Y-167090823D03*
X454433332Y-166525137D03*
D19*
X452029168Y-166525137D03*
X451463483Y-167090823D03*
X450897798Y-167656508D03*
X450332112Y-168222193D03*
X449766427Y-168787879D03*
X449200741Y-169353564D03*
X448635056Y-169919250D03*
X448069370Y-170484935D03*
X447503685Y-171050620D03*
X446938000Y-171616306D03*
X446372314Y-172181991D03*
X445806629Y-172747677D03*
X445240943Y-173313362D03*
X444675258Y-173879048D03*
X444109573Y-174444733D03*
X443543887Y-175010418D03*
%TD*%
D10*
%TO.C,MX62*%
X322421250Y-212407500D03*
D12*
X319881250Y-217487500D03*
D11*
X314801250Y-217487500D03*
X324961250Y-217487500D03*
D10*
X316071250Y-214947500D03*
%TD*%
D12*
%TO.C,MX31*%
X210343750Y-236537500D03*
D10*
X206533750Y-233997500D03*
D11*
X215423750Y-236537500D03*
X205263750Y-236537500D03*
D10*
X212883750Y-231457500D03*
%TD*%
D12*
%TO.C,MX69*%
X343693750Y-236537500D03*
D10*
X346233750Y-231457500D03*
X339883750Y-233997500D03*
D11*
X338613750Y-236537500D03*
X348773750Y-236537500D03*
%TD*%
D12*
%TO.C,MX100*%
X489995111Y-277116639D03*
X481806250Y-265178639D03*
D20*
X474755111Y-277116639D03*
D10*
X477996250Y-262638639D03*
D20*
X474755111Y-253240639D03*
D10*
X484346250Y-260098639D03*
D12*
X489995111Y-253240639D03*
D11*
X476726250Y-265178639D03*
X486886250Y-265178639D03*
%TD*%
D10*
%TO.C,MX33*%
X220821250Y-172085000D03*
D11*
X229711250Y-174625000D03*
D10*
X227171250Y-169545000D03*
D12*
X224631250Y-174625000D03*
D11*
X219551250Y-174625000D03*
%TD*%
D10*
%TO.C,MX23*%
X173196250Y-172085000D03*
D11*
X171926250Y-174625000D03*
X182086250Y-174625000D03*
D10*
X179546250Y-169545000D03*
D12*
X177006250Y-174625000D03*
%TD*%
D11*
%TO.C,MX73*%
X352901250Y-198503639D03*
D12*
X346043250Y-206692500D03*
D20*
X346043250Y-191452500D03*
D11*
X363061250Y-198503639D03*
D10*
X354171250Y-195963639D03*
X360521250Y-193423639D03*
D12*
X369919250Y-206692500D03*
D20*
X369919250Y-191452500D03*
D12*
X357981250Y-198503639D03*
%TD*%
%TO.C,MX57*%
X305593750Y-236537500D03*
D10*
X308133750Y-231457500D03*
D11*
X310673750Y-236537500D03*
D10*
X301783750Y-233997500D03*
D11*
X300513750Y-236537500D03*
%TD*%
%TO.C,MX41*%
X248761250Y-217487500D03*
D12*
X243681250Y-217487500D03*
D10*
X239871250Y-214947500D03*
X246221250Y-212407500D03*
D11*
X238601250Y-217487500D03*
%TD*%
%TO.C,MX43*%
X233838750Y-255587500D03*
D10*
X241458750Y-250507500D03*
X235108750Y-253047500D03*
D11*
X243998750Y-255587500D03*
D12*
X238918750Y-255587500D03*
%TD*%
%TO.C,MX74*%
X365125000Y-227012500D03*
X373380000Y-215074500D03*
D20*
X358140000Y-215074500D03*
D10*
X361315000Y-224472500D03*
D11*
X360045000Y-227012500D03*
D12*
X373380000Y-238950500D03*
D11*
X370205000Y-227012500D03*
D20*
X358140000Y-238950500D03*
D10*
X367665000Y-221932500D03*
%TD*%
D11*
%TO.C,MX76*%
X377348750Y-260350000D03*
D10*
X368458750Y-257810000D03*
D11*
X367188750Y-260350000D03*
D10*
X374808750Y-255270000D03*
D12*
X372268750Y-260350000D03*
%TD*%
D11*
%TO.C,MX96*%
X457676250Y-236537500D03*
X467836250Y-236537500D03*
D10*
X465296250Y-231457500D03*
X458946250Y-233997500D03*
D12*
X462756250Y-236537500D03*
%TD*%
D10*
%TO.C,MX9*%
X136683750Y-231457500D03*
D11*
X139223750Y-236537500D03*
D12*
X134143750Y-236537500D03*
D11*
X129063750Y-236537500D03*
D10*
X130333750Y-233997500D03*
%TD*%
%TO.C,MX27*%
X184308750Y-250507500D03*
D12*
X181768750Y-255587500D03*
D10*
X177958750Y-253047500D03*
D11*
X176688750Y-255587500D03*
X186848750Y-255587500D03*
%TD*%
D12*
%TO.C,MX22*%
X162718750Y-255587500D03*
D10*
X165258750Y-250507500D03*
X158908750Y-253047500D03*
D11*
X157638750Y-255587500D03*
X167798750Y-255587500D03*
%TD*%
%TO.C,MX60*%
X334486250Y-174625000D03*
D12*
X329406250Y-174625000D03*
D11*
X324326250Y-174625000D03*
D10*
X331946250Y-169545000D03*
X325596250Y-172085000D03*
%TD*%
D17*
%TO.C,C7*%
X440528249Y-186271751D03*
X441871751Y-184928249D03*
%TD*%
D10*
%TO.C,MX78*%
X387508750Y-276860000D03*
D11*
X396398750Y-279400000D03*
D12*
X391318750Y-279400000D03*
D11*
X386238750Y-279400000D03*
D10*
X393858750Y-274320000D03*
%TD*%
D11*
%TO.C,MX66*%
X343376250Y-174625000D03*
D10*
X350996250Y-169545000D03*
D12*
X348456250Y-174625000D03*
D10*
X344646250Y-172085000D03*
D11*
X353536250Y-174625000D03*
%TD*%
D12*
%TO.C,MX97*%
X462756250Y-255587500D03*
D11*
X467836250Y-255587500D03*
D10*
X458946250Y-253047500D03*
X465296250Y-250507500D03*
D11*
X457676250Y-255587500D03*
%TD*%
D12*
%TO.C,MX71*%
X329406250Y-274637500D03*
D10*
X325596250Y-272097500D03*
D11*
X324326250Y-274637500D03*
X334486250Y-274637500D03*
D10*
X331946250Y-269557500D03*
%TD*%
D12*
%TO.C,MX17*%
X150812500Y-274637500D03*
D10*
X153352500Y-269557500D03*
X147002500Y-272097500D03*
D11*
X155892500Y-274637500D03*
X145732500Y-274637500D03*
%TD*%
D10*
%TO.C,MX28*%
X192246250Y-172085000D03*
D11*
X190976250Y-174625000D03*
D10*
X198596250Y-169545000D03*
D12*
X196056250Y-174625000D03*
D11*
X201136250Y-174625000D03*
%TD*%
D20*
%TO.C,MX102*%
X286687500Y-267652500D03*
D10*
X232077500Y-269557500D03*
D12*
X286687500Y-282892500D03*
D10*
X225727500Y-272097500D03*
D12*
X172387500Y-282892500D03*
D11*
X234617500Y-274637500D03*
D20*
X172387500Y-267652500D03*
D12*
X229537500Y-274637500D03*
D11*
X224457500Y-274637500D03*
%TD*%
%TO.C,MX77*%
X377348750Y-279400000D03*
D10*
X374808750Y-274320000D03*
D12*
X372268750Y-279400000D03*
D11*
X367188750Y-279400000D03*
D10*
X368458750Y-276860000D03*
%TD*%
D11*
%TO.C,MX95*%
X457676250Y-217487500D03*
X467836250Y-217487500D03*
D10*
X458946250Y-214947500D03*
D12*
X462756250Y-217487500D03*
D10*
X465296250Y-212407500D03*
%TD*%
%TO.C,MX1*%
X103346250Y-169545000D03*
D12*
X100806250Y-174625000D03*
D11*
X105886250Y-174625000D03*
X95726250Y-174625000D03*
D10*
X96996250Y-172085000D03*
%TD*%
%TO.C,MX19*%
X154146250Y-195897500D03*
D11*
X163036250Y-198437500D03*
X152876250Y-198437500D03*
D10*
X160496250Y-193357500D03*
D12*
X157956250Y-198437500D03*
%TD*%
D10*
%TO.C,MX90*%
X439896250Y-214947500D03*
D11*
X448786250Y-217487500D03*
X438626250Y-217487500D03*
D12*
X443706250Y-217487500D03*
D10*
X446246250Y-212407500D03*
%TD*%
D11*
%TO.C,MX93*%
X467836250Y-274637500D03*
D10*
X465296250Y-269557500D03*
D11*
X457676250Y-274637500D03*
D12*
X462756250Y-274637500D03*
D10*
X458946250Y-272097500D03*
%TD*%
D11*
%TO.C,MX38*%
X224950315Y-274703639D03*
D12*
X267492185Y-282958639D03*
X219870315Y-274703639D03*
D10*
X216060315Y-272163639D03*
D11*
X214790315Y-274703639D03*
D12*
X172242185Y-282958639D03*
D20*
X172242185Y-267718639D03*
D10*
X222410315Y-269623639D03*
D20*
X267492185Y-267718639D03*
%TD*%
D16*
%TO.C,R4*%
X436245235Y-183354765D03*
X434954765Y-184645235D03*
%TD*%
D21*
%TO.C,R6*%
X460845235Y-189445235D03*
X459554765Y-188154765D03*
%TD*%
D10*
%TO.C,MX52*%
X282733750Y-233997500D03*
D11*
X281463750Y-236537500D03*
D12*
X286543750Y-236537500D03*
D10*
X289083750Y-231457500D03*
D11*
X291623750Y-236537500D03*
%TD*%
D12*
%TO.C,MX39*%
X243681250Y-174625000D03*
D11*
X248761250Y-174625000D03*
D10*
X239871250Y-172085000D03*
X246221250Y-169545000D03*
D11*
X238601250Y-174625000D03*
%TD*%
%TO.C,MX94*%
X457676250Y-198437500D03*
X467836250Y-198437500D03*
D10*
X465296250Y-193357500D03*
X458946250Y-195897500D03*
D12*
X462756250Y-198437500D03*
%TD*%
%TO.C,MX61*%
X310356250Y-198437500D03*
D10*
X306546250Y-195897500D03*
D11*
X315436250Y-198437500D03*
D10*
X312896250Y-193357500D03*
D11*
X305276250Y-198437500D03*
%TD*%
%TO.C,MX3*%
X100488750Y-217487500D03*
D10*
X101758750Y-214947500D03*
X108108750Y-212407500D03*
D11*
X110648750Y-217487500D03*
D12*
X105568750Y-217487500D03*
%TD*%
D15*
%TO.C,C3*%
X447471751Y-165328249D03*
X446128249Y-166671751D03*
%TD*%
D11*
%TO.C,MX14*%
X143351250Y-217487500D03*
D12*
X148431250Y-217487500D03*
D10*
X150971250Y-212407500D03*
D11*
X153511250Y-217487500D03*
D10*
X144621250Y-214947500D03*
%TD*%
%TO.C,MX83*%
X398621250Y-250507500D03*
D12*
X396081250Y-255587500D03*
D11*
X401161250Y-255587500D03*
D10*
X392271250Y-253047500D03*
D11*
X391001250Y-255587500D03*
%TD*%
D22*
%TO.C,Y1*%
X486176777Y-168221142D03*
X484621142Y-169776777D03*
X485823223Y-170978858D03*
X487378858Y-169423223D03*
%TD*%
D12*
%TO.C,MX58*%
X296068750Y-255587500D03*
D11*
X301148750Y-255587500D03*
D10*
X298608750Y-250507500D03*
D11*
X290988750Y-255587500D03*
D10*
X292258750Y-253047500D03*
%TD*%
D23*
%TO.C,R5*%
X459754765Y-166845235D03*
X461045235Y-165554765D03*
%TD*%
D10*
%TO.C,MX50*%
X274796250Y-193357500D03*
D12*
X272256250Y-198437500D03*
D10*
X268446250Y-195897500D03*
D11*
X277336250Y-198437500D03*
X267176250Y-198437500D03*
%TD*%
%TO.C,MX72*%
X372586250Y-174625000D03*
D10*
X370046250Y-169545000D03*
X363696250Y-172085000D03*
D12*
X367506250Y-174625000D03*
D11*
X362426250Y-174625000D03*
%TD*%
D10*
%TO.C,MX54*%
X312896250Y-169545000D03*
X306546250Y-172085000D03*
D12*
X310356250Y-174625000D03*
D11*
X305276250Y-174625000D03*
X315436250Y-174625000D03*
%TD*%
D10*
%TO.C,MX49*%
X277971250Y-172085000D03*
D12*
X281781250Y-174625000D03*
D11*
X276701250Y-174625000D03*
D10*
X284321250Y-169545000D03*
D11*
X286861250Y-174625000D03*
%TD*%
%TO.C,MX86*%
X419576250Y-236537500D03*
X429736250Y-236537500D03*
D10*
X420846250Y-233997500D03*
X427196250Y-231457500D03*
D12*
X424656250Y-236537500D03*
%TD*%
%TO.C,MX24*%
X177006250Y-198437500D03*
D10*
X173196250Y-195897500D03*
D11*
X182086250Y-198437500D03*
D10*
X179546250Y-193357500D03*
D11*
X171926250Y-198437500D03*
%TD*%
D10*
%TO.C,MX80*%
X398621250Y-193357500D03*
D11*
X391001250Y-198437500D03*
D12*
X396081250Y-198437500D03*
D10*
X392271250Y-195897500D03*
D11*
X401161250Y-198437500D03*
%TD*%
%TO.C,MX51*%
X276701250Y-217487500D03*
X286861250Y-217487500D03*
D10*
X284321250Y-212407500D03*
D12*
X281781250Y-217487500D03*
D10*
X277971250Y-214947500D03*
%TD*%
D12*
%TO.C,MX47*%
X267493750Y-236537500D03*
D11*
X262413750Y-236537500D03*
D10*
X263683750Y-233997500D03*
D11*
X272573750Y-236537500D03*
D10*
X270033750Y-231457500D03*
%TD*%
D20*
%TO.C,MX99*%
X474755111Y-215140639D03*
D11*
X476726250Y-227078639D03*
D20*
X474755111Y-239016639D03*
D11*
X486886250Y-227078639D03*
D12*
X481806250Y-227078639D03*
D10*
X477996250Y-224538639D03*
D12*
X489995111Y-215140639D03*
D10*
X484346250Y-221998639D03*
D12*
X489995111Y-239016639D03*
%TD*%
%TO.C,MX30*%
X205581250Y-217487500D03*
D11*
X200501250Y-217487500D03*
D10*
X208121250Y-212407500D03*
X201771250Y-214947500D03*
D11*
X210661250Y-217487500D03*
%TD*%
%TO.C,MX26*%
X186213750Y-236537500D03*
D10*
X193833750Y-231457500D03*
D12*
X191293750Y-236537500D03*
D11*
X196373750Y-236537500D03*
D10*
X187483750Y-233997500D03*
%TD*%
D11*
%TO.C,MX36*%
X234473750Y-236537500D03*
X224313750Y-236537500D03*
D10*
X231933750Y-231457500D03*
X225583750Y-233997500D03*
D12*
X229393750Y-236537500D03*
%TD*%
D10*
%TO.C,MX35*%
X227171250Y-212407500D03*
D11*
X219551250Y-217487500D03*
D12*
X224631250Y-217487500D03*
D10*
X220821250Y-214947500D03*
D11*
X229711250Y-217487500D03*
%TD*%
D20*
%TO.C,MX88*%
X422243250Y-267652500D03*
D10*
X436721250Y-269623639D03*
D11*
X439261250Y-274703639D03*
D10*
X430371250Y-272163639D03*
D12*
X446119250Y-282892500D03*
X422243250Y-282892500D03*
D11*
X429101250Y-274703639D03*
D20*
X446119250Y-267652500D03*
D12*
X434181250Y-274703639D03*
%TD*%
D11*
%TO.C,MX29*%
X201136250Y-198437500D03*
D12*
X196056250Y-198437500D03*
D11*
X190976250Y-198437500D03*
D10*
X198596250Y-193357500D03*
X192246250Y-195897500D03*
%TD*%
D11*
%TO.C,MX53*%
X282098750Y-255587500D03*
D10*
X273208750Y-253047500D03*
D11*
X271938750Y-255587500D03*
D10*
X279558750Y-250507500D03*
D12*
X277018750Y-255587500D03*
%TD*%
%TO.C,MX6*%
X105568750Y-274637500D03*
D10*
X101758750Y-272097500D03*
D11*
X110648750Y-274637500D03*
X100488750Y-274637500D03*
D10*
X108108750Y-269557500D03*
%TD*%
D11*
%TO.C,MX79*%
X391001250Y-174625000D03*
X401161250Y-174625000D03*
D10*
X392271250Y-172085000D03*
X398621250Y-169545000D03*
D12*
X396081250Y-174625000D03*
%TD*%
D10*
%TO.C,MX56*%
X303371250Y-212407500D03*
D11*
X305911250Y-217487500D03*
X295751250Y-217487500D03*
D12*
X300831250Y-217487500D03*
D10*
X297021250Y-214947500D03*
%TD*%
D17*
%TO.C,C2*%
X440128249Y-172271751D03*
X441471751Y-170928249D03*
%TD*%
D12*
%TO.C,MX84*%
X424656250Y-198437500D03*
D11*
X419576250Y-198437500D03*
X429736250Y-198437500D03*
D10*
X420846250Y-195897500D03*
X427196250Y-193357500D03*
%TD*%
%TO.C,MX16*%
X139858750Y-253047500D03*
X146208750Y-250507500D03*
D11*
X148748750Y-255587500D03*
X138588750Y-255587500D03*
D12*
X143668750Y-255587500D03*
%TD*%
D11*
%TO.C,MX101*%
X217170000Y-274637500D03*
D10*
X224790000Y-269557500D03*
X218440000Y-272097500D03*
D20*
X172250100Y-267652500D03*
D12*
X172250100Y-282892500D03*
D20*
X272249900Y-267652500D03*
D12*
X222250000Y-274637500D03*
X272249900Y-282892500D03*
D11*
X227330000Y-274637500D03*
%TD*%
D12*
%TO.C,MX42*%
X248443750Y-236537500D03*
D10*
X250983750Y-231457500D03*
X244633750Y-233997500D03*
D11*
X253523750Y-236537500D03*
X243363750Y-236537500D03*
%TD*%
D10*
%TO.C,MX59*%
X291465000Y-269557500D03*
D12*
X288925000Y-274637500D03*
D10*
X285115000Y-272097500D03*
D11*
X283845000Y-274637500D03*
X294005000Y-274637500D03*
%TD*%
%TO.C,MX85*%
X429736250Y-217487500D03*
D10*
X420846250Y-214947500D03*
D12*
X424656250Y-217487500D03*
D10*
X427196250Y-212407500D03*
D11*
X419576250Y-217487500D03*
%TD*%
D10*
%TO.C,MX12*%
X141446250Y-169545000D03*
D11*
X133826250Y-174625000D03*
D10*
X135096250Y-172085000D03*
D12*
X138906250Y-174625000D03*
D11*
X143986250Y-174625000D03*
%TD*%
%TO.C,MX103*%
X286226250Y-274637500D03*
X296386250Y-274637500D03*
D10*
X293846250Y-269557500D03*
D12*
X291306250Y-274637500D03*
D10*
X287496250Y-272097500D03*
%TD*%
D12*
%TO.C,MX25*%
X186531250Y-217487500D03*
D10*
X189071250Y-212407500D03*
D11*
X181451250Y-217487500D03*
X191611250Y-217487500D03*
D10*
X182721250Y-214947500D03*
%TD*%
D12*
%TO.C,MX63*%
X324643750Y-236537500D03*
D10*
X327183750Y-231457500D03*
D11*
X319563750Y-236537500D03*
D10*
X320833750Y-233997500D03*
D11*
X329723750Y-236537500D03*
%TD*%
D12*
%TO.C,MX32*%
X200818750Y-255587500D03*
D11*
X205898750Y-255587500D03*
X195738750Y-255587500D03*
D10*
X197008750Y-253047500D03*
X203358750Y-250507500D03*
%TD*%
D12*
%TO.C,MX7*%
X119856250Y-198437500D03*
D10*
X122396250Y-193357500D03*
D11*
X124936250Y-198437500D03*
D10*
X116046250Y-195897500D03*
D11*
X114776250Y-198437500D03*
%TD*%
D15*
%TO.C,C5*%
X483271751Y-166928249D03*
X481928249Y-168271751D03*
%TD*%
D10*
%TO.C,MX64*%
X317658750Y-250507500D03*
X311308750Y-253047500D03*
D11*
X310038750Y-255587500D03*
X320198750Y-255587500D03*
D12*
X315118750Y-255587500D03*
%TD*%
D11*
%TO.C,MX15*%
X148113750Y-236537500D03*
D10*
X155733750Y-231457500D03*
D12*
X153193750Y-236537500D03*
D10*
X149383750Y-233997500D03*
D11*
X158273750Y-236537500D03*
%TD*%
%TO.C,MX87*%
X419576250Y-255587500D03*
D12*
X424656250Y-255587500D03*
D10*
X420846250Y-253047500D03*
D11*
X429736250Y-255587500D03*
D10*
X427196250Y-250507500D03*
%TD*%
%TO.C,MX5*%
X99377500Y-253047500D03*
D11*
X108267500Y-255587500D03*
X98107500Y-255587500D03*
D10*
X105727500Y-250507500D03*
D12*
X103187500Y-255587500D03*
%TD*%
D10*
%TO.C,MX65*%
X312896250Y-269557500D03*
X306546250Y-272097500D03*
D11*
X315436250Y-274637500D03*
D12*
X310356250Y-274637500D03*
D11*
X305276250Y-274637500D03*
%TD*%
D12*
%TO.C,MX10*%
X124618750Y-255587500D03*
D10*
X127158750Y-250507500D03*
X120808750Y-253047500D03*
D11*
X119538750Y-255587500D03*
X129698750Y-255587500D03*
%TD*%
%TO.C,MX2*%
X95726250Y-198437500D03*
D10*
X96996250Y-195897500D03*
X103346250Y-193357500D03*
D11*
X105886250Y-198437500D03*
D12*
X100806250Y-198437500D03*
%TD*%
D10*
%TO.C,MX8*%
X131921250Y-212407500D03*
D11*
X134461250Y-217487500D03*
X124301250Y-217487500D03*
D12*
X129381250Y-217487500D03*
D10*
X125571250Y-214947500D03*
%TD*%
D12*
%TO.C,MX4*%
X107950000Y-236537500D03*
D10*
X110490000Y-231457500D03*
X104140000Y-233997500D03*
D11*
X102870000Y-236537500D03*
X113030000Y-236537500D03*
%TD*%
D12*
%TO.C,MX82*%
X396081250Y-236537500D03*
D11*
X391001250Y-236537500D03*
X401161250Y-236537500D03*
D10*
X398621250Y-231457500D03*
X392271250Y-233997500D03*
%TD*%
D24*
%TO.C,J1*%
X116966250Y-168493750D03*
X122746250Y-168493750D03*
D25*
X115536250Y-164843750D03*
D26*
X115536250Y-169023750D03*
X124176250Y-169023750D03*
D25*
X124176250Y-164843750D03*
%TD*%
M02*
