%TF.GenerationSoftware,KiCad,Pcbnew,(6.0.4)*%
%TF.CreationDate,2022-04-19T22:35:02+02:00*%
%TF.ProjectId,pcb,7063622e-6b69-4636-9164-5f7063625858,rev?*%
%TF.SameCoordinates,Original*%
%TF.FileFunction,Paste,Bot*%
%TF.FilePolarity,Positive*%
%FSLAX46Y46*%
G04 Gerber Fmt 4.6, Leading zero omitted, Abs format (unit mm)*
G04 Created by KiCad (PCBNEW (6.0.4)) date 2022-04-19 22:35:02*
%MOMM*%
%LPD*%
G01*
G04 APERTURE LIST*
G04 Aperture macros list*
%AMRoundRect*
0 Rectangle with rounded corners*
0 $1 Rounding radius*
0 $2 $3 $4 $5 $6 $7 $8 $9 X,Y pos of 4 corners*
0 Add a 4 corners polygon primitive as box body*
4,1,4,$2,$3,$4,$5,$6,$7,$8,$9,$2,$3,0*
0 Add four circle primitives for the rounded corners*
1,1,$1+$1,$2,$3*
1,1,$1+$1,$4,$5*
1,1,$1+$1,$6,$7*
1,1,$1+$1,$8,$9*
0 Add four rect primitives between the rounded corners*
20,1,$1+$1,$2,$3,$4,$5,0*
20,1,$1+$1,$4,$5,$6,$7,0*
20,1,$1+$1,$6,$7,$8,$9,0*
20,1,$1+$1,$8,$9,$2,$3,0*%
G04 Aperture macros list end*
%ADD10R,2.550000X2.500000*%
%ADD11R,1.600000X1.400000*%
%ADD12R,1.600000X1.420000*%
%ADD13R,1.600000X1.380000*%
%ADD14R,1.200000X0.900000*%
%ADD15RoundRect,0.250000X0.625000X-0.375000X0.625000X0.375000X-0.625000X0.375000X-0.625000X-0.375000X0*%
%ADD16RoundRect,0.250000X-0.262500X-0.450000X0.262500X-0.450000X0.262500X0.450000X-0.262500X0.450000X0*%
%ADD17RoundRect,0.250000X0.250000X0.475000X-0.250000X0.475000X-0.250000X-0.475000X0.250000X-0.475000X0*%
%ADD18R,0.600000X1.450000*%
%ADD19R,0.300000X1.450000*%
%ADD20RoundRect,0.170000X0.330000X-0.255000X0.330000X0.255000X-0.330000X0.255000X-0.330000X-0.255000X0*%
G04 APERTURE END LIST*
D10*
%TO.C,MX20*%
X173771250Y-212407500D03*
X160041250Y-214827500D03*
%TD*%
D11*
%TO.C,D105*%
X105987500Y-261647500D03*
D12*
X105987500Y-259657500D03*
D11*
X100387500Y-259657500D03*
D13*
X100387500Y-261657500D03*
%TD*%
D11*
%TO.C,D173*%
X360781250Y-204497500D03*
D12*
X360781250Y-202507500D03*
D11*
X355181250Y-202507500D03*
D13*
X355181250Y-204507500D03*
%TD*%
D11*
%TO.C,D144*%
X265531250Y-180685000D03*
D12*
X265531250Y-178695000D03*
D11*
X259931250Y-178695000D03*
D13*
X259931250Y-180695000D03*
%TD*%
D10*
%TO.C,MX91*%
X449996250Y-231457500D03*
X436266250Y-233877500D03*
%TD*%
%TO.C,MX11*%
X135671250Y-269557500D03*
X121941250Y-271977500D03*
%TD*%
%TO.C,MX89*%
X449996250Y-193357500D03*
X436266250Y-195777500D03*
%TD*%
D11*
%TO.C,D138*%
X227431250Y-280697500D03*
D12*
X227431250Y-278707500D03*
D11*
X221831250Y-278707500D03*
D13*
X221831250Y-280707500D03*
%TD*%
D11*
%TO.C,D176*%
X375068750Y-266410000D03*
D12*
X375068750Y-264420000D03*
D11*
X369468750Y-264420000D03*
D13*
X369468750Y-266420000D03*
%TD*%
D10*
%TO.C,MX34*%
X221396250Y-193357500D03*
X207666250Y-195777500D03*
%TD*%
D11*
%TO.C,D155*%
X294106250Y-204497500D03*
D12*
X294106250Y-202507500D03*
D11*
X288506250Y-202507500D03*
D13*
X288506250Y-204507500D03*
%TD*%
D11*
%TO.C,D158*%
X298868750Y-261647500D03*
D12*
X298868750Y-259657500D03*
D11*
X293268750Y-259657500D03*
D13*
X293268750Y-261657500D03*
%TD*%
D10*
%TO.C,MX46*%
X269021250Y-212407500D03*
X255291250Y-214827500D03*
%TD*%
D11*
%TO.C,D150*%
X275056250Y-204497500D03*
D12*
X275056250Y-202507500D03*
D11*
X269456250Y-202507500D03*
D13*
X269456250Y-204507500D03*
%TD*%
D10*
%TO.C,MX37*%
X226158750Y-250507500D03*
X212428750Y-252927500D03*
%TD*%
D11*
%TO.C,D165*%
X312362500Y-280697500D03*
D12*
X312362500Y-278707500D03*
D11*
X306762500Y-278707500D03*
D13*
X306762500Y-280707500D03*
%TD*%
D11*
%TO.C,D151*%
X284581250Y-223547500D03*
D12*
X284581250Y-221557500D03*
D11*
X278981250Y-221557500D03*
D13*
X278981250Y-223557500D03*
%TD*%
D10*
%TO.C,MX104*%
X314265000Y-269557500D03*
X300535000Y-271977500D03*
%TD*%
%TO.C,MX70*%
X347602500Y-250507500D03*
X333872500Y-252927500D03*
%TD*%
D11*
%TO.C,D152*%
X289343750Y-242597500D03*
D12*
X289343750Y-240607500D03*
D11*
X283743750Y-240607500D03*
D13*
X283743750Y-242607500D03*
%TD*%
D11*
%TO.C,D116*%
X146468750Y-261647500D03*
D12*
X146468750Y-259657500D03*
D11*
X140868750Y-259657500D03*
D13*
X140868750Y-261657500D03*
%TD*%
D11*
%TO.C,D124*%
X179806250Y-204497500D03*
D12*
X179806250Y-202507500D03*
D11*
X174206250Y-202507500D03*
D13*
X174206250Y-204507500D03*
%TD*%
D11*
%TO.C,D139*%
X246481250Y-180685000D03*
D12*
X246481250Y-178695000D03*
D11*
X240881250Y-178695000D03*
D13*
X240881250Y-180695000D03*
%TD*%
D11*
%TO.C,D186*%
X427456250Y-242597500D03*
D12*
X427456250Y-240607500D03*
D11*
X421856250Y-240607500D03*
D13*
X421856250Y-242607500D03*
%TD*%
D11*
%TO.C,D200*%
X484606250Y-271172500D03*
D12*
X484606250Y-269182500D03*
D11*
X479006250Y-269182500D03*
D13*
X479006250Y-271182500D03*
%TD*%
D10*
%TO.C,MX18*%
X164246250Y-169545000D03*
X150516250Y-171965000D03*
%TD*%
D11*
%TO.C,D120*%
X170281250Y-223547500D03*
D12*
X170281250Y-221557500D03*
D11*
X164681250Y-221557500D03*
D13*
X164681250Y-223557500D03*
%TD*%
D11*
%TO.C,D196*%
X465556250Y-242597500D03*
D12*
X465556250Y-240607500D03*
D11*
X459956250Y-240607500D03*
D13*
X459956250Y-242607500D03*
%TD*%
D10*
%TO.C,MX55*%
X297596250Y-193357500D03*
X283866250Y-195777500D03*
%TD*%
%TO.C,MX13*%
X145196250Y-193357500D03*
X131466250Y-195777500D03*
%TD*%
D11*
%TO.C,D149*%
X284581250Y-180685000D03*
D12*
X284581250Y-178695000D03*
D11*
X278981250Y-178695000D03*
D13*
X278981250Y-180695000D03*
%TD*%
D10*
%TO.C,MX45*%
X259496250Y-193357500D03*
X245766250Y-195777500D03*
%TD*%
%TO.C,MX75*%
X359508750Y-274320000D03*
X345778750Y-276740000D03*
%TD*%
D11*
%TO.C,D131*%
X213143750Y-242597500D03*
D12*
X213143750Y-240607500D03*
D11*
X207543750Y-240607500D03*
D13*
X207543750Y-242607500D03*
%TD*%
D11*
%TO.C,D188*%
X436981250Y-280697500D03*
D12*
X436981250Y-278707500D03*
D11*
X431381250Y-278707500D03*
D13*
X431381250Y-280707500D03*
%TD*%
D10*
%TO.C,MX40*%
X240446250Y-193357500D03*
X226716250Y-195777500D03*
%TD*%
%TO.C,MX44*%
X269021250Y-169545000D03*
X255291250Y-171965000D03*
%TD*%
D11*
%TO.C,D164*%
X317918750Y-261647500D03*
D12*
X317918750Y-259657500D03*
D11*
X312318750Y-259657500D03*
D13*
X312318750Y-261657500D03*
%TD*%
D11*
%TO.C,D166*%
X351256250Y-180685000D03*
D12*
X351256250Y-178695000D03*
D11*
X345656250Y-178695000D03*
D13*
X345656250Y-180695000D03*
%TD*%
D10*
%TO.C,MX67*%
X335696250Y-193357500D03*
X321966250Y-195777500D03*
%TD*%
D11*
%TO.C,D192*%
X446506250Y-261647500D03*
D12*
X446506250Y-259657500D03*
D11*
X440906250Y-259657500D03*
D13*
X440906250Y-261657500D03*
%TD*%
D11*
%TO.C,D123*%
X179806250Y-180685000D03*
D12*
X179806250Y-178695000D03*
D11*
X174206250Y-178695000D03*
D13*
X174206250Y-180695000D03*
%TD*%
D11*
%TO.C,D171*%
X332206250Y-280697500D03*
D12*
X332206250Y-278707500D03*
D11*
X326606250Y-278707500D03*
D13*
X326606250Y-280707500D03*
%TD*%
D11*
%TO.C,D117*%
X153612500Y-280697500D03*
D12*
X153612500Y-278707500D03*
D11*
X148012500Y-278707500D03*
D13*
X148012500Y-280707500D03*
%TD*%
D10*
%TO.C,MX48*%
X264258750Y-250507500D03*
X250528750Y-252927500D03*
%TD*%
D11*
%TO.C,D108*%
X132181250Y-223547500D03*
D12*
X132181250Y-221557500D03*
D11*
X126581250Y-221557500D03*
D13*
X126581250Y-223557500D03*
%TD*%
D11*
%TO.C,D174*%
X367925000Y-233072500D03*
D12*
X367925000Y-231082500D03*
D11*
X362325000Y-231082500D03*
D13*
X362325000Y-233082500D03*
%TD*%
D10*
%TO.C,MX92*%
X449996250Y-250507500D03*
X436266250Y-252927500D03*
%TD*%
D11*
%TO.C,D157*%
X308393750Y-242597500D03*
D12*
X308393750Y-240607500D03*
D11*
X302793750Y-240607500D03*
D13*
X302793750Y-242607500D03*
%TD*%
D10*
%TO.C,MX68*%
X345221250Y-212407500D03*
X331491250Y-214827500D03*
%TD*%
%TO.C,MX81*%
X402371250Y-212407500D03*
X388641250Y-214827500D03*
%TD*%
%TO.C,MX98*%
X488096250Y-193357500D03*
X474366250Y-195777500D03*
%TD*%
%TO.C,MX21*%
X178533750Y-231457500D03*
X164803750Y-233877500D03*
%TD*%
D11*
%TO.C,D154*%
X313156250Y-180685000D03*
D12*
X313156250Y-178695000D03*
D11*
X307556250Y-178695000D03*
D13*
X307556250Y-180695000D03*
%TD*%
D10*
%TO.C,MX62*%
X326171250Y-212407500D03*
X312441250Y-214827500D03*
%TD*%
D11*
%TO.C,D121*%
X175043750Y-242597500D03*
D12*
X175043750Y-240607500D03*
D11*
X169443750Y-240607500D03*
D13*
X169443750Y-242607500D03*
%TD*%
D10*
%TO.C,MX31*%
X216633750Y-231457500D03*
X202903750Y-233877500D03*
%TD*%
D11*
%TO.C,D111*%
X132181250Y-280697500D03*
D12*
X132181250Y-278707500D03*
D11*
X126581250Y-278707500D03*
D13*
X126581250Y-280707500D03*
%TD*%
D11*
%TO.C,D132*%
X203618750Y-261647500D03*
D12*
X203618750Y-259657500D03*
D11*
X198018750Y-259657500D03*
D13*
X198018750Y-261657500D03*
%TD*%
D10*
%TO.C,MX69*%
X349983750Y-231457500D03*
X336253750Y-233877500D03*
%TD*%
D11*
%TO.C,D101*%
X103606250Y-180685000D03*
D12*
X103606250Y-178695000D03*
D11*
X98006250Y-178695000D03*
D13*
X98006250Y-180695000D03*
%TD*%
D10*
%TO.C,MX100*%
X488096250Y-260098639D03*
X474366250Y-262518639D03*
%TD*%
D11*
%TO.C,D167*%
X332206250Y-204497500D03*
D12*
X332206250Y-202507500D03*
D11*
X326606250Y-202507500D03*
D13*
X326606250Y-204507500D03*
%TD*%
D11*
%TO.C,D118*%
X160756250Y-180685000D03*
D12*
X160756250Y-178695000D03*
D11*
X155156250Y-178695000D03*
D13*
X155156250Y-180695000D03*
%TD*%
D10*
%TO.C,MX33*%
X230921250Y-169545000D03*
X217191250Y-171965000D03*
%TD*%
%TO.C,MX23*%
X183296250Y-169545000D03*
X169566250Y-171965000D03*
%TD*%
%TO.C,MX73*%
X364271250Y-193423639D03*
X350541250Y-195843639D03*
%TD*%
%TO.C,MX57*%
X311883750Y-231457500D03*
X298153750Y-233877500D03*
%TD*%
%TO.C,MX41*%
X249971250Y-212407500D03*
X236241250Y-214827500D03*
%TD*%
%TO.C,MX43*%
X245208750Y-250507500D03*
X231478750Y-252927500D03*
%TD*%
D11*
%TO.C,D183*%
X398881250Y-261647500D03*
D12*
X398881250Y-259657500D03*
D11*
X393281250Y-259657500D03*
D13*
X393281250Y-261657500D03*
%TD*%
D11*
%TO.C,D185*%
X427456250Y-223547500D03*
D12*
X427456250Y-221557500D03*
D11*
X421856250Y-221557500D03*
D13*
X421856250Y-223557500D03*
%TD*%
D11*
%TO.C,D194*%
X465556250Y-204497500D03*
D12*
X465556250Y-202507500D03*
D11*
X459956250Y-202507500D03*
D13*
X459956250Y-204507500D03*
%TD*%
D11*
%TO.C,D106*%
X108368750Y-280697500D03*
D12*
X108368750Y-278707500D03*
D11*
X102768750Y-278707500D03*
D13*
X102768750Y-280707500D03*
%TD*%
D11*
%TO.C,D112*%
X141706250Y-180685000D03*
D12*
X141706250Y-178695000D03*
D11*
X136106250Y-178695000D03*
D13*
X136106250Y-180695000D03*
%TD*%
D10*
%TO.C,MX74*%
X371415000Y-221932500D03*
X357685000Y-224352500D03*
%TD*%
%TO.C,MX76*%
X378558750Y-255270000D03*
X364828750Y-257690000D03*
%TD*%
%TO.C,MX96*%
X469046250Y-231457500D03*
X455316250Y-233877500D03*
%TD*%
%TO.C,MX9*%
X140433750Y-231457500D03*
X126703750Y-233877500D03*
%TD*%
%TO.C,MX27*%
X188058750Y-250507500D03*
X174328750Y-252927500D03*
%TD*%
%TO.C,MX22*%
X169008750Y-250507500D03*
X155278750Y-252927500D03*
%TD*%
%TO.C,MX60*%
X335696250Y-169545000D03*
X321966250Y-171965000D03*
%TD*%
D11*
%TO.C,D180*%
X398881250Y-204497500D03*
D12*
X398881250Y-202507500D03*
D11*
X393281250Y-202507500D03*
D13*
X393281250Y-204507500D03*
%TD*%
D11*
%TO.C,D170*%
X344112500Y-261647500D03*
D12*
X344112500Y-259657500D03*
D11*
X338512500Y-259657500D03*
D13*
X338512500Y-261657500D03*
%TD*%
D11*
%TO.C,D168*%
X341731250Y-223547500D03*
D12*
X341731250Y-221557500D03*
D11*
X336131250Y-221557500D03*
D13*
X336131250Y-223557500D03*
%TD*%
D10*
%TO.C,MX78*%
X397608750Y-274320000D03*
X383878750Y-276740000D03*
%TD*%
%TO.C,MX66*%
X354746250Y-169545000D03*
X341016250Y-171965000D03*
%TD*%
D11*
%TO.C,D172*%
X370306250Y-180685000D03*
D12*
X370306250Y-178695000D03*
D11*
X364706250Y-178695000D03*
D13*
X364706250Y-180695000D03*
%TD*%
D10*
%TO.C,MX97*%
X469046250Y-250507500D03*
X455316250Y-252927500D03*
%TD*%
%TO.C,MX71*%
X335696250Y-269557500D03*
X321966250Y-271977500D03*
%TD*%
D11*
%TO.C,D182*%
X398881250Y-242597500D03*
D12*
X398881250Y-240607500D03*
D11*
X393281250Y-240607500D03*
D13*
X393281250Y-242607500D03*
%TD*%
D10*
%TO.C,MX17*%
X157102500Y-269557500D03*
X143372500Y-271977500D03*
%TD*%
D11*
%TO.C,D136*%
X232193750Y-242597500D03*
D12*
X232193750Y-240607500D03*
D11*
X226593750Y-240607500D03*
D13*
X226593750Y-242607500D03*
%TD*%
D10*
%TO.C,MX28*%
X202346250Y-169545000D03*
X188616250Y-171965000D03*
%TD*%
%TO.C,MX102*%
X235827500Y-269557500D03*
X222097500Y-271977500D03*
%TD*%
%TO.C,MX77*%
X378558750Y-274320000D03*
X364828750Y-276740000D03*
%TD*%
%TO.C,MX95*%
X469046250Y-212407500D03*
X455316250Y-214827500D03*
%TD*%
D11*
%TO.C,D163*%
X327443750Y-242597500D03*
D12*
X327443750Y-240607500D03*
D11*
X321843750Y-240607500D03*
D13*
X321843750Y-242607500D03*
%TD*%
D11*
%TO.C,D145*%
X256006250Y-204497500D03*
D12*
X256006250Y-202507500D03*
D11*
X250406250Y-202507500D03*
D13*
X250406250Y-204507500D03*
%TD*%
D11*
%TO.C,D153*%
X279818750Y-261647500D03*
D12*
X279818750Y-259657500D03*
D11*
X274218750Y-259657500D03*
D13*
X274218750Y-261657500D03*
%TD*%
D11*
%TO.C,D146*%
X265531250Y-223547500D03*
D12*
X265531250Y-221557500D03*
D11*
X259931250Y-221557500D03*
D13*
X259931250Y-223557500D03*
%TD*%
D11*
%TO.C,D126*%
X194093750Y-242597500D03*
D12*
X194093750Y-240607500D03*
D11*
X188493750Y-240607500D03*
D13*
X188493750Y-242607500D03*
%TD*%
D11*
%TO.C,D179*%
X398881250Y-180685000D03*
D12*
X398881250Y-178695000D03*
D11*
X393281250Y-178695000D03*
D13*
X393281250Y-180695000D03*
%TD*%
D11*
%TO.C,D175*%
X356018750Y-285460000D03*
D12*
X356018750Y-283470000D03*
D11*
X350418750Y-283470000D03*
D13*
X350418750Y-285470000D03*
%TD*%
D10*
%TO.C,MX1*%
X107096250Y-169545000D03*
X93366250Y-171965000D03*
%TD*%
%TO.C,MX19*%
X164246250Y-193357500D03*
X150516250Y-195777500D03*
%TD*%
%TO.C,MX90*%
X449996250Y-212407500D03*
X436266250Y-214827500D03*
%TD*%
%TO.C,MX93*%
X469046250Y-269557500D03*
X455316250Y-271977500D03*
%TD*%
%TO.C,MX38*%
X226160315Y-269623639D03*
X212430315Y-272043639D03*
%TD*%
D11*
%TO.C,D193*%
X465556250Y-280697500D03*
D12*
X465556250Y-278707500D03*
D11*
X459956250Y-278707500D03*
D13*
X459956250Y-280707500D03*
%TD*%
D11*
%TO.C,D141*%
X246481250Y-223547500D03*
D12*
X246481250Y-221557500D03*
D11*
X240881250Y-221557500D03*
D13*
X240881250Y-223557500D03*
%TD*%
D10*
%TO.C,MX52*%
X292833750Y-231457500D03*
X279103750Y-233877500D03*
%TD*%
D11*
%TO.C,D140*%
X236956250Y-204497500D03*
D12*
X236956250Y-202507500D03*
D11*
X231356250Y-202507500D03*
D13*
X231356250Y-204507500D03*
%TD*%
D11*
%TO.C,D133*%
X227431250Y-180685000D03*
D12*
X227431250Y-178695000D03*
D11*
X221831250Y-178695000D03*
D13*
X221831250Y-180695000D03*
%TD*%
D10*
%TO.C,MX39*%
X249971250Y-169545000D03*
X236241250Y-171965000D03*
%TD*%
%TO.C,MX94*%
X469046250Y-193357500D03*
X455316250Y-195777500D03*
%TD*%
D11*
%TO.C,D110*%
X127418750Y-261647500D03*
D12*
X127418750Y-259657500D03*
D11*
X121818750Y-259657500D03*
D13*
X121818750Y-261657500D03*
%TD*%
D11*
%TO.C,D114*%
X151231250Y-223547500D03*
D12*
X151231250Y-221557500D03*
D11*
X145631250Y-221557500D03*
D13*
X145631250Y-223557500D03*
%TD*%
D10*
%TO.C,MX61*%
X316646250Y-193357500D03*
X302916250Y-195777500D03*
%TD*%
D11*
%TO.C,D148*%
X260768750Y-261647500D03*
D12*
X260768750Y-259657500D03*
D11*
X255168750Y-259657500D03*
D13*
X255168750Y-261657500D03*
%TD*%
D11*
%TO.C,D137*%
X222668750Y-261647500D03*
D12*
X222668750Y-259657500D03*
D11*
X217068750Y-259657500D03*
D13*
X217068750Y-261657500D03*
%TD*%
D10*
%TO.C,MX3*%
X111858750Y-212407500D03*
X98128750Y-214827500D03*
%TD*%
D11*
%TO.C,D178*%
X394118750Y-285460000D03*
D12*
X394118750Y-283470000D03*
D11*
X388518750Y-283470000D03*
D13*
X388518750Y-285470000D03*
%TD*%
D10*
%TO.C,MX14*%
X154721250Y-212407500D03*
X140991250Y-214827500D03*
%TD*%
D11*
%TO.C,D190*%
X446506250Y-223547500D03*
D12*
X446506250Y-221557500D03*
D11*
X440906250Y-221557500D03*
D13*
X440906250Y-223557500D03*
%TD*%
D11*
%TO.C,D109*%
X136943750Y-242597500D03*
D12*
X136943750Y-240607500D03*
D11*
X131343750Y-240607500D03*
D13*
X131343750Y-242607500D03*
%TD*%
D11*
%TO.C,D122*%
X165518750Y-261647500D03*
D12*
X165518750Y-259657500D03*
D11*
X159918750Y-259657500D03*
D13*
X159918750Y-261657500D03*
%TD*%
D10*
%TO.C,MX83*%
X402371250Y-250507500D03*
X388641250Y-252927500D03*
%TD*%
D11*
%TO.C,D107*%
X122656250Y-204497500D03*
D12*
X122656250Y-202507500D03*
D11*
X117056250Y-202507500D03*
D13*
X117056250Y-204507500D03*
%TD*%
D11*
%TO.C,D184*%
X427456250Y-204497500D03*
D12*
X427456250Y-202507500D03*
D11*
X421856250Y-202507500D03*
D13*
X421856250Y-204507500D03*
%TD*%
D11*
%TO.C,D102*%
X103606250Y-204497500D03*
D12*
X103606250Y-202507500D03*
D11*
X98006250Y-202507500D03*
D13*
X98006250Y-204507500D03*
%TD*%
D10*
%TO.C,MX58*%
X302358750Y-250507500D03*
X288628750Y-252927500D03*
%TD*%
%TO.C,MX50*%
X278546250Y-193357500D03*
X264816250Y-195777500D03*
%TD*%
%TO.C,MX72*%
X373796250Y-169545000D03*
X360066250Y-171965000D03*
%TD*%
D11*
%TO.C,D181*%
X398881250Y-223547500D03*
D12*
X398881250Y-221557500D03*
D11*
X393281250Y-221557500D03*
D13*
X393281250Y-223557500D03*
%TD*%
D11*
%TO.C,D125*%
X189331250Y-223547500D03*
D12*
X189331250Y-221557500D03*
D11*
X183731250Y-221557500D03*
D13*
X183731250Y-223557500D03*
%TD*%
D11*
%TO.C,D135*%
X227431250Y-223547500D03*
D12*
X227431250Y-221557500D03*
D11*
X221831250Y-221557500D03*
D13*
X221831250Y-223557500D03*
%TD*%
D10*
%TO.C,MX54*%
X316646250Y-169545000D03*
X302916250Y-171965000D03*
%TD*%
%TO.C,MX49*%
X288071250Y-169545000D03*
X274341250Y-171965000D03*
%TD*%
%TO.C,MX86*%
X430946250Y-231457500D03*
X417216250Y-233877500D03*
%TD*%
%TO.C,MX24*%
X183296250Y-193357500D03*
X169566250Y-195777500D03*
%TD*%
%TO.C,MX80*%
X402371250Y-193357500D03*
X388641250Y-195777500D03*
%TD*%
%TO.C,MX51*%
X288071250Y-212407500D03*
X274341250Y-214827500D03*
%TD*%
%TO.C,MX47*%
X273783750Y-231457500D03*
X260053750Y-233877500D03*
%TD*%
%TO.C,MX99*%
X488096250Y-221998639D03*
X474366250Y-224418639D03*
%TD*%
%TO.C,MX30*%
X211871250Y-212407500D03*
X198141250Y-214827500D03*
%TD*%
%TO.C,MX26*%
X197583750Y-231457500D03*
X183853750Y-233877500D03*
%TD*%
%TO.C,MX36*%
X235683750Y-231457500D03*
X221953750Y-233877500D03*
%TD*%
D11*
%TO.C,D161*%
X313156250Y-204497500D03*
D12*
X313156250Y-202507500D03*
D11*
X307556250Y-202507500D03*
D13*
X307556250Y-204507500D03*
%TD*%
D11*
%TO.C,D113*%
X141706250Y-204497500D03*
D12*
X141706250Y-202507500D03*
D11*
X136106250Y-202507500D03*
D13*
X136106250Y-204507500D03*
%TD*%
D11*
%TO.C,D127*%
X184568750Y-261647500D03*
D12*
X184568750Y-259657500D03*
D11*
X178968750Y-259657500D03*
D13*
X178968750Y-261657500D03*
%TD*%
D10*
%TO.C,MX35*%
X230921250Y-212407500D03*
X217191250Y-214827500D03*
%TD*%
D11*
%TO.C,D156*%
X303631250Y-223547500D03*
D12*
X303631250Y-221557500D03*
D11*
X298031250Y-221557500D03*
D13*
X298031250Y-223557500D03*
%TD*%
D11*
%TO.C,D103*%
X108368750Y-223547500D03*
D12*
X108368750Y-221557500D03*
D11*
X102768750Y-221557500D03*
D13*
X102768750Y-223557500D03*
%TD*%
D10*
%TO.C,MX88*%
X440471250Y-269623639D03*
X426741250Y-272043639D03*
%TD*%
%TO.C,MX29*%
X202346250Y-193357500D03*
X188616250Y-195777500D03*
%TD*%
%TO.C,MX53*%
X283308750Y-250507500D03*
X269578750Y-252927500D03*
%TD*%
%TO.C,MX6*%
X111858750Y-269557500D03*
X98128750Y-271977500D03*
%TD*%
%TO.C,MX79*%
X402371250Y-169545000D03*
X388641250Y-171965000D03*
%TD*%
%TO.C,MX56*%
X307121250Y-212407500D03*
X293391250Y-214827500D03*
%TD*%
D11*
%TO.C,D177*%
X375068750Y-285460000D03*
D12*
X375068750Y-283470000D03*
D11*
X369468750Y-283470000D03*
D13*
X369468750Y-285470000D03*
%TD*%
D10*
%TO.C,MX84*%
X430946250Y-193357500D03*
X417216250Y-195777500D03*
%TD*%
%TO.C,MX16*%
X149958750Y-250507500D03*
X136228750Y-252927500D03*
%TD*%
D11*
%TO.C,D119*%
X160756250Y-204497500D03*
D12*
X160756250Y-202507500D03*
D11*
X155156250Y-202507500D03*
D13*
X155156250Y-204507500D03*
%TD*%
D11*
%TO.C,D134*%
X217906250Y-204497500D03*
D12*
X217906250Y-202507500D03*
D11*
X212306250Y-202507500D03*
D13*
X212306250Y-204507500D03*
%TD*%
D10*
%TO.C,MX101*%
X228540000Y-269557500D03*
X214810000Y-271977500D03*
%TD*%
D11*
%TO.C,D147*%
X270293750Y-242597500D03*
D12*
X270293750Y-240607500D03*
D11*
X264693750Y-240607500D03*
D13*
X264693750Y-242607500D03*
%TD*%
D11*
%TO.C,D199*%
X484606250Y-233072500D03*
D12*
X484606250Y-231082500D03*
D11*
X479006250Y-231082500D03*
D13*
X479006250Y-233082500D03*
%TD*%
D11*
%TO.C,D128*%
X198856250Y-180685000D03*
D12*
X198856250Y-178695000D03*
D11*
X193256250Y-178695000D03*
D13*
X193256250Y-180695000D03*
%TD*%
D10*
%TO.C,MX42*%
X254733750Y-231457500D03*
X241003750Y-233877500D03*
%TD*%
%TO.C,MX59*%
X295215000Y-269557500D03*
X281485000Y-271977500D03*
%TD*%
D11*
%TO.C,D142*%
X251243750Y-242597500D03*
D12*
X251243750Y-240607500D03*
D11*
X245643750Y-240607500D03*
D13*
X245643750Y-242607500D03*
%TD*%
D11*
%TO.C,D191*%
X446506250Y-242597500D03*
D12*
X446506250Y-240607500D03*
D11*
X440906250Y-240607500D03*
D13*
X440906250Y-242607500D03*
%TD*%
D10*
%TO.C,MX85*%
X430946250Y-212407500D03*
X417216250Y-214827500D03*
%TD*%
%TO.C,MX12*%
X145196250Y-169545000D03*
X131466250Y-171965000D03*
%TD*%
%TO.C,MX103*%
X297596250Y-269557500D03*
X283866250Y-271977500D03*
%TD*%
D11*
%TO.C,D115*%
X155993750Y-242597500D03*
D12*
X155993750Y-240607500D03*
D11*
X150393750Y-240607500D03*
D13*
X150393750Y-242607500D03*
%TD*%
D10*
%TO.C,MX25*%
X192821250Y-212407500D03*
X179091250Y-214827500D03*
%TD*%
D11*
%TO.C,D187*%
X427456250Y-261647500D03*
D12*
X427456250Y-259657500D03*
D11*
X421856250Y-259657500D03*
D13*
X421856250Y-261657500D03*
%TD*%
D11*
%TO.C,D162*%
X322681250Y-223547500D03*
D12*
X322681250Y-221557500D03*
D11*
X317081250Y-221557500D03*
D13*
X317081250Y-223557500D03*
%TD*%
D10*
%TO.C,MX63*%
X330933750Y-231457500D03*
X317203750Y-233877500D03*
%TD*%
%TO.C,MX32*%
X207108750Y-250507500D03*
X193378750Y-252927500D03*
%TD*%
%TO.C,MX7*%
X126146250Y-193357500D03*
X112416250Y-195777500D03*
%TD*%
%TO.C,MX64*%
X321408750Y-250507500D03*
X307678750Y-252927500D03*
%TD*%
%TO.C,MX15*%
X159483750Y-231457500D03*
X145753750Y-233877500D03*
%TD*%
D11*
%TO.C,D189*%
X446506250Y-204497500D03*
D12*
X446506250Y-202507500D03*
D11*
X440906250Y-202507500D03*
D13*
X440906250Y-204507500D03*
%TD*%
D11*
%TO.C,D159*%
X293312500Y-280697500D03*
D12*
X293312500Y-278707500D03*
D11*
X287712500Y-278707500D03*
D13*
X287712500Y-280707500D03*
%TD*%
D10*
%TO.C,MX87*%
X430946250Y-250507500D03*
X417216250Y-252927500D03*
%TD*%
%TO.C,MX5*%
X109477500Y-250507500D03*
X95747500Y-252927500D03*
%TD*%
D11*
%TO.C,D130*%
X208381250Y-223547500D03*
D12*
X208381250Y-221557500D03*
D11*
X202781250Y-221557500D03*
D13*
X202781250Y-223557500D03*
%TD*%
D11*
%TO.C,D197*%
X465556250Y-261647500D03*
D12*
X465556250Y-259657500D03*
D11*
X459956250Y-259657500D03*
D13*
X459956250Y-261657500D03*
%TD*%
D11*
%TO.C,D143*%
X241718750Y-261647500D03*
D12*
X241718750Y-259657500D03*
D11*
X236118750Y-259657500D03*
D13*
X236118750Y-261657500D03*
%TD*%
D11*
%TO.C,D104*%
X110750000Y-242597500D03*
D12*
X110750000Y-240607500D03*
D11*
X105150000Y-240607500D03*
D13*
X105150000Y-242607500D03*
%TD*%
D10*
%TO.C,MX65*%
X316646250Y-269557500D03*
X302916250Y-271977500D03*
%TD*%
D11*
%TO.C,D195*%
X465556250Y-223547500D03*
D12*
X465556250Y-221557500D03*
D11*
X459956250Y-221557500D03*
D13*
X459956250Y-223557500D03*
%TD*%
D11*
%TO.C,D169*%
X346493750Y-242597500D03*
D12*
X346493750Y-240607500D03*
D11*
X340893750Y-240607500D03*
D13*
X340893750Y-242607500D03*
%TD*%
D11*
%TO.C,D160*%
X332206250Y-180685000D03*
D12*
X332206250Y-178695000D03*
D11*
X326606250Y-178695000D03*
D13*
X326606250Y-180695000D03*
%TD*%
D11*
%TO.C,D198*%
X484606250Y-204497500D03*
D12*
X484606250Y-202507500D03*
D11*
X479006250Y-202507500D03*
D13*
X479006250Y-204507500D03*
%TD*%
D10*
%TO.C,MX10*%
X130908750Y-250507500D03*
X117178750Y-252927500D03*
%TD*%
%TO.C,MX2*%
X107096250Y-193357500D03*
X93366250Y-195777500D03*
%TD*%
%TO.C,MX8*%
X135671250Y-212407500D03*
X121941250Y-214827500D03*
%TD*%
%TO.C,MX4*%
X114240000Y-231457500D03*
X100510000Y-233877500D03*
%TD*%
D11*
%TO.C,D129*%
X198856250Y-204497500D03*
D12*
X198856250Y-202507500D03*
D11*
X193256250Y-202507500D03*
D13*
X193256250Y-204507500D03*
%TD*%
D10*
%TO.C,MX82*%
X402371250Y-231457500D03*
X388641250Y-233877500D03*
%TD*%
D14*
%TO.C,D18*%
X150018750Y-181037500D03*
X150018750Y-177737500D03*
%TD*%
%TO.C,D86*%
X416718750Y-242950000D03*
X416718750Y-239650000D03*
%TD*%
D15*
%TO.C,F1*%
X125000000Y-175400000D03*
X125000000Y-172600000D03*
%TD*%
D14*
%TO.C,D73*%
X350043750Y-204850000D03*
X350043750Y-201550000D03*
%TD*%
%TO.C,D21*%
X164306250Y-242950000D03*
X164306250Y-239650000D03*
%TD*%
%TO.C,D25*%
X178593750Y-223900000D03*
X178593750Y-220600000D03*
%TD*%
D16*
%TO.C,R2*%
X116687500Y-177400000D03*
X118512500Y-177400000D03*
%TD*%
D14*
%TO.C,D27*%
X173831250Y-262000000D03*
X173831250Y-258700000D03*
%TD*%
%TO.C,D79*%
X388143750Y-181037500D03*
X388143750Y-177737500D03*
%TD*%
%TO.C,D45*%
X245268750Y-204850000D03*
X245268750Y-201550000D03*
%TD*%
%TO.C,D15*%
X145256250Y-242950000D03*
X145256250Y-239650000D03*
%TD*%
%TO.C,D16*%
X135731250Y-262000000D03*
X135731250Y-258700000D03*
%TD*%
%TO.C,D52*%
X278606250Y-242950000D03*
X278606250Y-239650000D03*
%TD*%
%TO.C,D40*%
X226218750Y-204850000D03*
X226218750Y-201550000D03*
%TD*%
%TO.C,D31*%
X202406250Y-242950000D03*
X202406250Y-239650000D03*
%TD*%
%TO.C,D98*%
X473868750Y-204850000D03*
X473868750Y-201550000D03*
%TD*%
%TO.C,D80*%
X388143750Y-204850000D03*
X388143750Y-201550000D03*
%TD*%
%TO.C,D26*%
X183356250Y-242950000D03*
X183356250Y-239650000D03*
%TD*%
%TO.C,D64*%
X307181250Y-262000000D03*
X307181250Y-258700000D03*
%TD*%
%TO.C,D34*%
X207168750Y-204850000D03*
X207168750Y-201550000D03*
%TD*%
%TO.C,D12*%
X130968750Y-181037500D03*
X130968750Y-177737500D03*
%TD*%
%TO.C,D41*%
X235743750Y-223900000D03*
X235743750Y-220600000D03*
%TD*%
%TO.C,D20*%
X159543750Y-223900000D03*
X159543750Y-220600000D03*
%TD*%
%TO.C,D72*%
X359568750Y-181037500D03*
X359568750Y-177737500D03*
%TD*%
%TO.C,D36*%
X221456250Y-242950000D03*
X221456250Y-239650000D03*
%TD*%
%TO.C,D81*%
X388143750Y-223900000D03*
X388143750Y-220600000D03*
%TD*%
%TO.C,D84*%
X416718750Y-204850000D03*
X416718750Y-201550000D03*
%TD*%
%TO.C,D89*%
X435768750Y-204850000D03*
X435768750Y-201550000D03*
%TD*%
%TO.C,D5*%
X95250000Y-262000000D03*
X95250000Y-258700000D03*
%TD*%
%TO.C,D51*%
X273843750Y-223900000D03*
X273843750Y-220600000D03*
%TD*%
%TO.C,D28*%
X188118750Y-181037500D03*
X188118750Y-177737500D03*
%TD*%
D17*
%TO.C,C1*%
X118550000Y-180200000D03*
X116650000Y-180200000D03*
%TD*%
D14*
%TO.C,D75*%
X345281250Y-285812500D03*
X345281250Y-282512500D03*
%TD*%
%TO.C,D62*%
X311943750Y-223900000D03*
X311943750Y-220600000D03*
%TD*%
%TO.C,D47*%
X259556250Y-242950000D03*
X259556250Y-239650000D03*
%TD*%
%TO.C,D9*%
X126206250Y-242950000D03*
X126206250Y-239650000D03*
%TD*%
%TO.C,D95*%
X454818750Y-223900000D03*
X454818750Y-220600000D03*
%TD*%
%TO.C,D76*%
X364331250Y-266762500D03*
X364331250Y-263462500D03*
%TD*%
%TO.C,D46*%
X254793750Y-223900000D03*
X254793750Y-220600000D03*
%TD*%
%TO.C,D83*%
X388143750Y-262000000D03*
X388143750Y-258700000D03*
%TD*%
%TO.C,D11*%
X121443750Y-281050000D03*
X121443750Y-277750000D03*
%TD*%
%TO.C,D24*%
X169068750Y-204850000D03*
X169068750Y-201550000D03*
%TD*%
%TO.C,D53*%
X269081250Y-262000000D03*
X269081250Y-258700000D03*
%TD*%
D18*
%TO.C,J1*%
X116606250Y-169938750D03*
X117406250Y-169938750D03*
D19*
X118606250Y-169938750D03*
X119606250Y-169938750D03*
X120106250Y-169938750D03*
X121106250Y-169938750D03*
D18*
X122306250Y-169938750D03*
X123106250Y-169938750D03*
X123106250Y-169938750D03*
X122306250Y-169938750D03*
D19*
X121606250Y-169938750D03*
X120606250Y-169938750D03*
X119106250Y-169938750D03*
X118106250Y-169938750D03*
D18*
X117406250Y-169938750D03*
X116606250Y-169938750D03*
%TD*%
D14*
%TO.C,D43*%
X230981250Y-262000000D03*
X230981250Y-258700000D03*
%TD*%
%TO.C,D44*%
X254793750Y-181037500D03*
X254793750Y-177737500D03*
%TD*%
%TO.C,D65*%
X302418750Y-281050000D03*
X302418750Y-277750000D03*
%TD*%
%TO.C,D55*%
X283368750Y-204850000D03*
X283368750Y-201550000D03*
%TD*%
%TO.C,D37*%
X211931250Y-262000000D03*
X211931250Y-258700000D03*
%TD*%
%TO.C,D42*%
X240506250Y-242950000D03*
X240506250Y-239650000D03*
%TD*%
%TO.C,D6*%
X97631250Y-281050000D03*
X97631250Y-277750000D03*
%TD*%
%TO.C,D97*%
X454818750Y-262000000D03*
X454818750Y-258700000D03*
%TD*%
%TO.C,D100*%
X473868750Y-271525000D03*
X473868750Y-268225000D03*
%TD*%
%TO.C,D30*%
X197643750Y-223900000D03*
X197643750Y-220600000D03*
%TD*%
%TO.C,D19*%
X150018750Y-204850000D03*
X150018750Y-201550000D03*
%TD*%
%TO.C,D35*%
X216693750Y-223900000D03*
X216693750Y-220600000D03*
%TD*%
%TO.C,D22*%
X154781250Y-262000000D03*
X154781250Y-258700000D03*
%TD*%
%TO.C,D49*%
X273843750Y-181037500D03*
X273843750Y-177737500D03*
%TD*%
%TO.C,D10*%
X116681250Y-262000000D03*
X116681250Y-258700000D03*
%TD*%
D16*
%TO.C,R1*%
X116687500Y-173800000D03*
X118512500Y-173800000D03*
%TD*%
D14*
%TO.C,D4*%
X100012500Y-242950000D03*
X100012500Y-239650000D03*
%TD*%
%TO.C,D33*%
X216693750Y-181037500D03*
X216693750Y-177737500D03*
%TD*%
%TO.C,D90*%
X435768750Y-223900000D03*
X435768750Y-220600000D03*
%TD*%
%TO.C,D87*%
X416718750Y-262000000D03*
X416718750Y-258700000D03*
%TD*%
%TO.C,D63*%
X316706250Y-242950000D03*
X316706250Y-239650000D03*
%TD*%
D20*
%TO.C,FB1*%
X125000000Y-179000000D03*
X125000000Y-177400000D03*
%TD*%
D14*
%TO.C,D14*%
X140493750Y-223900000D03*
X140493750Y-220600000D03*
%TD*%
%TO.C,D66*%
X340518750Y-181037500D03*
X340518750Y-177737500D03*
%TD*%
%TO.C,D60*%
X321468750Y-181037500D03*
X321468750Y-177737500D03*
%TD*%
%TO.C,D77*%
X364331250Y-285812500D03*
X364331250Y-282512500D03*
%TD*%
%TO.C,D70*%
X333375000Y-262000000D03*
X333375000Y-258700000D03*
%TD*%
%TO.C,D38*%
X211931250Y-281050000D03*
X211931250Y-277750000D03*
%TD*%
%TO.C,D13*%
X130968750Y-204850000D03*
X130968750Y-201550000D03*
%TD*%
%TO.C,D32*%
X192881250Y-262000000D03*
X192881250Y-258700000D03*
%TD*%
%TO.C,D29*%
X188118750Y-204850000D03*
X188118750Y-201550000D03*
%TD*%
%TO.C,D78*%
X383381250Y-285812500D03*
X383381250Y-282512500D03*
%TD*%
%TO.C,D82*%
X388143750Y-242950000D03*
X388143750Y-239650000D03*
%TD*%
%TO.C,D58*%
X288131250Y-262000000D03*
X288131250Y-258700000D03*
%TD*%
%TO.C,D88*%
X426243750Y-281050000D03*
X426243750Y-277750000D03*
%TD*%
%TO.C,D99*%
X473868750Y-233425000D03*
X473868750Y-230125000D03*
%TD*%
%TO.C,D71*%
X321468750Y-281050000D03*
X321468750Y-277750000D03*
%TD*%
%TO.C,D67*%
X321468750Y-204850000D03*
X321468750Y-201550000D03*
%TD*%
%TO.C,D68*%
X330993750Y-223900000D03*
X330993750Y-220600000D03*
%TD*%
%TO.C,D50*%
X264318750Y-204850000D03*
X264318750Y-201550000D03*
%TD*%
%TO.C,D91*%
X435768750Y-242950000D03*
X435768750Y-239650000D03*
%TD*%
%TO.C,D2*%
X92868750Y-204850000D03*
X92868750Y-201550000D03*
%TD*%
%TO.C,D59*%
X280987500Y-281050000D03*
X280987500Y-277750000D03*
%TD*%
%TO.C,D69*%
X335756250Y-242950000D03*
X335756250Y-239650000D03*
%TD*%
%TO.C,D57*%
X297656250Y-242950000D03*
X297656250Y-239650000D03*
%TD*%
%TO.C,D93*%
X454818750Y-281050000D03*
X454818750Y-277750000D03*
%TD*%
%TO.C,D74*%
X357187500Y-233425000D03*
X357187500Y-230125000D03*
%TD*%
%TO.C,D7*%
X111918750Y-204850000D03*
X111918750Y-201550000D03*
%TD*%
%TO.C,D39*%
X235743750Y-181037500D03*
X235743750Y-177737500D03*
%TD*%
%TO.C,D23*%
X169068750Y-181037500D03*
X169068750Y-177737500D03*
%TD*%
%TO.C,D1*%
X92868750Y-181037500D03*
X92868750Y-177737500D03*
%TD*%
%TO.C,D92*%
X435768750Y-262000000D03*
X435768750Y-258700000D03*
%TD*%
%TO.C,D61*%
X302418750Y-204850000D03*
X302418750Y-201550000D03*
%TD*%
%TO.C,D94*%
X454818750Y-204850000D03*
X454818750Y-201550000D03*
%TD*%
%TO.C,D54*%
X302418750Y-181037500D03*
X302418750Y-177737500D03*
%TD*%
%TO.C,D8*%
X121443750Y-223900000D03*
X121443750Y-220600000D03*
%TD*%
%TO.C,D85*%
X416718750Y-223900000D03*
X416718750Y-220600000D03*
%TD*%
%TO.C,D48*%
X250031250Y-262000000D03*
X250031250Y-258700000D03*
%TD*%
%TO.C,D17*%
X142875000Y-281050000D03*
X142875000Y-277750000D03*
%TD*%
%TO.C,D56*%
X292893750Y-223900000D03*
X292893750Y-220600000D03*
%TD*%
%TO.C,D3*%
X97631250Y-223900000D03*
X97631250Y-220600000D03*
%TD*%
%TO.C,D96*%
X454818750Y-242950000D03*
X454818750Y-239650000D03*
%TD*%
M02*
