%TF.GenerationSoftware,KiCad,Pcbnew,(6.0.4)*%
%TF.CreationDate,2022-05-20T16:58:25+02:00*%
%TF.ProjectId,pcb-rounded,7063622d-726f-4756-9e64-65642e6b6963,rev?*%
%TF.SameCoordinates,Original*%
%TF.FileFunction,Paste,Top*%
%TF.FilePolarity,Positive*%
%FSLAX46Y46*%
G04 Gerber Fmt 4.6, Leading zero omitted, Abs format (unit mm)*
G04 Created by KiCad (PCBNEW (6.0.4)) date 2022-05-20 16:58:25*
%MOMM*%
%LPD*%
G01*
G04 APERTURE LIST*
G04 Aperture macros list*
%AMRoundRect*
0 Rectangle with rounded corners*
0 $1 Rounding radius*
0 $2 $3 $4 $5 $6 $7 $8 $9 X,Y pos of 4 corners*
0 Add a 4 corners polygon primitive as box body*
4,1,4,$2,$3,$4,$5,$6,$7,$8,$9,$2,$3,0*
0 Add four circle primitives for the rounded corners*
1,1,$1+$1,$2,$3*
1,1,$1+$1,$4,$5*
1,1,$1+$1,$6,$7*
1,1,$1+$1,$8,$9*
0 Add four rect primitives between the rounded corners*
20,1,$1+$1,$2,$3,$4,$5,0*
20,1,$1+$1,$4,$5,$6,$7,0*
20,1,$1+$1,$6,$7,$8,$9,0*
20,1,$1+$1,$8,$9,$2,$3,0*%
%AMRotRect*
0 Rectangle, with rotation*
0 The origin of the aperture is its center*
0 $1 length*
0 $2 width*
0 $3 Rotation angle, in degrees counterclockwise*
0 Add horizontal line*
21,1,$1,$2,0,0,$3*%
G04 Aperture macros list end*
%ADD10RoundRect,0.450000X-0.950000X-0.450000X0.950000X-0.450000X0.950000X0.450000X-0.950000X0.450000X0*%
%ADD11RoundRect,0.250000X-0.132583X0.503814X-0.503814X0.132583X0.132583X-0.503814X0.503814X-0.132583X0*%
%ADD12RoundRect,0.250000X0.159099X-0.512652X0.512652X-0.159099X-0.159099X0.512652X-0.512652X0.159099X0*%
%ADD13RoundRect,0.250000X-0.159099X0.512652X-0.512652X0.159099X0.159099X-0.512652X0.512652X-0.159099X0*%
%ADD14RoundRect,0.250000X-0.503814X-0.132583X-0.132583X-0.503814X0.503814X0.132583X0.132583X0.503814X0*%
%ADD15RotRect,1.500000X0.550000X45.000000*%
%ADD16RotRect,1.500000X0.550000X135.000000*%
%ADD17RoundRect,0.250000X-0.262500X-0.450000X0.262500X-0.450000X0.262500X0.450000X-0.262500X0.450000X0*%
%ADD18RoundRect,0.150000X-0.150000X0.587500X-0.150000X-0.587500X0.150000X-0.587500X0.150000X0.587500X0*%
%ADD19RoundRect,0.250000X0.132583X-0.503814X0.503814X-0.132583X-0.132583X0.503814X-0.503814X0.132583X0*%
%ADD20RotRect,1.400000X1.200000X225.000000*%
G04 APERTURE END LIST*
D10*
%TO.C,SW1*%
X458875000Y-185531250D03*
X461875000Y-187531250D03*
%TD*%
D11*
%TO.C,R2*%
X415845235Y-177054765D03*
X414554765Y-178345235D03*
%TD*%
D12*
%TO.C,C7*%
X448468750Y-187325000D03*
X449812252Y-185981498D03*
%TD*%
D13*
%TO.C,C4*%
X434249751Y-183224249D03*
X432906249Y-184567751D03*
%TD*%
D12*
%TO.C,C3*%
X465259499Y-173471751D03*
X466603001Y-172128249D03*
%TD*%
D14*
%TO.C,R8*%
X467254765Y-183354765D03*
X468545235Y-184645235D03*
%TD*%
D15*
%TO.C,U1*%
X433288637Y-177414582D03*
X433854323Y-177980267D03*
X434420008Y-178545952D03*
X434985693Y-179111638D03*
X435551379Y-179677323D03*
X436117064Y-180243009D03*
X436682750Y-180808694D03*
X437248435Y-181374380D03*
X437814120Y-181940065D03*
X438379806Y-182505750D03*
X438945491Y-183071436D03*
X439511177Y-183637121D03*
X440076862Y-184202807D03*
X440642548Y-184768492D03*
X441208233Y-185334177D03*
X441773918Y-185899863D03*
D16*
X444178082Y-185899863D03*
X444743767Y-185334177D03*
X445309452Y-184768492D03*
X445875138Y-184202807D03*
X446440823Y-183637121D03*
X447006509Y-183071436D03*
X447572194Y-182505750D03*
X448137880Y-181940065D03*
X448703565Y-181374380D03*
X449269250Y-180808694D03*
X449834936Y-180243009D03*
X450400621Y-179677323D03*
X450966307Y-179111638D03*
X451531992Y-178545952D03*
X452097677Y-177980267D03*
X452663363Y-177414582D03*
D15*
X452663363Y-175010418D03*
X452097677Y-174444733D03*
X451531992Y-173879048D03*
X450966307Y-173313362D03*
X450400621Y-172747677D03*
X449834936Y-172181991D03*
X449269250Y-171616306D03*
X448703565Y-171050620D03*
X448137880Y-170484935D03*
X447572194Y-169919250D03*
X447006509Y-169353564D03*
X446440823Y-168787879D03*
X445875138Y-168222193D03*
X445309452Y-167656508D03*
X444743767Y-167090823D03*
X444178082Y-166525137D03*
D16*
X441773918Y-166525137D03*
X441208233Y-167090823D03*
X440642548Y-167656508D03*
X440076862Y-168222193D03*
X439511177Y-168787879D03*
X438945491Y-169353564D03*
X438379806Y-169919250D03*
X437814120Y-170484935D03*
X437248435Y-171050620D03*
X436682750Y-171616306D03*
X436117064Y-172181991D03*
X435551379Y-172747677D03*
X434985693Y-173313362D03*
X434420008Y-173879048D03*
X433854323Y-174444733D03*
X433288637Y-175010418D03*
%TD*%
D17*
%TO.C,R7*%
X408887500Y-168200000D03*
X410712500Y-168200000D03*
%TD*%
D13*
%TO.C,C8*%
X422946751Y-174746999D03*
X421603249Y-176090501D03*
%TD*%
D18*
%TO.C,Q1*%
X411850000Y-179362500D03*
X409950000Y-179362500D03*
X410900000Y-181237500D03*
%TD*%
D19*
%TO.C,R1*%
X452586015Y-187027970D03*
X453876485Y-185737500D03*
%TD*%
D12*
%TO.C,C6*%
X433509499Y-166565501D03*
X434853001Y-165221999D03*
%TD*%
D19*
%TO.C,R3*%
X411254765Y-176545235D03*
X412545235Y-175254765D03*
%TD*%
D20*
%TO.C,Y1*%
X464108027Y-168221142D03*
X462552392Y-169776777D03*
X463754473Y-170978858D03*
X465310108Y-169423223D03*
%TD*%
D19*
%TO.C,R6*%
X449499515Y-166845235D03*
X450789985Y-165554765D03*
%TD*%
D12*
%TO.C,C5*%
X428873999Y-175804751D03*
X430217501Y-174461249D03*
%TD*%
D13*
%TO.C,C2*%
X461203001Y-166928249D03*
X459859499Y-168271751D03*
%TD*%
M02*
