M48
; DRILL file {KiCad (6.0.4)} date Sat Nov  5 13:28:59 2022
; FORMAT={-:-/ absolute / inch / decimal}
; #@! TF.CreationDate,2022-11-05T13:28:59+01:00
; #@! TF.GenerationSoftware,Kicad,Pcbnew,(6.0.4)
; #@! TF.FileFunction,Plated,1,2,PTH
FMAT,2
INCH
; #@! TA.AperFunction,Plated,PTH,ViaDrill
T1C0.0118
; #@! TA.AperFunction,Plated,PTH,ComponentDrill
T2C0.0118
; #@! TA.AperFunction,Plated,PTH,ViaDrill
T3C0.0157
; #@! TA.AperFunction,Plated,PTH,ComponentDrill
T4C0.0394
; #@! TA.AperFunction,Plated,PTH,ComponentDrill
T5C0.0591
%
G90
G05
T1
X16.645Y-7.3022
X16.645Y-7.3565
X16.645Y-7.4122
X16.687Y-7.2779
X16.6871Y-7.3322
X16.6871Y-7.3865
X16.8465Y-6.5669
X16.8465Y-6.6211
X16.8465Y-6.6772
X16.8465Y-6.7323
X16.878Y-6.5394
X16.878Y-6.5945
X16.878Y-6.6496
X16.878Y-6.7047
X16.9142Y-7.0308
X16.9252Y-7.063
X17.0786Y-7.0983
X17.085Y-6.785
X17.0945Y-6.748
X17.101Y-7.1207
X17.13Y-6.74
X17.1378Y-6.7008
X17.175Y-6.695
X17.1772Y-6.6535
X17.195Y-7.205
X17.1969Y-7.248
X17.2087Y-6.5984
X17.22Y-6.6523
X17.2402Y-7.248
X17.2441Y-7.2913
X17.285Y-7.285
X17.2913Y-7.3268
X17.335Y-7.335
X17.3386Y-7.3701
X17.525Y-7.355
X17.5646Y-7.3496
X17.567Y-7.3138
X17.7677Y-7.1574
X17.7953Y-7.1024
X17.8071Y-7.1417
X17.8228Y-6.7087
X17.8307Y-6.7441
X17.8386Y-6.7835
T2
X3.6388Y-6.7335
X3.6388Y-6.7689
X3.6388Y-6.8043
X3.6388Y-7.671
X3.6388Y-7.7064
X3.6388Y-7.7418
X3.7089Y-6.7382
X3.7089Y-6.7736
X3.7089Y-6.8091
X3.7089Y-7.6757
X3.7089Y-7.7111
X3.7089Y-7.7466
X3.7326Y-9.921
X3.7326Y-9.9564
X3.7326Y-9.9918
X3.8027Y-9.9257
X3.8027Y-9.9611
X3.8027Y-9.9966
X3.8263Y-8.421
X3.8263Y-8.4564
X3.8263Y-8.4918
X3.8263Y-10.671
X3.8263Y-10.7064
X3.8263Y-10.7418
X3.8964Y-8.4257
X3.8964Y-8.4611
X3.8964Y-8.4966
X3.8964Y-10.6757
X3.8964Y-10.7111
X3.8964Y-10.7466
X3.9201Y-9.171
X3.9201Y-9.2064
X3.9201Y-9.2418
X3.9902Y-9.1757
X3.9902Y-9.2111
X3.9902Y-9.2466
X4.1794Y-6.6398
X4.1794Y-6.6752
X4.1794Y-6.7106
X4.1794Y-7.5773
X4.1794Y-7.6127
X4.1794Y-7.6481
X4.2542Y-6.6398
X4.2542Y-6.6752
X4.2542Y-6.7106
X4.2542Y-7.5773
X4.2542Y-7.6127
X4.2542Y-7.6481
X4.2731Y-9.8273
X4.2731Y-9.8627
X4.2731Y-9.8981
X4.3479Y-9.8273
X4.3479Y-9.8627
X4.3479Y-9.8981
X4.3669Y-8.3273
X4.3669Y-8.3627
X4.3669Y-8.3981
X4.3669Y-10.5773
X4.3669Y-10.6127
X4.3669Y-10.6481
X4.3888Y-7.671
X4.3888Y-7.7064
X4.3888Y-7.7418
X4.4417Y-8.3273
X4.4417Y-8.3627
X4.4417Y-8.3981
X4.4417Y-10.5773
X4.4417Y-10.6127
X4.4417Y-10.6481
X4.4589Y-7.6757
X4.4589Y-7.7111
X4.4589Y-7.7466
X4.4606Y-9.0773
X4.4606Y-9.1127
X4.4606Y-9.1481
X4.5354Y-9.0773
X4.5354Y-9.1127
X4.5354Y-9.1481
X4.5763Y-9.921
X4.5763Y-9.9564
X4.5763Y-9.9918
X4.6464Y-9.9257
X4.6464Y-9.9611
X4.6464Y-9.9966
X4.7638Y-8.421
X4.7638Y-8.4564
X4.7638Y-8.4918
X4.7638Y-10.671
X4.7638Y-10.7064
X4.7638Y-10.7418
X4.8339Y-8.4257
X4.8339Y-8.4611
X4.8339Y-8.4966
X4.8339Y-10.6757
X4.8339Y-10.7111
X4.8339Y-10.7466
X4.9294Y-7.5773
X4.9294Y-7.6127
X4.9294Y-7.6481
X4.9513Y-9.171
X4.9513Y-9.2064
X4.9513Y-9.2418
X5.0042Y-7.5773
X5.0042Y-7.6127
X5.0042Y-7.6481
X5.0214Y-9.1757
X5.0214Y-9.2111
X5.0214Y-9.2466
X5.1169Y-9.8273
X5.1169Y-9.8627
X5.1169Y-9.8981
X5.1388Y-6.7335
X5.1388Y-6.7689
X5.1388Y-6.8043
X5.1388Y-7.671
X5.1388Y-7.7064
X5.1388Y-7.7418
X5.1917Y-9.8273
X5.1917Y-9.8627
X5.1917Y-9.8981
X5.2089Y-6.7382
X5.2089Y-6.7736
X5.2089Y-6.8091
X5.2089Y-7.6757
X5.2089Y-7.7111
X5.2089Y-7.7466
X5.3044Y-8.3273
X5.3044Y-8.3627
X5.3044Y-8.3981
X5.3044Y-10.5773
X5.3044Y-10.6127
X5.3044Y-10.6481
X5.3263Y-9.921
X5.3263Y-9.9564
X5.3263Y-9.9918
X5.3792Y-8.3273
X5.3792Y-8.3627
X5.3792Y-8.3981
X5.3792Y-10.5773
X5.3792Y-10.6127
X5.3792Y-10.6481
X5.3964Y-9.9257
X5.3964Y-9.9611
X5.3964Y-9.9966
X5.4919Y-9.0773
X5.4919Y-9.1127
X5.4919Y-9.1481
X5.5138Y-8.421
X5.5138Y-8.4564
X5.5138Y-8.4918
X5.5667Y-9.0773
X5.5667Y-9.1127
X5.5667Y-9.1481
X5.5839Y-8.4257
X5.5839Y-8.4611
X5.5839Y-8.4966
X5.6076Y-10.671
X5.6076Y-10.7064
X5.6076Y-10.7418
X5.6777Y-10.6757
X5.6777Y-10.7111
X5.6777Y-10.7466
X5.6794Y-6.6398
X5.6794Y-6.6752
X5.6794Y-6.7106
X5.6794Y-7.5773
X5.6794Y-7.6127
X5.6794Y-7.6481
X5.7013Y-9.171
X5.7013Y-9.2064
X5.7013Y-9.2418
X5.7542Y-6.6398
X5.7542Y-6.6752
X5.7542Y-6.7106
X5.7542Y-7.5773
X5.7542Y-7.6127
X5.7542Y-7.6481
X5.7714Y-9.1757
X5.7714Y-9.2111
X5.7714Y-9.2466
X5.8669Y-9.8273
X5.8669Y-9.8627
X5.8669Y-9.8981
X5.8888Y-6.7335
X5.8888Y-6.7689
X5.8888Y-6.8043
X5.8888Y-7.671
X5.8888Y-7.7064
X5.8888Y-7.7418
X5.9417Y-9.8273
X5.9417Y-9.8627
X5.9417Y-9.8981
X5.9589Y-6.7382
X5.9589Y-6.7736
X5.9589Y-6.8091
X5.9589Y-7.6757
X5.9589Y-7.7111
X5.9589Y-7.7466
X6.0544Y-8.3273
X6.0544Y-8.3627
X6.0544Y-8.3981
X6.0763Y-9.921
X6.0763Y-9.9564
X6.0763Y-9.9918
X6.1292Y-8.3273
X6.1292Y-8.3627
X6.1292Y-8.3981
X6.1464Y-9.9257
X6.1464Y-9.9611
X6.1464Y-9.9966
X6.1481Y-10.5773
X6.1481Y-10.6127
X6.1481Y-10.6481
X6.2229Y-10.5773
X6.2229Y-10.6127
X6.2229Y-10.6481
X6.2419Y-9.0773
X6.2419Y-9.1127
X6.2419Y-9.1481
X6.2638Y-8.421
X6.2638Y-8.4564
X6.2638Y-8.4918
X6.3167Y-9.0773
X6.3167Y-9.1127
X6.3167Y-9.1481
X6.3339Y-8.4257
X6.3339Y-8.4611
X6.3339Y-8.4966
X6.4294Y-6.6398
X6.4294Y-6.6752
X6.4294Y-6.7106
X6.4294Y-7.5773
X6.4294Y-7.6127
X6.4294Y-7.6481
X6.4513Y-9.171
X6.4513Y-9.2064
X6.4513Y-9.2418
X6.5042Y-6.6398
X6.5042Y-6.6752
X6.5042Y-6.7106
X6.5042Y-7.5773
X6.5042Y-7.6127
X6.5042Y-7.6481
X6.5214Y-9.1757
X6.5214Y-9.2111
X6.5214Y-9.2466
X6.6169Y-9.8273
X6.6169Y-9.8627
X6.6169Y-9.8981
X6.6388Y-6.7335
X6.6388Y-6.7689
X6.6388Y-6.8043
X6.6388Y-7.671
X6.6388Y-7.7064
X6.6388Y-7.7418
X6.6917Y-9.8273
X6.6917Y-9.8627
X6.6917Y-9.8981
X6.7089Y-6.7382
X6.7089Y-6.7736
X6.7089Y-6.8091
X6.7089Y-7.6757
X6.7089Y-7.7111
X6.7089Y-7.7466
X6.8044Y-8.3273
X6.8044Y-8.3627
X6.8044Y-8.3981
X6.8263Y-9.921
X6.8263Y-9.9564
X6.8263Y-9.9918
X6.8792Y-8.3273
X6.8792Y-8.3627
X6.8792Y-8.3981
X6.8964Y-9.9257
X6.8964Y-9.9611
X6.8964Y-9.9966
X6.9919Y-9.0773
X6.9919Y-9.1127
X6.9919Y-9.1481
X7.0138Y-8.421
X7.0138Y-8.4564
X7.0138Y-8.4918
X7.0667Y-9.0773
X7.0667Y-9.1127
X7.0667Y-9.1481
X7.0839Y-8.4257
X7.0839Y-8.4611
X7.0839Y-8.4966
X7.1794Y-6.6398
X7.1794Y-6.6752
X7.1794Y-6.7106
X7.1794Y-7.5773
X7.1794Y-7.6127
X7.1794Y-7.6481
X7.2013Y-9.171
X7.2013Y-9.2064
X7.2013Y-9.2418
X7.2542Y-6.6398
X7.2542Y-6.6752
X7.2542Y-6.7106
X7.2542Y-7.5773
X7.2542Y-7.6127
X7.2542Y-7.6481
X7.2714Y-9.1757
X7.2714Y-9.2111
X7.2714Y-9.2466
X7.3669Y-9.8273
X7.3669Y-9.8627
X7.3669Y-9.8981
X7.3888Y-6.7335
X7.3888Y-6.7689
X7.3888Y-6.8043
X7.3888Y-7.671
X7.3888Y-7.7064
X7.3888Y-7.7418
X7.4417Y-9.8273
X7.4417Y-9.8627
X7.4417Y-9.8981
X7.4589Y-6.7382
X7.4589Y-6.7736
X7.4589Y-6.8091
X7.4589Y-7.6757
X7.4589Y-7.7111
X7.4589Y-7.7466
X7.5544Y-8.3273
X7.5544Y-8.3627
X7.5544Y-8.3981
X7.5763Y-9.921
X7.5763Y-9.9564
X7.5763Y-9.9918
X7.6292Y-8.3273
X7.6292Y-8.3627
X7.6292Y-8.3981
X7.6464Y-9.9257
X7.6464Y-9.9611
X7.6464Y-9.9966
X7.7419Y-9.0773
X7.7419Y-9.1127
X7.7419Y-9.1481
X7.7638Y-8.421
X7.7638Y-8.4564
X7.7638Y-8.4918
X7.8167Y-9.0773
X7.8167Y-9.1127
X7.8167Y-9.1481
X7.8339Y-8.4257
X7.8339Y-8.4611
X7.8339Y-8.4966
X7.9294Y-6.6398
X7.9294Y-6.6752
X7.9294Y-6.7106
X7.9294Y-7.5773
X7.9294Y-7.6127
X7.9294Y-7.6481
X7.9513Y-9.171
X7.9513Y-9.2064
X7.9513Y-9.2418
X8.0042Y-6.6398
X8.0042Y-6.6752
X8.0042Y-6.7106
X8.0042Y-7.5773
X8.0042Y-7.6127
X8.0042Y-7.6481
X8.0214Y-9.1757
X8.0214Y-9.2111
X8.0214Y-9.2466
X8.1169Y-9.8273
X8.1169Y-9.8627
X8.1169Y-9.8981
X8.1388Y-7.671
X8.1388Y-7.7064
X8.1388Y-7.7418
X8.1917Y-9.8273
X8.1917Y-9.8627
X8.1917Y-9.8981
X8.2089Y-7.6757
X8.2089Y-7.7111
X8.2089Y-7.7466
X8.3044Y-8.3273
X8.3044Y-8.3627
X8.3044Y-8.3981
X8.3263Y-9.921
X8.3263Y-9.9564
X8.3263Y-9.9918
X8.3792Y-8.3273
X8.3792Y-8.3627
X8.3792Y-8.3981
X8.3964Y-9.9257
X8.3964Y-9.9611
X8.3964Y-9.9966
X8.4201Y-10.671
X8.4201Y-10.7064
X8.4201Y-10.7418
X8.4902Y-10.6757
X8.4902Y-10.7111
X8.4902Y-10.7466
X8.4919Y-9.0773
X8.4919Y-9.1127
X8.4919Y-9.1481
X8.5138Y-6.7335
X8.5138Y-6.7689
X8.5138Y-6.8043
X8.5138Y-8.421
X8.5138Y-8.4564
X8.5138Y-8.4918
X8.5667Y-9.0773
X8.5667Y-9.1127
X8.5667Y-9.1481
X8.5839Y-6.7382
X8.5839Y-6.7736
X8.5839Y-6.8091
X8.5839Y-8.4257
X8.5839Y-8.4611
X8.5839Y-8.4966
X8.6794Y-7.5773
X8.6794Y-7.6127
X8.6794Y-7.6481
X8.7013Y-9.171
X8.7013Y-9.2064
X8.7013Y-9.2418
X8.707Y-10.671
X8.707Y-10.7064
X8.7542Y-7.5773
X8.7542Y-7.6127
X8.7542Y-7.6481
X8.7714Y-9.1757
X8.7714Y-9.2111
X8.7714Y-9.2466
X8.7771Y-10.6757
X8.7771Y-10.7111
X8.8669Y-9.8273
X8.8669Y-9.8627
X8.8669Y-9.8981
X8.8888Y-7.671
X8.8888Y-7.7064
X8.8888Y-7.7418
X8.9417Y-9.8273
X8.9417Y-9.8627
X8.9417Y-9.8981
X8.9589Y-7.6757
X8.9589Y-7.7111
X8.9589Y-7.7466
X8.9606Y-10.5773
X8.9606Y-10.6127
X8.9606Y-10.6481
X9.0354Y-10.5773
X9.0354Y-10.6127
X9.0354Y-10.6481
X9.0544Y-6.6398
X9.0544Y-6.6752
X9.0544Y-6.7106
X9.0544Y-8.3273
X9.0544Y-8.3627
X9.0544Y-8.3981
X9.0763Y-9.921
X9.0763Y-9.9564
X9.0763Y-9.9918
X9.1292Y-6.6398
X9.1292Y-6.6752
X9.1292Y-6.7106
X9.1292Y-8.3273
X9.1292Y-8.3627
X9.1292Y-8.3981
X9.1464Y-9.9257
X9.1464Y-9.9611
X9.1464Y-9.9966
X9.2419Y-9.0773
X9.2419Y-9.1127
X9.2419Y-9.1481
X9.2475Y-10.5773
X9.2475Y-10.6127
X9.2475Y-10.6481
X9.2638Y-6.7335
X9.2638Y-6.7689
X9.2638Y-6.8043
X9.2638Y-8.421
X9.2638Y-8.4564
X9.2638Y-8.4918
X9.3167Y-9.0773
X9.3167Y-9.1127
X9.3167Y-9.1481
X9.3223Y-10.5773
X9.3223Y-10.6127
X9.3223Y-10.6481
X9.3339Y-6.7382
X9.3339Y-6.7736
X9.3339Y-6.8091
X9.3339Y-8.4257
X9.3339Y-8.4611
X9.3339Y-8.4966
X9.4294Y-7.5773
X9.4294Y-7.6127
X9.4294Y-7.6481
X9.4513Y-9.171
X9.4513Y-9.2064
X9.4513Y-9.2418
X9.5042Y-7.5773
X9.5042Y-7.6127
X9.5042Y-7.6481
X9.5214Y-9.1757
X9.5214Y-9.2111
X9.5214Y-9.2466
X9.6169Y-9.8273
X9.6169Y-9.8627
X9.6169Y-9.8981
X9.6388Y-7.671
X9.6388Y-7.7064
X9.6388Y-7.7418
X9.6917Y-9.8273
X9.6917Y-9.8627
X9.6917Y-9.8981
X9.7089Y-7.6757
X9.7089Y-7.7111
X9.7089Y-7.7466
X9.8044Y-6.6398
X9.8044Y-6.6752
X9.8044Y-6.7106
X9.8044Y-8.3273
X9.8044Y-8.3627
X9.8044Y-8.3981
X9.8263Y-9.921
X9.8263Y-9.9564
X9.8263Y-9.9918
X9.8792Y-6.6398
X9.8792Y-6.6752
X9.8792Y-6.7106
X9.8792Y-8.3273
X9.8792Y-8.3627
X9.8792Y-8.3981
X9.8964Y-9.9257
X9.8964Y-9.9611
X9.8964Y-9.9966
X9.9919Y-9.0773
X9.9919Y-9.1127
X9.9919Y-9.1481
X10.0138Y-6.7335
X10.0138Y-6.7689
X10.0138Y-6.8043
X10.0138Y-8.421
X10.0138Y-8.4564
X10.0138Y-8.4918
X10.0667Y-9.0773
X10.0667Y-9.1127
X10.0667Y-9.1481
X10.0839Y-6.7382
X10.0839Y-6.7736
X10.0839Y-6.8091
X10.0839Y-8.4257
X10.0839Y-8.4611
X10.0839Y-8.4966
X10.1794Y-7.5773
X10.1794Y-7.6127
X10.1794Y-7.6481
X10.2013Y-9.171
X10.2013Y-9.2064
X10.2013Y-9.2418
X10.2542Y-7.5773
X10.2542Y-7.6127
X10.2542Y-7.6481
X10.2714Y-9.1757
X10.2714Y-9.2111
X10.2714Y-9.2466
X10.3669Y-9.8273
X10.3669Y-9.8627
X10.3669Y-9.8981
X10.3888Y-7.671
X10.3888Y-7.7064
X10.3888Y-7.7418
X10.4417Y-9.8273
X10.4417Y-9.8627
X10.4417Y-9.8981
X10.4589Y-7.6757
X10.4589Y-7.7111
X10.4589Y-7.7466
X10.5544Y-6.6398
X10.5544Y-6.6752
X10.5544Y-6.7106
X10.5544Y-8.3273
X10.5544Y-8.3627
X10.5544Y-8.3981
X10.5763Y-9.921
X10.5763Y-9.9564
X10.5763Y-9.9918
X10.6292Y-6.6398
X10.6292Y-6.6752
X10.6292Y-6.7106
X10.6292Y-8.3273
X10.6292Y-8.3627
X10.6292Y-8.3981
X10.6464Y-9.9257
X10.6464Y-9.9611
X10.6464Y-9.9966
X10.7419Y-9.0773
X10.7419Y-9.1127
X10.7419Y-9.1481
X10.7638Y-6.7335
X10.7638Y-6.7689
X10.7638Y-6.8043
X10.7638Y-8.421
X10.7638Y-8.4564
X10.7638Y-8.4918
X10.8167Y-9.0773
X10.8167Y-9.1127
X10.8167Y-9.1481
X10.8339Y-6.7382
X10.8339Y-6.7736
X10.8339Y-6.8091
X10.8339Y-8.4257
X10.8339Y-8.4611
X10.8339Y-8.4966
X10.9294Y-7.5773
X10.9294Y-7.6127
X10.9294Y-7.6481
X10.9513Y-9.171
X10.9513Y-9.2064
X10.9513Y-9.2418
X11.0042Y-7.5773
X11.0042Y-7.6127
X11.0042Y-7.6481
X11.0214Y-9.1757
X11.0214Y-9.2111
X11.0214Y-9.2466
X11.1169Y-9.8273
X11.1169Y-9.8627
X11.1169Y-9.8981
X11.1388Y-7.671
X11.1388Y-7.7064
X11.1388Y-7.7418
X11.1388Y-10.671
X11.1388Y-10.7064
X11.1388Y-10.7418
X11.1917Y-9.8273
X11.1917Y-9.8627
X11.1917Y-9.8981
X11.2089Y-7.6757
X11.2089Y-7.7111
X11.2089Y-7.7466
X11.2089Y-10.6757
X11.2089Y-10.7111
X11.2089Y-10.7466
X11.3044Y-6.6398
X11.3044Y-6.6752
X11.3044Y-6.7106
X11.3044Y-8.3273
X11.3044Y-8.3627
X11.3044Y-8.3981
X11.3263Y-9.921
X11.3263Y-9.9564
X11.3263Y-9.9918
X11.3792Y-6.6398
X11.3792Y-6.6752
X11.3792Y-6.7106
X11.3792Y-8.3273
X11.3792Y-8.3627
X11.3792Y-8.3981
X11.3964Y-9.9257
X11.3964Y-9.9611
X11.3964Y-9.9966
X11.4919Y-9.0773
X11.4919Y-9.1127
X11.4919Y-9.1481
X11.5138Y-8.421
X11.5138Y-8.4564
X11.5138Y-8.4918
X11.5667Y-9.0773
X11.5667Y-9.1127
X11.5667Y-9.1481
X11.5839Y-8.4257
X11.5839Y-8.4611
X11.5839Y-8.4966
X11.6794Y-7.5773
X11.6794Y-7.6127
X11.6794Y-7.6481
X11.6794Y-10.5773
X11.6794Y-10.6127
X11.6794Y-10.6481
X11.7013Y-9.171
X11.7013Y-9.2064
X11.7013Y-9.2418
X11.7542Y-7.5773
X11.7542Y-7.6127
X11.7542Y-7.6481
X11.7542Y-10.5773
X11.7542Y-10.6127
X11.7542Y-10.6481
X11.7714Y-9.1757
X11.7714Y-9.2111
X11.7714Y-9.2466
X11.7951Y-10.671
X11.7951Y-10.7064
X11.7951Y-10.7418
X11.8652Y-10.671
X11.8652Y-10.7078
X11.8652Y-10.7418
X11.8669Y-9.8273
X11.8669Y-9.8627
X11.8669Y-9.8981
X11.8888Y-6.7335
X11.8888Y-6.7689
X11.8888Y-6.8043
X11.8888Y-7.671
X11.8888Y-7.7064
X11.8888Y-7.7418
X11.9417Y-9.8273
X11.9417Y-9.8627
X11.9417Y-9.8981
X11.9589Y-6.7382
X11.9589Y-6.7736
X11.9589Y-6.8091
X11.9589Y-7.6757
X11.9589Y-7.7111
X11.9589Y-7.7466
X12.0544Y-8.3273
X12.0544Y-8.3627
X12.0544Y-8.3981
X12.0763Y-9.921
X12.0763Y-9.9564
X12.0763Y-9.9918
X12.1292Y-8.3273
X12.1292Y-8.3627
X12.1292Y-8.3981
X12.1464Y-9.9257
X12.1464Y-9.9611
X12.1464Y-9.9966
X12.2419Y-9.0773
X12.2419Y-9.1127
X12.2419Y-9.1481
X12.2638Y-8.421
X12.2638Y-8.4564
X12.2638Y-8.4918
X12.3167Y-9.0773
X12.3167Y-9.1127
X12.3167Y-9.1481
X12.3339Y-8.4257
X12.3339Y-8.4611
X12.3339Y-8.4966
X12.4294Y-6.6398
X12.4294Y-6.6752
X12.4294Y-6.7106
X12.4294Y-7.5773
X12.4294Y-7.6127
X12.4294Y-7.6481
X12.4294Y-10.5773
X12.4294Y-10.6127
X12.4294Y-10.6481
X12.4513Y-9.171
X12.4513Y-9.2064
X12.4513Y-9.2418
X12.5042Y-6.6398
X12.5042Y-6.6752
X12.5042Y-6.7106
X12.5042Y-7.5773
X12.5042Y-7.6127
X12.5042Y-7.6481
X12.5042Y-10.5773
X12.5042Y-10.6127
X12.5042Y-10.6481
X12.5214Y-9.1757
X12.5214Y-9.2111
X12.5214Y-9.2466
X12.6169Y-9.8273
X12.6169Y-9.8627
X12.6169Y-9.8981
X12.6388Y-6.7335
X12.6388Y-6.7689
X12.6388Y-6.8043
X12.6388Y-7.671
X12.6388Y-7.7064
X12.6388Y-7.7418
X12.6388Y-10.671
X12.6388Y-10.7064
X12.6388Y-10.7418
X12.6917Y-9.8273
X12.6917Y-9.8627
X12.6917Y-9.8981
X12.7089Y-6.7382
X12.7089Y-6.7736
X12.7089Y-6.8091
X12.7089Y-7.6757
X12.7089Y-7.7111
X12.7089Y-7.7466
X12.7089Y-10.6757
X12.7089Y-10.7111
X12.7089Y-10.7466
X12.8044Y-8.3273
X12.8044Y-8.3627
X12.8044Y-8.3981
X12.8792Y-8.3273
X12.8792Y-8.3627
X12.8792Y-8.3981
X12.9919Y-9.0773
X12.9919Y-9.1127
X12.9919Y-9.1481
X13.0138Y-8.421
X13.0138Y-8.4564
X13.0138Y-8.4918
X13.0667Y-9.0773
X13.0667Y-9.1127
X13.0667Y-9.1481
X13.0839Y-8.4257
X13.0839Y-8.4611
X13.0839Y-8.4966
X13.1076Y-9.921
X13.1076Y-9.9564
X13.1076Y-9.9918
X13.1777Y-9.9257
X13.1777Y-9.9611
X13.1777Y-9.9966
X13.1794Y-6.6398
X13.1794Y-6.6752
X13.1794Y-6.7106
X13.1794Y-7.5773
X13.1794Y-7.6127
X13.1794Y-7.6481
X13.1794Y-10.5773
X13.1794Y-10.6127
X13.1794Y-10.6481
X13.2013Y-9.171
X13.2013Y-9.2064
X13.2013Y-9.2418
X13.2542Y-6.6398
X13.2542Y-6.6752
X13.2542Y-6.7106
X13.2542Y-7.5773
X13.2542Y-7.6127
X13.2542Y-7.6481
X13.2542Y-10.5773
X13.2542Y-10.6127
X13.2542Y-10.6481
X13.2714Y-9.1757
X13.2714Y-9.2111
X13.2714Y-9.2466
X13.3888Y-6.7335
X13.3888Y-6.7689
X13.3888Y-6.8043
X13.4589Y-6.7382
X13.4589Y-6.7736
X13.4589Y-6.8091
X13.5544Y-8.3273
X13.5544Y-8.3627
X13.5544Y-8.3981
X13.5763Y-10.8585
X13.5763Y-10.8939
X13.5763Y-10.9293
X13.6292Y-8.3273
X13.6292Y-8.3627
X13.6292Y-8.3981
X13.6464Y-10.8632
X13.6464Y-10.8986
X13.6464Y-10.9341
X13.6481Y-9.8273
X13.6481Y-9.8627
X13.6481Y-9.8981
X13.7229Y-9.8273
X13.7229Y-9.8627
X13.7229Y-9.8981
X13.7419Y-9.0773
X13.7419Y-9.1127
X13.7419Y-9.1481
X13.7638Y-7.6736
X13.7638Y-7.709
X13.7638Y-7.7444
X13.8167Y-9.0773
X13.8167Y-9.1127
X13.8167Y-9.1481
X13.8339Y-7.6783
X13.8339Y-7.7137
X13.8339Y-7.7492
X13.9294Y-6.6398
X13.9294Y-6.6752
X13.9294Y-6.7106
X14.0042Y-6.6398
X14.0042Y-6.6752
X14.0042Y-6.7106
X14.0451Y-8.796
X14.0451Y-8.8314
X14.0451Y-8.8668
X14.1152Y-8.8007
X14.1152Y-8.8361
X14.1152Y-8.8716
X14.1169Y-10.7648
X14.1169Y-10.8002
X14.1169Y-10.8356
X14.1388Y-6.7335
X14.1388Y-6.7689
X14.1388Y-6.8043
X14.1917Y-10.7648
X14.1917Y-10.8002
X14.1917Y-10.8356
X14.2089Y-6.7382
X14.2089Y-6.7736
X14.2089Y-6.8091
X14.3044Y-7.5799
X14.3044Y-7.6153
X14.3044Y-7.6507
X14.3263Y-10.1085
X14.3263Y-10.1439
X14.3263Y-10.1793
X14.3263Y-10.8585
X14.3263Y-10.8939
X14.3263Y-10.9293
X14.3792Y-7.5799
X14.3792Y-7.6153
X14.3792Y-7.6507
X14.3964Y-10.1132
X14.3964Y-10.1486
X14.3964Y-10.1841
X14.3964Y-10.8632
X14.3964Y-10.8986
X14.3964Y-10.9341
X14.5856Y-8.7023
X14.5856Y-8.7377
X14.5856Y-8.7731
X14.6604Y-8.7023
X14.6604Y-8.7377
X14.6604Y-8.7731
X14.6794Y-6.6398
X14.6794Y-6.6752
X14.6794Y-6.7106
X14.7542Y-6.6398
X14.7542Y-6.6752
X14.7542Y-6.7106
X14.8669Y-10.0148
X14.8669Y-10.0502
X14.8669Y-10.0856
X14.8669Y-10.7648
X14.8669Y-10.8002
X14.8669Y-10.8356
X14.9417Y-10.0148
X14.9417Y-10.0502
X14.9417Y-10.0856
X14.9417Y-10.7648
X14.9417Y-10.8002
X14.9417Y-10.8356
X15.0763Y-10.8585
X15.0763Y-10.8939
X15.0763Y-10.9293
X15.1464Y-10.8632
X15.1464Y-10.8986
X15.1464Y-10.9341
X15.2638Y-6.7335
X15.2638Y-6.7689
X15.2638Y-6.8043
X15.2638Y-7.671
X15.2638Y-7.7064
X15.2638Y-7.7418
X15.2638Y-8.421
X15.2638Y-8.4564
X15.2638Y-8.4918
X15.2638Y-9.171
X15.2638Y-9.2064
X15.2638Y-9.2418
X15.2638Y-9.921
X15.2638Y-9.9564
X15.2638Y-9.9918
X15.3339Y-6.7382
X15.3339Y-6.7736
X15.3339Y-6.8091
X15.3339Y-7.6757
X15.3339Y-7.7111
X15.3339Y-7.7466
X15.3339Y-8.4257
X15.3339Y-8.4611
X15.3339Y-8.4966
X15.3339Y-9.1757
X15.3339Y-9.2111
X15.3339Y-9.2466
X15.3339Y-9.9257
X15.3339Y-9.9611
X15.3339Y-9.9966
X15.6169Y-10.7648
X15.6169Y-10.8002
X15.6169Y-10.8356
X15.6917Y-10.7648
X15.6917Y-10.8002
X15.6917Y-10.8356
X15.8044Y-6.6398
X15.8044Y-6.6752
X15.8044Y-6.7106
X15.8044Y-7.5773
X15.8044Y-7.6127
X15.8044Y-7.6481
X15.8044Y-8.3273
X15.8044Y-8.3627
X15.8044Y-8.3981
X15.8044Y-9.0773
X15.8044Y-9.1127
X15.8044Y-9.1481
X15.8044Y-9.8273
X15.8044Y-9.8627
X15.8044Y-9.8981
X15.8792Y-6.6398
X15.8792Y-6.6752
X15.8792Y-6.7106
X15.8792Y-7.5773
X15.8792Y-7.6127
X15.8792Y-7.6481
X15.8792Y-8.3273
X15.8792Y-8.3627
X15.8792Y-8.3981
X15.8792Y-9.0773
X15.8792Y-9.1127
X15.8792Y-9.1481
X15.8792Y-9.8273
X15.8792Y-9.8627
X15.8792Y-9.8981
X16.3888Y-7.671
X16.3888Y-7.7064
X16.3888Y-7.7418
X16.3888Y-8.421
X16.3888Y-8.4564
X16.3888Y-8.4918
X16.3888Y-9.171
X16.3888Y-9.2064
X16.3888Y-9.2418
X16.3888Y-9.921
X16.3888Y-9.9564
X16.3888Y-9.9918
X16.4589Y-7.6757
X16.4589Y-7.7111
X16.4589Y-7.7466
X16.4589Y-8.4257
X16.4589Y-8.4611
X16.4589Y-8.4966
X16.4589Y-9.1757
X16.4589Y-9.2111
X16.4589Y-9.2466
X16.4589Y-9.9257
X16.4589Y-9.9611
X16.4589Y-9.9966
X16.7638Y-10.6736
X16.7638Y-10.709
X16.7638Y-10.7444
X16.8339Y-10.6783
X16.8339Y-10.7137
X16.8339Y-10.7492
X16.9294Y-7.5773
X16.9294Y-7.6127
X16.9294Y-7.6481
X16.9294Y-8.3273
X16.9294Y-8.3627
X16.9294Y-8.3981
X16.9294Y-9.0773
X16.9294Y-9.1127
X16.9294Y-9.1481
X16.9294Y-9.8273
X16.9294Y-9.8627
X16.9294Y-9.8981
X17.0042Y-7.5773
X17.0042Y-7.6127
X17.0042Y-7.6481
X17.0042Y-8.3273
X17.0042Y-8.3627
X17.0042Y-8.3981
X17.0042Y-9.0773
X17.0042Y-9.1127
X17.0042Y-9.1481
X17.0042Y-9.8273
X17.0042Y-9.8627
X17.0042Y-9.8981
X17.1388Y-7.671
X17.1388Y-7.7064
X17.1388Y-7.7418
X17.1388Y-8.421
X17.1388Y-8.4564
X17.1388Y-8.4918
X17.1388Y-9.171
X17.1388Y-9.2064
X17.1388Y-9.2418
X17.1388Y-9.921
X17.1388Y-9.9564
X17.1388Y-9.9918
X17.2089Y-7.6757
X17.2089Y-7.7111
X17.2089Y-7.7466
X17.2089Y-8.4257
X17.2089Y-8.4611
X17.2089Y-8.4966
X17.2089Y-9.1757
X17.2089Y-9.2111
X17.2089Y-9.2466
X17.2089Y-9.9257
X17.2089Y-9.9611
X17.2089Y-9.9966
X17.3044Y-10.5799
X17.3044Y-10.6153
X17.3044Y-10.6507
X17.3792Y-10.5799
X17.3792Y-10.6153
X17.3792Y-10.6507
X17.6794Y-7.5773
X17.6794Y-7.6127
X17.6794Y-7.6481
X17.6794Y-8.3273
X17.6794Y-8.3627
X17.6794Y-8.3981
X17.6794Y-9.0773
X17.6794Y-9.1127
X17.6794Y-9.1481
X17.6794Y-9.8273
X17.6794Y-9.8627
X17.6794Y-9.8981
X17.7542Y-7.5773
X17.7542Y-7.6127
X17.7542Y-7.6481
X17.7542Y-8.3273
X17.7542Y-8.3627
X17.7542Y-8.3981
X17.7542Y-9.0773
X17.7542Y-9.1127
X17.7542Y-9.1481
X17.7542Y-9.8273
X17.7542Y-9.8627
X17.7542Y-9.8981
X17.8888Y-7.671
X17.8888Y-7.7064
X17.8888Y-7.7418
X17.8888Y-8.421
X17.8888Y-8.4564
X17.8888Y-8.4918
X17.8888Y-9.171
X17.8888Y-9.2064
X17.8888Y-9.2418
X17.8888Y-9.921
X17.8888Y-9.9564
X17.8888Y-9.9918
X17.8888Y-10.671
X17.8888Y-10.7064
X17.8888Y-10.7418
X17.9589Y-7.6757
X17.9589Y-7.7111
X17.9589Y-7.7466
X17.9589Y-8.4257
X17.9589Y-8.4611
X17.9589Y-8.4966
X17.9589Y-9.1757
X17.9589Y-9.2111
X17.9589Y-9.2466
X17.9589Y-9.9257
X17.9589Y-9.9611
X17.9589Y-9.9966
X17.9589Y-10.6757
X17.9589Y-10.7111
X17.9589Y-10.7466
X18.4294Y-7.5773
X18.4294Y-7.6127
X18.4294Y-7.6481
X18.4294Y-8.3273
X18.4294Y-8.3627
X18.4294Y-8.3981
X18.4294Y-9.0773
X18.4294Y-9.1127
X18.4294Y-9.1481
X18.4294Y-9.8273
X18.4294Y-9.8627
X18.4294Y-9.8981
X18.4294Y-10.5773
X18.4294Y-10.6127
X18.4294Y-10.6481
X18.5042Y-7.5773
X18.5042Y-7.6127
X18.5042Y-7.6481
X18.5042Y-8.3273
X18.5042Y-8.3627
X18.5042Y-8.3981
X18.5042Y-9.0773
X18.5042Y-9.1127
X18.5042Y-9.1481
X18.5042Y-9.8273
X18.5042Y-9.8627
X18.5042Y-9.8981
X18.5042Y-10.5773
X18.5042Y-10.6127
X18.5042Y-10.6481
X18.6388Y-7.671
X18.6388Y-7.7064
X18.6388Y-7.7418
X18.6388Y-8.7986
X18.6388Y-8.834
X18.6388Y-8.8694
X18.6388Y-10.2986
X18.6388Y-10.334
X18.6388Y-10.3694
X18.7089Y-7.6757
X18.7089Y-7.7111
X18.7089Y-7.7466
X18.7089Y-8.8033
X18.7089Y-8.8387
X18.7089Y-8.8742
X18.7089Y-10.3033
X18.7089Y-10.3387
X18.7089Y-10.3742
X19.1794Y-7.5773
X19.1794Y-7.6127
X19.1794Y-7.6481
X19.1794Y-8.7049
X19.1794Y-8.7403
X19.1794Y-8.7757
X19.1794Y-10.2049
X19.1794Y-10.2403
X19.1794Y-10.2757
X19.2542Y-7.5773
X19.2542Y-7.6127
X19.2542Y-7.6481
X19.2542Y-8.7049
X19.2542Y-8.7403
X19.2542Y-8.7757
X19.2542Y-10.2049
X19.2542Y-10.2403
X19.2542Y-10.2757
T3
X3.665Y-7.515
X3.7234Y-9.8796
X3.785Y-7.04
X3.785Y-7.98
X3.8171Y-8.3796
X3.8171Y-10.6296
X3.875Y-10.23
X3.9109Y-9.1296
X3.9109Y-9.6921
X3.9375Y-7.1875
X3.965Y-8.73
X3.9688Y-7.4688
X3.97Y-10.985
X4.0046Y-8.1921
X4.0046Y-10.4421
X4.065Y-9.48
X4.0984Y-8.9421
X4.155Y-8.2157
X4.2542Y-7.5
X4.285Y-8.065
X4.295Y-7.135
X4.3125Y-7.375
X4.3438Y-6.9062
X4.375Y-8.25
X4.39Y-10.3125
X4.4375Y-10.5
X4.4889Y-8.8125
X4.49Y-11.0625
X4.53Y-7.98
X4.5312Y-9.0
X4.5312Y-9.75
X4.575Y-9.5625
X4.72Y-10.23
X4.905Y-10.98
X4.91Y-8.73
X5.025Y-8.1
X5.095Y-9.48
X5.235Y-10.3125
X5.285Y-7.98
X5.29Y-7.04
X5.3125Y-8.25
X5.3125Y-10.5
X5.375Y-9.75
X5.415Y-8.8125
X5.425Y-11.0625
X5.47Y-10.23
X5.5Y-9.0
X5.61Y-9.5625
X5.66Y-8.73
X5.75Y-10.98
X5.7542Y-7.3708
X5.775Y-8.11
X5.8Y-7.125
X5.85Y-9.48
X5.985Y-10.3125
X6.035Y-7.04
X6.035Y-7.98
X6.0625Y-8.25
X6.125Y-9.75
X6.1562Y-10.5
X6.165Y-8.8125
X6.22Y-10.23
X6.25Y-9.0
X6.275Y-11.0625
X6.36Y-9.5625
X6.405Y-8.73
X6.5042Y-7.4021
X6.525Y-8.115
X6.545Y-7.125
X6.595Y-9.48
X6.735Y-10.3125
X6.785Y-7.98
X6.79Y-7.04
X6.8125Y-8.25
X6.875Y-9.75
X6.91Y-8.8125
X6.97Y-10.23
X7.0Y-9.0
X7.065Y-10.975
X7.105Y-9.5625
X7.155Y-8.73
X7.2542Y-7.4333
X7.27Y-8.105
X7.295Y-7.125
X7.345Y-9.48
X7.485Y-10.3125
X7.53Y-7.98
X7.535Y-7.04
X7.5625Y-8.25
X7.59Y-11.065
X7.625Y-9.75
X7.665Y-8.8125
X7.72Y-10.23
X7.75Y-9.0
X7.86Y-9.5625
X7.9Y-8.73
X7.945Y-7.065
X8.0042Y-7.4646
X8.02Y-8.105
X8.095Y-9.48
X8.2244Y-7.063
X8.235Y-10.3125
X8.28Y-7.985
X8.3125Y-8.25
X8.335Y-10.475
X8.375Y-9.75
X8.415Y-8.8125
X8.47Y-10.23
X8.5Y-9.0
X8.61Y-9.5625
X8.655Y-8.73
X8.655Y-10.98
X8.66Y-7.04
X8.77Y-8.1
X8.8376Y-7.4938
X8.845Y-9.48
X8.985Y-10.3125
X9.0312Y-10.5
X9.035Y-7.985
X9.0625Y-8.25
X9.125Y-9.75
X9.16Y-7.125
X9.165Y-8.8125
X9.175Y-11.0625
X9.22Y-10.23
X9.25Y-9.0
X9.355Y-9.5625
X9.4Y-8.73
X9.41Y-7.04
X9.52Y-8.11
X9.5563Y-7.5251
X9.595Y-9.48
X9.7188Y-10.452
X9.73Y-10.3125
X9.785Y-7.985
X9.8125Y-8.25
X9.875Y-9.75
X9.915Y-8.8125
X9.92Y-7.125
X9.97Y-10.23
X10.0Y-9.0
X10.06Y-10.98
X10.105Y-9.5625
X10.155Y-8.735
X10.16Y-7.04
X10.285Y-8.085
X10.345Y-9.48
X10.4688Y-10.4694
X10.485Y-10.3125
X10.535Y-7.985
X10.5625Y-8.25
X10.58Y-11.065
X10.625Y-9.75
X10.665Y-8.8125
X10.67Y-7.125
X10.72Y-10.23
X10.75Y-9.0
X10.855Y-9.5625
X10.905Y-8.725
X10.91Y-7.04
X11.02Y-8.105
X11.095Y-9.48
X11.235Y-10.3125
X11.28Y-10.98
X11.285Y-7.98
X11.3125Y-8.25
X11.375Y-9.75
X11.415Y-8.8125
X11.42Y-7.12
X11.47Y-10.23
X11.5Y-9.0
X11.61Y-9.5625
X11.65Y-8.73
X11.6875Y-10.5
X11.77Y-8.105
X11.8Y-11.0625
X11.845Y-9.48
X11.985Y-10.3125
X12.03Y-10.98
X12.035Y-7.04
X12.035Y-7.985
X12.0625Y-8.25
X12.125Y-9.75
X12.165Y-8.8125
X12.22Y-10.23
X12.25Y-9.0
X12.355Y-9.5625
X12.4Y-8.73
X12.4375Y-10.5
X12.52Y-8.11
X12.535Y-7.125
X12.54Y-11.0625
X12.595Y-9.48
X12.735Y-10.3125
X12.78Y-10.98
X12.785Y-7.04
X12.785Y-7.98
X12.8125Y-8.25
X12.875Y-9.75
X12.915Y-8.815
X13.0Y-9.0
X13.095Y-9.5625
X13.155Y-8.73
X13.2188Y-10.5
X13.25Y-10.23
X13.27Y-8.105
X13.29Y-7.125
X13.305Y-11.0625
X13.345Y-9.48
X13.535Y-7.045
X13.665Y-8.8125
X13.72Y-11.17
X13.75Y-8.2812
X13.75Y-9.0
X13.765Y-10.3125
X13.855Y-9.5625
X13.9062Y-9.75
X13.91Y-7.98
X14.04Y-7.125
X14.125Y-10.6875
X14.19Y-9.105
X14.24Y-11.25
X14.285Y-7.045
X14.4074Y-8.01
X14.465Y-8.2812
X14.47Y-10.42
X14.47Y-11.17
X14.705Y-9.185
X14.785Y-7.125
X14.9375Y-9.0
X14.9375Y-9.75
X14.99Y-10.5
X14.99Y-11.25
X15.0312Y-10.6875
X15.22Y-11.17
X15.405Y-10.225
X15.41Y-7.045
X15.41Y-7.98
X15.415Y-8.73
X15.415Y-9.48
X15.765Y-11.25
X15.83Y-7.0668
X15.875Y-10.6875
X15.9074Y-8.0625
X15.915Y-8.8125
X15.915Y-9.5625
X15.92Y-10.31
X15.925Y-7.195
X15.9688Y-8.25
X15.9688Y-9.0
X15.9688Y-9.75
X16.0Y-7.23
X16.0157Y-6.622
X16.0866Y-7.2441
X16.2126Y-6.8071
X16.2598Y-6.622
X16.2812Y-6.846
X16.3125Y-6.811
X16.3125Y-7.9062
X16.3125Y-8.6562
X16.3125Y-9.4062
X16.3125Y-10.1562
X16.3125Y-11.0938
X16.3438Y-6.846
X16.375Y-6.811
X16.4067Y-6.846
X16.4375Y-6.811
X16.47Y-6.846
X16.5Y-6.811
X16.53Y-7.98
X16.53Y-8.73
X16.53Y-10.23
X16.54Y-9.48
X16.555Y-7.245
X16.5882Y-6.7555
X16.748Y-7.2165
X16.75Y-7.125
X16.77Y-6.9688
X16.905Y-10.98
X16.9685Y-7.1772
X16.9688Y-6.5
X17.02Y-6.815
X17.035Y-8.0625
X17.035Y-9.5625
X17.04Y-8.815
X17.09Y-10.3125
X17.0938Y-8.25
X17.0938Y-9.0
X17.0938Y-9.75
X17.25Y-6.5
X17.25Y-6.5957
X17.28Y-8.73
X17.28Y-10.23
X17.285Y-7.975
X17.29Y-7.605
X17.29Y-9.475
X17.3125Y-10.5
X17.415Y-11.065
X17.6181Y-7.3228
X17.7047Y-6.6654
X17.75Y-7.2735
X17.785Y-8.0625
X17.79Y-8.8125
X17.79Y-9.5625
X17.795Y-10.3125
X17.8406Y-10.9094
X17.8438Y-8.25
X17.8438Y-9.0
X17.8438Y-9.75
X17.8438Y-10.1562
X18.0112Y-6.62
X18.03Y-8.735
X18.03Y-10.98
X18.0312Y-9.4688
X18.035Y-7.99
X18.05Y-10.225
X18.0938Y-10.0938
X18.1Y-9.475
X18.18Y-6.765
X18.1875Y-7.0625
X18.375Y-10.5
X18.3812Y-6.605
X18.46Y-10.44
X18.4612Y-6.775
X18.505Y-10.42
X18.53Y-8.0625
X18.535Y-9.5625
X18.54Y-8.8125
X18.54Y-10.31
X18.55Y-10.4
X18.55Y-11.0625
X18.56Y-8.2157
X18.5938Y-9.0
X18.5938Y-10.2945
X18.5938Y-10.5
X18.78Y-9.105
X18.7908Y-7.9968
X18.86Y-10.54
X18.9062Y-9.75
X19.0625Y-7.9062
X19.0938Y-8.3438
X19.1875Y-7.25
X19.275Y-10.78
X19.285Y-8.06
X19.285Y-9.19
X19.29Y-10.685
X19.3438Y-9.0
T4
X18.6735Y-6.7766
X18.6735Y-6.875
X18.6735Y-6.9734
X19.2443Y-6.7766
X19.2443Y-6.9734
T5
G00X18.9432Y-6.6545
M15
G01X18.9943Y-6.6545
M16
G05
G00X18.9432Y-7.0955
M15
G01X18.9943Y-7.0955
M16
G05
T0
M30
