%TF.GenerationSoftware,KiCad,Pcbnew,(6.0.4)*%
%TF.CreationDate,2022-11-05T13:28:53+01:00*%
%TF.ProjectId,pcb,7063622e-6b69-4636-9164-5f7063625858,rev?*%
%TF.SameCoordinates,Original*%
%TF.FileFunction,Profile,NP*%
%FSLAX46Y46*%
G04 Gerber Fmt 4.6, Leading zero omitted, Abs format (unit mm)*
G04 Created by KiCad (PCBNEW (6.0.4)) date 2022-11-05 13:28:53*
%MOMM*%
%LPD*%
G01*
G04 APERTURE LIST*
%TA.AperFunction,Profile*%
%ADD10C,0.100000*%
%TD*%
%TA.AperFunction,Profile*%
%ADD11C,0.120000*%
%TD*%
G04 APERTURE END LIST*
D10*
X493712500Y-165100000D02*
G75*
G03*
X492125000Y-163512500I-1587600J-100D01*
G01*
X88900000Y-288925000D02*
X88900000Y-165100000D01*
X90487500Y-163512500D02*
G75*
G03*
X88900000Y-165100000I0J-1587500D01*
G01*
X90487500Y-290512500D02*
X492125000Y-290512500D01*
X492125000Y-290512500D02*
G75*
G03*
X493712500Y-288925000I0J1587500D01*
G01*
X88900000Y-288925000D02*
G75*
G03*
X90487500Y-290512500I1587600J100D01*
G01*
X493712500Y-288925000D02*
X493712500Y-165100000D01*
X90487500Y-163512500D02*
X492125000Y-163512500D01*
D11*
%TO.C,D150*%
X461056250Y-224087500D02*
X464456250Y-224087500D01*
X461056250Y-221087500D02*
X461056250Y-224087500D01*
X464456250Y-221087500D02*
X461056250Y-221087500D01*
X464456250Y-224087500D02*
X464456250Y-221087500D01*
%TO.C,D190*%
X127681250Y-278237500D02*
X127681250Y-281237500D01*
X131081250Y-278237500D02*
X127681250Y-278237500D01*
X127681250Y-281237500D02*
X131081250Y-281237500D01*
X131081250Y-281237500D02*
X131081250Y-278237500D01*
%TO.C,D180*%
X294368750Y-262187500D02*
X297768750Y-262187500D01*
X294368750Y-259187500D02*
X294368750Y-262187500D01*
X297768750Y-262187500D02*
X297768750Y-259187500D01*
X297768750Y-259187500D02*
X294368750Y-259187500D01*
%TO.C,D115*%
X102506250Y-202037500D02*
X99106250Y-202037500D01*
X99106250Y-202037500D02*
X99106250Y-205037500D01*
X102506250Y-205037500D02*
X102506250Y-202037500D01*
X99106250Y-205037500D02*
X102506250Y-205037500D01*
%TO.C,D119*%
X175306250Y-205037500D02*
X178706250Y-205037500D01*
X178706250Y-202037500D02*
X175306250Y-202037500D01*
X175306250Y-202037500D02*
X175306250Y-205037500D01*
X178706250Y-205037500D02*
X178706250Y-202037500D01*
%TO.C,D135*%
X131081250Y-221087500D02*
X127681250Y-221087500D01*
X127681250Y-221087500D02*
X127681250Y-224087500D01*
X131081250Y-224087500D02*
X131081250Y-221087500D01*
X127681250Y-224087500D02*
X131081250Y-224087500D01*
%TO.C,D162*%
X322943750Y-240137500D02*
X322943750Y-243137500D01*
X326343750Y-243137500D02*
X326343750Y-240137500D01*
X326343750Y-240137500D02*
X322943750Y-240137500D01*
X322943750Y-243137500D02*
X326343750Y-243137500D01*
%TO.C,D136*%
X146731250Y-224087500D02*
X150131250Y-224087500D01*
X146731250Y-221087500D02*
X146731250Y-224087500D01*
X150131250Y-224087500D02*
X150131250Y-221087500D01*
X150131250Y-221087500D02*
X146731250Y-221087500D01*
%TO.C,D144*%
X302531250Y-221087500D02*
X299131250Y-221087500D01*
X302531250Y-224087500D02*
X302531250Y-221087500D01*
X299131250Y-224087500D02*
X302531250Y-224087500D01*
X299131250Y-221087500D02*
X299131250Y-224087500D01*
%TO.C,D158*%
X246743750Y-240137500D02*
X246743750Y-243137500D01*
X250143750Y-240137500D02*
X246743750Y-240137500D01*
X250143750Y-243137500D02*
X250143750Y-240137500D01*
X246743750Y-243137500D02*
X250143750Y-243137500D01*
%TO.C,D197*%
X370568750Y-283000000D02*
X370568750Y-286000000D01*
X370568750Y-286000000D02*
X373968750Y-286000000D01*
X373968750Y-286000000D02*
X373968750Y-283000000D01*
X373968750Y-283000000D02*
X370568750Y-283000000D01*
%TO.C,D134*%
X103868750Y-221087500D02*
X103868750Y-224087500D01*
X107268750Y-221087500D02*
X103868750Y-221087500D01*
X107268750Y-224087500D02*
X107268750Y-221087500D01*
X103868750Y-224087500D02*
X107268750Y-224087500D01*
%TO.C,D138*%
X188231250Y-224087500D02*
X188231250Y-221087500D01*
X188231250Y-221087500D02*
X184831250Y-221087500D01*
X184831250Y-221087500D02*
X184831250Y-224087500D01*
X184831250Y-224087500D02*
X188231250Y-224087500D01*
%TO.C,D166*%
X426356250Y-240137500D02*
X422956250Y-240137500D01*
X426356250Y-243137500D02*
X426356250Y-240137500D01*
X422956250Y-243137500D02*
X426356250Y-243137500D01*
X422956250Y-240137500D02*
X422956250Y-243137500D01*
%TO.C,D185*%
X422956250Y-259187500D02*
X422956250Y-262187500D01*
X426356250Y-259187500D02*
X422956250Y-259187500D01*
X422956250Y-262187500D02*
X426356250Y-262187500D01*
X426356250Y-262187500D02*
X426356250Y-259187500D01*
%TO.C,D107*%
X245381250Y-178225000D02*
X241981250Y-178225000D01*
X241981250Y-181225000D02*
X245381250Y-181225000D01*
X241981250Y-178225000D02*
X241981250Y-181225000D01*
X245381250Y-181225000D02*
X245381250Y-178225000D01*
%TO.C,D175*%
X202518750Y-259187500D02*
X199118750Y-259187500D01*
X202518750Y-262187500D02*
X202518750Y-259187500D01*
X199118750Y-259187500D02*
X199118750Y-262187500D01*
X199118750Y-262187500D02*
X202518750Y-262187500D01*
%TO.C,D170*%
X101487500Y-259187500D02*
X101487500Y-262187500D01*
X104887500Y-262187500D02*
X104887500Y-259187500D01*
X101487500Y-262187500D02*
X104887500Y-262187500D01*
X104887500Y-259187500D02*
X101487500Y-259187500D01*
%TO.C,D202*%
X182450000Y-281237500D02*
X185850000Y-281237500D01*
X185850000Y-278237500D02*
X182450000Y-278237500D01*
X185850000Y-281237500D02*
X185850000Y-278237500D01*
X182450000Y-278237500D02*
X182450000Y-281237500D01*
%TO.C,D146*%
X340631250Y-221087500D02*
X337231250Y-221087500D01*
X337231250Y-224087500D02*
X340631250Y-224087500D01*
X337231250Y-221087500D02*
X337231250Y-224087500D01*
X340631250Y-224087500D02*
X340631250Y-221087500D01*
%TO.C,D140*%
X222931250Y-224087500D02*
X226331250Y-224087500D01*
X226331250Y-224087500D02*
X226331250Y-221087500D01*
X222931250Y-221087500D02*
X222931250Y-224087500D01*
X226331250Y-221087500D02*
X222931250Y-221087500D01*
%TO.C,D188*%
X480106250Y-268712500D02*
X480106250Y-271712500D01*
X483506250Y-268712500D02*
X480106250Y-268712500D01*
X480106250Y-271712500D02*
X483506250Y-271712500D01*
X483506250Y-271712500D02*
X483506250Y-268712500D01*
%TO.C,D137*%
X165781250Y-224087500D02*
X169181250Y-224087500D01*
X165781250Y-221087500D02*
X165781250Y-224087500D01*
X169181250Y-221087500D02*
X165781250Y-221087500D01*
X169181250Y-224087500D02*
X169181250Y-221087500D01*
%TO.C,D193*%
X293006250Y-278237500D02*
X289606250Y-278237500D01*
X289606250Y-278237500D02*
X289606250Y-281237500D01*
X289606250Y-281237500D02*
X293006250Y-281237500D01*
X293006250Y-281237500D02*
X293006250Y-278237500D01*
%TO.C,D163*%
X345393750Y-243137500D02*
X345393750Y-240137500D01*
X341993750Y-243137500D02*
X345393750Y-243137500D01*
X345393750Y-240137500D02*
X341993750Y-240137500D01*
X341993750Y-240137500D02*
X341993750Y-243137500D01*
%TO.C,D139*%
X207281250Y-221087500D02*
X203881250Y-221087500D01*
X203881250Y-224087500D02*
X207281250Y-224087500D01*
X207281250Y-224087500D02*
X207281250Y-221087500D01*
X203881250Y-221087500D02*
X203881250Y-224087500D01*
%TO.C,D141*%
X241981250Y-224087500D02*
X245381250Y-224087500D01*
X241981250Y-221087500D02*
X241981250Y-224087500D01*
X245381250Y-221087500D02*
X241981250Y-221087500D01*
X245381250Y-224087500D02*
X245381250Y-221087500D01*
%TO.C,D148*%
X426356250Y-221087500D02*
X422956250Y-221087500D01*
X426356250Y-224087500D02*
X426356250Y-221087500D01*
X422956250Y-221087500D02*
X422956250Y-224087500D01*
X422956250Y-224087500D02*
X426356250Y-224087500D01*
%TO.C,D113*%
X369206250Y-181225000D02*
X369206250Y-178225000D01*
X369206250Y-178225000D02*
X365806250Y-178225000D01*
X365806250Y-178225000D02*
X365806250Y-181225000D01*
X365806250Y-181225000D02*
X369206250Y-181225000D01*
%TO.C,D109*%
X283481250Y-181225000D02*
X283481250Y-178225000D01*
X280081250Y-181225000D02*
X283481250Y-181225000D01*
X280081250Y-178225000D02*
X280081250Y-181225000D01*
X283481250Y-178225000D02*
X280081250Y-178225000D01*
%TO.C,D127*%
X327706250Y-205037500D02*
X331106250Y-205037500D01*
X331106250Y-202037500D02*
X327706250Y-202037500D01*
X331106250Y-205037500D02*
X331106250Y-202037500D01*
X327706250Y-202037500D02*
X327706250Y-205037500D01*
%TO.C,D167*%
X442006250Y-240137500D02*
X442006250Y-243137500D01*
X445406250Y-240137500D02*
X442006250Y-240137500D01*
X445406250Y-243137500D02*
X445406250Y-240137500D01*
X442006250Y-243137500D02*
X445406250Y-243137500D01*
%TO.C,D183*%
X373968750Y-266950000D02*
X373968750Y-263950000D01*
X373968750Y-263950000D02*
X370568750Y-263950000D01*
X370568750Y-266950000D02*
X373968750Y-266950000D01*
X370568750Y-263950000D02*
X370568750Y-266950000D01*
%TO.C,D130*%
X422956250Y-205037500D02*
X426356250Y-205037500D01*
X422956250Y-202037500D02*
X422956250Y-205037500D01*
X426356250Y-202037500D02*
X422956250Y-202037500D01*
X426356250Y-205037500D02*
X426356250Y-202037500D01*
%TO.C,D116*%
X121556250Y-205037500D02*
X121556250Y-202037500D01*
X121556250Y-202037500D02*
X118156250Y-202037500D01*
X118156250Y-205037500D02*
X121556250Y-205037500D01*
X118156250Y-202037500D02*
X118156250Y-205037500D01*
%TO.C,D168*%
X464456250Y-243137500D02*
X464456250Y-240137500D01*
X461056250Y-243137500D02*
X464456250Y-243137500D01*
X461056250Y-240137500D02*
X461056250Y-243137500D01*
X464456250Y-240137500D02*
X461056250Y-240137500D01*
%TO.C,D176*%
X221568750Y-262187500D02*
X221568750Y-259187500D01*
X218168750Y-262187500D02*
X221568750Y-262187500D01*
X218168750Y-259187500D02*
X218168750Y-262187500D01*
X221568750Y-259187500D02*
X218168750Y-259187500D01*
%TO.C,D110*%
X312056250Y-178225000D02*
X308656250Y-178225000D01*
X308656250Y-178225000D02*
X308656250Y-181225000D01*
X308656250Y-181225000D02*
X312056250Y-181225000D01*
X312056250Y-181225000D02*
X312056250Y-178225000D01*
%TO.C,D128*%
X359681250Y-202037500D02*
X356281250Y-202037500D01*
X356281250Y-202037500D02*
X356281250Y-205037500D01*
X359681250Y-205037500D02*
X359681250Y-202037500D01*
X356281250Y-205037500D02*
X359681250Y-205037500D01*
%TO.C,D118*%
X159656250Y-205037500D02*
X159656250Y-202037500D01*
X159656250Y-202037500D02*
X156256250Y-202037500D01*
X156256250Y-202037500D02*
X156256250Y-205037500D01*
X156256250Y-205037500D02*
X159656250Y-205037500D01*
%TO.C,D186*%
X442006250Y-262187500D02*
X445406250Y-262187500D01*
X442006250Y-259187500D02*
X442006250Y-262187500D01*
X445406250Y-262187500D02*
X445406250Y-259187500D01*
X445406250Y-259187500D02*
X442006250Y-259187500D01*
%TO.C,D171*%
X122918750Y-262187500D02*
X126318750Y-262187500D01*
X126318750Y-259187500D02*
X122918750Y-259187500D01*
X126318750Y-262187500D02*
X126318750Y-259187500D01*
X122918750Y-259187500D02*
X122918750Y-262187500D01*
%TO.C,D105*%
X197756250Y-181225000D02*
X197756250Y-178225000D01*
X194356250Y-181225000D02*
X197756250Y-181225000D01*
X197756250Y-178225000D02*
X194356250Y-178225000D01*
X194356250Y-178225000D02*
X194356250Y-181225000D01*
%TO.C,D192*%
X222931250Y-278237500D02*
X222931250Y-281237500D01*
X222931250Y-281237500D02*
X226331250Y-281237500D01*
X226331250Y-278237500D02*
X222931250Y-278237500D01*
X226331250Y-281237500D02*
X226331250Y-278237500D01*
%TO.C,D120*%
X194356250Y-202037500D02*
X194356250Y-205037500D01*
X197756250Y-202037500D02*
X194356250Y-202037500D01*
X197756250Y-205037500D02*
X197756250Y-202037500D01*
X194356250Y-205037500D02*
X197756250Y-205037500D01*
%TO.C,D122*%
X235856250Y-205037500D02*
X235856250Y-202037500D01*
X232456250Y-205037500D02*
X235856250Y-205037500D01*
X235856250Y-202037500D02*
X232456250Y-202037500D01*
X232456250Y-202037500D02*
X232456250Y-205037500D01*
%TO.C,D129*%
X397781250Y-202037500D02*
X394381250Y-202037500D01*
X394381250Y-202037500D02*
X394381250Y-205037500D01*
X394381250Y-205037500D02*
X397781250Y-205037500D01*
X397781250Y-205037500D02*
X397781250Y-202037500D01*
%TO.C,D155*%
X189593750Y-240137500D02*
X189593750Y-243137500D01*
X192993750Y-243137500D02*
X192993750Y-240137500D01*
X189593750Y-243137500D02*
X192993750Y-243137500D01*
X192993750Y-240137500D02*
X189593750Y-240137500D01*
%TO.C,D103*%
X156256250Y-181225000D02*
X159656250Y-181225000D01*
X159656250Y-181225000D02*
X159656250Y-178225000D01*
X159656250Y-178225000D02*
X156256250Y-178225000D01*
X156256250Y-178225000D02*
X156256250Y-181225000D01*
%TO.C,D106*%
X226331250Y-181225000D02*
X226331250Y-178225000D01*
X222931250Y-178225000D02*
X222931250Y-181225000D01*
X222931250Y-181225000D02*
X226331250Y-181225000D01*
X226331250Y-178225000D02*
X222931250Y-178225000D01*
%TO.C,D181*%
X316818750Y-262187500D02*
X316818750Y-259187500D01*
X316818750Y-259187500D02*
X313418750Y-259187500D01*
X313418750Y-259187500D02*
X313418750Y-262187500D01*
X313418750Y-262187500D02*
X316818750Y-262187500D01*
%TO.C,D184*%
X397781250Y-262187500D02*
X397781250Y-259187500D01*
X397781250Y-259187500D02*
X394381250Y-259187500D01*
X394381250Y-262187500D02*
X397781250Y-262187500D01*
X394381250Y-259187500D02*
X394381250Y-262187500D01*
%TO.C,D114*%
X394381250Y-181225000D02*
X397781250Y-181225000D01*
X394381250Y-178225000D02*
X394381250Y-181225000D01*
X397781250Y-181225000D02*
X397781250Y-178225000D01*
X397781250Y-178225000D02*
X394381250Y-178225000D01*
%TO.C,D156*%
X208643750Y-243137500D02*
X212043750Y-243137500D01*
X208643750Y-240137500D02*
X208643750Y-243137500D01*
X212043750Y-240137500D02*
X208643750Y-240137500D01*
X212043750Y-243137500D02*
X212043750Y-240137500D01*
%TO.C,D159*%
X265793750Y-243137500D02*
X269193750Y-243137500D01*
X269193750Y-240137500D02*
X265793750Y-240137500D01*
X269193750Y-243137500D02*
X269193750Y-240137500D01*
X265793750Y-240137500D02*
X265793750Y-243137500D01*
%TO.C,D172*%
X145368750Y-259187500D02*
X141968750Y-259187500D01*
X141968750Y-259187500D02*
X141968750Y-262187500D01*
X145368750Y-262187500D02*
X145368750Y-259187500D01*
X141968750Y-262187500D02*
X145368750Y-262187500D01*
%TO.C,D117*%
X140606250Y-202037500D02*
X137206250Y-202037500D01*
X137206250Y-202037500D02*
X137206250Y-205037500D01*
X140606250Y-205037500D02*
X140606250Y-202037500D01*
X137206250Y-205037500D02*
X140606250Y-205037500D01*
%TO.C,D173*%
X161018750Y-259187500D02*
X161018750Y-262187500D01*
X164418750Y-259187500D02*
X161018750Y-259187500D01*
X161018750Y-262187500D02*
X164418750Y-262187500D01*
X164418750Y-262187500D02*
X164418750Y-259187500D01*
%TO.C,D178*%
X256268750Y-259187500D02*
X256268750Y-262187500D01*
X256268750Y-262187500D02*
X259668750Y-262187500D01*
X259668750Y-259187500D02*
X256268750Y-259187500D01*
X259668750Y-262187500D02*
X259668750Y-259187500D01*
%TO.C,D199*%
X435881250Y-281237500D02*
X435881250Y-278237500D01*
X432481250Y-278237500D02*
X432481250Y-281237500D01*
X432481250Y-281237500D02*
X435881250Y-281237500D01*
X435881250Y-278237500D02*
X432481250Y-278237500D01*
%TO.C,D143*%
X283481250Y-221087500D02*
X280081250Y-221087500D01*
X283481250Y-224087500D02*
X283481250Y-221087500D01*
X280081250Y-224087500D02*
X283481250Y-224087500D01*
X280081250Y-221087500D02*
X280081250Y-224087500D01*
%TO.C,D182*%
X339612500Y-262187500D02*
X343012500Y-262187500D01*
X343012500Y-259187500D02*
X339612500Y-259187500D01*
X343012500Y-262187500D02*
X343012500Y-259187500D01*
X339612500Y-259187500D02*
X339612500Y-262187500D01*
%TO.C,D157*%
X227693750Y-243137500D02*
X231093750Y-243137500D01*
X227693750Y-240137500D02*
X227693750Y-243137500D01*
X231093750Y-243137500D02*
X231093750Y-240137500D01*
X231093750Y-240137500D02*
X227693750Y-240137500D01*
%TO.C,D196*%
X351518750Y-283000000D02*
X351518750Y-286000000D01*
X351518750Y-286000000D02*
X354918750Y-286000000D01*
X354918750Y-283000000D02*
X351518750Y-283000000D01*
X354918750Y-286000000D02*
X354918750Y-283000000D01*
%TO.C,D102*%
X137206250Y-181225000D02*
X140606250Y-181225000D01*
X140606250Y-178225000D02*
X137206250Y-178225000D01*
X140606250Y-181225000D02*
X140606250Y-178225000D01*
X137206250Y-178225000D02*
X137206250Y-181225000D01*
%TO.C,D203*%
X262050000Y-281237500D02*
X262050000Y-278237500D01*
X262050000Y-278237500D02*
X258650000Y-278237500D01*
X258650000Y-281237500D02*
X262050000Y-281237500D01*
X258650000Y-278237500D02*
X258650000Y-281237500D01*
%TO.C,D177*%
X237218750Y-262187500D02*
X240618750Y-262187500D01*
X240618750Y-259187500D02*
X237218750Y-259187500D01*
X237218750Y-259187500D02*
X237218750Y-262187500D01*
X240618750Y-262187500D02*
X240618750Y-259187500D01*
%TO.C,D145*%
X321581250Y-221087500D02*
X318181250Y-221087500D01*
X321581250Y-224087500D02*
X321581250Y-221087500D01*
X318181250Y-224087500D02*
X321581250Y-224087500D01*
X318181250Y-221087500D02*
X318181250Y-224087500D01*
%TO.C,D112*%
X346756250Y-181225000D02*
X350156250Y-181225000D01*
X346756250Y-178225000D02*
X346756250Y-181225000D01*
X350156250Y-178225000D02*
X346756250Y-178225000D01*
X350156250Y-181225000D02*
X350156250Y-178225000D01*
%TO.C,D142*%
X264431250Y-221087500D02*
X261031250Y-221087500D01*
X261031250Y-224087500D02*
X264431250Y-224087500D01*
X261031250Y-221087500D02*
X261031250Y-224087500D01*
X264431250Y-224087500D02*
X264431250Y-221087500D01*
%TO.C,D161*%
X303893750Y-240137500D02*
X303893750Y-243137500D01*
X307293750Y-243137500D02*
X307293750Y-240137500D01*
X307293750Y-240137500D02*
X303893750Y-240137500D01*
X303893750Y-243137500D02*
X307293750Y-243137500D01*
%TO.C,D149*%
X442006250Y-221087500D02*
X442006250Y-224087500D01*
X445406250Y-221087500D02*
X442006250Y-221087500D01*
X445406250Y-224087500D02*
X445406250Y-221087500D01*
X442006250Y-224087500D02*
X445406250Y-224087500D01*
%TO.C,D126*%
X312056250Y-202037500D02*
X308656250Y-202037500D01*
X312056250Y-205037500D02*
X312056250Y-202037500D01*
X308656250Y-202037500D02*
X308656250Y-205037500D01*
X308656250Y-205037500D02*
X312056250Y-205037500D01*
%TO.C,D195*%
X331106250Y-278237500D02*
X327706250Y-278237500D01*
X331106250Y-281237500D02*
X331106250Y-278237500D01*
X327706250Y-278237500D02*
X327706250Y-281237500D01*
X327706250Y-281237500D02*
X331106250Y-281237500D01*
%TO.C,D123*%
X251506250Y-205037500D02*
X254906250Y-205037500D01*
X251506250Y-202037500D02*
X251506250Y-205037500D01*
X254906250Y-205037500D02*
X254906250Y-202037500D01*
X254906250Y-202037500D02*
X251506250Y-202037500D01*
%TO.C,D179*%
X275318750Y-262187500D02*
X278718750Y-262187500D01*
X278718750Y-262187500D02*
X278718750Y-259187500D01*
X275318750Y-259187500D02*
X275318750Y-262187500D01*
X278718750Y-259187500D02*
X275318750Y-259187500D01*
%TO.C,D174*%
X183468750Y-259187500D02*
X180068750Y-259187500D01*
X180068750Y-262187500D02*
X183468750Y-262187500D01*
X180068750Y-259187500D02*
X180068750Y-262187500D01*
X183468750Y-262187500D02*
X183468750Y-259187500D01*
%TO.C,D147*%
X394381250Y-224087500D02*
X397781250Y-224087500D01*
X394381250Y-221087500D02*
X394381250Y-224087500D01*
X397781250Y-224087500D02*
X397781250Y-221087500D01*
X397781250Y-221087500D02*
X394381250Y-221087500D01*
%TO.C,D198*%
X393018750Y-283000000D02*
X389618750Y-283000000D01*
X393018750Y-286000000D02*
X393018750Y-283000000D01*
X389618750Y-286000000D02*
X393018750Y-286000000D01*
X389618750Y-283000000D02*
X389618750Y-286000000D01*
%TO.C,D133*%
X483506250Y-202037500D02*
X480106250Y-202037500D01*
X483506250Y-205037500D02*
X483506250Y-202037500D01*
X480106250Y-205037500D02*
X483506250Y-205037500D01*
X480106250Y-202037500D02*
X480106250Y-205037500D01*
%TO.C,D121*%
X216806250Y-202037500D02*
X213406250Y-202037500D01*
X213406250Y-202037500D02*
X213406250Y-205037500D01*
X213406250Y-205037500D02*
X216806250Y-205037500D01*
X216806250Y-205037500D02*
X216806250Y-202037500D01*
%TO.C,D187*%
X461056250Y-259187500D02*
X461056250Y-262187500D01*
X464456250Y-262187500D02*
X464456250Y-259187500D01*
X464456250Y-259187500D02*
X461056250Y-259187500D01*
X461056250Y-262187500D02*
X464456250Y-262187500D01*
%TO.C,D125*%
X289606250Y-205037500D02*
X293006250Y-205037500D01*
X293006250Y-205037500D02*
X293006250Y-202037500D01*
X289606250Y-202037500D02*
X289606250Y-205037500D01*
X293006250Y-202037500D02*
X289606250Y-202037500D01*
%TO.C,D154*%
X173943750Y-240137500D02*
X170543750Y-240137500D01*
X170543750Y-240137500D02*
X170543750Y-243137500D01*
X170543750Y-243137500D02*
X173943750Y-243137500D01*
X173943750Y-243137500D02*
X173943750Y-240137500D01*
%TO.C,D104*%
X175306250Y-178225000D02*
X175306250Y-181225000D01*
X175306250Y-181225000D02*
X178706250Y-181225000D01*
X178706250Y-178225000D02*
X175306250Y-178225000D01*
X178706250Y-181225000D02*
X178706250Y-178225000D01*
%TO.C,D153*%
X151493750Y-240137500D02*
X151493750Y-243137500D01*
X154893750Y-240137500D02*
X151493750Y-240137500D01*
X154893750Y-243137500D02*
X154893750Y-240137500D01*
X151493750Y-243137500D02*
X154893750Y-243137500D01*
%TO.C,D124*%
X273956250Y-205037500D02*
X273956250Y-202037500D01*
X273956250Y-202037500D02*
X270556250Y-202037500D01*
X270556250Y-205037500D02*
X273956250Y-205037500D01*
X270556250Y-202037500D02*
X270556250Y-205037500D01*
%TO.C,D200*%
X461056250Y-278237500D02*
X461056250Y-281237500D01*
X464456250Y-278237500D02*
X461056250Y-278237500D01*
X461056250Y-281237500D02*
X464456250Y-281237500D01*
X464456250Y-281237500D02*
X464456250Y-278237500D01*
%TO.C,D194*%
X308656250Y-278237500D02*
X308656250Y-281237500D01*
X312056250Y-278237500D02*
X308656250Y-278237500D01*
X308656250Y-281237500D02*
X312056250Y-281237500D01*
X312056250Y-281237500D02*
X312056250Y-278237500D01*
%TO.C,D111*%
X331106250Y-181225000D02*
X331106250Y-178225000D01*
X327706250Y-178225000D02*
X327706250Y-181225000D01*
X331106250Y-178225000D02*
X327706250Y-178225000D01*
X327706250Y-181225000D02*
X331106250Y-181225000D01*
%TO.C,D132*%
X464456250Y-202037500D02*
X461056250Y-202037500D01*
X461056250Y-202037500D02*
X461056250Y-205037500D01*
X464456250Y-205037500D02*
X464456250Y-202037500D01*
X461056250Y-205037500D02*
X464456250Y-205037500D01*
%TO.C,D189*%
X103868750Y-278237500D02*
X103868750Y-281237500D01*
X103868750Y-281237500D02*
X107268750Y-281237500D01*
X107268750Y-281237500D02*
X107268750Y-278237500D01*
X107268750Y-278237500D02*
X103868750Y-278237500D01*
%TO.C,D160*%
X284843750Y-243137500D02*
X288243750Y-243137500D01*
X284843750Y-240137500D02*
X284843750Y-243137500D01*
X288243750Y-243137500D02*
X288243750Y-240137500D01*
X288243750Y-240137500D02*
X284843750Y-240137500D01*
%TO.C,D131*%
X442006250Y-202037500D02*
X442006250Y-205037500D01*
X445406250Y-202037500D02*
X442006250Y-202037500D01*
X445406250Y-205037500D02*
X445406250Y-202037500D01*
X442006250Y-205037500D02*
X445406250Y-205037500D01*
%TO.C,D108*%
X264431250Y-178225000D02*
X261031250Y-178225000D01*
X261031250Y-181225000D02*
X264431250Y-181225000D01*
X261031250Y-178225000D02*
X261031250Y-181225000D01*
X264431250Y-181225000D02*
X264431250Y-178225000D01*
%TO.C,D152*%
X135843750Y-240137500D02*
X132443750Y-240137500D01*
X132443750Y-243137500D02*
X135843750Y-243137500D01*
X132443750Y-240137500D02*
X132443750Y-243137500D01*
X135843750Y-243137500D02*
X135843750Y-240137500D01*
%TO.C,D169*%
X480106250Y-233612500D02*
X483506250Y-233612500D01*
X483506250Y-230612500D02*
X480106250Y-230612500D01*
X483506250Y-233612500D02*
X483506250Y-230612500D01*
X480106250Y-230612500D02*
X480106250Y-233612500D01*
%TO.C,D191*%
X152512500Y-278237500D02*
X149112500Y-278237500D01*
X152512500Y-281237500D02*
X152512500Y-278237500D01*
X149112500Y-281237500D02*
X152512500Y-281237500D01*
X149112500Y-278237500D02*
X149112500Y-281237500D01*
%TO.C,D165*%
X394381250Y-240137500D02*
X394381250Y-243137500D01*
X394381250Y-243137500D02*
X397781250Y-243137500D01*
X397781250Y-243137500D02*
X397781250Y-240137500D01*
X397781250Y-240137500D02*
X394381250Y-240137500D01*
%TO.C,D164*%
X363425000Y-230612500D02*
X363425000Y-233612500D01*
X366825000Y-233612500D02*
X366825000Y-230612500D01*
X363425000Y-233612500D02*
X366825000Y-233612500D01*
X366825000Y-230612500D02*
X363425000Y-230612500D01*
%TO.C,D151*%
X106250000Y-243137500D02*
X109650000Y-243137500D01*
X106250000Y-240137500D02*
X106250000Y-243137500D01*
X109650000Y-240137500D02*
X106250000Y-240137500D01*
X109650000Y-243137500D02*
X109650000Y-240137500D01*
%TO.C,D101*%
X102506250Y-181225000D02*
X102506250Y-178225000D01*
X102506250Y-178225000D02*
X99106250Y-178225000D01*
X99106250Y-178225000D02*
X99106250Y-181225000D01*
X99106250Y-181225000D02*
X102506250Y-181225000D01*
%TD*%
M02*
