%TF.GenerationSoftware,KiCad,Pcbnew,(6.0.4)*%
%TF.CreationDate,2022-05-20T16:58:26+02:00*%
%TF.ProjectId,pcb-rounded,7063622d-726f-4756-9e64-65642e6b6963,rev?*%
%TF.SameCoordinates,Original*%
%TF.FileFunction,Soldermask,Top*%
%TF.FilePolarity,Negative*%
%FSLAX46Y46*%
G04 Gerber Fmt 4.6, Leading zero omitted, Abs format (unit mm)*
G04 Created by KiCad (PCBNEW (6.0.4)) date 2022-05-20 16:58:26*
%MOMM*%
%LPD*%
G01*
G04 APERTURE LIST*
G04 Aperture macros list*
%AMRoundRect*
0 Rectangle with rounded corners*
0 $1 Rounding radius*
0 $2 $3 $4 $5 $6 $7 $8 $9 X,Y pos of 4 corners*
0 Add a 4 corners polygon primitive as box body*
4,1,4,$2,$3,$4,$5,$6,$7,$8,$9,$2,$3,0*
0 Add four circle primitives for the rounded corners*
1,1,$1+$1,$2,$3*
1,1,$1+$1,$4,$5*
1,1,$1+$1,$6,$7*
1,1,$1+$1,$8,$9*
0 Add four rect primitives between the rounded corners*
20,1,$1+$1,$2,$3,$4,$5,0*
20,1,$1+$1,$4,$5,$6,$7,0*
20,1,$1+$1,$6,$7,$8,$9,0*
20,1,$1+$1,$8,$9,$2,$3,0*%
%AMRotRect*
0 Rectangle, with rotation*
0 The origin of the aperture is its center*
0 $1 length*
0 $2 width*
0 $3 Rotation angle, in degrees counterclockwise*
0 Add horizontal line*
21,1,$1,$2,0,0,$3*%
G04 Aperture macros list end*
%ADD10RoundRect,0.450000X-0.950000X-0.450000X0.950000X-0.450000X0.950000X0.450000X-0.950000X0.450000X0*%
%ADD11C,3.000000*%
%ADD12C,1.701800*%
%ADD13C,3.987800*%
%ADD14RoundRect,0.250000X-0.132583X0.503814X-0.503814X0.132583X0.132583X-0.503814X0.503814X-0.132583X0*%
%ADD15C,2.200000*%
%ADD16RoundRect,0.250000X0.159099X-0.512652X0.512652X-0.159099X-0.159099X0.512652X-0.512652X0.159099X0*%
%ADD17RoundRect,0.250000X-0.159099X0.512652X-0.512652X0.159099X0.159099X-0.512652X0.512652X-0.159099X0*%
%ADD18C,3.048000*%
%ADD19RoundRect,0.250000X-0.503814X-0.132583X-0.132583X-0.503814X0.503814X0.132583X0.132583X0.503814X0*%
%ADD20RotRect,1.500000X0.550000X45.000000*%
%ADD21RotRect,1.500000X0.550000X135.000000*%
%ADD22RoundRect,0.250000X-0.262500X-0.450000X0.262500X-0.450000X0.262500X0.450000X-0.262500X0.450000X0*%
%ADD23RoundRect,0.150000X-0.150000X0.587500X-0.150000X-0.587500X0.150000X-0.587500X0.150000X0.587500X0*%
%ADD24RoundRect,0.250000X0.132583X-0.503814X0.503814X-0.132583X-0.132583X0.503814X-0.503814X0.132583X0*%
%ADD25RotRect,1.400000X1.200000X225.000000*%
%ADD26R,2.000000X2.000000*%
%ADD27C,2.000000*%
%ADD28R,3.200000X2.000000*%
G04 APERTURE END LIST*
D10*
%TO.C,SW1*%
X458875000Y-185531250D03*
X461875000Y-187531250D03*
%TD*%
D11*
%TO.C,MX13*%
X363696250Y-172085000D03*
D12*
X362426250Y-174625000D03*
D13*
X367506250Y-174625000D03*
D12*
X372586250Y-174625000D03*
D11*
X370046250Y-169545000D03*
%TD*%
%TO.C,MX11*%
X325596250Y-172085000D03*
D13*
X329406250Y-174625000D03*
D11*
X331946250Y-169545000D03*
D12*
X324326250Y-174625000D03*
X334486250Y-174625000D03*
%TD*%
D14*
%TO.C,R2*%
X415845235Y-177054765D03*
X414554765Y-178345235D03*
%TD*%
D11*
%TO.C,MX43*%
X284321250Y-212407500D03*
X277971250Y-214947500D03*
D12*
X286861250Y-217487500D03*
D13*
X281781250Y-217487500D03*
D12*
X276701250Y-217487500D03*
%TD*%
%TO.C,MX31*%
X438626250Y-198437500D03*
D11*
X446246250Y-193357500D03*
D12*
X448786250Y-198437500D03*
D11*
X439896250Y-195897500D03*
D13*
X443706250Y-198437500D03*
%TD*%
D11*
%TO.C,MX20*%
X198596250Y-193357500D03*
D12*
X190976250Y-198437500D03*
D11*
X192246250Y-195897500D03*
D12*
X201136250Y-198437500D03*
D13*
X196056250Y-198437500D03*
%TD*%
D12*
%TO.C,MX54*%
X177323750Y-236537500D03*
X167163750Y-236537500D03*
D13*
X172243750Y-236537500D03*
D11*
X174783750Y-231457500D03*
X168433750Y-233997500D03*
%TD*%
D15*
%TO.C,H3*%
X361156250Y-248443750D03*
%TD*%
%TO.C,H9*%
X111125000Y-184943750D03*
%TD*%
D11*
%TO.C,MX12*%
X350996250Y-169545000D03*
D12*
X343376250Y-174625000D03*
X353536250Y-174625000D03*
D13*
X348456250Y-174625000D03*
D11*
X344646250Y-172085000D03*
%TD*%
%TO.C,MX51*%
X110490000Y-231457500D03*
D12*
X102870000Y-236537500D03*
D11*
X104140000Y-233997500D03*
D12*
X113030000Y-236537500D03*
D13*
X107950000Y-236537500D03*
%TD*%
D16*
%TO.C,C7*%
X448468750Y-187325000D03*
X449812252Y-185981498D03*
%TD*%
D15*
%TO.C,H8*%
X474662500Y-185737500D03*
%TD*%
D13*
%TO.C,MX77*%
X238918750Y-255587500D03*
D11*
X235108750Y-253047500D03*
D12*
X243998750Y-255587500D03*
X233838750Y-255587500D03*
D11*
X241458750Y-250507500D03*
%TD*%
D17*
%TO.C,C4*%
X434249751Y-183224249D03*
X432906249Y-184567751D03*
%TD*%
D12*
%TO.C,MX79*%
X282098750Y-255587500D03*
X271938750Y-255587500D03*
D11*
X273208750Y-253047500D03*
X279558750Y-250507500D03*
D13*
X277018750Y-255587500D03*
%TD*%
D12*
%TO.C,MX49*%
X438626250Y-217487500D03*
D13*
X443706250Y-217487500D03*
D12*
X448786250Y-217487500D03*
D11*
X446246250Y-212407500D03*
X439896250Y-214947500D03*
%TD*%
D12*
%TO.C,MX45*%
X324961250Y-217487500D03*
X314801250Y-217487500D03*
D13*
X319881250Y-217487500D03*
D11*
X322421250Y-212407500D03*
X316071250Y-214947500D03*
%TD*%
D12*
%TO.C,MX42*%
X267811250Y-217487500D03*
D11*
X265271250Y-212407500D03*
D13*
X262731250Y-217487500D03*
D12*
X257651250Y-217487500D03*
D11*
X258921250Y-214947500D03*
%TD*%
D13*
%TO.C,MX10*%
X310356250Y-174625000D03*
D12*
X305276250Y-174625000D03*
D11*
X306546250Y-172085000D03*
D12*
X315436250Y-174625000D03*
D11*
X312896250Y-169545000D03*
%TD*%
D18*
%TO.C,MX92*%
X286687500Y-267652500D03*
D13*
X286687500Y-282892500D03*
D12*
X217170000Y-274637500D03*
X224457500Y-274637500D03*
D13*
X229537500Y-274637500D03*
X222250000Y-274637500D03*
D11*
X224790000Y-269557500D03*
D18*
X272249900Y-267652500D03*
X172250100Y-267652500D03*
D12*
X234617500Y-274637500D03*
D13*
X172250100Y-282892500D03*
D11*
X232077500Y-269557500D03*
D12*
X227330000Y-274637500D03*
D11*
X225727500Y-272097500D03*
D13*
X272249900Y-282892500D03*
D11*
X218440000Y-272097500D03*
%TD*%
D16*
%TO.C,C3*%
X465259499Y-173471751D03*
X466603001Y-172128249D03*
%TD*%
D19*
%TO.C,R8*%
X467254765Y-183354765D03*
X468545235Y-184645235D03*
%TD*%
D13*
%TO.C,MX9*%
X281781250Y-174625000D03*
D12*
X276701250Y-174625000D03*
X286861250Y-174625000D03*
D11*
X277971250Y-172085000D03*
X284321250Y-169545000D03*
%TD*%
%TO.C,MX18*%
X154146250Y-195897500D03*
D12*
X152876250Y-198437500D03*
D13*
X157956250Y-198437500D03*
D12*
X163036250Y-198437500D03*
D11*
X160496250Y-193357500D03*
%TD*%
%TO.C,MX15*%
X103346250Y-193357500D03*
X96996250Y-195897500D03*
D12*
X95726250Y-198437500D03*
X105886250Y-198437500D03*
D13*
X100806250Y-198437500D03*
%TD*%
D20*
%TO.C,U1*%
X433288637Y-177414582D03*
X433854323Y-177980267D03*
X434420008Y-178545952D03*
X434985693Y-179111638D03*
X435551379Y-179677323D03*
X436117064Y-180243009D03*
X436682750Y-180808694D03*
X437248435Y-181374380D03*
X437814120Y-181940065D03*
X438379806Y-182505750D03*
X438945491Y-183071436D03*
X439511177Y-183637121D03*
X440076862Y-184202807D03*
X440642548Y-184768492D03*
X441208233Y-185334177D03*
X441773918Y-185899863D03*
D21*
X444178082Y-185899863D03*
X444743767Y-185334177D03*
X445309452Y-184768492D03*
X445875138Y-184202807D03*
X446440823Y-183637121D03*
X447006509Y-183071436D03*
X447572194Y-182505750D03*
X448137880Y-181940065D03*
X448703565Y-181374380D03*
X449269250Y-180808694D03*
X449834936Y-180243009D03*
X450400621Y-179677323D03*
X450966307Y-179111638D03*
X451531992Y-178545952D03*
X452097677Y-177980267D03*
X452663363Y-177414582D03*
D20*
X452663363Y-175010418D03*
X452097677Y-174444733D03*
X451531992Y-173879048D03*
X450966307Y-173313362D03*
X450400621Y-172747677D03*
X449834936Y-172181991D03*
X449269250Y-171616306D03*
X448703565Y-171050620D03*
X448137880Y-170484935D03*
X447572194Y-169919250D03*
X447006509Y-169353564D03*
X446440823Y-168787879D03*
X445875138Y-168222193D03*
X445309452Y-167656508D03*
X444743767Y-167090823D03*
X444178082Y-166525137D03*
D21*
X441773918Y-166525137D03*
X441208233Y-167090823D03*
X440642548Y-167656508D03*
X440076862Y-168222193D03*
X439511177Y-168787879D03*
X438945491Y-169353564D03*
X438379806Y-169919250D03*
X437814120Y-170484935D03*
X437248435Y-171050620D03*
X436682750Y-171616306D03*
X436117064Y-172181991D03*
X435551379Y-172747677D03*
X434985693Y-173313362D03*
X434420008Y-173879048D03*
X433854323Y-174444733D03*
X433288637Y-175010418D03*
%TD*%
D12*
%TO.C,MX5*%
X201136250Y-174625000D03*
D13*
X196056250Y-174625000D03*
D11*
X192246250Y-172085000D03*
X198596250Y-169545000D03*
D12*
X190976250Y-174625000D03*
%TD*%
D11*
%TO.C,MX21*%
X217646250Y-193357500D03*
D12*
X210026250Y-198437500D03*
D13*
X215106250Y-198437500D03*
D12*
X220186250Y-198437500D03*
D11*
X211296250Y-195897500D03*
%TD*%
D12*
%TO.C,MX84*%
X391001250Y-255587500D03*
D11*
X398621250Y-250507500D03*
D13*
X396081250Y-255587500D03*
D11*
X392271250Y-253047500D03*
D12*
X401161250Y-255587500D03*
%TD*%
%TO.C,MX44*%
X305911250Y-217487500D03*
D13*
X300831250Y-217487500D03*
D11*
X297021250Y-214947500D03*
D12*
X295751250Y-217487500D03*
D11*
X303371250Y-212407500D03*
%TD*%
D12*
%TO.C,MX47*%
X401161250Y-217487500D03*
X391001250Y-217487500D03*
D13*
X396081250Y-217487500D03*
D11*
X392271250Y-214947500D03*
X398621250Y-212407500D03*
%TD*%
%TO.C,MX32*%
X458946250Y-195897500D03*
D12*
X467836250Y-198437500D03*
X457676250Y-198437500D03*
D11*
X465296250Y-193357500D03*
D13*
X462756250Y-198437500D03*
%TD*%
D12*
%TO.C,MX91*%
X155892500Y-274637500D03*
D11*
X147002500Y-272097500D03*
X153352500Y-269557500D03*
D13*
X150812500Y-274637500D03*
D12*
X145732500Y-274637500D03*
%TD*%
%TO.C,MX36*%
X143351250Y-217487500D03*
D13*
X148431250Y-217487500D03*
D12*
X153511250Y-217487500D03*
D11*
X144621250Y-214947500D03*
X150971250Y-212407500D03*
%TD*%
D12*
%TO.C,MX71*%
X129698750Y-255587500D03*
X119538750Y-255587500D03*
D11*
X127158750Y-250507500D03*
D13*
X124618750Y-255587500D03*
D11*
X120808750Y-253047500D03*
%TD*%
D12*
%TO.C,MX80*%
X290988750Y-255587500D03*
X301148750Y-255587500D03*
D13*
X296068750Y-255587500D03*
D11*
X298608750Y-250507500D03*
X292258750Y-253047500D03*
%TD*%
D22*
%TO.C,R7*%
X408887500Y-168200000D03*
X410712500Y-168200000D03*
%TD*%
D11*
%TO.C,MX89*%
X101758750Y-272097500D03*
X108108750Y-269557500D03*
D12*
X110648750Y-274637500D03*
D13*
X105568750Y-274637500D03*
D12*
X100488750Y-274637500D03*
%TD*%
%TO.C,MX66*%
X419576250Y-236537500D03*
D11*
X427196250Y-231457500D03*
D13*
X424656250Y-236537500D03*
D12*
X429736250Y-236537500D03*
D11*
X420846250Y-233997500D03*
%TD*%
D13*
%TO.C,MX3*%
X157956250Y-174625000D03*
D12*
X163036250Y-174625000D03*
D11*
X154146250Y-172085000D03*
X160496250Y-169545000D03*
D12*
X152876250Y-174625000D03*
%TD*%
%TO.C,MX61*%
X300513750Y-236537500D03*
D13*
X305593750Y-236537500D03*
D12*
X310673750Y-236537500D03*
D11*
X308133750Y-231457500D03*
X301783750Y-233997500D03*
%TD*%
%TO.C,MX100*%
X465296250Y-269557500D03*
D13*
X462756250Y-274637500D03*
D12*
X467836250Y-274637500D03*
D11*
X458946250Y-272097500D03*
D12*
X457676250Y-274637500D03*
%TD*%
D11*
%TO.C,MX86*%
X439896250Y-253047500D03*
D13*
X443706250Y-255587500D03*
D12*
X448786250Y-255587500D03*
D11*
X446246250Y-250507500D03*
D12*
X438626250Y-255587500D03*
%TD*%
%TO.C,MX39*%
X200501250Y-217487500D03*
D11*
X208121250Y-212407500D03*
D13*
X205581250Y-217487500D03*
D11*
X201771250Y-214947500D03*
D12*
X210661250Y-217487500D03*
%TD*%
%TO.C,MX87*%
X457676250Y-255587500D03*
D13*
X462756250Y-255587500D03*
D12*
X467836250Y-255587500D03*
D11*
X458946250Y-253047500D03*
X465296250Y-250507500D03*
%TD*%
%TO.C,MX83*%
X374808750Y-255270000D03*
D13*
X372268750Y-260350000D03*
D12*
X377348750Y-260350000D03*
X367188750Y-260350000D03*
D11*
X368458750Y-257810000D03*
%TD*%
%TO.C,MX78*%
X254158750Y-253047500D03*
D13*
X257968750Y-255587500D03*
D12*
X263048750Y-255587500D03*
X252888750Y-255587500D03*
D11*
X260508750Y-250507500D03*
%TD*%
D15*
%TO.C,H5*%
X277812500Y-229393750D03*
%TD*%
D13*
%TO.C,MX40*%
X224631250Y-217487500D03*
D11*
X227171250Y-212407500D03*
D12*
X229711250Y-217487500D03*
D11*
X220821250Y-214947500D03*
D12*
X219551250Y-217487500D03*
%TD*%
%TO.C,MX81*%
X310038750Y-255587500D03*
D11*
X317658750Y-250507500D03*
X311308750Y-253047500D03*
D13*
X315118750Y-255587500D03*
D12*
X320198750Y-255587500D03*
%TD*%
D13*
%TO.C,MX25*%
X291306250Y-198437500D03*
D11*
X293846250Y-193357500D03*
X287496250Y-195897500D03*
D12*
X286226250Y-198437500D03*
X296386250Y-198437500D03*
%TD*%
D17*
%TO.C,C8*%
X422946751Y-174746999D03*
X421603249Y-176090501D03*
%TD*%
D12*
%TO.C,MX52*%
X129063750Y-236537500D03*
D13*
X134143750Y-236537500D03*
D11*
X136683750Y-231457500D03*
D12*
X139223750Y-236537500D03*
D11*
X130333750Y-233997500D03*
%TD*%
%TO.C,MX28*%
X354171250Y-195963639D03*
D18*
X346043250Y-191452500D03*
D11*
X360521250Y-193423639D03*
D13*
X369919250Y-206692500D03*
X346043250Y-206692500D03*
D18*
X369919250Y-191452500D03*
D12*
X363061250Y-198503639D03*
D13*
X357981250Y-198503639D03*
D12*
X352901250Y-198503639D03*
%TD*%
%TO.C,MX97*%
X377348750Y-279400000D03*
X367188750Y-279400000D03*
D13*
X372268750Y-279400000D03*
D11*
X368458750Y-276860000D03*
X374808750Y-274320000D03*
%TD*%
D15*
%TO.C,H4*%
X208756250Y-170656250D03*
%TD*%
D12*
%TO.C,MX63*%
X348773750Y-236537500D03*
D13*
X343693750Y-236537500D03*
D11*
X339883750Y-233997500D03*
D12*
X338613750Y-236537500D03*
D11*
X346233750Y-231457500D03*
%TD*%
D12*
%TO.C,MX16*%
X124936250Y-198437500D03*
D11*
X116046250Y-195897500D03*
X122396250Y-193357500D03*
D13*
X119856250Y-198437500D03*
D12*
X114776250Y-198437500D03*
%TD*%
%TO.C,MX76*%
X214788750Y-255587500D03*
D11*
X222408750Y-250507500D03*
D13*
X219868750Y-255587500D03*
D12*
X224948750Y-255587500D03*
D11*
X216058750Y-253047500D03*
%TD*%
%TO.C,MX14*%
X392271250Y-172085000D03*
X398621250Y-169545000D03*
D12*
X401161250Y-174625000D03*
D13*
X396081250Y-174625000D03*
D12*
X391001250Y-174625000D03*
%TD*%
%TO.C,MX65*%
X391001250Y-236537500D03*
D11*
X392271250Y-233997500D03*
D12*
X401161250Y-236537500D03*
D11*
X398621250Y-231457500D03*
D13*
X396081250Y-236537500D03*
%TD*%
D23*
%TO.C,Q1*%
X411850000Y-179362500D03*
X409950000Y-179362500D03*
X410900000Y-181237500D03*
%TD*%
D12*
%TO.C,MX75*%
X205898750Y-255587500D03*
D11*
X203358750Y-250507500D03*
X197008750Y-253047500D03*
D12*
X195738750Y-255587500D03*
D13*
X200818750Y-255587500D03*
%TD*%
D15*
%TO.C,H7*%
X381793750Y-172243750D03*
%TD*%
D13*
%TO.C,MX50*%
X462756250Y-217487500D03*
D11*
X458946250Y-214947500D03*
D12*
X467836250Y-217487500D03*
D11*
X465296250Y-212407500D03*
D12*
X457676250Y-217487500D03*
%TD*%
%TO.C,MX70*%
X108267500Y-255587500D03*
X98107500Y-255587500D03*
D13*
X103187500Y-255587500D03*
D11*
X105727500Y-250507500D03*
X99377500Y-253047500D03*
%TD*%
D24*
%TO.C,R1*%
X452586015Y-187027970D03*
X453876485Y-185737500D03*
%TD*%
D12*
%TO.C,MX33*%
X486886250Y-198437500D03*
D11*
X477996250Y-195897500D03*
D12*
X476726250Y-198437500D03*
D13*
X481806250Y-198437500D03*
D11*
X484346250Y-193357500D03*
%TD*%
D12*
%TO.C,MX72*%
X148748750Y-255587500D03*
D11*
X146208750Y-250507500D03*
D13*
X143668750Y-255587500D03*
D11*
X139858750Y-253047500D03*
D12*
X138588750Y-255587500D03*
%TD*%
%TO.C,MX94*%
X315436250Y-274637500D03*
X313055000Y-274637500D03*
D13*
X310356250Y-274637500D03*
D11*
X304165000Y-272097500D03*
X306546250Y-272097500D03*
X310515000Y-269557500D03*
D12*
X305276250Y-274637500D03*
D11*
X312896250Y-269557500D03*
D13*
X307975000Y-274637500D03*
D12*
X302895000Y-274637500D03*
%TD*%
D11*
%TO.C,MX74*%
X184308750Y-250507500D03*
D13*
X181768750Y-255587500D03*
D12*
X186848750Y-255587500D03*
X176688750Y-255587500D03*
D11*
X177958750Y-253047500D03*
%TD*%
D15*
%TO.C,H6*%
X207168750Y-274637500D03*
%TD*%
D16*
%TO.C,C6*%
X433509499Y-166565501D03*
X434853001Y-165221999D03*
%TD*%
D24*
%TO.C,R3*%
X411254765Y-176545235D03*
X412545235Y-175254765D03*
%TD*%
D12*
%TO.C,MX6*%
X229711250Y-174625000D03*
D11*
X220821250Y-172085000D03*
D13*
X224631250Y-174625000D03*
D11*
X227171250Y-169545000D03*
D12*
X219551250Y-174625000D03*
%TD*%
D11*
%TO.C,MX19*%
X179546250Y-193357500D03*
D13*
X177006250Y-198437500D03*
D11*
X173196250Y-195897500D03*
D12*
X182086250Y-198437500D03*
X171926250Y-198437500D03*
%TD*%
D25*
%TO.C,Y1*%
X464108027Y-168221142D03*
X462552392Y-169776777D03*
X463754473Y-170978858D03*
X465310108Y-169423223D03*
%TD*%
D13*
%TO.C,MX90*%
X129381250Y-274637500D03*
D11*
X125571250Y-272097500D03*
D12*
X134461250Y-274637500D03*
X124301250Y-274637500D03*
D11*
X131921250Y-269557500D03*
%TD*%
D24*
%TO.C,R6*%
X449499515Y-166845235D03*
X450789985Y-165554765D03*
%TD*%
D13*
%TO.C,MX69*%
X489995111Y-215140639D03*
D12*
X486886250Y-227078639D03*
D11*
X484346250Y-221998639D03*
D13*
X481806250Y-227078639D03*
D18*
X474755111Y-215140639D03*
D13*
X489995111Y-239016639D03*
D12*
X476726250Y-227078639D03*
D18*
X474755111Y-239016639D03*
D11*
X477996250Y-224538639D03*
%TD*%
%TO.C,MX30*%
X420846250Y-195897500D03*
D12*
X429736250Y-198437500D03*
X419576250Y-198437500D03*
D11*
X427196250Y-193357500D03*
D13*
X424656250Y-198437500D03*
%TD*%
D11*
%TO.C,MX85*%
X427196250Y-250507500D03*
D12*
X429736250Y-255587500D03*
X419576250Y-255587500D03*
D11*
X420846250Y-253047500D03*
D13*
X424656250Y-255587500D03*
%TD*%
D15*
%TO.C,H2*%
X452500000Y-268400000D03*
%TD*%
D12*
%TO.C,MX73*%
X157638750Y-255587500D03*
D11*
X158908750Y-253047500D03*
D13*
X162718750Y-255587500D03*
D12*
X167798750Y-255587500D03*
D11*
X165258750Y-250507500D03*
%TD*%
%TO.C,MX57*%
X231933750Y-231457500D03*
D13*
X229393750Y-236537500D03*
D12*
X224313750Y-236537500D03*
X234473750Y-236537500D03*
D11*
X225583750Y-233997500D03*
%TD*%
D13*
%TO.C,MX48*%
X424656250Y-217487500D03*
D12*
X429736250Y-217487500D03*
D11*
X427196250Y-212407500D03*
D12*
X419576250Y-217487500D03*
D11*
X420846250Y-214947500D03*
%TD*%
D13*
%TO.C,MX95*%
X329406250Y-274637500D03*
D11*
X331946250Y-269557500D03*
D12*
X324326250Y-274637500D03*
X334486250Y-274637500D03*
D11*
X325596250Y-272097500D03*
%TD*%
%TO.C,MX98*%
X387508750Y-276860000D03*
D13*
X391318750Y-279400000D03*
D12*
X386238750Y-279400000D03*
X396398750Y-279400000D03*
D11*
X393858750Y-274320000D03*
%TD*%
%TO.C,MX55*%
X187483750Y-233997500D03*
D13*
X191293750Y-236537500D03*
D12*
X196373750Y-236537500D03*
X186213750Y-236537500D03*
D11*
X193833750Y-231457500D03*
%TD*%
D13*
%TO.C,MX60*%
X286543750Y-236537500D03*
D11*
X289083750Y-231457500D03*
D12*
X281463750Y-236537500D03*
D11*
X282733750Y-233997500D03*
D12*
X291623750Y-236537500D03*
%TD*%
D13*
%TO.C,MX99*%
X446119250Y-282892500D03*
X422243250Y-282892500D03*
D11*
X430371250Y-272163639D03*
D12*
X429101250Y-274703639D03*
X439261250Y-274703639D03*
D11*
X436721250Y-269623639D03*
D13*
X434181250Y-274703639D03*
D18*
X446119250Y-267652500D03*
X422243250Y-267652500D03*
%TD*%
D11*
%TO.C,MX7*%
X239871250Y-172085000D03*
D12*
X248761250Y-174625000D03*
D13*
X243681250Y-174625000D03*
D11*
X246221250Y-169545000D03*
D12*
X238601250Y-174625000D03*
%TD*%
D16*
%TO.C,C5*%
X428873999Y-175804751D03*
X430217501Y-174461249D03*
%TD*%
D12*
%TO.C,MX37*%
X172561250Y-217487500D03*
X162401250Y-217487500D03*
D11*
X170021250Y-212407500D03*
D13*
X167481250Y-217487500D03*
D11*
X163671250Y-214947500D03*
%TD*%
D13*
%TO.C,MX96*%
X353218750Y-279400000D03*
D12*
X358298750Y-279400000D03*
D11*
X349408750Y-276860000D03*
D12*
X348138750Y-279400000D03*
D11*
X355758750Y-274320000D03*
%TD*%
%TO.C,MX4*%
X179546250Y-169545000D03*
D12*
X182086250Y-174625000D03*
D13*
X177006250Y-174625000D03*
D11*
X173196250Y-172085000D03*
D12*
X171926250Y-174625000D03*
%TD*%
D15*
%TO.C,H1*%
X117475000Y-267493750D03*
%TD*%
D11*
%TO.C,MX56*%
X212883750Y-231457500D03*
X206533750Y-233997500D03*
D13*
X210343750Y-236537500D03*
D12*
X205263750Y-236537500D03*
X215423750Y-236537500D03*
%TD*%
D11*
%TO.C,MX46*%
X341471250Y-212407500D03*
D12*
X333851250Y-217487500D03*
D11*
X335121250Y-214947500D03*
D12*
X344011250Y-217487500D03*
D13*
X338931250Y-217487500D03*
%TD*%
D11*
%TO.C,MX22*%
X230346250Y-195897500D03*
D13*
X234156250Y-198437500D03*
D11*
X236696250Y-193357500D03*
D12*
X229076250Y-198437500D03*
X239236250Y-198437500D03*
%TD*%
%TO.C,MX38*%
X181451250Y-217487500D03*
D13*
X186531250Y-217487500D03*
D12*
X191611250Y-217487500D03*
D11*
X182721250Y-214947500D03*
X189071250Y-212407500D03*
%TD*%
D12*
%TO.C,MX23*%
X248126250Y-198437500D03*
D13*
X253206250Y-198437500D03*
D11*
X249396250Y-195897500D03*
X255746250Y-193357500D03*
D12*
X258286250Y-198437500D03*
%TD*%
D11*
%TO.C,MX27*%
X331946250Y-193357500D03*
D12*
X334486250Y-198437500D03*
X324326250Y-198437500D03*
D13*
X329406250Y-198437500D03*
D11*
X325596250Y-195897500D03*
%TD*%
D13*
%TO.C,MX1*%
X100806250Y-174625000D03*
D12*
X105886250Y-174625000D03*
D11*
X103346250Y-169545000D03*
D12*
X95726250Y-174625000D03*
D11*
X96996250Y-172085000D03*
%TD*%
D26*
%TO.C,SW2*%
X474306250Y-172125000D03*
D27*
X474306250Y-177125000D03*
X474306250Y-174625000D03*
D28*
X481806250Y-180225000D03*
X481806250Y-169025000D03*
D27*
X488806250Y-177125000D03*
X488806250Y-172125000D03*
%TD*%
D11*
%TO.C,MX93*%
X287496250Y-272097500D03*
D13*
X291306250Y-274637500D03*
D12*
X286226250Y-274637500D03*
D11*
X293846250Y-269557500D03*
D12*
X296386250Y-274637500D03*
%TD*%
%TO.C,MX67*%
X448786250Y-236537500D03*
X438626250Y-236537500D03*
D11*
X446246250Y-231457500D03*
X439896250Y-233997500D03*
D13*
X443706250Y-236537500D03*
%TD*%
D11*
%TO.C,MX8*%
X258921250Y-172085000D03*
D13*
X262731250Y-174625000D03*
D11*
X265271250Y-169545000D03*
D12*
X267811250Y-174625000D03*
X257651250Y-174625000D03*
%TD*%
D11*
%TO.C,MX88*%
X484346250Y-260098639D03*
D18*
X474755111Y-253240639D03*
D13*
X481806250Y-265178639D03*
D11*
X477996250Y-262638639D03*
D12*
X476726250Y-265178639D03*
D13*
X489995111Y-277116639D03*
X489995111Y-253240639D03*
D12*
X486886250Y-265178639D03*
D18*
X474755111Y-277116639D03*
%TD*%
D11*
%TO.C,MX41*%
X246221250Y-212407500D03*
D13*
X243681250Y-217487500D03*
D11*
X239871250Y-214947500D03*
D12*
X238601250Y-217487500D03*
X248761250Y-217487500D03*
%TD*%
D17*
%TO.C,C2*%
X461203001Y-166928249D03*
X459859499Y-168271751D03*
%TD*%
D11*
%TO.C,MX17*%
X141446250Y-193357500D03*
D12*
X133826250Y-198437500D03*
D11*
X135096250Y-195897500D03*
D13*
X138906250Y-198437500D03*
D12*
X143986250Y-198437500D03*
%TD*%
D11*
%TO.C,MX26*%
X312896250Y-193357500D03*
D13*
X310356250Y-198437500D03*
D11*
X306546250Y-195897500D03*
D12*
X305276250Y-198437500D03*
X315436250Y-198437500D03*
%TD*%
D11*
%TO.C,MX82*%
X337502500Y-253047500D03*
X343852500Y-250507500D03*
D12*
X336232500Y-255587500D03*
D13*
X341312500Y-255587500D03*
D12*
X346392500Y-255587500D03*
%TD*%
%TO.C,MX62*%
X319563750Y-236537500D03*
X329723750Y-236537500D03*
D13*
X324643750Y-236537500D03*
D11*
X327183750Y-231457500D03*
X320833750Y-233997500D03*
%TD*%
D12*
%TO.C,MX34*%
X110648750Y-217487500D03*
D13*
X105568750Y-217487500D03*
D11*
X108108750Y-212407500D03*
X101758750Y-214947500D03*
D12*
X100488750Y-217487500D03*
%TD*%
%TO.C,MX68*%
X467836250Y-236537500D03*
D11*
X458946250Y-233997500D03*
X465296250Y-231457500D03*
D12*
X457676250Y-236537500D03*
D13*
X462756250Y-236537500D03*
%TD*%
D11*
%TO.C,MX24*%
X274796250Y-193357500D03*
X268446250Y-195897500D03*
D12*
X277336250Y-198437500D03*
D13*
X272256250Y-198437500D03*
D12*
X267176250Y-198437500D03*
%TD*%
%TO.C,MX29*%
X401161250Y-198437500D03*
D11*
X392271250Y-195897500D03*
D12*
X391001250Y-198437500D03*
D11*
X398621250Y-193357500D03*
D13*
X396081250Y-198437500D03*
%TD*%
D12*
%TO.C,MX35*%
X124301250Y-217487500D03*
X134461250Y-217487500D03*
D13*
X129381250Y-217487500D03*
D11*
X131921250Y-212407500D03*
X125571250Y-214947500D03*
%TD*%
%TO.C,MX64*%
X361315000Y-224472500D03*
D13*
X365125000Y-227012500D03*
D12*
X360045000Y-227012500D03*
D13*
X373380000Y-215074500D03*
D18*
X358140000Y-238950500D03*
D11*
X367665000Y-221932500D03*
D18*
X358140000Y-215074500D03*
D12*
X370205000Y-227012500D03*
D13*
X373380000Y-238950500D03*
%TD*%
D12*
%TO.C,MX58*%
X253523750Y-236537500D03*
X243363750Y-236537500D03*
D11*
X250983750Y-231457500D03*
D13*
X248443750Y-236537500D03*
D11*
X244633750Y-233997500D03*
%TD*%
D12*
%TO.C,MX53*%
X158273750Y-236537500D03*
D11*
X155733750Y-231457500D03*
D13*
X153193750Y-236537500D03*
D11*
X149383750Y-233997500D03*
D12*
X148113750Y-236537500D03*
%TD*%
D11*
%TO.C,MX2*%
X135096250Y-172085000D03*
D13*
X138906250Y-174625000D03*
D12*
X133826250Y-174625000D03*
X143986250Y-174625000D03*
D11*
X141446250Y-169545000D03*
%TD*%
%TO.C,MX59*%
X263683750Y-233997500D03*
X270033750Y-231457500D03*
D12*
X272573750Y-236537500D03*
X262413750Y-236537500D03*
D13*
X267493750Y-236537500D03*
%TD*%
M02*
