M48
; DRILL file {KiCad (6.0.4)} date Sat Nov  5 13:57:01 2022
; FORMAT={-:-/ absolute / inch / decimal}
; #@! TF.CreationDate,2022-11-05T13:57:01+01:00
; #@! TF.GenerationSoftware,Kicad,Pcbnew,(6.0.4)
; #@! TF.FileFunction,NonPlated,1,2,NPTH
FMAT,2
INCH
; #@! TA.AperFunction,NonPlated,NPTH,ComponentDrill
T1C0.0670
; #@! TA.AperFunction,NonPlated,NPTH,ComponentDrill
T2C0.0866
; #@! TA.AperFunction,NonPlated,NPTH,ComponentDrill
T3C0.1181
; #@! TA.AperFunction,NonPlated,NPTH,ComponentDrill
T4C0.1200
; #@! TA.AperFunction,NonPlated,NPTH,ComponentDrill
T5C0.1570
%
G90
G05
T1
X3.7687Y-6.875
X3.7687Y-7.8125
X3.8625Y-10.0625
X3.9562Y-8.5625
X3.9562Y-10.8125
X4.05Y-9.3125
X4.1688Y-6.875
X4.1688Y-7.8125
X4.2625Y-10.0625
X4.3563Y-8.5625
X4.3563Y-10.8125
X4.45Y-9.3125
X4.5187Y-7.8125
X4.7062Y-10.0625
X4.8937Y-8.5625
X4.8937Y-10.8125
X4.9188Y-7.8125
X5.0812Y-9.3125
X5.1063Y-10.0625
X5.2687Y-6.875
X5.2687Y-7.8125
X5.2938Y-8.5625
X5.2938Y-10.8125
X5.4562Y-10.0625
X5.4813Y-9.3125
X5.6437Y-8.5625
X5.6688Y-6.875
X5.6688Y-7.8125
X5.7375Y-10.8125
X5.8312Y-9.3125
X5.8563Y-10.0625
X6.0187Y-6.875
X6.0187Y-7.8125
X6.0438Y-8.5625
X6.1375Y-10.8125
X6.2062Y-10.0625
X6.2313Y-9.3125
X6.3937Y-8.5625
X6.4188Y-6.875
X6.4188Y-7.8125
X6.5812Y-9.3125
X6.6063Y-10.0625
X6.7687Y-6.875
X6.7687Y-7.8125
X6.7938Y-8.5625
X6.9562Y-10.0625
X6.9813Y-9.3125
X7.1437Y-8.5625
X7.1688Y-6.875
X7.1688Y-7.8125
X7.3312Y-9.3125
X7.3563Y-10.0625
X7.5187Y-6.875
X7.5187Y-7.8125
X7.5438Y-8.5625
X7.7062Y-10.0625
X7.7313Y-9.3125
X7.8937Y-8.5625
X7.9188Y-6.875
X7.9188Y-7.8125
X8.0812Y-9.3125
X8.1062Y-10.0625
X8.2687Y-7.8125
X8.2937Y-8.5625
X8.4562Y-10.0625
X8.4812Y-9.3125
X8.55Y-10.8125
X8.6437Y-6.875
X8.6437Y-8.5625
X8.6687Y-7.8125
X8.8312Y-9.3125
X8.8369Y-10.8125
X8.8562Y-10.0625
X8.95Y-10.8125
X9.0187Y-7.8125
X9.0437Y-6.875
X9.0437Y-8.5625
X9.2062Y-10.0625
X9.2312Y-9.3125
X9.2369Y-10.8125
X9.3937Y-6.875
X9.3937Y-8.5625
X9.4187Y-7.8125
X9.5812Y-9.3125
X9.6062Y-10.0625
X9.7687Y-7.8125
X9.7937Y-6.875
X9.7937Y-8.5625
X9.9562Y-10.0625
X9.9812Y-9.3125
X10.1437Y-6.875
X10.1437Y-8.5625
X10.1687Y-7.8125
X10.3312Y-9.3125
X10.3562Y-10.0625
X10.5187Y-7.8125
X10.5437Y-6.875
X10.5437Y-8.5625
X10.7062Y-10.0625
X10.7312Y-9.3125
X10.8937Y-6.875
X10.8937Y-8.5625
X10.9187Y-7.8125
X11.0812Y-9.3125
X11.1062Y-10.0625
X11.2687Y-7.8125
X11.2687Y-10.8125
X11.2937Y-6.875
X11.2937Y-8.5625
X11.4562Y-10.0625
X11.4812Y-9.3125
X11.6437Y-8.5625
X11.6687Y-7.8125
X11.6687Y-10.8125
X11.8312Y-9.3125
X11.8562Y-10.0625
X11.925Y-10.8125
X12.0187Y-6.875
X12.0187Y-7.8125
X12.0187Y-10.8125
X12.0437Y-8.5625
X12.2062Y-10.0625
X12.2312Y-9.3125
X12.325Y-10.8125
X12.3937Y-8.5625
X12.4187Y-6.875
X12.4187Y-7.8125
X12.4187Y-10.8125
X12.5812Y-9.3125
X12.6062Y-10.0625
X12.7687Y-6.875
X12.7687Y-7.8125
X12.7687Y-10.8125
X12.7937Y-8.5625
X12.9812Y-9.3125
X13.1437Y-8.5625
X13.1687Y-6.875
X13.1687Y-7.8125
X13.1687Y-10.8125
X13.2375Y-10.0625
X13.3312Y-9.3125
X13.5187Y-6.875
X13.5437Y-8.5625
X13.6375Y-10.0625
X13.7062Y-11.0
X13.7312Y-9.3125
X13.8937Y-7.8151
X13.9187Y-6.875
X14.1062Y-11.0
X14.175Y-8.9375
X14.2687Y-6.875
X14.2937Y-7.8151
X14.4562Y-10.25
X14.4562Y-11.0
X14.575Y-8.9375
X14.6687Y-6.875
X14.8562Y-10.25
X14.8562Y-11.0
X15.2062Y-11.0
X15.3937Y-6.875
X15.3937Y-7.8125
X15.3937Y-8.5625
X15.3937Y-9.3125
X15.3937Y-10.0625
X15.6062Y-11.0
X15.7937Y-6.875
X15.7937Y-7.8125
X15.7937Y-8.5625
X15.7937Y-9.3125
X15.7937Y-10.0625
X16.5188Y-7.8125
X16.5188Y-8.5625
X16.5188Y-9.3125
X16.5188Y-10.0625
X16.8938Y-10.8151
X16.9187Y-7.8125
X16.9187Y-8.5625
X16.9187Y-9.3125
X16.9187Y-10.0625
X17.2688Y-7.8125
X17.2688Y-8.5625
X17.2688Y-9.3125
X17.2688Y-10.0625
X17.2937Y-10.8151
X17.6687Y-7.8125
X17.6687Y-8.5625
X17.6687Y-9.3125
X17.6687Y-10.0625
X18.0188Y-7.8125
X18.0188Y-8.5625
X18.0188Y-9.3125
X18.0188Y-10.0625
X18.0188Y-10.8125
X18.4187Y-7.8125
X18.4187Y-8.5625
X18.4187Y-9.3125
X18.4187Y-10.0625
X18.4187Y-10.8125
X18.7688Y-7.8125
X18.7688Y-8.9401
X18.7688Y-10.4401
X19.1687Y-7.8125
X19.1687Y-8.9401
X19.1687Y-10.4401
T2
X4.375Y-7.2812
X4.625Y-10.5312
X8.1562Y-10.8125
X8.2188Y-6.7188
X10.9375Y-9.0312
X14.2188Y-9.7812
X15.0312Y-6.7812
X17.815Y-10.5669
X18.6875Y-7.3125
T3
X3.8188Y-6.775
X3.8188Y-7.7125
X3.9125Y-9.9625
X4.0062Y-8.4625
X4.0062Y-10.7125
X4.0687Y-6.675
X4.0687Y-7.6125
X4.1Y-9.2125
X4.1625Y-9.8625
X4.2562Y-8.3625
X4.2562Y-10.6125
X4.35Y-9.1125
X4.5687Y-7.7125
X4.7562Y-9.9625
X4.8187Y-7.6125
X4.9437Y-8.4625
X4.9437Y-10.7125
X5.0062Y-9.8625
X5.1312Y-9.2125
X5.1937Y-8.3625
X5.1937Y-10.6125
X5.3187Y-6.775
X5.3187Y-7.7125
X5.3812Y-9.1125
X5.5062Y-9.9625
X5.5687Y-6.675
X5.5687Y-7.6125
X5.6937Y-8.4625
X5.7562Y-9.8625
X5.7875Y-10.7125
X5.8812Y-9.2125
X5.9437Y-8.3625
X6.0375Y-10.6125
X6.0687Y-6.775
X6.0687Y-7.7125
X6.1312Y-9.1125
X6.2562Y-9.9625
X6.3187Y-6.675
X6.3187Y-7.6125
X6.4437Y-8.4625
X6.5062Y-9.8625
X6.6312Y-9.2125
X6.6937Y-8.3625
X6.8187Y-6.775
X6.8187Y-7.7125
X6.8812Y-9.1125
X7.0062Y-9.9625
X7.0687Y-6.675
X7.0687Y-7.6125
X7.1937Y-8.4625
X7.2562Y-9.8625
X7.3812Y-9.2125
X7.4437Y-8.3625
X7.5687Y-6.775
X7.5687Y-7.7125
X7.6312Y-9.1125
X7.7562Y-9.9625
X7.8187Y-6.675
X7.8187Y-7.6125
X7.9437Y-8.4625
X8.0062Y-9.8625
X8.1312Y-9.2125
X8.1937Y-8.3625
X8.3187Y-7.7125
X8.3812Y-9.1125
X8.5062Y-9.9625
X8.5687Y-7.6125
X8.6Y-10.7125
X8.6937Y-6.775
X8.6937Y-8.4625
X8.7562Y-9.8625
X8.85Y-10.6125
X8.8812Y-9.2125
X8.8869Y-10.7125
X8.9437Y-6.675
X8.9437Y-8.3625
X9.0687Y-7.7125
X9.1312Y-9.1125
X9.1369Y-10.6125
X9.2562Y-9.9625
X9.3187Y-7.6125
X9.4437Y-6.775
X9.4437Y-8.4625
X9.5062Y-9.8625
X9.6312Y-9.2125
X9.6937Y-6.675
X9.6937Y-8.3625
X9.8187Y-7.7125
X9.8812Y-9.1125
X10.0062Y-9.9625
X10.0687Y-7.6125
X10.1937Y-6.775
X10.1937Y-8.4625
X10.2562Y-9.8625
X10.3812Y-9.2125
X10.4437Y-6.675
X10.4437Y-8.3625
X10.5687Y-7.7125
X10.6312Y-9.1125
X10.7562Y-9.9625
X10.8187Y-7.6125
X10.9437Y-6.775
X10.9437Y-8.4625
X11.0062Y-9.8625
X11.1312Y-9.2125
X11.1937Y-6.675
X11.1937Y-8.3625
X11.3187Y-7.7125
X11.3187Y-10.7125
X11.3812Y-9.1125
X11.5062Y-9.9625
X11.5687Y-7.6125
X11.5687Y-10.6125
X11.6937Y-8.4625
X11.7562Y-9.8625
X11.8812Y-9.2125
X11.9437Y-8.3625
X11.975Y-10.7125
X12.0687Y-6.775
X12.0687Y-7.7125
X12.0687Y-10.7125
X12.1312Y-9.1125
X12.225Y-10.6125
X12.2562Y-9.9625
X12.3187Y-6.675
X12.3187Y-7.6125
X12.3187Y-10.6125
X12.4437Y-8.4625
X12.5062Y-9.8625
X12.6312Y-9.2125
X12.6937Y-8.3625
X12.8187Y-6.775
X12.8187Y-7.7125
X12.8187Y-10.7125
X12.8812Y-9.1125
X13.0687Y-6.675
X13.0687Y-7.6125
X13.0687Y-10.6125
X13.1937Y-8.4625
X13.2875Y-9.9625
X13.3812Y-9.2125
X13.4437Y-8.3625
X13.5375Y-9.8625
X13.5687Y-6.775
X13.6312Y-9.1125
X13.7562Y-10.9
X13.8187Y-6.675
X13.9437Y-7.7151
X14.0062Y-10.8
X14.1937Y-7.6151
X14.225Y-8.8375
X14.3187Y-6.775
X14.475Y-8.7375
X14.5062Y-10.15
X14.5062Y-10.9
X14.5687Y-6.675
X14.7562Y-10.05
X14.7562Y-10.8
X15.2562Y-10.9
X15.4437Y-6.775
X15.4437Y-7.7125
X15.4437Y-8.4625
X15.4437Y-9.2125
X15.4437Y-9.9625
X15.5062Y-10.8
X15.6937Y-6.675
X15.6937Y-7.6125
X15.6937Y-8.3625
X15.6937Y-9.1125
X15.6937Y-9.8625
X16.5687Y-7.7125
X16.5687Y-8.4625
X16.5687Y-9.2125
X16.5687Y-9.9625
X16.8187Y-7.6125
X16.8187Y-8.3625
X16.8187Y-9.1125
X16.8187Y-9.8625
X16.9437Y-10.7151
X17.1937Y-10.6151
X17.3187Y-7.7125
X17.3187Y-8.4625
X17.3187Y-9.2125
X17.3187Y-9.9625
X17.5687Y-7.6125
X17.5687Y-8.3625
X17.5687Y-9.1125
X17.5687Y-9.8625
X18.0687Y-7.7125
X18.0687Y-8.4625
X18.0687Y-9.2125
X18.0687Y-9.9625
X18.0687Y-10.7125
X18.3187Y-7.6125
X18.3187Y-8.3625
X18.3187Y-9.1125
X18.3187Y-9.8625
X18.3187Y-10.6125
X18.8187Y-7.7125
X18.8187Y-8.8401
X18.8187Y-10.3401
X19.0687Y-7.6125
X19.0687Y-8.7401
X19.0687Y-10.2401
T4
X6.7815Y-10.5375
X10.7185Y-10.5375
X11.2869Y-10.5375
X13.6237Y-7.5375
X14.1Y-8.4675
X14.1Y-9.4075
X14.5637Y-7.5375
X16.6238Y-10.5375
X17.5637Y-10.5375
X18.6911Y-8.4701
X18.6911Y-9.4101
X18.6911Y-9.9701
X18.6911Y-10.9101
T5
X3.9688Y-6.875
X3.9688Y-7.8125
X4.0625Y-10.0625
X4.1562Y-8.5625
X4.1562Y-10.8125
X4.25Y-9.3125
X4.7188Y-7.8125
X4.9062Y-10.0625
X5.0938Y-8.5625
X5.0938Y-10.8125
X5.2812Y-9.3125
X5.4688Y-6.875
X5.4688Y-7.8125
X5.6562Y-10.0625
X5.8438Y-8.5625
X5.9375Y-10.8125
X6.0312Y-9.3125
X6.2188Y-6.875
X6.2188Y-7.8125
X6.4062Y-10.0625
X6.5938Y-8.5625
X6.7812Y-9.3125
X6.7815Y-11.1375
X6.9688Y-6.875
X6.9688Y-7.8125
X7.1562Y-10.0625
X7.3438Y-8.5625
X7.5312Y-9.3125
X7.7188Y-6.875
X7.7188Y-7.8125
X7.9062Y-10.0625
X8.0938Y-8.5625
X8.2812Y-9.3125
X8.4688Y-7.8125
X8.6562Y-10.0625
X8.75Y-10.8125
X8.8438Y-6.875
X8.8438Y-8.5625
X9.0312Y-9.3125
X9.0369Y-10.8125
X9.2188Y-7.8125
X9.4062Y-10.0625
X9.5938Y-6.875
X9.5938Y-8.5625
X9.7812Y-9.3125
X9.9688Y-7.8125
X10.1562Y-10.0625
X10.3438Y-6.875
X10.3438Y-8.5625
X10.5312Y-9.3125
X10.7185Y-11.1375
X10.7188Y-7.8125
X10.9062Y-10.0625
X11.0938Y-6.875
X11.0938Y-8.5625
X11.2812Y-9.3125
X11.2869Y-11.1375
X11.4688Y-7.8125
X11.4688Y-10.8125
X11.6562Y-10.0625
X11.8438Y-8.5625
X12.0312Y-9.3125
X12.125Y-10.8125
X12.2188Y-6.875
X12.2188Y-7.8125
X12.2188Y-10.8125
X12.4062Y-10.0625
X12.5938Y-8.5625
X12.7812Y-9.3125
X12.9688Y-6.875
X12.9688Y-7.8125
X12.9688Y-10.8125
X13.3438Y-8.5625
X13.4375Y-10.0625
X13.5312Y-9.3125
X13.6237Y-8.1375
X13.7188Y-6.875
X13.9062Y-11.0
X14.0938Y-7.8151
X14.375Y-8.9375
X14.4688Y-6.875
X14.5637Y-8.1375
X14.6562Y-10.25
X14.6562Y-11.0
X14.7Y-8.4675
X14.7Y-9.4075
X15.4062Y-11.0
X15.5938Y-6.875
X15.5938Y-7.8125
X15.5938Y-8.5625
X15.5938Y-9.3125
X15.5938Y-10.0625
X16.6238Y-11.1375
X16.7188Y-7.8125
X16.7188Y-8.5625
X16.7188Y-9.3125
X16.7188Y-10.0625
X17.0938Y-10.8151
X17.4688Y-7.8125
X17.4688Y-8.5625
X17.4688Y-9.3125
X17.4688Y-10.0625
X17.5637Y-11.1375
X18.2188Y-7.8125
X18.2188Y-8.5625
X18.2188Y-9.3125
X18.2188Y-10.0625
X18.2188Y-10.8125
X18.9688Y-7.8125
X18.9688Y-8.9401
X18.9688Y-10.4401
X19.2911Y-8.4701
X19.2911Y-9.4101
X19.2911Y-9.9701
X19.2911Y-10.9101
T0
M30
